<svg xmlns="http://www.w3.org/2000/svg" xmlns:xlink="http://www.w3.org/1999/xlink" width="43" height="78" viewBox="0 0 43 78">
  <defs>
    <clipPath id="clip-bg-audio">
      <rect width="43" height="78"/>
    </clipPath>
  </defs>
  <g id="bg-audio" clip-path="url(#clip-bg-audio)">
    <g id="右邊喇叭" transform="matrix(0.966, -0.259, 0.259, 0.966, -676.157, -185.03)">
      <g id="Group_25" data-name="Group 25" transform="translate(587.541 358.056)">
        <path id="Path_431" data-name="Path 431" d="M618.9,438.715,589,421a.507.507,0,0,1-.217-.658l30.669-60.882a.508.508,0,0,1,.657-.218l32.011,13.42a.545.545,0,0,1,.1.04l.03.016.036.017a.555.555,0,0,1,.22.2l12.6,11.28a.5.5,0,0,1,.128.593L636.248,442.35a.5.5,0,0,1-.565.248l-16.423-3.76a.541.541,0,0,1-.249-.056C619,438.776,618.913,438.726,618.9,438.715Z" transform="translate(-588.209 -358.697)" fill="#ff4398"/>
        <g id="Group_24" data-name="Group 24">
          <path id="Path_432" data-name="Path 432" d="M651.4,372.532l-.01.019,12.707,11.376-28.988,57.545-16.531-3.785-.009.017-.053-.031-.017,0,0,0-29.916-17.726,30.669-60.882L651.325,372.5l0,0,.012.011.057.024m.443-.878c-.023-.012-.047-.023-.072-.033l-.021-.009c-.028-.013-.057-.025-.086-.036l-32.038-13.432a1.016,1.016,0,0,0-1.315.436l-30.669,60.882a1.016,1.016,0,0,0,.434,1.317l29.833,17.677a1.133,1.133,0,0,0,.152.092l.027.013.039.021a1.128,1.128,0,0,0,.459.12l16.337,3.741a1,1,0,0,0,1.131-.5L665.039,384.4a1,1,0,0,0-.256-1.187L652.23,371.977a1.114,1.114,0,0,0-.39-.323Z" transform="translate(-587.541 -358.056)" fill="#004990"/>
        </g>
      </g>
      <g id="Group_27" data-name="Group 27" transform="translate(619.1 372.556)">
        <path id="Path_433" data-name="Path 433" d="M660.237,457.334a.243.243,0,0,1-.111-.113.247.247,0,0,1,0-.217l32.83-65.172a.246.246,0,0,1,.33-.109.254.254,0,0,1,.057.039l11.739,10.912a.247.247,0,0,1,.052.291l-28.988,57.545a.245.245,0,0,1-.27.13L660.3,457.355A.239.239,0,0,1,660.237,457.334Z" transform="translate(-659.856 -391.451)" fill="#ff4398"/>
        <g id="Group_26" data-name="Group 26" transform="translate(0)">
          <path id="Path_434" data-name="Path 434" d="M692.862,391.628,704.6,402.539l-28.988,57.545L660.032,456.8l32.83-65.172m.221-.439a.492.492,0,0,0-.661.218l-32.83,65.171a.492.492,0,0,0,.218.661.5.5,0,0,0,.12.042l15.581,3.285a.492.492,0,0,0,.541-.26l28.988-57.545a.492.492,0,0,0-.1-.582L693.2,391.268a.5.5,0,0,0-.114-.079Z" transform="translate(-659.54 -391.136)" fill="#004990"/>
        </g>
      </g>
      <g id="Group_43" data-name="Group 43" transform="translate(612.778 365.287)">
        <g id="Group_29" data-name="Group 29" transform="translate(2.383 1.628)">
          <path id="Path_435" data-name="Path 435" d="M656.891,403.882c-5.6-2.823-7.452-10.505-4.118-17.124s10.607-9.707,16.211-6.884l.845.426c5.6,2.823,7.452,10.505,4.118,17.124s-10.607,9.707-16.211,6.883Z" transform="translate(-650.868 -378.582)" fill="#005bb7"/>
          <g id="Group_28" data-name="Group 28">
            <path id="Path_436" data-name="Path 436" d="M669.4,380.2c5.493,2.767,7.287,10.286,4.009,16.794s-10.389,9.541-15.881,6.775l-.845-.426c-5.492-2.767-7.287-10.286-4.008-16.794s10.389-9.541,15.881-6.775l.845.426m.221-.439-.845-.426c-5.726-2.885-13.146.252-16.542,6.993s-1.5,14.57,4.226,17.455l.845.426c5.726,2.885,13.147-.253,16.542-6.993s1.5-14.57-4.227-17.455Z" transform="translate(-650.554 -378.268)" fill="#004990"/>
          </g>
        </g>
        <g id="Group_32" data-name="Group 32" transform="translate(2.579 1.825)">
          <g id="Group_31" data-name="Group 31">
            <path id="Path_437" data-name="Path 437" d="M657.061,403.92c-5.556-2.8-7.384-10.422-4.074-16.992s10.523-9.639,16.079-6.841,7.384,10.422,4.074,16.992S662.618,406.719,657.061,403.92Z" transform="translate(-651.19 -378.905)" fill="#005bb7"/>
            <g id="Group_30" data-name="Group 30">
              <path id="Path_438" data-name="Path 438" d="M668.812,380.031c5.492,2.767,7.287,10.286,4.008,16.794s-10.389,9.541-15.881,6.775-7.287-10.286-4.008-16.794,10.389-9.541,15.881-6.775m.132-.263c-5.629-2.836-12.931.262-16.277,6.905s-1.49,14.355,4.139,17.19,12.931-.262,16.278-6.905,1.489-14.355-4.14-17.19Z" transform="translate(-651.002 -378.716)" fill="#004990"/>
            </g>
          </g>
        </g>
        <g id="Group_34" data-name="Group 34" transform="translate(3.392 3.119)">
          <path id="Path_439" data-name="Path 439" d="M658.365,403.778c-4.807-2.422-6.385-9.025-3.516-14.719s9.113-8.357,13.92-5.935l.845.426c4.807,2.422,6.385,9.024,3.517,14.718s-9.113,8.357-13.921,5.935Z" transform="translate(-653.171 -381.983)" fill="#005bb7"/>
          <g id="Group_33" data-name="Group 33">
            <path id="Path_440" data-name="Path 440" d="M669.188,383.455c4.694,2.364,6.219,8.806,3.407,14.388s-8.9,8.191-13.59,5.826l-.845-.426c-4.693-2.365-6.219-8.806-3.407-14.388s8.9-8.191,13.59-5.826l.845.426m.221-.439-.845-.426c-4.928-2.482-11.321.229-14.25,6.044s-1.3,12.566,3.625,15.049l.845.426c4.929,2.483,11.321-.229,14.251-6.044s1.3-12.566-3.625-15.049Z" transform="translate(-652.856 -381.669)" fill="#004990"/>
          </g>
        </g>
        <g id="Group_37" data-name="Group 37" transform="translate(0 0)">
          <g id="Group_36" data-name="Group 36" transform="translate(0)">
            <ellipse id="Ellipse_16" data-name="Ellipse 16" cx="11.465" cy="9.663" rx="11.465" ry="9.663" transform="matrix(0.45, -0.893, 0.893, 0.45, 0, 20.478)" fill="#00ff5f"/>
            <g id="Group_35" data-name="Group 35" transform="translate(3.589 3.315)">
              <path id="Path_441" data-name="Path 441" d="M668.595,383.281c4.694,2.364,6.219,8.806,3.407,14.388s-8.9,8.191-13.59,5.826-6.219-8.806-3.407-14.388,8.9-8.191,13.59-5.826m.133-.264c-4.831-2.434-11.105.239-13.986,5.957s-1.294,12.351,3.538,14.785,11.106-.238,13.986-5.957,1.294-12.351-3.538-14.785Z" transform="translate(-653.304 -382.117)" fill="#004990"/>
            </g>
          </g>
        </g>
        <g id="Group_39" data-name="Group 39" transform="translate(5.508 6.265)">
          <path id="Path_442" data-name="Path 442" d="M662.555,404.6c-.086-.043-.167-.092-.248-.141l-.093-.056-.072-.027c-.087-.036-.175-.072-.261-.116-3.454-1.74-4.662-6.338-2.691-10.249s6.383-5.678,9.838-3.937c.085.043.165.091.245.139l.1.057.076.029c.086.036.173.071.257.114,3.454,1.74,4.662,6.338,2.692,10.249S666.009,406.342,662.555,404.6Z" transform="translate(-657.998 -389.16)" fill="#005bb7"/>
          <g id="Group_38" data-name="Group 38">
            <path id="Path_443" data-name="Path 443" d="M669.276,390.32c3.339,1.682,4.495,6.122,2.582,9.918s-6.169,5.511-9.507,3.829c-.114-.057-.218-.126-.327-.189s-.233-.093-.347-.15c-3.339-1.681-4.495-6.122-2.583-9.918s6.169-5.51,9.507-3.829c.114.057.219.126.327.189s.233.093.347.15m.221-.44c-.1-.049-.188-.086-.277-.123l-.069-.029-.064-.039c-.082-.049-.167-.1-.264-.149-3.576-1.8-8.137.014-10.168,4.047s-.775,8.778,2.8,10.579c.1.049.189.086.277.123l.069.029.064.039c.082.049.167.1.264.149,3.575,1.8,8.137-.014,10.168-4.047s.775-8.778-2.8-10.579Z" transform="translate(-657.684 -388.845)" fill="#004990"/>
          </g>
        </g>
        <g id="Group_42" data-name="Group 42" transform="translate(6.379 6.801)">
          <g id="Group_41" data-name="Group 41">
            <path id="Path_444" data-name="Path 444" d="M663.589,405.075c-3.406-1.716-4.594-6.254-2.648-10.117s6.3-5.61,9.7-3.894,4.594,6.254,2.648,10.117S666.995,406.79,663.589,405.075Z" transform="translate(-659.858 -390.257)" fill="#005bb7"/>
            <g id="Group_40" data-name="Group 40">
              <path id="Path_445" data-name="Path 445" d="M670.391,391.007c3.338,1.682,4.495,6.123,2.582,9.918s-6.168,5.511-9.507,3.829-4.495-6.122-2.582-9.919,6.169-5.51,9.507-3.828m.133-.264c-3.479-1.752-7.921.024-9.9,3.959s-.765,8.563,2.713,10.315,7.921-.024,9.9-3.959.765-8.563-2.713-10.315Z" transform="translate(-659.669 -390.068)" fill="#004990"/>
            </g>
          </g>
        </g>
      </g>
      <g id="Group_53" data-name="Group 53" transform="translate(590.71 387.129)">
        <g id="Group_45" data-name="Group 45" transform="translate(5.44 5.02)">
          <path id="Path_446" data-name="Path 446" d="M615.384,469.64c-7.422-3.739-9.861-13.927-5.436-22.711s14.063-12.889,21.485-9.15l.786.4c7.422,3.739,9.86,13.927,5.435,22.711s-14.063,12.889-21.485,9.15Z" transform="translate(-607.496 -436.151)" fill="#005bb7"/>
          <g id="Group_44" data-name="Group 44">
            <path id="Path_447" data-name="Path 447" d="M631.795,438.08c7.313,3.684,9.7,13.7,5.327,22.381s-13.842,12.725-21.155,9.041l-.786-.4c-7.313-3.684-9.7-13.7-5.326-22.381S623.7,434,631.009,437.684l.785.4m.221-.439-.785-.4c-7.543-3.8-17.33.354-21.816,9.259s-2,19.242,5.544,23.041l.786.4c7.543,3.8,17.33-.354,21.815-9.259s2-19.242-5.544-23.041Z" transform="translate(-607.182 -435.836)" fill="#004990"/>
          </g>
        </g>
        <g id="Group_48" data-name="Group 48" transform="translate(0 0)">
          <g id="Group_47" data-name="Group 47">
            <ellipse id="Ellipse_17" data-name="Ellipse 17" cx="17.739" cy="14.973" rx="17.739" ry="14.973" transform="matrix(0.45, -0.893, 0.893, 0.45, 0, 31.686)" fill="#005bb7"/>
            <g id="Group_46" data-name="Group 46" transform="translate(5.636 5.216)">
              <path id="Path_448" data-name="Path 448" d="M631.261,437.936c7.313,3.684,9.7,13.7,5.326,22.381s-13.842,12.725-21.155,9.041-9.7-13.7-5.326-22.381,13.842-12.725,21.155-9.041m.133-.263c-7.446-3.751-17.114.363-21.552,9.172s-1.989,19.026,5.457,22.777,17.114-.363,21.551-9.172,1.989-19.026-5.457-22.777Z" transform="translate(-607.63 -436.284)" fill="#004990"/>
            </g>
          </g>
        </g>
        <g id="Group_51" data-name="Group 51" transform="translate(7.143 7.18)">
          <g id="Group_50" data-name="Group 50">
            <path id="Path_449" data-name="Path 449" d="M618.248,470.136c-6.588-3.319-8.809-12.252-4.949-19.914s12.359-11.194,18.947-7.875,8.809,12.252,4.95,19.913S624.837,473.455,618.248,470.136Z" transform="translate(-611.256 -440.953)" fill="#005bb7"/>
            <g id="Group_49" data-name="Group 49">
              <path id="Path_450" data-name="Path 450" d="M631.992,442.29c6.526,3.288,8.713,12.114,4.884,19.715s-12.224,11.1-18.749,7.81-8.713-12.114-4.884-19.715,12.224-11.1,18.75-7.81m.133-.263c-6.661-3.355-15.25.207-19.146,7.941s-1.646,16.756,5.015,20.112,15.25-.206,19.146-7.941,1.646-16.756-5.014-20.112Z" transform="translate(-611.067 -440.764)" fill="#004990"/>
            </g>
          </g>
        </g>
        <g id="Group_52" data-name="Group 52" transform="translate(3.106 3.597)">
          <ellipse id="Ellipse_18" data-name="Ellipse 18" cx="14.691" cy="12.768" rx="14.691" ry="12.768" transform="translate(0 26.24) rotate(-63.264)" fill="#00ff5f"/>
          <path id="Path_451" data-name="Path 451" d="M632.418,444.1c6.215,3.131,8.336,11.5,4.729,18.666s-11.6,10.441-17.814,7.31-8.336-11.5-4.729-18.666,11.6-10.441,17.814-7.31m.133-.263c-6.36-3.2-14.53.134-18.21,7.441s-1.5,15.858,4.86,19.062,14.53-.134,18.21-7.441,1.5-15.859-4.86-19.062Z" transform="translate(-607.863 -438.22)" fill="#004990"/>
        </g>
        <path id="Path_452" data-name="Path 452" d="M644.662,466.348c2.239,1.128,2.946,4.24,1.58,6.951s-4.288,4-6.526,2.867-2.946-4.239-1.58-6.951,4.288-3.995,6.526-2.868m.133-.263c-2.38-1.2-5.486.146-6.922,3s-.669,6.148,1.711,7.348,5.486-.146,6.922-3,.669-6.148-1.711-7.347Z" transform="translate(-618.573 -447.56)" fill="#004990"/>
      </g>
      <path id="Path_453" data-name="Path 453" d="M731.985,393.634a1.76,1.76,0,0,1,2.219-.608c-.611-.753-1.44-1.587-2.384-1.368a2.2,2.2,0,0,1-.2,2.372" transform="translate(-80.925 -18.853)" fill="none" stroke="#004990" stroke-linecap="round" stroke-linejoin="round" stroke-miterlimit="10" stroke-width="2.79"/>
      <path id="Path_454" data-name="Path 454" d="M656.816,535.867a2.933,2.933,0,0,0,3.262-1.815,5.681,5.681,0,0,0-.271,1.673,1.914,1.914,0,0,0,.7,1.487l-2.245-.79.122.125" transform="translate(-38.91 -98.853)" fill="none" stroke="#004990" stroke-linecap="round" stroke-linejoin="round" stroke-miterlimit="10" stroke-width="2.79"/>
      <path id="Path_455" data-name="Path 455" d="M750.862,415.6l1.446.939a.589.589,0,0,1,.209.966q-1.538,2.851-3.123,5.675" transform="translate(-90.909 -32.32)" fill="none" stroke="#004990" stroke-linecap="round" stroke-miterlimit="10" stroke-width="1.79"/>
      <path id="Path_456" data-name="Path 456" d="M745.55,440.409" transform="translate(-88.75 -46.256)" fill="none" stroke="#004990" stroke-miterlimit="10" stroke-width="0.792"/>
      <path id="Path_457" data-name="Path 457" d="M727.4,448.657q-5.686,11.509-11.578,22.914" transform="translate(-72.052 -50.888)" fill="none" stroke="#004990" stroke-linecap="round" stroke-miterlimit="10" stroke-width="1.79"/>
      <path id="Path_458" data-name="Path 458" d="M675.618,514.465a90.807,90.807,0,0,0-4.2,8.475,1.354,1.354,0,0,0-.134,1.091,1.323,1.323,0,0,0,.944.57,21.062,21.062,0,0,0,5.42.615" transform="translate(-46.999 -87.851)" fill="none" stroke="#004990" stroke-linecap="round" stroke-miterlimit="10" stroke-width="1.79"/>
      <path id="Path_459" data-name="Path 459" d="M603.788,475.951a12.782,12.782,0,0,0,.5,8.167" transform="translate(-8.875 -66.219)" fill="none" stroke="#004990" stroke-linecap="round" stroke-miterlimit="10" stroke-width="1.79"/>
      <path id="Path_460" data-name="Path 460" d="M607.453,498.384l-.027.117" transform="translate(-11.169 -78.819)" fill="none" stroke="#004990" stroke-linecap="round" stroke-miterlimit="10" stroke-width="1.79"/>
      <path id="Path_461" data-name="Path 461" d="M690.545,429a14.328,14.328,0,0,0,8.04-8.969" transform="translate(-57.855 -34.808)" fill="none" stroke="#004990" stroke-linecap="round" stroke-miterlimit="10" stroke-width="1.79"/>
      <path id="Path_462" data-name="Path 462" d="M662.086,389.8a7.85,7.85,0,0,1,7.17-3.432" transform="translate(-41.87 -15.886)" fill="none" stroke="#fff" stroke-linecap="round" stroke-miterlimit="10" stroke-width="3.79"/>
      <path id="Path_463" data-name="Path 463" d="M657.862,402.537" transform="translate(-39.498 -24.984)" fill="none" stroke="#fff" stroke-miterlimit="10" stroke-width="0.792"/>
      <path id="Path_464" data-name="Path 464" d="M616.705,454.4a13.081,13.081,0,0,1,11.315-9.1" transform="translate(-16.381 -49.005)" fill="none" stroke="#fff" stroke-linecap="round" stroke-miterlimit="10" stroke-width="3.79"/>
      <path id="Path_465" data-name="Path 465" d="M640.109,444.474" transform="translate(-29.526 -48.539)" fill="none" stroke="#fff" stroke-miterlimit="10" stroke-width="0.792"/>
      <path id="Path_466" data-name="Path 466" d="M617.271,479.478l-.043.184" transform="translate(-16.675 -68.2)" fill="none" stroke="#fff" stroke-miterlimit="10" stroke-width="0.792"/>
      <g id="Group_54" data-name="Group 54" transform="translate(608.74 366.444)">
        <path id="Path_467" data-name="Path 467" d="M648.034,377.193q-3.576,7.217-7.562,14.22" transform="translate(-638.471 -377.193)" fill="none" stroke="#fff" stroke-linecap="round" stroke-miterlimit="10" stroke-width="3.79"/>
        <path id="Path_468" data-name="Path 468" d="M635.906,420.572" transform="translate(-635.906 -401.558)" fill="none" stroke="#fff" stroke-linecap="round" stroke-miterlimit="10" stroke-width="3.79"/>
      </g>
      <path id="Path_469" data-name="Path 469" d="M683.381,443.052h0" transform="translate(-53.816 -47.74)" fill="none" stroke="#004990" stroke-linecap="round" stroke-miterlimit="10" stroke-width="1.79"/>
      <path id="Path_470" data-name="Path 470" d="M642.662,511.442a13.086,13.086,0,0,0,13.353-7.447" transform="translate(-30.96 -81.97)" fill="none" stroke="#004990" stroke-linecap="round" stroke-miterlimit="10" stroke-width="1.79"/>
    </g>
  </g>
</svg>
