<svg xmlns="http://www.w3.org/2000/svg" xmlns:xlink="http://www.w3.org/1999/xlink" width="288" height="272" viewBox="0 0 288 272">
  <defs>
    <clipPath id="clip-path">
      <rect id="Rectangle_148" data-name="Rectangle 148" width="288" height="272"/>
    </clipPath>
    <filter id="加碼抽" x="45.84" y="-0.001" width="130" height="47" filterUnits="userSpaceOnUse">
      <feOffset dx="2" dy="4" input="SourceAlpha"/>
      <feGaussianBlur result="blur"/>
      <feFlood flood-color="#003a72"/>
      <feComposite operator="in" in2="blur"/>
      <feComposite in="SourceGraphic"/>
    </filter>
  </defs>
  <g id="bg-awards-text-3" clip-path="url(#clip-path)">
    <path id="Path_1060" data-name="Path 1060" d="M375.5,1013.82.5,1071.17Z" transform="translate(55.342 -997.352)" fill="#004990"/>
    <g id="Group_1118" data-name="Group 1118" transform="translate(3637.46 -1697.661)">
      <g id="Group_1117" data-name="Group 1117" transform="translate(-5504.859 -259.143)">
        <path id="Path_52" data-name="Path 52" d="M2052.68,2127.46a5.474,5.474,0,0,0-3.965-4.949c-2.616-.736-4.619.256-6.724,3.361a6.155,6.155,0,0,0-3.77-3.765c2.938-1.764,4.025-3.813,3.445-6.4a5.452,5.452,0,0,0-4.7-4.26c-2.718-.274-4.649,1.04-6.02,4.131-1.1-2.883-2.993-4.262-5.655-4.161a5.476,5.476,0,0,0-4.986,3.92c-.766,2.615.2,4.635,3.173,6.694a15.283,15.283,0,0,0-2.083,1.514,16.433,16.433,0,0,0-1.562,2.121c-1.919-2.862-3.875-3.859-6.421-3.235a5.5,5.5,0,0,0-3.263,8.466,5.769,5.769,0,0,0,3.344,2.285c-3.188,1.479-4.56,3.291-4.292,5.8a6.391,6.391,0,0,0,.777,2.49,5.883,5.883,0,0,0,1.767,1.826,11.881,11.881,0,0,0,2.264.962c-3.251,1-4.815,2.905-4.621,5.7a5.3,5.3,0,0,0,4.551,4.849,5.108,5.108,0,0,0,4-1.064,3.8,3.8,0,1,1,7.17,1.36c-3.413,1.1-5.01,3.1-4.66,5.759a5.155,5.155,0,0,0,10.128.694,5.025,5.025,0,0,0-.365-3.467,5.4,5.4,0,0,0-4.131-2.979,5.732,5.732,0,0,0,4.856-4.11c1.576,3.129,3.283,4.263,6.018,4.018a5.357,5.357,0,0,0,4.635-3.886c.784-3.108-.472-5.326-3.316-6.8a6.264,6.264,0,0,0,3.743-3.714c1.672,2.793,3.715,3.914,6.176,3.452a5.382,5.382,0,0,0,4.434-4.535c.368-3.277-1.234-5.326-4.351-6.331C2051.39,2132.08,2052.79,2130.23,2052.68,2127.46Zm-32.8,2.228a3.529,3.529,0,1,1-3.41,1.616,3.523,3.523,0,0,1,3.41-1.616Zm.167,19.361a5.641,5.641,0,0,0-5.032-4.839,5.79,5.79,0,0,0,4.85-3.548,6.4,6.4,0,0,0,3.725,3.7,5.839,5.839,0,0,0-3.54,4.688Zm10.921-.812a5.873,5.873,0,0,0-3.433-3.855,6.445,6.445,0,0,0,3.434-3.017,6.3,6.3,0,0,0,3.472,3,5.878,5.878,0,0,0-3.471,3.875Zm-2.511-15.025,2.519-2.5,2.536,2.511-2.542,2.463Zm2.525-8.095a6.641,6.641,0,0,0-3.491-3.051,3.552,3.552,0,1,1,7.043.014,6.309,6.309,0,0,0-3.554,3.04Zm11.058,11.7a3.672,3.672,0,1,1,3.7-1.606,3.642,3.642,0,0,1-3.7,1.606Z" transform="translate(-19.715 -19.707)" fill="#07fd60"/>
        <path id="Path_53" data-name="Path 53" d="M2054.18,2151.19a5.3,5.3,0,1,0,5.275,5.325,5.3,5.3,0,0,0-5.275-5.325Z" transform="translate(-26.625 -26.635)" fill="#07fd60"/>
        <path id="Path_54" data-name="Path 54" d="M2014.75,2122.23a5.2,5.2,0,0,0,5.3-5.289,5.3,5.3,0,1,0-10.6-.047,5.2,5.2,0,0,0,5.3,5.336Z" transform="translate(-19.763 -19.744)" fill="#07fd60"/>
        <path id="Path_55" data-name="Path 55" d="M2054.12,2122.23a5.292,5.292,0,1,0-5.285-5.311A5.349,5.349,0,0,0,2054.12,2122.23Z" transform="translate(-26.625 -19.747)" fill="#07fd60"/>
        <path id="Path_56" data-name="Path 56" d="M2001.57,2138.19a5.155,5.155,0,1,0,5.16,5.15A5.155,5.155,0,0,0,2001.57,2138.19Z" transform="translate(-17.493 -24.37)" fill="#07fd60"/>
        <path id="Path_57" data-name="Path 57" d="M2040.98,2164.39a5.049,5.049,0,0,0-5.149,5.156,5.153,5.153,0,1,0,10.305,0,5.067,5.067,0,0,0-5.156-5.156Z" transform="translate(-24.359 -28.935)" fill="#07fd60"/>
        <path id="Path_58" data-name="Path 58" d="M2001.55,2135.29a5.144,5.144,0,1,0-5.117-5.117A5.144,5.144,0,0,0,2001.55,2135.29Z" transform="translate(-17.496 -22.074)" fill="#07fd60"/>
        <path id="Path_59" data-name="Path 59" d="M2041.01,2109.08a5.135,5.135,0,1,0-5.155-5.148A5.135,5.135,0,0,0,2041.01,2109.08Z" transform="translate(-24.363 -17.511)" fill="#07fd60"/>
        <path id="Path_60" data-name="Path 60" d="M2067.38,2125.02a5.13,5.13,0,1,0,5.108,5.116A5.129,5.129,0,0,0,2067.38,2125.02Z" transform="translate(-28.959 -22.077)" fill="#07fd60"/>
        <path id="Path_61" data-name="Path 61" d="M2027.9,2109.09a5.142,5.142,0,1,0-5.069-5.246,5.213,5.213,0,0,0,5.069,5.246Z" transform="translate(-22.094 -17.511)" fill="#07fd60"/>
        <path id="Path_62" data-name="Path 62" d="M2067.37,2138.22a5.129,5.129,0,1,0,5.123,5.1,5.129,5.129,0,0,0-5.123-5.1Z" transform="translate(-28.959 -24.375)" fill="#07fd60"/>
        <path id="Path_63" data-name="Path 63" d="M2014.76,2164.57a5.011,5.011,0,1,0,5.047,4.993A5.011,5.011,0,0,0,2014.76,2164.57Z" transform="translate(-19.822 -28.966)" fill="#07fd60"/>
        <path id="Path_64" data-name="Path 64" d="M2001.63,2151.55a5.012,5.012,0,1,0,4.98,5.06,5.012,5.012,0,0,0-4.98-5.06Z" transform="translate(-17.524 -26.698)" fill="#07fd60"/>
        <path id="Path_65" data-name="Path 65" d="M2054.19,2164.76a5,5,0,1,0,5.013,5.018,5,5,0,0,0-5.013-5.018Z" transform="translate(-26.689 -28.998)" fill="#07fd60"/>
        <path id="Path_66" data-name="Path 66" d="M2067.45,2151.56a5,5,0,1,0,4.936,5.026,5,5,0,0,0-4.936-5.026Z" transform="translate(-28.986 -26.7)" fill="#07fd60"/>
        <path id="Path_67" data-name="Path 67" d="M2001.6,2121.99a5,5,0,1,0-4.993-5.039A5,5,0,0,0,2001.6,2121.99Z" transform="translate(-17.527 -19.807)" fill="#07fd60"/>
        <path id="Path_68" data-name="Path 68" d="M2014.75,2108.97a5,5,0,1,0-4.949-5.013,5,5,0,0,0,4.949,5.013Z" transform="translate(-19.824 -17.538)" fill="#07fd60"/>
        <path id="Path_69" data-name="Path 69" d="M2067.42,2121.98a4.982,4.982,0,1,0-5.008-4.956,4.982,4.982,0,0,0,5.008,4.956Z" transform="translate(-28.99 -19.81)" fill="#07fd60"/>
        <path id="Path_70" data-name="Path 70" d="M2054.22,2108.95a4.981,4.981,0,1,0-5-4.965A4.981,4.981,0,0,0,2054.22,2108.95Z" transform="translate(-26.692 -17.542)" fill="#07fd60"/>
        <path id="Path_71" data-name="Path 71" d="M1988.47,2125.48a4.738,4.738,0,1,0,3.385,1.408,4.754,4.754,0,0,0-3.385-1.408Z" transform="translate(-15.28 -22.156)" fill="#07fd60"/>
        <path id="Path_72" data-name="Path 72" d="M2001.69,2164.88a4.738,4.738,0,1,0,3.376,1.431,4.755,4.755,0,0,0-3.376-1.431Z" transform="translate(-17.578 -29.02)" fill="#07fd60"/>
        <path id="Path_73" data-name="Path 73" d="M1988.5,2138.67a4.737,4.737,0,1,0,3.376,1.43A4.755,4.755,0,0,0,1988.5,2138.67Z" transform="translate(-15.28 -24.454)" fill="#07fd60"/>
        <path id="Path_74" data-name="Path 74" d="M2041.09,2178.07a4.737,4.737,0,1,0,3.354,1.4A4.754,4.754,0,0,0,2041.09,2178.07Z" transform="translate(-24.442 -31.318)" fill="#07fd60"/>
        <path id="Path_75" data-name="Path 75" d="M2028.11,2178.07a4.735,4.735,0,1,0,3.342,1.429,4.755,4.755,0,0,0-3.342-1.429Z" transform="translate(-22.174 -31.318)" fill="#07fd60"/>
        <path id="Path_76" data-name="Path 76" d="M2001.65,2108.77a4.747,4.747,0,1,0-4.738-4.756A4.747,4.747,0,0,0,2001.65,2108.77Z" transform="translate(-17.58 -17.591)" fill="#07fd60"/>
        <path id="Path_77" data-name="Path 77" d="M2067.45,2165.06a4.747,4.747,0,1,0,4.74,4.753,4.747,4.747,0,0,0-4.74-4.753Z" transform="translate(-29.039 -29.052)" fill="#07fd60"/>
        <path id="Path_78" data-name="Path 78" d="M2067.45,2108.76a4.737,4.737,0,1,0-4.737-4.755A4.737,4.737,0,0,0,2067.45,2108.76Z" transform="translate(-29.042 -17.594)" fill="#07fd60"/>
        <path id="Path_79" data-name="Path 79" d="M2080.66,2125.5a4.737,4.737,0,1,0,4.719,4.773,4.737,4.737,0,0,0-4.719-4.773Z" transform="translate(-31.339 -22.16)" fill="#07fd60"/>
        <path id="Path_80" data-name="Path 80" d="M2080.62,2138.69a4.737,4.737,0,1,0,4.757,4.735,4.737,4.737,0,0,0-4.757-4.735Z" transform="translate(-31.34 -24.458)" fill="#07fd60"/>
        <path id="Path_81" data-name="Path 81" d="M2041.08,2095.57a4.737,4.737,0,1,0-4.753-4.738,4.737,4.737,0,0,0,4.753,4.738Z" transform="translate(-24.446 -15.296)" fill="#07fd60"/>
        <path id="Path_82" data-name="Path 82" d="M2028.02,2095.57a4.737,4.737,0,1,0-4.714-4.777A4.737,4.737,0,0,0,2028.02,2095.57Z" transform="translate(-22.177 -15.296)" fill="#07fd60"/>
        <path id="Path_83" data-name="Path 83" d="M1988.46,2152a4.606,4.606,0,1,0,3.306,1.332,4.639,4.639,0,0,0-3.306-1.332Z" transform="translate(-15.304 -26.776)" fill="#07fd60"/>
        <path id="Path_84" data-name="Path 84" d="M2014.84,2178.21a4.607,4.607,0,1,0,3.305,1.333A4.639,4.639,0,0,0,2014.84,2178.21Z" transform="translate(-19.9 -31.343)" fill="#07fd60"/>
        <path id="Path_85" data-name="Path 85" d="M2054.29,2178.21a4.606,4.606,0,1,0,3.292,1.364A4.639,4.639,0,0,0,2054.29,2178.21Z" transform="translate(-26.765 -31.343)" fill="#07fd60"/>
        <path id="Path_86" data-name="Path 86" d="M2080.79,2152.02a4.6,4.6,0,1,0,3.226,1.428,4.625,4.625,0,0,0-3.226-1.428Z" transform="translate(-31.363 -26.779)" fill="#07fd60"/>
        <path id="Path_87" data-name="Path 87" d="M1988.46,2121.7a4.6,4.6,0,1,0-3.256-1.358,4.625,4.625,0,0,0,3.256,1.358Z" transform="translate(-15.307 -19.886)" fill="#07fd60"/>
        <path id="Path_88" data-name="Path 88" d="M2014.88,2095.48a4.6,4.6,0,1,0-3.292-1.354,4.625,4.625,0,0,0,3.292,1.354Z" transform="translate(-19.903 -15.319)" fill="#07fd60"/>
        <path id="Path_89" data-name="Path 89" d="M2080.68,2121.69a4.6,4.6,0,1,0-3.292-1.352A4.614,4.614,0,0,0,2080.68,2121.69Z" transform="translate(-31.365 -19.888)" fill="#07fd60"/>
        <path id="Path_90" data-name="Path 90" d="M2054.33,2095.47a4.6,4.6,0,1,0-3.3-1.332A4.614,4.614,0,0,0,2054.33,2095.47Z" transform="translate(-26.77 -15.322)" fill="#07fd60"/>
        <path id="Path_91" data-name="Path 91" d="M1988.54,2165.24a4.462,4.462,0,1,0,4.453,4.5,4.462,4.462,0,0,0-4.453-4.5Z" transform="translate(-15.342 -29.082)" fill="#07fd60"/>
        <path id="Path_92" data-name="Path 92" d="M2001.75,2178.43a4.462,4.462,0,1,0,4.43,4.53A4.462,4.462,0,0,0,2001.75,2178.43Z" transform="translate(-17.64 -31.38)" fill="#07fd60"/>
        <path id="Path_93" data-name="Path 93" d="M2080.71,2165.42a4.451,4.451,0,1,0,4.438,4.446A4.451,4.451,0,0,0,2080.71,2165.42Z" transform="translate(-31.4 -29.114)" fill="#07fd60"/>
        <path id="Path_94" data-name="Path 94" d="M2001.71,2095.34a4.451,4.451,0,1,0-4.445-4.51,4.451,4.451,0,0,0,4.445,4.51Z" transform="translate(-17.642 -15.356)" fill="#07fd60"/>
        <path id="Path_95" data-name="Path 95" d="M1988.5,2108.53a4.451,4.451,0,1,0-4.418-4.466,4.451,4.451,0,0,0,4.418,4.466Z" transform="translate(-15.344 -17.654)" fill="#07fd60"/>
        <path id="Path_96" data-name="Path 96" d="M2067.52,2178.44a4.451,4.451,0,1,0,4.44,4.444,4.451,4.451,0,0,0-4.44-4.444Z" transform="translate(-29.102 -31.382)" fill="#07fd60"/>
        <path id="Path_97" data-name="Path 97" d="M2080.7,2108.52a4.435,4.435,0,1,0-4.435-4.384A4.435,4.435,0,0,0,2080.7,2108.52Z" transform="translate(-31.403 -17.657)" fill="#07fd60"/>
        <path id="Path_98" data-name="Path 98" d="M2067.42,2095.33a4.435,4.435,0,1,0-4.348-4.538A4.435,4.435,0,0,0,2067.42,2095.33Z" transform="translate(-29.105 -15.359)" fill="#07fd60"/>
        <path id="Path_99" data-name="Path 99" d="M2028.03,2191.76a4.319,4.319,0,1,0,3.055,1.309A4.347,4.347,0,0,0,2028.03,2191.76Z" transform="translate(-22.23 -33.702)" fill="#07fd60"/>
        <path id="Path_100" data-name="Path 100" d="M2041.23,2191.76a4.319,4.319,0,1,0,3.051,1.316A4.347,4.347,0,0,0,2041.23,2191.76Z" transform="translate(-24.528 -33.702)" fill="#07fd60"/>
        <path id="Path_101" data-name="Path 101" d="M1975.42,2125.97a4.32,4.32,0,1,0,3.057,1.3,4.347,4.347,0,0,0-3.057-1.3Z" transform="translate(-13.068 -22.242)" fill="#07fd60"/>
        <path id="Path_102" data-name="Path 102" d="M1975.39,2139.16a4.318,4.318,0,1,0,3.068,1.276,4.346,4.346,0,0,0-3.068-1.276Z" transform="translate(-13.068 -24.54)" fill="#07fd60"/>
        <path id="Path_103" data-name="Path 103" d="M2093.7,2139.18a4.324,4.324,0,1,0,3.087,1.243A4.335,4.335,0,0,0,2093.7,2139.18Z" transform="translate(-33.693 -24.543)" fill="#07fd60"/>
        <path id="Path_104" data-name="Path 104" d="M2028.12,2082.06a4.323,4.323,0,1,0-3.074-1.274A4.335,4.335,0,0,0,2028.12,2082.06Z" transform="translate(-22.262 -13.083)" fill="#07fd60"/>
        <path id="Path_105" data-name="Path 105" d="M2093.89,2126a4.337,4.337,0,1,0,3.074,1.268A4.326,4.326,0,0,0,2093.89,2126Z" transform="translate(-33.724 -22.247)" fill="#07fd60"/>
        <path id="Path_106" data-name="Path 106" d="M2041.12,2082.05a4.326,4.326,0,1,0-4.293-4.324,4.326,4.326,0,0,0,4.293,4.324Z" transform="translate(-24.532 -13.085)" fill="#07fd60"/>
        <path id="Path_107" data-name="Path 107" d="M2054.35,2191.84a4.28,4.28,0,1,0,4.279,4.263A4.279,4.279,0,0,0,2054.35,2191.84Z" transform="translate(-26.84 -33.716)" fill="#07fd60"/>
        <path id="Path_108" data-name="Path 108" d="M1975.42,2152.44a4.279,4.279,0,1,0,4.238,4.3A4.279,4.279,0,0,0,1975.42,2152.44Z" transform="translate(-13.082 -26.852)" fill="#07fd60"/>
        <path id="Path_109" data-name="Path 109" d="M2014.95,2191.84a4.28,4.28,0,1,0,4.272,4.269,4.28,4.28,0,0,0-4.272-4.269Z" transform="translate(-19.976 -33.716)" fill="#07fd60"/>
        <path id="Path_110" data-name="Path 110" d="M2093.79,2152.47a4.235,4.235,0,1,0,3,1.258,4.249,4.249,0,0,0-3-1.258Z" transform="translate(-33.711 -26.859)" fill="#07fd60"/>
        <path id="Path_111" data-name="Path 111" d="M1975.36,2121.4a4.233,4.233,0,1,0-3-1.254,4.248,4.248,0,0,0,3,1.254Z" transform="translate(-13.089 -19.965)" fill="#07fd60"/>
        <path id="Path_112" data-name="Path 112" d="M2093.96,2121.38a4.19,4.19,0,1,0-3.017-1.223A4.224,4.224,0,0,0,2093.96,2121.38Z" transform="translate(-33.746 -19.97)" fill="#07fd60"/>
        <path id="Path_113" data-name="Path 113" d="M2014.9,2081.98a4.193,4.193,0,1,0-2.967-1.258,4.225,4.225,0,0,0,2.967,1.258Z" transform="translate(-19.988 -13.106)" fill="#07fd60"/>
        <path id="Path_114" data-name="Path 114" d="M2054.39,2081.98a4.192,4.192,0,1,0-3.017-1.223A4.225,4.225,0,0,0,2054.39,2081.98Z" transform="translate(-26.852 -13.106)" fill="#07fd60"/>
        <path id="Path_115" data-name="Path 115" d="M1988.68,2178.76a4.187,4.187,0,1,0,4.089,4.264,4.186,4.186,0,0,0-4.089-4.264Z" transform="translate(-15.4 -31.438)" fill="#07fd60"/>
        <path id="Path_116" data-name="Path 116" d="M2080.72,2178.77a4.176,4.176,0,1,0,4.208,4.143,4.176,4.176,0,0,0-4.208-4.143Z" transform="translate(-31.458 -31.44)" fill="#07fd60"/>
        <path id="Path_117" data-name="Path 117" d="M1988.61,2095.13a4.175,4.175,0,1,0-4.2-4.153,4.175,4.175,0,0,0,4.2,4.153Z" transform="translate(-15.402 -15.414)" fill="#07fd60"/>
        <path id="Path_118" data-name="Path 118" d="M2080.75,2095.12a4.16,4.16,0,1,0-4.15-4.205A4.16,4.16,0,0,0,2080.75,2095.12Z" transform="translate(-31.461 -15.417)" fill="#07fd60"/>
        <path id="Path_119" data-name="Path 119" d="M2067.71,2192.08a4.05,4.05,0,1,0,2.851,1.271A4.083,4.083,0,0,0,2067.71,2192.08Z" transform="translate(-29.18 -33.758)" fill="#07fd60"/>
        <path id="Path_120" data-name="Path 120" d="M2001.84,2192.08a4.048,4.048,0,1,0,2.879,1.205A4.083,4.083,0,0,0,2001.84,2192.08Z" transform="translate(-17.72 -33.758)" fill="#07fd60"/>
        <path id="Path_121" data-name="Path 121" d="M1975.46,2165.7a4.049,4.049,0,1,0,2.877,1.214,4.083,4.083,0,0,0-2.877-1.214Z" transform="translate(-13.124 -29.162)" fill="#07fd60"/>
        <path id="Path_122" data-name="Path 122" d="M1975.56,2108.08a4.05,4.05,0,1,0-2.882-1.2,4.083,4.083,0,0,0,2.882,1.2Z" transform="translate(-13.153 -17.702)" fill="#07fd60"/>
        <path id="Path_123" data-name="Path 123" d="M2001.82,2081.85a4.036,4.036,0,1,0-2.892-1.166A4.067,4.067,0,0,0,2001.82,2081.85Z" transform="translate(-17.723 -13.139)" fill="#07fd60"/>
        <path id="Path_124" data-name="Path 124" d="M2093.81,2165.88a4.035,4.035,0,1,0,2.882,1.19A4.067,4.067,0,0,0,2093.81,2165.88Z" transform="translate(-33.749 -29.195)" fill="#07fd60"/>
        <path id="Path_125" data-name="Path 125" d="M2067.53,2081.84a4.055,4.055,0,1,0-4-4.075A4.055,4.055,0,0,0,2067.53,2081.84Z" transform="translate(-29.186 -13.142)" fill="#07fd60"/>
        <path id="Path_126" data-name="Path 126" d="M2093.89,2108.22a4.055,4.055,0,1,0-3.97-4.1,4.054,4.054,0,0,0,3.97,4.1Z" transform="translate(-33.781 -17.738)" fill="#07fd60"/>
        <path id="Path_127" data-name="Path 127" d="M2041.24,2205.46a3.9,3.9,0,1,0,2.791,1.157A3.922,3.922,0,0,0,2041.24,2205.46Z" transform="translate(-24.618 -36.09)" fill="#07fd60"/>
        <path id="Path_128" data-name="Path 128" d="M2028.04,2205.46a3.9,3.9,0,1,0,2.793,1.154A3.922,3.922,0,0,0,2028.04,2205.46Z" transform="translate(-22.32 -36.09)" fill="#07fd60"/>
        <path id="Path_129" data-name="Path 129" d="M1962.42,2126.49a3.9,3.9,0,1,0,2.795,1.148,3.922,3.922,0,0,0-2.795-1.148Z" transform="translate(-10.889 -22.332)" fill="#07fd60"/>
        <path id="Path_130" data-name="Path 130" d="M1962.43,2139.68a3.9,3.9,0,1,0,2.791,1.156,3.922,3.922,0,0,0-2.791-1.156Z" transform="translate(-10.889 -24.63)" fill="#07fd60"/>
        <path id="Path_131" data-name="Path 131" d="M2107.03,2139.69a3.91,3.91,0,1,0,3.9,3.9A3.91,3.91,0,0,0,2107.03,2139.69Z" transform="translate(-36.08 -24.632)" fill="#07fd60"/>
        <path id="Path_132" data-name="Path 132" d="M2107.08,2126.5a3.91,3.91,0,1,0,3.851,3.951A3.91,3.91,0,0,0,2107.08,2126.5Z" transform="translate(-36.08 -22.334)" fill="#07fd60"/>
        <path id="Path_133" data-name="Path 133" d="M2041.25,2068.54a3.908,3.908,0,1,0-2.788-1.155,3.91,3.91,0,0,0,2.788,1.155Z" transform="translate(-24.62 -10.874)" fill="#07fd60"/>
        <path id="Path_134" data-name="Path 134" d="M2028.21,2068.54a3.91,3.91,0,1,0-3.9-3.9A3.91,3.91,0,0,0,2028.21,2068.54Z" transform="translate(-22.352 -10.874)" fill="#07fd60"/>
        <path id="Path_135" data-name="Path 135" d="M1975.65,2094.88a3.864,3.864,0,1,0-3.882-3.844A3.864,3.864,0,0,0,1975.65,2094.88Z" transform="translate(-13.2 -15.48)" fill="#07fd60"/>
        <path id="Path_136" data-name="Path 136" d="M1975.5,2179.15a3.864,3.864,0,1,0,3.828,3.9,3.864,3.864,0,0,0-3.828-3.9Z" transform="translate(-13.17 -31.506)" fill="#07fd60"/>
        <path id="Path_137" data-name="Path 137" d="M2054.44,2205.53a3.864,3.864,0,1,0,3.861,3.866A3.864,3.864,0,0,0,2054.44,2205.53Z" transform="translate(-26.928 -36.102)" fill="#07fd60"/>
        <path id="Path_138" data-name="Path 138" d="M2015.05,2205.53a3.864,3.864,0,1,0,3.849,3.878,3.864,3.864,0,0,0-3.849-3.878Z" transform="translate(-20.064 -36.102)" fill="#07fd60"/>
        <path id="Path_139" data-name="Path 139" d="M1962.42,2121.09a3.864,3.864,0,1,0-3.839-3.888,3.864,3.864,0,0,0,3.839,3.888Z" transform="translate(-10.902 -20.046)" fill="#07fd60"/>
        <path id="Path_140" data-name="Path 140" d="M1962.42,2152.94a3.864,3.864,0,1,0,3.883,3.844A3.864,3.864,0,0,0,1962.42,2152.94Z" transform="translate(-10.902 -26.94)" fill="#07fd60"/>
        <path id="Path_141" data-name="Path 141" d="M1988.65,2192.34a3.863,3.863,0,1,0,3.866,3.861,3.863,3.863,0,0,0-3.866-3.861Z" transform="translate(-15.468 -33.804)" fill="#07fd60"/>
        <path id="Path_142" data-name="Path 142" d="M2080.84,2192.34a3.863,3.863,0,1,0,3.841,3.886,3.863,3.863,0,0,0-3.841-3.886Z" transform="translate(-31.524 -33.804)" fill="#07fd60"/>
        <path id="Path_143" data-name="Path 143" d="M2093.94,2179.19a3.817,3.817,0,1,0,2.7,1.2,3.83,3.83,0,0,0-2.7-1.2Z" transform="translate(-33.799 -31.513)" fill="#07fd60"/>
        <path id="Path_144" data-name="Path 144" d="M2107.06,2152.98a3.83,3.83,0,1,0,3.812,3.813A3.83,3.83,0,0,0,2107.06,2152.98Z" transform="translate(-36.097 -26.947)" fill="#07fd60"/>
        <path id="Path_145" data-name="Path 145" d="M2094.02,2094.83a3.77,3.77,0,1,0-2.7-1.107A3.8,3.8,0,0,0,2094.02,2094.83Z" transform="translate(-33.834 -15.493)" fill="#07fd60"/>
        <path id="Path_146" data-name="Path 146" d="M2080.82,2081.64a3.768,3.768,0,1,0-2.7-1.108,3.8,3.8,0,0,0,2.7,1.108Z" transform="translate(-31.536 -13.195)" fill="#07fd60"/>
        <path id="Path_147" data-name="Path 147" d="M1988.56,2081.66a3.815,3.815,0,1,0-2.693-1.2,3.83,3.83,0,0,0,2.693,1.2Z" transform="translate(-15.475 -13.189)" fill="#07fd60"/>
        <path id="Path_148" data-name="Path 148" d="M2014.91,2068.47a3.829,3.829,0,1,0-3.693-3.927A3.829,3.829,0,0,0,2014.91,2068.47Z" transform="translate(-20.071 -10.891)" fill="#07fd60"/>
        <path id="Path_149" data-name="Path 149" d="M2054.42,2068.45a3.768,3.768,0,1,0-2.691-1.125A3.8,3.8,0,0,0,2054.42,2068.45Z" transform="translate(-26.941 -10.897)" fill="#07fd60"/>
        <path id="Path_150" data-name="Path 150" d="M2107.07,2121.05a3.769,3.769,0,1,0-2.706-1.09,3.8,3.8,0,0,0,2.706,1.09Z" transform="translate(-36.103 -20.059)" fill="#07fd60"/>
        <path id="Path_151" data-name="Path 151" d="M1962.5,2166.13a3.728,3.728,0,1,0,3.7,3.708,3.728,3.728,0,0,0-3.7-3.708Z" transform="translate(-10.93 -29.237)" fill="#07fd60"/>
        <path id="Path_152" data-name="Path 152" d="M2001.93,2205.74a3.7,3.7,0,1,0,3.645,3.71,3.7,3.7,0,0,0-3.645-3.71Z" transform="translate(-17.802 -36.138)" fill="#07fd60"/>
        <path id="Path_153" data-name="Path 153" d="M2067.64,2205.74a3.685,3.685,0,1,0,2.635,1.071A3.7,3.7,0,0,0,2067.64,2205.74Z" transform="translate(-29.261 -36.138)" fill="#07fd60"/>
        <path id="Path_154" data-name="Path 154" d="M2107.14,2166.37a3.634,3.634,0,1,0,2.582,1.11A3.667,3.667,0,0,0,2107.14,2166.37Z" transform="translate(-36.131 -29.279)" fill="#07fd60"/>
        <path id="Path_155" data-name="Path 155" d="M2107.1,2107.92a3.633,3.633,0,1,0-2.614-1.041,3.667,3.667,0,0,0,2.614,1.041Z" transform="translate(-36.132 -17.82)" fill="#07fd60"/>
        <path id="Path_156" data-name="Path 156" d="M1962.53,2107.77a3.684,3.684,0,1,0-2.645-1.052,3.7,3.7,0,0,0,2.645,1.052Z" transform="translate(-10.937 -17.784)" fill="#07fd60"/>
        <path id="Path_157" data-name="Path 157" d="M2001.91,2068.34a3.632,3.632,0,1,0-2.61-1.047,3.667,3.667,0,0,0,2.61,1.047Z" transform="translate(-17.807 -10.926)" fill="#07fd60"/>
        <path id="Path_158" data-name="Path 158" d="M2067.66,2068.33a3.62,3.62,0,1,0-2.6-1.083,3.648,3.648,0,0,0,2.6,1.083Z" transform="translate(-29.271 -10.93)" fill="#07fd60"/>
        <path id="Path_159" data-name="Path 159" d="M1975.56,2192.72a3.551,3.551,0,1,0,3.518,3.567A3.551,3.551,0,0,0,1975.56,2192.72Z" transform="translate(-13.236 -33.87)" fill="#07fd60"/>
        <path id="Path_160" data-name="Path 160" d="M1975.67,2081.42a3.489,3.489,0,1,0-2.5-1.05,3.523,3.523,0,0,0,2.5,1.05Z" transform="translate(-13.271 -13.254)" fill="#07fd60"/>
        <path id="Path_161" data-name="Path 161" d="M2093.94,2192.75a3.524,3.524,0,1,0,3.5,3.563,3.488,3.488,0,0,0-3.5-3.563Z" transform="translate(-33.864 -33.876)" fill="#07fd60"/>
        <path id="Path_162" data-name="Path 162" d="M2094.05,2081.41a3.481,3.481,0,1,0-2.468-1.042,3.506,3.506,0,0,0,2.468,1.042Z" transform="translate(-33.897 -13.258)" fill="#07fd60"/>
        <path id="Path_163" data-name="Path 163" d="M1962.52,2179.6a3.493,3.493,0,1,0,3.491,3.442,3.492,3.492,0,0,0-3.491-3.442Z" transform="translate(-10.98 -31.585)" fill="#07fd60"/>
        <path id="Path_164" data-name="Path 164" d="M1988.71,2205.98a3.488,3.488,0,1,0,2.485,1.01,3.492,3.492,0,0,0-2.485-1.01Z" transform="translate(-15.546 -36.18)" fill="#07fd60"/>
        <path id="Path_165" data-name="Path 165" d="M2028.1,2219.19a3.48,3.48,0,1,0,3.514,3.429,3.48,3.48,0,0,0-3.514-3.429Z" transform="translate(-22.413 -38.481)" fill="#07fd60"/>
        <path id="Path_166" data-name="Path 166" d="M2041.37,2219.19a3.481,3.481,0,1,0,3.437,3.507A3.481,3.481,0,0,0,2041.37,2219.19Z" transform="translate(-24.711 -38.481)" fill="#07fd60"/>
        <path id="Path_167" data-name="Path 167" d="M1949.3,2127.02a3.48,3.48,0,1,0,3.509,3.434,3.48,3.48,0,0,0-3.509-3.434Z" transform="translate(-8.685 -22.425)" fill="#07fd60"/>
        <path id="Path_168" data-name="Path 168" d="M1962.53,2094.58a3.5,3.5,0,1,0-2.476-1.039,3.481,3.481,0,0,0,2.476,1.039Z" transform="translate(-10.983 -15.561)" fill="#07fd60"/>
        <path id="Path_169" data-name="Path 169" d="M2107.17,2179.62a3.481,3.481,0,1,0,3.421,3.523,3.481,3.481,0,0,0-3.421-3.523Z" transform="translate(-36.171 -31.587)" fill="#07fd60"/>
        <path id="Path_170" data-name="Path 170" d="M2080.91,2206a3.48,3.48,0,1,0,3.468,3.476,3.48,3.48,0,0,0-3.468-3.476Z" transform="translate(-31.605 -36.183)" fill="#07fd60"/>
        <path id="Path_171" data-name="Path 171" d="M1949.33,2140.21a3.48,3.48,0,1,0,3.482,3.462A3.479,3.479,0,0,0,1949.33,2140.21Z" transform="translate(-8.685 -24.723)" fill="#07fd60"/>
        <path id="Path_172" data-name="Path 172" d="M2107.14,2094.56a3.463,3.463,0,1,0-3.482-3.461,3.5,3.5,0,0,0,3.482,3.461Z" transform="translate(-36.175 -15.564)" fill="#07fd60"/>
        <path id="Path_173" data-name="Path 173" d="M2120.32,2127.04a3.463,3.463,0,1,0,3.452,3.492,3.5,3.5,0,0,0-3.451-3.491Z" transform="translate(-38.472 -22.429)" fill="#07fd60"/>
        <path id="Path_174" data-name="Path 174" d="M2120.3,2140.23a3.463,3.463,0,1,0,3.477,3.468,3.5,3.5,0,0,0-3.477-3.468Z" transform="translate(-38.472 -24.727)" fill="#07fd60"/>
        <path id="Path_175" data-name="Path 175" d="M2080.91,2068.18a3.463,3.463,0,1,0-3.471-3.473,3.5,3.5,0,0,0,3.471,3.473Z" transform="translate(-31.608 -10.969)" fill="#07fd60"/>
        <path id="Path_176" data-name="Path 176" d="M2041.31,2054.99a3.463,3.463,0,1,0-3.44-3.5,3.5,3.5,0,0,0,3.44,3.5Z" transform="translate(-24.715 -8.671)" fill="#07fd60"/>
        <path id="Path_177" data-name="Path 177" d="M2028.27,2054.99a3.463,3.463,0,1,0-3.424-3.45,3.5,3.5,0,0,0,3.424,3.45Z" transform="translate(-22.446 -8.671)" fill="#07fd60"/>
        <path id="Path_178" data-name="Path 178" d="M1988.72,2068.18a3.463,3.463,0,1,0-3.449-3.494,3.5,3.5,0,0,0,3.449,3.494Z" transform="translate(-15.552 -10.969)" fill="#07fd60"/>
        <path id="Path_179" data-name="Path 179" d="M2015.12,2219.29a3.369,3.369,0,1,0,2.424.981,3.4,3.4,0,0,0-2.424-.981Z" transform="translate(-20.162 -38.498)" fill="#07fd60"/>
        <path id="Path_180" data-name="Path 180" d="M2054.62,2219.29a3.371,3.371,0,1,0,2.4,1.052,3.4,3.4,0,0,0-2.4-1.052Z" transform="translate(-27.026 -38.498)" fill="#07fd60"/>
        <path id="Path_181" data-name="Path 181" d="M1949.24,2120.73a3.371,3.371,0,1,0-2.385-1.068,3.4,3.4,0,0,0,2.385,1.068Z" transform="translate(-8.702 -20.144)" fill="#07fd60"/>
        <path id="Path_182" data-name="Path 182" d="M1949.36,2153.5a3.37,3.37,0,1,0,2.413,1,3.4,3.4,0,0,0-2.413-1Z" transform="translate(-8.702 -27.038)" fill="#07fd60"/>
        <path id="Path_183" data-name="Path 183" d="M2120.34,2120.71a3.375,3.375,0,1,0-3.386-3.415,3.339,3.339,0,0,0,3.386,3.415Z" transform="translate(-38.491 -20.149)" fill="#07fd60"/>
        <path id="Path_184" data-name="Path 184" d="M2015.17,2054.92a3.375,3.375,0,1,0-3.4-3.4,3.339,3.339,0,0,0,3.4,3.4Z" transform="translate(-20.167 -8.69)" fill="#07fd60"/>
        <path id="Path_185" data-name="Path 185" d="M2120.37,2153.53a3.374,3.374,0,1,0,3.33,3.4,3.339,3.339,0,0,0-3.33-3.4Z" transform="translate(-38.491 -27.043)" fill="#07fd60"/>
        <path id="Path_186" data-name="Path 186" d="M2054.59,2054.91a3.344,3.344,0,1,0-2.39-.949A3.359,3.359,0,0,0,2054.59,2054.91Z" transform="translate(-27.034 -8.693)" fill="#07fd60"/>
        <path id="Path_187" data-name="Path 187" d="M2001.97,2219.44a3.253,3.253,0,1,0,2.325.956A3.27,3.27,0,0,0,2001.97,2219.44Z" transform="translate(-17.891 -38.525)" fill="#07fd60"/>
        <path id="Path_188" data-name="Path 188" d="M2067.75,2219.44a3.252,3.252,0,1,0,2.326.954A3.27,3.27,0,0,0,2067.75,2219.44Z" transform="translate(-29.351 -38.525)" fill="#07fd60"/>
        <path id="Path_189" data-name="Path 189" d="M1949.38,2166.68a3.253,3.253,0,1,0,2.323.96A3.27,3.27,0,0,0,1949.38,2166.68Z" transform="translate(-8.729 -29.334)" fill="#07fd60"/>
        <path id="Path_190" data-name="Path 190" d="M2001.96,2054.82a3.242,3.242,0,1,0-3.226-3.308,3.21,3.21,0,0,0,3.226,3.308Z" transform="translate(-17.897 -8.718)" fill="#07fd60"/>
        <path id="Path_191" data-name="Path 191" d="M1949.43,2107.41a3.211,3.211,0,1,0-2.333-.926,3.242,3.242,0,0,0,2.333.926Z" transform="translate(-8.735 -17.88)" fill="#07fd60"/>
        <path id="Path_192" data-name="Path 192" d="M2120.34,2166.88a3.208,3.208,0,1,0,2.3.921A3.208,3.208,0,0,0,2120.34,2166.88Z" transform="translate(-38.519 -29.369)" fill="#07fd60"/>
        <path id="Path_193" data-name="Path 193" d="M2067.68,2054.8a3.223,3.223,0,1,0-3.139-3.254A3.223,3.223,0,0,0,2067.68,2054.8Z" transform="translate(-29.361 -8.722)" fill="#07fd60"/>
        <path id="Path_194" data-name="Path 194" d="M2120.32,2107.57a3.223,3.223,0,1,0-3.188-3.2,3.223,3.223,0,0,0,3.188,3.2Z" transform="translate(-38.523 -17.913)" fill="#07fd60"/>
        <path id="Path_195" data-name="Path 195" d="M1975.58,2206.32a3.214,3.214,0,1,0,2.287.94,3.21,3.21,0,0,0-2.287-.94Z" transform="translate(-13.308 -36.24)" fill="#07fd60"/>
        <path id="Path_196" data-name="Path 196" d="M2093.99,2206.32a3.216,3.216,0,1,0,2.278.961A3.21,3.21,0,0,0,2093.99,2206.32Z" transform="translate(-33.93 -36.24)" fill="#07fd60"/>
        <path id="Path_197" data-name="Path 197" d="M1962.6,2193.13a3.21,3.21,0,1,0,3.194,3.192,3.21,3.21,0,0,0-3.194-3.192Z" transform="translate(-11.039 -33.942)" fill="#07fd60"/>
        <path id="Path_198" data-name="Path 198" d="M2107.15,2193.15a3.2,3.2,0,1,0,3.221,3.169,3.2,3.2,0,0,0-3.221-3.169Z" transform="translate(-36.231 -33.945)" fill="#07fd60"/>
        <path id="Path_199" data-name="Path 199" d="M1975.79,2067.97a3.2,3.2,0,1,0-3.212-3.178,3.227,3.227,0,0,0,3.212,3.178Z" transform="translate(-13.341 -11.025)" fill="#07fd60"/>
        <path id="Path_200" data-name="Path 200" d="M1962.61,2081.16a3.2,3.2,0,1,0-3.222-3.168A3.2,3.2,0,0,0,1962.61,2081.16Z" transform="translate(-11.042 -13.323)" fill="#07fd60"/>
        <path id="Path_201" data-name="Path 201" d="M2094.2,2067.96a3.172,3.172,0,1,0-3.219-3.178,3.207,3.207,0,0,0,3.219,3.178Z" transform="translate(-33.967 -11.03)" fill="#07fd60"/>
        <path id="Path_202" data-name="Path 202" d="M2107.19,2081.15a3.172,3.172,0,1,0-3.185-3.212A3.206,3.206,0,0,0,2107.19,2081.15Z" transform="translate(-36.236 -13.328)" fill="#07fd60"/>
        <path id="Path_203" data-name="Path 203" d="M1949.43,2180.11a3.07,3.07,0,1,0,3.063,3.06,3.07,3.07,0,0,0-3.063-3.06Z" transform="translate(-8.771 -31.674)" fill="#07fd60"/>
        <path id="Path_204" data-name="Path 204" d="M1949.4,2094.26a3.08,3.08,0,1,0-2.181-.935,3.071,3.071,0,0,0,2.181.935Z" transform="translate(-8.771 -15.647)" fill="#07fd60"/>
        <path id="Path_205" data-name="Path 205" d="M2081.01,2219.69a3.07,3.07,0,1,0,3.044,3.079,3.07,3.07,0,0,0-3.044-3.079Z" transform="translate(-31.691 -38.567)" fill="#07fd60"/>
        <path id="Path_206" data-name="Path 206" d="M1988.85,2219.69a3.071,3.071,0,1,0,3.041,3.083,3.071,3.071,0,0,0-3.041-3.083Z" transform="translate(-15.635 -38.567)" fill="#07fd60"/>
        <path id="Path_207" data-name="Path 207" d="M2120.33,2094.24a3.054,3.054,0,1,0-2.994-3.062A3.088,3.088,0,0,0,2120.33,2094.24Z" transform="translate(-38.559 -15.651)" fill="#07fd60"/>
        <path id="Path_208" data-name="Path 208" d="M1988.83,2054.67a3.054,3.054,0,1,0-3.061-3.064,3.086,3.086,0,0,0,3.061,3.064Z" transform="translate(-15.639 -8.757)" fill="#07fd60"/>
        <path id="Path_209" data-name="Path 209" d="M2081,2054.84a3.054,3.054,0,1,0-3.065-3.059A3.087,3.087,0,0,0,2081,2054.84Z" transform="translate(-31.695 -8.787)" fill="#07fd60"/>
        <path id="Path_210" data-name="Path 210" d="M2120.43,2180.13a3.054,3.054,0,1,0,3.018,3.107A3.087,3.087,0,0,0,2120.43,2180.13Z" transform="translate(-38.559 -31.677)" fill="#07fd60"/>
        <path id="Path_211" data-name="Path 211" d="M2028.29,2232.76a3.029,3.029,0,1,0,2.971,3.085,3.029,3.029,0,0,0-2.971-3.085Z" transform="translate(-22.508 -40.844)" fill="#07fd60"/>
        <path id="Path_212" data-name="Path 212" d="M2041.39,2232.76a3.028,3.028,0,1,0,3.06,3,3.059,3.059,0,0,0-3.06-3Z" transform="translate(-24.806 -40.845)" fill="#07fd60"/>
        <path id="Path_213" data-name="Path 213" d="M1936.37,2127.62a2.961,2.961,0,1,0,2.068.943A2.986,2.986,0,0,0,1936.37,2127.62Z" transform="translate(-6.491 -22.53)" fill="#07fd60"/>
        <path id="Path_214" data-name="Path 214" d="M1936.32,2140.81a2.962,2.962,0,1,0,2.11.935A2.988,2.988,0,0,0,1936.32,2140.81Z" transform="translate(-6.491 -24.827)" fill="#07fd60"/>
        <path id="Path_215" data-name="Path 215" d="M2133.63,2140.85a2.957,2.957,0,1,0,2.931,2.983,2.924,2.924,0,0,0-2.931-2.983Z" transform="translate(-40.877 -24.833)" fill="#07fd60"/>
        <path id="Path_216" data-name="Path 216" d="M2133.63,2127.66a2.958,2.958,0,1,0,2.931,2.984,2.924,2.924,0,0,0-2.931-2.984Z" transform="translate(-40.877 -22.535)" fill="#07fd60"/>
        <path id="Path_217" data-name="Path 217" d="M2028.39,2041.57a2.958,2.958,0,1,0-2.931-2.983,2.924,2.924,0,0,0,2.931,2.983Z" transform="translate(-22.553 -6.509)" fill="#07fd60"/>
        <path id="Path_218" data-name="Path 218" d="M2041.58,2041.57a2.958,2.958,0,1,0-2.934-2.981,2.923,2.923,0,0,0,2.934,2.981Z" transform="translate(-24.851 -6.509)" fill="#07fd60"/>
        <path id="Path_219" data-name="Path 219" d="M2015.25,2232.87a2.927,2.927,0,1,0,2.089.883A2.939,2.939,0,0,0,2015.25,2232.87Z" transform="translate(-20.259 -40.863)" fill="#07fd60"/>
        <path id="Path_220" data-name="Path 220" d="M2054.6,2232.87a2.926,2.926,0,1,0,2.1.846,2.939,2.939,0,0,0-2.1-.846Z" transform="translate(-27.123 -40.863)" fill="#07fd60"/>
        <path id="Path_221" data-name="Path 221" d="M1936.29,2154.06A2.939,2.939,0,1,0,1939.2,2157a2.939,2.939,0,0,0-2.909-2.935Z" transform="translate(-6.501 -27.135)" fill="#07fd60"/>
        <path id="Path_222" data-name="Path 222" d="M2015.2,2041.55a2.926,2.926,0,1,0-2.894-2.956,2.926,2.926,0,0,0,2.894,2.956Z" transform="translate(-20.262 -6.516)" fill="#07fd60"/>
        <path id="Path_223" data-name="Path 223" d="M1936.24,2120.35a2.925,2.925,0,1,0-2.912-2.938,2.925,2.925,0,0,0,2.912,2.938Z" transform="translate(-6.504 -20.244)" fill="#07fd60"/>
        <path id="Path_224" data-name="Path 224" d="M2133.59,2154.08a2.925,2.925,0,1,0,2.944,2.906,2.925,2.925,0,0,0-2.944-2.906Z" transform="translate(-40.884 -27.138)" fill="#07fd60"/>
        <path id="Path_225" data-name="Path 225" d="M2133.61,2120.34a2.906,2.906,0,1,0-2.9-2.891,2.945,2.945,0,0,0,2.9,2.891Z" transform="translate(-40.888 -20.248)" fill="#07fd60"/>
        <path id="Path_226" data-name="Path 226" d="M2054.66,2041.53a2.906,2.906,0,1,0-2.923-2.941A2.946,2.946,0,0,0,2054.66,2041.53Z" transform="translate(-27.13 -6.52)" fill="#07fd60"/>
        <path id="Path_227" data-name="Path 227" d="M2107.37,2206.74a2.872,2.872,0,1,0,2.743,2.945A2.872,2.872,0,0,0,2107.37,2206.74Z" transform="translate(-36.299 -36.311)" fill="#07fd60"/>
        <path id="Path_228" data-name="Path 228" d="M1962.65,2206.73a2.873,2.873,0,1,0,2.873,2.822A2.873,2.873,0,0,0,1962.65,2206.73Z" transform="translate(-11.111 -36.311)" fill="#07fd60"/>
        <path id="Path_229" data-name="Path 229" d="M2107.24,2067.69a2.832,2.832,0,1,0-2.825-2.838,2.8,2.8,0,0,0,2.825,2.838Z" transform="translate(-36.308 -11.102)" fill="#07fd60"/>
        <path id="Path_230" data-name="Path 230" d="M1962.67,2067.69a2.832,2.832,0,1,0-2.845-2.818,2.8,2.8,0,0,0,2.845,2.818Z" transform="translate(-11.119 -11.102)" fill="#07fd60"/>
        <path id="Path_231" data-name="Path 231" d="M1936.38,2167.24a2.781,2.781,0,1,0,1.978.892,2.808,2.808,0,0,0-1.978-.892Z" transform="translate(-6.529 -29.431)" fill="#07fd60"/>
        <path id="Path_232" data-name="Path 232" d="M1975.69,2220a2.781,2.781,0,1,0,1.98.8,2.808,2.808,0,0,0-1.98-.8Z" transform="translate(-13.393 -38.623)" fill="#07fd60"/>
        <path id="Path_233" data-name="Path 233" d="M2002.1,2233.02a2.781,2.781,0,1,0,1.97.829A2.808,2.808,0,0,0,2002.1,2233.02Z" transform="translate(-17.989 -40.891)" fill="#07fd60"/>
        <path id="Path_234" data-name="Path 234" d="M1949.5,2193.62a2.779,2.779,0,1,0,1.974.82A2.807,2.807,0,0,0,1949.5,2193.62Z" transform="translate(-8.827 -34.027)" fill="#07fd60"/>
        <path id="Path_235" data-name="Path 235" d="M1936.3,2107.06a2.792,2.792,0,1,0-2.808-2.775A2.792,2.792,0,0,0,1936.3,2107.06Z" transform="translate(-6.532 -17.975)" fill="#07fd60"/>
        <path id="Path_236" data-name="Path 236" d="M2067.85,2233.04a2.792,2.792,0,1,0,2.8,2.784,2.792,2.792,0,0,0-2.8-2.784Z" transform="translate(-29.452 -40.894)" fill="#07fd60"/>
        <path id="Path_237" data-name="Path 237" d="M2133.65,2167.43a2.792,2.792,0,1,0,2.782,2.8A2.792,2.792,0,0,0,2133.65,2167.43Z" transform="translate(-40.912 -29.464)" fill="#07fd60"/>
        <path id="Path_238" data-name="Path 238" d="M1949.45,2080.84a2.792,2.792,0,1,0-2.762-2.822A2.792,2.792,0,0,0,1949.45,2080.84Z" transform="translate(-8.83 -13.408)" fill="#07fd60"/>
        <path id="Path_239" data-name="Path 239" d="M1975.84,2054.46a2.792,2.792,0,1,0-2.769-2.815,2.792,2.792,0,0,0,2.769,2.815Z" transform="translate(-13.426 -8.812)" fill="#07fd60"/>
        <path id="Path_240" data-name="Path 240" d="M2094.08,2220.02a2.792,2.792,0,1,0,2.783,2.8A2.792,2.792,0,0,0,2094.08,2220.02Z" transform="translate(-34.018 -38.626)" fill="#07fd60"/>
        <path id="Path_241" data-name="Path 241" d="M2120.42,2193.64a2.792,2.792,0,1,0,2.821,2.763,2.792,2.792,0,0,0-2.821-2.763Z" transform="translate(-38.614 -34.03)" fill="#07fd60"/>
        <path id="Path_242" data-name="Path 242" d="M2120.42,2080.83a2.775,2.775,0,1,0-2.743-2.841A2.808,2.808,0,0,0,2120.42,2080.83Z" transform="translate(-38.618 -13.412)" fill="#07fd60"/>
        <path id="Path_243" data-name="Path 243" d="M2133.64,2107.21a2.775,2.775,0,1,0-2.765-2.819A2.808,2.808,0,0,0,2133.64,2107.21Z" transform="translate(-40.916 -18.008)" fill="#07fd60"/>
        <path id="Path_244" data-name="Path 244" d="M2094.24,2054.62a2.775,2.775,0,1,0-2.777-2.807A2.809,2.809,0,0,0,2094.24,2054.62Z" transform="translate(-34.051 -8.845)" fill="#07fd60"/>
        <path id="Path_245" data-name="Path 245" d="M2002.06,2041.43a2.775,2.775,0,1,0-2.764-2.821A2.809,2.809,0,0,0,2002.06,2041.43Z" transform="translate(-17.995 -6.548)" fill="#07fd60"/>
        <path id="Path_246" data-name="Path 246" d="M2067.85,2041.43a2.775,2.775,0,1,0-2.763-2.822,2.808,2.808,0,0,0,2.763,2.822Z" transform="translate(-29.456 -6.548)" fill="#07fd60"/>
        <path id="Path_247" data-name="Path 247" d="M1988.95,2233.23a2.638,2.638,0,1,0,2.6,2.655A2.667,2.667,0,0,0,1988.95,2233.23Z" transform="translate(-15.727 -40.927)" fill="#07fd60"/>
        <path id="Path_248" data-name="Path 248" d="M2133.65,2180.67a2.609,2.609,0,1,0,2.64,2.594,2.638,2.638,0,0,0-2.64-2.594Z" transform="translate(-40.951 -31.771)" fill="#07fd60"/>
        <path id="Path_249" data-name="Path 249" d="M1936.39,2180.67a2.609,2.609,0,1,0,2.543,2.622,2.64,2.64,0,0,0-2.543-2.622Z" transform="translate(-6.57 -31.771)" fill="#07fd60"/>
        <path id="Path_250" data-name="Path 250" d="M2081.15,2233.27a2.609,2.609,0,1,0,2.545,2.62,2.639,2.639,0,0,0-2.545-2.62Z" transform="translate(-31.789 -40.933)" fill="#07fd60"/>
        <path id="Path_251" data-name="Path 251" d="M1936.32,2093.89a2.609,2.609,0,1,0-2.6-2.633A2.641,2.641,0,0,0,1936.32,2093.89Z" transform="translate(-6.571 -15.745)" fill="#07fd60"/>
        <path id="Path_252" data-name="Path 252" d="M1988.94,2041.26a2.538,2.538,0,1,0-1.822-.736A2.562,2.562,0,0,0,1988.94,2041.26Z" transform="translate(-15.743 -6.593)" fill="#07fd60"/>
        <path id="Path_253" data-name="Path 253" d="M2081.12,2041.26a2.54,2.54,0,1,0-1.826-.724A2.562,2.562,0,0,0,2081.12,2041.26Z" transform="translate(-31.798 -6.592)" fill="#07fd60"/>
        <path id="Path_254" data-name="Path 254" d="M2133.71,2093.85a2.539,2.539,0,1,0-1.825-.729,2.562,2.562,0,0,0,1.825.729Z" transform="translate(-40.96 -15.755)" fill="#07fd60"/>
        <path id="Path_255" data-name="Path 255" d="M2041.56,2246.59a2.494,2.494,0,1,0,2.468,2.52,2.53,2.53,0,0,0-2.468-2.521Z" transform="translate(-24.919 -43.255)" fill="#07fd60"/>
        <path id="Path_256" data-name="Path 256" d="M2028.33,2246.59a2.494,2.494,0,1,0,2.513,2.476,2.53,2.53,0,0,0-2.513-2.476Z" transform="translate(-22.621 -43.255)" fill="#07fd60"/>
        <path id="Path_257" data-name="Path 257" d="M1923.16,2141.41a2.494,2.494,0,1,0,2.494,2.494,2.53,2.53,0,0,0-2.494-2.494Z" transform="translate(-4.297 -24.931)" fill="#07fd60"/>
        <path id="Path_258" data-name="Path 258" d="M1923.18,2128.22a2.494,2.494,0,1,0,2.469,2.52,2.53,2.53,0,0,0-2.469-2.52Z" transform="translate(-4.297 -22.633)" fill="#07fd60"/>
        <path id="Path_259" data-name="Path 259" d="M1962.71,2220.38a2.494,2.494,0,1,0,2.516,2.472,2.529,2.529,0,0,0-2.516-2.472Z" transform="translate(-11.191 -38.689)" fill="#07fd60"/>
        <path id="Path_260" data-name="Path 260" d="M1949.53,2207.19a2.494,2.494,0,1,0,2.505,2.482,2.529,2.529,0,0,0-2.505-2.482Z" transform="translate(-8.893 -36.391)" fill="#07fd60"/>
        <path id="Path_261" data-name="Path 261" d="M2146.95,2141.45a2.461,2.461,0,1,0,2.41,2.493A2.461,2.461,0,0,0,2146.95,2141.45Z" transform="translate(-43.28 -24.938)" fill="#07fd60"/>
        <path id="Path_262" data-name="Path 262" d="M2107.35,2220.42a2.461,2.461,0,1,0,2.438,2.466,2.461,2.461,0,0,0-2.438-2.466Z" transform="translate(-36.386 -38.696)" fill="#07fd60"/>
        <path id="Path_263" data-name="Path 263" d="M2146.9,2128.26a2.461,2.461,0,1,0,2.465,2.438A2.461,2.461,0,0,0,2146.9,2128.26Z" transform="translate(-43.28 -22.64)" fill="#07fd60"/>
        <path id="Path_264" data-name="Path 264" d="M1962.67,2054.2a2.461,2.461,0,1,0-2.4-2.508A2.461,2.461,0,0,0,1962.67,2054.2Z" transform="translate(-11.198 -8.883)" fill="#07fd60"/>
        <path id="Path_265" data-name="Path 265" d="M2107.27,2054.37a2.46,2.46,0,1,0-2.4-2.5,2.46,2.46,0,0,0,2.4,2.5Z" transform="translate(-36.386 -8.912)" fill="#07fd60"/>
        <path id="Path_266" data-name="Path 266" d="M2028.55,2027.99a2.461,2.461,0,1,0-2.488-2.415,2.461,2.461,0,0,0,2.488,2.415Z" transform="translate(-22.657 -4.316)" fill="#07fd60"/>
        <path id="Path_267" data-name="Path 267" d="M2041.69,2027.99a2.461,2.461,0,1,0-2.435-2.468,2.461,2.461,0,0,0,2.435,2.468Z" transform="translate(-24.956 -4.316)" fill="#07fd60"/>
        <path id="Path_268" data-name="Path 268" d="M1949.53,2067.39a2.461,2.461,0,1,0-2.446-2.458A2.461,2.461,0,0,0,1949.53,2067.39Z" transform="translate(-8.9 -11.18)" fill="#07fd60"/>
        <path id="Path_269" data-name="Path 269" d="M2120.51,2207.23a2.461,2.461,0,1,0,2.467,2.436,2.461,2.461,0,0,0-2.467-2.436Z" transform="translate(-38.684 -36.398)" fill="#07fd60"/>
        <path id="Path_270" data-name="Path 270" d="M2120.48,2067.35a2.413,2.413,0,1,0-2.362-2.479,2.38,2.38,0,0,0,2.362,2.479Z" transform="translate(-38.694 -11.19)" fill="#07fd60"/>
        <path id="Path_271" data-name="Path 271" d="M1923.16,2154.7a2.412,2.412,0,1,0,2.423,2.419,2.379,2.379,0,0,0-2.423-2.419Z" transform="translate(-4.314 -27.246)" fill="#07fd60"/>
        <path id="Path_272" data-name="Path 272" d="M2054.74,2246.7a2.412,2.412,0,1,0,2.419,2.422,2.378,2.378,0,0,0-2.419-2.422Z" transform="translate(-27.234 -43.272)" fill="#07fd60"/>
        <path id="Path_273" data-name="Path 273" d="M2015.32,2246.7a2.412,2.412,0,1,0,2.436,2.406,2.38,2.38,0,0,0-2.436-2.406Z" transform="translate(-20.37 -43.272)" fill="#07fd60"/>
        <path id="Path_274" data-name="Path 274" d="M2015.37,2027.93a2.363,2.363,0,1,0-1.7-.68,2.385,2.385,0,0,0,1.7.68Z" transform="translate(-20.376 -4.332)" fill="#07fd60"/>
        <path id="Path_275" data-name="Path 275" d="M2146.94,2154.73a2.36,2.36,0,1,0,1.688.7,2.385,2.385,0,0,0-1.688-.7Z" transform="translate(-43.296 -27.252)" fill="#07fd60"/>
        <path id="Path_276" data-name="Path 276" d="M1923.17,2119.93a2.385,2.385,0,1,0-2.371-2.4,2.36,2.36,0,0,0,2.371,2.4Z" transform="translate(-4.32 -20.358)" fill="#07fd60"/>
        <path id="Path_277" data-name="Path 277" d="M1936.38,2194.16a2.367,2.367,0,1,0,2.365,2.352,2.367,2.367,0,0,0-2.365-2.352Z" transform="translate(-6.622 -34.12)" fill="#07fd60"/>
        <path id="Path_278" data-name="Path 278" d="M1975.8,2233.56a2.368,2.368,0,1,0,2.346,2.372A2.368,2.368,0,0,0,1975.8,2233.56Z" transform="translate(-13.486 -40.984)" fill="#07fd60"/>
        <path id="Path_279" data-name="Path 279" d="M2146.92,2120.08a2.367,2.367,0,1,0-2.366-2.352A2.367,2.367,0,0,0,2146.92,2120.08Z" transform="translate(-43.299 -20.391)" fill="#07fd60"/>
        <path id="Path_280" data-name="Path 280" d="M2054.8,2027.92a2.387,2.387,0,1,0-1.7-.689,2.368,2.368,0,0,0,1.7.689Z" transform="translate(-27.244 -4.336)" fill="#07fd60"/>
        <path id="Path_281" data-name="Path 281" d="M2133.74,2194.19a2.342,2.342,0,1,0,2.34,2.362,2.38,2.38,0,0,0-2.34-2.362Z" transform="translate(-41.007 -34.125)" fill="#07fd60"/>
        <path id="Path_282" data-name="Path 282" d="M2094.17,2233.59a2.342,2.342,0,1,0,2.333,2.368,2.379,2.379,0,0,0-2.333-2.368Z" transform="translate(-34.113 -40.989)" fill="#07fd60"/>
        <path id="Path_283" data-name="Path 283" d="M1975.96,2041.09a2.343,2.343,0,1,0-2.354-2.348A2.375,2.375,0,0,0,1975.96,2041.09Z" transform="translate(-13.521 -6.639)" fill="#07fd60"/>
        <path id="Path_284" data-name="Path 284" d="M1936.38,2080.49a2.342,2.342,0,1,0-2.343-2.358A2.378,2.378,0,0,0,1936.38,2080.49Z" transform="translate(-6.627 -13.503)" fill="#07fd60"/>
        <path id="Path_285" data-name="Path 285" d="M2133.66,2080.45a2.293,2.293,0,1,0-2.208-2.391,2.271,2.271,0,0,0,2.208,2.391Z" transform="translate(-41.017 -13.514)" fill="#07fd60"/>
        <path id="Path_286" data-name="Path 286" d="M1923.33,2167.87a2.292,2.292,0,1,0,2.162,2.367A2.269,2.269,0,0,0,1923.33,2167.87Z" transform="translate(-4.34 -29.54)" fill="#07fd60"/>
        <path id="Path_287" data-name="Path 287" d="M2094.23,2041.04a2.271,2.271,0,1,0-1.6-.755,2.293,2.293,0,0,0,1.6.755Z" transform="translate(-34.153 -6.649)" fill="#07fd60"/>
        <path id="Path_288" data-name="Path 288" d="M2002.31,2246.84a2.292,2.292,0,1,0,2.162,2.366,2.292,2.292,0,0,0-2.162-2.366Z" transform="translate(-18.097 -43.298)" fill="#07fd60"/>
        <path id="Path_289" data-name="Path 289" d="M2147.01,2168.08a2.256,2.256,0,1,0,2.193,2.3,2.227,2.227,0,0,0-2.193-2.3Z" transform="translate(-43.323 -29.577)" fill="#07fd60"/>
        <path id="Path_290" data-name="Path 290" d="M1923.21,2106.63a2.255,2.255,0,1,0-2.26-2.233,2.225,2.225,0,0,0,2.26,2.233Z" transform="translate(-4.347 -18.088)" fill="#07fd60"/>
        <path id="Path_291" data-name="Path 291" d="M2002.21,2027.83a2.255,2.255,0,1,0-2.282-2.212,2.224,2.224,0,0,0,2.282,2.212Z" transform="translate(-18.105 -4.359)" fill="#07fd60"/>
        <path id="Path_292" data-name="Path 292" d="M2068.02,2246.89a2.256,2.256,0,1,0,2.208,2.286,2.228,2.228,0,0,0-2.208-2.286Z" transform="translate(-29.565 -43.306)" fill="#07fd60"/>
        <path id="Path_293" data-name="Path 293" d="M2067.87,2027.81a2.235,2.235,0,1,0-2.129-2.3,2.235,2.235,0,0,0,2.129,2.3Z" transform="translate(-29.57 -4.364)" fill="#07fd60"/>
        <path id="Path_294" data-name="Path 294" d="M2146.89,2106.79a2.234,2.234,0,1,0-2.176-2.256,2.234,2.234,0,0,0,2.176,2.256Z" transform="translate(-43.328 -18.122)" fill="#07fd60"/>
        <path id="Path_295" data-name="Path 295" d="M1923.26,2181.29a2.091,2.091,0,1,0,1.491.639,2.1,2.1,0,0,0-1.491-.639Z" transform="translate(-4.381 -31.879)" fill="#07fd60"/>
        <path id="Path_296" data-name="Path 296" d="M1949.65,2220.7a2.092,2.092,0,1,0,1.488.645,2.1,2.1,0,0,0-1.488-.645Z" transform="translate(-8.976 -38.743)" fill="#07fd60"/>
        <path id="Path_297" data-name="Path 297" d="M2081.19,2247.08a2.1,2.1,0,1,0,2.1,2.062,2.1,2.1,0,0,0-2.1-2.062Z" transform="translate(-31.896 -43.339)" fill="#07fd60"/>
        <path id="Path_298" data-name="Path 298" d="M1989.03,2247.08a2.1,2.1,0,1,0,2.1,2.062,2.1,2.1,0,0,0-2.1-2.062Z" transform="translate(-15.841 -43.339)" fill="#07fd60"/>
        <path id="Path_299" data-name="Path 299" d="M2146.99,2181.32a2.073,2.073,0,1,0,2.064,2.047A2.108,2.108,0,0,0,2146.99,2181.32Z" transform="translate(-43.361 -31.884)" fill="#07fd60"/>
        <path id="Path_300" data-name="Path 300" d="M2120.57,2220.89a2.074,2.074,0,1,0,2.108,2.073,2.109,2.109,0,0,0-2.108-2.073Z" transform="translate(-38.766 -38.778)" fill="#07fd60"/>
        <path id="Path_301" data-name="Path 301" d="M1989,2027.68a2.074,2.074,0,1,0-2.037-2.074,2.108,2.108,0,0,0,2.037,2.074Z" transform="translate(-15.846 -4.397)" fill="#07fd60"/>
        <path id="Path_302" data-name="Path 302" d="M1923.24,2093.47a2.074,2.074,0,1,0-2.064-2.117,2.11,2.11,0,0,0,2.064,2.117Z" transform="translate(-4.386 -15.858)" fill="#07fd60"/>
        <path id="Path_303" data-name="Path 303" d="M1949.6,2053.9a2.073,2.073,0,1,0-2.044-2.068,2.108,2.108,0,0,0,2.044,2.068Z" transform="translate(-8.982 -8.964)" fill="#07fd60"/>
        <path id="Path_304" data-name="Path 304" d="M1936.42,2207.76a2.031,2.031,0,1,0,1.447.582A2.028,2.028,0,0,0,1936.42,2207.76Z" transform="translate(-6.693 -36.489)" fill="#07fd60"/>
        <path id="Path_305" data-name="Path 305" d="M2081.22,2027.65a2.03,2.03,0,1,0-1.442-.594,2.028,2.028,0,0,0,1.442.594Z" transform="translate(-31.911 -4.407)" fill="#07fd60"/>
        <path id="Path_306" data-name="Path 306" d="M2146.97,2093.43a2.031,2.031,0,1,0-1.43-.62A2.028,2.028,0,0,0,2146.97,2093.43Z" transform="translate(-43.371 -15.867)" fill="#07fd60"/>
        <path id="Path_307" data-name="Path 307" d="M2120.59,2054.03a2.028,2.028,0,1,0-2-2,2.028,2.028,0,0,0,2,2Z" transform="translate(-38.775 -9.003)" fill="#07fd60"/>
        <path id="Path_308" data-name="Path 308" d="M1962.82,2233.97a2.031,2.031,0,1,0,1.442.6,2.027,2.027,0,0,0-1.442-.6Z" transform="translate(-11.289 -41.056)" fill="#07fd60"/>
        <path id="Path_309" data-name="Path 309" d="M2107.49,2233.97a2.028,2.028,0,1,0,1.962,2.04,2.027,2.027,0,0,0-1.962-2.04Z" transform="translate(-36.477 -41.055)" fill="#07fd60"/>
        <path id="Path_310" data-name="Path 310" d="M1936.47,2067.01a1.978,1.978,0,1,0-1.993-1.963,1.946,1.946,0,0,0,1.993,1.963Z" transform="translate(-6.704 -11.282)" fill="#07fd60"/>
        <path id="Path_311" data-name="Path 311" d="M2133.77,2067.01a1.979,1.979,0,1,0-1.941-2.017,1.948,1.948,0,0,0,1.941,2.017Z" transform="translate(-41.083 -11.282)" fill="#07fd60"/>
        <path id="Path_312" data-name="Path 312" d="M1962.83,2040.8a1.978,1.978,0,1,0-1.974-1.983,1.946,1.946,0,0,0,1.974,1.983Z" transform="translate(-11.299 -6.716)" fill="#07fd60"/>
        <path id="Path_313" data-name="Path 313" d="M2133.8,2207.82a1.978,1.978,0,1,0,1.994,1.962,1.947,1.947,0,0,0-1.994-1.962Z" transform="translate(-41.083 -36.5)" fill="#07fd60"/>
        <path id="Path_314" data-name="Path 314" d="M2107.46,2040.8a1.978,1.978,0,1,0-2.01-1.946,1.947,1.947,0,0,0,2.01,1.946Z" transform="translate(-36.488 -6.715)" fill="#07fd60"/>
        <path id="Path_315" data-name="Path 315" d="M2041.71,2260.55a1.851,1.851,0,1,0,1.331.59,1.867,1.867,0,0,0-1.331-.59Z" transform="translate(-25.051 -45.685)" fill="#07fd60"/>
        <path id="Path_316" data-name="Path 316" d="M1910.25,2132.71a1.867,1.867,0,1,0-1.848-1.869,1.849,1.849,0,0,0,1.848,1.869Z" transform="translate(-2.161 -22.765)" fill="#07fd60"/>
        <path id="Path_317" data-name="Path 317" d="M2028.51,2260.55a1.867,1.867,0,1,0,1.84,1.876,1.849,1.849,0,0,0-1.84-1.876Z" transform="translate(-22.753 -45.685)" fill="#07fd60"/>
        <path id="Path_318" data-name="Path 318" d="M2160.06,2142.17a1.867,1.867,0,1,0,1.86,1.857,1.848,1.848,0,0,0-1.86-1.857Z" transform="translate(-45.673 -25.063)" fill="#07fd60"/>
        <path id="Path_319" data-name="Path 319" d="M1910.3,2142.17a1.848,1.848,0,1,0,1.312.555,1.848,1.848,0,0,0-1.312-.555Z" transform="translate(-2.161 -25.063)" fill="#07fd60"/>
        <path id="Path_320" data-name="Path 320" d="M2015.51,2260.59a1.828,1.828,0,1,0,1.783,1.836,1.807,1.807,0,0,0-1.783-1.836Z" transform="translate(-20.493 -45.693)" fill="#07fd60"/>
        <path id="Path_321" data-name="Path 321" d="M1923.31,2194.81a1.828,1.828,0,1,0,1.812,1.809,1.807,1.807,0,0,0-1.812-1.809Z" transform="translate(-4.437 -34.234)" fill="#07fd60"/>
        <path id="Path_322" data-name="Path 322" d="M2041.82,2014.3a1.828,1.828,0,1,0-1.8-1.818,1.807,1.807,0,0,0,1.8,1.818Z" transform="translate(-25.089 -2.152)" fill="#07fd60"/>
        <path id="Path_323" data-name="Path 323" d="M2160.09,2132.68a1.828,1.828,0,1,0-1.861-1.829,1.806,1.806,0,0,0,1.862,1.829Z" transform="translate(-45.682 -22.774)" fill="#07fd60"/>
        <path id="Path_324" data-name="Path 324" d="M2028.63,2014.3a1.828,1.828,0,1,0-1.8-1.894,1.8,1.8,0,0,0,1.8,1.895Z" transform="translate(-22.791 -2.152)" fill="#07fd60"/>
        <path id="Path_325" data-name="Path 325" d="M1910.26,2119.49a1.828,1.828,0,1,0-1.809-1.813,1.807,1.807,0,0,0,1.809,1.813Z" transform="translate(-2.169 -20.476)" fill="#07fd60"/>
        <path id="Path_326" data-name="Path 326" d="M2094.31,2247.4a1.828,1.828,0,1,0,1.792,1.829,1.807,1.807,0,0,0-1.792-1.829Z" transform="translate(-34.222 -43.396)" fill="#07fd60"/>
        <path id="Path_327" data-name="Path 327" d="M2054.89,2260.59a1.828,1.828,0,1,0,1.8,1.888,1.806,1.806,0,0,0-1.8-1.888Z" transform="translate(-27.357 -45.694)" fill="#07fd60"/>
        <path id="Path_328" data-name="Path 328" d="M1910.28,2155.41a1.828,1.828,0,1,0,1.824,1.8,1.806,1.806,0,0,0-1.824-1.8Z" transform="translate(-2.169 -27.369)" fill="#07fd60"/>
        <path id="Path_329" data-name="Path 329" d="M1975.94,2247.4a1.829,1.829,0,1,0,1.775,1.845,1.805,1.805,0,0,0-1.775-1.845Z" transform="translate(-13.6 -43.396)" fill="#07fd60"/>
        <path id="Path_330" data-name="Path 330" d="M2147.07,2194.84a1.8,1.8,0,1,0,1.769,1.8,1.826,1.826,0,0,0-1.769-1.8Z" transform="translate(-43.418 -34.239)" fill="#07fd60"/>
        <path id="Path_331" data-name="Path 331" d="M2160.05,2119.64a1.8,1.8,0,1,0-1.79-1.781,1.826,1.826,0,0,0,1.79,1.781Z" transform="translate(-45.687 -20.51)" fill="#07fd60"/>
        <path id="Path_332" data-name="Path 332" d="M2160.04,2155.43a1.8,1.8,0,1,0,1.823,1.819,1.827,1.827,0,0,0-1.823-1.819Z" transform="translate(-45.687 -27.375)" fill="#07fd60"/>
        <path id="Path_333" data-name="Path 333" d="M1976.07,2027.47a1.8,1.8,0,1,0-1.8-1.84,1.828,1.828,0,0,0,1.8,1.84Z" transform="translate(-13.634 -4.455)" fill="#07fd60"/>
        <path id="Path_334" data-name="Path 334" d="M2015.44,2014.28a1.8,1.8,0,1,0-1.769-1.872,1.83,1.83,0,0,0,1.769,1.872Z" transform="translate(-20.498 -2.157)" fill="#07fd60"/>
        <path id="Path_335" data-name="Path 335" d="M1923.21,2080.06a1.8,1.8,0,1,0-1.713-1.857,1.829,1.829,0,0,0,1.713,1.857Z" transform="translate(-4.443 -13.616)" fill="#07fd60"/>
        <path id="Path_336" data-name="Path 336" d="M2054.84,2014.28a1.8,1.8,0,1,0-1.769-1.872,1.829,1.829,0,0,0,1.769,1.872Z" transform="translate(-27.363 -2.157)" fill="#07fd60"/>
        <path id="Path_337" data-name="Path 337" d="M2094.45,2027.44a1.76,1.76,0,1,0-1.755-1.73,1.781,1.781,0,0,0,1.755,1.73Z" transform="translate(-34.266 -4.464)" fill="#07fd60"/>
        <path id="Path_338" data-name="Path 338" d="M2147.05,2080.03a1.76,1.76,0,1,0-1.76-1.795A1.78,1.78,0,0,0,2147.05,2080.03Z" transform="translate(-43.427 -13.626)" fill="#07fd60"/>
        <path id="Path_339" data-name="Path 339" d="M2002.3,2260.75a1.7,1.7,0,1,0,1.7,1.715,1.666,1.666,0,0,0-1.7-1.715Z" transform="translate(-18.222 -45.721)" fill="#07fd60"/>
        <path id="Path_340" data-name="Path 340" d="M2002.29,2014.18a1.672,1.672,0,1,0-1.659-1.7A1.672,1.672,0,0,0,2002.29,2014.18Z" transform="translate(-18.228 -2.184)" fill="#07fd60"/>
        <path id="Path_341" data-name="Path 341" d="M1910.27,2106.17a1.672,1.672,0,1,0-1.635-1.725,1.672,1.672,0,0,0,1.635,1.725Z" transform="translate(-2.202 -18.211)" fill="#07fd60"/>
        <path id="Path_342" data-name="Path 342" d="M2068.1,2260.78a1.672,1.672,0,1,0,1.668,1.692,1.672,1.672,0,0,0-1.668-1.692Z" transform="translate(-29.688 -45.726)" fill="#07fd60"/>
        <path id="Path_343" data-name="Path 343" d="M1910.15,2168.62a1.672,1.672,0,1,0,1.66,1.7A1.672,1.672,0,0,0,1910.15,2168.62Z" transform="translate(-2.172 -29.671)" fill="#07fd60"/>
        <path id="Path_344" data-name="Path 344" d="M2160.09,2106.34a1.672,1.672,0,1,0-1.671-1.69A1.672,1.672,0,0,0,2160.09,2106.34Z" transform="translate(-45.714 -18.241)" fill="#07fd60"/>
        <path id="Path_345" data-name="Path 345" d="M2160.06,2168.78a1.672,1.672,0,1,0,1.7,1.66A1.672,1.672,0,0,0,2160.06,2168.78Z" transform="translate(-45.714 -29.7)" fill="#07fd60"/>
        <path id="Path_346" data-name="Path 346" d="M1949.67,2234.45a1.633,1.633,0,1,0,1.68,1.6,1.66,1.66,0,0,0-1.68-1.6Z" transform="translate(-9.075 -41.139)" fill="#07fd60"/>
        <path id="Path_347" data-name="Path 347" d="M1936.6,2221.26a1.633,1.633,0,1,0,1.558,1.719,1.66,1.66,0,0,0-1.558-1.719Z" transform="translate(-6.776 -38.841)" fill="#07fd60"/>
        <path id="Path_348" data-name="Path 348" d="M2068.07,2014.15a1.633,1.633,0,1,0-1.606-1.676,1.664,1.664,0,0,0,1.606,1.676Z" transform="translate(-29.697 -2.193)" fill="#07fd60"/>
        <path id="Path_349" data-name="Path 349" d="M2133.96,2221.51a1.566,1.566,0,1,0,1.5,1.657,1.536,1.536,0,0,0-1.5-1.657Z" transform="translate(-41.171 -38.884)" fill="#07fd60"/>
        <path id="Path_350" data-name="Path 350" d="M2133.84,2053.67a1.566,1.566,0,1,0-1.507-1.588,1.537,1.537,0,0,0,1.507,1.588Z" transform="translate(-41.171 -9.1)" fill="#07fd60"/>
        <path id="Path_351" data-name="Path 351" d="M1936.48,2053.5a1.566,1.566,0,1,0-1.5-1.593,1.537,1.537,0,0,0,1.5,1.593Z" transform="translate(-6.791 -9.071)" fill="#07fd60"/>
        <path id="Path_352" data-name="Path 352" d="M1949.73,2040.47a1.565,1.565,0,1,0-1.562-1.6,1.534,1.534,0,0,0,1.562,1.6Z" transform="translate(-9.088 -6.803)" fill="#07fd60"/>
        <path id="Path_353" data-name="Path 353" d="M2120.72,2234.7a1.565,1.565,0,1,0,1.557,1.607,1.533,1.533,0,0,0-1.557-1.607Z" transform="translate(-38.873 -41.183)" fill="#07fd60"/>
        <path id="Path_354" data-name="Path 354" d="M2120.7,2040.47a1.565,1.565,0,1,0-1.557-1.609,1.533,1.533,0,0,0,1.557,1.609Z" transform="translate(-38.873 -6.803)" fill="#07fd60"/>
        <path id="Path_355" data-name="Path 355" d="M1923.3,2066.63a1.489,1.489,0,1,0-1.423-1.519,1.519,1.519,0,0,0,1.423,1.519Z" transform="translate(-4.509 -11.385)" fill="#07fd60"/>
        <path id="Path_356" data-name="Path 356" d="M1989.14,2261a1.489,1.489,0,1,0,1.507,1.5,1.517,1.517,0,0,0-1.507-1.5Z" transform="translate(-15.969 -45.765)" fill="#07fd60"/>
        <path id="Path_357" data-name="Path 357" d="M2081.32,2261a1.489,1.489,0,1,0,1.488,1.524A1.517,1.517,0,0,0,2081.32,2261Z" transform="translate(-32.025 -45.765)" fill="#07fd60"/>
        <path id="Path_358" data-name="Path 358" d="M1923.44,2208.41a1.489,1.489,0,1,0,1.42,1.522,1.518,1.518,0,0,0-1.42-1.522Z" transform="translate(-4.509 -36.603)" fill="#07fd60"/>
        <path id="Path_359" data-name="Path 359" d="M1910.22,2182.03a1.49,1.49,0,1,0,1.448,1.5A1.517,1.517,0,0,0,1910.22,2182.03Z" transform="translate(-2.211 -32.007)" fill="#07fd60"/>
        <path id="Path_360" data-name="Path 360" d="M2107.56,2247.81a1.489,1.489,0,1,0,1.458,1.485,1.516,1.516,0,0,0-1.458-1.485Z" transform="translate(-36.591 -43.467)" fill="#07fd60"/>
        <path id="Path_361" data-name="Path 361" d="M1910.31,2093.01a1.489,1.489,0,1,0-1.448-1.5,1.517,1.517,0,0,0,1.448,1.5Z" transform="translate(-2.241 -15.981)" fill="#07fd60"/>
        <path id="Path_362" data-name="Path 362" d="M1962.94,2247.81a1.489,1.489,0,1,0,1.493,1.52,1.517,1.517,0,0,0-1.493-1.52Z" transform="translate(-11.403 -43.467)" fill="#07fd60"/>
        <path id="Path_363" data-name="Path 363" d="M2147.07,2066.57a1.419,1.419,0,1,0-1.368-1.451,1.389,1.389,0,0,0,1.368,1.451Z" transform="translate(-43.499 -11.4)" fill="#07fd60"/>
        <path id="Path_364" data-name="Path 364" d="M1989.11,2013.98a1.42,1.42,0,1,0-1.356-1.464,1.391,1.391,0,0,0,1.356,1.464Z" transform="translate(-15.984 -2.238)" fill="#07fd60"/>
        <path id="Path_365" data-name="Path 365" d="M2081.38,2013.98a1.419,1.419,0,1,0-1.464-1.425,1.387,1.387,0,0,0,1.464,1.425Z" transform="translate(-32.04 -2.238)" fill="#07fd60"/>
        <path id="Path_366" data-name="Path 366" d="M2160.14,2092.95a1.419,1.419,0,1,0-1.415-1.474,1.385,1.385,0,0,0,1.415,1.474Z" transform="translate(-45.768 -15.996)" fill="#07fd60"/>
        <path id="Path_367" data-name="Path 367" d="M2147.16,2208.5a1.418,1.418,0,1,0,1.382,1.438,1.384,1.384,0,0,0-1.382-1.438Z" transform="translate(-43.499 -36.618)" fill="#07fd60"/>
        <path id="Path_368" data-name="Path 368" d="M2160.15,2182.11a1.418,1.418,0,1,0,1.411,1.408,1.384,1.384,0,0,0-1.411-1.408Z" transform="translate(-45.768 -32.022)" fill="#07fd60"/>
        <path id="Path_369" data-name="Path 369" d="M1962.97,2027.17a1.419,1.419,0,1,0-1.43-1.391,1.386,1.386,0,0,0,1.43,1.391Z" transform="translate(-11.417 -4.536)" fill="#07fd60"/>
        <path id="Path_370" data-name="Path 370" d="M2107.47,2027.17a1.419,1.419,0,1,0-1.344-1.474,1.387,1.387,0,0,0,1.344,1.474Z" transform="translate(-36.605 -4.536)" fill="#07fd60"/>
        <path id="Path_371" data-name="Path 371" d="M1910.39,2079.6a1.217,1.217,0,1,0-1.2-1.282,1.251,1.251,0,0,0,1.2,1.282Z" transform="translate(-2.298 -13.741)" fill="#07fd60"/>
        <path id="Path_372" data-name="Path 372" d="M2028.63,2274.52a1.217,1.217,0,1,0,1.207,1.21,1.249,1.249,0,0,0-1.207-1.21Z" transform="translate(-22.89 -48.12)" fill="#07fd60"/>
        <path id="Path_373" data-name="Path 373" d="M2041.85,2274.52a1.217,1.217,0,1,0,1.175,1.242,1.249,1.249,0,0,0-1.175-1.242Z" transform="translate(-25.189 -48.12)" fill="#07fd60"/>
        <path id="Path_374" data-name="Path 374" d="M1897.23,2142.95a1.217,1.217,0,1,0,1.2,1.218,1.25,1.25,0,0,0-1.2-1.218Z" transform="translate(0 -25.2)" fill="#07fd60"/>
        <path id="Path_375" data-name="Path 375" d="M2094.43,2261.33a1.217,1.217,0,1,0,1.188,1.227A1.252,1.252,0,0,0,2094.43,2261.33Z" transform="translate(-34.351 -45.822)" fill="#07fd60"/>
        <path id="Path_376" data-name="Path 376" d="M1976.02,2261.33a1.217,1.217,0,1,0,1.218,1.2A1.25,1.25,0,0,0,1976.02,2261.33Z" transform="translate(-13.729 -45.822)" fill="#07fd60"/>
        <path id="Path_377" data-name="Path 377" d="M1910.25,2195.55a1.217,1.217,0,1,0,1.206,1.209,1.251,1.251,0,0,0-1.206-1.209Z" transform="translate(-2.268 -34.363)" fill="#07fd60"/>
        <path id="Path_378" data-name="Path 378" d="M1897.26,2129.76a1.217,1.217,0,1,0,1.169,1.247,1.253,1.253,0,0,0-1.169-1.248Z" transform="translate(0 -22.902)" fill="#07fd60"/>
        <path id="Path_379" data-name="Path 379" d="M1897.19,2118.94a1.134,1.134,0,1,0-1.094-1.192,1.108,1.108,0,0,0,1.094,1.192Z" transform="translate(-0.017 -20.622)" fill="#07fd60"/>
        <path id="Path_380" data-name="Path 380" d="M1936.69,2235.05a1.135,1.135,0,1,0,1.077,1.14,1.114,1.114,0,0,0-1.077-1.14Z" transform="translate(-6.882 -41.244)" fill="#07fd60"/>
        <path id="Path_381" data-name="Path 381" d="M2028.78,2000.56a1.134,1.134,0,1,0-1.109-1.177,1.109,1.109,0,0,0,1.109,1.177Z" transform="translate(-22.937)" fill="#07fd60"/>
        <path id="Path_382" data-name="Path 382" d="M2041.99,2000.56a1.134,1.134,0,1,0-1.134-1.152,1.108,1.108,0,0,0,1.134,1.152Z" transform="translate(-25.235)" fill="#07fd60"/>
        <path id="Path_383" data-name="Path 383" d="M2015.56,2274.62a1.135,1.135,0,1,0,1.182,1.1,1.107,1.107,0,0,0-1.182-1.1Z" transform="translate(-20.64 -48.138)" fill="#07fd60"/>
        <path id="Path_384" data-name="Path 384" d="M1897.2,2156.24a1.135,1.135,0,1,0,1.169,1.118,1.113,1.113,0,0,0-1.169-1.118Z" transform="translate(-0.017 -27.516)" fill="#07fd60"/>
        <path id="Path_385" data-name="Path 385" d="M2160.14,2079.54a1.135,1.135,0,1,0-1.074-1.141A1.112,1.112,0,0,0,2160.14,2079.54Z" transform="translate(-45.828 -13.758)" fill="#07fd60"/>
        <path id="Path_386" data-name="Path 386" d="M2173.38,2132.13a1.134,1.134,0,1,0-1.121-1.165,1.109,1.109,0,0,0,1.121,1.165Z" transform="translate(-48.126 -22.92)" fill="#07fd60"/>
        <path id="Path_387" data-name="Path 387" d="M2055,2274.62a1.134,1.134,0,1,0,1.152,1.134,1.108,1.108,0,0,0-1.152-1.135Z" transform="translate(-27.504 -48.138)" fill="#07fd60"/>
        <path id="Path_388" data-name="Path 388" d="M2160.28,2195.65a1.135,1.135,0,1,0,1.061,1.155A1.114,1.114,0,0,0,2160.28,2195.65Z" transform="translate(-45.827 -34.38)" fill="#07fd60"/>
        <path id="Path_389" data-name="Path 389" d="M2094.55,2013.75a1.135,1.135,0,1,0-1.1-1.19,1.11,1.11,0,0,0,1.1,1.19Z" transform="translate(-34.397 -2.298)" fill="#07fd60"/>
        <path id="Path_390" data-name="Path 390" d="M1976.21,2013.75a1.135,1.135,0,1,0-1.139-1.147,1.109,1.109,0,0,0,1.139,1.147Z" transform="translate(-13.775 -2.298)" fill="#07fd60"/>
        <path id="Path_391" data-name="Path 391" d="M2173.34,2143.05a1.135,1.135,0,1,0,1.186,1.1,1.108,1.108,0,0,0-1.186-1.1Z" transform="translate(-48.126 -25.217)" fill="#07fd60"/>
        <path id="Path_392" data-name="Path 392" d="M2015.59,2000.53a1.09,1.09,0,1,0-1.06-1.153A1.131,1.131,0,0,0,2015.59,2000.53Z" transform="translate(-20.649 -0.009)" fill="#07fd60"/>
        <path id="Path_393" data-name="Path 393" d="M2134.01,2235.27a1.089,1.089,0,1,0,1.083,1.13,1.131,1.131,0,0,0-1.083-1.13Z" transform="translate(-41.271 -41.283)" fill="#07fd60"/>
        <path id="Path_394" data-name="Path 394" d="M2173.37,2119.07a1.089,1.089,0,1,0-1.054-1.09A1.126,1.126,0,0,0,2173.37,2119.07Z" transform="translate(-48.135 -20.661)" fill="#07fd60"/>
        <path id="Path_395" data-name="Path 395" d="M1936.64,2040.1a1.089,1.089,0,1,0-1.088-1.126,1.131,1.131,0,0,0,1.088,1.126Z" transform="translate(-6.891 -6.903)" fill="#07fd60"/>
        <path id="Path_396" data-name="Path 396" d="M2133.96,2040.1a1.09,1.09,0,1,0-1.046-1.1A1.128,1.128,0,0,0,2133.96,2040.1Z" transform="translate(-41.271 -6.903)" fill="#07fd60"/>
        <path id="Path_397" data-name="Path 397" d="M2054.97,2000.53a1.09,1.09,0,1,0-1.032-1.177A1.131,1.131,0,0,0,2054.97,2000.53Z" transform="translate(-27.513 -0.009)" fill="#07fd60"/>
        <path id="Path_398" data-name="Path 398" d="M1949.83,2248.3a1.089,1.089,0,1,0,1.092,1.121,1.13,1.13,0,0,0-1.092-1.121Z" transform="translate(-9.189 -43.552)" fill="#07fd60"/>
        <path id="Path_399" data-name="Path 399" d="M1923.43,2221.92a1.089,1.089,0,1,0,1.116,1.1,1.131,1.131,0,0,0-1.116-1.1Z" transform="translate(-4.593 -38.956)" fill="#07fd60"/>
        <path id="Path_400" data-name="Path 400" d="M2173.42,2156.3a1.089,1.089,0,1,0,1.073,1.14,1.132,1.132,0,0,0-1.073-1.14Z" transform="translate(-48.135 -27.525)" fill="#07fd60"/>
        <path id="Path_401" data-name="Path 401" d="M2068.29,2274.79a1,1,0,1,0,.94,1.07.975.975,0,0,0-.94-1.07Z" transform="translate(-29.83 -48.166)" fill="#07fd60"/>
        <path id="Path_402" data-name="Path 402" d="M2002.44,2274.79a1,1,0,1,0,1.011,1,.971.971,0,0,0-1.011-1Z" transform="translate(-18.37 -48.167)" fill="#07fd60"/>
        <path id="Path_403" data-name="Path 403" d="M2120.83,2248.41a1,1,0,1,0,1,1.012.97.97,0,0,0-1-1.012Z" transform="translate(-38.993 -43.571)" fill="#07fd60"/>
        <path id="Path_404" data-name="Path 404" d="M1897.32,2169.43a1,1,0,1,0,.942,1,.975.975,0,0,0-.942-1Z" transform="translate(-0.046 -29.813)" fill="#07fd60"/>
        <path id="Path_405" data-name="Path 405" d="M2147.17,2053.22a1,1,0,1,0-.957-1.054.972.972,0,0,0,.957,1.054Z" transform="translate(-43.588 -9.22)" fill="#07fd60"/>
        <path id="Path_406" data-name="Path 406" d="M2147.02,2222.2a1,1,0,1,0,1.018.993.969.969,0,0,0-1.018-.993Z" transform="translate(-43.559 -39.004)" fill="#07fd60"/>
        <path id="Path_407" data-name="Path 407" d="M1923.48,2053.05a1,1,0,1,0-1-1.01.971.971,0,0,0,1,1.01Z" transform="translate(-4.613 -9.191)" fill="#07fd60"/>
        <path id="Path_408" data-name="Path 408" d="M2120.76,2026.83a1,1,0,1,0-.932-1.011.976.976,0,0,0,.932,1.011Z" transform="translate(-38.993 -4.624)" fill="#07fd60"/>
        <path id="Path_409" data-name="Path 409" d="M1949.82,2026.83a1,1,0,1,0-.964-1.047.972.972,0,0,0,.964,1.047Z" transform="translate(-9.208 -4.625)" fill="#07fd60"/>
        <path id="Path_410" data-name="Path 410" d="M2173.43,2169.67a.943.943,0,1,0,.952.916.971.971,0,0,0-.952-.916Z" transform="translate(-48.166 -29.854)" fill="#07fd60"/>
        <path id="Path_411" data-name="Path 411" d="M1897.27,2105.6a.943.943,0,1,0-.938-.93.973.973,0,0,0,.938.93Z" transform="translate(-0.058 -18.364)" fill="#07fd60"/>
        <path id="Path_412" data-name="Path 412" d="M2173.43,2105.77a.943.943,0,1,0-.939-1,.97.97,0,0,0,.939,1Z" transform="translate(-48.166 -18.394)" fill="#07fd60"/>
        <path id="Path_413" data-name="Path 413" d="M2068.28,2000.41a.943.943,0,1,0-.975-.96A.972.972,0,0,0,2068.28,2000.41Z" transform="translate(-29.842 -0.04)" fill="#07fd60"/>
        <path id="Path_414" data-name="Path 414" d="M2002.44,2000.41a.943.943,0,1,0-.925-.942.973.973,0,0,0,.925.942Z" transform="translate(-18.382 -0.04)" fill="#07fd60"/>
        <path id="Path_415" data-name="Path 415" d="M1910.36,2209.19a.814.814,0,0,0-.885.848.792.792,0,0,0,.745.835.845.845,0,0,0,.936-.816.792.792,0,0,0-.8-.867Z" transform="translate(-2.348 -36.739)" fill="#07fd60"/>
        <path id="Path_416" data-name="Path 416" d="M2160.3,2209.2a.812.812,0,0,0-.873.86.823.823,0,0,0,.844.833.808.808,0,0,0,.834-.838.779.779,0,0,0-.8-.855Z" transform="translate(-45.889 -36.74)" fill="#07fd60"/>
        <path id="Path_417" data-name="Path 417" d="M1963.01,2013.53a.813.813,0,0,0,.9-.779.781.781,0,0,0-.746-.908.815.815,0,0,0-.931.8.823.823,0,0,0,.777.887Z" transform="translate(-11.539 -2.359)" fill="#07fd60"/>
        <path id="Path_418" data-name="Path 418" d="M1910.43,2066.11a.848.848,0,1,0-.777-.882.781.781,0,0,0,.777.882Z" transform="translate(-2.378 -11.519)" fill="#07fd60"/>
        <path id="Path_419" data-name="Path 419" d="M1962.9,2261.77a.81.81,0,0,0-.827.844.78.78,0,0,0,.811.85.812.812,0,0,0,.867-.866.823.823,0,0,0-.851-.828Z" transform="translate(-11.511 -45.899)" fill="#07fd60"/>
        <path id="Path_420" data-name="Path 420" d="M2107.71,2261.79a.793.793,0,0,0-.882.78.814.814,0,0,0,.831.9.794.794,0,0,0,.85-.729.845.845,0,0,0-.8-.951Z" transform="translate(-36.727 -45.902)" fill="#07fd60"/>
        <path id="Path_421" data-name="Path 421" d="M1989.3,2275.1c-.468.008-.79.3-.7.751.059.31.375.57.576.854l.329,0c.188-.292.491-.566.538-.878C1990.1,2275.37,1989.77,2275.09,1989.3,2275.1Z" transform="translate(-16.128 -48.221)" fill="#07fd60"/>
        <path id="Path_422" data-name="Path 422" d="M2080.74,2275.83c-.009.467.269.8.721.737.313-.046.587-.349.878-.537,0-.109,0-.219.007-.328-.283-.2-.544-.518-.854-.577C2081.04,2275.04,2080.75,2275.36,2080.74,2275.83Z" transform="translate(-32.182 -48.222)" fill="#07fd60"/>
        <path id="Path_423" data-name="Path 423" d="M2173.48,2092.4c.311-.054.577-.366.862-.562v-.329c-.289-.192-.558-.5-.87-.551-.45-.073-.735.258-.732.726S2173.03,2092.48,2173.48,2092.4Z" transform="translate(-48.209 -16.141)" fill="#07fd60"/>
        <path id="Path_424" data-name="Path 424" d="M1897.31,2092.4c.311-.05.581-.358.87-.551v-.329c-.286-.2-.552-.508-.862-.562-.449-.079-.738.249-.741.716S1896.86,2092.47,1897.31,2092.4Z" transform="translate(-0.1 -16.141)" fill="#07fd60"/>
        <path id="Path_425" data-name="Path 425" d="M2160.26,2066.15l.326.014c.208-.278.532-.532.6-.841.094-.443-.219-.75-.688-.768s-.809.25-.753.7C2159.78,2065.57,2160.07,2065.85,2160.26,2066.15Z" transform="translate(-45.943 -11.543)" fill="#07fd60"/>
        <path id="Path_426" data-name="Path 426" d="M1896.57,2183.67c-.006.468.275.8.726.731.312-.048.584-.353.874-.543,0-.109,0-.218.006-.328-.285-.2-.548-.513-.859-.57C1896.87,2182.87,1896.58,2183.2,1896.57,2183.67Z" transform="translate(-0.1 -32.167)" fill="#07fd60"/>
        <path id="Path_427" data-name="Path 427" d="M2173.66,2182.79h-.329c-.2.284-.513.547-.57.857-.082.448.243.741.711.747s.8-.275.731-.726C2174.15,2183.35,2173.85,2183.08,2173.66,2182.79Z" transform="translate(-48.21 -32.139)" fill="#07fd60"/>
        <path id="Path_428" data-name="Path 428" d="M2107.68,2013.42c.467.006.8-.275.731-.727-.048-.312-.353-.584-.543-.874h-.329c-.2.284-.513.547-.57.857C2106.89,2013.12,2107.21,2013.41,2107.68,2013.42Z" transform="translate(-36.75 -2.355)" fill="#07fd60"/>
        <path id="Path_429" data-name="Path 429" d="M2081.46,2000.23c.5.006.835-.307.736-.784-.062-.3-.411-.54-.632-.807l-.31.009c-.175.276-.455.535-.5.832a.639.639,0,0,0,.706.75Z" transform="translate(-32.184 -0.06)" fill="#07fd60"/>
        <path id="Path_430" data-name="Path 430" d="M1989.18,2000.38l.329-.009c.184-.294.485-.571.527-.885.061-.453-.279-.727-.745-.712s-.786.314-.7.76C1988.66,1999.84,1988.97,2000.1,1989.18,2000.38Z" transform="translate(-16.128 -0.083)" fill="#07fd60"/>
      </g>
      <rect id="Rectangle_148-2" data-name="Rectangle 148" width="103.762" height="35" rx="17.5" transform="translate(-3452.621 1703.661)" fill="#07fd60"/>
      <path id="共1名" d="M3.76-4.873l-2.5.039q-.2,0-.2-.215V-6.6q0-.215.2-.215l2.5.039h1.9v-3.9h-.7l-2.676.039q-.156,0-.2-.049a.394.394,0,0,1-.029-.2v-1.543q0-.2.225-.2l2.676.039h.7V-13.6a22.953,22.953,0,0,0-.137-2.832q1.445.039,2.158.117.3.029.3.215a2.362,2.362,0,0,1-.146.527A12.266,12.266,0,0,0,7.764-13.6v1.025h4.219V-13.6a22.953,22.953,0,0,0-.137-2.832q1.416.029,2.158.117.3.029.3.215a2.565,2.565,0,0,1-.146.527,12.144,12.144,0,0,0-.078,1.973v1.025h.977l2.686-.039q.215,0,.215.2v1.543a.356.356,0,0,1-.039.215.336.336,0,0,1-.176.029l-2.686-.039h-.977v3.9h2.139l2.48-.039a.309.309,0,0,1,.2.039.336.336,0,0,1,.029.176v1.553a.294.294,0,0,1-.034.181.318.318,0,0,1-.19.034l-2.48-.039Zm4-1.9h4.219v-3.9H7.764Zm10.957,6.4A5.713,5.713,0,0,0,17.705.9q-.283.479-.439.479a1.664,1.664,0,0,1-.439-.156,16.127,16.127,0,0,1-5.283-4.238.376.376,0,0,1-.078-.176q0-.078.215-.205l1.2-.7a.4.4,0,0,1,.2-.088.347.347,0,0,1,.205.127A13.944,13.944,0,0,0,18.721-.381ZM6.445-4.258a13.046,13.046,0,0,1,1.719.879q.264.146.264.3,0,.186-.3.352a3.687,3.687,0,0,0-.6.547A14.989,14.989,0,0,1,3.066,1.2a1.565,1.565,0,0,1-.459.156q-.156,0-.459-.439a4.582,4.582,0,0,0-1.064-1.2A12.859,12.859,0,0,0,5.625-3.115,4.484,4.484,0,0,0,6.445-4.258Zm23.68-10.059V0H27.049V-10.84a3.684,3.684,0,0,1-.6.425,6.2,6.2,0,0,1-.737.361,6.584,6.584,0,0,1-.811.273,5.92,5.92,0,0,1-.83.161v-2.6a12.832,12.832,0,0,0,2.266-.9,12.893,12.893,0,0,0,1.924-1.2Zm6.531,3.936a19,19,0,0,0,6.523-5.264,5.082,5.082,0,0,0,.684-1.182,14.219,14.219,0,0,1,2.051.508q.283.078.283.273a.408.408,0,0,1-.264.361,2.835,2.835,0,0,0-.6.645l-.4.537H49.3a2.625,2.625,0,0,0,.576-.039,1.2,1.2,0,0,1,.361-.1q.273,0,.84.518.625.576.625.84a.459.459,0,0,1-.283.4,2.583,2.583,0,0,0-.654.635A26.567,26.567,0,0,1,45.1-6.758H50.24L52.955-6.8q.225,0,.225.2l-.039,2.578v1.846L53.18,1.3a.309.309,0,0,1-.039.2.336.336,0,0,1-.176.029H51.256q-.166,0-.205-.049a.305.305,0,0,1-.029-.176V.4H43.98v1q0,.225-.2.225H42.057q-.156,0-.186-.039a.365.365,0,0,1-.029-.186l.039-3.535V-4.766a38.956,38.956,0,0,1-3.7,1.787,1.565,1.565,0,0,1-.459.156q-.137,0-.4-.518a4.414,4.414,0,0,0-.957-1.279,29.3,29.3,0,0,0,7-3.34,16.75,16.75,0,0,0-2.09-1.855q-.137-.107-.137-.166t.166-.2l1.055-.859a.418.418,0,0,1,.244-.127.582.582,0,0,1,.234.1,19.843,19.843,0,0,1,2.207,1.826,24.53,24.53,0,0,0,3.379-3.447H43.365a23.334,23.334,0,0,1-4.8,3.691,1.043,1.043,0,0,1-.459.2q-.166,0-.42-.459A3.948,3.948,0,0,0,36.656-10.381ZM51.021-4.941H43.98V-1.4h7.041Z" transform="translate(-3428.492 1729.661)" fill="#fff"/>
      <g transform="matrix(1, 0, 0, 1, -3637.46, 1697.66)" filter="url(#加碼抽)">
        <text id="加碼抽-2" data-name="加碼抽" transform="translate(45.84 35)" fill="#fff" font-size="32" font-family="YuGothicUI-Bold, Yu Gothic UI" font-weight="700"><tspan x="0" y="0">通路限定</tspan></text>
      </g>
      <g id="_7-11LOGO" data-name="7-11LOGO" transform="translate(-3651.96 1685.661)">
        <rect id="Rectangle_26" data-name="Rectangle 26" width="35.839" height="35.839" transform="translate(14.5 16)" fill="#fff"/>
        <rect id="Rectangle_27" data-name="Rectangle 27" width="31.455" height="31.257" transform="translate(16.923 18.357)" fill="#008a32"/>
        <path id="Path_628" data-name="Path 628" d="M44.512,40.349s-.372-1.709,1.709-1.709H69.1a1.407,1.407,0,0,1,1.337,1.635c-.148,1.56-2.6,24.369-2.6,24.369s.149,1.411-1.634,1.411H61.45v1.263H53.5V66.006H48.375s-1.783.049-1.783-1.511Z" transform="translate(-24.861 -18.484)" fill="#fff" stroke="#fff" stroke-width="0.576"/>
        <path id="Path_629" data-name="Path 629" d="M134.259,75.947c.891-3.4,4.8-5.126,4.8-5.126V64.477c-4.884,1.966-10,6.048-11.123,11.482" transform="translate(-97.307 -40.914)" fill="#dc000c"/>
        <path id="Path_630" data-name="Path 630" d="M93.113,65.069a28.574,28.574,0,0,0-6.078,4.28,12.246,12.246,0,0,0-1.416,1.692H77.478l-.043-5.875v-.115Z" transform="translate(-53.464 -41.409)" fill="#ed6b00"/>
        <path id="Path_631" data-name="Path 631" d="M71.936,155.777v4.457h2.521v-.947H73.324v-.919H74.4v-.78H73.345v-.808h1.079v-1Z" transform="translate(-48.691 -120.172)" fill="#008a32" stroke="#008a32" stroke-width="0.115"/>
        <path id="Path_632" data-name="Path 632" d="M116.028,155.777v4.457h2.521v-.947h-1.132v-.919h1.078v-.78h-1.057v-.808h1.079v-1Z" transform="translate(-86.967 -120.172)" fill="#008a32" stroke="#008a32" stroke-width="0.115"/>
        <path id="Path_633" data-name="Path 633" d="M164.4,155.777v4.457h2.521v-.947h-1.132v-.919h1.078v-.78h-1.058v-.808h1.079v-1Z" transform="translate(-128.964 -120.172)" fill="#008a32" stroke="#008a32" stroke-width="0.115"/>
        <path id="Path_634" data-name="Path 634" d="M94.59,159.992v-4.46H96V159h1.031v.994Z" transform="translate(-68.357 -119.959)" fill="#008a32" stroke="#008a32" stroke-width="0.115"/>
        <path id="Path_635" data-name="Path 635" d="M137.4,160.557h1.836l.866-4.393h-1L138.509,159l-.417-2.833h-1.31Z" transform="translate(-104.984 -120.509)" fill="#008a32" stroke="#008a32" stroke-width="0.115"/>
        <path id="Path_636" data-name="Path 636" d="M187.744,191.942" transform="translate(-149.225 -151.568)" fill="rgba(0,0,0,0)"/>
        <path id="Path_637" data-name="Path 637" d="M187.377,160.117v-4.351h1.366v.274a1.662,1.662,0,0,1,1.114-.42c.7,0,.975.381.975.659v3.865h-1.348v-3.087c-.011-.471-.741-.334-.741,0v3.061Z" transform="translate(-148.906 -120.036)" fill="#008a32" stroke="#008a32" stroke-width="0.115"/>
        <path id="Path_638" data-name="Path 638" d="M123.588,194.119h-6.64a39.122,39.122,0,0,0-.548,7.587h6.867a61.128,61.128,0,0,1,.321-7.587Z" transform="translate(-87.287 -153.458)" fill="#dc000c" stroke="#dc000c" stroke-width="0.115"/>
        <path id="Path_639" data-name="Path 639" d="M175.991,199.2a.932.932,0,1,0-.932-.932.932.932,0,0,0,.932.932Z" transform="translate(-138.213 -156.245)" fill="#fff" stroke="#008a32" stroke-width="0.75"/>
        <path id="Path_640" data-name="Path 640" d="M178.973,199.707h.407a.311.311,0,0,1,.137.025.182.182,0,0,1,.1.18.192.192,0,0,1-.068.17.326.326,0,0,1-.186.047h-.386Zm0,1.09v-.529h.38a.371.371,0,0,1,.15.023.174.174,0,0,1,.089.162l.01.206a.813.813,0,0,0,.009.1.155.155,0,0,0,.013.041h.2v-.028a.1.1,0,0,1-.054-.075.536.536,0,0,1-.012-.1l-.006-.166a.282.282,0,0,0-.041-.155.249.249,0,0,0-.109-.077.3.3,0,0,0,.174-.3.292.292,0,0,0-.174-.291.571.571,0,0,0-.232-.041H178.8V200.8Z" transform="translate(-141.466 -158.184)" fill="#008a32"/>
      </g>
    </g>
  </g>
</svg>
