<svg xmlns="http://www.w3.org/2000/svg" width="73.58" height="52.906" viewBox="0 0 73.58 52.906">
  <g id="資料寄回閃電" transform="translate(-272.115 -3389.353)">
    <path id="Path_584" data-name="Path 584" d="M25.717.031a1.052,1.052,0,0,1,.72,1.423L24.563,5.987l14.314,5.249a1.052,1.052,0,0,1-.36,2.04l-22.135.047a1,1,0,0,1-.255-.031,1.052,1.052,0,0,1-.75-1.339l1.537-4.841L.877,4.388c-.027,0-.052-.01-.078-.016A1.052,1.052,0,0,1,.953,2.3L25.365,0A1.047,1.047,0,0,1,25.717.031Z" transform="translate(284.51 3432.559) rotate(-106)" fill="#fff" stroke="#004990" stroke-miterlimit="10" stroke-width="2.4"/>
    <path id="Path_585" data-name="Path 585" d="M1.3.031A.981.981,0,0,1,1.5.1L23.665,10.6a1.052,1.052,0,0,1,.18,1.792l-3.926,2.94,9.625,11.825a1.053,1.053,0,0,1-1.069,1.686,1.03,1.03,0,0,1-.283-.116L9.139,17.456a1.052,1.052,0,0,1-.164-1.692l3.793-3.377L.371,1.855A1.052,1.052,0,0,1,1.3.031Z" transform="translate(297.158 3432.894) rotate(-106)" fill="#fff" stroke="#004990" stroke-miterlimit="10" stroke-width="2.4"/>
    <path id="Path_586" data-name="Path 586" d="M2.264.031A1.049,1.049,0,0,1,2.9.488L16.066,21.174a1.052,1.052,0,0,1-.8,1.613l-4.888.4L12.22,38.318a1.052,1.052,0,0,1-1.98.608L.116,19.242a1.052,1.052,0,0,1,.763-1.518l5.009-.837L1.009,1.368A1.051,1.051,0,0,1,2.264.031Z" transform="translate(306.238 3440.759) rotate(-106)" fill="#fff" stroke="#004990" stroke-miterlimit="10" stroke-width="2.4"/>
  </g>
</svg>
