<svg xmlns="http://www.w3.org/2000/svg" xmlns:xlink="http://www.w3.org/1999/xlink" width="360.428" height="144.169" viewBox="0 0 360.428 144.169">
  <defs>
    <clipPath id="clip-path">
      <ellipse id="Ellipse_6" data-name="Ellipse 6" cx="22.846" cy="36.451" rx="22.846" ry="36.451" transform="matrix(0.527, -0.85, 0.85, 0.527, 0, 38.825)" fill="none"/>
    </clipPath>
  </defs>
  <g id="Group_1116" data-name="Group 1116" transform="translate(-4.272 -3606.622)">
    <path id="Path_641" data-name="Path 641" d="M26.89.033a1.1,1.1,0,0,1,.752,1.488L25.683,6.26,40.65,11.748a1.1,1.1,0,0,1-.377,2.133l-23.145.049a1.052,1.052,0,0,1-.266-.032,1.1,1.1,0,0,1-.784-1.4l1.607-5.062L.917,4.588c-.029,0-.055-.01-.081-.017A1.1,1.1,0,0,1,1,2.408L26.522,0A1.1,1.1,0,0,1,26.89.033Z" transform="matrix(-0.342, -0.94, 0.94, -0.342, 301.087, 3651.816)" fill="#fff" stroke="#004990" stroke-miterlimit="10" stroke-width="2.4"/>
    <path id="Path_642" data-name="Path 642" d="M1.363.032A1.023,1.023,0,0,1,1.57.107L24.744,11.079a1.1,1.1,0,0,1,.188,1.874l-4.105,3.074L30.891,28.39a1.1,1.1,0,0,1-1.118,1.763,1.078,1.078,0,0,1-.3-.122L9.555,18.252a1.1,1.1,0,0,1-.172-1.769l3.966-3.531L.388,1.939A1.1,1.1,0,0,1,1.363.032Z" transform="matrix(-0.342, -0.94, 0.94, -0.342, 314.304, 3651.243)" fill="#fff" stroke="#004990" stroke-miterlimit="10" stroke-width="2.4"/>
    <path id="Path_643" data-name="Path 643" d="M2.367.032A1.1,1.1,0,0,1,3.031.51L16.8,22.14a1.1,1.1,0,0,1-.84,1.687l-5.111.415,1.93,15.824a1.1,1.1,0,0,1-2.07.636L.121,20.119a1.1,1.1,0,0,1,.8-1.587l5.237-.876L1.055,1.43A1.1,1.1,0,0,1,2.367.032Z" transform="matrix(-0.342, -0.94, 0.94, -0.342, 324.348, 3658.784)" fill="#fff" stroke="#004990" stroke-miterlimit="10" stroke-width="2.4"/>
    <g id="Group_196" data-name="Group 196" transform="matrix(0.974, -0.225, 0.225, 0.974, 37.931, 3728.126)">
      <g id="Group_158" data-name="Group 158" transform="translate(0 0)">
        <path id="Path_587" data-name="Path 587" d="M54.012,7.057a1.4,1.4,0,0,1-.74.739l-30.138,12.9a1.406,1.406,0,0,1-1.955-1.408l.534-6.536L1.349,11.91A1.406,1.406,0,0,1,.975,9.167L29.132.068A1.406,1.406,0,0,1,30.971,1.4l.021,6.79L52.52,5.11a1.406,1.406,0,0,1,1.492,1.946Z" fill="#ff4398" stroke="#004990" stroke-miterlimit="10" stroke-width="2.4"/>
      </g>
    </g>
    <g id="Group_197" data-name="Group 197" transform="translate(7.623 3617.721)">
      <ellipse id="Ellipse_4" data-name="Ellipse 4" cx="23.295" cy="37.167" rx="23.295" ry="37.167" transform="matrix(0.527, -0.85, 0.85, 0.527, 0, 39.588)" fill="#ff4398" stroke="#004990" stroke-miterlimit="10" stroke-width="4.867"/>
      <ellipse id="Ellipse_5" data-name="Ellipse 5" cx="23.295" cy="37.167" rx="23.295" ry="37.167" transform="matrix(0.527, -0.85, 0.85, 0.527, 0, 39.588)" fill="#ff4398"/>
      <path id="Path_37" data-name="Path 37" d="M396.8,287.139c-7.093-6.586-11.341-14.735-10.571-21.815,1.177-10.819,13.646-15.231,28.319-10.36" transform="translate(-370.542 -236.836)" fill="#ff4398" stroke="#004990" stroke-miterlimit="10" stroke-width="1.715"/>
      <path id="Path_38" data-name="Path 38" d="M458.913,271.862c9.283,6.987,15.193,16.683,14.3,24.929-1.148,10.558-13.048,15.014-27.257,10.7" transform="translate(-401.173 -246.5)" fill="#ff4398" stroke="#004990" stroke-miterlimit="10" stroke-width="1.715"/>
      <path id="Path_39" data-name="Path 39" d="M394.289,270.189c1.062-9.766,12.8-13.476,26.211-8.286a40.933,40.933,0,0,1,17.079,12.4" transform="translate(-374.714 -240.198)" fill="#ff4398" stroke="#004990" stroke-miterlimit="10" stroke-width="1.478"/>
      <path id="Path_40" data-name="Path 40" d="M451.4,318.9c-1.062,9.766-12.8,13.476-26.211,8.286a41.731,41.731,0,0,1-14.234-9.22" transform="translate(-383.25 -270.113)" fill="#ff4398" stroke="#004990" stroke-miterlimit="10" stroke-width="1.478"/>
      <g id="Group_16" data-name="Group 16" transform="translate(0.845 0.759)">
        <g id="Group_15" data-name="Group 15" transform="translate(0 0)" clip-path="url(#clip-path)">
          <path id="Path_41" data-name="Path 41" d="M408.606,226.527s-3.018,4.254,6.5,8.937c0,0,2.887.507.541,4.571-1.128,1.955-.4,4.838,1.32,6.542,1.256,1.247,3.082,3.509,4.861,4.423,0,0,1.368,1.193.233,8.41s9.454,9.706,9.454,9.706,2.464.009-1.3,3.217c0,0-6.032,3.775,1.986,6.976,0,0,12.487,5.442,8.017,6.207a4.758,4.758,0,0,1-1.858-.083c-1.686-.383-3.465-1.7-7.284-1.644a27.9,27.9,0,0,1-8.983-1.282c-3.067-.983-8.218-1.426-4.148,4.436l2.1,4.1,21.248,10.587-1.441-2.382s-11.8-10.156-3.513-9.3c0,0,13.8,2.135,8.712-4.48a9.84,9.84,0,0,0-3.075-2.656c-3.607-1.964-13.771-8.059-7.487-11.294,0,0-4.262-11.561-6.965-14.481,0,0,1.253-8.134-2.87-9.914a6.42,6.42,0,0,1-1.988-1.273c-1.151-1.116-2.175-2.954.545-4.816,4.352-2.979-.53-5.393-1.716-6.272s-4.119-3.995-1.5-4.528l1.225-2.264-11-4.672Z" transform="translate(-382.658 -222.391)" fill="#fff"/>
        </g>
      </g>
      <ellipse id="Ellipse_7" data-name="Ellipse 7" cx="9.906" cy="15.805" rx="9.906" ry="15.805" transform="matrix(0.527, -0.85, 0.85, 0.527, 25.211, 39.474)" fill="#00ff5f" stroke="#00ff5f" stroke-miterlimit="10" stroke-width="1.53"/>
      <ellipse id="Ellipse_8" data-name="Ellipse 8" cx="3.479" cy="5.551" rx="3.479" ry="5.551" transform="matrix(0.527, -0.85, 0.85, 0.527, 37.313, 39.419)" fill="#004990"/>
    </g>
    <g id="Group_198" data-name="Group 198" transform="translate(274.034 3658.784)">
      <g id="Group_25" data-name="Group 25" transform="translate(0 0)">
        <path id="Path_431" data-name="Path 431" d="M621.609,445.867l-32.587-19.309a.553.553,0,0,1-.236-.718l33.427-66.358a.554.554,0,0,1,.716-.238l34.891,14.627a.6.6,0,0,1,.112.043l.033.018.04.018a.606.606,0,0,1,.24.216l13.733,12.294a.543.543,0,0,1,.14.647l-31.6,62.721a.544.544,0,0,1-.616.27l-17.9-4.1a.591.591,0,0,1-.271-.061C621.724,445.934,621.628,445.879,621.609,445.867Z" transform="translate(-588.162 -358.652)" fill="#ff4398"/>
        <g id="Group_24" data-name="Group 24">
          <path id="Path_432" data-name="Path 432" d="M657.141,373.834l-.011.021,13.85,12.4-31.6,62.721-18.017-4.126-.01.019-.058-.034-.018,0,0-.005L588.678,425.5l33.427-66.358L657.062,373.8l0-.005.013.012.063.026m.483-.957c-.025-.013-.052-.025-.078-.036l-.023-.01c-.031-.014-.062-.027-.093-.039l-34.919-14.64a1.108,1.108,0,0,0-1.434.475l-33.427,66.358a1.107,1.107,0,0,0,.473,1.436l32.517,19.267a1.244,1.244,0,0,0,.166.1l.029.014.043.023a1.23,1.23,0,0,0,.5.13l17.806,4.077a1.09,1.09,0,0,0,1.233-.54l31.6-62.721a1.086,1.086,0,0,0-.279-1.294l-13.682-12.249a1.215,1.215,0,0,0-.425-.353Z" transform="translate(-587.541 -358.056)" fill="#004990"/>
        </g>
      </g>
      <g id="Group_27" data-name="Group 27" transform="translate(34.398 15.804)">
        <path id="Path_433" data-name="Path 433" d="M660.249,463.238a.266.266,0,0,1-.121-.123.269.269,0,0,1,0-.237l35.783-71.034a.268.268,0,0,1,.36-.119.275.275,0,0,1,.062.043l12.8,11.893a.269.269,0,0,1,.057.317l-31.6,62.721a.267.267,0,0,1-.295.141l-16.982-3.581A.258.258,0,0,1,660.249,463.238Z" transform="translate(-659.833 -391.429)" fill="#ff4398"/>
        <g id="Group_26" data-name="Group 26" transform="translate(0 0)">
          <path id="Path_434" data-name="Path 434" d="M695.859,391.672l12.795,11.893-31.595,62.721-16.982-3.581,35.782-71.034m.241-.479a.536.536,0,0,0-.72.238L659.6,462.464a.536.536,0,0,0,.238.72.547.547,0,0,0,.13.046l16.982,3.58a.536.536,0,0,0,.59-.283l31.6-62.721a.537.537,0,0,0-.114-.634l-12.795-11.893a.547.547,0,0,0-.124-.086Z" transform="translate(-659.54 -391.136)" fill="#004990"/>
        </g>
      </g>
      <g id="Group_43" data-name="Group 43" transform="translate(27.507 7.881)">
        <g id="Group_29" data-name="Group 29" transform="translate(2.598 1.775)">
          <path id="Path_435" data-name="Path 435" d="M657.411,406.136c-6.109-3.077-8.122-11.45-4.488-18.664s11.561-10.58,17.67-7.5l.921.464c6.109,3.077,8.122,11.45,4.488,18.665s-11.561,10.58-17.669,7.5Z" transform="translate(-650.846 -378.56)" fill="#005bb7"/>
          <g id="Group_28" data-name="Group 28">
            <path id="Path_436" data-name="Path 436" d="M671.1,380.379c5.987,3.016,7.943,11.211,4.369,18.3s-11.323,10.4-17.309,7.384l-.921-.464c-5.986-3.016-7.942-11.211-4.369-18.3s11.323-10.4,17.309-7.384l.921.464m.241-.479-.921-.464c-6.241-3.144-14.329.275-18.029,7.622s-1.634,15.881,4.606,19.024l.921.464c6.241,3.144,14.329-.275,18.03-7.622s1.634-15.881-4.607-19.024Z" transform="translate(-650.554 -378.268)" fill="#004990"/>
          </g>
        </g>
        <g id="Group_32" data-name="Group 32" transform="translate(2.812 1.989)">
          <g id="Group_31" data-name="Group 31">
            <path id="Path_437" data-name="Path 437" d="M657.576,406.157c-6.056-3.051-8.048-11.359-4.44-18.52s11.469-10.506,17.525-7.456,8.048,11.359,4.44,18.52S663.632,409.207,657.576,406.157Z" transform="translate(-651.177 -378.891)" fill="#005bb7"/>
            <g id="Group_30" data-name="Group 30">
              <path id="Path_438" data-name="Path 438" d="M670.414,380.149c5.986,3.016,7.942,11.211,4.369,18.3s-11.323,10.4-17.31,7.384-7.942-11.211-4.369-18.3,11.323-10.4,17.31-7.384m.144-.287c-6.135-3.091-14.094.286-17.741,7.526s-1.624,15.646,4.511,18.736,14.094-.286,17.742-7.526,1.623-15.646-4.512-18.736Z" transform="translate(-651.002 -378.716)" fill="#004990"/>
            </g>
          </g>
        </g>
        <g id="Group_34" data-name="Group 34" transform="translate(3.698 3.4)">
          <path id="Path_439" data-name="Path 439" d="M658.81,405.716c-5.239-2.64-6.959-9.836-3.832-16.043s9.933-9.108,15.172-6.469l.921.464c5.24,2.64,6.959,9.836,3.833,16.042s-9.933,9.108-15.173,6.469Z" transform="translate(-653.149 -381.961)" fill="#005bb7"/>
          <g id="Group_33" data-name="Group 33">
            <path id="Path_440" data-name="Path 440" d="M670.657,383.615c5.116,2.577,6.778,9.6,3.713,15.683s-9.7,8.927-14.812,6.35l-.921-.464c-5.116-2.577-6.778-9.6-3.714-15.683s9.7-8.927,14.812-6.35l.921.464m.241-.479-.921-.464c-5.371-2.706-12.339.249-15.532,6.588s-1.421,13.7,3.951,16.4l.921.464c5.372,2.706,12.339-.249,15.533-6.588s1.42-13.7-3.951-16.4Z" transform="translate(-652.856 -381.669)" fill="#004990"/>
          </g>
        </g>
        <g id="Group_37" data-name="Group 37" transform="translate(0 0)">
          <g id="Group_36" data-name="Group 36" transform="translate(0 0)">
            <ellipse id="Ellipse_16" data-name="Ellipse 16" cx="12.496" cy="10.532" rx="12.496" ry="10.532" transform="matrix(0.45, -0.893, 0.893, 0.45, 0, 22.32)" fill="#00ff5f"/>
            <g id="Group_35" data-name="Group 35" transform="translate(3.912 3.614)">
              <path id="Path_441" data-name="Path 441" d="M669.97,383.385c5.116,2.577,6.779,9.6,3.714,15.683s-9.7,8.927-14.812,6.35-6.778-9.6-3.714-15.683,9.7-8.927,14.812-6.35m.145-.288c-5.266-2.652-12.1.26-15.244,6.493s-1.41,13.462,3.856,16.114,12.1-.26,15.244-6.493,1.41-13.462-3.856-16.115Z" transform="translate(-653.304 -382.117)" fill="#004990"/>
            </g>
          </g>
        </g>
        <g id="Group_39" data-name="Group 39" transform="translate(6.004 6.828)">
          <path id="Path_442" data-name="Path 442" d="M662.943,405.968c-.094-.047-.182-.1-.27-.153l-.1-.061-.079-.03c-.1-.039-.191-.079-.284-.126-3.765-1.9-5.081-6.908-2.933-11.171s6.958-6.188,10.723-4.292c.092.047.18.1.267.151l.1.063.083.032c.094.039.188.078.28.125,3.765,1.9,5.081,6.908,2.934,11.171S666.708,407.865,662.943,405.968Z" transform="translate(-657.976 -389.137)" fill="#005bb7"/>
          <g id="Group_38" data-name="Group 38">
            <path id="Path_443" data-name="Path 443" d="M670.319,390.453c3.639,1.833,4.9,6.673,2.814,10.81s-6.723,6.006-10.362,4.173c-.124-.063-.238-.137-.356-.206-.127-.054-.254-.1-.378-.164-3.639-1.833-4.9-6.673-2.815-10.81s6.724-6.006,10.362-4.173c.124.063.238.137.357.206.126.054.254.1.378.164m.241-.479c-.106-.053-.205-.094-.3-.134l-.075-.031-.07-.042c-.089-.054-.182-.11-.288-.163-3.9-1.963-8.869.015-11.082,4.411s-.845,9.568,3.052,11.531c.105.053.205.094.3.134l.075.031.07.042c.09.054.182.11.288.163,3.9,1.963,8.869-.015,11.083-4.411s.845-9.568-3.052-11.531Z" transform="translate(-657.684 -388.845)" fill="#004990"/>
          </g>
        </g>
        <g id="Group_42" data-name="Group 42" transform="translate(6.952 7.412)">
          <g id="Group_41" data-name="Group 41" transform="translate(0 0)">
            <path id="Path_444" data-name="Path 444" d="M663.912,406.394c-3.712-1.87-5.007-6.817-2.886-11.027s6.866-6.114,10.578-4.244,5.007,6.816,2.886,11.027S667.624,408.264,663.912,406.394Z" transform="translate(-659.845 -390.243)" fill="#005bb7"/>
            <g id="Group_40" data-name="Group 40">
              <path id="Path_445" data-name="Path 445" d="M671.356,391.091c3.639,1.833,4.9,6.673,2.814,10.81s-6.723,6.006-10.362,4.173-4.9-6.673-2.814-10.811,6.724-6.006,10.362-4.173m.145-.288c-3.791-1.91-8.634.026-10.795,4.315s-.834,9.333,2.957,11.243,8.634-.026,10.795-4.316.834-9.333-2.957-11.243Z" transform="translate(-659.669 -390.068)" fill="#004990"/>
            </g>
          </g>
        </g>
      </g>
      <g id="Group_53" data-name="Group 53" transform="translate(3.454 31.688)">
        <g id="Group_45" data-name="Group 45" transform="translate(5.929 5.471)">
          <path id="Path_446" data-name="Path 446" d="M616.072,472.63c-8.09-4.075-10.747-15.179-5.925-24.754s15.328-14.048,23.418-9.973l.857.431c8.09,4.075,10.747,15.179,5.924,24.754s-15.328,14.048-23.417,9.973Z" transform="translate(-607.474 -436.129)" fill="#005bb7"/>
          <g id="Group_44" data-name="Group 44">
            <path id="Path_447" data-name="Path 447" d="M634.009,438.282c7.97,4.015,10.57,14.936,5.806,24.394s-15.087,13.87-23.058,9.855l-.857-.431c-7.97-4.015-10.569-14.936-5.805-24.394s15.087-13.869,23.058-9.855l.856.431m.241-.479-.856-.431c-8.222-4.142-18.888.386-23.778,10.092s-2.179,20.972,6.043,25.114l.857.431c8.222,4.142,18.888-.386,23.778-10.092s2.179-20.972-6.043-25.114Z" transform="translate(-607.182 -435.836)" fill="#004990"/>
          </g>
        </g>
        <g id="Group_48" data-name="Group 48" transform="translate(0 0)">
          <g id="Group_47" data-name="Group 47" transform="translate(0)">
            <ellipse id="Ellipse_17" data-name="Ellipse 17" cx="19.335" cy="16.32" rx="19.335" ry="16.32" transform="matrix(0.45, -0.893, 0.893, 0.45, 0, 34.536)" fill="#005bb7"/>
            <g id="Group_46" data-name="Group 46" transform="translate(6.143 5.685)">
              <path id="Path_448" data-name="Path 448" d="M633.386,438.084c7.97,4.015,10.569,14.936,5.805,24.394s-15.087,13.87-23.058,9.854-10.569-14.936-5.805-24.394,15.087-13.869,23.058-9.854m.145-.287c-8.116-4.089-18.654.4-23.49,10s-2.168,20.738,5.948,24.826,18.653-.4,23.49-10,2.168-20.738-5.948-24.826Z" transform="translate(-607.63 -436.284)" fill="#004990"/>
            </g>
          </g>
        </g>
        <g id="Group_51" data-name="Group 51" transform="translate(7.785 7.826)">
          <g id="Group_50" data-name="Group 50" transform="translate(0)">
            <path id="Path_449" data-name="Path 449" d="M618.864,472.748c-7.181-3.617-9.6-13.354-5.394-21.7s13.471-12.2,20.652-8.584,9.6,13.354,5.395,21.7S626.045,476.365,618.864,472.748Z" transform="translate(-611.242 -440.939)" fill="#005bb7"/>
            <g id="Group_49" data-name="Group 49">
              <path id="Path_450" data-name="Path 450" d="M633.874,442.427c7.113,3.584,9.5,13.2,5.323,21.489s-13.323,12.1-20.436,8.513-9.5-13.2-5.323-21.489,13.323-12.1,20.436-8.513m.145-.287c-7.26-3.657-16.622.225-20.868,8.655s-1.794,18.263,5.466,21.921,16.621-.225,20.868-8.655,1.794-18.263-5.466-21.921Z" transform="translate(-611.067 -440.764)" fill="#004990"/>
            </g>
          </g>
        </g>
        <g id="Group_52" data-name="Group 52" transform="translate(3.385 3.92)">
          <ellipse id="Ellipse_18" data-name="Ellipse 18" cx="16.012" cy="13.917" rx="16.012" ry="13.917" transform="translate(0 28.6) rotate(-63.264)" fill="#00ff5f"/>
          <path id="Path_451" data-name="Path 451" d="M634.2,444.229c6.775,3.413,9.086,12.539,5.154,20.345s-12.642,11.38-19.416,7.968S610.857,460,614.789,452.2s12.642-11.38,19.416-7.968m.145-.287c-6.932-3.492-15.836.146-19.848,8.11s-1.636,17.284,5.3,20.777,15.836-.146,19.848-8.11,1.636-17.285-5.3-20.777Z" transform="translate(-607.442 -437.825)" fill="#004990"/>
        </g>
        <path id="Path_452" data-name="Path 452" d="M645.338,466.412c2.44,1.229,3.211,4.621,1.722,7.576s-4.673,4.355-7.113,3.125-3.211-4.621-1.722-7.576,4.673-4.354,7.113-3.125m.145-.287c-2.594-1.307-5.979.159-7.545,3.268s-.729,6.7,1.865,8.008,5.979-.16,7.545-3.268.729-6.7-1.865-8.008Z" transform="translate(-616.903 -445.933)" fill="#004990"/>
      </g>
      <path id="Path_453" data-name="Path 453" d="M732.017,393.814a1.919,1.919,0,0,1,2.418-.663c-.666-.82-1.57-1.729-2.6-1.491a2.4,2.4,0,0,1-.218,2.585" transform="translate(-662.786 -375.586)" fill="none" stroke="#004990" stroke-linecap="round" stroke-linejoin="round" stroke-miterlimit="10" stroke-width="2.79"/>
      <path id="Path_454" data-name="Path 454" d="M656.816,536.03a3.2,3.2,0,0,0,3.556-1.978,6.187,6.187,0,0,0-.3,1.824,2.086,2.086,0,0,0,.764,1.62l-2.447-.861.133.137" transform="translate(-623.72 -449.97)" fill="none" stroke="#004990" stroke-linecap="round" stroke-linejoin="round" stroke-miterlimit="10" stroke-width="2.79"/>
      <path id="Path_455" data-name="Path 455" d="M750.994,415.6l1.577,1.023a.642.642,0,0,1,.228,1.053q-1.676,3.107-3.4,6.186" transform="translate(-672.069 -388.107)" fill="none" stroke="#004990" stroke-linecap="round" stroke-miterlimit="10" stroke-width="1.79"/>
      <path id="Path_456" data-name="Path 456" d="M745.55,440.409" transform="translate(-670.061 -401.065)" fill="none" stroke="#004990" stroke-miterlimit="10" stroke-width="0.792"/>
      <path id="Path_457" data-name="Path 457" d="M728.441,448.657q-6.2,12.544-12.619,24.975" transform="translate(-654.536 -405.373)" fill="none" stroke="#004990" stroke-linecap="round" stroke-miterlimit="10" stroke-width="1.79"/>
      <path id="Path_458" data-name="Path 458" d="M676.014,514.465a98.985,98.985,0,0,0-4.573,9.237,1.476,1.476,0,0,0-.146,1.189,1.441,1.441,0,0,0,1.029.622,22.955,22.955,0,0,0,5.908.67" transform="translate(-631.241 -439.741)" fill="none" stroke="#004990" stroke-linecap="round" stroke-miterlimit="10" stroke-width="1.79"/>
      <path id="Path_459" data-name="Path 459" d="M603.828,475.951a13.932,13.932,0,0,0,.541,8.9" transform="translate(-595.792 -419.627)" fill="none" stroke="#004990" stroke-linecap="round" stroke-miterlimit="10" stroke-width="1.79"/>
      <path id="Path_460" data-name="Path 460" d="M607.456,498.384l-.03.128" transform="translate(-597.926 -431.343)" fill="none" stroke="#004990" stroke-linecap="round" stroke-miterlimit="10" stroke-width="1.79"/>
      <path id="Path_461" data-name="Path 461" d="M690.545,429.8a15.617,15.617,0,0,0,8.763-9.776" transform="translate(-641.335 -390.421)" fill="none" stroke="#004990" stroke-linecap="round" stroke-miterlimit="10" stroke-width="1.79"/>
      <path id="Path_462" data-name="Path 462" d="M662.086,390.117a8.556,8.556,0,0,1,7.815-3.741" transform="translate(-626.472 -372.827)" fill="none" stroke="#fff" stroke-linecap="round" stroke-miterlimit="10" stroke-width="3.79"/>
      <path id="Path_463" data-name="Path 463" d="M657.862,402.537" transform="translate(-624.266 -381.286)" fill="none" stroke="#fff" stroke-miterlimit="10" stroke-width="0.792"/>
      <path id="Path_464" data-name="Path 464" d="M616.705,455.219a14.258,14.258,0,0,1,12.333-9.914" transform="translate(-602.772 -403.622)" fill="none" stroke="#fff" stroke-linecap="round" stroke-miterlimit="10" stroke-width="3.79"/>
      <path id="Path_465" data-name="Path 465" d="M640.109,444.474" transform="translate(-614.995 -403.188)" fill="none" stroke="#fff" stroke-miterlimit="10" stroke-width="0.792"/>
      <path id="Path_466" data-name="Path 466" d="M617.275,479.478l-.047.2" transform="translate(-603.045 -421.469)" fill="none" stroke="#fff" stroke-miterlimit="10" stroke-width="0.792"/>
      <g id="Group_54" data-name="Group 54" transform="translate(23.106 9.143)">
        <path id="Path_467" data-name="Path 467" d="M648.714,377.193q-3.9,7.866-8.242,15.5" transform="translate(-638.291 -377.193)" fill="none" stroke="#fff" stroke-linecap="round" stroke-miterlimit="10" stroke-width="3.79"/>
        <path id="Path_468" data-name="Path 468" d="M635.906,420.572" transform="translate(-635.906 -399.848)" fill="none" stroke="#fff" stroke-linecap="round" stroke-miterlimit="10" stroke-width="3.79"/>
      </g>
      <path id="Path_469" data-name="Path 469" d="M683.383,443.052h0" transform="translate(-637.579 -402.445)" fill="none" stroke="#004990" stroke-linecap="round" stroke-miterlimit="10" stroke-width="1.79"/>
      <path id="Path_470" data-name="Path 470" d="M642.662,512.112a14.263,14.263,0,0,0,14.554-8.117" transform="translate(-616.328 -434.273)" fill="none" stroke="#004990" stroke-linecap="round" stroke-miterlimit="10" stroke-width="1.79"/>
    </g>
  </g>
</svg>
