<svg xmlns="http://www.w3.org/2000/svg" xmlns:xlink="http://www.w3.org/1999/xlink" width="56" height="65" viewBox="0 0 56 65">
  <defs>
    <clipPath id="clip-path">
      <ellipse id="Ellipse_6" data-name="Ellipse 6" cx="24.387" cy="38.91" rx="24.387" ry="38.91" transform="matrix(0.527, -0.85, 0.85, 0.527, 0, 41.445)" fill="none"/>
    </clipPath>
    <clipPath id="clip-bg-cd">
      <rect width="56" height="65"/>
    </clipPath>
  </defs>
  <g id="bg-cd" clip-path="url(#clip-bg-cd)">
    <g id="BG左邊" transform="translate(-29.823 -12.547)">
      <ellipse id="Ellipse_4" data-name="Ellipse 4" cx="24.866" cy="39.675" rx="24.866" ry="39.675" transform="matrix(0.527, -0.85, 0.85, 0.527, 0, 42.259)" fill="#ff4398" stroke="#004990" stroke-miterlimit="10" stroke-width="4.867"/>
      <ellipse id="Ellipse_5" data-name="Ellipse 5" cx="24.866" cy="39.675" rx="24.866" ry="39.675" transform="matrix(0.527, -0.85, 0.85, 0.527, 0, 42.259)" fill="#ff4398"/>
      <path id="Path_37" data-name="Path 37" d="M397.523,289.443c-7.571-7.03-12.106-15.729-11.284-23.287,1.256-11.549,14.566-16.258,30.229-11.059" transform="translate(-369.489 -235.746)" fill="#ff4398" stroke="#004990" stroke-miterlimit="10" stroke-width="1.715"/>
      <path id="Path_38" data-name="Path 38" d="M459.787,271.862c9.91,7.459,16.218,17.808,15.26,26.61-1.226,11.27-13.929,16.026-29.1,11.42" transform="translate(-398.152 -244.789)" fill="#ff4398" stroke="#004990" stroke-miterlimit="10" stroke-width="1.715"/>
      <path id="Path_39" data-name="Path 39" d="M394.289,270.907c1.134-10.425,13.661-14.385,27.979-8.845A43.694,43.694,0,0,1,440.5,275.3" transform="translate(-373.393 -238.892)" fill="#ff4398" stroke="#004990" stroke-miterlimit="10" stroke-width="1.478"/>
      <path id="Path_40" data-name="Path 40" d="M454.13,318.963c-1.134,10.425-13.661,14.385-27.979,8.845a44.547,44.547,0,0,1-15.194-9.842" transform="translate(-381.38 -266.884)" fill="#ff4398" stroke="#004990" stroke-miterlimit="10" stroke-width="1.478"/>
      <g id="Group_16" data-name="Group 16" transform="translate(0.902 0.81)">
        <g id="Group_15" data-name="Group 15" transform="translate(0 0)" clip-path="url(#clip-path)">
          <path id="Path_41" data-name="Path 41" d="M408.636,226.745s-3.222,4.541,6.934,9.54c0,0,3.082.541.578,4.879-1.2,2.087-.422,5.164,1.409,6.983,1.34,1.331,3.29,3.746,5.189,4.721,0,0,1.46,1.273.249,8.978s10.091,10.361,10.091,10.361,2.63.009-1.39,3.434c0,0-6.439,4.03,2.12,7.446,0,0,13.33,5.81,8.558,6.626a5.079,5.079,0,0,1-1.983-.089c-1.8-.409-3.7-1.814-7.776-1.754a29.781,29.781,0,0,1-9.589-1.369c-3.274-1.049-8.773-1.523-4.428,4.736l2.243,4.379,22.682,11.3-1.538-2.543s-12.6-10.841-3.75-9.924c0,0,14.734,2.279,9.3-4.782a10.5,10.5,0,0,0-3.282-2.836c-3.85-2.1-14.7-8.6-7.992-12.056,0,0-4.549-12.34-7.435-15.458,0,0,1.338-8.683-3.063-10.582a6.853,6.853,0,0,1-2.123-1.359c-1.228-1.191-2.322-3.154.582-5.14,4.646-3.18-.566-5.756-1.831-6.695s-4.4-4.264-1.6-4.833l1.308-2.416-11.741-4.987Z" transform="translate(-380.938 -222.329)" fill="#fff"/>
        </g>
      </g>
      <ellipse id="Ellipse_7" data-name="Ellipse 7" cx="10.574" cy="16.871" rx="10.574" ry="16.871" transform="matrix(0.527, -0.85, 0.85, 0.527, 26.912, 42.137)" fill="#00ff5f" stroke="#00ff5f" stroke-miterlimit="10" stroke-width="1.53"/>
      <ellipse id="Ellipse_8" data-name="Ellipse 8" cx="3.714" cy="5.925" rx="3.714" ry="5.925" transform="matrix(0.527, -0.85, 0.85, 0.527, 39.83, 42.079)" fill="#004990"/>
    </g>
  </g>
</svg>
