<svg xmlns="http://www.w3.org/2000/svg" xmlns:xlink="http://www.w3.org/1999/xlink" width="65" height="58" viewBox="0 0 65 58">
  <defs>
    <clipPath id="clip-bg-geometry-2">
      <rect width="65" height="58"/>
    </clipPath>
  </defs>
  <g id="bg-geometry-2" clip-path="url(#clip-bg-geometry-2)">
    <g id="活動辦法左下" transform="translate(-0.068 -3504.768)">
      <path id="路径_711" data-name="路径 711" d="M1474.47,516.744l3.3,24.339,91.161-52.5,3.373-9.933Z" transform="translate(-1513.402 3042.667)" fill="#004990"/>
      <g id="组_874" data-name="组 874" transform="translate(-0.847 3506.767)">
        <g id="组_158" data-name="组 158">
          <path id="路径_587" data-name="路径 587" d="M1559.94,488.707a1.55,1.55,0,0,1-.817.816l-33.269,14.235a1.552,1.552,0,0,1-2.158-1.554l.589-7.214-22.48-.925a1.552,1.552,0,0,1-.413-3.028l31.083-10.044a1.552,1.552,0,0,1,2.03,1.473l.023,7.5,23.764-3.4a1.553,1.553,0,0,1,1.647,2.149Z" transform="translate(-1500.314 -480.917)" fill="#ff4398" stroke="#004990" stroke-width="2.4"/>
        </g>
      </g>
    </g>
  </g>
</svg>
