<svg xmlns="http://www.w3.org/2000/svg" xmlns:xlink="http://www.w3.org/1999/xlink" width="377" height="558" viewBox="0 0 377 558">
  <defs>
    <clipPath id="clip-Artboard_1">
      <rect width="377" height="558"/>
    </clipPath>
  </defs>
  <g id="Artboard_1" data-name="Artboard – 1" clip-path="url(#clip-Artboard_1)">
    <path id="Path_658" data-name="Path 658" d="M4065.71,775.191c-.169.413-.344.807-.516,1.178h3.31l-1.057,6.762h-1.314l.1-.621h-4.571l-.1.621h-1.252l1.058-6.762h2.524c.131-.372.255-.775.37-1.178h-3.744l.188-1.2h9.092l-.187,1.2Zm.7,6.183.218-1.4h-4.572l-.219,1.4Zm.6-3.868h-4.571l-.212,1.355h4.572Z" transform="translate(-3798.844 -526.008)" fill="#fff"/>
    <path id="Path_659" data-name="Path 659" d="M4088.26,779.775h-1.075l-.282,1.8h-1.252l.066-.424h-1.862l-.05.32c-.1.611-.279.859-.709,1.035a5.752,5.752,0,0,1-1.859.174,3.294,3.294,0,0,0-.251-.971c.494.022,1.1.022,1.269.022.2-.011.27-.074.3-.26l.05-.32h-3.145l.139-.89h3.145l.076-.485h-4.1l.147-.94h4.1l.069-.445h-3.062l.129-.827h3.062l.071-.455h-2.8l.32-2.047h2.8l.066-.424h-3.858l.152-.972h3.858l.1-.673h1.25l-.1.673h3.951l-.152.972h-3.951l-.066.424h2.938l-.32,2.047h-2.938l-.072.455h3.114l-.2,1.273h1.075Zm-4.9-3.443.077-.5h-1.624l-.078.5Zm2.575,3.443h-1.862l-.077.485h1.862Zm-1.715-.94h1.862l.07-.445h-1.862Zm.468-3-.077.5h1.675l.078-.5Z" transform="translate(-3807.718 -525.526)" fill="#fff"/>
    <path id="Path_660" data-name="Path 660" d="M4109.69,775.572h-1.19l-.963,6.161c-.117.744-.349,1.106-.868,1.313a7.357,7.357,0,0,1-2.375.227,4.913,4.913,0,0,0-.3-1.3c.728.042,1.629.031,1.877.031s.343-.072.376-.289l.961-6.141h-6.836l.193-1.241h9.319Zm-7.975,5.158-.123.786h-1.2l.749-4.787h4.386l-.626,4Zm.443-2.833-.258,1.655h1.965l.259-1.655Z" transform="translate(-3818.151 -526.171)" fill="#fff"/>
    <path id="Path_661" data-name="Path 661" d="M4124.45,779.616a10.83,10.83,0,0,0,3.268,1.663,5.935,5.935,0,0,0-.974,1,10.468,10.468,0,0,1-3.124-2.057l-.362,2.325h-1.231l.363-2.315a13.04,13.04,0,0,1-3.813,2.088,4.658,4.658,0,0,0-.658-1.013,12.517,12.517,0,0,0,3.792-1.7h-3.321l.158-1.014h4.1l.079-.507h1.231l-.08.507h4l-.159,1.014Zm-3.485-1.386a4.812,4.812,0,0,0,.014-.486,1.145,1.145,0,0,1-2.22-.559,1.767,1.767,0,0,0,.758-.548c.111-.115.359-.382.662-.724a3.347,3.347,0,0,0-.9.185,8.008,8.008,0,0,0-.18-.91,1.085,1.085,0,0,0,.5-.4,10.169,10.169,0,0,0,1.115-1.85l.9.331a12.855,12.855,0,0,1-1.255,1.809l.526-.051c.222-.3.45-.631.645-.952l.789.508a18.91,18.91,0,0,1-2.175,2.47l.819-.082c-.006-.228-.014-.445-.034-.641l.8-.185a14.137,14.137,0,0,1,.077,1.891Zm3.84-.352H4121.9l.635-4.053h.827a6.823,6.823,0,0,0,.328-.972l1.088.187-.454.785h1.117Zm-.831-1.623h-.776l-.113.724h.776Zm.239-1.531h-.776l-.108.693h.776Zm2.986,3.588a4.426,4.426,0,0,0,.007-.444,7.925,7.925,0,0,0-2.059.331,6.412,6.412,0,0,0-.161-.952,2.066,2.066,0,0,0,.74-.558c.124-.124.381-.393.676-.755a2.99,2.99,0,0,0-1.007.227,8.938,8.938,0,0,0-.166-.929,1.067,1.067,0,0,0,.479-.424,9.491,9.491,0,0,0,1.11-1.872l.927.289a12.86,12.86,0,0,1-1.25,1.851l.647-.042c.2-.289.415-.6.6-.888l.778.516a20,20,0,0,1-2.187,2.482l.829-.073c-.007-.217-.026-.424-.05-.61l.8-.2a15.509,15.509,0,0,1,.147,1.83Z" transform="translate(-3826.611 -525.459)" fill="#fff"/>
    <path id="Path_662" data-name="Path 662" d="M4143.42,773.527a20.106,20.106,0,0,1-1.259,1.9l-1.138,7.268h-1.283l.85-5.428a12.2,12.2,0,0,1-1.258,1.158,6.568,6.568,0,0,0-.487-1.251,13.522,13.522,0,0,0,3.455-4.032Zm2.249,3.743c-.069,2.3.24,3.825,1.05,3.929.235.021.439-.5.7-1.645a3.377,3.377,0,0,0,.894.7c-.569,2-1.2,2.471-1.777,2.44-1.721-.166-2.235-2.109-2.114-5.263l-2.081.28.01-1.189,2.132-.279c.073-.93.171-1.943.308-3.029h1.252c-.138,1.014-.249,1.985-.313,2.865l3.008-.383-.006,1.158Zm2.138-1.83a7.075,7.075,0,0,0-1.146-1.737l1.01-.568a7.4,7.4,0,0,1,1.229,1.664Z" transform="translate(-3836.699 -525.594)" fill="#fff"/>
    <path id="Path_663" data-name="Path 663" d="M4169.58,774.331l-.162,1.034h-9.381l.162-1.034h4.251a5.943,5.943,0,0,0-.493-1.147l1.29-.311a5.512,5.512,0,0,1,.651,1.458Zm-8.839,4.932h6.806l-.516,3.3h-1.273l.053-.33h-4.325l-.056.362h-1.21Zm.388-1.685h6.568l-.15.961h-6.568Zm6.668-.641h-6.568l.15-.962h6.568Zm-6.006,3.349-.145.93h4.323l.146-.93Z" transform="translate(-3846.911 -525.469)" fill="#fff"/>
    <path id="Path_664" data-name="Path 664" d="M4184.6,773.014c-.078.435-.186.992-.324,1.612-.073,1.4-.051,5.293,3.308,6.886a4.136,4.136,0,0,0-1.065,1.065,6.489,6.489,0,0,1-3.278-4.891,10.5,10.5,0,0,1-4.583,4.953,3.146,3.146,0,0,0-.866-1c4.55-2.243,5.077-6.875,5.392-8.622Z" transform="translate(-3855.466 -525.537)" fill="#fff"/>
    <path id="Path_665" data-name="Path 665" d="M4055.78,802.8a4.417,4.417,0,0,1,4.3-4,2.735,2.735,0,0,1,2.216.983l-.97.972a1.7,1.7,0,0,0-1.4-.641,2.75,2.75,0,0,0-2.574,2.636c-.26,1.665.349,2.668,1.848,2.668a1.745,1.745,0,0,0,1.007-.289l.237-1.511h-1.355l.2-1.25H4062l-.54,3.453a4.169,4.169,0,0,1-2.626.92C4056.75,806.74,4055.38,805.354,4055.78,802.8Z" transform="translate(-3796.628 -537.966)" fill="#fff"/>
    <path id="Path_666" data-name="Path 666" d="M4069.59,811.289a1.154,1.154,0,0,1,1.1-.993.8.8,0,0,1,.8.993,1.153,1.153,0,0,1-1.106.992.8.8,0,0,1-.794-.992Z" transform="translate(-3803.311 -543.507)" fill="#fff"/>
    <path id="Path_667" data-name="Path 667" d="M4077.43,799.08h4.7l-.2,1.272h-3.166l-.277,1.767h2.69l-.2,1.283h-2.69l-.321,2.047h3.279l-.2,1.281h-4.809Z" transform="translate(-3806.52 -538.101)" fill="#fff"/>
    <path id="Path_668" data-name="Path 668" d="M4088.36,811.289a1.153,1.153,0,0,1,1.1-.993.8.8,0,0,1,.8.993,1.154,1.154,0,0,1-1.107.992.794.794,0,0,1-.793-.992Z" transform="translate(-3812.355 -543.507)" fill="#fff"/>
    <path id="Path_669" data-name="Path 669" d="M4096.2,799.08h1.7l.744,3.577c.091.476.157.983.234,1.479h.051c.243-.5.458-1,.7-1.479l1.832-3.577h1.7l-1.2,7.65h-1.4l.5-3.2c.113-.724.394-1.789.579-2.512h-.042l-.9,1.8-1.682,3.215h-.879l-.687-3.215-.327-1.8h-.043c-.04.723-.083,1.788-.2,2.512l-.5,3.2H4095Z" transform="translate(-3815.563 -538.101)" fill="#fff"/>
    <path id="Path_670" data-name="Path 670" d="M4111.89,811.289a1.152,1.152,0,0,1,1.1-.993.8.8,0,0,1,.8.993,1.154,1.154,0,0,1-1.106.992.8.8,0,0,1-.792-.992Z" transform="translate(-3823.697 -543.507)" fill="#fff"/>
    <path id="Path_671" data-name="Path 671" d="M4128.69,797.954c-.475.982-1.077,2.191-1.566,3.071a3.236,3.236,0,0,1,.524,2.4,2.02,2.02,0,0,1-.751,1.5,1.691,1.691,0,0,1-.69.248,3.608,3.608,0,0,1-.758.021,2.511,2.511,0,0,0-.114-1.126c.216.01.392.01.526.01a.612.612,0,0,0,.357-.1c.182-.1.271-.352.325-.692a2.805,2.805,0,0,0-.547-2.12c.372-.734.815-1.778,1.155-2.564H4126.1l-1.259,8.053h-1.149l1.121-7.165c-.253.165-.5.331-.736.476.132.352.245.683.326.961l-.773.445-.369,2.357h-1.169l1.021.279c-.17.362-.343.734-.5,1.074l1.031-.112-.133.919c-1.864.217-3.862.424-5.251.579l.017-.971c.376-.031.838-.062,1.32-.115a5.4,5.4,0,0,0-.188-1.374l1.026-.279a4.58,4.58,0,0,1,.27,1.385l-.855.249c.525-.052,1.071-.1,1.64-.166.186-.465.388-1.024.52-1.468h-2.731l.365-2.337c-.187.145-.394.269-.578.393a3.021,3.021,0,0,0-.537-.8,6.12,6.12,0,0,0,1.207-.91,4.991,4.991,0,0,0-.608-.537l.7-.786c.2.134.429.3.622.455a6.237,6.237,0,0,0,.417-.683h-1.324l.157-1h1.769l.182-.041.545.28.8-.414.256.61c.235-.185.475-.393.646-.558l.543.692c-.292.218-.6.434-.862.622l.168.443c.223-.165.436-.331.59-.465l.511.569.278-1.779h2.617l.185-.051Zm-7.884,2.265a7.207,7.207,0,0,1-.928.971h3.434a10.594,10.594,0,0,0-.369-1.147l-.1.61h-2.11Zm1.582,1.85H4120.6l-.122.775h1.789Zm.431-2.357c-.227-.6-.459-1.229-.684-1.777a9.955,9.955,0,0,1-.95,1.777Z" transform="translate(-3826.776 -537.264)" fill="#fff"/>
    <path id="Path_672" data-name="Path 672" d="M4140.99,804.946a11.727,11.727,0,0,1-2.62,1.469,7.456,7.456,0,0,0-.8-.755,9.248,9.248,0,0,0,2.393-1.138Zm4.369-2.677a10.65,10.65,0,0,1,1.823,2.109l-1.172.476a5.318,5.318,0,0,0-.551-.838l-2.271.176-.2,1.262a1.042,1.042,0,0,1-.713.992,5.337,5.337,0,0,1-1.7.165,3.893,3.893,0,0,0-.258-1.055c.472.021,1.063.011,1.207.011s.212-.032.232-.155l.176-1.127a14.339,14.339,0,0,0-3.267.383,8.355,8.355,0,0,0-.156-1.055,6.2,6.2,0,0,0,1.483-.414c.305-.1.887-.32,1.584-.609a10.37,10.37,0,0,0-2.216.279c-.021-.2-.086-.7-.147-.971a4.936,4.936,0,0,0,.909-.259,16.128,16.128,0,0,0,2.219-1.024c-1.472.218-2.953.424-4.051.569l.068-1.1.651-.062.36-2.3h1.085l-.341,2.181.653-.073.448-2.862h1.18l-.146.929h1.242l-.152.972h-1.24l-.129.827,1.316-.145-.128.951-.286.042.555.547c-.429.228-.884.424-1.338.621l1.568-.1c.372-.2.757-.413,1.124-.641l.611.848a26.249,26.249,0,0,1-3.365,1.55l2.746-.166a4.908,4.908,0,0,0-.47-.506Zm-.449-1.427c-1.241,0-1.5-.321-1.334-1.386l.39-2.491h1.22l-.2,1.281a14.292,14.292,0,0,0,2.179-.776l.762.88a19.933,19.933,0,0,1-3.1.888l-.035.218c-.051.332.014.372.439.372h1.231c.33,0,.423-.123.567-.785a2.514,2.514,0,0,0,.994.394c-.307,1.1-.685,1.405-1.6,1.405Zm-.292,3.588a20.6,20.6,0,0,1,2.165,1.3l-1.112.631a15.429,15.429,0,0,0-2.129-1.4Z" transform="translate(-3836.082 -537.082)" fill="#fff"/>
    <path id="Path_673" data-name="Path 673" d="M4160.92,803.054a8.43,8.43,0,0,0-.319-1.127l-.731,4.673h-1.17l.608-3.888a10.6,10.6,0,0,1-1.229,2.037,6.047,6.047,0,0,0-.4-1.24,12.521,12.521,0,0,0,2.006-3.506h-1.23l.177-1.137h1.283l.3-1.923h1.169l-.3,1.923h1.087l-.178,1.137h-1.086l-.047.3c.258.4.841,1.561.974,1.841Zm4.673,1.138a11.307,11.307,0,0,1,1.573,1.716l-1.072.7a10.832,10.832,0,0,0-1.533-1.839l.95-.58h-2.39l.768.518a8.9,8.9,0,0,1-2.363,1.943,3.719,3.719,0,0,0-.651-.857,7.659,7.659,0,0,0,2.04-1.6h-1.6l.171-1.1h1.055l.581-3.713h-.837l.172-1.1h.837l.209-1.345h1.159l-.21,1.345h1.676l.209-1.345h1.179l-.21,1.345h.89l-.172,1.1h-.89l-.58,3.713h.993l-.171,1.1Zm-1.9-1.1h1.676l.1-.621H4163.8Zm.244-1.561h1.675l.1-.611h-1.675Zm.336-2.151-.093.6h1.675l.094-.6Z" transform="translate(-3845.774 -537.071)" fill="#fff"/>
    <path id="Path_674" data-name="Path 674" d="M4184.21,875.646a.643.643,0,0,0-.12.062.272.272,0,0,1-.373.024.438.438,0,0,1-.142-.5.688.688,0,0,1,.164-.214c.116-.11.236-.087.342.049.041.052.087.1.13.151Z" transform="translate(-3858.245 -574.671)" fill="#fff" stroke="#fff" stroke-miterlimit="10" stroke-width="0.104"/>
    <path id="Path_675" data-name="Path 675" d="M4072.55,844.231a2.54,2.54,0,0,0-1.351.557,11.06,11.06,0,0,0-.851.839c-.486.571-.966,1.148-1.4,1.758-.055.077-.107.154-.158.233-.432.67-.875,1.333-1.292,2.012-.393.639-.81,1.261-1.216,1.891a21.445,21.445,0,0,0-1.239,2.125c-.352.715-.741,1.41-1.105,2.119-.235.458-.473.917-.678,1.39-.456,1.053-.905,2.11-1.331,3.176-.312.783-.6,1.577-.868,2.376-.2.6-.35,1.215-.52,1.824-.031.113-.047.231-.087.34-.374,1.016-.5,2.094-.78,3.134-.109.407-.177.825-.263,1.238a5.362,5.362,0,0,0-.177,1.038.889.889,0,0,1-.029.209,20.118,20.118,0,0,0-.339,2.293c-.034.279-.084.556-.125.834a2.464,2.464,0,0,0-.039.349,7.743,7.743,0,0,1-.1,1.046c-.064.463-.044.936-.066,1.4-.015.327-.037.655-.054.982a1.835,1.835,0,0,0,0,.279c.063.631.081,1.263.09,1.9a3.741,3.741,0,0,0,.11.831c.11.455.181.918.291,1.375a2.938,2.938,0,0,0,.657,1.226,1.989,1.989,0,0,0,1.024.583,1.5,1.5,0,0,0,.9.064,1.268,1.268,0,0,1,.35-.009,1.264,1.264,0,0,0,.734-.2.522.522,0,0,1,.186-.1,4.134,4.134,0,0,0,1.065-.52,10.377,10.377,0,0,0,1.908-1.309c.25-.212.508-.416.771-.612a2.289,2.289,0,0,0,.552-.535.96.96,0,0,1,.194-.2,10.858,10.858,0,0,0,1.215-1.269c.093-.1.18-.217.279-.316.712-.715,1.325-1.517,1.982-2.281.55-.639,1.063-1.312,1.574-1.983.312-.41.6-.838.88-1.271.38-.591.789-1.163,1.136-1.776.184-.325.422-.617.632-.928.406-.6.814-1.2,1.209-1.813.216-.334.407-.684.61-1.027a1.74,1.74,0,0,1,.151-.237,17.814,17.814,0,0,0,1.272-1.935c.1-.158.214-.308.321-.462.227-.327.453-.654.676-.984.158-.233.312-.467.463-.7.075-.118.141-.242.21-.364s.134-.247.208-.366c.187-.3.386-.587.566-.889a5.518,5.518,0,0,1,.476-.7,6.1,6.1,0,0,0,.654-1.081,2.728,2.728,0,0,1,.228-.352.262.262,0,0,1,.469.2c-.042.182-.1.362-.137.546a.978.978,0,0,0,.02.621.153.153,0,0,0,.1.077.146.146,0,0,0,.111-.058.568.568,0,0,0,.091-.189c.106-.432.265-.849.347-1.289a8.987,8.987,0,0,1,.264-.873c.133-.449.275-.9.386-1.351a4,4,0,0,1,.344-.992,1.388,1.388,0,0,0,.112-.257c.247-.808.639-1.558.926-2.35a2.165,2.165,0,0,1,.165-.387c.293-.482.508-1,.772-1.5q.149-.279.317-.547a6.37,6.37,0,0,0,.4-.737,3.135,3.135,0,0,1,.955-1.2c.056-.043.114-.083.173-.12a.585.585,0,0,1,.91.317,2.873,2.873,0,0,1,.165.9c-.007.54,0,1.08-.014,1.619a7.514,7.514,0,0,1-.107.908c-.1.625-.193,1.251-.313,1.872-.1.528-.244,1.048-.362,1.573a1.707,1.707,0,0,0-.035.347.145.145,0,0,0,.073.1.151.151,0,0,0,.131,0,2.178,2.178,0,0,0,.3-.285,5.574,5.574,0,0,1,.561-.53,1.482,1.482,0,0,1,1.18-.323,2.016,2.016,0,0,1,.75.168.256.256,0,0,0,.246-.1,4.3,4.3,0,0,0,.405-.891,2.3,2.3,0,0,1,.171-.459,14.209,14.209,0,0,1,1.517-2.443,1.442,1.442,0,0,1,.792-.548.46.46,0,0,1,.4.085,1.428,1.428,0,0,1,.519.734c.188.627.393,1.25.594,1.874a.321.321,0,0,0,.084.108.1.1,0,0,0,.063.026.067.067,0,0,0,.049-.028.9.9,0,0,0,.136-.467,13.35,13.35,0,0,1,.574-2.746,7.32,7.32,0,0,1,.7-1.53,1.743,1.743,0,0,1,1-.835.6.6,0,0,1,.538.025c.164.091.343.155.5.256a1.66,1.66,0,0,1,.431.353c.245.317.513.611.775.909.108.122.194.263.293.393a.144.144,0,0,0,.23-.057l.816-2.242c.048-.133.088-.268.145-.4.368-.836.745-1.668,1.111-2.505a11.757,11.757,0,0,1,.789-1.489,5,5,0,0,0,.381-.672,5.5,5.5,0,0,1,.687-1.141c.237-.319.454-.655.682-.981a9.818,9.818,0,0,1,1.043-1.323,4.694,4.694,0,0,0,.317-.375c.045-.054.076-.121.125-.169.646-.646,1.178-1.4,1.854-2.017a2.8,2.8,0,0,1,.205-.192,35.933,35.933,0,0,1,3.038-2.154,3.128,3.128,0,0,1,.308-.169,14.272,14.272,0,0,1,2.008-.837,14.011,14.011,0,0,1,1.432-.349,3.081,3.081,0,0,1,1.385.15,1.837,1.837,0,0,1,.609.342,3.4,3.4,0,0,1,1.07,1.275,8.285,8.285,0,0,1,.613,2.085,11.132,11.132,0,0,1,.126,2.315c-.042.893-.182,1.772-.308,2.654-.146,1.023-.412,2.021-.64,3.027a4.821,4.821,0,0,1-.135.474,12.652,12.652,0,0,0-.578,2.308,2.429,2.429,0,0,1-.113.405c-.122.379-.23.76-.317,1.15-.1.433-.25.853-.386,1.276-.106.335-.221.667-.335,1-.075.222-.146.446-.236.662-.3.714-.509,1.459-.758,2.19a44.829,44.829,0,0,1-1.521,4.232c-.37.81-.646,1.66-1.079,2.443-.136.245-.21.524-.349.767-.625,1.1-1.207,2.224-1.868,3.3-.269.439-.512.894-.767,1.341-.047.082-.086.167-.136.246-.338.534-.685,1.063-1.014,1.6-.195.32-.36.657-.545.983-.093.163-.192.322-.3.475-.489.688-.939,1.4-1.381,2.121-.392.639-.809,1.262-1.218,1.89-.525.8-1.055,1.606-1.582,2.41-.078.118-.149.239-.232.352-.835,1.132-1.653,2.278-2.516,3.388a22.433,22.433,0,0,1-1.561,1.9.556.556,0,0,0-.089.108,9.168,9.168,0,0,1-1.118,1.355,21.118,21.118,0,0,1-2.447,2.422c-.421.336-.869.637-1.314.942a1.4,1.4,0,0,1-.39.154c-.165.049-.391-.175-.352-.342a.638.638,0,0,1,.067-.2,1.6,1.6,0,0,0,.283-.636.565.565,0,0,1,.1-.185.2.2,0,0,1,.3-.043c.049.05.079.122.134.16a.348.348,0,0,0,.188.049.236.236,0,0,0,.124-.061,12.331,12.331,0,0,0,1.654-1.416c.383-.412.779-.812,1.167-1.22.113-.119.217-.246.321-.372.178-.218.346-.444.532-.655.249-.281.478-.576.7-.878.279-.376.6-.719.9-1.081a25.235,25.235,0,0,0,1.746-2.286,5.785,5.785,0,0,1,.419-.565,17.753,17.753,0,0,0,1.531-2.187,12.2,12.2,0,0,1,.9-1.34,4.928,4.928,0,0,0,.4-.581,3.177,3.177,0,0,1,.516-.751.183.183,0,0,0,.044-.054c.214-.5.6-.892.819-1.389a3.29,3.29,0,0,1,.489-.769,6.354,6.354,0,0,0,.583-.876c.407-.712.843-1.407,1.26-2.113.2-.343.386-.7.581-1.044.091-.163.191-.322.29-.482a1.722,1.722,0,0,0,.153-.235,11.242,11.242,0,0,1,.824-1.386,34.179,34.179,0,0,0,1.6-3.123,4.755,4.755,0,0,1,.244-.507,13.324,13.324,0,0,0,.646-1.4c.2-.447.376-.909.576-1.357.124-.279.195-.574.32-.854a10.372,10.372,0,0,0,.591-1.651,1.28,1.28,0,0,0,.05-.132,11.193,11.193,0,0,1,.71-2.2,8.6,8.6,0,0,0,.527-1.745.8.8,0,0,1,.06-.2c.326-.8.556-1.641.814-2.467.154-.491.248-1,.373-1.5.114-.455.234-.908.352-1.362.2-.794.4-1.59.559-2.4q.228-1.173.444-2.348a1.5,1.5,0,0,0,.025-.209c.021-.633.038-1.265.056-1.9a1.338,1.338,0,0,1,0-.14,7.124,7.124,0,0,0-.272-2.289c-.014-.068-.045-.134-.06-.2a3.221,3.221,0,0,0-1.207-1.845,1.268,1.268,0,0,0-.63-.291,2.936,2.936,0,0,0-1.043-.037,14.153,14.153,0,0,0-1.584.318,3.008,3.008,0,0,0-.462.162,14.752,14.752,0,0,0-1.713.966c-.231.158-.471.306-.708.453a13.648,13.648,0,0,0-1.522,1.134,16.669,16.669,0,0,0-2.12,2.055c-.271.322-.551.637-.812.969a23.545,23.545,0,0,0-2.1,2.99c-.171.307-.375.6-.543.9a3.888,3.888,0,0,0-.512,1.075c-.334.567-.553,1.189-.84,1.776-.167.339-.288.692-.43,1.038-.231.563-.487,1.117-.665,1.7-.157.515-.327,1.026-.463,1.547a5.587,5.587,0,0,0-.216,1.456,3.039,3.039,0,0,1-.134.9.963.963,0,0,1-.087.189.326.326,0,0,1-.307.126.286.286,0,0,1-.213-.162.724.724,0,0,1-.067-.479,6.859,6.859,0,0,1,.168-.754,1.492,1.492,0,0,0-.028-.825,4.7,4.7,0,0,0-1.143-1.909,2.4,2.4,0,0,0-.6-.479.584.584,0,0,0-.718.04,1.4,1.4,0,0,0-.375.415c-.137.245-.282.489-.394.746a9.674,9.674,0,0,0-.746,2.773c-.092.791-.119,1.59-.139,2.388-.012.474-.137.925-.193,1.389a.353.353,0,0,1-.066.122.286.286,0,0,1-.428.048.663.663,0,0,1-.126-.166,1.345,1.345,0,0,1-.118-.33,14.974,14.974,0,0,1-.348-1.934,4.952,4.952,0,0,0-.3-1.224,10.566,10.566,0,0,1-.324-1.075,1,1,0,0,0-.156-.31.288.288,0,0,0-.376-.071,2.71,2.71,0,0,0-.54.549,6.174,6.174,0,0,0-.622,1.02c-.353.715-.711,1.428-1.012,2.165-.208.51-.292.5.075,1.037a2.327,2.327,0,0,1,.206.518,5.958,5.958,0,0,1,.229,1.806,1.557,1.557,0,0,1-.05.347,2.737,2.737,0,0,0-.063.415,3.415,3.415,0,0,1-.206,1.031,10.461,10.461,0,0,1-.482,1.316c-.229.486-.518.945-.786,1.413a3.545,3.545,0,0,1-.848.833.435.435,0,0,1-.406.048.273.273,0,0,1-.2-.181,4.563,4.563,0,0,1-.115-.971,1.036,1.036,0,0,1,.062-.274q.219-.852.44-1.7c.167-.634.368-1.26.5-1.9.1-.505.292-.988.345-1.5a2.2,2.2,0,0,1,.118-.4c.088-.292.181-.582.262-.875a.366.366,0,0,0-.132-.378.835.835,0,0,0-.781-.212,1.539,1.539,0,0,0-.792.429,8.547,8.547,0,0,0-1.664,2.421,14.048,14.048,0,0,0-.65,1.855,2.344,2.344,0,0,1-.12.326.276.276,0,0,1-.3.112.242.242,0,0,1-.175-.2,2.07,2.07,0,0,1,.076-.831c.2-.651.377-1.3.582-1.953a29.491,29.491,0,0,0,.773-2.991,11.848,11.848,0,0,0,.279-1.664,1.842,1.842,0,0,1,.076-.342,7.818,7.818,0,0,0,.2-1.954c0-.375-.019-.751-.033-1.126a1.529,1.529,0,0,0-.044-.276c-.029-.131-.141-.253-.216-.251a.313.313,0,0,0-.239.125,6.487,6.487,0,0,0-.474.609,14.16,14.16,0,0,0-.923,1.577c-.262.577-.57,1.128-.84,1.7-.221.465-.391.954-.6,1.422a17.372,17.372,0,0,0-.879,2.519,11.529,11.529,0,0,1-.448,1.406,1.086,1.086,0,0,0-.065.2c-.2.939-.46,1.864-.682,2.8a8.082,8.082,0,0,0-.159.9,2,2,0,0,0,.02.559c.043.253.116.5.183.751.207.769.484,1.518.677,2.291a6.849,6.849,0,0,0,.309.86,15.288,15.288,0,0,1,.976,3.731,3.387,3.387,0,0,0,.186.893,1.086,1.086,0,0,1,.057.273c.063.465.111.932.185,1.4a7.526,7.526,0,0,1,.052,2.035c-.06.534-.145,1.065-.248,1.594a2.757,2.757,0,0,1-.767,1.318.641.641,0,0,1-.715.129,1.7,1.7,0,0,1-.935-1,11.8,11.8,0,0,1-.378-1.131c-.125-.452-.218-.912-.323-1.369a2.423,2.423,0,0,1-.04-.278c-.044-.4-.072-.795-.135-1.188a11.165,11.165,0,0,1-.138-1.611,6.488,6.488,0,0,1-.058-1.19c-.06-1.031-.041-2.063-.043-3.1,0-.5.095-.979.117-1.471.028-.631.1-1.26.163-1.889.013-.139.056-.276.08-.414a3.116,3.116,0,0,0-.027-1.4,2.272,2.272,0,0,1-.072-.627,1.56,1.56,0,0,0-.174-.674.132.132,0,0,0-.185-.012c-.115.147-.237.289-.338.445-.4.611-.779,1.227-1.172,1.839-.266.413-.539.824-.811,1.234-.324.489-.673.961-.968,1.467-.331.568-.705,1.106-1.059,1.659-.632.986-1.288,1.958-1.9,2.956-.27.439-.544.876-.84,1.3-.485.691-.954,1.392-1.428,2.09-.158.233-.333.454-.506.676-.363.46-.742.908-1.1,1.376-.48.637-1.014,1.23-1.527,1.839-.423.5-.841,1.008-1.263,1.51a2.815,2.815,0,0,1-.247.25c-.362.333-.714.676-1.049,1.037a9.79,9.79,0,0,1-1.433,1.243,20.06,20.06,0,0,1-2,1.312,4.3,4.3,0,0,1-.963.419,1.2,1.2,0,0,0-.2.056,4.256,4.256,0,0,1-1.861.273,1.03,1.03,0,0,1-.476-.106c-.146-.073-.3-.133-.444-.209a2.131,2.131,0,0,1-.352-.224c-.145-.119-.273-.257-.41-.385a1.88,1.88,0,0,1-.482-.767c-.086-.243-.177-.484-.264-.726a2.415,2.415,0,0,1-.189-.818.779.779,0,0,0-.018-.21,7.2,7.2,0,0,1-.15-1.676c-.023-.489-.038-.978-.088-1.468a9.021,9.021,0,0,1,.04-1.332c.006-.117.046-.233.043-.348a13.651,13.651,0,0,1,.167-2.242c.2-1.416.353-2.839.653-4.239.123-.572.2-1.153.321-1.726.113-.549.255-1.091.379-1.638.057-.251.1-.5.146-.758a2.315,2.315,0,0,1,.217-.738,1.581,1.581,0,0,0,.111-.329c.019-.067.013-.142.037-.207.256-.68.383-1.4.639-2.08.074-.2.117-.4.178-.606a2.523,2.523,0,0,1,.155-.466,15.506,15.506,0,0,0,.752-1.893c.176-.462.39-.9.6-1.347.091-.191.178-.382.268-.573.231-.486.457-.976.7-1.458.25-.5.511-1,.777-1.5.221-.413.454-.82.686-1.227a20.605,20.605,0,0,1,1.241-2.039,1.146,1.146,0,0,0,.146-.24,10.641,10.641,0,0,1,.955-1.556c.377-.593.766-1.178,1.16-1.76.276-.407.569-.8.854-1.2.095-.134.19-.268.277-.407a6.909,6.909,0,0,1,1.616-1.648,1.706,1.706,0,0,1,.309-.165,2.89,2.89,0,0,1,.946-.259,1.625,1.625,0,0,1,1.521.542,1.374,1.374,0,0,0,.192.206,2.512,2.512,0,0,1,.759,1.162,7.076,7.076,0,0,1,.32,1,5.441,5.441,0,0,1,.081,1.818,13.928,13.928,0,0,1-.48,2.552,1.413,1.413,0,0,0-.046.206,11.813,11.813,0,0,1-.418,1.634,18.792,18.792,0,0,1-.738,2.047,1.078,1.078,0,0,1-.144.239.15.15,0,0,1-.125.034.145.145,0,0,1-.1-.079,1.238,1.238,0,0,1,.112-.95,2.921,2.921,0,0,0,.322-.852,3.915,3.915,0,0,1,.138-.472,15.394,15.394,0,0,0,.662-2.508c.092-.507.206-1.01.3-1.517a5.978,5.978,0,0,0,.024-1.751c-.015-.14-.042-.28-.043-.42a1.217,1.217,0,0,0-.333-.9,1.5,1.5,0,0,1-.237-.428,2.11,2.11,0,0,0-.691-.784,1.518,1.518,0,0,0-.44-.208A4,4,0,0,0,4072.55,844.231Zm12.406,30.59c-.042-.5-.059-.972-.125-1.434-.145-1-.329-1.984-.541-2.967a13.016,13.016,0,0,0-.4-1.632c-.117-.329-.2-.67-.332-1-.1-.261-.184-.53-.279-.794q-.342-.957-.694-1.909c-.007-.02-.075-.023-.115-.023a.088.088,0,0,0-.057.038.129.129,0,0,0-.024.066c-.07.769-.16,1.537-.2,2.307-.063,1.1-.059,2.2-.039,3.3a9.116,9.116,0,0,0,.163,1.884,2.074,2.074,0,0,1,.029.28,16.105,16.105,0,0,0,.511,3.181,2.525,2.525,0,0,1,.045.277,3.539,3.539,0,0,0,.769,1.556.515.515,0,0,0,.114.081.221.221,0,0,0,.259-.02,1.931,1.931,0,0,0,.553-.878,7.836,7.836,0,0,0,.253-1.518c.012-.209.054-.417.083-.624a.7.7,0,0,1,.033-.17Zm6.847-16.2c0-.093-.007-.187,0-.28a3.03,3.03,0,0,0-.085-.763.475.475,0,0,0-.09-.185.163.163,0,0,0-.107-.067.154.154,0,0,0-.119.052,1.173,1.173,0,0,0-.155.309c-.157.609-.3,1.22-.454,1.831-.1.43-.224.858-.31,1.291a8.844,8.844,0,0,1-.46,1.686,1.885,1.885,0,0,0-.129.753.31.31,0,0,0,.084.176c.048.055.173.017.243-.066a4.732,4.732,0,0,0,1.014-1.74q.135-.47.295-.934a4.486,4.486,0,0,0,.27-2.061Z" transform="translate(-3797.73 -554.599)" fill="#fff" stroke="#fff" stroke-miterlimit="10" stroke-width="0.104"/>
    <path id="Path_676" data-name="Path 676" d="M4127.61,909.191c-.084-.019-.2-.039-.307-.074a.318.318,0,0,1-.081-.516.43.43,0,0,1,.115-.074.6.6,0,0,1,.728.232.268.268,0,0,1-.149.392.523.523,0,0,0-.066.017C4127.78,909.177,4127.71,909.182,4127.61,909.191Z" transform="translate(-3831.046 -590.832)" fill="#fff" stroke="#fff" stroke-miterlimit="10" stroke-width="0.104"/>
    <path id="Path_677" data-name="Path 677" d="M4149.71,890.832c-.019.24-.194.42-.381.392a.387.387,0,0,1-.321-.381.446.446,0,0,1,.471-.307.312.312,0,0,1,.231.3Z" transform="translate(-3841.593 -582.179)" fill="#fff" stroke="#fff" stroke-miterlimit="10" stroke-width="0.104"/>
    <path id="Path_712" data-name="Path 712" d="M805.563,1910.23h-3.791l.007-8.043h3.791Zm-1.9.373a8.253,8.253,0,0,1-1.486,2.792,7.591,7.591,0,0,0-1.1-.724,5.915,5.915,0,0,0,1.286-2.356Zm.6-7.245h-1.234v1.147h1.235Zm0,2.257h-1.235v1.16h1.235Zm0,2.257h-1.235v1.172h1.235Zm.659,2.42A11.4,11.4,0,0,1,806,1912.3l-1.148.56a10.791,10.791,0,0,0-1.021-2.108Zm7.892,1.079h-.573v.661c0,.623-.125.935-.537,1.134a4.461,4.461,0,0,1-1.808.211,4.533,4.533,0,0,0-.385-1.185c.486.013,1.022.013,1.172.014s.212-.05.212-.187v-.648h-3.2v2.02h-1.3v-2.02h-.673v-1.035h.673v-3.142h2.245v-.474h-2.856v-1.048h1.559v-.486h-1.06v-.985h1.06v-.462H806v-1.047h1.347v-.948h1.3v.948h1.272v-.948h1.322v.948h1.347v1.047h-1.347v.462h1.148v.985h-1.148v.486h1.572v1.047h-2.881v.474h2.32v3.142h.573Zm-5.122-3.147v.573h.947v-.573Zm.951-4.027h1.272v-.461h-1.272Zm-.953,6.134h.948v-.623H807.7Zm.952-4.663h1.272v-.486h-1.272Zm1.282,2.558v.573h.973v-.574Zm.971,2.108v-.624h-.973v.623Z" transform="translate(-972.368 -1621.57) rotate(-8)" fill="#fff"/>
    <path id="Path_713" data-name="Path 713" d="M861.99,1906.64l-9.851-.008v-3.068l9.851.009Zm-2.786,5.983c1.321.425,2.755.975,3.627,1.363l-1.609.734a26.6,26.6,0,0,0-3.5-1.449l1.01-.648h-3.479l1.085.487a15.7,15.7,0,0,1-3.98,1.642,10.031,10.031,0,0,0-1.1-1.085,15.166,15.166,0,0,0,3.468-1.045h-1.92v-5.474l8.517.007v5.474Zm-4.2-7.947h-1.5v.86H855Zm-.7,4.015h5.462v-.611H854.3Zm0,1.5h5.462v-.623H854.3Zm0,1.5h5.462v-.624H854.3Zm3.448-7.005h-1.509v.86h1.509Zm2.806,0h-1.571v.86h1.571Z" transform="translate(-1008.47 -1617.828) rotate(-8)" fill="#fff"/>
    <path id="Path_714" data-name="Path 714" d="M908.082,1905.46c-.125.5-.263.972-.4,1.421h3.991l-.007,8.156h-1.583v-.748h-5.512v.749h-1.509l.007-8.155h3.043c.088-.449.163-.935.225-1.421h-4.514v-1.447l10.961.009v1.447Zm2.005,2.8h-5.512v1.633h5.512Zm0,4.664v-1.683h-5.512v1.683Z" transform="translate(-1044.709 -1613.06) rotate(-8)" fill="#fff"/>
    <path id="Path_715" data-name="Path 715" d="M961.855,1910h-1.3v2.17h-1.509v-.511H956.8v.387c0,.735-.176,1.035-.662,1.246a6.567,6.567,0,0,1-2.207.21,4.58,4.58,0,0,0-.485-1.173c.6.025,1.334.026,1.533.026.238-.012.312-.087.312-.312v-.386H951.5v-1.073h3.791V1910h-4.938v-1.135h4.938v-.536H951.6v-1h3.691v-.549h-3.379v-2.469h3.379v-.511h-4.652v-1.172h4.651v-.811H956.8v.811h4.763v1.172H956.8v.511h3.541v2.469H956.8v.549h3.753v1.534h1.3Zm-6.556-4.158v-.6h-1.958v.6Zm1.51-.6v.6h2.02v-.6Zm0,3.616h2.244v-.536h-2.245ZM959.05,1910h-2.244v.586h2.245Z" transform="translate(-1079.233 -1606.608) rotate(-8)" fill="#fff"/>
    <path id="Path_716" data-name="Path 716" d="M1001.79,1903.7H1003l-3.1,12.318h-1.222Z" transform="translate(-1114.009 -1603.094) rotate(-8)" fill="#fff"/>
    <path id="Path_717" data-name="Path 717" d="M1030.68,1912.32a6.515,6.515,0,0,0,1.484-.136c.037.412.111,1.073.186,1.422a7.169,7.169,0,0,1-1.708.123h-2.631c-1.858,0-2.518-.725-2.516-2.7v-2.656l-3.242.484-.248-1.5,3.492-.534V1902.9h1.6v3.691l5.887-.893.248,1.522-6.136.905v3.005c0,.873.186,1.185.872,1.185Z" transform="translate(-1130.633 -1600.181) rotate(-8)" fill="#fff"/>
    <path id="Path_718" data-name="Path 718" d="M1076.36,1903.68h-4.477v-1.06h4.477v-.748h1.509v.748h4.589v1.06h-4.589v.511h3.841v1.023l-8.966-.008v-1.022h3.616Zm6.48,5.193V1910l-11.386-.01v-1.122h2.856a4.435,4.435,0,0,0-.286-.648l.524-.125h-1.272v-2.469l7.881.007v2.469h-.711c-.162.287-.337.549-.487.773Zm-9.816,1.575,8.392.007v3.068h-1.534v-.325h-5.4v.337h-1.459Zm1.661-3.266h4.975v-.624h-4.975Zm-.2,4.252v.761h5.4v-.761Zm1.025-3.341a3.819,3.819,0,0,1,.349.773h2.569a6.671,6.671,0,0,0,.325-.773Z" transform="translate(-1165.923 -1594.468) rotate(-8)" fill="#fff"/>
    <path id="Path_719" data-name="Path 719" d="M1122.75,1903.8h1.209l-3.1,12.318h-1.222Z" transform="translate(-1200.607 -1591) rotate(-8)" fill="#fff"/>
    <path id="Path_720" data-name="Path 720" d="M1144.24,1904.54a11.794,11.794,0,0,0-1.745-1.623l.861-.8a11.68,11.68,0,0,1,1.782,1.51Zm-.39,3.254a13.867,13.867,0,0,0-1.695-1.411l.824-.86a14.837,14.837,0,0,1,1.745,1.311Zm1.1,1.809c-.4,1.272-.95,2.7-1.437,3.852l-1.184-.7a31.975,31.975,0,0,0,1.574-3.864Zm8.445-4.033a17.993,17.993,0,0,1-1.039,4.925,1.61,1.61,0,0,1,.7,3.081,6.13,6.13,0,0,1-1.37-1.709,7.219,7.219,0,0,1-1.548,1.769,5.347,5.347,0,0,0-.947-.874,5.847,5.847,0,0,0,1.848-2.256,16.648,16.648,0,0,1-.8-2.906,4.478,4.478,0,0,1-.338.586,7.718,7.718,0,0,0-.685-.811h-1.609a7.384,7.384,0,0,1,.386.774h1.633v1.2h-2.444v.561h2.157s-.013.3-.025.461c-.064,1.646-.14,2.394-.389,2.681a.975.975,0,0,1-.711.386,9.229,9.229,0,0,1-1.147.049,2.833,2.833,0,0,0-.324-1.172,7.224,7.224,0,0,0,.786.038.3.3,0,0,0,.286-.112,2.96,2.96,0,0,0,.188-1.16h-.973a4.243,4.243,0,0,1-1.7,2.53,6.043,6.043,0,0,0-1-.849,3.628,3.628,0,0,0,1.624-3.128v-.287h-1.035v-1.2h1.646c-.087-.2-.174-.386-.249-.549l1.023-.224h-2.057v-4.215h1.185a9.716,9.716,0,0,0,.225-1.185l1.533.151c-.125.374-.25.71-.375,1.035h1.521v3.217a16.14,16.14,0,0,0,1.088-4.4l1.3.226c-.088.686-.213,1.372-.363,2.032h2.469v1.334Zm-5.248-1.389h-1.684v.6h1.684Zm0,1.559h-1.684v.611h1.683Zm2.831.04a18.548,18.548,0,0,0,.671,3.068,18.565,18.565,0,0,0,.539-3.279h-1.147Z" transform="translate(-1216.548 -1587.429) rotate(-8)" fill="#fff"/>
    <path id="Path_721" data-name="Path 721" d="M1193.88,1907.73a10.753,10.753,0,0,0-2.044-1.5l.874-1.009a12.941,12.941,0,0,1,2.119,1.374Zm.364-3.117a11.457,11.457,0,0,0-1.769-1.635l.986-.909a11.264,11.264,0,0,1,1.832,1.548Zm.882,4.465c-.475,1.322-1.1,2.7-1.675,3.927l-1.358-.861a35.511,35.511,0,0,0,1.836-3.939Zm7.918.543a15.822,15.822,0,0,1-1.722,1.133,5.22,5.22,0,0,0,2.219,1.2,5.557,5.557,0,0,0-.937,1.283c-2.206-.762-3.4-2.372-4.124-4.68h-1.421v2.843l2.058-.6a7.367,7.367,0,0,0,.223,1.3c-2.781.87-3.256,1.07-3.58,1.306a4.27,4.27,0,0,0-.772-1.086,1.737,1.737,0,0,0,.587-1.321l.007-8.005h2.868a9.15,9.15,0,0,0-.423-1.073l1.372-.348a9.847,9.847,0,0,1,.6,1.422h2.532v5.562H1199.9a5.6,5.6,0,0,0,.635,1.247,11.419,11.419,0,0,0,1.572-1.158Zm-5.981-5.342v.873h4.015v-.873Zm0,3.005h4.015v-.9h-4.015Z" transform="translate(-1252.071 -1582.146) rotate(-8)" fill="#fff"/>
    <path id="Path_722" data-name="Path 722" d="M1263.6,1905.28v1.17c0,.348-.072.525-.331.637a2.764,2.764,0,0,1-1.022.111,2.565,2.565,0,0,0-.253-.685c.3.012.662.012.762.012s.13-.024.13-.094v-1.093a7.986,7.986,0,0,0-1.813.223,4.952,4.952,0,0,0-.206-.632,2.774,2.774,0,0,0,.821-.3,8.516,8.516,0,0,0,.933-.489,4.808,4.808,0,0,0-1.282.152c-.035-.136-.135-.467-.206-.65a1.518,1.518,0,0,0,.5-.194,6.456,6.456,0,0,0,.945-.6c-.567.112-1.14.2-1.683.27a2.2,2.2,0,0,0-.194-.6,16.5,16.5,0,0,0,3.75-.871l.519.556a11.168,11.168,0,0,1-1.7.494l.319.207a10.492,10.492,0,0,1-1,.66l1.021-.052c.218-.154.425-.307.626-.472l.519.467a12.425,12.425,0,0,1-2,1.215l1.665-.111c-.124-.148-.254-.29-.378-.419l.585-.3a11.291,11.291,0,0,1,1.15,1.33l-.6.36a5.036,5.036,0,0,0-.3-.414Zm-1.181.471a6.314,6.314,0,0,1-1.3,1.221,6.2,6.2,0,0,0-.614-.461,4.1,4.1,0,0,0,1.2-1.015Zm2.067-.329a7.705,7.705,0,0,1,1.322,1.082l-.62.413a8.067,8.067,0,0,0-1.275-1.123Z" transform="translate(-1301.237 -1575.291) rotate(-8)" fill="#fff"/>
    <path id="Path_723" data-name="Path 723" d="M1283.67,1902.35h2.917v.656H1285.3c-.059.213-.13.431-.207.649h.839l.118-.018.443.142a5.048,5.048,0,0,1-2.17,3.842,2.4,2.4,0,0,0-.525-.514,3.388,3.388,0,0,0,1.306-1.233,8.98,8.98,0,0,0-.82-.6,2.98,2.98,0,0,1-.354.413,4.68,4.68,0,0,0-.5-.455,4.8,4.8,0,0,0,1.148-2.231h-.9Zm1.168,1.949c-.065.154-.142.307-.219.448.26.16.578.355.8.515a5.956,5.956,0,0,0,.3-.962Zm2.6,1.691h-.691v-3.242h.691Zm1.385-3.784v4.57c0,.4-.083.585-.32.691a2.734,2.734,0,0,1-1.14.135,2.96,2.96,0,0,0-.23-.7c.354.012.721.012.833.012s.16-.041.16-.141v-4.564Z" transform="translate(-1317.694 -1573.384) rotate(-8)" fill="#fff"/>
    <path id="Path_724" data-name="Path 724" d="M1265.77,1926.69h-1.73l.555.113c-.118.212-.248.419-.366.6h1.269v2.988c0,.313-.077.449-.3.531a3.128,3.128,0,0,1-1,.088,1.849,1.849,0,0,0-.188-.514c.283.012.62.012.708.006s.13-.029.13-.118v-2.415h-.909v.154c0,.112.006.165.106.166h.289a1.579,1.579,0,0,0,.342-.035,4.135,4.135,0,0,0,.041.466,1.359,1.359,0,0,1-.372.041h-.472c-.478,0-.561-.225-.561-.644v-.147h-.419a1.037,1.037,0,0,1-.768.909h2.137v1.435h-1.707v.248h-.584v-1.63c-.071.017-.142.035-.224.053a1.293,1.293,0,0,0-.277-.437v2.48h-.673V1927.4h1.216c-.065-.177-.177-.408-.265-.591l.39-.124h-1.618v-.59h2.326a4.4,4.4,0,0,0-.135-.443l.679-.171c.071.189.153.42.206.614h2.173Zm-4.3,1.815c.549-.094.739-.253.809-.537h-.809Zm2.109-1.1a4.895,4.895,0,0,0,.3-.714h-1.488c.106.2.23.425.3.579l-.378.135Zm-1.023,1.96v.472h1.146v-.472Z" transform="translate(-1303.639 -1592.347) rotate(-8)" fill="#fff"/>
    <path id="Path_725" data-name="Path 725" d="M1284.29,1929.12h2.244v2.628h-.7v-.266h-.88v.3h-.661Zm4.27-.486h-3.46V1926.5h3.46Zm-3.609,1.16v1.015h.88V1929.8Zm2.9-2.625h-2.067v.8h2.067Zm1.51,1.956v2.633h-.709v-.272h-.939v.3h-.673v-2.657Zm-.71,1.688V1929.8h-.939v1.016Z" transform="translate(-1320.755 -1590.683) rotate(-8)" fill="#fff"/>
    <path id="Path_726" data-name="Path 726" d="M811.212,1966.55l1.183,1.784h-.823v3.006l-9.69-.008v-3.006h-.8l1.174-1.608-1.1-2.046h2.033l.236.424.549-.748h-2.457v-1.172h4.914v1.334l-1.136,1.545h3.118l-1.98-2.995H808.9l.448.674.437-.66h1.684l-1.286,1.907.2.312.35-.561h1.683Zm-9.883,7.424v-1.147h1.808l-.485-1.16h2.482l.51,1.16h2.17l.487-1.159h2.407l-.5,1.159h1.945v1.147Zm7.849-6.765h-4.714l-.574.785H809.7Zm.073,1.958h-5.038v1.01h5.038Z" transform="translate(-978.538 -1665.471) rotate(-8)" fill="#fff"/>
    <path id="Path_727" data-name="Path 727" d="M862.372,1967.96l-.005,5.9H860l-.436-.923-.163.648h-1.721l.075-.274-4.29.533v-1.185l1.26-.161v-3.592h-1.185v-1.184h1.185v-.923h-.96v-.723h-.437l.726-3.129,3.467.015.758,3.118h-.437v.723h-1.01v.923h1.16v1.185h-1.16v3.3l1.1-.136v.548l.513-1.945h1.7l-.488,1.982h.623v-4.7h-2.145v-1.185h3.579l.075-.5h-3.355v-1.085l.613-2.344h2.208l-.125.461h3.043v1.01l-.413,2.456h.873v1.185Zm-8.634,4.083-.234-2.669h.886l.222,2.669Zm2.227-7.9h-.237l-.35,1.471h.9Zm1.864,7.609h-.886l.264-2.369h.873Zm.736-1.409-.5-2h1.609l.472,2Zm2.275-5.871-.163.623h1.3l.088-.623Zm3.312,5.876h-1.7l.513-1.995h1.671Zm-1.1,3.241-.572-2.906h1.684l.584,2.906Z" transform="translate(-1015.917 -1660.056) rotate(-8)" fill="#fff"/>
    <path id="Path_728" data-name="Path 728" d="M909.529,1966.2h1.459v3.193h-2.594v.96H911v3.517h-3.729l-.66-1.16h2.394v-1.247H906.4v-3.192h2.606v-1.06h-.387l-.312.349h-2.619l1.149-1.271-.847-1.672h2.045l.112.225.511-.573h-2.332v-1.16h4.826v1.272Zm7.068,3.41H914.09V1967.4h-.611v1.309l-.3.9h-2.133l.375-.835v-2.569h2.045l-2.342-3.269h2.507l.4.512.287-.386h1.534l-.974,1.52.2.274.312-.461h1.71l-1.111,1.658,1.108,1.51h-1.01v.885h1.035Zm-2.049,4.263-.474-.412-.437.411h-2.581l1.672-1.57-1.221-1.061h2.382l.287-.3h-2.918v-1.085h5.4v1.16l-1.361,1.3,1.807,1.561Z" transform="translate(-1053.404 -1654.855) rotate(-8)" fill="#fff"/>
    <path id="Path_729" data-name="Path 729" d="M966.571,1964.51v.549h2.706v3.1l-10.3-.009v-3.1h2.731v-.549H958.7v-1.172l10.874.009v1.172Zm-1.265,6.883v2.831h-3.18l-.4-1.185h1.26v-1.646h-4.265v-1.122l10.837.009v1.123Zm-6.01-1.652v-1.1l9.677.008v1.1Zm1.717,4.341h-2.444l1.286-2.381h2.457Zm.693-7.906h-.661v.873h.661Zm2.757-1.669h-.673v.549h.673Zm0,1.671h-.673v.873h.673Zm2.793,0h-.686v.873h.686Zm-.007,7.906-1.27-2.383h2.432l1.32,2.383Z" transform="translate(-1091.3 -1649.816) rotate(-8)" fill="#fff"/>
    <path id="Path_730" data-name="Path 730" d="M1041.2,1966.18v-1.247h4l-.3-1.8h2.606l.31,1.8h3.679v1.247Zm2.252,6.038-1.8-5.289h2.432l1.816,5.289Zm-2.6,1.881v-1.272l6.073.005,1.7-5.9h2.382l-1.663,5.9h2.556v1.272Z" transform="translate(-1150.187 -1641.403) rotate(-8)" fill="#fff"/>
    <path id="Path_731" data-name="Path 731" d="M1100.6,1974.44l-.2-.886-.462.885h-2.856l.01-10.812h5.188l-.005,6.31h-2.955v3.33h1.022l-.609-2.545h2.1l.857,3.717Zm-.241-9.64h-1.035v1.371h1.035Zm0,2.569h-1.035v1.4h1.035Zm5.182,6.165-.523-1v1.908h-2.17l.009-10.812h4.863l-.008,9.9Zm.257-8.729h-.773l-.007,7.557h.773Z" transform="translate(-1190.485 -1636.094) rotate(-8)" fill="#fff"/>
    <path id="Path_732" data-name="Path 732" d="M1155.08,1965.94v1.908l.761-.449v1.347l-.761.448v4.888h-2.656l-.4-1.185h.811V1970.5l-.824.473v-1.359l.824-.461v-3.217h-.811v-1.184h.811V1963.1h2.245v1.659h.773v1.185Zm1.04,8.144.008-8.867h2.319v-2.108h2.22v2.107h2.282l-.008,8.866Zm2.326-7.655h-.585v2.594h.586Zm0,3.791h-.586v2.706h.586Zm2.8-3.789h-.574v2.594h.574Zm0,3.791h-.574v2.706h.574Z" transform="translate(-1229.746 -1630.187) rotate(-8)" fill="#fff"/>
    <path id="Path_733" data-name="Path 733" d="M1215.45,1974.11l-3.051-5.2-2.848,5.2h-2.731l4.034-7.341h-3.878v-1.3h4.178v-2.407h2.457v2.407h4.252v1.3h-4.252l-.412.723h1.135l3.8,6.625Z" transform="translate(-1268.979 -1624.65) rotate(-8)" fill="#fff"/>
    <path id="Path_734" data-name="Path 734" d="M1272.7,1968.08v1.858h-2.806l-.137-.262h-1.945l-.922-1.348h2.344l.386.574h.923v-.823h-3.916v-1.023h3.916v-.7l-.511.374h-3.193l-.461-.824v4.028h-2.095v-2.045h-.387v1.372l-.35.673H1261.9l.449-.848v-1.2h-.3v-1.172h2.232v-.761h-2.008v-2.432h1.609v1.334h.4v-1.634h2.095v1.484l1.373-1.507h2.494l-.3.324h2.956v1.072l-2.134,1.582h1.933v.873h.461v1.023Zm-2.811,6.145-2.256-1.573-2.271,1.569h-3.479l3.406-2.354h-3.08v-1.1h4.252v-.886h2.307v.885h1.06l-.224-.574h2.269l.174.574h1.022v1.1h-4.3l-.437.336h2.107l2.979,2.023Zm-1.738-9.23h-1.771v.736h.6l-.261-.5h1.322l.274.5h.3Zm.885-.448-.212.224h.536l.112.225.574-.449Z" transform="translate(-1308.416 -1619.212) rotate(-8)" fill="#fff"/>
  </g>
</svg>
