<svg xmlns="http://www.w3.org/2000/svg" xmlns:xlink="http://www.w3.org/1999/xlink" width="253" height="62" viewBox="0 0 253 62">
  <defs>
    <clipPath id="clip-bg-lightning">
      <rect width="253" height="62"/>
    </clipPath>
  </defs>
  <g id="bg-lightning" clip-path="url(#clip-bg-lightning)">
    <g id="Group_1116" data-name="Group 1116" transform="translate(-61.148 -83.565)">
      <g id="Group_1093" data-name="Group 1093" transform="matrix(0.208, 0.978, -0.978, 0.208, 261.33, -3670.15)">
        <g id="Group_1077" data-name="Group 1077" transform="translate(3643.556 948.358)">
          <g id="Group_1076" data-name="Group 1076">
            <path id="Path_1032" data-name="Path 1032" d="M3673.02,997.123a1.289,1.289,0,0,1-1.857-.6l-2.314-5.543-16.925,7.888a1.288,1.288,0,0,1-1.459-2.075l19.085-19.252a1.288,1.288,0,0,1,2.057.312l2.874,5.517L3690.7,971.8c.027-.019.054-.036.081-.053a1.288,1.288,0,0,1,1.661,1.922l-19.1,23.174A1.271,1.271,0,0,1,3673.02,997.123Z" transform="translate(-3648.802 -970.268)" fill="#fff"/>
            <path id="Path_1033" data-name="Path 1033" d="M3669.065,977.041l3.558,6.831,17.428-12.427-19.1,23.175-2.832-6.781-18.141,8.454,19.085-19.252m20.987-5.6,0,0m-22.327,3.395a2.573,2.573,0,0,0-.493.389l-19.086,19.252a2.577,2.577,0,0,0,2.919,4.15l15.708-7.32,1.8,4.3a2.576,2.576,0,0,0,4.366.646L3692,973.133a2.577,2.577,0,0,0-3.221-3.929l-.062.037-.082.052c-.034.023-.068.046-.1.07l-14.994,10.691-2.189-4.2a2.578,2.578,0,0,0-3.622-1.013Zm2.673,4.407,0,0,0,0Z" transform="translate(-3647.403 -968.866)" fill="#004990"/>
          </g>
        </g>
        <g id="Group_1079" data-name="Group 1079" transform="translate(3640.012 929.463)">
          <g id="Group_1078" data-name="Group 1078">
            <path id="Path_1034" data-name="Path 1034" d="M3691.8,940.448a1.239,1.239,0,0,1-.233.11l-28.257,10.169a1.288,1.288,0,0,1-1.712-1.393l.841-5.947-18.579-1.864a1.288,1.288,0,0,1-.195-2.53l26.241-6.8a1.288,1.288,0,0,1,1.61,1.319l-.347,6.21,19.854-1.658a1.289,1.289,0,0,1,.776,2.386Z" transform="translate(-3641.41 -930.861)" fill="#ff4398"/>
            <path id="Path_1035" data-name="Path 1035" d="M3642.589,938.843l26.241-6.8-.43,7.69,21.331-1.782-28.257,10.169,1.029-7.276-19.914-2m-1.337-2.2a2.577,2.577,0,0,0,1.08,4.768l17.244,1.73-.653,4.619a2.577,2.577,0,0,0,3.424,2.786l28.257-10.169a2.577,2.577,0,0,0-1.087-4.993l-18.377,1.535.265-4.731a2.577,2.577,0,0,0-3.22-2.638l-26.242,6.8a2.562,2.562,0,0,0-.69.291Z" transform="translate(-3640.012 -929.463)" fill="#004990"/>
          </g>
        </g>
      </g>
    </g>
  </g>
</svg>
