<svg xmlns="http://www.w3.org/2000/svg" width="51.284" height="47.953" viewBox="0 0 51.284 47.953">
  <g id="Group_1275" data-name="Group 1275" transform="translate(-4860.23 -958.311)">
    <g id="Group_1267" data-name="Group 1267">
      <g id="Group_1266" data-name="Group 1266">
        <path id="Path_1251" data-name="Path 1251" d="M4887.455,1003.177a1.265,1.265,0,0,1-1.821-.594l-2.269-5.435-16.6,7.735a1.264,1.264,0,0,1-1.431-2.035l18.716-18.879a1.262,1.262,0,0,1,2.017.3l2.818,5.411,15.907-11.342c.027-.019.053-.036.08-.053a1.264,1.264,0,0,1,1.629,1.885l-18.729,22.725A1.255,1.255,0,0,1,4887.455,1003.177Z" fill="#fff"/>
        <path id="Path_1252" data-name="Path 1252" d="M4884.949,984.858l3.49,6.7,17.09-12.186L4886.8,1002.1l-2.777-6.65-17.79,8.291,18.716-18.88m20.58-5.487,0,0m-21.9,3.329a2.515,2.515,0,0,0-.483.382l-18.717,18.879a2.527,2.527,0,0,0,2.862,4.07l15.405-7.179,1.763,4.222a2.528,2.528,0,0,0,4.282.633l18.691-22.679a2.527,2.527,0,0,0-3.159-3.852l-.062.036c-.027.016-.054.033-.08.051s-.067.045-.1.068l-14.7,10.484-2.146-4.121a2.529,2.529,0,0,0-3.553-.994Zm2.622,4.322,0,0,0,0Z" fill="#004990"/>
      </g>
    </g>
    <g id="Group_1269" data-name="Group 1269">
      <g id="Group_1268" data-name="Group 1268">
        <path id="Path_1253" data-name="Path 1253" d="M4909.644,967.713a1.307,1.307,0,0,1-.229.108l-27.71,9.972a1.263,1.263,0,0,1-1.679-1.365l.825-5.832-18.22-1.828a1.264,1.264,0,0,1-.191-2.481l25.734-6.671a1.263,1.263,0,0,1,1.579,1.293l-.34,6.09,19.47-1.626a1.264,1.264,0,0,1,.761,2.34Z" fill="#ff4398"/>
        <path id="Path_1254" data-name="Path 1254" d="M4862.757,967.51l25.734-6.671-.422,7.541,20.918-1.748-27.71,9.972,1.009-7.135-19.529-1.959m-1.311-2.161a2.528,2.528,0,0,0,1.059,4.676l16.91,1.7-.64,4.53a2.526,2.526,0,0,0,3.358,2.731l27.71-9.972a2.527,2.527,0,0,0-1.066-4.9l-18.022,1.506.259-4.64a2.527,2.527,0,0,0-3.157-2.588l-25.734,6.672a2.528,2.528,0,0,0-.677.285Z" fill="#004990"/>
      </g>
    </g>
  </g>
</svg>
