<svg xmlns="http://www.w3.org/2000/svg" width="151.31" height="184.835" viewBox="0 0 151.31 184.835">
  <g id="Group_1281" data-name="Group 1281" transform="translate(-5001.15 -970.893)">
    <g id="Group_1260" data-name="Group 1260">
      <g id="Group_1212" data-name="Group 1212">
        <path id="Path_1203" data-name="Path 1203" d="M5060.987,1126.923l-58.3-34.545a.99.99,0,0,1-.423-1.284l59.8-118.716a.99.99,0,0,1,1.282-.425l62.419,26.168a1.051,1.051,0,0,1,.2.078l.059.031a.777.777,0,0,1,.071.033,1.083,1.083,0,0,1,.429.386l24.57,21.995a.973.973,0,0,1,.25,1.158l-56.525,112.209a.973.973,0,0,1-1.1.483l-32.024-7.332a1.062,1.062,0,0,1-.485-.11C5061.192,1127.042,5061.021,1126.944,5060.987,1126.923Z" fill="#ff4398"/>
        <g id="Group_1211" data-name="Group 1211">
          <path id="Path_1204" data-name="Path 1204" d="M5125.667,999.119l-.019.037,24.778,22.182L5093.9,1133.547l-32.233-7.38-.017.033-.1-.061-.033-.008,0-.009-58.334-34.565,59.8-118.715,62.539,26.218,0-.009.025.021.112.047m.863-1.713c-.046-.023-.093-.044-.14-.064l-.042-.018c-.055-.025-.11-.049-.167-.07l-62.471-26.19a1.982,1.982,0,0,0-2.565.85l-59.8,118.716a1.981,1.981,0,0,0,.846,2.568l58.173,34.469a2.1,2.1,0,0,0,.3.18l.051.026.078.041a2.206,2.206,0,0,0,.9.233l31.855,7.294a1.949,1.949,0,0,0,2.205-.966l56.524-112.209a1.942,1.942,0,0,0-.5-2.315l-24.478-21.914a2.2,2.2,0,0,0-.76-.631Z" fill="#004990"/>
        </g>
      </g>
      <g id="Group_1214" data-name="Group 1214">
        <path id="Path_1205" data-name="Path 1205" d="M5063.432,1127.634a.479.479,0,0,1-.212-.644l64.015-127.08a.482.482,0,0,1,.645-.213.5.5,0,0,1,.11.077l22.891,21.277a.48.48,0,0,1,.1.567l-56.525,112.21a.479.479,0,0,1-.527.253l-30.382-6.406A.482.482,0,0,1,5063.432,1127.634Z" fill="#ff4398"/>
        <g id="Group_1213" data-name="Group 1213">
          <path id="Path_1206" data-name="Path 1206" d="M5127.664,1000.126l22.89,21.276-56.525,112.21-30.381-6.406,64.016-127.08m.431-.857a.958.958,0,0,0-1.288.425l-64.016,127.081a.961.961,0,0,0,.426,1.288.94.94,0,0,0,.233.082l30.382,6.406a.96.96,0,0,0,1.054-.508l56.525-112.209a.959.959,0,0,0-.2-1.134l-22.89-21.277a.967.967,0,0,0-.222-.154Z" fill="#004990"/>
        </g>
      </g>
      <g id="Group_1230" data-name="Group 1230">
        <g id="Group_1216" data-name="Group 1216">
          <path id="Path_1207" data-name="Path 1207" d="M5066.753,1037.5c-10.929-5.506-14.531-20.485-8.03-33.392s20.683-18.928,31.612-13.422l1.647.829c10.929,5.506,14.531,20.485,8.029,33.392s-20.682,18.928-31.611,13.423Z" fill="#0856a6"/>
          <g id="Group_1215" data-name="Group 1215">
            <path id="Path_1208" data-name="Path 1208" d="M5091.767,991.945c10.709,5.4,14.209,20.056,7.816,32.747s-20.257,18.6-30.967,13.21l-1.648-.83c-10.709-5.4-14.209-20.056-7.816-32.747s20.257-18.605,30.967-13.21l1.648.83m.431-.857-1.648-.83c-11.165-5.624-25.634.493-32.255,13.636s-2.923,28.411,8.242,34.035l1.647.83c11.165,5.624,25.635-.493,32.256-13.635s2.923-28.412-8.242-34.036Z" fill="#004990"/>
          </g>
        </g>
        <g id="Group_1219" data-name="Group 1219">
          <g id="Group_1218" data-name="Group 1218">
            <path id="Path_1209" data-name="Path 1209" d="M5066.839,1037.329c-10.835-5.457-14.4-20.321-7.944-33.133s20.519-18.8,31.354-13.338,14.4,20.321,7.943,33.133S5077.673,1042.787,5066.839,1037.329Z" fill="#0856a6"/>
            <g id="Group_1217" data-name="Group 1217">
              <path id="Path_1210" data-name="Path 1210" d="M5090.119,991.115c10.71,5.4,14.209,20.056,7.816,32.747s-20.257,18.605-30.967,13.21-14.209-20.056-7.816-32.747,20.257-18.605,30.967-13.21m.259-.514c-10.976-5.529-25.215.511-31.74,13.465s-2.905,27.991,8.071,33.52,25.215-.511,31.74-13.465,2.9-27.991-8.071-33.52Z" fill="#004990"/>
            </g>
          </g>
        </g>
        <g id="Group_1221" data-name="Group 1221">
          <path id="Path_1211" data-name="Path 1211" d="M5067.1,1033.572c-9.374-4.722-12.45-17.6-6.856-28.7s17.77-16.295,27.143-11.574l1.648.83c9.374,4.723,12.45,17.6,6.857,28.7s-17.77,16.3-27.145,11.573Z" fill="#0856a6"/>
          <g id="Group_1220" data-name="Group 1220">
            <path id="Path_1212" data-name="Path 1212" d="M5088.822,994.557c9.152,4.61,12.127,17.171,6.644,28.056s-17.348,15.971-26.5,11.361l-1.648-.83c-9.152-4.611-12.126-17.172-6.643-28.057s17.347-15.971,26.5-11.36l1.648.83m.432-.857-1.648-.83c-9.61-4.841-22.076.446-27.788,11.786s-2.541,24.5,7.069,29.344l1.648.83c9.61,4.841,22.075-.446,27.788-11.785s2.541-24.5-7.069-29.345Z" fill="#004990"/>
          </g>
        </g>
        <g id="Group_1224" data-name="Group 1224">
          <g id="Group_1223" data-name="Group 1223">
            <ellipse id="Ellipse_51" data-name="Ellipse 51" cx="22.356" cy="18.843" rx="22.356" ry="18.843" transform="matrix(0.45, -0.893, 0.893, 0.45, 5050.361, 1024.924)" fill="#07fd60"/>
            <g id="Group_1222" data-name="Group 1222">
              <path id="Path_1213" data-name="Path 1213" d="M5087.174,993.727c9.153,4.61,12.127,17.171,6.644,28.056s-17.347,15.971-26.5,11.361-12.126-17.172-6.643-28.057,17.347-15.971,26.5-11.36m.259-.514c-9.421-4.746-21.655.465-27.272,11.616s-2.523,24.083,6.9,28.829,21.656-.465,27.273-11.616,2.522-24.083-6.9-28.829Z" fill="#004990"/>
            </g>
          </g>
        </g>
        <g id="Group_1226" data-name="Group 1226">
          <path id="Path_1214" data-name="Path 1214" d="M5069.987,1027.318c-.167-.084-.325-.179-.483-.274l-.181-.109-.141-.054c-.171-.07-.341-.14-.509-.225-6.735-3.393-9.09-12.358-5.248-19.985s12.448-11.07,19.183-7.677c.166.083.322.177.478.271l.186.111.148.057c.169.07.337.139.5.223,6.736,3.393,9.09,12.358,5.249,19.985S5076.723,1030.711,5069.987,1027.318Z" fill="#0856a6"/>
          <g id="Group_1225" data-name="Group 1225">
            <path id="Path_1215" data-name="Path 1215" d="M5083.707,1000.084c6.51,3.279,8.764,11.938,5.035,19.341s-12.029,10.744-18.539,7.465c-.222-.112-.426-.245-.638-.369-.226-.1-.454-.181-.676-.293-6.51-3.279-8.764-11.938-5.035-19.341s12.029-10.744,18.538-7.465c.222.112.427.245.638.369.226.1.455.181.677.293m.431-.857c-.188-.095-.368-.168-.541-.239l-.134-.056-.125-.075c-.16-.1-.325-.2-.514-.292-6.972-3.512-15.866.028-19.827,7.891s-1.511,17.117,5.46,20.629c.189.1.368.168.541.239l.135.056.124.075c.16.1.326.2.515.292,6.971,3.512,15.866-.028,19.827-7.891s1.511-17.117-5.461-20.629Z" fill="#004990"/>
          </g>
        </g>
        <g id="Group_1229" data-name="Group 1229">
          <g id="Group_1228" data-name="Group 1228">
            <path id="Path_1216" data-name="Path 1216" d="M5070.074,1027.147c-6.641-3.345-8.957-12.195-5.163-19.727s12.284-10.938,18.925-7.593,8.957,12.195,5.163,19.727S5076.715,1030.493,5070.074,1027.147Z" fill="#3c65b0"/>
            <g id="Group_1227" data-name="Group 1227">
              <path id="Path_1217" data-name="Path 1217" d="M5083.707,1000.084c6.509,3.279,8.764,11.938,5.035,19.341s-12.029,10.744-18.539,7.465-8.764-11.938-5.035-19.341,12.029-10.744,18.539-7.465m.259-.514c-6.783-3.417-15.446.047-19.312,7.72s-1.492,16.7,5.29,20.114,15.446-.047,19.312-7.72,1.492-16.7-5.29-20.114Z" fill="#004990"/>
            </g>
          </g>
        </g>
      </g>
      <g id="Group_1240" data-name="Group 1240">
        <g id="Group_1232" data-name="Group 1232">
          <path id="Path_1218" data-name="Path 1218" d="M5033.319,1102.674c-14.472-7.29-19.227-27.156-10.6-44.285s27.423-25.133,41.9-17.842l1.532.772c14.473,7.29,19.228,27.156,10.6,44.285s-27.422,25.132-41.9,17.842Z" fill="#0856a6"/>
          <g id="Group_1231" data-name="Group 1231">
            <path id="Path_1219" data-name="Path 1219" d="M5065.932,1041.747c14.259,7.183,18.909,26.721,10.385,43.641s-26.991,24.812-41.25,17.63l-1.532-.772c-14.259-7.183-18.909-26.722-10.386-43.641s26.991-24.813,41.25-17.63l1.533.772m.431-.857-1.532-.772c-14.709-7.409-33.791.69-42.539,18.055s-3.9,37.52,10.811,44.929l1.532.772c14.709,7.41,33.792-.69,42.539-18.055s3.9-37.52-10.811-44.929Z" fill="#004990"/>
          </g>
        </g>
        <g id="Group_1235" data-name="Group 1235">
          <g id="Group_1234" data-name="Group 1234">
            <ellipse id="Ellipse_52" data-name="Ellipse 52" cx="34.591" cy="29.196" rx="34.591" ry="29.196" transform="translate(5007.331 1089.368) rotate(-63.264)" fill="#0856a6"/>
            <g id="Group_1233" data-name="Group 1233">
              <path id="Path_1220" data-name="Path 1220" d="M5064.4,1040.975c14.259,7.183,18.909,26.722,10.386,43.641s-26.991,24.813-41.25,17.63-18.909-26.722-10.386-43.641,26.991-24.813,41.25-17.63m.259-.514c-14.519-7.314-33.371.709-42.023,17.885s-3.879,37.1,10.641,44.414,33.371-.709,42.023-17.885,3.879-37.1-10.641-44.414Z" fill="#004990"/>
            </g>
          </g>
        </g>
        <g id="Group_1238" data-name="Group 1238">
          <g id="Group_1237" data-name="Group 1237">
            <path id="Path_1221" data-name="Path 1221" d="M5034.894,1098.489c-12.847-6.471-17.176-23.89-9.651-38.829s24.1-21.829,36.946-15.357,17.177,23.891,9.651,38.83S5047.741,1104.961,5034.894,1098.489Z" fill="#0856a6"/>
            <g id="Group_1236" data-name="Group 1236">
              <path id="Path_1222" data-name="Path 1222" d="M5062.06,1044.56c12.726,6.41,16.989,23.622,9.523,38.443s-23.834,21.64-36.56,15.229-16.989-23.622-9.523-38.443,23.834-21.64,36.56-15.229m.259-.514c-12.989-6.543-29.736.4-37.333,15.484s-3.21,32.673,9.778,39.216,29.737-.4,37.333-15.484,3.211-32.673-9.778-39.216Z" fill="#004990"/>
            </g>
          </g>
        </g>
        <g id="Group_1239" data-name="Group 1239">
          <ellipse id="Ellipse_53" data-name="Ellipse 53" cx="28.646" cy="24.897" rx="28.646" ry="24.897" transform="translate(5013.387 1085.762) rotate(-63.264)" fill="#07fd60"/>
          <path id="Path_1223" data-name="Path 1223" d="M5061.267,1046.054c12.119,6.105,16.255,22.432,9.22,36.4s-22.617,20.359-34.736,14.255-16.255-22.433-9.22-36.4,22.617-20.359,34.736-14.254m.259-.514c-12.4-6.248-28.332.261-35.509,14.509s-2.927,30.923,9.475,37.171,28.332-.262,35.509-14.51,2.927-30.923-9.475-37.17Z" fill="#004990"/>
        </g>
        <path id="Path_1224" data-name="Path 1224" d="M5058.2,1064.219c4.365,2.2,5.744,8.268,3.081,13.554s-8.36,7.791-12.725,5.592-5.745-8.267-3.081-13.554,8.36-7.79,12.725-5.592m.259-.513c-4.641-2.338-10.7.284-13.5,5.846s-1.3,11.989,3.336,14.327,10.7-.285,13.5-5.847,1.305-11.988-3.336-14.326Z" fill="#004990"/>
      </g>
      <g id="Group_1241" data-name="Group 1241">
        <path id="Path_1225" data-name="Path 1225" d="M5126.023,1004.1c.024-.038.05-.075.074-.113.086-.132-.03.052-.064.077a2.172,2.172,0,0,0,.2-.225c.062-.064.129-.123.2-.184.187-.171-.186.119.026-.021.159-.106.323-.2.492-.287.139-.074-.055.024-.1.037.043-.014.084-.033.126-.049.095-.034.191-.065.288-.092s.174-.044.262-.061c.044-.009.089-.015.133-.023.147-.029-.262.022-.113.016a5.164,5.164,0,0,1,.57-.01.668.668,0,0,0,.133.012c-.036.006-.276-.048-.113-.015.087.018.175.033.261.056s.192.057.287.089c.039.013.192.075.016,0-.193-.077.014.013.042.027a1.178,1.178,0,0,0,1.425-1.847c-1.423-1.747-3.364-3.5-5.794-2.97a1.188,1.188,0,0,0-.7,1.727c.012.023.127.272.135.27-.068-.165-.078-.189-.031-.072.018.047.035.095.051.142a4.209,4.209,0,0,1,.138.509c.01.049.02.1.028.148.02.129.016.1-.011-.088a1.092,1.092,0,0,0,.024.3,4.448,4.448,0,0,1-.008.529c0,.05-.009.1-.014.15.027-.187.031-.217.011-.088-.013.075-.026.149-.042.223a4.2,4.2,0,0,1-.168.58c-.1.273-.018-.005,0,0-.008,0-.122.247-.134.27-.048.088-.1.175-.154.259-.039.061-.25.345-.036.069a1.29,1.29,0,0,0-.344.832,1.175,1.175,0,0,0,2.007.831,5.694,5.694,0,0,0,1.214-3.049,5.371,5.371,0,0,0-.641-3l-.7,1.727a.922.922,0,0,0,.149-.03c-.21.089-.184.02-.055.011a2.576,2.576,0,0,1,.291-.006c.043,0,.139.03.179.012-.034.015-.269-.047-.1-.011.106.022.211.044.315.075s.205.082.309.107a.6.6,0,1,0-.079-.03l.133.065a4.924,4.924,0,0,1,.583.357.793.793,0,0,0,.126.091c-.055-.023-.174-.14-.053-.041.092.076.184.151.273.23.17.15.333.307.492.468.333.339.642.7.942,1.068l1.425-1.847a4.643,4.643,0,0,0-5.936,1.607,1.186,1.186,0,0,0,.422,1.609,1.2,1.2,0,0,0,1.609-.422Z" fill="#004990"/>
      </g>
      <g id="Group_1242" data-name="Group 1242">
        <path id="Path_1226" data-name="Path 1226" d="M5060.048,1125.99a6.934,6.934,0,0,0,7.808-4.361l-2.267-.625a10.674,10.674,0,0,0-.492,4.316,4.761,4.761,0,0,0,1.871,3.174q.452-1.074.905-2.149l-4.376-1.54a1.182,1.182,0,0,0-1.328.54,1.213,1.213,0,0,0,.184,1.425c.08.081.159.163.238.244a1.176,1.176,0,1,0,1.663-1.662l-.238-.245q-.573.982-1.144,1.965l4.376,1.54a1.169,1.169,0,0,0,1.387-.68,1.2,1.2,0,0,0-.481-1.468c.184.139-.05-.057-.085-.092s-.25-.289-.185-.2-.1-.156-.115-.188c-.055-.092-.1-.186-.151-.282q-.053-.114.012.036c-.027-.067-.051-.134-.074-.2-.034-.1-.065-.206-.091-.311s-.046-.211-.068-.317c-.054-.251,0,.163-.014-.116a6.619,6.619,0,0,1,.06-1.41c.1-.592.258-1.173.413-1.754a1.192,1.192,0,0,0-.821-1.446,1.208,1.208,0,0,0-1.446.821c-.011.029-.116.281-.051.136.058-.129-.032.063-.043.085-.065.132-.136.263-.212.389-.085.142-.18.274-.273.41.06-.088.077-.093,0-.005-.053.062-.106.125-.161.186a7.455,7.455,0,0,1-.645.611c-.1.09.144-.1-.037.027-.054.038-.108.076-.163.113-.137.092-.278.178-.422.259s-.263.139-.4.2c-.023.01-.217.089-.086.039.148-.057-.109.038-.137.048a5.772,5.772,0,0,1-.857.233s-.306.048-.136.025-.135.012-.137.012c-.148.011-.295.017-.443.016s-.295-.011-.443-.02c-.131-.009-.084-.012.018.006-.1-.017-.195-.034-.292-.053a1.176,1.176,0,0,0-.625,2.267Z" fill="#004990"/>
      </g>
      <g id="Group_1243" data-name="Group 1243">
        <path id="Path_1227" data-name="Path 1227" d="M5141.755,1021.089l1.787,1.16c.313.2.627.4.94.61a2.519,2.519,0,0,0,.25.166s.03-.226,0-.233c-.009,0-.847,1.663-.931,1.817q-.52.96-1.043,1.917-2.118,3.881-4.282,7.736a1.176,1.176,0,0,0,2.03,1.186q2.5-4.456,4.942-8.945c.4-.733.812-1.46,1.191-2.2a2.477,2.477,0,0,0,.184-2.386,4.69,4.69,0,0,0-1.714-1.452l-2.163-1.4c-1.273-.826-2.453,1.209-1.187,2.03Z" fill="#004990"/>
      </g>
      <g id="Group_1244" data-name="Group 1244">
        <path id="Path_1228" data-name="Path 1228" d="M5136.2,1042.456a1.176,1.176,0,0,0,0-2.351,1.176,1.176,0,0,0,0,2.351Z" fill="#004990"/>
      </g>
      <g id="Group_1245" data-name="Group 1245">
        <path id="Path_1229" data-name="Path 1229" d="M5132.354,1047.737q-8.664,17.535-17.572,34.948-2.493,4.872-5,9.733c-.694,1.342,1.335,2.533,2.03,1.186q8.977-17.376,17.71-34.879,2.442-4.9,4.866-9.8a1.2,1.2,0,0,0-.422-1.608,1.185,1.185,0,0,0-1.608.422Z" fill="#004990"/>
      </g>
      <g id="Group_1246" data-name="Group 1246">
        <path id="Path_1230" data-name="Path 1230" d="M5080.236,1103.982q-3.467,6.181-6.439,12.623-.753,1.635-1.474,3.284a5.319,5.319,0,0,0-.743,3.373c.547,2.205,3.591,2.453,5.419,2.779a43.364,43.364,0,0,0,8.218.674,1.176,1.176,0,0,0,0-2.351,39.922,39.922,0,0,1-6.361-.39q-1.572-.233-3.123-.584c-.42-.1-1.631-.2-1.863-.658-.133-.264.1-.741.2-.988.2-.5.431-1,.65-1.492q.636-1.44,1.3-2.869,1.348-2.909,2.8-5.767,1.657-3.258,3.449-6.447a1.177,1.177,0,0,0-2.031-1.187Z" fill="#004990"/>
      </g>
      <g id="Group_1247" data-name="Group 1247">
        <path id="Path_1231" data-name="Path 1231" d="M5014.392,1071.345a26.177,26.177,0,0,0,.969,16.55,1.213,1.213,0,0,0,1.446.821,1.184,1.184,0,0,0,.822-1.446,24.046,24.046,0,0,1-.969-15.3,1.177,1.177,0,0,0-2.268-.625Z" fill="#004990"/>
      </g>
      <g id="Group_1248" data-name="Group 1248">
        <path id="Path_1232" data-name="Path 1232" d="M5017.066,1090.519l-.053.228a.887.887,0,0,0-.021.469.869.869,0,0,0,.139.437,1.321,1.321,0,0,0,.7.541l.312.042a1.182,1.182,0,0,0,.594-.161l.237-.184a1.165,1.165,0,0,0,.3-.518l.053-.229a1.208,1.208,0,0,0-.821-1.446l-.312-.042a1.178,1.178,0,0,0-.594.16l-.238.184a1.177,1.177,0,0,0-.3.519Z" fill="#004990"/>
      </g>
      <g id="Group_1249" data-name="Group 1249">
        <path id="Path_1233" data-name="Path 1233" d="M5089.782,1042.364A28.959,28.959,0,0,0,5106,1024.172a1.177,1.177,0,0,0-2.267-.625,26.777,26.777,0,0,1-10.517,14.27,27.154,27.154,0,0,1-4.621,2.517,1.183,1.183,0,0,0-.422,1.608,1.207,1.207,0,0,0,1.609.422Z" fill="#004990"/>
      </g>
      <g id="Group_1250" data-name="Group 1250">
        <path id="Path_1234" data-name="Path 1234" d="M5067.1,1003.13a12.951,12.951,0,0,1,11.747-5.412c3.322.239,3.307-4.935,0-5.173a18.157,18.157,0,0,0-16.214,7.974c-1.9,2.742,2.581,5.331,4.467,2.611Z" fill="#fff"/>
      </g>
      <g id="Group_1251" data-name="Group 1251">
        <path id="Path_1235" data-name="Path 1235" d="M5061.254,1011.5c3.329,0,3.334-5.173,0-5.173s-3.334,5.173,0,5.173Z" fill="#fff"/>
      </g>
      <g id="Group_1252" data-name="Group 1252">
        <path id="Path_1236" data-name="Path 1236" d="M5028.571,1063.888a22.989,22.989,0,0,1,19.57-15.837c3.291-.285,3.321-5.46,0-5.173a28.342,28.342,0,0,0-24.558,19.635c-1,3.185,4,4.547,4.988,1.375Z" fill="#fff"/>
      </g>
      <g id="Group_1253" data-name="Group 1253">
        <path id="Path_1237" data-name="Path 1237" d="M5046.08,1047.34c3.329,0,3.334-5.172,0-5.172s-3.334,5.172,0,5.172Z" fill="#fff"/>
      </g>
      <g id="Group_1254" data-name="Group 1254">
        <path id="Path_1238" data-name="Path 1238" d="M5024.114,1073.985l-.084.359a1.97,1.97,0,0,0-.046,1.031,1.933,1.933,0,0,0,.307.962,2.891,2.891,0,0,0,1.546,1.189l.688.092a2.581,2.581,0,0,0,1.305-.353l.523-.405a2.581,2.581,0,0,0,.666-1.141c.027-.12.055-.239.083-.359a1.966,1.966,0,0,0,.047-1.031,1.93,1.93,0,0,0-.307-.962,2.9,2.9,0,0,0-1.546-1.189l-.688-.092a2.568,2.568,0,0,0-1.3.353c-.175.135-.349.27-.524.4a2.6,2.6,0,0,0-.665,1.142Z" fill="#fff"/>
      </g>
      <g id="Group_1257" data-name="Group 1257">
        <g id="Group_1255" data-name="Group 1255">
          <path id="Path_1239" data-name="Path 1239" d="M5058.9,985.944q-6.985,14.069-14.745,27.728c-1.647,2.9,2.821,5.509,4.467,2.611q7.758-13.658,14.745-27.728c1.475-2.973-2.985-5.6-4.467-2.611Z" fill="#fff"/>
        </g>
        <g id="Group_1256" data-name="Group 1256">
          <path id="Path_1240" data-name="Path 1240" d="M5042.489,1026.912c3.328,0,3.334-5.173,0-5.173s-3.334,5.173,0,5.173Z" fill="#fff"/>
        </g>
      </g>
      <g id="Group_1258" data-name="Group 1258">
        <path id="Path_1241" data-name="Path 1241" d="M5081.961,1043.227l-.052.222c-.344,1.472,1.923,2.1,2.267.625l.052-.222c.344-1.472-1.923-2.1-2.267-.625l-.052.222c-.344,1.472,1.923,2.1,2.267.625l.052-.222c.344-1.472-1.923-2.1-2.267-.625Z" fill="#004990"/>
      </g>
      <g id="Group_1259" data-name="Group 1259">
        <path id="Path_1242" data-name="Path 1242" d="M5048.263,1111.324a26.725,26.725,0,0,0,23.113-9,24.712,24.712,0,0,0,3.939-6.1,1.212,1.212,0,0,0-.422-1.609,1.183,1.183,0,0,0-1.608.422A24.567,24.567,0,0,1,5055,1108.889a22.736,22.736,0,0,1-6.736.084,1.181,1.181,0,0,0-1.175,1.176,1.2,1.2,0,0,0,1.175,1.175Z" fill="#004990"/>
      </g>
    </g>
    <g id="Group_1265" data-name="Group 1265">
      <g id="Group_1263" data-name="Group 1263">
        <path id="Path_1247" data-name="Path 1247" d="M5121.746,1154.228l-19.951-4.131-11.9-36.63Z" fill="#fff"/>
        <path id="Path_1248" data-name="Path 1248" d="M5121.746,1155.728a1.431,1.431,0,0,1-.3-.032l-19.95-4.13a1.5,1.5,0,0,1-1.123-1l-11.9-36.63a1.5,1.5,0,0,1,2.609-1.388l31.852,40.76a1.5,1.5,0,0,1-1.181,2.424Zm-18.793-6.922,15.093,3.124-24.1-30.837Z" fill="#004990"/>
      </g>
      <g id="Group_1264" data-name="Group 1264">
        <path id="Path_1249" data-name="Path 1249" d="M5109.633,1121.1l.97-8.833-21.7-6.635Z" fill="#fff"/>
        <path id="Path_1250" data-name="Path 1250" d="M5109.632,1122.6a1.5,1.5,0,0,1-.9-.3l-20.728-15.469a1.5,1.5,0,0,1,1.336-2.637l21.7,6.635a1.5,1.5,0,0,1,1.053,1.6l-.971,8.834a1.5,1.5,0,0,1-1.491,1.336Zm-12.918-13.013,11.714,8.742.548-4.992Z" fill="#004990"/>
      </g>
    </g>
  </g>
</svg>
