<svg xmlns="http://www.w3.org/2000/svg" xmlns:xlink="http://www.w3.org/1999/xlink" width="375" height="2011" viewBox="0 0 375 2011">
  <defs>
    <clipPath id="clip-bg-winners-banner">
      <rect width="375" height="2011"/>
    </clipPath>
  </defs>
  <g id="bg-winners-banner" clip-path="url(#clip-bg-winners-banner)">
    <g id="Group_1112" data-name="Group 1112" transform="translate(2.307 -54)">
      <g id="BG左中" transform="translate(-61.443 171.485)">
        <path id="Path_26" data-name="Path 26" d="M473.623,418.687l-98.856-82.5-30.65-2.158-15.908,66.335Z" transform="translate(-301.836 525.879)" fill="#ff4398"/>
        <path id="Path_34" data-name="Path 34" d="M466.8,371.538,320.454,203.612,263.04,252.824,466.8,387.511Z" transform="translate(-281.617 566.343)" fill="#004990" stroke="#004990" stroke-miterlimit="10" stroke-width="2.434"/>
        <g id="Group_20" data-name="Group 20" transform="translate(76.245 846.841)">
          <ellipse id="Ellipse_9" data-name="Ellipse 9" cx="4.211" cy="4.211" rx="4.211" ry="4.211" transform="translate(0 14.705)" fill="#fff" stroke="#004990" stroke-miterlimit="10" stroke-width="2.434"/>
          <ellipse id="Ellipse_10" data-name="Ellipse 10" cx="4.211" cy="4.211" rx="4.211" ry="4.211" transform="translate(14.414 14.705)" fill="#fff" stroke="#004990" stroke-miterlimit="10" stroke-width="2.434"/>
          <ellipse id="Ellipse_11" data-name="Ellipse 11" cx="4.211" cy="4.211" rx="4.211" ry="4.211" transform="translate(0 0)" fill="#fff" stroke="#004990" stroke-miterlimit="10" stroke-width="2.434"/>
          <ellipse id="Ellipse_12" data-name="Ellipse 12" cx="4.211" cy="4.211" rx="4.211" ry="4.211" transform="translate(14.414 0)" fill="#fff" stroke="#004990" stroke-miterlimit="10" stroke-width="2.434"/>
        </g>
      </g>
      <g id="BG下" transform="translate(0 40.867)">
        <g id="Group_1072" data-name="Group 1072" transform="translate(272.607 363.125)">
          <path id="Path_35" data-name="Path 35" d="M573.088,189.406,793.612,53.458l-221.48,189.72Z" transform="translate(-611.132 948.325)" fill="#004990" stroke="#004990" stroke-miterlimit="10" stroke-width="2.434"/>
          <path id="Path_36" data-name="Path 36" d="M705.058,171.534l19.047-22.877,89.037,16.531L841.586,112.7l3.835,6.612-24.054,55.791-97.261-2.994-19.772,8.367Z" transform="translate(-683.502 957.879)" fill="#00ff5f" stroke="#004990" stroke-miterlimit="10" stroke-width="2.434"/>
        </g>
        <path id="Path_31" data-name="Path 31" d="M791.538,464.462,326.924,557.278l90.714,106.807,368.291-175.52Z" transform="translate(-426.231 778.538)" fill="#004990" stroke="#004990" stroke-miterlimit="10" stroke-width="2.434"/>
        <path id="Path_32" data-name="Path 32" d="M357.877,786.447l17.136-3.193L404.023,705.7l205.538-75.557L556.6,584.865,392.7,683.759Z" transform="translate(-395.014 788.667)" fill="rgba(0,73,144,0.51)" stroke="#004990" stroke-miterlimit="10" stroke-width="1.654"/>
      </g>
      <g id="右上中獎名單" transform="translate(258.319 -119)">
        <path id="Path_29" data-name="Path 29" d="M0,15.159l197.5,85.3L199.217,43.3,22.136,0Z" transform="translate(-31.319 338.431) rotate(-43)" fill="#004990" stroke="#004990" stroke-miterlimit="10" stroke-width="2.434"/>
        <path id="Path_33" data-name="Path 33" d="M2.282,0,126.116,142.8H51.729L0,10.92Z" transform="matrix(0.588, -0.809, 0.809, 0.588, 6.171, 350.072)" fill="#00ff5f" stroke="#004990" stroke-miterlimit="10" stroke-width="2.434"/>
      </g>
    </g>
  </g>
</svg>
