<svg xmlns="http://www.w3.org/2000/svg" width="106.452" height="33.998" viewBox="0 0 106.452 33.998">
  <g id="Group_1112" data-name="Group 1112" transform="translate(-2497.792 -269.379)">
    <g id="Group_5" data-name="Group 5" transform="translate(2537.039 274.417)">
      <path id="Path_11" data-name="Path 11" d="M2619.478,294.329l0-.027c-.01-.14-.034-.37-.065-.611a7.424,7.424,0,0,0-.289-1.3,7.209,7.209,0,0,0-6.885-5.242,7.569,7.569,0,0,0-.966.064,7.342,7.342,0,0,0-6.294,8.4,7.184,7.184,0,0,0,7.245,6.385,8.334,8.334,0,0,0,.968-.061,7.414,7.414,0,0,0,5.013-2.688.435.435,0,0,0,.1-.314.379.379,0,0,0-.167-.254,14.914,14.914,0,0,0-1.418-.738c-.126-.063-.227-.111-.282-.137a.669.669,0,0,0-.307-.1.376.376,0,0,0-.292.163,4.656,4.656,0,0,1-2.986,1.63,5.439,5.439,0,0,1-.627.04,4.878,4.878,0,0,1-4.55-3.139l-.015-.047.043-.02a5.762,5.762,0,0,1,2.4-.481c.168,0,.34.005.51.02.4.029.79.081,1.205.134a17.932,17.932,0,0,0,2.5.207,12.228,12.228,0,0,0,1.713-.122,8.759,8.759,0,0,0,3.167-1.075c.32-.208.307-.378.287-.69m-2.555-.923a8.641,8.641,0,0,1-1.518.3,7.82,7.82,0,0,1-1.032.06c-.66,0-1.376-.053-2.069-.105l-.025,0c-.642-.048-1.249-.1-1.831-.1a9.168,9.168,0,0,0-1.162.072,8.727,8.727,0,0,0-1.947.478l.008-.09a4.991,4.991,0,0,1,4.264-4.34,5.185,5.185,0,0,1,.627-.037,5.129,5.129,0,0,1,4.725,3.69l.014.054Z" transform="translate(-2588.131 -282.893)" fill="#2e2e2e"/>
      <g id="Group_4" data-name="Group 4" transform="translate(63.822)">
        <path id="Path_12" data-name="Path 12" d="M2698.2,288.432a.342.342,0,0,0-.339-.344h-1.876a.342.342,0,0,0-.337.344v13.314a.343.343,0,0,0,.337.345h1.876a.343.343,0,0,0,.339-.345Z" transform="translate(-2695.232 -283.341)" fill="#2e2e2e"/>
        <path id="Path_13" data-name="Path 13" d="M2696.546,279.011a1.69,1.69,0,1,0,1.692,1.694,1.7,1.7,0,0,0-1.692-1.694" transform="translate(-2694.855 -279.011)" fill="#2e2e2e"/>
      </g>
      <path id="Path_14" data-name="Path 14" d="M2643.908,302c.119,0,.24.006.36.006a7.035,7.035,0,0,0,5.042-2.081,7.561,7.561,0,0,0-5.287-12.776,7.261,7.261,0,0,0-7.077,5.513,16.961,16.961,0,0,0-.3,3.41V306.52a.341.341,0,0,0,.34.345l1.862,0a.345.345,0,0,0,.344-.342l0-6.584.1.1a7.405,7.405,0,0,0,4.617,1.967m.086-12.322a4.807,4.807,0,0,1,4.731,4.976,4.659,4.659,0,0,1-4.589,4.922,4.93,4.93,0,0,1-3.444-1.335,4.769,4.769,0,0,1-1.432-3.5,4.91,4.91,0,0,1,4.734-5.06" transform="translate(-2603.269 -282.893)" fill="#2e2e2e"/>
      <path id="Path_15" data-name="Path 15" d="M2580.1,302c.117,0,.24.006.357.006a7.035,7.035,0,0,0,5.042-2.081,7.561,7.561,0,0,0-5.288-12.776,7.259,7.259,0,0,0-7.077,5.513,16.871,16.871,0,0,0-.3,3.41V306.52a.343.343,0,0,0,.34.345l1.863,0a.346.346,0,0,0,.346-.342l0-6.584.1.1A7.407,7.407,0,0,0,2580.1,302m.081-12.322a4.807,4.807,0,0,1,4.732,4.976,4.66,4.66,0,0,1-4.593,4.922,4.924,4.924,0,0,1-3.44-1.335,4.767,4.767,0,0,1-1.435-3.5,4.912,4.912,0,0,1,4.735-5.06" transform="translate(-2572.83 -282.893)" fill="#2e2e2e"/>
      <path id="Path_16" data-name="Path 16" d="M2668.135,299.665a8.035,8.035,0,0,0,5.681,2.325h.07c3.958-.026,5.729-2.189,5.729-4.322,0-2.949-2.784-3.752-3.636-3.934l-.848-.162c-.69-.136-1.4-.271-2.056-.45-.456-.127-1.941-.623-1.941-1.732,0-1.226,1.354-1.883,2.631-1.883a4.527,4.527,0,0,1,3.108,1.072.579.579,0,0,0,.367.152.541.541,0,0,0,.335-.125,12.964,12.964,0,0,0,1.28-1.1.378.378,0,0,0,.127-.3.533.533,0,0,0-.191-.344,7.5,7.5,0,0,0-5.071-1.714h-.015c-2.968,0-5.207,1.909-5.207,4.435,0,2,1.647,3.428,4.63,4.011l1.874.36c1.226.225,1.917.879,1.893,1.79-.022.892-1.115,1.815-2.911,1.815A5.609,5.609,0,0,1,2670.15,298l-.016-.014a.363.363,0,0,0-.565-.037c-.113.092-1.358,1.079-1.5,1.22a.291.291,0,0,0-.086.208.432.432,0,0,0,.147.285" transform="translate(-2618.218 -282.893)" fill="#2e2e2e"/>
    </g>
    <g id="Group_6" data-name="Group 6" transform="translate(2497.792 269.379)">
      <path id="Path_17" data-name="Path 17" d="M2514.791,303.377a17,17,0,1,1,17-17,17,17,0,0,1-17,17" transform="translate(-2497.792 -269.379)" fill="#fff"/>
      <path id="Path_18" data-name="Path 18" d="M2532.489,285.479a11,11,0,0,1-4.045,12.163c-4.763,3.507-11.7,3.511-21.288,6.533a15.771,15.771,0,0,0,25.333-18.7" transform="translate(-2502.258 -277.058)" fill="#004991"/>
      <path id="Path_19" data-name="Path 19" d="M2525.369,274.869a15.775,15.775,0,0,0-22.156,21.985,32.746,32.746,0,0,0,22.156-21.985" transform="translate(-2498.909 -270.494)" fill="#e51720"/>
    </g>
  </g>
</svg>
