<svg xmlns="http://www.w3.org/2000/svg" width="116.742" height="37.284" viewBox="0 0 116.742 37.284">
  <g id="Group_1111" data-name="Group 1111" transform="translate(-2497.792 -269.379)">
    <g id="Group_5" data-name="Group 5" transform="translate(2540.833 274.904)">
      <path id="Path_11" data-name="Path 11" d="M2620.886,295.023l0-.029c-.011-.153-.037-.406-.071-.67a8.171,8.171,0,0,0-.317-1.426,7.905,7.905,0,0,0-7.551-5.748,8.3,8.3,0,0,0-1.06.07,8.052,8.052,0,0,0-6.9,9.208,7.878,7.878,0,0,0,7.945,7,9.145,9.145,0,0,0,1.061-.067,8.13,8.13,0,0,0,5.5-2.948.476.476,0,0,0,.108-.344.416.416,0,0,0-.183-.279,16.388,16.388,0,0,0-1.555-.809c-.138-.069-.25-.122-.31-.15a.734.734,0,0,0-.337-.1.413.413,0,0,0-.32.179,5.105,5.105,0,0,1-3.275,1.788,5.953,5.953,0,0,1-.688.044,5.349,5.349,0,0,1-4.99-3.442l-.016-.051.048-.022a6.316,6.316,0,0,1,2.63-.527c.185,0,.373.006.559.022.434.032.866.088,1.321.147a19.663,19.663,0,0,0,2.739.227,13.408,13.408,0,0,0,1.879-.134,9.6,9.6,0,0,0,3.472-1.179c.352-.228.337-.415.315-.757m-2.8-1.012a9.485,9.485,0,0,1-1.665.331,8.58,8.58,0,0,1-1.132.065c-.724,0-1.509-.059-2.269-.115l-.028,0c-.7-.053-1.37-.1-2.008-.1a10.051,10.051,0,0,0-1.274.079,9.566,9.566,0,0,0-2.135.524l.009-.1a5.473,5.473,0,0,1,4.676-4.76,5.693,5.693,0,0,1,.688-.041,5.624,5.624,0,0,1,5.181,4.047l.015.059Z" transform="translate(-2586.509 -282.481)" fill="#fff"/>
      <g id="Group_4" data-name="Group 4" transform="translate(69.991)">
        <path id="Path_12" data-name="Path 12" d="M2698.445,288.465a.375.375,0,0,0-.372-.377h-2.058a.375.375,0,0,0-.37.377v14.6a.377.377,0,0,0,.37.378h2.058a.376.376,0,0,0,.372-.378Z" transform="translate(-2695.192 -282.882)" fill="#fff"/>
        <path id="Path_13" data-name="Path 13" d="M2696.709,279.011a1.853,1.853,0,1,0,1.855,1.858,1.86,1.86,0,0,0-1.855-1.858" transform="translate(-2694.855 -279.011)" fill="#fff"/>
      </g>
      <path id="Path_14" data-name="Path 14" d="M2644.61,303.435c.131,0,.263.007.4.007a7.715,7.715,0,0,0,5.529-2.282,8.292,8.292,0,0,0-5.8-14.011,7.963,7.963,0,0,0-7.761,6.046,18.634,18.634,0,0,0-.329,3.74v11.458a.374.374,0,0,0,.374.378l2.041,0a.378.378,0,0,0,.377-.375l0-7.221.11.106a8.121,8.121,0,0,0,5.063,2.157m.094-13.513a5.271,5.271,0,0,1,5.188,5.457,5.11,5.11,0,0,1-5.032,5.4,5.407,5.407,0,0,1-3.777-1.464,5.229,5.229,0,0,1-1.57-3.842,5.385,5.385,0,0,1,5.192-5.549" transform="translate(-2600.043 -282.481)" fill="#fff"/>
      <path id="Path_15" data-name="Path 15" d="M2580.8,303.435c.128,0,.264.007.391.007a7.714,7.714,0,0,0,5.529-2.282,8.291,8.291,0,0,0-5.8-14.011,7.961,7.961,0,0,0-7.76,6.046,18.485,18.485,0,0,0-.33,3.74v11.458a.376.376,0,0,0,.373.378l2.043,0a.379.379,0,0,0,.38-.375l0-7.221.105.106a8.122,8.122,0,0,0,5.072,2.157m.088-13.513a5.272,5.272,0,0,1,5.19,5.457,5.111,5.111,0,0,1-5.037,5.4,5.4,5.4,0,0,1-3.772-1.464,5.229,5.229,0,0,1-1.574-3.842,5.387,5.387,0,0,1,5.193-5.549" transform="translate(-2572.83 -282.481)" fill="#fff"/>
      <path id="Path_16" data-name="Path 16" d="M2668.149,300.875a8.811,8.811,0,0,0,6.23,2.55h.077c4.341-.028,6.283-2.4,6.283-4.74,0-3.234-3.054-4.115-3.987-4.314l-.93-.178c-.757-.149-1.54-.3-2.255-.493-.5-.139-2.129-.683-2.129-1.9,0-1.344,1.485-2.065,2.886-2.065a4.965,4.965,0,0,1,3.408,1.175.635.635,0,0,0,.4.167.593.593,0,0,0,.368-.137,14.274,14.274,0,0,0,1.4-1.211.416.416,0,0,0,.139-.324.584.584,0,0,0-.21-.377,8.22,8.22,0,0,0-5.562-1.88h-.016c-3.255,0-5.71,2.093-5.71,4.864,0,2.2,1.806,3.759,5.077,4.4l2.055.4c1.344.247,2.1.964,2.077,1.963-.024.978-1.224,1.991-3.192,1.991a6.152,6.152,0,0,1-4.205-1.707l-.017-.015a.4.4,0,0,0-.619-.041c-.124.1-1.49,1.183-1.64,1.338a.319.319,0,0,0-.094.228.475.475,0,0,0,.161.312" transform="translate(-2613.407 -282.481)" fill="#fff"/>
    </g>
    <g id="Group_6" data-name="Group 6" transform="translate(2497.792 269.379)">
      <path id="Path_17" data-name="Path 17" d="M2516.434,306.663a18.642,18.642,0,1,1,18.64-18.644,18.642,18.642,0,0,1-18.64,18.644" transform="translate(-2497.792 -269.379)" fill="#fff"/>
      <path id="Path_18" data-name="Path 18" d="M2534.938,285.479a12.06,12.06,0,0,1-4.436,13.339c-5.223,3.846-12.833,3.85-23.346,7.164a17.3,17.3,0,0,0,27.782-20.5" transform="translate(-2501.785 -276.244)" fill="#004991"/>
      <path id="Path_19" data-name="Path 19" d="M2527.808,275.174a17.3,17.3,0,0,0-24.3,24.11,35.911,35.911,0,0,0,24.3-24.11" transform="translate(-2498.791 -270.376)" fill="#e51720"/>
    </g>
  </g>
</svg>
