<svg xmlns="http://www.w3.org/2000/svg" xmlns:xlink="http://www.w3.org/1999/xlink" width="304" height="166" viewBox="0 0 304 166">
  <defs>
    <clipPath id="clip-path">
      <rect id="Rectangle_176" data-name="Rectangle 176" width="355" height="185"/>
    </clipPath>
    <clipPath id="clip-path-2">
      <ellipse id="Ellipse_14" data-name="Ellipse 14" cx="30.3" cy="48.344" rx="30.3" ry="48.344" transform="translate(0 51.493) rotate(-58.201)" fill="none"/>
    </clipPath>
    <clipPath id="clip-test">
      <rect width="304" height="166"/>
    </clipPath>
  </defs>
  <g id="test" clip-path="url(#clip-test)">
    <g id="bg-cd-trumpet" transform="translate(-10 -13)" clip-path="url(#clip-path)">
      <g id="Group_3432" data-name="Group 3432" transform="translate(-22.385 -487.773)">
        <g id="Group_3386" data-name="Group 3386" transform="translate(137.058 -159.045)">
          <path id="Path_2" data-name="Path 2" d="M1167.1,684.91l288.492-173.271Z" transform="translate(-1215.813 146.396)" fill="#004990"/>
          <g id="Group_3084" data-name="Group 3084" transform="translate(159.763 690.741)">
            <g id="Group_3083" data-name="Group 3083">
              <path id="Path_92" data-name="Path 92" d="M1215.63,559.232a.962.962,0,0,1-1.385-.451l-1.726-4.134L1199.9,560.53a.961.961,0,0,1-1.088-1.547l14.235-14.359a.917.917,0,0,1,.183-.145.96.96,0,0,1,1.35.377l2.144,4.115,12.1-8.627c.02-.015.041-.027.06-.04a.961.961,0,0,1,1.24,1.433l-14.245,17.284A.983.983,0,0,1,1215.63,559.232Z" transform="translate(-1197.567 -539.202)" fill="#fff"/>
              <path id="Path_93" data-name="Path 93" d="M1213.43,545l2.654,5.094,13-9.268-14.245,17.285-2.112-5.058-13.53,6.3L1213.43,545m15.652-4.174h0m-16.652,2.532a1.9,1.9,0,0,0-.368.291l-14.235,14.358a1.922,1.922,0,0,0,2.177,3.1l11.716-5.46,1.341,3.21a1.923,1.923,0,0,0,3.257.482l14.214-17.248a1.922,1.922,0,0,0-2.4-2.93l-.047.028-.062.039-.075.051-11.183,7.974-1.632-3.135a1.922,1.922,0,0,0-2.7-.756Zm1.993,3.287Z" transform="translate(-1197.272 -538.906)" fill="#223875"/>
            </g>
          </g>
          <g id="Group_3086" data-name="Group 3086" transform="translate(157.119 676.648)">
            <g id="Group_3085" data-name="Group 3085">
              <path id="Path_94" data-name="Path 94" d="M1231.69,527.928a.984.984,0,0,1-.174.083l-21.075,7.584a.96.96,0,0,1-1.276-1.039l.627-4.436-13.857-1.39a.961.961,0,0,1-.4-1.778.943.943,0,0,1,.258-.109l19.572-5.074a.961.961,0,0,1,1.2.984l-.259,4.632,14.808-1.237a.961.961,0,0,1,.579,1.779Z" transform="translate(-1194.111 -520.778)" fill="#e7458c"/>
              <path id="Path_95" data-name="Path 95" d="M1195.74,527.478l19.572-5.074-.321,5.735,15.909-1.329-21.075,7.584.767-5.427-14.852-1.49m-1-1.643a1.922,1.922,0,0,0,.805,3.556l12.861,1.29-.487,3.445a1.922,1.922,0,0,0,2.554,2.078l21.075-7.584a1.971,1.971,0,0,0,.346-.165,1.922,1.922,0,0,0-1.157-3.558l-13.706,1.145.2-3.529a1.922,1.922,0,0,0-2.4-1.967l-19.572,5.074a1.912,1.912,0,0,0-.515.217Z" transform="translate(-1193.816 -520.482)" fill="#223875"/>
            </g>
          </g>
          <g id="Group_3430" data-name="Group 3430">
            <g id="Group_3420" data-name="Group 3420" transform="translate(-480.761 362.063)">
              <g id="Group_3418" data-name="Group 3418" transform="translate(587.541 358.056)">
                <g id="Group_3388" data-name="Group 3388">
                  <path id="Path_4616" data-name="Path 4616" d="M624.788,454.248,589.05,433.071a.606.606,0,0,1-.259-.787L625.45,359.51a.607.607,0,0,1,.785-.261L664.5,375.29a.659.659,0,0,1,.123.048l.036.019.044.02a.665.665,0,0,1,.263.237L680.027,389.1a.6.6,0,0,1,.154.709L645.53,458.593a.6.6,0,0,1-.676.3L625.223,454.4a.647.647,0,0,1-.3-.067C624.914,454.321,624.809,454.261,624.788,454.248Z" transform="translate(-588.107 -358.599)" fill="#ff4398"/>
                  <g id="Group_3387" data-name="Group 3387">
                    <path id="Path_4617" data-name="Path 4617" d="M663.871,375.359l-.011.023,15.189,13.6L644.4,457.766l-19.76-4.525-.01.02-.063-.037h-.02v-.006l-35.76-21.189,36.66-72.775,38.337,16.073v-.006l.015.013.069.029m.529-1.05-.086-.04-.026-.01c-.033-.016-.068-.03-.1-.043l-38.3-16.055a1.215,1.215,0,0,0-1.572.521l-36.66,72.775a1.215,1.215,0,0,0,.519,1.574l35.661,21.13a1.362,1.362,0,0,0,.182.111l.032.015.047.025a1.35,1.35,0,0,0,.549.143l19.528,4.471a1.2,1.2,0,0,0,1.352-.592l34.65-68.786a1.191,1.191,0,0,0-.306-1.419l-15-13.433a1.332,1.332,0,0,0-.466-.387Z" transform="translate(-587.541 -358.056)" fill="#004990"/>
                  </g>
                </g>
                <g id="Group_3390" data-name="Group 3390" transform="translate(37.724 17.332)">
                  <path id="Path_4618" data-name="Path 4618" d="M660.263,470.156a.294.294,0,0,1-.13-.4l39.243-77.9a.294.294,0,0,1,.395-.13.307.307,0,0,1,.068.047l14.032,13.043a.3.3,0,0,1,.062.348l-34.651,68.786a.293.293,0,0,1-.323.155l-18.624-3.927a.287.287,0,0,1-.072-.027Z" transform="translate(-659.808 -391.403)" fill="#ff4398"/>
                  <g id="Group_3389" data-name="Group 3389">
                    <path id="Path_4619" data-name="Path 4619" d="M699.371,391.724,713.4,404.767l-34.65,68.786-18.624-3.927,39.243-77.9m.265-.525a.588.588,0,0,0-.789.261l-39.243,77.9a.588.588,0,0,0,.261.79.6.6,0,0,0,.143.05l18.624,3.926a.587.587,0,0,0,.647-.311l34.651-68.786a.589.589,0,0,0-.125-.7l-14.032-13.043a.6.6,0,0,0-.136-.094Z" transform="translate(-659.54 -391.136)" fill="#004990"/>
                  </g>
                </g>
                <g id="Group_3406" data-name="Group 3406" transform="translate(30.167 8.643)">
                  <g id="Group_3392" data-name="Group 3392" transform="translate(2.849 1.946)">
                    <path id="Path_4620" data-name="Path 4620" d="M658.02,408.776c-6.7-3.375-8.908-12.557-4.922-20.469s12.678-11.6,19.378-8.229l1.01.509c6.7,3.375,8.908,12.557,4.922,20.47s-12.679,11.6-19.378,8.228Z" transform="translate(-650.82 -378.534)" fill="#005bb7"/>
                    <g id="Group_3391" data-name="Group 3391">
                      <path id="Path_4621" data-name="Path 4621" d="M673.087,380.583c6.566,3.307,8.711,12.3,4.792,20.074s-12.418,11.4-18.983,8.1l-1.01-.509c-6.565-3.307-8.71-12.3-4.791-20.074s12.418-11.4,18.983-8.1l1.01.509m.265-.525-1.01-.509c-6.844-3.448-15.714.3-19.773,8.359s-1.792,17.416,5.052,20.864l1.01.509c6.844,3.448,15.715-.3,19.773-8.358s1.792-17.417-5.052-20.864Z" transform="translate(-650.554 -378.268)" fill="#004990"/>
                    </g>
                  </g>
                  <g id="Group_3395" data-name="Group 3395" transform="translate(3.083 2.181)">
                    <g id="Group_3394" data-name="Group 3394">
                      <path id="Path_4622" data-name="Path 4622" d="M658.179,408.778c-6.642-3.346-8.826-12.457-4.87-20.311s12.578-11.522,19.22-8.177,8.826,12.457,4.869,20.311S664.821,412.123,658.179,408.778Z" transform="translate(-651.161 -378.876)" fill="#005bb7"/>
                      <g id="Group_3393" data-name="Group 3393">
                        <path id="Path_4623" data-name="Path 4623" d="M672.291,380.288c6.565,3.307,8.71,12.3,4.792,20.074s-12.418,11.4-18.984,8.1-8.71-12.3-4.791-20.074,12.418-11.4,18.984-8.1m.158-.315c-6.728-3.389-15.456.313-19.457,8.254s-1.781,17.159,4.948,20.548,15.457-.313,19.457-8.254,1.78-17.159-4.948-20.548Z" transform="translate(-651.002 -378.716)" fill="#004990"/>
                      </g>
                    </g>
                  </g>
                  <g id="Group_3397" data-name="Group 3397" transform="translate(4.055 3.728)">
                    <path id="Path_4624" data-name="Path 4624" d="M659.331,407.987c-5.746-2.895-7.632-10.788-4.2-17.594s10.893-9.989,16.639-7.094l1.01.509c5.747,2.895,7.632,10.787,4.2,17.594s-10.893,9.989-16.64,7.1Z" transform="translate(-653.123 -381.935)" fill="#005bb7"/>
                    <g id="Group_3396" data-name="Group 3396">
                      <path id="Path_4625" data-name="Path 4625" d="M672.378,383.8c5.61,2.826,7.434,10.527,4.073,17.2s-10.634,9.79-16.245,6.964l-1.01-.509c-5.61-2.827-7.434-10.527-4.073-17.2s10.634-9.79,16.245-6.964l1.01.509m.265-.525-1.01-.509c-5.891-2.967-13.532.273-17.034,7.225s-1.558,15.021,4.333,17.989l1.01.509c5.891,2.968,13.532-.274,17.035-7.225S678.535,386.243,672.643,383.275Z" transform="translate(-652.856 -381.669)" fill="#004990"/>
                    </g>
                  </g>
                  <g id="Group_3400" data-name="Group 3400">
                    <g id="Group_3399" data-name="Group 3399">
                      <ellipse id="Ellipse_9" data-name="Ellipse 9" cx="13.704" cy="11.551" rx="13.704" ry="11.551" transform="translate(0 24.478) rotate(-63.256)" fill="#00ff5f"/>
                      <g id="Group_3398" data-name="Group 3398" transform="translate(4.29 3.963)">
                        <path id="Path_4626" data-name="Path 4626" d="M671.581,383.508c5.611,2.826,7.434,10.527,4.073,17.2s-10.634,9.79-16.244,6.964-7.434-10.527-4.073-17.2,10.634-9.79,16.244-6.964m.159-.315c-5.775-2.909-13.275.286-16.718,7.121s-1.547,14.763,4.229,17.673,13.275-.285,16.719-7.12,1.546-14.764-4.229-17.673Z" transform="translate(-653.304 -382.117)" fill="#004990"/>
                      </g>
                    </g>
                  </g>
                  <g id="Group_3402" data-name="Group 3402" transform="translate(6.584 7.488)">
                    <path id="Path_4627" data-name="Path 4627" d="M663.4,407.57c-.1-.052-.2-.11-.3-.168l-.111-.067-.086-.032c-.1-.043-.209-.086-.312-.138-4.129-2.08-5.572-7.576-3.217-12.251s7.63-6.787,11.76-4.707c.1.051.2.108.293.166l.114.069.091.035c.1.043.206.085.307.137,4.129,2.08,5.573,7.576,3.218,12.251S667.526,409.65,663.4,407.57Z" transform="translate(-657.95 -389.112)" fill="#005bb7"/>
                    <g id="Group_3401" data-name="Group 3401">
                      <path id="Path_4628" data-name="Path 4628" d="M671.541,390.608c3.991,2.01,5.373,7.318,3.087,11.856s-7.373,6.587-11.364,4.577c-.136-.069-.261-.15-.391-.226-.139-.059-.279-.111-.414-.18-3.991-2.01-5.373-7.319-3.087-11.856s7.374-6.587,11.364-4.577c.136.069.261.15.391.226.138.059.278.111.414.18m.265-.526c-.116-.058-.225-.1-.332-.147l-.082-.034-.076-.046c-.1-.059-.2-.12-.315-.179-4.274-2.153-9.726.017-12.154,4.837s-.926,10.493,3.347,12.646c.115.058.225.1.331.147l.082.034.076.046c.1.059.2.121.315.179,4.274,2.153,9.727-.017,12.155-4.837s.926-10.493-3.348-12.646Z" transform="translate(-657.684 -388.845)" fill="#004990"/>
                    </g>
                  </g>
                  <g id="Group_3405" data-name="Group 3405" transform="translate(7.625 8.129)">
                    <g id="Group_3404" data-name="Group 3404">
                      <path id="Path_4629" data-name="Path 4629" d="M664.289,407.94c-4.071-2.051-5.491-7.476-3.165-12.093s7.53-6.7,11.6-4.655,5.491,7.476,3.165,12.093S668.36,409.991,664.289,407.94Z" transform="translate(-659.829 -390.228)" fill="#005bb7"/>
                      <g id="Group_3403" data-name="Group 3403">
                        <path id="Path_4630" data-name="Path 4630" d="M672.486,391.19c3.99,2.01,5.373,7.319,3.087,11.856s-7.373,6.587-11.364,4.577-5.373-7.318-3.087-11.856,7.374-6.587,11.364-4.576m.159-.315c-4.158-2.094-9.469.029-11.839,4.733s-.915,10.236,3.243,12.33,9.469-.028,11.839-4.733S676.8,392.971,672.645,390.876Z" transform="translate(-659.669 -390.068)" fill="#004990"/>
                      </g>
                    </g>
                  </g>
                </g>
                <g id="Group_3416" data-name="Group 3416" transform="translate(3.788 34.752)">
                  <g id="Group_3408" data-name="Group 3408" transform="translate(6.503 6.001)">
                    <path id="Path_4631" data-name="Path 4631" d="M616.877,476.134c-8.872-4.469-11.787-16.647-6.5-27.148s16.81-15.407,25.682-10.937l.939.473c8.872,4.469,11.786,16.647,6.5,27.148s-16.81,15.407-25.682,10.937Z" transform="translate(-607.448 -436.103)" fill="#005bb7"/>
                    <g id="Group_3407" data-name="Group 3407">
                      <path id="Path_4632" data-name="Path 4632" d="M636.6,438.518c8.741,4.4,11.592,16.381,6.367,26.753s-16.546,15.211-25.287,10.807l-.939-.473c-8.741-4.4-11.591-16.381-6.366-26.753s16.546-15.211,25.287-10.807l.939.473m.265-.525-.939-.473c-9.017-4.542-20.715.423-26.077,11.068s-2.389,23,6.627,27.542l.939.473c9.017,4.542,20.715-.423,26.077-11.068S645.882,442.535,636.866,437.993Z" transform="translate(-607.182 -435.836)" fill="#004990"/>
                    </g>
                  </g>
                  <g id="Group_3411" data-name="Group 3411">
                    <g id="Group_3410" data-name="Group 3410">
                      <ellipse id="Ellipse_10" data-name="Ellipse 10" cx="21.205" cy="17.898" rx="21.205" ry="17.898" transform="translate(0 37.875) rotate(-63.256)" fill="#005bb7"/>
                      <g id="Group_3409" data-name="Group 3409" transform="translate(6.737 6.235)">
                        <path id="Path_4633" data-name="Path 4633" d="M635.877,438.258c8.741,4.4,11.591,16.381,6.367,26.753s-16.546,15.211-25.287,10.807-11.591-16.381-6.367-26.753,16.546-15.211,25.287-10.807m.159-.315c-8.9-4.484-20.458.434-25.761,10.964S607.9,471.65,616.8,476.133s20.457-.434,25.761-10.964,2.378-22.743-6.523-27.226Z" transform="translate(-607.63 -436.284)" fill="#004990"/>
                      </g>
                    </g>
                  </g>
                  <g id="Group_3414" data-name="Group 3414" transform="translate(8.538 8.582)">
                    <g id="Group_3413" data-name="Group 3413">
                      <path id="Path_4634" data-name="Path 4634" d="M619.585,475.808c-7.875-3.967-10.529-14.645-5.916-23.8s14.773-13.381,22.649-9.414,10.529,14.645,5.916,23.8S627.461,479.775,619.585,475.808Z" transform="translate(-611.227 -440.924)" fill="#005bb7"/>
                      <g id="Group_3412" data-name="Group 3412">
                        <path id="Path_4635" data-name="Path 4635" d="M636.079,442.588c7.8,3.93,10.414,14.481,5.838,23.567s-14.611,13.265-22.412,9.336-10.415-14.481-5.838-23.567,14.611-13.265,22.412-9.336m.159-.315c-7.962-4.011-18.229.247-22.886,9.492s-1.968,20.029,5.995,24.04,18.229-.247,22.885-9.492S644.2,446.284,636.238,442.273Z" transform="translate(-611.067 -440.764)" fill="#004990"/>
                      </g>
                    </g>
                  </g>
                  <g id="Group_3415" data-name="Group 3415" transform="translate(3.713 4.299)">
                    <ellipse id="Ellipse_11" data-name="Ellipse 11" cx="17.56" cy="15.262" rx="17.56" ry="15.262" transform="translate(0 31.365) rotate(-63.264)" fill="#00ff5f"/>
                    <path id="Path_4636" data-name="Path 4636" d="M636.3,444.385c7.43,3.743,9.965,13.751,5.653,22.312s-13.865,12.48-21.294,8.738-9.965-13.752-5.653-22.312,13.865-12.48,21.294-8.738m.159-.315c-7.6-3.83-17.368.16-21.767,8.895s-1.794,18.956,5.809,22.786,17.368-.16,21.767-8.895S644.062,447.9,636.459,444.07Z" transform="translate(-606.948 -437.362)" fill="#004990"/>
                  </g>
                  <path id="Path_4637" data-name="Path 4637" d="M646.13,466.486c2.676,1.348,3.521,5.068,1.889,8.309s-5.125,4.776-7.8,3.428-3.521-5.068-1.889-8.309,5.125-4.775,7.8-3.428m.159-.315c-2.845-1.434-6.557.174-8.275,3.584s-.8,7.349,2.045,8.783,6.557-.175,8.275-3.584.8-7.349-2.045-8.782Z" transform="translate(-614.945 -444.027)" fill="#004990"/>
                </g>
                <path id="Path_4638" data-name="Path 4638" d="M732.056,394.026a2.1,2.1,0,0,1,2.652-.727c-.73-.9-1.722-1.9-2.85-1.635a2.635,2.635,0,0,1-.239,2.835" transform="translate(-656.13 -374.035)" fill="none" stroke="#004990" stroke-miterlimit="10" stroke-width="0.792"/>
                <path id="Path_4639" data-name="Path 4639" d="M656.816,536.222a3.506,3.506,0,0,0,3.9-2.17,6.787,6.787,0,0,0-.324,2,2.288,2.288,0,0,0,.838,1.777l-2.683-.944.146.15" transform="translate(-620.519 -441.84)" fill="none" stroke="#004990" stroke-miterlimit="10" stroke-width="0.792"/>
                <path id="Path_4640" data-name="Path 4640" d="M751.148,415.6l1.729,1.122a.7.7,0,0,1,.25,1.155q-1.838,3.408-3.733,6.784" transform="translate(-664.591 -385.449)" fill="none" stroke="#004990" stroke-miterlimit="10" stroke-width="0.792"/>
                <path id="Path_4641" data-name="Path 4641" d="M745.55,440.409" transform="translate(-662.762 -397.261)" fill="none" stroke="#004990" stroke-miterlimit="10" stroke-width="0.792"/>
                <path id="Path_4642" data-name="Path 4642" d="M729.662,448.657q-6.8,13.758-13.84,27.39" transform="translate(-648.609 -401.187)" fill="none" stroke="#004990" stroke-miterlimit="10" stroke-width="0.792"/>
                <path id="Path_4643" data-name="Path 4643" d="M676.478,514.465a108.546,108.546,0,0,0-5.016,10.13,1.619,1.619,0,0,0-.16,1.3,1.581,1.581,0,0,0,1.128.682,25.176,25.176,0,0,0,6.479.735" transform="translate(-627.375 -432.515)" fill="none" stroke="#004990" stroke-miterlimit="10" stroke-width="0.792"/>
                <path id="Path_4644" data-name="Path 4644" d="M603.875,475.951a15.278,15.278,0,0,0,.594,9.762" transform="translate(-595.063 -414.18)" fill="none" stroke="#004990" stroke-miterlimit="10" stroke-width="0.792"/>
                <path id="Path_4645" data-name="Path 4645" d="M607.458,498.384l-.032.14" transform="translate(-597.007 -424.86)" fill="none" stroke="#004990" stroke-miterlimit="10" stroke-width="0.792"/>
                <path id="Path_4646" data-name="Path 4646" d="M690.545,430.748a17.127,17.127,0,0,0,9.611-10.721" transform="translate(-636.576 -387.558)" fill="none" stroke="#004990" stroke-miterlimit="10" stroke-width="0.792"/>
                <path id="Path_4647" data-name="Path 4647" d="M662.086,390.482a9.383,9.383,0,0,1,8.57-4.1" transform="translate(-623.028 -371.52)" fill="none" stroke="#fff" stroke-miterlimit="10" stroke-width="0.792"/>
                <path id="Path_4648" data-name="Path 4648" d="M657.862,402.537" transform="translate(-621.017 -379.231)" fill="none" stroke="#fff" stroke-miterlimit="10" stroke-width="0.792"/>
                <path id="Path_4649" data-name="Path 4649" d="M616.705,456.177A15.637,15.637,0,0,1,630.23,445.3" transform="translate(-601.424 -399.591)" fill="none" stroke="#fff" stroke-miterlimit="10" stroke-width="0.792"/>
                <path id="Path_4650" data-name="Path 4650" d="M640.109,444.474" transform="translate(-612.566 -399.196)" fill="none" stroke="#fff" stroke-miterlimit="10" stroke-width="0.792"/>
                <path id="Path_4651" data-name="Path 4651" d="M617.279,479.478l-.051.22" transform="translate(-601.673 -415.859)" fill="none" stroke="#fff" stroke-miterlimit="10" stroke-width="0.792"/>
                <g id="Group_3417" data-name="Group 3417" transform="translate(25.341 10.027)">
                  <path id="Path_4652" data-name="Path 4652" d="M649.511,377.193q-4.275,8.626-9.039,17" transform="translate(-638.08 -377.193)" fill="none" stroke="#fff" stroke-miterlimit="10" stroke-width="0.792"/>
                  <path id="Path_4653" data-name="Path 4653" d="M635.906,420.572" transform="translate(-635.906 -397.844)" fill="none" stroke="#fff" stroke-miterlimit="10" stroke-width="0.792"/>
                </g>
                <path id="Path_4654" data-name="Path 4654" d="M683.386,443.052h0" transform="translate(-633.153 -398.519)" fill="none" stroke="#004990" stroke-miterlimit="10" stroke-width="0.792"/>
                <path id="Path_4655" data-name="Path 4655" d="M642.662,512.9a15.643,15.643,0,0,0,15.961-8.9" transform="translate(-613.781 -427.531)" fill="none" stroke="#004990" stroke-miterlimit="10" stroke-width="0.792"/>
              </g>
              <g id="Group_3419" data-name="Group 3419" transform="translate(640.029 445.457)">
                <path id="Path_4657" data-name="Path 4657" d="M707.245,549.855l-12.23-2.532-7.3-22.455Z" transform="translate(-687.719 -524.868)" fill="#fff" stroke="#004990" stroke-linecap="round" stroke-linejoin="round" stroke-width="2.796"/>
                <path id="Path_4658" data-name="Path 4658" d="M710.281,535.07l.594-5.415-13.3-4.067Z" transform="translate(-692.411 -525.21)" fill="#fff" stroke="#004990" stroke-linecap="round" stroke-linejoin="round" stroke-width="2.796"/>
              </g>
            </g>
            <g id="Group_3425" data-name="Group 3425" transform="translate(-468.836 426.943)">
              <ellipse id="Ellipse_12" data-name="Ellipse 12" cx="30.895" cy="49.294" rx="30.895" ry="49.294" transform="translate(354.163 272.38) rotate(-58.201)" fill="#ff4398" stroke="#004990" stroke-miterlimit="10" stroke-width="4.867"/>
              <ellipse id="Ellipse_13" data-name="Ellipse 13" cx="30.895" cy="49.294" rx="30.895" ry="49.294" transform="translate(354.163 272.38) rotate(-58.201)" fill="#ff4398"/>
              <path id="Path_4662" data-name="Path 4662" d="M400.282,298.281c-9.407-8.735-15.041-19.543-14.02-28.933,1.561-14.35,18.1-20.2,37.558-13.741" transform="translate(-11.288 -11.69)" fill="#ff4398" stroke="#004990" stroke-miterlimit="10" stroke-width="1.715"/>
              <path id="Path_4663" data-name="Path 4663" d="M463.141,271.862c12.312,9.267,20.15,22.126,18.96,33.062-1.523,14-17.306,19.912-36.15,14.189" transform="translate(-32.4 -18.35)" fill="#ff4398" stroke="#004990" stroke-miterlimit="10" stroke-width="1.715"/>
              <path id="Path_4664" data-name="Path 4664" d="M394.289,273.658c1.409-12.953,16.973-17.873,34.763-10.989A54.288,54.288,0,0,1,451.7,279.12" transform="translate(-14.164 -14.007)" fill="#ff4398" stroke="#004990" stroke-miterlimit="10" stroke-width="1.478"/>
              <path id="Path_4665" data-name="Path 4665" d="M464.6,319.2c-1.409,12.953-16.973,17.873-34.763,10.989a55.347,55.347,0,0,1-18.878-12.228" transform="translate(-20.047 -34.624)" fill="#ff4398" stroke="#004990" stroke-miterlimit="10" stroke-width="1.478"/>
              <g id="Group_3423" data-name="Group 3423" transform="translate(355.284 220.882)">
                <g id="Group_3422" data-name="Group 3422" clip-path="url(#clip-path-2)">
                  <path id="Path_4666" data-name="Path 4666" d="M408.754,227.579s-4,5.642,8.615,11.853c0,0,3.829.672.718,6.062-1.5,2.593-.525,6.417,1.751,8.677,1.665,1.654,4.087,4.654,6.448,5.866,0,0,1.814,1.582.309,11.155s12.538,12.873,12.538,12.873,3.268.012-1.728,4.266c0,0-8,5.007,2.633,9.252,0,0,16.562,7.218,10.633,8.232a6.311,6.311,0,0,1-2.464-.111c-2.236-.509-4.6-2.254-9.661-2.18a37,37,0,0,1-11.914-1.7c-4.068-1.3-10.9-1.892-5.5,5.884l2.787,5.44,28.181,14.04-1.911-3.159s-15.651-13.47-4.66-12.33c0,0,18.307,2.831,11.555-5.942A13.052,13.052,0,0,0,453,302.234c-4.783-2.6-18.264-10.689-9.929-14.979,0,0-5.652-15.332-9.238-19.206,0,0,1.662-10.788-3.806-13.148a8.516,8.516,0,0,1-2.637-1.689c-1.526-1.48-2.885-3.918.723-6.387,5.772-3.951-.7-7.152-2.276-8.318s-5.463-5.3-1.986-6.005l1.625-3-14.588-6.2Z" transform="translate(-374.341 -222.093)" fill="#fff"/>
                </g>
              </g>
              <ellipse id="Ellipse_15" data-name="Ellipse 15" cx="13.138" cy="20.962" rx="13.138" ry="20.962" transform="translate(387.6 272.228) rotate(-58.201)" fill="#00ff5f" stroke="#00ff5f" stroke-miterlimit="10" stroke-width="1.53"/>
              <ellipse id="Ellipse_16" data-name="Ellipse 16" cx="4.614" cy="7.362" rx="4.614" ry="7.362" transform="translate(403.65 272.156) rotate(-58.201)" fill="#004990"/>
            </g>
          </g>
        </g>
      </g>
    </g>
  </g>
</svg>
