<svg xmlns="http://www.w3.org/2000/svg" width="22" height="22" viewBox="0 0 22 22">
  <g id="sacn" transform="translate(1 1)">
    <path id="路径_102" data-name="路径 102" d="M1252.6,354.14h-4.614a1.154,1.154,0,0,0-1.154,1.152v4.616" transform="translate(-1246.834 -354.14)" fill="none" stroke="#fff" stroke-linecap="round" stroke-linejoin="round" stroke-width="2"/>
    <path id="路径_103" data-name="路径 103" d="M1252.6,374.9h-4.614a1.153,1.153,0,0,1-1.154-1.152v-4.616" transform="translate(-1246.834 -354.904)" fill="none" stroke="#fff" stroke-linecap="round" stroke-linejoin="round" stroke-width="2"/>
    <path id="路径_104" data-name="路径 104" d="M1261.83,374.9h4.614a1.152,1.152,0,0,0,1.154-1.152v-4.616" transform="translate(-1247.598 -354.904)" fill="none" stroke="#fff" stroke-linecap="round" stroke-linejoin="round" stroke-width="2"/>
    <path id="路径_105" data-name="路径 105" d="M1261.83,354.14h4.614a1.153,1.153,0,0,1,1.154,1.152v4.616" transform="translate(-1247.598 -354.14)" fill="none" stroke="#fff" stroke-linecap="round" stroke-linejoin="round" stroke-width="2"/>
    <path id="路径_106" data-name="路径 106" d="M1262.22,364.522h-10.772" transform="translate(-1246.834 -354.522)" fill="none" stroke="#fff" stroke-linecap="round" stroke-linejoin="round" stroke-width="2"/>
    <path id="路径_107" data-name="路径 107" d="M1258.947,359.908h-3.461" transform="translate(-1247.216 -354.352)" fill="none" stroke="#fff" stroke-linecap="round" stroke-linejoin="round" stroke-width="2"/>
    <path id="路径_108" data-name="路径 108" d="M1258.947,369.136h-3.461" transform="translate(-1247.216 -354.692)" fill="none" stroke="#fff" stroke-linecap="round" stroke-linejoin="round" stroke-width="2"/>
  </g>
</svg>
