<svg xmlns="http://www.w3.org/2000/svg" width="107.715" height="34.401" viewBox="0 0 107.715 34.401">
  <g id="pepsi" transform="translate(-1183.867 -15.425)">
    <g id="Group_3090" data-name="Group 3090">
      <path id="Path_102" data-name="Path 102" d="M1201.068,49.826a17.2,17.2,0,1,1,17.2-17.2,17.2,17.2,0,0,1-17.2,17.2" fill="#fff"/>
      <path id="Path_104" data-name="Path 104" d="M1210.64,19.852A15.961,15.961,0,0,0,1188.222,42.1a33.128,33.128,0,0,0,22.418-22.245" fill="#e51720"/>
    </g>
    <g id="Group_3436" data-name="Group 3436">
      <g id="Group_3089" data-name="Group 3089">
        <path id="Path_96" data-name="Path 96" d="M1255.3,32.094l0-.027c-.01-.141-.034-.374-.066-.618a7.377,7.377,0,0,0-.293-1.316,7.294,7.294,0,0,0-6.966-5.3,7.553,7.553,0,0,0-.978.065,7.429,7.429,0,0,0-6.368,8.5,7.269,7.269,0,0,0,7.331,6.46,8.463,8.463,0,0,0,.979-.061,7.5,7.5,0,0,0,5.073-2.721.438.438,0,0,0,.1-.317.384.384,0,0,0-.169-.257,15.286,15.286,0,0,0-1.435-.747c-.127-.064-.23-.112-.286-.138a.667.667,0,0,0-.31-.1.382.382,0,0,0-.3.165,4.713,4.713,0,0,1-3.022,1.65,5.576,5.576,0,0,1-.634.04,4.936,4.936,0,0,1-4.6-3.175l-.015-.047.044-.021a5.823,5.823,0,0,1,2.426-.487c.171,0,.345.006.517.021.4.03.8.082,1.218.136a18.291,18.291,0,0,0,2.528.209,12.211,12.211,0,0,0,1.733-.124,8.869,8.869,0,0,0,3.205-1.087c.324-.21.31-.383.291-.7m-2.586-.934a8.7,8.7,0,0,1-1.537.305,7.855,7.855,0,0,1-1.044.06c-.668,0-1.393-.054-2.094-.106l-.025,0c-.65-.049-1.264-.1-1.853-.1a9.4,9.4,0,0,0-1.176.072,8.833,8.833,0,0,0-1.97.483l.008-.091a5.05,5.05,0,0,1,4.315-4.391,5.126,5.126,0,0,1,.634-.038,5.187,5.187,0,0,1,4.78,3.734l.015.055Z" fill="#fff"/>
        <g id="Group_3088" data-name="Group 3088">
          <path id="Path_97" data-name="Path 97" d="M1291.16,25.674a.345.345,0,0,0-.343-.348h-1.9a.346.346,0,0,0-.342.348V39.146a.349.349,0,0,0,.342.349h1.9a.347.347,0,0,0,.343-.349Z" fill="#fff"/>
          <path id="Path_98" data-name="Path 98" d="M1289.87,20.522a1.71,1.71,0,1,0,1.712,1.714,1.717,1.717,0,0,0-1.712-1.714" fill="#fff"/>
        </g>
        <path id="Path_99" data-name="Path 99" d="M1264.7,39.855c.12,0,.243.007.364.007a7.118,7.118,0,0,0,5.1-2.106,7.65,7.65,0,0,0-5.349-12.927,7.348,7.348,0,0,0-7.161,5.579,17.119,17.119,0,0,0-.3,3.451V44.43a.344.344,0,0,0,.344.349l1.884,0a.349.349,0,0,0,.348-.346l0-6.662.1.1a7.488,7.488,0,0,0,4.671,1.99m.087-12.468a4.864,4.864,0,0,1,4.787,5.035,4.714,4.714,0,0,1-4.644,4.98,4.987,4.987,0,0,1-3.485-1.35A4.824,4.824,0,0,1,1260,32.507a4.969,4.969,0,0,1,4.791-5.12" fill="#fff"/>
        <path id="Path_100" data-name="Path 100" d="M1230.933,39.855c.118,0,.243.007.361.007a7.114,7.114,0,0,0,5.1-2.106,7.65,7.65,0,0,0-5.35-12.927,7.346,7.346,0,0,0-7.161,5.579,17.083,17.083,0,0,0-.305,3.451V44.43a.349.349,0,0,0,.345.349l1.885,0a.349.349,0,0,0,.35-.346l0-6.662.1.1a7.491,7.491,0,0,0,4.68,1.99m.081-12.468a4.865,4.865,0,0,1,4.789,5.035,4.716,4.716,0,0,1-4.647,4.98,4.979,4.979,0,0,1-3.481-1.35,4.823,4.823,0,0,1-1.453-3.545,4.971,4.971,0,0,1,4.792-5.12" fill="#fff"/>
        <path id="Path_101" data-name="Path 101" d="M1274.089,37.494a8.13,8.13,0,0,0,5.748,2.352h.071c4.005-.026,5.8-2.215,5.8-4.373,0-2.984-2.818-3.8-3.68-3.98l-.858-.164c-.7-.138-1.421-.274-2.081-.455-.461-.129-1.963-.63-1.963-1.752,0-1.241,1.37-1.906,2.662-1.906a4.582,4.582,0,0,1,3.145,1.085.588.588,0,0,0,.371.154.555.555,0,0,0,.34-.126,13.254,13.254,0,0,0,1.3-1.118.383.383,0,0,0,.128-.3.539.539,0,0,0-.194-.348,7.58,7.58,0,0,0-5.131-1.735h-.015c-3,0-5.269,1.931-5.269,4.488,0,2.028,1.667,3.468,4.685,4.058l1.9.365c1.24.227,1.94.889,1.916,1.811-.022.9-1.129,1.837-2.945,1.837a5.673,5.673,0,0,1-3.88-1.575l-.016-.014a.464.464,0,0,0-.294-.157.456.456,0,0,0-.278.12c-.114.092-1.374,1.091-1.513,1.234a.3.3,0,0,0-.087.21.443.443,0,0,0,.149.288" fill="#fff"/>
      </g>
      <path id="Path_103" data-name="Path 103" d="M1214.457,23.945a11.132,11.132,0,0,1-4.093,12.308c-4.819,3.549-11.841,3.553-21.541,6.61a15.958,15.958,0,0,0,25.634-18.918" fill="#004991"/>
    </g>
  </g>
</svg>
