<svg xmlns="http://www.w3.org/2000/svg" width="165.905" height="21.94" viewBox="0 0 165.905 21.94">
  <g id="Group_3432" data-name="Group 3432" transform="translate(2.4 2.4)">
    <g id="Path_160" data-name="Path 160" transform="translate(-1266.788 -275.634)" fill="#fff" stroke-linecap="round" stroke-linejoin="round">
      <path d="M 1281.411499023438 294.349609375 L 1280.465087890625 293.6831359863281 C 1279.976318359375 293.3389282226562 1279.350708007812 292.9318237304688 1278.690185546875 292.5267944335938 C 1277.632080078125 293.0840148925781 1276.380981445312 293.5296020507812 1274.959594726562 293.8547668457031 L 1273.945556640625 294.0867614746094 L 1273.572021484375 293.1159057617188 C 1273.56884765625 293.1076049804688 1273.565551757812 293.0992431640625 1273.562255859375 293.0908203125 C 1272.974975585938 293.4971008300781 1272.352416992188 293.5967407226562 1271.838623046875 293.6291809082031 C 1271.540893554688 293.6596984863281 1271.1259765625 293.6751708984375 1270.604614257812 293.6751708984375 C 1270.213500976562 293.6751708984375 1269.768188476562 293.6661987304688 1269.31689453125 293.649169921875 L 1268.234497070312 293.6083374023438 L 1268.16455078125 292.5274353027344 C 1268.141845703125 292.1768188476562 1267.956665039062 291.6412658691406 1267.75146484375 291.3335876464844 L 1266.37890625 289.2745056152344 L 1266.912719726562 289.3171997070312 L 1267.127197265625 288.3254699707031 C 1267.33740234375 287.352783203125 1267.572143554688 285.9412536621094 1267.733154296875 284.7025451660156 L 1267.371337890625 284.8302612304688 L 1266.883911132812 283.9268188476562 C 1266.67822265625 283.5456237792969 1266.218627929688 282.9194946289062 1265.938354492188 282.638427734375 L 1264.503540039062 281.1998901367188 L 1266.4560546875 280.6378173828125 C 1266.779418945312 280.5447082519531 1267.103393554688 280.4317016601562 1267.426513671875 280.29931640625 L 1266.122192382812 279.5576171875 L 1267.323120117188 278.4440612792969 L 1267.550048828125 278.2337036132812 L 1267.550048828125 278.1719970703125 L 1267.550048828125 276.4979858398438 L 1267.550048828125 275.2979736328125 L 1268.75 275.2979736328125 L 1273.30224609375 275.2979736328125 L 1273.51904296875 275.2438049316406 L 1273.946044921875 275.1370849609375 L 1274.3408203125 275.3317565917969 L 1274.476928710938 275.3988647460938 L 1274.839721679688 275.2919311523438 L 1276.5498046875 274.7879333496094 L 1277.561889648438 274.4896545410156 L 1277.987182617188 275.4552612304688 C 1278.037109375 275.5684204101562 1278.089233398438 275.6789245605469 1278.1435546875 275.7866516113281 C 1278.353393554688 275.5758056640625 1278.544311523438 275.3720092773438 1278.69580078125 275.1951904296875 L 1279.411987304688 274.3594055175781 L 1280.306396484375 275.0008850097656 L 1281.837280273438 276.098876953125 L 1283.1005859375 277.0049438476562 L 1283.011474609375 277.0788879394531 L 1284.136596679688 277.8774108886719 L 1285.360717773438 278.7463073730469 L 1284.243530273438 279.7490234375 C 1284.073974609375 279.9012145996094 1283.894409179688 280.0557250976562 1283.703735351562 280.2132263183594 C 1283.870849609375 280.2669067382812 1284.039428710938 280.3170166015625 1284.20947265625 280.3634948730469 L 1286.301147460938 280.9354553222656 L 1284.70556640625 282.4039611816406 C 1284.435668945312 282.6523742675781 1284.044067382812 283.1611633300781 1283.772705078125 283.6076354980469 L 1283.828979492188 284.28466796875 C 1283.837036132812 284.3817749023438 1283.845092773438 284.4877624511719 1283.853393554688 284.5985717773438 C 1283.879516601562 284.9426879882812 1283.911865234375 285.3709716796875 1283.958251953125 285.6373291015625 L 1284.131469726562 286.6329650878906 L 1283.3642578125 286.9070739746094 L 1283.263671875 287.2018127441406 C 1282.944213867188 288.1369934082031 1282.524780273438 288.9654846191406 1281.994140625 289.7053833007812 C 1282.321166992188 289.9044494628906 1282.628051757812 290.09912109375 1282.901611328125 290.2815551757812 L 1283.96337890625 290.9894714355469 L 1283.191650390625 292.0057678222656 L 1282.111694335938 293.4277648925781 L 1281.411499023438 294.349609375 Z M 1274.783569335938 280.0149841308594 L 1275.3759765625 280.0149841308594 L 1275.93701171875 280.0149841308594 C 1275.73291015625 279.7566833496094 1275.537231445312 279.4895324707031 1275.349975585938 279.2137145996094 C 1275.174438476562 279.4876708984375 1274.985595703125 279.7547912597656 1274.783569335938 280.0149841308594 Z" stroke="none"/>
      <path d="M 1276.889038085938 275.9389953613281 L 1275.178955078125 276.4429931640625 C 1276.04296875 278.3699951171875 1277.2490234375 279.9729919433594 1278.81494140625 281.2149963378906 L 1275.3759765625 281.2149963378906 L 1275.3759765625 282.4930114746094 C 1275.3759765625 283.3039855957031 1275.213989257812 284.1679992675781 1274.098022460938 284.906005859375 L 1274.098022460938 281.322998046875 L 1271.739013671875 281.322998046875 C 1273.197021484375 280.2250061035156 1274.404052734375 278.8200073242188 1275.1240234375 277.0559997558594 L 1273.81005859375 276.4079895019531 L 1273.449951171875 276.4979858398438 L 1268.75 276.4979858398438 L 1268.75 278.1719970703125 L 1272.297973632812 278.1719970703125 C 1271.990966796875 278.5870056152344 1271.630981445312 278.9649963378906 1271.253051757812 279.3240051269531 C 1270.73095703125 278.9289855957031 1269.974975585938 278.4960021972656 1269.362060546875 278.1900024414062 L 1268.139038085938 279.3240051269531 C 1268.678955078125 279.6310119628906 1269.326049804688 280.0450134277344 1269.81298828125 280.4049987792969 C 1268.8759765625 280.9989929199219 1267.850952148438 281.4849853515625 1266.787963867188 281.7909851074219 C 1267.166015625 282.1700134277344 1267.68798828125 282.8900146484375 1267.93994140625 283.3569946289062 C 1268.498046875 283.1600036621094 1269.037963867188 282.9259948730469 1269.578979492188 282.6549987792969 L 1269.578979492188 282.9429931640625 L 1272.18896484375 282.9429931640625 L 1272.18896484375 284.2040100097656 L 1269.003051757812 284.2040100097656 C 1268.840942382812 285.6270141601562 1268.552978515625 287.4089965820312 1268.300048828125 288.5790100097656 L 1272.0810546875 288.5790100097656 C 1271.954956054688 289.8039855957031 1271.79296875 290.3800048828125 1271.577026367188 290.5780029296875 C 1271.4150390625 290.739990234375 1271.217041015625 290.7579956054688 1270.928955078125 290.7579956054688 C 1270.532958984375 290.7579956054688 1269.650024414062 290.739990234375 1268.75 290.6679992675781 C 1269.073974609375 291.1539916992188 1269.326049804688 291.8930053710938 1269.362060546875 292.4500122070312 C 1270.316162109375 292.4860229492188 1271.253173828125 292.4859924316406 1271.739013671875 292.4330139160156 C 1272.369018554688 292.39599609375 1272.802001953125 292.2529907226562 1273.180053710938 291.8389892578125 C 1273.64697265625 291.3699951171875 1273.864013671875 290.2179870605469 1274.06201171875 287.7869873046875 C 1274.079956054688 287.5350036621094 1274.098022460938 287.031005859375 1274.098022460938 287.031005859375 L 1270.35302734375 287.031005859375 C 1270.406982421875 286.635009765625 1270.461059570312 286.2030029296875 1270.532958984375 285.7879943847656 L 1274.098022460938 285.7879943847656 L 1274.098022460938 285.2479858398438 C 1274.4580078125 285.5719909667969 1274.97998046875 286.0950012207031 1275.178955078125 286.3999938964844 C 1276.672973632812 285.4460144042969 1277.10400390625 284.0960083007812 1277.159057617188 282.8359985351562 L 1278.81494140625 282.8359985351562 L 1278.81494140625 283.8800048828125 C 1278.81494140625 285.3389892578125 1279.10400390625 285.9500122070312 1280.615966796875 285.9500122070312 L 1281.732055664062 285.9500122070312 C 1282.109985351562 285.9500122070312 1282.524047851562 285.9330139160156 1282.776000976562 285.8429870605469 C 1282.703979492188 285.4289855957031 1282.6689453125 284.8160095214844 1282.633056640625 284.3840026855469 C 1282.39794921875 284.4559936523438 1281.967041015625 284.4750061035156 1281.713989257812 284.4750061035156 L 1280.83203125 284.4750061035156 C 1280.598022460938 284.4750061035156 1280.56201171875 284.3299865722656 1280.56201171875 283.8980102539062 L 1280.56201171875 282.3500061035156 C 1281.2099609375 282.6910095214844 1281.8759765625 282.97900390625 1282.614013671875 283.2139892578125 C 1282.901977539062 282.6910095214844 1283.442016601562 281.9360046386719 1283.892944335938 281.52099609375 C 1282.974975585938 281.2699890136719 1282.109985351562 280.927001953125 1281.317993164062 280.5130004882812 C 1281.984008789062 280.0450134277344 1282.759033203125 279.468994140625 1283.442016601562 278.8559875488281 L 1281.89501953125 277.7579956054688 C 1281.407958984375 278.3340148925781 1280.579956054688 279.0910034179688 1279.89599609375 279.6310119628906 C 1279.571044921875 279.3789978027344 1279.246948242188 279.1080017089844 1278.941040039062 278.8200073242188 C 1279.6259765625 278.3340148925781 1280.399047851562 277.68701171875 1281.137939453125 277.0740051269531 L 1279.607055664062 275.9760131835938 C 1279.176025390625 276.47900390625 1278.510009765625 277.1279907226562 1277.9150390625 277.6319885253906 C 1277.5009765625 277.1279907226562 1277.159057617188 276.552001953125 1276.889038085938 275.9389953613281 M 1280.9580078125 286.3999938964844 L 1280.634033203125 286.4549865722656 L 1274.781982421875 286.4549865722656 L 1274.781982421875 287.8770141601562 L 1275.213989257812 287.8770141601562 L 1274.494018554688 288.7409973144531 C 1275.26904296875 289.1549987792969 1276.114013671875 289.6419982910156 1276.996948242188 290.1279907226562 C 1276.06103515625 290.5960083007812 1274.962036132812 290.93798828125 1273.7919921875 291.135986328125 C 1274.134033203125 291.5320129394531 1274.511962890625 292.2170104980469 1274.692016601562 292.6849975585938 C 1276.18701171875 292.3429870605469 1277.572998046875 291.8389892578125 1278.70703125 291.135986328125 C 1279.680053710938 291.7120056152344 1280.5439453125 292.27099609375 1281.156005859375 292.7019958496094 L 1282.235961914062 291.2799987792969 C 1281.696044921875 290.9200134277344 1280.9580078125 290.4700012207031 1280.14697265625 290.0199890136719 C 1281.011962890625 289.1740112304688 1281.678955078125 288.1289978027344 1282.128051757812 286.8139953613281 L 1280.9580078125 286.3999938964844 M 1278.545043945312 289.1380004882812 C 1277.734985351562 288.68798828125 1276.906982421875 288.2730102539062 1276.150024414062 287.8770141601562 L 1279.680053710938 287.8770141601562 C 1279.35498046875 288.3460083007812 1278.97802734375 288.760009765625 1278.545043945312 289.1380004882812 M 1276.889404296875 273.5386047363281 C 1277.389404296875 273.5386047363281 1277.873291015625 273.6957397460938 1278.274780273438 273.979248046875 C 1279.0869140625 273.4367980957031 1280.17626953125 273.4309387207031 1281.005859375 274.0257568359375 L 1282.536743164062 275.1237487792969 C 1282.752075195312 275.2782592773438 1282.937622070312 275.4652709960938 1283.088500976562 275.6755981445312 C 1283.155029296875 275.7138366699219 1283.220336914062 275.7555847167969 1283.2841796875 275.8008422851562 L 1284.8310546875 276.8988342285156 C 1285.425903320312 277.3210144042969 1285.796508789062 277.9907836914062 1285.838134765625 278.718994140625 C 1285.860717773438 279.1153869628906 1285.78466796875 279.5056457519531 1285.623046875 279.8576049804688 C 1285.911987304688 280.1582336425781 1286.122924804688 280.5342102050781 1286.224975585938 280.9539794921875 C 1286.431274414062 281.8023071289062 1286.16064453125 282.6957092285156 1285.518188476562 283.2869262695312 C 1285.39306640625 283.4021301269531 1285.1826171875 283.6603393554688 1284.990844726562 283.9358825683594 C 1285.006469726562 284.0179443359375 1285.017822265625 284.1011657714844 1285.024780273438 284.185302734375 C 1285.033081054688 284.2851257324219 1285.041381835938 284.3940734863281 1285.050048828125 284.5079650878906 C 1285.072875976562 284.8095092773438 1285.104125976562 285.2225036621094 1285.140502929688 285.431640625 C 1285.285034179688 286.2627868652344 1284.982299804688 287.0820007324219 1284.388549804688 287.6209411621094 C 1284.180908203125 288.2234802246094 1283.93017578125 288.7942810058594 1283.637451171875 289.3317260742188 C 1284.150024414062 289.7003784179688 1284.497680664062 290.2571105957031 1284.602783203125 290.8819885253906 C 1284.712524414062 291.5349426269531 1284.547729492188 292.2042541503906 1284.147216796875 292.7315368652344 L 1283.067260742188 294.1535339355469 C 1282.286010742188 295.1824035644531 1280.830322265625 295.4079284667969 1279.774169921875 294.664306640625 C 1279.444458007812 294.43212890625 1279.048828125 294.1694641113281 1278.62109375 293.8978881835938 C 1277.616455078125 294.3604736328125 1276.48046875 294.7378540039062 1275.227294921875 295.0245666503906 C 1274.506469726562 295.1893920898438 1273.779418945312 295.0108947753906 1273.227905273438 294.5868835449219 C 1272.757080078125 294.7438659667969 1272.310180664062 294.8006896972656 1271.937255859375 294.8252868652344 C 1271.598022460938 294.8588562011719 1271.161010742188 294.8751831054688 1270.604614257812 294.8751831054688 C 1270.198608398438 294.8751831054688 1269.737670898438 294.8659057617188 1269.271606445312 294.8482971191406 C 1268.041870117188 294.8019104003906 1267.046508789062 293.8329162597656 1266.967041015625 292.6048583984375 C 1266.956665039062 292.4706115722656 1266.846923828125 292.1399536132812 1266.753051757812 291.9992065429688 C 1266.370361328125 291.425048828125 1266.259033203125 290.7247619628906 1266.424072265625 290.075927734375 C 1265.974609375 289.5126037597656 1265.801879882812 288.7767639160156 1265.954223632812 288.0718994140625 C 1266.120239257812 287.3042602539062 1266.302124023438 286.2526550292969 1266.448486328125 285.2377319335938 C 1266.199584960938 285.0404968261719 1265.986694335938 284.7911682128906 1265.827758789062 284.4966125488281 C 1265.676635742188 284.2164916992188 1265.289794921875 283.6875 1265.088745117188 283.48583984375 C 1264.489135742188 282.884765625 1264.251831054688 282.0116577148438 1264.464477539062 281.1897888183594 C 1264.64404296875 280.4956970214844 1265.1220703125 279.9253234863281 1265.7578125 279.623291015625 C 1265.7568359375 279.6155700683594 1265.755859375 279.6078796386719 1265.755004882812 279.6001281738281 C 1265.675659179688 278.9150695800781 1265.894897460938 278.2329406738281 1266.349975585938 277.7241821289062 L 1266.349975585938 276.4979858398438 C 1266.349975585938 275.1725158691406 1267.424560546875 274.0979919433594 1268.75 274.0979919433594 L 1273.154541015625 274.0979919433594 L 1273.228149414062 274.0796203613281 C 1273.667358398438 273.9698181152344 1274.126220703125 273.9869995117188 1274.55224609375 274.1256408691406 L 1276.210571289062 273.6369018554688 C 1276.43603515625 273.5704650878906 1276.664428710938 273.5386047363281 1276.889404296875 273.5386047363281 Z" stroke="none" fill="#223875"/>
    </g>
    <g id="Path_161" data-name="Path 161" transform="translate(-1266.788 -275.634)" fill="#fff" stroke-linecap="round" stroke-linejoin="round">
      <path d="M 1299.509155273438 293.978271484375 L 1298.79443359375 293.2635192871094 C 1298.204833984375 292.6739807128906 1296.92041015625 291.742919921875 1295.601928710938 290.9385375976562 L 1295.601928710938 292.7210083007812 L 1295.601928710938 293.9210205078125 L 1294.401977539062 293.9210205078125 L 1292.277954101562 293.9210205078125 L 1291.078002929688 293.9210205078125 L 1291.078002929688 292.7210083007812 L 1291.078002929688 290.61669921875 C 1290.044311523438 291.69677734375 1288.673706054688 292.7511291503906 1287.324340820312 293.4866638183594 L 1286.514770507812 293.9279174804688 L 1285.8798828125 293.2593688964844 C 1285.544799804688 292.9065856933594 1284.854614257812 292.25390625 1284.483032226562 291.9966430664062 L 1282.722534179688 290.7779846191406 L 1284.680908203125 289.9124450683594 C 1284.959838867188 289.7891235351562 1285.23486328125 289.6539306640625 1285.501098632812 289.510009765625 L 1285.274047851562 289.510009765625 L 1284.074096679688 289.510009765625 L 1284.074096679688 288.3099975585938 L 1284.074096679688 286.635009765625 L 1284.074096679688 285.4349975585938 L 1285.274047851562 285.4349975585938 L 1286.217041015625 285.4349975585938 L 1286.217041015625 284.7020263671875 L 1285.369995117188 284.7020263671875 L 1285.369995117188 283.5020141601562 L 1285.369995117188 279.3370056152344 L 1284.326049804688 279.3370056152344 L 1284.326049804688 278.1369934082031 L 1284.326049804688 276.4620056152344 L 1284.326049804688 275.2619934082031 L 1285.526000976562 275.2619934082031 L 1301.136962890625 275.2619934082031 L 1302.3369140625 275.2619934082031 L 1302.3369140625 276.4620056152344 L 1302.3369140625 278.1369934082031 L 1302.3369140625 279.3370056152344 L 1301.39990234375 279.3370056152344 L 1301.39990234375 283.5020141601562 L 1301.39990234375 284.7020263671875 L 1300.536010742188 284.7020263671875 L 1300.536010742188 285.4349975585938 L 1301.496948242188 285.4349975585938 L 1302.696899414062 285.4349975585938 L 1302.696899414062 286.635009765625 L 1302.696899414062 288.3099975585938 L 1302.696899414062 289.510009765625 L 1301.496948242188 289.510009765625 L 1301.114379882812 289.510009765625 C 1301.49169921875 289.7796630859375 1301.838989257812 290.045654296875 1302.131225585938 290.2945251464844 L 1303.307983398438 291.2969665527344 L 1302.045043945312 292.1884155273438 L 1300.3349609375 293.3954162597656 L 1299.509155273438 293.978271484375 Z" stroke="none"/>
      <path d="M 1294.401977539062 292.7210083007812 L 1294.401977539062 288.3099975585938 L 1301.496948242188 288.3099975585938 L 1301.496948242188 286.635009765625 L 1285.274047851562 286.635009765625 L 1285.274047851562 288.3099975585938 L 1292.277954101562 288.3099975585938 L 1292.277954101562 292.7210083007812 L 1294.401977539062 292.7210083007812 M 1286.75 292.4330139160156 C 1288.136962890625 291.677001953125 1289.756958007812 290.4159851074219 1290.782958984375 289.1380004882812 L 1288.821044921875 288.4530029296875 C 1287.993041992188 289.4429931640625 1286.552978515625 290.3970031738281 1285.166015625 291.010009765625 C 1285.634033203125 291.3340148925781 1286.390991210938 292.0549926757812 1286.75 292.4330139160156 M 1299.642944335938 292.4150085449219 L 1301.35302734375 291.2080078125 C 1300.380981445312 290.3800048828125 1298.579956054688 289.2279968261719 1297.212036132812 288.5079956054688 L 1295.64599609375 289.5690002441406 C 1297.050048828125 290.3800048828125 1298.81396484375 291.5859985351562 1299.642944335938 292.4150085449219 M 1299.336059570312 285.8599853515625 L 1299.336059570312 284.239990234375 L 1287.4169921875 284.239990234375 L 1287.4169921875 285.8599853515625 L 1299.336059570312 285.8599853515625 M 1300.199951171875 283.5020141601562 L 1300.199951171875 279.1080017089844 L 1296.18603515625 279.1080017089844 L 1296.18603515625 278.1369934082031 L 1301.136962890625 278.1369934082031 L 1301.136962890625 276.4620056152344 L 1285.526000976562 276.4620056152344 L 1285.526000976562 278.1369934082031 L 1290.35205078125 278.1369934082031 L 1290.35205078125 279.1080017089844 L 1286.569946289062 279.1080017089844 L 1286.569946289062 283.5020141601562 L 1300.199951171875 283.5020141601562 M 1296.18603515625 280.6210021972656 L 1298.076049804688 280.6210021972656 L 1298.076049804688 281.9719848632812 L 1296.18603515625 281.9719848632812 L 1296.18603515625 280.6210021972656 M 1292.31396484375 280.6210021972656 L 1294.18701171875 280.6210021972656 L 1294.18701171875 281.9719848632812 L 1292.31396484375 281.9719848632812 L 1292.31396484375 280.6210021972656 M 1288.551025390625 280.6210021972656 L 1290.35205078125 280.6210021972656 L 1290.35205078125 281.9719848632812 L 1288.551025390625 281.9719848632812 L 1288.551025390625 280.6210021972656 M 1292.31396484375 278.1369934082031 L 1294.18701171875 278.1369934082031 L 1294.18701171875 279.1080017089844 L 1292.31396484375 279.1080017089844 L 1292.31396484375 278.1369934082031 M 1294.401977539062 295.1210021972656 L 1292.277954101562 295.1210021972656 C 1291.124267578125 295.1210021972656 1290.160766601562 294.3070373535156 1289.930297851562 293.2220764160156 C 1289.274047851562 293.7166137695312 1288.583374023438 294.1670532226562 1287.898681640625 294.540283203125 C 1286.94384765625 295.0607604980469 1285.758544921875 294.8741760253906 1285.009765625 294.0857543945312 C 1284.645874023438 293.70263671875 1284.035400390625 293.1462707519531 1283.799926757812 292.9833068847656 C 1283.0859375 292.489013671875 1282.694702148438 291.6476135253906 1282.776733398438 290.7831115722656 C 1282.81884765625 290.3400573730469 1282.98193359375 289.9263000488281 1283.23779296875 289.5809631347656 C 1283.00732421875 289.21240234375 1282.8740234375 288.7767944335938 1282.8740234375 288.3099975585938 L 1282.8740234375 286.635009765625 C 1282.8740234375 285.6365356445312 1283.48388671875 284.7804565429688 1284.351318359375 284.4188232421875 C 1284.234375 284.1363220214844 1284.169921875 283.8267517089844 1284.169921875 283.5020141601562 L 1284.169921875 280.117431640625 C 1283.53955078125 279.6849365234375 1283.1259765625 278.9592590332031 1283.1259765625 278.1369934082031 L 1283.1259765625 276.4620056152344 C 1283.1259765625 275.1365356445312 1284.200561523438 274.06201171875 1285.526000976562 274.06201171875 L 1301.136962890625 274.06201171875 C 1302.46240234375 274.06201171875 1303.536987304688 275.1365356445312 1303.536987304688 276.4620056152344 L 1303.536987304688 278.1369934082031 C 1303.536987304688 278.9117736816406 1303.169799804688 279.6008605957031 1302.599975585938 280.0396728515625 L 1302.599975585938 283.5020141601562 C 1302.599975585938 283.8265991210938 1302.535522460938 284.1360473632812 1302.418823242188 284.4184265136719 C 1303.286743164062 284.77978515625 1303.89697265625 285.6361389160156 1303.89697265625 286.635009765625 L 1303.89697265625 288.3099975585938 C 1303.89697265625 288.8979797363281 1303.685546875 289.4365539550781 1303.334594726562 289.8538818359375 C 1303.625 290.2789916992188 1303.7744140625 290.7914733886719 1303.75048828125 291.3171081542969 C 1303.716796875 292.0577392578125 1303.3427734375 292.7412719726562 1302.736938476562 293.1687927246094 L 1301.02685546875 294.3757934570312 C 1300.072631835938 295.0493469238281 1298.771850585938 294.9380798339844 1297.94580078125 294.1120300292969 C 1297.6953125 293.8615417480469 1297.2724609375 293.5212097167969 1296.763427734375 293.1517639160156 C 1296.560424804688 294.2716369628906 1295.580322265625 295.1210021972656 1294.401977539062 295.1210021972656 Z" stroke="none" fill="#223875"/>
    </g>
    <g id="Path_162" data-name="Path 162" transform="translate(-1266.788 -275.634)" fill="#fff" stroke-linecap="round" stroke-linejoin="round">
      <path d="M 1318.255615234375 294.3020935058594 L 1317.540283203125 293.5015563964844 C 1317.132202148438 293.0448608398438 1316.261962890625 292.3126220703125 1315.449829101562 291.6815795898438 C 1314.532104492188 292.5373229980469 1313.325805664062 293.3794250488281 1312.29931640625 293.8605346679688 L 1311.495727539062 294.2372131347656 L 1310.900268554688 293.5791320800781 C 1310.76025390625 293.4244384765625 1310.564575195312 293.2203063964844 1310.353637695312 293.0098266601562 L 1309.81103515625 293.7048645019531 L 1308.855834960938 292.8672790527344 C 1308.529541015625 292.5811157226562 1307.975219726562 292.1727600097656 1307.317016601562 291.7298889160156 C 1306.559814453125 292.5204467773438 1305.548706054688 293.1715393066406 1304.297241210938 293.6729431152344 L 1303.2373046875 294.0975341796875 L 1302.760620117188 293.0600891113281 C 1302.623291015625 292.76123046875 1302.209350585938 292.1526184082031 1301.940063476562 291.8946838378906 L 1300.559936523438 290.572998046875 L 1302.349853515625 289.9039611816406 C 1302.864868164062 289.7114868164062 1303.269409179688 289.5044250488281 1303.588745117188 289.29296875 L 1303.166015625 289.29296875 L 1301.966064453125 289.29296875 L 1301.966064453125 288.0929870605469 L 1301.966064453125 286.3290100097656 L 1301.966064453125 285.1290283203125 L 1302.236206054688 285.1290283203125 C 1302.168579101562 285.0652770996094 1302.107543945312 285.0138549804688 1302.058227539062 284.9802551269531 L 1300.48779296875 283.9121704101562 L 1302.126708984375 282.9524841308594 C 1302.296630859375 282.8529663085938 1302.472290039062 282.724609375 1302.644653320312 282.5770263671875 L 1301.930053710938 282.5770263671875 L 1301.930053710938 281.3770141601562 L 1301.930053710938 279.6849975585938 L 1301.930053710938 278.4849853515625 L 1302.759643554688 278.4849853515625 C 1302.637451171875 278.2061462402344 1302.49072265625 277.9075927734375 1302.330444335938 277.6162719726562 L 1301.65478515625 276.3876647949219 L 1302.973022460938 275.9098205566406 L 1304.4130859375 275.3878173828125 L 1305.045043945312 275.1587524414062 L 1305.045043945312 274.7929992675781 L 1306.244995117188 274.7929992675781 L 1308.099975585938 274.7929992675781 L 1309.299926757812 274.7929992675781 L 1309.299926757812 275.3801879882812 L 1309.476684570312 275.4252624511719 L 1309.924072265625 275.5393676757812 L 1309.924072265625 275.3690185546875 L 1311.1240234375 275.3690185546875 L 1319.623046875 275.3690185546875 L 1320.822998046875 275.3690185546875 L 1320.822998046875 276.5690002441406 L 1320.822998046875 278.406005859375 L 1320.822998046875 279.6060180664062 L 1320.282958984375 279.6060180664062 L 1320.282958984375 289.0840148925781 L 1320.282958984375 290.1268005371094 C 1320.521606445312 290.3320617675781 1320.737060546875 290.5303039550781 1320.914794921875 290.7128295898438 L 1321.891845703125 291.7162780761719 L 1320.75048828125 292.5279235839844 L 1319.130493164062 293.679931640625 L 1318.255615234375 294.3020935058594 Z" stroke="none"/>
      <path d="M 1306.244995117188 275.9930114746094 L 1306.244995117188 279.6849975585938 L 1303.130004882812 279.6849975585938 L 1303.130004882812 281.3770141601562 L 1306.244995117188 281.3770141601562 L 1306.244995117188 284.5280151367188 L 1308.099975585938 284.5280151367188 L 1308.099975585938 282.6910095214844 C 1308.72900390625 283.25 1309.77294921875 284.2579956054688 1310.223999023438 284.7980041503906 L 1311.358032226562 283.447998046875 C 1310.97998046875 283.1600036621094 1309.484985351562 282.0790100097656 1309 281.7909851074219 L 1308.099975585938 282.4580078125 L 1308.099975585938 281.3770141601562 L 1311.016967773438 281.3770141601562 L 1311.016967773438 279.6849975585938 L 1308.099975585938 279.6849975585938 L 1308.099975585938 275.9930114746094 L 1306.244995117188 275.9930114746094 M 1304.822021484375 276.5159912109375 L 1303.381958007812 277.0379943847656 C 1303.777954101562 277.7579956054688 1304.173950195312 278.6579895019531 1304.281982421875 279.27099609375 L 1305.795043945312 278.677001953125 C 1305.6689453125 278.0639953613281 1305.255004882812 277.1820068359375 1304.822021484375 276.5159912109375 M 1311.1240234375 276.5690002441406 L 1311.1240234375 278.406005859375 L 1314.094970703125 278.406005859375 C 1314.02294921875 278.8030090332031 1313.933959960938 279.197998046875 1313.843017578125 279.5950012207031 L 1311.663940429688 279.5950012207031 L 1311.663940429688 289.0840148925781 L 1319.0830078125 289.0840148925781 L 1319.0830078125 279.5950012207031 L 1315.913940429688 279.5950012207031 C 1316.057983398438 279.2170104980469 1316.202026367188 278.8200073242188 1316.345947265625 278.406005859375 L 1319.623046875 278.406005859375 L 1319.623046875 276.5690002441406 L 1311.1240234375 276.5690002441406 M 1317.066040039062 282.2959899902344 L 1313.590942382812 282.2959899902344 L 1313.590942382812 281.1969909667969 L 1317.066040039062 281.1969909667969 L 1317.066040039062 282.2959899902344 M 1317.066040039062 284.8890075683594 L 1313.590942382812 284.8890075683594 L 1313.590942382812 283.7720031738281 L 1317.066040039062 283.7720031738281 L 1317.066040039062 284.8890075683594 M 1317.066040039062 287.4809875488281 L 1313.590942382812 287.4809875488281 L 1313.590942382812 286.364013671875 L 1317.066040039062 286.364013671875 L 1317.066040039062 287.4809875488281 M 1309.180053710938 276.5880126953125 C 1309 277.2720031738281 1308.656982421875 278.2439880371094 1308.369018554688 278.9100036621094 L 1309.738037109375 279.3599853515625 C 1310.079956054688 278.7669982910156 1310.494018554688 277.9020080566406 1310.943969726562 277.0379943847656 L 1309.180053710938 276.5880126953125 M 1304.840942382812 281.7369995117188 C 1304.407958984375 282.5840148925781 1303.56298828125 283.5020141601562 1302.733032226562 283.9880065917969 C 1303.130004882812 284.2579956054688 1303.670043945312 284.8890075683594 1303.9580078125 285.3200073242188 C 1304.858032226562 284.635986328125 1305.6689453125 283.3399963378906 1306.119018554688 282.2049865722656 L 1304.840942382812 281.7369995117188 M 1309.5400390625 284.5459899902344 L 1308.387939453125 285.3200073242188 C 1308.712036132812 285.6080017089844 1309.036010742188 285.9859924316406 1309.323974609375 286.3290100097656 L 1307.93798828125 286.3290100097656 L 1307.93798828125 284.8890075683594 L 1306.100952148438 284.8890075683594 L 1306.100952148438 286.3290100097656 L 1303.166015625 286.3290100097656 L 1303.166015625 288.0929870605469 L 1305.93798828125 288.0929870605469 C 1305.633056640625 289.1549987792969 1304.840942382812 290.2539978027344 1302.77001953125 291.0280151367188 C 1303.14697265625 291.3890075683594 1303.651977539062 292.1260070800781 1303.850952148438 292.5589904785156 C 1305.470947265625 291.9100036621094 1306.47900390625 291.0459899902344 1307.055053710938 290.1279907226562 C 1308.026977539062 290.739990234375 1309.071044921875 291.4599914550781 1309.64697265625 291.9649963378906 L 1310.800048828125 290.4880065917969 C 1310.115966796875 289.947998046875 1308.782958984375 289.1380004882812 1307.739013671875 288.56201171875 C 1307.775024414062 288.3989868164062 1307.81201171875 288.2550048828125 1307.828979492188 288.0929870605469 L 1311.088012695312 288.0929870605469 L 1311.088012695312 286.3290100097656 L 1310.241943359375 286.3290100097656 L 1310.836059570312 285.89599609375 C 1310.583984375 285.5190124511719 1310.026000976562 284.9249877929688 1309.5400390625 284.5459899902344 M 1313.392944335938 289.1740112304688 C 1312.762939453125 289.9299926757812 1311.501953125 290.9200134277344 1310.421997070312 291.4240112304688 C 1310.85400390625 291.8030090332031 1311.447998046875 292.39599609375 1311.7900390625 292.7739868164062 C 1312.942016601562 292.2340087890625 1314.328979492188 291.1900024414062 1315.140014648438 290.2900085449219 L 1313.392944335938 289.1740112304688 M 1317.066040039062 289.2099914550781 L 1315.553955078125 290.2539978027344 C 1316.526000976562 290.9739990234375 1317.839965820312 292.0360107421875 1318.43505859375 292.7019958496094 L 1320.055053710938 291.5499877929688 C 1319.389038085938 290.8659973144531 1318.057006835938 289.8760070800781 1317.066040039062 289.2099914550781 M 1306.244995117188 273.593017578125 L 1308.099975585938 273.593017578125 C 1308.74365234375 273.593017578125 1309.328125 273.8464050292969 1309.759155273438 274.2589416503906 C 1309.763916015625 274.2601013183594 1309.768676757812 274.2612915039062 1309.773315429688 274.2624816894531 L 1310.173461914062 274.3645935058594 C 1310.464965820312 274.2387390136719 1310.786376953125 274.1690063476562 1311.1240234375 274.1690063476562 L 1319.623046875 274.1690063476562 C 1320.948486328125 274.1690063476562 1322.023071289062 275.2435302734375 1322.023071289062 276.5690002441406 L 1322.023071289062 278.406005859375 C 1322.023071289062 278.9813842773438 1321.820556640625 279.5094299316406 1321.483032226562 279.9228820800781 L 1321.483032226562 289.0840148925781 C 1321.483032226562 289.2429809570312 1321.467529296875 289.3982849121094 1321.438110351562 289.5486145019531 C 1321.557373046875 289.6591491699219 1321.670288085938 289.7685546875 1321.774536132812 289.8756713867188 C 1322.263427734375 290.3777465820312 1322.508422851562 291.0684204101562 1322.4453125 291.766357421875 C 1322.382080078125 292.4642944335938 1322.01708984375 293.0997314453125 1321.445922851562 293.505859375 L 1319.825927734375 294.6578674316406 C 1318.829833984375 295.3663330078125 1317.460083007812 295.2127685546875 1316.645385742188 294.3011474609375 C 1316.433471679688 294.06396484375 1316.002319335938 293.6753540039062 1315.478759765625 293.2420959472656 C 1314.628173828125 293.9254455566406 1313.673583984375 294.5416564941406 1312.808715820312 294.9470825195312 C 1311.853759765625 295.3948364257812 1310.71826171875 295.1664123535156 1310.010498046875 294.3843078613281 C 1309.998413085938 294.3709106445312 1309.985717773438 294.3570556640625 1309.97265625 294.3428039550781 C 1309.939331054688 294.3473510742188 1309.905883789062 294.3512268066406 1309.872314453125 294.3544006347656 C 1309.214965820312 294.4162292480469 1308.561157226562 294.204833984375 1308.064697265625 293.76953125 C 1307.908813476562 293.6328125 1307.685546875 293.4588623046875 1307.416259765625 293.2625427246094 C 1306.668701171875 293.8636779785156 1305.77587890625 294.373291015625 1304.743530273438 294.786865234375 C 1303.5556640625 295.2626953125 1302.204345703125 294.723388671875 1301.670166015625 293.5611572265625 C 1301.578735351562 293.3657531738281 1301.253784179688 292.9017028808594 1301.109497070312 292.7607727050781 C 1300.51318359375 292.189697265625 1300.252563476562 291.3524780273438 1300.419067382812 290.5437622070312 C 1300.517333984375 290.0659484863281 1300.7568359375 289.6379699707031 1301.095947265625 289.30810546875 C 1300.88623046875 288.9516906738281 1300.765991210938 288.5364074707031 1300.765991210938 288.0929870605469 L 1300.765991210938 286.3290100097656 C 1300.765991210938 286.051513671875 1300.813110351562 285.7849426269531 1300.899780273438 285.5369873046875 C 1300.520629882812 285.0882263183594 1300.314086914062 284.5092163085938 1300.334350585938 283.906982421875 C 1300.353759765625 283.3341979980469 1300.576538085938 282.7961730957031 1300.949829101562 282.3817138671875 C 1300.808715820312 282.0760803222656 1300.72998046875 281.7357177734375 1300.72998046875 281.3770141601562 L 1300.72998046875 279.6849975585938 C 1300.72998046875 279.1114807128906 1300.93115234375 278.5849304199219 1301.266845703125 278.1720886230469 C 1300.939819335938 277.5623168945312 1300.891845703125 276.8406066894531 1301.135864257812 276.1923217773438 C 1301.382934570312 275.5360107421875 1301.90478515625 275.0206298828125 1302.564086914062 274.7816467285156 L 1304.004150390625 274.2596435546875 C 1304.248291015625 274.171142578125 1304.499267578125 274.1245422363281 1304.748168945312 274.1168823242188 C 1305.158569335938 273.7890014648438 1305.678833007812 273.593017578125 1306.244995117188 273.593017578125 Z" stroke="none" fill="#223875"/>
    </g>
    <g id="Path_163" data-name="Path 163" transform="translate(-1266.788 -275.634)" fill="#fff" stroke-linecap="round" stroke-linejoin="round">
      <path d="M 1338.641967773438 293.3080139160156 L 1337.442016601562 293.3080139160156 L 1321.219970703125 293.3080139160156 L 1320.02001953125 293.3080139160156 L 1320.02001953125 292.1080017089844 L 1320.02001953125 290.1279907226562 L 1320.02001953125 288.927978515625 L 1321.219970703125 288.927978515625 L 1321.838012695312 288.927978515625 L 1321.838012695312 288.68798828125 L 1321.838012695312 287.3605346679688 L 1321.435913085938 286.7715454101562 C 1321.23291015625 286.4740905761719 1320.561157226562 285.7586975097656 1320.295043945312 285.5564880371094 L 1318.778564453125 284.4042358398438 L 1320.472534179688 283.5337219238281 C 1320.58984375 283.4734497070312 1320.6982421875 283.4124755859375 1320.798706054688 283.3509826660156 L 1320.200073242188 283.3509826660156 L 1320.200073242188 282.1510009765625 L 1320.200073242188 280.260986328125 L 1320.200073242188 279.0609741210938 L 1320.81201171875 279.0609741210938 L 1320.81201171875 278.3699951171875 L 1320.81201171875 276.4979858398438 L 1320.81201171875 275.2979736328125 L 1322.011962890625 275.2979736328125 L 1330.18701171875 275.2979736328125 L 1331.386962890625 275.2979736328125 L 1331.386962890625 275.6940307617188 L 1333.318969726562 275.6940307617188 L 1333.43408203125 275.6940307617188 L 1333.43408203125 274.8650207519531 L 1334.634033203125 274.8650207519531 L 1336.6689453125 274.8650207519531 L 1337.868896484375 274.8650207519531 L 1337.868896484375 276.0650024414062 L 1337.868896484375 283.7539978027344 C 1337.868896484375 284.6681213378906 1337.73583984375 285.6592712402344 1336.859985351562 286.3204345703125 L 1336.859985351562 286.7430114746094 L 1336.859985351562 288.68798828125 L 1336.859985351562 288.927978515625 L 1337.442016601562 288.927978515625 L 1338.641967773438 288.927978515625 L 1338.641967773438 290.1279907226562 L 1338.641967773438 292.1080017089844 L 1338.641967773438 293.3080139160156 Z M 1324.97412109375 285.5429992675781 L 1325.709106445312 285.5429992675781 L 1325.709106445312 284.4525146484375 C 1325.500122070312 284.8432312011719 1325.255004882812 285.2069702148438 1324.97412109375 285.5429992675781 Z" stroke="none"/>
      <path d="M 1337.442016601562 292.1080017089844 L 1337.442016601562 290.1279907226562 L 1330.45703125 290.1279907226562 L 1330.45703125 288.68798828125 L 1335.660034179688 288.68798828125 L 1335.660034179688 286.7430114746094 L 1330.45703125 286.7430114746094 L 1330.45703125 285.3030090332031 L 1328.907958984375 285.3030090332031 L 1328.907958984375 282.1510009765625 L 1330.600952148438 282.1510009765625 L 1330.600952148438 280.260986328125 L 1328.907958984375 280.260986328125 L 1328.907958984375 278.3699951171875 L 1330.18701171875 278.3699951171875 L 1330.18701171875 276.4979858398438 L 1322.011962890625 276.4979858398438 L 1322.011962890625 278.3699951171875 L 1323.43505859375 278.3699951171875 L 1323.43505859375 280.260986328125 L 1321.400024414062 280.260986328125 L 1321.400024414062 282.1510009765625 L 1323.218994140625 282.1510009765625 C 1322.947998046875 283.052001953125 1322.35400390625 283.9159851074219 1321.02099609375 284.6010131835938 C 1321.400024414062 284.8890075683594 1322.156005859375 285.697998046875 1322.427001953125 286.0950012207031 C 1324.208984375 285.10400390625 1324.964965820312 283.6279907226562 1325.253051757812 282.1510009765625 L 1326.909057617188 282.1510009765625 L 1326.909057617188 285.6080017089844 L 1328.260009765625 285.6080017089844 L 1328.260009765625 286.7430114746094 L 1323.037963867188 286.7430114746094 L 1323.037963867188 288.68798828125 L 1328.260009765625 288.68798828125 L 1328.260009765625 290.1279907226562 L 1321.219970703125 290.1279907226562 L 1321.219970703125 292.1080017089844 L 1337.442016601562 292.1080017089844 M 1325.39697265625 278.3699951171875 L 1326.909057617188 278.3699951171875 L 1326.909057617188 280.260986328125 L 1325.39697265625 280.260986328125 L 1325.39697265625 278.3699951171875 M 1332.97802734375 285.89599609375 C 1334.238037109375 285.89599609375 1335.156005859375 285.8429870605469 1335.805053710938 285.5549926757812 C 1336.488037109375 285.2479858398438 1336.6689453125 284.7439880371094 1336.6689453125 283.7539978027344 L 1336.6689453125 276.0650024414062 L 1334.634033203125 276.0650024414062 L 1334.634033203125 283.7179870605469 C 1334.634033203125 283.9519958496094 1334.5439453125 284.0060119628906 1334.2919921875 284.0239868164062 C 1334.020874023438 284.0420532226562 1333.156982421875 284.0420227050781 1332.348022460938 284.0060119628906 C 1332.599975585938 284.5280151367188 1332.887939453125 285.3389892578125 1332.97802734375 285.89599609375 M 1333.318969726562 282.97900390625 L 1333.318969726562 276.8940124511719 L 1331.357055664062 276.8940124511719 L 1331.357055664062 282.97900390625 L 1333.318969726562 282.97900390625 M 1337.442016601562 294.5079956054688 L 1321.219970703125 294.5079956054688 C 1319.89453125 294.5079956054688 1318.819946289062 293.4334716796875 1318.819946289062 292.1080017089844 L 1318.819946289062 290.1279907226562 C 1318.819946289062 289.0032348632812 1319.59375 288.0591735839844 1320.637939453125 287.7990417480469 L 1320.637939453125 287.6950988769531 C 1320.569091796875 287.6179809570312 1320.504516601562 287.5355834960938 1320.44482421875 287.4480895996094 C 1320.297973632812 287.238525390625 1319.764526367188 286.6688537597656 1319.565063476562 286.5090026855469 C 1318.911254882812 286.010009765625 1318.558227539062 285.2108154296875 1318.630126953125 284.3912353515625 C 1318.673706054688 283.8949890136719 1318.869384765625 283.4332275390625 1319.179077148438 283.0623474121094 C 1319.063720703125 282.7813110351562 1319 282.4736328125 1319 282.1510009765625 L 1319 280.260986328125 C 1319 279.6376342773438 1319.237670898438 279.0697631835938 1319.627319335938 278.64306640625 C 1319.6171875 278.5534973144531 1319.611938476562 278.4623107910156 1319.611938476562 278.3699951171875 L 1319.611938476562 276.4979858398438 C 1319.611938476562 275.1725158691406 1320.6865234375 274.0979919433594 1322.011962890625 274.0979919433594 L 1330.18701171875 274.0979919433594 C 1330.675170898438 274.0979919433594 1331.129150390625 274.2436828613281 1331.508178710938 274.4940185546875 L 1332.819580078125 274.4940185546875 C 1333.259643554688 273.9862060546875 1333.909301757812 273.6650085449219 1334.634033203125 273.6650085449219 L 1336.6689453125 273.6650085449219 C 1337.994384765625 273.6650085449219 1339.068969726562 274.7395324707031 1339.068969726562 276.0650024414062 L 1339.068969726562 283.7539978027344 C 1339.068969726562 284.3128356933594 1339.06884765625 285.7418823242188 1338.06005859375 286.8438110351562 L 1338.06005859375 287.8083190917969 C 1339.086059570312 288.0809326171875 1339.842041015625 289.0161743164062 1339.842041015625 290.1279907226562 L 1339.842041015625 292.1080017089844 C 1339.842041015625 293.4334716796875 1338.767456054688 294.5079956054688 1337.442016601562 294.5079956054688 Z" stroke="none" fill="#223875"/>
    </g>
    <g id="Path_164" data-name="Path 164" transform="translate(-1266.788 -275.634)" fill="#fff" stroke-linecap="round" stroke-linejoin="round">
      <path d="M 1353.935546875 294.2080688476562 L 1353.05224609375 293.6008911132812 C 1351.8583984375 292.7801818847656 1349.901245117188 291.6629333496094 1348.29296875 290.8840026855469 L 1347.244750976562 290.3762817382812 L 1346.598999023438 290.8042602539062 C 1345.111938476562 291.7897644042969 1342.853393554688 292.9569396972656 1340.844970703125 293.7778015136719 L 1339.919311523438 294.1561279296875 L 1339.380249023438 293.3138122558594 C 1339.110229492188 292.8918151855469 1338.61767578125 292.2377624511719 1338.2822265625 291.8557434082031 L 1337.1357421875 290.550048828125 L 1338.762817382812 289.9403076171875 C 1338.913208007812 289.8839721679688 1339.066040039062 289.8244018554688 1339.220703125 289.7620239257812 L 1339.130004882812 289.7620239257812 L 1337.930053710938 289.7620239257812 L 1337.930053710938 288.56201171875 L 1337.930053710938 286.5809936523438 L 1337.930053710938 285.3809814453125 L 1339.130004882812 285.3809814453125 L 1339.509765625 285.3809814453125 L 1339.24462890625 277.3294982910156 L 1339.214721679688 276.4210205078125 L 1340.081176757812 276.1461791992188 C 1341.13427734375 275.8121032714844 1342.488159179688 275.2881469726562 1343.37353515625 274.8720092773438 L 1344.412109375 274.3838195800781 L 1344.646240234375 274.8289794921875 L 1345.197021484375 274.8289794921875 L 1347.016967773438 274.8289794921875 L 1348.216918945312 274.8289794921875 L 1348.216918945312 276.0289916992188 L 1348.216918945312 276.0539855957031 L 1349.075073242188 276.0539855957031 L 1349.075073242188 275.4599914550781 L 1350.275024414062 275.4599914550781 L 1354.308959960938 275.4599914550781 L 1355.508911132812 275.4599914550781 L 1355.508911132812 276.6600036621094 C 1355.508911132812 279.4982299804688 1355.440063476562 282.8269653320312 1355.332275390625 285.3809814453125 L 1355.640991210938 285.3809814453125 L 1356.840942382812 285.3809814453125 L 1356.840942382812 286.5809936523438 L 1356.840942382812 288.56201171875 L 1356.840942382812 289.7620239257812 L 1355.640991210938 289.7620239257812 L 1355.47119140625 289.7620239257812 C 1355.582885742188 289.8287048339844 1355.68896484375 289.8933715820312 1355.788940429688 289.9557189941406 L 1356.981567382812 290.6993103027344 L 1356.060180664062 291.7606811523438 L 1354.63818359375 293.398681640625 L 1353.935546875 294.2080688476562 Z" stroke="none"/>
      <path d="M 1340.390991210938 292.6669921875 C 1342.155029296875 291.9460144042969 1344.387939453125 290.8299865722656 1345.93603515625 289.8039855957031 L 1344.423950195312 288.56201171875 L 1349.77099609375 288.56201171875 L 1348.816040039062 289.8039855957031 C 1350.599975585938 290.6679992675781 1352.579956054688 291.8200073242188 1353.732055664062 292.6119995117188 L 1355.154052734375 290.9739990234375 C 1354.057006835938 290.2900085449219 1352.255981445312 289.35400390625 1350.56298828125 288.56201171875 L 1355.640991210938 288.56201171875 L 1355.640991210938 286.5809936523438 L 1354.073974609375 286.5809936523438 C 1354.218994140625 283.8800048828125 1354.308959960938 279.864990234375 1354.308959960938 276.6600036621094 L 1350.275024414062 276.6600036621094 L 1350.275024414062 278.4960021972656 L 1352.345947265625 278.4960021972656 C 1352.328002929688 279.0190124511719 1352.328002929688 279.5220031738281 1352.328002929688 280.0450134277344 L 1350.454956054688 280.0450134277344 L 1350.454956054688 281.8099975585938 L 1352.27294921875 281.8099975585938 C 1352.255981445312 282.3309936523438 1352.238037109375 282.85400390625 1352.219970703125 283.3569946289062 L 1350.328979492188 283.3569946289062 L 1350.328979492188 285.1220092773438 L 1352.14697265625 285.1220092773438 C 1352.110961914062 285.6449890136719 1352.093994140625 286.1119995117188 1352.057983398438 286.5809936523438 L 1342.659057617188 286.5809936523438 L 1342.60400390625 285.0679931640625 L 1344.550048828125 285.0679931640625 L 1344.550048828125 283.3219909667969 L 1342.551025390625 283.3219909667969 L 1342.496948242188 281.7730102539062 L 1344.494995117188 281.7730102539062 L 1344.494995117188 280.0260009765625 L 1342.442993164062 280.0260009765625 L 1342.389038085938 278.406005859375 C 1343.198974609375 278.1900024414062 1344.045043945312 277.9750061035156 1344.802001953125 277.7040100097656 L 1343.884033203125 275.9580078125 C 1342.964965820312 276.3900146484375 1341.578979492188 276.9299926757812 1340.443969726562 277.2900085449219 L 1340.75 286.5809936523438 L 1339.130004882812 286.5809936523438 L 1339.130004882812 288.56201171875 L 1344.045043945312 288.56201171875 C 1342.838989257812 289.4429931640625 1340.76904296875 290.4700012207031 1339.183959960938 291.0639953613281 C 1339.579956054688 291.5150146484375 1340.10302734375 292.2170104980469 1340.390991210938 292.6669921875 M 1347.016967773438 286.4190063476562 C 1347.89794921875 286.4190063476562 1348.600952148438 286.4190063476562 1349.068969726562 286.2030029296875 C 1349.555053710938 285.968994140625 1349.698974609375 285.6619873046875 1349.698974609375 284.9249877929688 L 1349.698974609375 280.3510131835938 L 1349.015014648438 280.3510131835938 L 1349.015014648438 280.3330078125 L 1347.016967773438 280.3330078125 L 1347.016967773438 279.0190124511719 L 1349.843017578125 279.0190124511719 L 1349.843017578125 277.2539978027344 L 1347.016967773438 277.2539978027344 L 1347.016967773438 276.0289916992188 L 1345.197021484375 276.0289916992188 L 1345.197021484375 282.0079956054688 L 1347.9169921875 282.0079956054688 L 1347.9169921875 284.9249877929688 C 1347.9169921875 285.0859985351562 1347.862060546875 285.1220092773438 1347.699951171875 285.1220092773438 C 1347.537963867188 285.1410217285156 1347.017211914062 285.1409912109375 1346.547973632812 285.10400390625 C 1346.72900390625 285.4819946289062 1346.943969726562 286.0050048828125 1347.016967773438 286.4190063476562 M 1346.151977539062 285.8240051269531 C 1346.637939453125 285.0679931640625 1346.926025390625 283.8980102539062 1347.052978515625 282.7099914550781 L 1345.468017578125 282.4389953613281 C 1345.378051757812 283.3940124511719 1345.233032226562 284.31298828125 1344.782958984375 284.97900390625 C 1345.161987304688 285.177001953125 1345.864013671875 285.5910034179688 1346.151977539062 285.8240051269531 M 1340.391845703125 295.0672607421875 C 1339.59326171875 295.0672607421875 1338.821899414062 294.6675720214844 1338.369506835938 293.9606323242188 C 1338.156616210938 293.6280517578125 1337.70849609375 293.0210266113281 1337.380493164062 292.6474914550781 C 1336.860229492188 292.0549621582031 1336.664184570312 291.2446899414062 1336.856079101562 290.4798889160156 C 1336.91162109375 290.2587890625 1336.997436523438 290.0497131347656 1337.109252929688 289.857421875 C 1336.869262695312 289.4837341308594 1336.72998046875 289.0391540527344 1336.72998046875 288.56201171875 L 1336.72998046875 286.5809936523438 C 1336.72998046875 285.5567932128906 1337.37158203125 284.6824035644531 1338.274780273438 284.3378295898438 L 1338.045288085938 277.3690185546875 C 1338.009887695312 276.29443359375 1338.693481445312 275.3274230957031 1339.718383789062 275.0023498535156 C 1340.726928710938 274.6824340820312 1342.02001953125 274.1822509765625 1342.863037109375 273.7859802246094 C 1343.449829101562 273.5103149414062 1344.093627929688 273.4922485351562 1344.664184570312 273.6883544921875 C 1344.835571289062 273.6494750976562 1345.013916015625 273.6289978027344 1345.197021484375 273.6289978027344 L 1347.016967773438 273.6289978027344 C 1347.82568359375 273.6289978027344 1348.540893554688 274.0289001464844 1348.975708007812 274.6418151855469 C 1349.350219726562 274.4002380371094 1349.796264648438 274.260009765625 1350.275024414062 274.260009765625 L 1354.308959960938 274.260009765625 C 1355.634399414062 274.260009765625 1356.708984375 275.3345336914062 1356.708984375 276.6600036621094 C 1356.708984375 279.1337585449219 1356.656860351562 281.9794616699219 1356.572265625 284.3683776855469 C 1357.435302734375 284.7320251464844 1358.041015625 285.5857543945312 1358.041015625 286.5809936523438 L 1358.041015625 288.56201171875 C 1358.041015625 289.1833190917969 1357.804809570312 289.7495727539062 1357.41748046875 290.17578125 C 1357.467651367188 290.3179931640625 1357.504638671875 290.4657287597656 1357.52734375 290.6172790527344 C 1357.6318359375 291.3117370605469 1357.4267578125 292.0170593261719 1356.966430664062 292.54736328125 L 1355.54443359375 294.1853637695312 C 1354.743774414062 295.1073608398438 1353.378662109375 295.281494140625 1352.372436523438 294.5897521972656 C 1351.432006835938 293.9432067871094 1349.590454101562 292.8457641601562 1347.769897460938 291.9639892578125 C 1347.630004882812 291.896240234375 1347.498291015625 291.815673828125 1347.3759765625 291.7239990234375 C 1347.3388671875 291.7518615722656 1347.300903320312 291.7786865234375 1347.261840820312 291.8045349121094 C 1345.714721679688 292.8298645019531 1343.374145507812 294.0404357910156 1341.298950195312 294.8886108398438 C 1341.00341796875 295.0093994140625 1340.695678710938 295.0672607421875 1340.391845703125 295.0672607421875 Z" stroke="none" fill="#223875"/>
    </g>
    <g id="Path_165" data-name="Path 165" transform="translate(-1266.788 -275.634)" fill="#fff" stroke-linecap="round" stroke-linejoin="round">
      <path d="M 1374.515991210938 293.5240173339844 L 1373.316040039062 293.5240173339844 L 1357.453979492188 293.5240173339844 L 1356.254028320312 293.5240173339844 L 1356.254028320312 292.3240051269531 L 1356.254028320312 290.5060119628906 L 1356.254028320312 289.3060302734375 L 1357.453979492188 289.3060302734375 L 1358.721069335938 289.3060302734375 L 1358.721069335938 288.4360046386719 L 1358.721069335938 285.8654174804688 C 1358.669799804688 285.8915100097656 1358.6181640625 285.9176025390625 1358.566040039062 285.943603515625 L 1357.583740234375 286.4341125488281 L 1357.008178710938 285.4990539550781 C 1356.761108398438 285.0978393554688 1356.23486328125 284.4556274414062 1355.904052734375 284.1516723632812 L 1354.518432617188 282.8786315917969 L 1356.257202148438 282.1591796875 C 1356.786865234375 281.9400024414062 1357.3349609375 281.6425476074219 1357.866943359375 281.2886657714844 C 1357.650390625 281.1266479492188 1357.430419921875 280.9732360839844 1357.22265625 280.8406677246094 L 1355.982177734375 280.0492248535156 L 1356.903076171875 279.1003112792969 L 1356.903076171875 278.2439880371094 L 1356.903076171875 276.5159912109375 L 1356.903076171875 275.3160095214844 L 1358.10302734375 275.3160095214844 L 1363.284301757812 275.3160095214844 L 1363.5009765625 275.2618408203125 L 1363.934936523438 275.1533203125 L 1364.334106445312 275.3554077148438 L 1364.525390625 275.4523010253906 L 1364.867309570312 275.34912109375 L 1366.7763671875 274.7731323242188 L 1367.828979492188 274.45556640625 L 1368.237182617188 275.4764099121094 C 1368.28662109375 275.5997619628906 1368.34033203125 275.7259826660156 1368.39794921875 275.8543395996094 C 1368.615844726562 275.6423034667969 1368.807373046875 275.4393920898438 1368.956298828125 275.2607116699219 L 1369.668090820312 274.4066467285156 L 1370.573852539062 275.0513305664062 L 1372.19384765625 276.204345703125 L 1373.45556640625 277.1023254394531 L 1373.034790039062 277.4566955566406 L 1374.157470703125 278.2567443847656 L 1375.39013671875 279.1352233886719 L 1374.253662109375 280.135009765625 C 1373.875854492188 280.4673156738281 1373.471435546875 280.7979431152344 1373.078857421875 281.1058349609375 C 1373.546875 281.3807373046875 1374.030029296875 281.6152038574219 1374.525024414062 281.8072509765625 L 1376.487670898438 282.5687255859375 L 1374.832397460938 283.8695068359375 C 1374.530395507812 284.1068115234375 1373.998291015625 284.7835998535156 1373.670288085938 285.3473510742188 L 1373.121459960938 286.2909851074219 L 1372.130249023438 285.8335571289062 C 1372.042724609375 285.793212890625 1371.9560546875 285.7521057128906 1371.869995117188 285.7102355957031 L 1371.869995117188 288.4360046386719 L 1371.869995117188 289.3060302734375 L 1373.316040039062 289.3060302734375 L 1374.515991210938 289.3060302734375 L 1374.515991210938 290.5060119628906 L 1374.515991210938 292.3240051269531 L 1374.515991210938 293.5240173339844 Z" stroke="none"/>
      <path d="M 1373.316040039062 292.3240051269531 L 1373.316040039062 290.5060119628906 L 1368.743041992188 290.5060119628906 C 1369.014038085938 290.0020141601562 1369.318969726562 289.4259948730469 1369.607055664062 288.81298828125 L 1367.824951171875 288.4360046386719 L 1370.670043945312 288.4360046386719 L 1370.670043945312 283.6099853515625 C 1371.281982421875 284.0419921875 1371.931030273438 284.4200134277344 1372.633056640625 284.7439880371094 C 1372.95703125 284.18701171875 1373.587036132812 283.3219909667969 1374.090942382812 282.9259948730469 C 1372.974975585938 282.4930114746094 1371.947998046875 281.8819885253906 1371.030029296875 281.1440124511719 C 1371.805053710938 280.5849914550781 1372.703979492188 279.8999938964844 1373.461059570312 279.2340087890625 L 1371.89501953125 278.1180114746094 C 1371.371948242188 278.7130126953125 1370.56201171875 279.4500122070312 1369.806030273438 280.0260009765625 C 1369.517944335938 279.7210083007812 1369.246948242188 279.4330139160156 1368.994995117188 279.1080017089844 C 1369.77001953125 278.5509948730469 1370.7060546875 277.8489990234375 1371.498046875 277.1820068359375 L 1369.878051757812 276.0289916992188 C 1369.427978515625 276.5690002441406 1368.725952148438 277.2179870605469 1368.041015625 277.7579956054688 C 1367.698974609375 277.1820068359375 1367.375 276.552001953125 1367.123046875 275.9219970703125 L 1365.213989257812 276.4979858398438 C 1365.844970703125 278.010986328125 1366.619018554688 279.4330139160156 1367.590942382812 280.6570129394531 L 1363.27001953125 280.6570129394531 C 1364.079956054688 279.6119995117188 1364.745971679688 278.4419860839844 1365.213989257812 277.14599609375 L 1363.7919921875 276.4259948730469 L 1363.432006835938 276.5159912109375 L 1358.10302734375 276.5159912109375 L 1358.10302734375 278.2439880371094 L 1362.405029296875 278.2439880371094 C 1362.045043945312 278.8930053710938 1361.577026367188 279.5050048828125 1361.036987304688 280.0989990234375 C 1360.551025390625 279.5950012207031 1359.704956054688 279.0360107421875 1359.02099609375 278.6409912109375 L 1357.868041992188 279.8290100097656 C 1358.516967773438 280.2430114746094 1359.27197265625 280.8370056152344 1359.776000976562 281.3410034179688 C 1358.840942382812 282.1510009765625 1357.760009765625 282.8359985351562 1356.715942382812 283.2680053710938 C 1357.14697265625 283.6640014648438 1357.741943359375 284.4020080566406 1358.030029296875 284.8699951171875 C 1358.678955078125 284.5459899902344 1359.308959960938 284.18701171875 1359.921020507812 283.7539978027344 L 1359.921020507812 288.4360046386719 L 1362.550048828125 288.4360046386719 L 1361.126953125 288.885986328125 C 1361.4150390625 289.3720092773438 1361.703002929688 290.0020141601562 1361.864990234375 290.5060119628906 L 1357.453979492188 290.5060119628906 L 1357.453979492188 292.3240051269531 L 1373.316040039062 292.3240051269531 M 1363.161987304688 288.4360046386719 L 1367.536987304688 288.4360046386719 C 1367.321044921875 289.0480041503906 1366.942016601562 289.8760070800781 1366.600952148438 290.5060119628906 L 1363.107055664062 290.5060119628906 L 1364.008056640625 290.2000122070312 C 1363.864013671875 289.7139892578125 1363.5400390625 289.0119934082031 1363.161987304688 288.4360046386719 M 1362.099975585938 285.1579895019531 L 1368.364990234375 285.1579895019531 L 1368.364990234375 286.7430114746094 L 1362.099975585938 286.7430114746094 L 1362.099975585938 285.1579895019531 M 1370.453979492188 283.4660034179688 L 1360.3349609375 283.4660034179688 C 1361.036987304688 282.9620056152344 1361.703002929688 282.4030151367188 1362.31494140625 281.7550048828125 L 1362.31494140625 282.4389953613281 L 1368.56298828125 282.4389953613281 L 1368.56298828125 281.8099975585938 C 1369.156982421875 282.4219970703125 1369.77001953125 282.9620056152344 1370.453979492188 283.4660034179688 M 1373.316040039062 294.7239990234375 L 1357.453979492188 294.7239990234375 C 1356.128540039062 294.7239990234375 1355.053955078125 293.6494750976562 1355.053955078125 292.3240051269531 L 1355.053955078125 290.5060119628906 C 1355.053955078125 289.1805419921875 1356.128540039062 288.1060180664062 1357.453979492188 288.1060180664062 L 1357.52099609375 288.1060180664062 L 1357.52099609375 287.2154235839844 C 1356.902954101562 287.0811157226562 1356.340942382812 286.7042541503906 1355.986206054688 286.1281433105469 C 1355.79931640625 285.8245239257812 1355.33984375 285.2628173828125 1355.092163085938 285.0353698730469 C 1354.488525390625 284.4807739257812 1354.209716796875 283.6564331054688 1354.352783203125 282.8492736816406 C 1354.495727539062 282.0421142578125 1355.040893554688 281.36376953125 1355.79833984375 281.0503540039062 C 1355.79931640625 281.0499572753906 1355.80029296875 281.0495300292969 1355.80126953125 281.0491027832031 C 1355.633056640625 280.7641906738281 1355.523559570312 280.4441528320312 1355.484252929688 280.1073608398438 C 1355.42724609375 279.6189270019531 1355.52197265625 279.1306457519531 1355.747314453125 278.705322265625 C 1355.71826171875 278.5559997558594 1355.703002929688 278.4018249511719 1355.703002929688 278.2439880371094 L 1355.703002929688 276.5159912109375 C 1355.703002929688 275.1905212402344 1356.777587890625 274.1159973144531 1358.10302734375 274.1159973144531 L 1363.136474609375 274.1159973144531 L 1363.209838867188 274.09765625 C 1363.677368164062 273.9807739257812 1364.1669921875 274.0077819824219 1364.615478515625 274.1716918945312 L 1366.429809570312 273.6242980957031 C 1367.1904296875 273.3946838378906 1367.983032226562 273.5610046386719 1368.576538085938 274.0119323730469 C 1369.381958007812 273.4921875 1370.450317382812 273.4905395507812 1371.269775390625 274.0736999511719 L 1372.889770507812 275.2266845703125 C 1373.341186523438 275.5480651855469 1373.662719726562 276.011962890625 1373.809204101562 276.5350646972656 L 1374.853881835938 277.2795104980469 C 1375.45068359375 277.7047729492188 1375.820434570312 278.3794250488281 1375.85791015625 279.1112670898438 C 1375.890380859375 279.7440490722656 1375.671264648438 280.359619140625 1375.255737304688 280.8275451660156 C 1375.902465820312 281.1864318847656 1376.353881835938 281.8284301757812 1376.464721679688 282.5721435546875 C 1376.591796875 283.4248962402344 1376.251831054688 284.2803039550781 1375.573852539062 284.8130493164062 C 1375.417358398438 284.9420776367188 1374.982299804688 285.4784545898438 1374.707641601562 285.9507141113281 C 1374.343627929688 286.5763854980469 1373.736328125 286.9801940917969 1373.070068359375 287.1039428710938 L 1373.070068359375 288.1060180664062 L 1373.316040039062 288.1060180664062 C 1374.641479492188 288.1060180664062 1375.716064453125 289.1805419921875 1375.716064453125 290.5060119628906 L 1375.716064453125 292.3240051269531 C 1375.716064453125 293.6494750976562 1374.641479492188 294.7239990234375 1373.316040039062 294.7239990234375 Z" stroke="none" fill="#223875"/>
    </g>
    <g id="Path_166" data-name="Path 166" transform="translate(-1266.788 -275.634)" fill="#fff" stroke-linecap="round" stroke-linejoin="round">
      <path d="M 1384.771606445312 293.8878173828125 C 1384.662841796875 293.8878173828125 1384.55126953125 293.8867492675781 1384.436767578125 293.8848266601562 L 1383.408569335938 293.8674926757812 L 1383.268188476562 292.8486938476562 C 1383.246704101562 292.6922607421875 1383.199829101562 292.49560546875 1383.13818359375 292.2904663085938 C 1383.075439453125 292.3351135253906 1383.01318359375 292.3792419433594 1382.951538085938 292.4226989746094 L 1381.938110351562 293.1372680664062 L 1381.35205078125 292.2454528808594 C 1380.01025390625 292.522705078125 1378.621948242188 292.7866516113281 1377.384399414062 293.0219116210938 C 1376.726440429688 293.1470031738281 1376.105102539062 293.26513671875 1375.540649414062 293.3756408691406 L 1374.384399414062 293.6020202636719 L 1374.136840820312 292.4501037597656 L 1373.722778320312 290.5230712890625 L 1373.453002929688 289.2676391601562 L 1374.532958984375 289.111083984375 C 1374.433837890625 288.3689880371094 1374.23046875 287.3331604003906 1374.018310546875 286.5030212402344 L 1373.984008789062 286.5030212402344 L 1373.984008789062 286.3701477050781 L 1373.703735351562 285.2878112792969 L 1373.984008789062 285.215087890625 L 1373.984008789062 283.4830017089844 L 1373.984008789062 282.2829895019531 L 1374.171142578125 282.2829895019531 C 1374.130126953125 281.9774780273438 1373.825073242188 280.9756774902344 1373.627563476562 280.5503540039062 L 1373.228881835938 279.6917419433594 L 1373.971069335938 279.1041564941406 C 1375.2333984375 278.1048278808594 1376.405395507812 276.6444091796875 1377.029541015625 275.2928466796875 L 1377.494995117188 274.2850341796875 L 1378.536010742188 274.6707763671875 L 1380.139038085938 275.2647705078125 L 1381.344116210938 275.7113342285156 L 1380.93359375 276.6221923828125 C 1381.408447265625 277.07080078125 1381.82470703125 277.4725646972656 1382.180786132812 277.8260192871094 C 1382.364501953125 277.0743713378906 1382.534423828125 276.3191833496094 1382.667114257812 275.6377868652344 L 1382.875854492188 274.5650939941406 L 1383.963256835938 274.6728515625 L 1385.961303710938 274.870849609375 L 1387.313720703125 275.0048522949219 L 1387.051513671875 276.1620178222656 L 1388.376342773438 276.1620178222656 L 1388.57177734375 276.1185913085938 L 1388.781005859375 276.0720825195312 L 1388.993530273438 276.1009216308594 L 1390.451538085938 276.2989196777344 L 1391.64501953125 276.4609985351562 L 1391.478515625 277.6538696289062 C 1391.340576171875 278.6423034667969 1391.126586914062 279.818359375 1390.828735351562 281.2219848632812 L 1391.694946289062 281.2219848632812 L 1392.894897460938 281.2219848632812 L 1392.894897460938 282.4219970703125 L 1392.894897460938 284.2940063476562 L 1392.894897460938 285.2354125976562 L 1393.2744140625 285.552001953125 L 1392.411499023438 286.4794311523438 C 1391.98486328125 286.9378662109375 1391.510009765625 287.4154052734375 1391.049194335938 287.8519897460938 C 1391.69287109375 288.3138122558594 1392.303588867188 288.7773742675781 1392.713134765625 289.1455078125 L 1393.580688476562 289.9252624511719 L 1392.825805664062 290.8145446777344 L 1391.618896484375 292.2365417480469 L 1390.764892578125 293.2426147460938 L 1389.84423828125 292.2971496582031 C 1389.614135742188 292.0608520507812 1389.221557617188 291.7216491699219 1388.694091796875 291.301513671875 C 1388.625610351562 291.9988098144531 1388.360473632812 292.8934326171875 1387.335205078125 293.42333984375 C 1386.561889648438 293.8324890136719 1385.605590820312 293.8878173828125 1384.771606445312 293.8878173828125 Z" stroke="none"/>
      <path d="M 1384.771606445312 292.6878051757812 C 1385.62744140625 292.6878051757812 1386.296630859375 292.6172790527344 1386.779052734375 292.3599853515625 C 1387.3740234375 292.0549926757812 1387.517944335938 291.5679931640625 1387.517944335938 290.6679992675781 L 1387.517944335938 284.2940063476562 L 1391.694946289062 284.2940063476562 L 1391.694946289062 282.4219970703125 L 1389.336059570312 282.4219970703125 C 1389.696044921875 280.8370056152344 1390.073974609375 279.0360107421875 1390.2900390625 277.4880065917969 L 1388.83203125 277.2900085449219 L 1388.508056640625 277.3619995117188 L 1385.536987304688 277.3619995117188 C 1385.64599609375 276.9119873046875 1385.753051757812 276.4620056152344 1385.843017578125 276.0650024414062 L 1383.844970703125 275.8670043945312 C 1383.484008789062 277.7219848632812 1382.85400390625 280.1170043945312 1382.385986328125 281.6109924316406 L 1387.517944335938 281.6109924316406 L 1387.338012695312 282.4219970703125 L 1381.666015625 282.4219970703125 L 1381.666015625 284.2940063476562 L 1385.555053710938 284.2940063476562 L 1385.555053710938 290.6319885253906 C 1385.555053710938 290.8299865722656 1385.5009765625 290.8840026855469 1385.285034179688 290.8840026855469 C 1385.087036132812 290.8840026855469 1384.45703125 290.8840026855469 1383.862060546875 290.8659973144531 C 1384.133056640625 291.3890075683594 1384.385009765625 292.1619873046875 1384.45703125 292.6849975585938 C 1384.564575195312 292.6867980957031 1384.66943359375 292.6878051757812 1384.771606445312 292.6878051757812 M 1385.123046875 278.9819946289062 L 1388.057983398438 278.9819946289062 L 1387.859008789062 279.9909973144531 L 1384.870971679688 279.9909973144531 L 1385.123046875 278.9819946289062 M 1375.31005859375 292.197998046875 C 1377.057006835938 291.8559875488281 1379.343017578125 291.4419860839844 1381.484985351562 290.9920043945312 L 1381.432006835938 290.1820068359375 L 1382.260009765625 291.4419860839844 C 1383.178955078125 290.7940063476562 1384.239990234375 290.0020141601562 1385.194946289062 289.281005859375 L 1384.5830078125 287.7330017089844 C 1383.411987304688 288.4719848632812 1382.260009765625 289.2279968261719 1381.39599609375 289.7139892578125 L 1381.378051757812 289.3169860839844 L 1379.324951171875 289.6419982910156 L 1379.324951171875 285.3030090332031 L 1381.39599609375 285.3030090332031 L 1381.39599609375 283.4830017089844 L 1379.324951171875 283.4830017089844 L 1379.324951171875 282.1700134277344 L 1380.586059570312 282.1700134277344 L 1380.586059570312 280.4590148925781 C 1380.818969726562 280.7109985351562 1381 280.9630126953125 1381.161987304688 281.1610107421875 L 1382.368041992188 279.7569885253906 C 1381.738037109375 279.0360107421875 1380.494995117188 277.8489990234375 1379.468994140625 276.8940124511719 C 1379.56005859375 276.7309875488281 1379.649047851562 276.552001953125 1379.722045898438 276.3900146484375 L 1378.119018554688 275.7959899902344 C 1377.362060546875 277.4349975585938 1376.011962890625 279.0190124511719 1374.715942382812 280.0450134277344 C 1374.949951171875 280.5490112304688 1375.31005859375 281.7009887695312 1375.364013671875 282.1510009765625 C 1375.651977539062 281.8989868164062 1375.9580078125 281.6289978027344 1376.245971679688 281.3410034179688 L 1376.245971679688 282.1700134277344 L 1377.597045898438 282.1700134277344 L 1377.597045898438 283.4830017089844 L 1375.183959960938 283.4830017089844 L 1375.183959960938 285.3030090332031 L 1377.597045898438 285.3030090332031 L 1377.597045898438 289.8760070800781 C 1376.588012695312 290.0379943847656 1375.634033203125 290.1640014648438 1374.89599609375 290.27099609375 L 1375.31005859375 292.197998046875 M 1378.587036132812 278.406005859375 C 1379.253051757812 279.0549926757812 1379.954956054688 279.7569885253906 1380.514038085938 280.3869934082031 L 1377.109985351562 280.3869934082031 C 1377.650024414062 279.7569885253906 1378.155029296875 279.0910034179688 1378.587036132812 278.406005859375 M 1390.703979492188 291.4599914550781 L 1391.911010742188 290.0379943847656 C 1391.208984375 289.4070129394531 1389.786010742188 288.4169921875 1388.796020507812 287.7510070800781 L 1387.661987304688 289.0119934082031 C 1388.670043945312 289.75 1390.073974609375 290.81298828125 1390.703979492188 291.4599914550781 M 1375.760009765625 289.2640075683594 L 1377.218994140625 288.8500061035156 C 1377.109985351562 288.0390014648438 1376.822021484375 286.760986328125 1376.552978515625 285.7879943847656 L 1375.166015625 286.1480102539062 C 1375.41796875 287.1210021972656 1375.670043945312 288.4169921875 1375.760009765625 289.2640075683594 M 1380.85498046875 289.0119934082031 C 1381.089965820312 288.2730102539062 1381.39599609375 287.0490112304688 1381.702026367188 286.0220031738281 L 1380.31494140625 285.6809997558594 C 1380.225952148438 286.5809936523438 1379.954956054688 287.8770141601562 1379.739013671875 288.7049865722656 L 1380.85498046875 289.0119934082031 M 1389.245971679688 287.8590087890625 C 1389.911987304688 287.3009948730469 1390.795043945312 286.4549865722656 1391.532958984375 285.6619873046875 L 1390.109985351562 284.4750061035156 C 1389.60595703125 285.1940002441406 1388.68798828125 286.2210083007812 1388.093994140625 286.7789916992188 L 1389.245971679688 287.8590087890625 M 1383.557006835938 287.8059997558594 L 1385.051025390625 286.6709899902344 C 1384.654052734375 286.0589904785156 1383.844970703125 285.1409912109375 1383.196044921875 284.4920043945312 L 1381.81005859375 285.4819946289062 C 1382.421997070312 286.2030029296875 1383.213989257812 287.1749877929688 1383.557006835938 287.8059997558594 M 1384.771606445312 295.0877990722656 C 1384.65625 295.0877990722656 1384.537963867188 295.0867004394531 1384.416625976562 295.0846557617188 C 1383.533813476562 295.0697937011719 1382.757568359375 294.5765380859375 1382.352905273438 293.8401794433594 C 1382.173095703125 293.8472900390625 1381.992065429688 293.8339538574219 1381.812377929688 293.7998657226562 C 1381.5498046875 293.75 1381.300170898438 293.6572265625 1381.072387695312 293.5275268554688 C 1379.888305664062 293.7673950195312 1378.69091796875 293.9950256347656 1377.608520507812 294.2008056640625 C 1376.952270507812 294.3255615234375 1376.332397460938 294.4434204101562 1375.771118164062 294.5532836914062 C 1374.487426757812 294.8047485351562 1373.238403320312 293.9812927246094 1372.963623046875 292.7021789550781 L 1372.549560546875 290.7751770019531 C 1372.409912109375 290.1253051757812 1372.546020507812 289.4465942382812 1372.925537109375 288.9008483886719 C 1373.015625 288.7712097167969 1373.11767578125 288.6518249511719 1373.2294921875 288.5438537597656 C 1373.125854492188 287.9579162597656 1372.986083984375 287.3033447265625 1372.842651367188 286.7496337890625 C 1372.748413085938 286.3858337402344 1372.742919921875 286.0199584960938 1372.812622070312 285.6747741699219 C 1372.793701171875 285.5536193847656 1372.783935546875 285.4294738769531 1372.783935546875 285.3030090332031 L 1372.783935546875 283.4830017089844 C 1372.783935546875 283.1355285644531 1372.857788085938 282.805419921875 1372.990600585938 282.5072631835938 C 1372.988037109375 282.4897766113281 1372.985595703125 282.4723510742188 1372.983276367188 282.4547424316406 C 1372.9375 282.18994140625 1372.6806640625 281.3605041503906 1372.539184570312 281.0556945800781 C 1372.071533203125 280.0486755371094 1372.355834960938 278.8524169921875 1373.226318359375 278.1632995605469 C 1374.333129882812 277.2870788574219 1375.398315429688 275.9628601074219 1375.940185546875 274.7897033691406 C 1376.465576171875 273.6520080566406 1377.777709960938 273.1101379394531 1378.953002929688 273.5455322265625 L 1380.556030273438 274.1395568847656 C 1380.986938476562 274.2992553710938 1381.358764648438 274.5776672363281 1381.632202148438 274.9368896484375 C 1382.032104492188 273.9837036132812 1383.016357421875 273.373291015625 1384.081665039062 273.4786987304688 L 1386.079711914062 273.6766967773438 C 1386.7646484375 273.7445678710938 1387.387451171875 274.1032409667969 1387.789916992188 274.6615600585938 C 1387.859252929688 274.7576904296875 1387.920776367188 274.8581237792969 1387.974609375 274.9620056152344 L 1388.24462890625 274.9620056152344 L 1388.311401367188 274.9471435546875 C 1388.588256835938 274.8856811523438 1388.873779296875 274.8736877441406 1389.155029296875 274.9118347167969 L 1390.613037109375 275.1098327636719 C 1391.245239257812 275.1956787109375 1391.817260742188 275.52978515625 1392.202758789062 276.0382690429688 C 1392.588134765625 276.5467834472656 1392.755249023438 277.1878356933594 1392.6669921875 277.8197631835938 C 1392.5732421875 278.4918212890625 1392.445678710938 279.2461242675781 1392.282104492188 280.0943298339844 C 1393.32373046875 280.3562927246094 1394.094970703125 281.2991027832031 1394.094970703125 282.4219970703125 L 1394.094970703125 284.2940063476562 C 1394.094970703125 284.633544921875 1394.0244140625 284.9566650390625 1393.897216796875 285.2494201660156 C 1393.912231445312 285.3354797363281 1393.922607421875 285.4226684570312 1393.92822265625 285.5107116699219 C 1393.9697265625 286.1684875488281 1393.738891601562 286.8143920898438 1393.289916992188 287.2969055175781 C 1393.158325195312 287.4383544921875 1393.022216796875 287.5816345214844 1392.883178710938 287.7251281738281 C 1393.129638671875 287.9197998046875 1393.340576171875 288.0959167480469 1393.515380859375 288.2530212402344 C 1394.4814453125 289.1213684082031 1394.581298828125 290.6007690429688 1393.74072265625 291.5910949707031 L 1392.53369140625 293.0130920410156 C 1392.09619140625 293.5285339355469 1391.461547851562 293.8355102539062 1390.785888671875 293.8585815429688 C 1390.212158203125 293.8784484863281 1389.657104492188 293.6925964355469 1389.213745117188 293.3412780761719 C 1388.916259765625 293.7716979980469 1388.492919921875 294.1748352050781 1387.890991210938 294.4868774414062 C 1386.88720703125 295.01611328125 1385.751342773438 295.0877990722656 1384.771606445312 295.0877990722656 Z" stroke="none" fill="#223875"/>
    </g>
    <g id="Path_167" data-name="Path 167" transform="translate(-1266.788 -275.634)" fill="#fff" stroke-linecap="round" stroke-linejoin="round">
      <path d="M 1394.152709960938 294.3988647460938 L 1393.56005859375 293.3452758789062 C 1393.321411132812 292.9209899902344 1392.768432617188 292.3026428222656 1392.30126953125 291.9375915527344 L 1390.847045898438 290.8014221191406 L 1392.475463867188 289.9331359863281 C 1395.680053710938 288.224365234375 1396.366088867188 285.4688720703125 1396.612426757812 282.0370178222656 L 1393.345947265625 282.0370178222656 L 1392.14599609375 282.0370178222656 L 1392.14599609375 280.8370056152344 L 1392.14599609375 278.7479858398438 L 1392.14599609375 277.5479736328125 L 1393.345947265625 277.5479736328125 L 1399.079223632812 277.5479736328125 C 1398.9873046875 277.3587341308594 1398.890869140625 277.1630859375 1398.790649414062 276.962646484375 L 1398.195068359375 275.7713623046875 L 1399.441772460938 275.302734375 L 1401.548706054688 274.5107421875 L 1402.484619140625 274.158935546875 L 1402.99951171875 275.0159606933594 C 1403.463623046875 275.7882385253906 1403.975708007812 276.7930297851562 1404.293579101562 277.5479736328125 L 1409.406982421875 277.5479736328125 L 1410.60693359375 277.5479736328125 L 1410.60693359375 278.7479858398438 L 1410.60693359375 280.8370056152344 L 1410.60693359375 282.0370178222656 L 1409.406982421875 282.0370178222656 L 1409.048095703125 282.0370178222656 L 1409.021606445312 283.0473937988281 C 1409.017333984375 283.2091674804688 1408.999755859375 283.7329711914062 1408.943237304688 284.0927429199219 C 1408.58740234375 289.4199829101562 1408.175048828125 291.3765258789062 1407.188598632812 292.4215087890625 C 1406.326293945312 293.3636169433594 1405.344970703125 293.5694274902344 1404.496826171875 293.6446228027344 C 1404.0908203125 293.685791015625 1403.552856445312 293.7066345214844 1402.8974609375 293.7066650390625 C 1402.384033203125 293.7066650390625 1401.802978515625 293.6932373046875 1401.217163085938 293.6678771972656 L 1400.134643554688 293.6209716796875 L 1400.071044921875 292.5393371582031 C 1400.048461914062 292.1529235839844 1399.82861328125 291.46728515625 1399.53759765625 291.0624389648438 L 1398.99609375 290.3091735839844 C 1398.041137695312 291.7307434082031 1396.766479492188 292.9033813476562 1395.201904296875 293.7985534667969 L 1394.152709960938 294.3988647460938 Z M 1399.709838867188 289.0865478515625 L 1400.617431640625 289.1666259765625 C 1401.8935546875 289.2792663574219 1403.174682617188 289.2879943847656 1403.536987304688 289.2879943847656 C 1403.574340820312 289.2879943847656 1403.60546875 289.28759765625 1403.63134765625 289.2869262695312 C 1403.74658203125 289.007568359375 1403.952880859375 288.2587280273438 1404.152709960938 286.2860107421875 L 1400.746215820312 286.2860107421875 C 1400.478759765625 287.3157348632812 1400.135620117188 288.2429809570312 1399.709838867188 289.0865478515625 Z" stroke="none"/>
      <path d="M 1401.970947265625 275.6340026855469 L 1399.864013671875 276.4259948730469 C 1400.223999023438 277.14599609375 1400.656005859375 278.0459899902344 1400.943969726562 278.7479858398438 L 1393.345947265625 278.7479858398438 L 1393.345947265625 280.8370056152344 L 1397.884033203125 280.8370056152344 C 1397.703002929688 284.635986328125 1397.360961914062 288.68798828125 1393.0400390625 290.9920043945312 C 1393.615966796875 291.4419860839844 1394.281982421875 292.1809997558594 1394.60595703125 292.7569885253906 C 1397.848022460938 290.9020080566406 1399.180053710938 288.0929870605469 1399.7919921875 285.0859985351562 L 1405.463989257812 285.0859985351562 C 1405.212036132812 288.3099975585938 1404.887939453125 289.8399963378906 1404.4189453125 290.2539978027344 C 1404.1669921875 290.4519958496094 1403.933959960938 290.4880065917969 1403.536987304688 290.4880065917969 C 1402.996948242188 290.4880065917969 1401.735961914062 290.4700012207031 1400.511962890625 290.3619995117188 C 1400.926025390625 290.93798828125 1401.232055664062 291.8389892578125 1401.26904296875 292.468994140625 C 1402.493041992188 292.52197265625 1403.681030273438 292.5220642089844 1404.383056640625 292.4500122070312 C 1405.192993164062 292.3789978027344 1405.77001953125 292.197998046875 1406.31005859375 291.60400390625 C 1407.047973632812 290.8299865722656 1407.426025390625 288.8309936523438 1407.75 283.9519958496094 C 1407.805053710938 283.6640014648438 1407.822021484375 283.0159912109375 1407.822021484375 283.0159912109375 L 1400.098022460938 283.0159912109375 C 1400.18798828125 282.2770080566406 1400.223999023438 281.5580139160156 1400.277954101562 280.8370056152344 L 1409.406982421875 280.8370056152344 L 1409.406982421875 278.7479858398438 L 1402.024047851562 278.7479858398438 L 1403.266967773438 278.2080078125 C 1402.996948242188 277.5239868164062 1402.45703125 276.4429931640625 1401.970947265625 275.6340026855469 M 1401.970336914062 273.2337036132812 C 1402.793090820312 273.2337036132812 1403.583740234375 273.6582336425781 1404.028198242188 274.39794921875 C 1404.379150390625 274.9820556640625 1404.757202148438 275.6944274902344 1405.068237304688 276.3479919433594 L 1409.406982421875 276.3479919433594 C 1410.732421875 276.3479919433594 1411.807006835938 277.4225158691406 1411.807006835938 278.7479858398438 L 1411.807006835938 280.8370056152344 C 1411.807006835938 281.8768310546875 1411.145751953125 282.76220703125 1410.220703125 283.0955200195312 C 1410.213256835938 283.36962890625 1410.19287109375 283.8348999023438 1410.137451171875 284.2208862304688 C 1409.964965820312 286.7878112792969 1409.781494140625 288.4996032714844 1409.543823242188 289.7616577148438 C 1409.2294921875 291.4300842285156 1408.787475585938 292.4723815917969 1408.068237304688 293.2378234863281 C 1406.926391601562 294.4817199707031 1405.622924804688 294.7488403320312 1404.609497070312 294.83935546875 C 1404.164428710938 294.8840026855469 1403.588623046875 294.9066467285156 1402.8974609375 294.9066467285156 C 1402.359497070312 294.9066467285156 1401.776733398438 294.8932189941406 1401.165161132812 294.8667602539062 C 1399.935424804688 294.8135070800781 1398.9453125 293.8384704589844 1398.873168945312 292.6096801757812 C 1398.870361328125 292.5646667480469 1398.859375 292.5044860839844 1398.842407226562 292.4362487792969 C 1397.98095703125 293.3717956542969 1396.967651367188 294.1707763671875 1395.7978515625 294.8401184082031 C 1395.242919921875 295.1576538085938 1394.583984375 295.2407531738281 1393.96728515625 295.0704345703125 C 1393.350830078125 294.9002380371094 1392.827758789062 294.4909973144531 1392.51416015625 293.9335632324219 C 1392.368896484375 293.6752319335938 1391.930908203125 293.171142578125 1391.562377929688 292.8832092285156 C 1390.92236328125 292.3831787109375 1390.578735351562 291.5933532714844 1390.649047851562 290.7842407226562 C 1390.719360351562 289.97509765625 1391.194091796875 289.2564086914062 1391.910766601562 288.874267578125 C 1394.243530273438 287.6304016113281 1394.992797851562 285.7777709960938 1395.298583984375 283.2369995117188 L 1393.345947265625 283.2369995117188 C 1392.0205078125 283.2369995117188 1390.945922851562 282.1624755859375 1390.945922851562 280.8370056152344 L 1390.945922851562 278.7479858398438 C 1390.945922851562 277.4225158691406 1392.0205078125 276.3479919433594 1393.345947265625 276.3479919433594 L 1397.46533203125 276.3479919433594 C 1397.47412109375 276.0772399902344 1397.528686523438 275.8071899414062 1397.629760742188 275.5496215820312 C 1397.878051757812 274.9166564941406 1398.383056640625 274.418701171875 1399.01953125 274.1794738769531 L 1401.12646484375 273.3874816894531 C 1401.403076171875 273.2835083007812 1401.688598632812 273.2337036132812 1401.970336914062 273.2337036132812 Z M 1402.80029296875 287.4859924316406 L 1401.645874023438 287.4859924316406 C 1401.58740234375 287.66845703125 1401.526245117188 287.8482360839844 1401.46240234375 288.0253295898438 C 1401.91796875 288.0524291992188 1402.3505859375 288.06787109375 1402.704467773438 288.0766296386719 C 1402.734497070312 287.9136352539062 1402.766723632812 287.7186584472656 1402.80029296875 287.4859924316406 Z" stroke="none" fill="#223875"/>
    </g>
    <g id="Path_168" data-name="Path 168" transform="translate(-1266.788 -275.634)" fill="#fff" stroke-linecap="round" stroke-linejoin="round">
      <path d="M 1425.137939453125 293.885009765625 C 1424.06982421875 293.885009765625 1423.077758789062 293.4329528808594 1422.268798828125 292.5777587890625 C 1421.9501953125 292.2408142089844 1421.658081054688 291.8448791503906 1421.389038085938 291.3840026855469 L 1420.623291015625 291.5520935058594 C 1418.927124023438 291.9244384765625 1417.197998046875 292.2889709472656 1415.525756835938 292.6415100097656 C 1414.311767578125 292.8974609375 1413.1650390625 293.1392211914062 1412.176391601562 293.3537292480469 L 1411.066040039062 293.5946350097656 L 1410.764892578125 292.4990539550781 L 1410.1708984375 290.3380432128906 L 1409.814819335938 289.0426635742188 L 1411.14208984375 288.83447265625 C 1411.343872070312 288.8028259277344 1411.558837890625 288.7693786621094 1411.78515625 288.7341613769531 C 1412.32275390625 288.6505126953125 1412.907470703125 288.5595092773438 1413.531005859375 288.4593200683594 L 1413.531005859375 286.3410034179688 L 1412.011962890625 286.3410034179688 L 1410.81201171875 286.3410034179688 L 1410.81201171875 285.1409912109375 L 1410.81201171875 283.0690002441406 L 1410.81201171875 282.2179870605469 L 1410.128051757812 282.2179870605469 L 1410.128051757812 281.0180053710938 L 1410.128051757812 278.9289855957031 L 1410.128051757812 277.7289733886719 L 1411.328002929688 277.7289733886719 L 1418.933349609375 277.7289733886719 C 1418.920532226562 277.1367797851562 1418.9140625 276.5444946289062 1418.9140625 275.9580078125 L 1418.9140625 274.7580261230469 L 1420.114013671875 274.7580261230469 L 1422.4189453125 274.7580261230469 L 1423.640869140625 274.7580261230469 L 1423.634521484375 275.1058654785156 L 1423.835205078125 274.940673828125 L 1424.534301757812 274.3649597167969 L 1425.279663085938 274.87939453125 C 1426.110595703125 275.4528503417969 1427.291625976562 276.3800964355469 1427.8857421875 277.1060180664062 L 1428.3955078125 277.7289733886719 L 1428.625 277.7289733886719 L 1428.625 278.9289855957031 L 1428.625 281.0180053710938 L 1428.625 282.2179870605469 L 1427.425048828125 282.2179870605469 L 1423.851196289062 282.2179870605469 C 1424.0205078125 283.9391784667969 1424.269165039062 285.4894409179688 1424.580932617188 286.7552185058594 C 1424.656127929688 287.0609741210938 1424.730590820312 287.331298828125 1424.802856445312 287.5700073242188 C 1424.8095703125 287.4370422363281 1424.816040039062 287.2957153320312 1424.821899414062 287.1458129882812 L 1424.932495117188 284.3352661132812 L 1426.884887695312 286.3600463867188 C 1427.234130859375 286.7223205566406 1427.882934570312 287.1600646972656 1428.331176757812 287.3358764648438 L 1429.173583984375 287.6662902832031 L 1429.087524414062 288.5670776367188 C 1428.900268554688 290.5281982421875 1428.582397460938 291.7116394042969 1428.024536132812 292.5242309570312 C 1427.090576171875 293.885009765625 1425.620849609375 293.885009765625 1425.137939453125 293.885009765625 Z M 1418.054931640625 286.3410034179688 L 1418.054931640625 287.6614379882812 C 1418.711669921875 287.5389099121094 1419.333862304688 287.4200134277344 1419.915405273438 287.3059387207031 C 1419.844970703125 286.9953918457031 1419.778198242188 286.6737060546875 1419.714965820312 286.3410034179688 L 1418.054931640625 286.3410034179688 Z" stroke="none"/>
      <path d="M 1424.598022460938 275.8670043945312 L 1423.176025390625 277.0379943847656 C 1423.89599609375 277.5780029296875 1424.796020507812 278.3160095214844 1425.281982421875 278.9289855957031 L 1422.43798828125 278.9289855957031 C 1422.401000976562 277.9559936523438 1422.401000976562 276.947998046875 1422.4189453125 275.9580078125 L 1420.114013671875 275.9580078125 C 1420.114013671875 276.947998046875 1420.133056640625 277.9559936523438 1420.1689453125 278.9289855957031 L 1411.328002929688 278.9289855957031 L 1411.328002929688 281.0180053710938 L 1420.276000976562 281.0180053710938 C 1420.708984375 287.3550109863281 1422.06005859375 292.6849975585938 1425.137939453125 292.6849975585938 C 1426.848999023438 292.6849975585938 1427.567993164062 291.8559875488281 1427.892944335938 288.4530029296875 C 1427.298950195312 288.2200012207031 1426.506958007812 287.6969909667969 1426.02099609375 287.1929931640625 C 1425.931030273438 289.47900390625 1425.713989257812 290.4339904785156 1425.336059570312 290.4339904785156 C 1424.02099609375 290.4339904785156 1422.923950195312 286.2739868164062 1422.545043945312 281.0180053710938 L 1427.425048828125 281.0180053710938 L 1427.425048828125 278.9289855957031 L 1425.732055664062 278.9289855957031 L 1426.95703125 277.8659973144531 C 1426.470947265625 277.2720031738281 1425.407958984375 276.4259948730469 1424.598022460938 275.8670043945312 M 1412.011962890625 283.0690002441406 L 1412.011962890625 285.1409912109375 L 1414.73095703125 285.1409912109375 L 1414.73095703125 289.47900390625 C 1413.43505859375 289.6950073242188 1412.245971679688 289.8760070800781 1411.328002929688 290.0199890136719 L 1411.921997070312 292.1809997558594 C 1414.244995117188 291.677001953125 1417.413940429688 291.0280151367188 1420.365966796875 290.3800048828125 L 1420.204956054688 288.4719848632812 C 1419.10595703125 288.68798828125 1417.953979492188 288.9030151367188 1416.85498046875 289.1019897460938 L 1416.85498046875 285.1409912109375 L 1419.735961914062 285.1409912109375 L 1419.735961914062 283.0690002441406 L 1412.011962890625 283.0690002441406 M 1424.598266601562 273.4670104980469 C 1425.073364257812 273.4670104980469 1425.549560546875 273.6076354980469 1425.961303710938 273.8917541503906 C 1426.285400390625 274.1154479980469 1427.946044921875 275.2850036621094 1428.814453125 276.3460693359375 C 1429.086669921875 276.6787414550781 1429.255004882812 277.063232421875 1429.32275390625 277.4595031738281 C 1429.637573242188 277.8655395507812 1429.825073242188 278.3753662109375 1429.825073242188 278.9289855957031 L 1429.825073242188 281.0180053710938 C 1429.825073242188 282.3434753417969 1428.75048828125 283.4179992675781 1427.425048828125 283.4179992675781 L 1425.195922851562 283.4179992675781 C 1425.2646484375 283.9435119628906 1425.339111328125 284.4275817871094 1425.41650390625 284.8703002929688 C 1426.248657226562 284.6533508300781 1427.142456054688 284.8984375 1427.748657226562 285.5271301269531 C 1428.003051757812 285.7909240722656 1428.506225585938 286.1155090332031 1428.769409179688 286.21875 C 1429.7666015625 286.6099548339844 1430.383911132812 287.6147155761719 1430.282104492188 288.68115234375 C 1430.074096679688 290.85888671875 1429.69482421875 292.2113342285156 1429.013916015625 293.2033386230469 C 1428.156860351562 294.4519348144531 1426.852783203125 295.0849914550781 1425.137939453125 295.0849914550781 C 1423.731811523438 295.0849914550781 1422.438232421875 294.5031433105469 1421.39697265625 293.4023132324219 C 1421.202270507812 293.1964721679688 1421.016723632812 292.9737243652344 1420.83984375 292.7331237792969 C 1419.15185546875 293.1034240722656 1417.4345703125 293.4654846191406 1415.773315429688 293.8157043457031 C 1414.56103515625 294.0712890625 1413.416015625 294.3126831054688 1412.430908203125 294.5264282226562 C 1411.1845703125 294.7967529296875 1409.945556640625 294.0460510253906 1409.607788085938 292.8170776367188 L 1409.013793945312 290.6560668945312 C 1408.832641601562 289.9970092773438 1408.941162109375 289.2919921875 1409.31201171875 288.7178344726562 C 1409.682861328125 288.1436767578125 1410.280883789062 287.7548828125 1410.956176757812 287.6489868164062 C 1411.158447265625 287.6172485351562 1411.373779296875 287.583740234375 1411.6005859375 287.5484313964844 C 1411.64794921875 287.5410766601562 1411.695556640625 287.5336608886719 1411.74365234375 287.5261535644531 C 1410.54443359375 287.3927917480469 1409.611938476562 286.3757934570312 1409.611938476562 285.1409912109375 L 1409.611938476562 283.0690002441406 C 1409.611938476562 282.9508056640625 1409.620483398438 282.834716796875 1409.636962890625 282.7210693359375 C 1409.199096679688 282.2862854003906 1408.927978515625 281.6838073730469 1408.927978515625 281.0180053710938 L 1408.927978515625 278.9289855957031 C 1408.927978515625 277.603515625 1410.002563476562 276.5289916992188 1411.328002929688 276.5289916992188 L 1417.716064453125 276.5289916992188 C 1417.714721679688 276.3381958007812 1417.713989257812 276.1478271484375 1417.713989257812 275.9580078125 C 1417.713989257812 274.6325378417969 1418.78857421875 273.5580139160156 1420.114013671875 273.5580139160156 L 1422.4189453125 273.5580139160156 C 1422.767578125 273.5580139160156 1423.108276367188 273.6338500976562 1423.419067382812 273.7763366699219 C 1423.783447265625 273.5706787109375 1424.1904296875 273.4670104980469 1424.598266601562 273.4670104980469 Z" stroke="none" fill="#223875"/>
    </g>
  </g>
</svg>
