<svg xmlns="http://www.w3.org/2000/svg" width="75.887" height="21.761" viewBox="0 0 75.887 21.761">
  <g id="Group_3430" data-name="Group 3430" transform="translate(-1309.397 -147.882)">
    <g id="组_2520" data-name="组 2520">
      <g id="基本資料" style="isolation: isolate">
        <g id="Group_3107" data-name="Group 3107" style="isolation: isolate">
          <g id="Group_3429" data-name="Group 3429">
            <g id="Path_156" data-name="Path 156" fill="#fff" stroke-linecap="round" stroke-linejoin="round">
              <path d="M 1328.48095703125 167.9199981689453 L 1327.281005859375 167.9199981689453 L 1313.56103515625 167.9199981689453 L 1312.361083984375 167.9199981689453 L 1312.361083984375 166.7200012207031 L 1312.361083984375 165.4917755126953 L 1312.140258789062 165.1292724609375 C 1311.886840820312 164.7134399414062 1311.356567382812 164.0781555175781 1311.00537109375 163.7697906494141 L 1309.493041992188 162.4421539306641 L 1311.228271484375 161.7989959716797 L 1310.777099609375 161.7989959716797 L 1310.777099609375 160.5989990234375 L 1310.777099609375 158.8520050048828 L 1310.777099609375 157.6520080566406 L 1311.97705078125 157.6520080566406 L 1314.197021484375 157.6520080566406 L 1314.197021484375 154.6869964599609 L 1312.912963867188 154.6869964599609 L 1311.713012695312 154.6869964599609 L 1311.713012695312 153.4869995117188 L 1311.713012695312 151.7579956054688 L 1311.713012695312 150.5579986572266 L 1312.912963867188 150.5579986572266 L 1314.197021484375 150.5579986572266 L 1314.197021484375 150.4080047607422 L 1314.197021484375 149.2080078125 L 1315.39697265625 149.2080078125 L 1317.5400390625 149.2080078125 L 1318.739990234375 149.2080078125 L 1318.739990234375 150.4080047607422 L 1318.739990234375 150.5579986572266 L 1321.97607421875 150.5579986572266 L 1321.97607421875 150.4080047607422 L 1321.97607421875 149.2080078125 L 1323.176025390625 149.2080078125 L 1325.371948242188 149.2080078125 L 1326.571899414062 149.2080078125 L 1326.571899414062 150.4080047607422 L 1326.571899414062 150.5579986572266 L 1327.838989257812 150.5579986572266 L 1329.038940429688 150.5579986572266 L 1329.038940429688 151.7579956054688 L 1329.038940429688 153.4869995117188 L 1329.038940429688 154.6869964599609 L 1327.838989257812 154.6869964599609 L 1326.571899414062 154.6869964599609 L 1326.571899414062 157.6520080566406 L 1328.703002929688 157.6520080566406 L 1329.902954101562 157.6520080566406 L 1329.902954101562 158.8520050048828 L 1329.902954101562 160.5989990234375 L 1329.902954101562 161.7578582763672 L 1331.304565429688 162.244140625 L 1329.694213867188 163.6038665771484 C 1329.309936523438 163.9282989501953 1328.755493164062 164.5709686279297 1328.53076171875 164.9522094726562 L 1328.48095703125 165.0367126464844 L 1328.48095703125 166.7200012207031 L 1328.48095703125 167.9199981689453 Z" stroke="none"/>
              <path d="M 1327.281005859375 166.7200012207031 L 1327.281005859375 164.9559936523438 L 1321.39404296875 164.9559936523438 L 1321.39404296875 163.7859954833984 L 1324.670043945312 163.7859954833984 L 1324.670043945312 162.4539947509766 C 1325.552978515625 163.2460021972656 1326.524047851562 163.8939971923828 1327.496948242188 164.3430023193359 C 1327.803955078125 163.8220062255859 1328.451049804688 163.0829925537109 1328.920043945312 162.6869964599609 C 1327.623046875 162.2369995117188 1326.363037109375 161.4620056152344 1325.407958984375 160.5989990234375 L 1328.703002929688 160.5989990234375 L 1328.703002929688 158.8520050048828 L 1325.371948242188 158.8520050048828 L 1325.371948242188 153.4869995117188 L 1327.838989257812 153.4869995117188 L 1327.838989257812 151.7579956054688 L 1325.371948242188 151.7579956054688 L 1325.371948242188 150.4080047607422 L 1323.176025390625 150.4080047607422 L 1323.176025390625 151.7579956054688 L 1317.5400390625 151.7579956054688 L 1317.5400390625 150.4080047607422 L 1315.39697265625 150.4080047607422 L 1315.39697265625 151.7579956054688 L 1312.912963867188 151.7579956054688 L 1312.912963867188 153.4869995117188 L 1315.39697265625 153.4869995117188 L 1315.39697265625 158.8520050048828 L 1311.97705078125 158.8520050048828 L 1311.97705078125 160.5989990234375 L 1315.433959960938 160.5989990234375 C 1314.442993164062 161.5529937744141 1313.110961914062 162.3809967041016 1311.796997070312 162.8679962158203 C 1312.246948242188 163.2630004882812 1312.858032226562 164.0010070800781 1313.1650390625 164.5050048828125 C 1314.172973632812 164.0559997558594 1315.14599609375 163.4250030517578 1316.026977539062 162.6690063476562 L 1316.026977539062 163.7859954833984 L 1319.214965820312 163.7859954833984 L 1319.214965820312 164.9559936523438 L 1313.56103515625 164.9559936523438 L 1313.56103515625 166.7200012207031 L 1327.281005859375 166.7200012207031 M 1319.214965820312 160.9770050048828 L 1319.214965820312 162.0930023193359 L 1316.621948242188 162.0930023193359 C 1317.089965820312 161.625 1317.5400390625 161.1210021972656 1317.900024414062 160.5989990234375 L 1322.97802734375 160.5989990234375 C 1323.35498046875 161.1210021972656 1323.787963867188 161.625 1324.274047851562 162.0930023193359 L 1321.39404296875 162.0930023193359 L 1321.39404296875 160.9770050048828 L 1319.214965820312 160.9770050048828 M 1317.5400390625 158.0420074462891 L 1323.176025390625 158.0420074462891 L 1323.176025390625 158.8520050048828 L 1317.5400390625 158.8520050048828 L 1317.5400390625 158.0420074462891 M 1317.5400390625 155.7550048828125 L 1323.176025390625 155.7550048828125 L 1323.176025390625 156.5469970703125 L 1317.5400390625 156.5469970703125 L 1317.5400390625 155.7550048828125 M 1317.5400390625 153.4869995117188 L 1323.176025390625 153.4869995117188 L 1323.176025390625 154.2790069580078 L 1317.5400390625 154.2790069580078 L 1317.5400390625 153.4869995117188 M 1327.281005859375 169.1200103759766 L 1313.56103515625 169.1200103759766 C 1312.235595703125 169.1200103759766 1311.161010742188 168.0454864501953 1311.161010742188 166.7200012207031 L 1311.161010742188 165.8256378173828 C 1311.1455078125 165.8019866943359 1311.130249023438 165.7779083251953 1311.115356445312 165.7535552978516 C 1310.927124023438 165.4444427490234 1310.472045898438 164.8984069824219 1310.213623046875 164.6715850830078 C 1309.578369140625 164.1138763427734 1309.283325195312 163.2630767822266 1309.43701171875 162.4317932128906 C 1309.494750976562 162.1188507080078 1309.613037109375 161.8260803222656 1309.7802734375 161.5669403076172 C 1309.649658203125 161.2708740234375 1309.577026367188 160.9433898925781 1309.577026367188 160.5989990234375 L 1309.577026367188 158.8520050048828 C 1309.577026367188 157.5265197753906 1310.651611328125 156.4520111083984 1311.97705078125 156.4520111083984 L 1312.996948242188 156.4520111083984 L 1312.996948242188 155.8869934082031 L 1312.912963867188 155.8869934082031 C 1311.587524414062 155.8869934082031 1310.512939453125 154.8124694824219 1310.512939453125 153.4869995117188 L 1310.512939453125 151.7579956054688 C 1310.512939453125 150.4325103759766 1311.587524414062 149.3580017089844 1312.912963867188 149.3580017089844 L 1313.23828125 149.3580017089844 C 1313.627685546875 148.5586853027344 1314.447998046875 148.0080108642578 1315.39697265625 148.0080108642578 L 1317.5400390625 148.0080108642578 C 1318.489013671875 148.0080108642578 1319.309326171875 148.5586853027344 1319.69873046875 149.3580017089844 L 1321.017333984375 149.3580017089844 C 1321.40673828125 148.5586853027344 1322.22705078125 148.0080108642578 1323.176025390625 148.0080108642578 L 1325.371948242188 148.0080108642578 C 1326.320922851562 148.0080108642578 1327.141235351562 148.5586853027344 1327.530639648438 149.3580017089844 L 1327.838989257812 149.3580017089844 C 1329.164428710938 149.3580017089844 1330.239013671875 150.4325103759766 1330.239013671875 151.7579956054688 L 1330.239013671875 153.4869995117188 C 1330.239013671875 154.8124694824219 1329.164428710938 155.8869934082031 1327.838989257812 155.8869934082031 L 1327.77197265625 155.8869934082031 L 1327.77197265625 156.4520111083984 L 1328.703002929688 156.4520111083984 C 1330.028442382812 156.4520111083984 1331.10302734375 157.5265197753906 1331.10302734375 158.8520050048828 L 1331.10302734375 160.5989990234375 C 1331.10302734375 160.8875732421875 1331.052124023438 161.1642303466797 1330.958740234375 161.4205169677734 C 1331.114013671875 161.6703338623047 1331.224243164062 161.9502410888672 1331.279663085938 162.2487640380859 C 1331.437255859375 163.0968627929688 1331.12744140625 163.9642333984375 1330.468383789062 164.5207366943359 C 1330.239501953125 164.7140350341797 1329.888671875 165.1049499511719 1329.681030273438 165.3883666992188 L 1329.681030273438 166.7200012207031 C 1329.681030273438 168.0454864501953 1328.6064453125 169.1200103759766 1327.281005859375 169.1200103759766 Z" stroke="none" fill="#223875"/>
            </g>
            <g id="Path_157" data-name="Path 157" fill="#fff" stroke-linecap="round" stroke-linejoin="round">
              <path d="M 1340.665893554688 168.4069976806641 L 1339.465942382812 168.4069976806641 L 1337.196044921875 168.4069976806641 L 1335.99609375 168.4069976806641 L 1335.99609375 167.2070007324219 L 1335.99609375 165.3639984130859 L 1333.416015625 165.3639984130859 L 1332.272827148438 165.3639984130859 C 1332.225830078125 165.4024200439453 1332.178466796875 165.4407501220703 1332.130737304688 165.4789581298828 L 1331.130737304688 166.2791748046875 L 1330.397216796875 165.2292175292969 C 1330.060791015625 164.7476348876953 1329.4482421875 164.0337524414062 1329.072631835938 163.7386016845703 L 1327.791259765625 162.7318572998047 L 1329.132934570312 161.8069915771484 C 1330.5478515625 160.8316040039062 1331.913818359375 159.1952209472656 1332.96044921875 157.2610015869141 L 1330.443969726562 157.2610015869141 L 1329.244018554688 157.2610015869141 L 1329.244018554688 156.0610046386719 L 1329.244018554688 153.8820037841797 L 1329.244018554688 152.6820068359375 L 1330.443969726562 152.6820068359375 L 1335.99609375 152.6820068359375 L 1335.99609375 150.4080047607422 L 1335.99609375 149.2080078125 L 1337.196044921875 149.2080078125 L 1339.465942382812 149.2080078125 L 1340.665893554688 149.2080078125 L 1340.665893554688 150.4080047607422 L 1340.665893554688 152.6820068359375 L 1346.253051757812 152.6820068359375 L 1347.453002929688 152.6820068359375 L 1347.453002929688 153.8820037841797 L 1347.453002929688 156.0610046386719 L 1347.453002929688 157.2610015869141 L 1346.253051757812 157.2610015869141 L 1343.656127929688 157.2610015869141 C 1344.70361328125 159.0906219482422 1346.053833007812 160.6445007324219 1347.446899414062 161.585693359375 L 1348.821044921875 162.51416015625 L 1347.509399414062 163.5290679931641 C 1347.072143554688 163.8673553466797 1346.411376953125 164.5997314453125 1346.095336914062 165.0963287353516 L 1345.3935546875 166.1988525390625 L 1344.354858398438 165.4058074951172 C 1344.336669921875 165.3919067382812 1344.318481445312 165.3780059814453 1344.300415039062 165.3639984130859 L 1343.175048828125 165.3639984130859 L 1340.665893554688 165.3639984130859 L 1340.665893554688 167.2070007324219 L 1340.665893554688 168.4069976806641 Z" stroke="none"/>
              <path d="M 1337.196044921875 150.4080047607422 L 1337.196044921875 153.8820037841797 L 1330.443969726562 153.8820037841797 L 1330.443969726562 156.0610046386719 L 1334.85595703125 156.0610046386719 C 1333.739013671875 158.7799987792969 1331.902954101562 161.3549957275391 1329.81396484375 162.7949981689453 C 1330.317993164062 163.1909942626953 1331.003051757812 164.0010070800781 1331.380981445312 164.5420074462891 C 1332.10205078125 163.9649963378906 1332.785034179688 163.3179931640625 1333.416015625 162.5610046386719 L 1333.416015625 164.1640014648438 L 1337.196044921875 164.1640014648438 L 1337.196044921875 167.2070007324219 L 1339.465942382812 167.2070007324219 L 1339.465942382812 164.1640014648438 L 1343.175048828125 164.1640014648438 L 1343.175048828125 162.5970001220703 C 1343.76904296875 163.3179931640625 1344.39794921875 163.9290008544922 1345.0830078125 164.4519958496094 C 1345.461059570312 163.8580017089844 1346.218017578125 163.0110015869141 1346.775024414062 162.5800018310547 C 1344.6689453125 161.1569976806641 1342.850952148438 158.6900024414062 1341.715942382812 156.0610046386719 L 1346.253051757812 156.0610046386719 L 1346.253051757812 153.8820037841797 L 1339.465942382812 153.8820037841797 L 1339.465942382812 150.4080047607422 L 1337.196044921875 150.4080047607422 M 1337.196044921875 161.9850006103516 L 1333.884033203125 161.9850006103516 C 1335.180053710938 160.2920074462891 1336.277954101562 158.2579956054688 1337.069946289062 156.0610046386719 L 1337.196044921875 156.0610046386719 L 1337.196044921875 161.9850006103516 M 1342.670043945312 161.9850006103516 L 1339.465942382812 161.9850006103516 L 1339.465942382812 156.0610046386719 L 1339.536987304688 156.0610046386719 C 1340.329956054688 158.2579956054688 1341.391967773438 160.2920074462891 1342.670043945312 161.9850006103516 M 1337.196044921875 148.0080108642578 L 1339.465942382812 148.0080108642578 C 1340.791381835938 148.0080108642578 1341.865966796875 149.08251953125 1341.865966796875 150.4080047607422 L 1341.865966796875 151.4820098876953 L 1346.253051757812 151.4820098876953 C 1347.578491210938 151.4820098876953 1348.653076171875 152.5565185546875 1348.653076171875 153.8820037841797 L 1348.653076171875 156.0610046386719 C 1348.653076171875 157.3864898681641 1347.578491210938 158.4609985351562 1346.253051757812 158.4609985351562 L 1345.901977539062 158.4609985351562 C 1346.593383789062 159.3384857177734 1347.350341796875 160.0722198486328 1348.11865234375 160.5913848876953 C 1348.756591796875 161.0224151611328 1349.149047851562 161.7333221435547 1349.173828125 162.5028076171875 C 1349.198486328125 163.2723083496094 1348.852661132812 164.0069732666016 1348.243774414062 164.4781188964844 C 1347.919189453125 164.7292175292969 1347.345947265625 165.3663787841797 1347.107666015625 165.7406616210938 C 1346.746826171875 166.3076019287109 1346.164794921875 166.6972808837891 1345.503173828125 166.81494140625 C 1344.912109375 166.9200134277344 1344.305297851562 166.7993621826172 1343.8017578125 166.4813690185547 C 1343.601928710938 166.5352630615234 1343.391845703125 166.5640106201172 1343.175048828125 166.5640106201172 L 1341.865966796875 166.5640106201172 L 1341.865966796875 167.2070007324219 C 1341.865966796875 168.5324859619141 1340.791381835938 169.6070098876953 1339.465942382812 169.6070098876953 L 1337.196044921875 169.6070098876953 C 1335.87060546875 169.6070098876953 1334.796020507812 168.5324859619141 1334.796020507812 167.2070007324219 L 1334.796020507812 166.5640106201172 L 1333.416015625 166.5640106201172 C 1333.20068359375 166.5640106201172 1332.991943359375 166.5356292724609 1332.793334960938 166.4824371337891 C 1332.288696289062 166.8497314453125 1331.658935546875 167.0068664550781 1331.038818359375 166.91748046875 C 1330.381958007812 166.8228607177734 1329.793579101562 166.4604644775391 1329.41357421875 165.9164276123047 C 1329.078735351562 165.4371643066406 1328.556762695312 164.8594207763672 1328.331298828125 164.6822052001953 C 1327.7314453125 164.2109222412109 1327.391357421875 163.4825592041016 1327.415161132812 162.7201080322266 C 1327.43896484375 161.9576568603516 1327.82373046875 161.2519226074219 1328.451904296875 160.8189849853516 C 1329.25244140625 160.26708984375 1330.054809570312 159.4454650878906 1330.780029296875 158.4609985351562 L 1330.443969726562 158.4609985351562 C 1329.118530273438 158.4609985351562 1328.0439453125 157.3864898681641 1328.0439453125 156.0610046386719 L 1328.0439453125 153.8820037841797 C 1328.0439453125 152.5565185546875 1329.118530273438 151.4820098876953 1330.443969726562 151.4820098876953 L 1334.796020507812 151.4820098876953 L 1334.796020507812 150.4080047607422 C 1334.796020507812 149.08251953125 1335.87060546875 148.0080108642578 1337.196044921875 148.0080108642578 Z" stroke="none" fill="#223875"/>
            </g>
            <g id="Path_158" data-name="Path 158" fill="#fff" stroke-linecap="round" stroke-linejoin="round">
              <path d="M 1349.296142578125 168.6016082763672 L 1348.799438476562 168.0303955078125 C 1348.458618164062 167.6385040283203 1347.759887695312 166.9131927490234 1347.388061523438 166.6269073486328 L 1345.262329101562 164.9906005859375 L 1347.89892578125 164.4965209960938 C 1348.35302734375 164.4114532470703 1348.8046875 164.3139801025391 1349.243041992188 164.2074432373047 L 1349.243041992188 164.1820068359375 L 1349.243041992188 156.8829956054688 L 1348.0849609375 156.8829956054688 L 1346.885009765625 156.8829956054688 L 1346.885009765625 155.6829986572266 L 1346.885009765625 154.0440063476562 L 1346.885009765625 152.8440093994141 L 1347.299072265625 152.8440093994141 L 1347.299072265625 152.8379974365234 L 1347.299072265625 151.2720031738281 L 1347.299072265625 150.0720062255859 L 1348.4990234375 150.0720062255859 L 1353.108032226562 150.0720062255859 L 1354.307983398438 150.0720062255859 L 1354.307983398438 150.2945709228516 C 1354.361328125 150.1642303466797 1354.410888671875 150.0316467285156 1354.456298828125 149.8974609375 L 1354.801147460938 148.8779907226562 L 1355.85205078125 149.1102752685547 L 1357.724975585938 149.5242767333984 L 1359.031127929688 149.8130187988281 L 1358.87060546875 150.2880096435547 L 1362.10888671875 150.2880096435547 L 1362.27685546875 150.2415008544922 L 1362.615234375 150.1478118896484 L 1362.95068359375 150.2513122558594 L 1364.40966796875 150.7013244628906 L 1365.733642578125 151.1096649169922 L 1365.140502929688 152.3617553710938 C 1364.924438476562 152.8179473876953 1364.651733398438 153.3625030517578 1364.346557617188 153.9023284912109 C 1364.4765625 153.9113616943359 1364.6103515625 153.9194641113281 1364.748168945312 153.9266052246094 L 1367.520629882812 154.0703125 L 1365.516357421875 155.9913330078125 C 1365.205200195312 156.28955078125 1364.77978515625 156.9381713867188 1364.577514648438 157.3568420410156 L 1364.203002929688 158.1325531005859 L 1363.68896484375 158.0683288574219 L 1363.68896484375 164.1820068359375 L 1363.68896484375 164.4169464111328 C 1364.141357421875 164.6136932373047 1364.543579101562 164.7978363037109 1364.873779296875 164.9602813720703 L 1366.85400390625 165.9345703125 L 1364.959716796875 167.0669860839844 L 1363.03271484375 168.2189788818359 L 1362.42626953125 168.58154296875 L 1361.81494140625 168.2270660400391 C 1360.91748046875 167.7065734863281 1359.129516601562 166.8476409912109 1357.325073242188 166.1918182373047 L 1356.18310546875 165.7767791748047 L 1355.964965820312 165.9152069091797 C 1354.234985351562 167.0130310058594 1351.684204101562 167.9395446777344 1350.025512695312 168.3993835449219 L 1349.296142578125 168.6016082763672 Z" stroke="none"/>
              <path d="M 1355.593017578125 150.2819976806641 C 1355.178955078125 151.5059967041016 1354.43994140625 152.6940002441406 1353.485961914062 153.4869995117188 C 1353.93701171875 153.7389984130859 1354.72900390625 154.2610015869141 1355.069946289062 154.5839996337891 C 1355.52099609375 154.1699981689453 1355.953002929688 153.6300048828125 1356.3310546875 153.0370025634766 L 1357.411010742188 153.0370025634766 L 1357.411010742188 153.3059997558594 C 1357.411010742188 153.9720001220703 1356.961059570312 154.7830047607422 1353.52197265625 155.1430053710938 L 1353.52197265625 154.0440063476562 L 1348.0849609375 154.0440063476562 L 1348.0849609375 155.6829986572266 L 1352.85595703125 155.6829986572266 C 1353.14501953125 156.0610046386719 1353.432983398438 156.5110015869141 1353.576049804688 156.8529968261719 C 1356.60205078125 156.5110015869141 1358.095947265625 155.8090057373047 1358.779052734375 155.0169982910156 C 1359.913940429688 156.0070037841797 1361.47998046875 156.5829925537109 1363.496948242188 156.8350067138672 C 1363.7490234375 156.3130035400391 1364.253051757812 155.5399932861328 1364.68603515625 155.125 C 1362.255004882812 154.9989929199219 1360.347045898438 154.5480041503906 1359.3740234375 153.593994140625 L 1359.3740234375 153.0370025634766 L 1361.371948242188 153.0370025634766 C 1361.175048828125 153.4149932861328 1360.93994140625 153.7920074462891 1360.741943359375 154.0809936523438 L 1362.39794921875 154.6929931640625 C 1362.974975585938 153.9720001220703 1363.587036132812 152.8379974365234 1364.056030273438 151.8480072021484 L 1362.597045898438 151.3979949951172 L 1362.27197265625 151.4880065917969 L 1357.159057617188 151.4880065917969 C 1357.267944335938 151.2359924316406 1357.375 150.9649963378906 1357.465942382812 150.6959991455078 L 1355.593017578125 150.2819976806641 M 1348.4990234375 151.2720031738281 L 1348.4990234375 152.8379974365234 L 1353.108032226562 152.8379974365234 L 1353.108032226562 151.2720031738281 L 1348.4990234375 151.2720031738281 M 1350.442993164062 156.8719940185547 L 1350.442993164062 164.1820068359375 L 1353.036010742188 164.1820068359375 C 1351.775024414062 164.8119964599609 1349.848999023438 165.3520050048828 1348.119995117188 165.6759948730469 C 1348.588989257812 166.0370025634766 1349.344970703125 166.8289947509766 1349.704956054688 167.2429962158203 C 1351.52294921875 166.7389984130859 1353.847045898438 165.8379974365234 1355.322021484375 164.9019927978516 L 1353.755981445312 164.1820068359375 L 1358.833984375 164.1820068359375 L 1357.734985351562 165.0639953613281 C 1359.517944335938 165.7120056152344 1361.390991210938 166.593994140625 1362.4169921875 167.1889953613281 L 1364.343994140625 166.0370025634766 C 1363.281005859375 165.5140075683594 1361.516967773438 164.7929992675781 1359.859985351562 164.1820068359375 L 1362.489013671875 164.1820068359375 L 1362.489013671875 156.8719940185547 L 1350.442993164062 156.8719940185547 M 1360.31103515625 158.9239959716797 L 1352.514038085938 158.9239959716797 L 1352.514038085938 158.1499938964844 L 1360.31103515625 158.1499938964844 L 1360.31103515625 158.9239959716797 M 1360.31103515625 160.9049987792969 L 1352.514038085938 160.9049987792969 L 1352.514038085938 160.1300048828125 L 1360.31103515625 160.1300048828125 L 1360.31103515625 160.9049987792969 M 1360.31103515625 162.9210052490234 L 1352.514038085938 162.9210052490234 L 1352.514038085938 162.1109924316406 L 1360.31103515625 162.1109924316406 L 1360.31103515625 162.9210052490234 M 1355.591674804688 147.8816375732422 C 1355.763305664062 147.8816375732422 1355.937133789062 147.9001312255859 1356.110961914062 147.9385681152344 L 1357.98388671875 148.3525695800781 C 1358.4755859375 148.4612426757812 1358.916015625 148.7206115722656 1359.247680664062 149.0880126953125 L 1361.94580078125 149.0880126953125 L 1361.956665039062 149.0850219726562 C 1362.398559570312 148.9626312255859 1362.8662109375 148.9694519042969 1363.304443359375 149.1046142578125 L 1364.763427734375 149.5546112060547 C 1365.4287109375 149.7598419189453 1365.97216796875 150.2439270019531 1366.252685546875 150.8812255859375 C 1366.533203125 151.5185394287109 1366.523071289062 152.2462310791016 1366.224975585938 152.8755035400391 C 1366.1796875 152.9711303710938 1366.131958007812 153.0704345703125 1366.08203125 153.1727905273438 C 1366.463500976562 153.4455718994141 1366.764892578125 153.8297424316406 1366.935424804688 154.2880706787109 C 1367.269287109375 155.1853485107422 1367.037841796875 156.1952209472656 1366.3466796875 156.857666015625 C 1366.182861328125 157.0147094726562 1365.8330078125 157.5166931152344 1365.658081054688 157.8786773681641 C 1365.478149414062 158.2512664794922 1365.210815429688 158.56103515625 1364.889038085938 158.7900543212891 L 1364.889038085938 163.6391296386719 C 1365.074462890625 163.7246246337891 1365.246704101562 163.8063812255859 1365.403564453125 163.8835296630859 C 1366.192626953125 164.2717742919922 1366.706176757812 165.0604705810547 1366.741943359375 165.9391479492188 C 1366.77783203125 166.8178100585938 1366.330322265625 167.6457366943359 1365.575439453125 168.0969696044922 L 1363.6484375 169.2489624023438 C 1362.899658203125 169.696533203125 1361.96728515625 169.7026214599609 1361.213012695312 169.2651519775391 C 1360.332641601562 168.7546234130859 1358.57373046875 167.9224243164062 1356.915161132812 167.3196411132812 C 1356.730834960938 167.2526397705078 1356.557983398438 167.1643829345703 1356.399169921875 167.0579376220703 C 1354.568603515625 168.1687774658203 1352.01953125 169.0918731689453 1350.346069335938 169.5557708740234 C 1349.455078125 169.8029174804688 1348.500732421875 169.5157623291016 1347.893920898438 168.8177947998047 C 1347.512817382812 168.3795166015625 1346.899658203125 167.7653045654297 1346.656005859375 167.5778045654297 C 1345.906127929688 167.0005645751953 1345.5654296875 166.0365142822266 1345.7861328125 165.1162414550781 C 1346.006958007812 164.1959991455078 1346.747802734375 163.4913635253906 1347.677978515625 163.3170623779297 C 1347.799926757812 163.294189453125 1347.921752929688 163.2704162597656 1348.04296875 163.2458343505859 L 1348.04296875 158.0826416015625 C 1346.73681640625 158.0602722167969 1345.684936523438 156.9944763183594 1345.684936523438 155.6829986572266 L 1345.684936523438 154.0440063476562 C 1345.684936523438 153.5442810058594 1345.837646484375 153.0802154541016 1346.098999023438 152.6959686279297 L 1346.098999023438 151.2720031738281 C 1346.098999023438 149.946533203125 1347.173583984375 148.8720092773438 1348.4990234375 148.8720092773438 L 1353.108032226562 148.8720092773438 C 1353.28125 148.8720092773438 1353.450073242188 148.8903350830078 1353.612915039062 148.9252014160156 C 1354.057495117188 148.2760162353516 1354.799438476562 147.8816375732422 1355.591674804688 147.8816375732422 Z" stroke="none" fill="#223875"/>
            </g>
            <g id="Path_159" data-name="Path 159" fill="#fff" stroke-linecap="round" stroke-linejoin="round">
              <path d="M 1371.947998046875 168.4069976806641 L 1370.748046875 168.4069976806641 L 1368.767944335938 168.4069976806641 L 1367.567993164062 168.4069976806641 L 1367.567993164062 167.2070007324219 L 1367.567993164062 166.4003143310547 L 1366.116455078125 168.0174865722656 L 1365.583984375 165.79345703125 C 1365.465209960938 165.2973785400391 1365.16259765625 164.5097045898438 1364.6845703125 163.4523468017578 L 1364.373413085938 162.7641906738281 L 1364.859252929688 162.1860046386719 C 1365.34765625 161.6047821044922 1365.854248046875 160.5586547851562 1366.159301757812 159.5480041503906 L 1366.048950195312 159.5480041503906 L 1364.848999023438 159.5480041503906 L 1364.848999023438 158.3480072021484 L 1364.848999023438 156.3489990234375 L 1364.848999023438 155.1490020751953 L 1365.569091796875 155.1490020751953 C 1365.440673828125 154.2554321289062 1365.189331054688 153.1677551269531 1364.890258789062 152.2592926025391 L 1364.487548828125 151.0362548828125 L 1365.73583984375 150.7206115722656 L 1367.230834960938 150.3426055908203 L 1367.567993164062 150.2573852539062 L 1367.567993164062 149.1890106201172 L 1368.767944335938 149.1890106201172 L 1370.748046875 149.1890106201172 L 1371.947998046875 149.1890106201172 L 1371.947998046875 150.192138671875 L 1372.18359375 150.2416229248047 L 1373.983642578125 150.61962890625 L 1374.403686523438 150.7078247070312 L 1374.433715820312 150.6656646728516 L 1375.072387695312 149.7692413330078 L 1376.0205078125 150.3283233642578 C 1376.484252929688 150.6017608642578 1377.006591796875 150.9419708251953 1377.506103515625 151.3042297363281 L 1377.506103515625 150.3719940185547 L 1377.506103515625 149.1719970703125 L 1378.7060546875 149.1719970703125 L 1380.723022460938 149.1719970703125 L 1381.922973632812 149.1719970703125 L 1381.922973632812 150.3719940185547 L 1381.922973632812 158.8302001953125 L 1382.33984375 158.7523956298828 L 1383.547973632812 158.5268249511719 L 1383.74462890625 159.7400360107422 L 1384.068603515625 161.739013671875 L 1384.256591796875 162.89892578125 L 1383.100830078125 163.1112518310547 L 1381.922973632812 163.32763671875 L 1381.922973632812 167.1889953613281 L 1381.922973632812 168.3889923095703 L 1380.723022460938 168.3889923095703 L 1378.7060546875 168.3889923095703 L 1377.506103515625 168.3889923095703 L 1377.506103515625 167.1889953613281 L 1377.506103515625 164.1211242675781 L 1373.894653320312 164.7682037353516 L 1372.6943359375 164.9832763671875 L 1372.687377929688 164.9406433105469 L 1371.947998046875 165.7436065673828 L 1371.947998046875 167.2070007324219 L 1371.947998046875 168.4069976806641 Z M 1373.156494140625 159.5480041503906 C 1373.309692382812 159.7973785400391 1373.469848632812 160.0623168945312 1373.624633789062 160.3224029541016 L 1375.265747070312 160.0293579101562 C 1375.081420898438 159.8641510009766 1374.859008789062 159.6817169189453 1374.612915039062 159.4927368164062 L 1374.612915039062 159.5480041503906 L 1373.412963867188 159.5480041503906 L 1373.156494140625 159.5480041503906 Z M 1374.205322265625 154.2400360107422 L 1374.695922851562 154.5018157958984 C 1374.546020507812 154.3871307373047 1374.390869140625 154.2719116210938 1374.232421875 154.1578521728516 C 1374.223388671875 154.1852569580078 1374.21435546875 154.2127380371094 1374.205322265625 154.2400360107422 Z" stroke="none"/>
              <path d="M 1370.748046875 167.2070007324219 L 1370.748046875 160.9770050048828 C 1371.197998046875 161.9669952392578 1371.68505859375 163.1909942626953 1371.93701171875 163.9839935302734 L 1373.412963867188 162.3809967041016 C 1373.142944335938 161.822998046875 1371.7919921875 159.572998046875 1371.432983398438 159.0859985351562 L 1370.748046875 159.572998046875 L 1370.748046875 158.3480072021484 L 1373.412963867188 158.3480072021484 L 1373.412963867188 156.3489990234375 L 1370.748046875 156.3489990234375 L 1370.748046875 150.3890075683594 L 1368.767944335938 150.3890075683594 L 1368.767944335938 156.3489990234375 L 1366.048950195312 156.3489990234375 L 1366.048950195312 158.3480072021484 L 1368.767944335938 158.3480072021484 L 1368.767944335938 159.4640045166016 L 1367.525024414062 159.0319976806641 C 1367.255004882812 160.4010009765625 1366.535034179688 162.0570068359375 1365.777954101562 162.9579925537109 C 1366.10302734375 163.677001953125 1366.569946289062 164.7579956054688 1366.7509765625 165.5140075683594 C 1367.68798828125 164.4700012207031 1368.35400390625 162.5800018310547 1368.767944335938 160.7790069580078 L 1368.767944335938 167.2070007324219 L 1370.748046875 167.2070007324219 M 1380.723022460938 167.1889953613281 L 1380.723022460938 162.3280029296875 L 1382.884033203125 161.9309997558594 L 1382.56005859375 159.9320068359375 L 1380.723022460938 160.2749938964844 L 1380.723022460938 150.3719940185547 L 1378.7060546875 150.3719940185547 L 1378.7060546875 160.6340026855469 L 1373.358032226562 161.5890045166016 L 1373.682983398438 163.5870056152344 L 1378.7060546875 162.6869964599609 L 1378.7060546875 167.1889953613281 L 1380.723022460938 167.1889953613281 M 1376.510009765625 159.572998046875 L 1377.589965820312 157.8619995117188 C 1376.941040039062 157.2129974365234 1375.609008789062 156.3489990234375 1374.56494140625 155.7920074462891 L 1373.557006835938 157.3220062255859 C 1374.60205078125 157.9519958496094 1375.9150390625 158.906005859375 1376.510009765625 159.572998046875 M 1366.858032226562 156.0429992675781 L 1368.461059570312 155.6289978027344 C 1368.390014648438 154.5130004882812 1368.010986328125 152.8200073242188 1367.525024414062 151.5059967041016 L 1366.030029296875 151.8840026855469 C 1366.463012695312 153.1990051269531 1366.822998046875 154.927001953125 1366.858032226562 156.0429992675781 M 1372.296997070312 155.9709930419922 C 1372.745971679688 154.927001953125 1373.26904296875 153.2350006103516 1373.737060546875 151.7940063476562 L 1371.93701171875 151.4160003662109 C 1371.738037109375 152.6759948730469 1371.306030273438 154.4579925537109 1370.927978515625 155.5930023193359 L 1372.296997070312 155.9709930419922 M 1377.176025390625 155.1430053710938 L 1378.274047851562 153.5410003662109 C 1377.697998046875 152.875 1376.420043945312 151.9570007324219 1375.411010742188 151.3619995117188 L 1374.385009765625 152.802001953125 C 1375.375 153.4680023193359 1376.618041992188 154.4409942626953 1377.176025390625 155.1430053710938 M 1370.748046875 169.6069946289062 L 1368.767944335938 169.6069946289062 C 1367.682373046875 169.6069946289062 1366.765258789062 168.8864135742188 1366.46875 167.8973999023438 C 1366.365966796875 167.8852233886719 1366.263305664062 167.8663024902344 1366.161376953125 167.8404541015625 C 1365.296630859375 167.6213073730469 1364.624755859375 166.9405212402344 1364.4169921875 166.0729064941406 C 1364.359985351562 165.8351287841797 1364.177001953125 165.2427215576172 1363.591064453125 163.9467010498047 C 1363.210815429688 163.1055145263672 1363.3466796875 162.1207733154297 1363.940551757812 161.4140167236328 C 1364.144165039062 161.1717224121094 1364.387573242188 160.7578582763672 1364.609375 160.2685394287109 C 1364.026245117188 159.8307037353516 1363.64892578125 159.1333923339844 1363.64892578125 158.3480072021484 L 1363.64892578125 156.3489990234375 C 1363.64892578125 155.7225036621094 1363.889038085938 155.1520233154297 1364.2822265625 154.7246246337891 C 1364.152465820312 154.0368804931641 1363.963012695312 153.2802581787109 1363.750366210938 152.6345977783203 C 1363.542114257812 152.0021362304688 1363.606079101562 151.3115997314453 1363.9267578125 150.7280578613281 C 1364.247436523438 150.1445159912109 1364.796142578125 149.7204437255859 1365.441772460938 149.5572204589844 L 1366.654663085938 149.2505493164062 C 1367.060180664062 148.4993438720703 1367.854370117188 147.989013671875 1368.767944335938 147.989013671875 L 1370.748046875 147.989013671875 C 1371.6181640625 147.989013671875 1372.380004882812 148.4519958496094 1372.800903320312 149.1450653076172 L 1374.025024414062 149.4021301269531 C 1374.7607421875 148.8818359375 1375.752685546875 148.8058624267578 1376.576538085938 149.2640075683594 C 1376.976806640625 148.4961853027344 1377.7802734375 147.9719848632812 1378.7060546875 147.9719848632812 L 1380.723022460938 147.9719848632812 C 1382.048461914062 147.9719848632812 1383.123046875 149.0465087890625 1383.123046875 150.3719940185547 L 1383.123046875 157.5989685058594 C 1383.413452148438 157.6690521240234 1383.691040039062 157.7934112548828 1383.9404296875 157.9686737060547 C 1384.46923828125 158.3404846191406 1384.82568359375 158.909912109375 1384.92919921875 159.5480499267578 L 1385.253173828125 161.5470428466797 C 1385.462036132812 162.8360443115234 1384.60205078125 164.0555572509766 1383.317626953125 164.29150390625 L 1383.123046875 164.3272552490234 L 1383.123046875 167.1889953613281 C 1383.123046875 168.5144805908203 1382.048461914062 169.5890045166016 1380.723022460938 169.5890045166016 L 1378.7060546875 169.5890045166016 C 1377.380615234375 169.5890045166016 1376.306030273438 168.5144805908203 1376.306030273438 167.1889953613281 L 1376.306030273438 165.5552368164062 L 1374.106323242188 165.9493865966797 C 1373.838500976562 165.9973602294922 1373.5673828125 165.9990539550781 1373.3037109375 165.9568634033203 C 1373.253051757812 165.9920196533203 1373.201049804688 166.0251007080078 1373.148071289062 166.0560913085938 L 1373.148071289062 167.2070007324219 C 1373.148071289062 168.5324859619141 1372.073486328125 169.6069946289062 1370.748046875 169.6069946289062 Z" stroke="none" fill="#223875"/>
            </g>
          </g>
        </g>
      </g>
    </g>
  </g>
</svg>
