<svg xmlns="http://www.w3.org/2000/svg" xmlns:xlink="http://www.w3.org/1999/xlink" width="310" height="316" viewBox="0 0 310 316">
  <defs>
    <clipPath id="clip-path">
      <rect id="Rectangle_148" data-name="Rectangle 148" width="310" height="316"/>
    </clipPath>
    <filter id="加碼抽" x="46.021" y="2" width="134" height="48" filterUnits="userSpaceOnUse">
      <feOffset dx="2" dy="4" input="SourceAlpha"/>
      <feGaussianBlur result="blur"/>
      <feFlood flood-color="#003a72"/>
      <feComposite operator="in" in2="blur"/>
      <feComposite in="SourceGraphic"/>
    </filter>
  </defs>
  <g id="bg-awards-text-3" clip-path="url(#clip-path)">
    <g id="Group_1143" data-name="Group 1143" transform="translate(4379.421 -5409)">
      <g id="Group_1136" data-name="Group 1136" transform="translate(-5536 3475)">
        <g id="Group_1085" data-name="Group 1085" transform="translate(-707.997 -8.292)">
          <path id="Path_52" data-name="Path 52" d="M2058.27,2129.52a6.177,6.177,0,0,0-4.475-5.584c-2.952-.83-5.212.289-7.587,3.793a6.945,6.945,0,0,0-4.254-4.249c3.315-1.99,4.542-4.3,3.888-7.219a6.154,6.154,0,0,0-5.3-4.807c-3.067-.309-5.246,1.173-6.793,4.661-1.239-3.253-3.377-4.809-6.381-4.7a6.18,6.18,0,0,0-5.627,4.424c-.864,2.95.23,5.23,3.58,7.554a17.265,17.265,0,0,0-2.351,1.708,18.523,18.523,0,0,0-1.764,2.392c-2.166-3.229-4.372-4.355-7.245-3.65a6.2,6.2,0,0,0-3.682,9.553,6.508,6.508,0,0,0,3.774,2.579c-3.6,1.669-5.146,3.713-4.843,6.549a7.214,7.214,0,0,0,.877,2.81,6.632,6.632,0,0,0,1.994,2.06,13.388,13.388,0,0,0,2.554,1.086c-3.669,1.133-5.434,3.278-5.215,6.433a5.984,5.984,0,0,0,5.135,5.472,5.765,5.765,0,0,0,4.514-1.2,4.293,4.293,0,1,1,8.09,1.535c-3.851,1.238-5.654,3.5-5.259,6.5a5.817,5.817,0,0,0,11.429.783,5.671,5.671,0,0,0-.412-3.913,6.1,6.1,0,0,0-4.661-3.361,6.469,6.469,0,0,0,5.48-4.638c1.779,3.531,3.7,4.81,6.791,4.534a6.045,6.045,0,0,0,5.23-4.385c.885-3.508-.532-6.01-3.742-7.668a7.07,7.07,0,0,0,4.223-4.191c1.886,3.152,4.192,4.417,6.97,3.9a6.073,6.073,0,0,0,5-5.118c.416-3.7-1.392-6.01-4.91-7.144C2056.81,2134.73,2058.39,2132.64,2058.27,2129.52Zm-37.012,2.514a3.983,3.983,0,1,1-3.853,1.822,3.975,3.975,0,0,1,3.853-1.822Zm.188,21.847a6.366,6.366,0,0,0-5.679-5.46,6.535,6.535,0,0,0,5.473-4,7.226,7.226,0,0,0,4.2,4.171,6.589,6.589,0,0,0-3.99,5.3Zm12.324-.916a6.627,6.627,0,0,0-3.874-4.35,7.275,7.275,0,0,0,3.876-3.4,7.106,7.106,0,0,0,3.918,3.38,6.633,6.633,0,0,0-3.92,4.375Zm-2.834-16.955,2.842-2.822,2.862,2.834-2.868,2.78Zm2.85-9.134a7.492,7.492,0,0,0-3.94-3.442,4.008,4.008,0,1,1,7.948.016,7.119,7.119,0,0,0-4,3.43Zm12.479,13.2a4.144,4.144,0,1,1,4.182-1.811,4.111,4.111,0,0,1-4.182,1.811Z" transform="translate(-7.711 -7.708)" fill="#07fd60"/>
          <path id="Path_53" data-name="Path 53" d="M2054.86,2151.19a5.98,5.98,0,1,0,5.952,6.008,5.979,5.979,0,0,0-5.952-6.008Z" transform="translate(-10.414 -10.418)" fill="#07fd60"/>
          <path id="Path_54" data-name="Path 54" d="M2015.43,2123.59a5.866,5.866,0,0,0,5.976-5.969,5.981,5.981,0,1,0-11.962-.053,5.864,5.864,0,0,0,5.985,6.022Z" transform="translate(-7.73 -7.722)" fill="#07fd60"/>
          <path id="Path_55" data-name="Path 55" d="M2054.8,2123.59a5.971,5.971,0,1,0-5.964-5.993,6.036,6.036,0,0,0,5.964,5.993Z" transform="translate(-10.414 -7.723)" fill="#07fd60"/>
          <path id="Path_56" data-name="Path 56" d="M2002.23,2138.19a5.817,5.817,0,1,0,5.822,5.812A5.817,5.817,0,0,0,2002.23,2138.19Z" transform="translate(-6.842 -9.532)" fill="#07fd60"/>
          <path id="Path_57" data-name="Path 57" d="M2041.64,2164.39a5.7,5.7,0,0,0-5.81,5.818,5.815,5.815,0,1,0,11.629,0,5.717,5.717,0,0,0-5.819-5.818Z" transform="translate(-9.527 -11.317)" fill="#07fd60"/>
          <path id="Path_58" data-name="Path 58" d="M2002.21,2136.62a5.8,5.8,0,1,0-5.775-5.775,5.8,5.8,0,0,0,5.775,5.775Z" transform="translate(-6.843 -8.634)" fill="#07fd60"/>
          <path id="Path_59" data-name="Path 59" d="M2041.67,2110.4a5.794,5.794,0,1,0-5.818-5.809,5.794,5.794,0,0,0,5.818,5.809Z" transform="translate(-9.529 -6.849)" fill="#07fd60"/>
          <path id="Path_60" data-name="Path 60" d="M2068.05,2125.02a5.788,5.788,0,1,0,5.764,5.773,5.788,5.788,0,0,0-5.764-5.773Z" transform="translate(-11.327 -8.635)" fill="#07fd60"/>
          <path id="Path_61" data-name="Path 61" d="M2028.55,2110.42a5.8,5.8,0,1,0-5.72-5.92,5.882,5.882,0,0,0,5.72,5.92Z" transform="translate(-8.642 -6.849)" fill="#07fd60"/>
          <path id="Path_62" data-name="Path 62" d="M2068.03,2138.22a5.788,5.788,0,1,0,5.781,5.756,5.788,5.788,0,0,0-5.781-5.756Z" transform="translate(-11.327 -9.534)" fill="#07fd60"/>
          <path id="Path_63" data-name="Path 63" d="M2015.4,2164.57a5.655,5.655,0,1,0,5.7,5.634,5.655,5.655,0,0,0-5.7-5.634Z" transform="translate(-7.753 -11.329)" fill="#07fd60"/>
          <path id="Path_64" data-name="Path 64" d="M2002.28,2151.55a5.656,5.656,0,1,0,5.619,5.71,5.656,5.656,0,0,0-5.619-5.71Z" transform="translate(-6.854 -10.442)" fill="#07fd60"/>
          <path id="Path_65" data-name="Path 65" d="M2054.82,2164.76a5.641,5.641,0,1,0,5.657,5.663A5.641,5.641,0,0,0,2054.82,2164.76Z" transform="translate(-10.439 -11.342)" fill="#07fd60"/>
          <path id="Path_66" data-name="Path 66" d="M2068.1,2151.56a5.641,5.641,0,1,0,5.571,5.671,5.641,5.641,0,0,0-5.571-5.671Z" transform="translate(-11.337 -10.443)" fill="#07fd60"/>
          <path id="Path_67" data-name="Path 67" d="M2002.24,2123.27a5.641,5.641,0,1,0-5.634-5.686,5.641,5.641,0,0,0,5.634,5.686Z" transform="translate(-6.855 -7.747)" fill="#07fd60"/>
          <path id="Path_68" data-name="Path 68" d="M2015.38,2110.25a5.641,5.641,0,1,0-5.585-5.657A5.641,5.641,0,0,0,2015.38,2110.25Z" transform="translate(-7.754 -6.86)" fill="#07fd60"/>
          <path id="Path_69" data-name="Path 69" d="M2068.06,2123.26a5.622,5.622,0,1,0-5.651-5.592A5.622,5.622,0,0,0,2068.06,2123.26Z" transform="translate(-11.339 -7.748)" fill="#07fd60"/>
          <path id="Path_70" data-name="Path 70" d="M2054.86,2110.23a5.621,5.621,0,1,0-5.64-5.6,5.621,5.621,0,0,0,5.64,5.6Z" transform="translate(-10.44 -6.861)" fill="#07fd60"/>
          <path id="Path_71" data-name="Path 71" d="M1989.08,2125.48a5.347,5.347,0,1,0,3.82,1.589A5.365,5.365,0,0,0,1989.08,2125.48Z" transform="translate(-5.976 -8.666)" fill="#07fd60"/>
          <path id="Path_72" data-name="Path 72" d="M2002.31,2164.88a5.347,5.347,0,1,0,3.809,1.615A5.365,5.365,0,0,0,2002.31,2164.88Z" transform="translate(-6.875 -11.351)" fill="#07fd60"/>
          <path id="Path_73" data-name="Path 73" d="M1989.11,2138.67a5.346,5.346,0,1,0,3.809,1.613A5.366,5.366,0,0,0,1989.11,2138.67Z" transform="translate(-5.976 -9.565)" fill="#07fd60"/>
          <path id="Path_74" data-name="Path 74" d="M2041.7,2178.07a5.345,5.345,0,1,0,3.784,1.579,5.364,5.364,0,0,0-3.784-1.579Z" transform="translate(-9.56 -12.249)" fill="#07fd60"/>
          <path id="Path_75" data-name="Path 75" d="M2028.73,2178.07a5.345,5.345,0,1,0,3.77,1.614,5.365,5.365,0,0,0-3.77-1.614Z" transform="translate(-8.673 -12.249)" fill="#07fd60"/>
          <path id="Path_76" data-name="Path 76" d="M2002.26,2109.99a5.357,5.357,0,1,0-5.346-5.366,5.357,5.357,0,0,0,5.346,5.366Z" transform="translate(-6.876 -6.88)" fill="#07fd60"/>
          <path id="Path_77" data-name="Path 77" d="M2068.06,2165.06a5.356,5.356,0,1,0,5.349,5.364A5.356,5.356,0,0,0,2068.06,2165.06Z" transform="translate(-11.358 -11.363)" fill="#07fd60"/>
          <path id="Path_78" data-name="Path 78" d="M2068.05,2109.98a5.346,5.346,0,1,0-5.345-5.366,5.346,5.346,0,0,0,5.345,5.366Z" transform="translate(-11.359 -6.882)" fill="#07fd60"/>
          <path id="Path_79" data-name="Path 79" d="M2081.27,2125.5a5.346,5.346,0,1,0,5.325,5.386A5.346,5.346,0,0,0,2081.27,2125.5Z" transform="translate(-12.258 -8.667)" fill="#07fd60"/>
          <path id="Path_80" data-name="Path 80" d="M2081.22,2138.69a5.346,5.346,0,1,0,5.368,5.344,5.346,5.346,0,0,0-5.368-5.344Z" transform="translate(-12.258 -9.566)" fill="#07fd60"/>
          <path id="Path_81" data-name="Path 81" d="M2041.69,2096.79a5.346,5.346,0,1,0-5.364-5.346A5.346,5.346,0,0,0,2041.69,2096.79Z" transform="translate(-9.561 -5.982)" fill="#07fd60"/>
          <path id="Path_82" data-name="Path 82" d="M2028.63,2096.79a5.346,5.346,0,1,0-5.32-5.39,5.346,5.346,0,0,0,5.32,5.39Z" transform="translate(-8.674 -5.982)" fill="#07fd60"/>
          <path id="Path_83" data-name="Path 83" d="M1989.05,2152a5.2,5.2,0,1,0,3.73,1.5,5.234,5.234,0,0,0-3.73-1.5Z" transform="translate(-5.986 -10.473)" fill="#07fd60"/>
          <path id="Path_84" data-name="Path 84" d="M2015.43,2178.21a5.2,5.2,0,1,0,3.729,1.5A5.235,5.235,0,0,0,2015.43,2178.21Z" transform="translate(-7.783 -12.259)" fill="#07fd60"/>
          <path id="Path_85" data-name="Path 85" d="M2054.89,2178.21a5.2,5.2,0,1,0,3.715,1.54A5.235,5.235,0,0,0,2054.89,2178.21Z" transform="translate(-10.468 -12.259)" fill="#07fd60"/>
          <path id="Path_86" data-name="Path 86" d="M2081.4,2152.02a5.22,5.22,0,1,0,5.069,5.327,5.22,5.22,0,0,0-5.069-5.327Z" transform="translate(-12.267 -10.474)" fill="#07fd60"/>
          <path id="Path_87" data-name="Path 87" d="M1989.05,2122.88a5.188,5.188,0,1,0-3.675-1.532,5.219,5.219,0,0,0,3.675,1.532Z" transform="translate(-5.987 -7.778)" fill="#07fd60"/>
          <path id="Path_88" data-name="Path 88" d="M2015.48,2096.67a5.187,5.187,0,1,0-3.716-1.527A5.219,5.219,0,0,0,2015.48,2096.67Z" transform="translate(-7.785 -5.992)" fill="#07fd60"/>
          <path id="Path_89" data-name="Path 89" d="M2081.28,2122.87a5.192,5.192,0,1,0-3.714-1.526A5.207,5.207,0,0,0,2081.28,2122.87Z" transform="translate(-12.268 -7.779)" fill="#07fd60"/>
          <path id="Path_90" data-name="Path 90" d="M2054.93,2096.66a5.194,5.194,0,1,0-3.722-1.5,5.206,5.206,0,0,0,3.722,1.5Z" transform="translate(-10.47 -5.993)" fill="#07fd60"/>
          <path id="Path_91" data-name="Path 91" d="M1989.11,2165.24a5.035,5.035,0,1,0,5.026,5.084,5.035,5.035,0,0,0-5.026-5.084Z" transform="translate(-6.001 -11.375)" fill="#07fd60"/>
          <path id="Path_92" data-name="Path 92" d="M2002.33,2178.43a5.035,5.035,0,1,0,5,5.111A5.035,5.035,0,0,0,2002.33,2178.43Z" transform="translate(-6.899 -12.273)" fill="#07fd60"/>
          <path id="Path_93" data-name="Path 93" d="M2081.28,2165.42a5.022,5.022,0,1,0,5.008,5.017A5.022,5.022,0,0,0,2081.28,2165.42Z" transform="translate(-12.281 -11.387)" fill="#07fd60"/>
          <path id="Path_94" data-name="Path 94" d="M2002.29,2096.49a5.023,5.023,0,1,0-5.016-5.089,5.023,5.023,0,0,0,5.016,5.089Z" transform="translate(-6.9 -6.006)" fill="#07fd60"/>
          <path id="Path_95" data-name="Path 95" d="M1989.06,2109.68a5.022,5.022,0,1,0-4.985-5.04,5.021,5.021,0,0,0,4.985,5.04Z" transform="translate(-6.001 -6.905)" fill="#07fd60"/>
          <path id="Path_96" data-name="Path 96" d="M2068.09,2178.44a5.022,5.022,0,1,0,5.01,5.014,5.022,5.022,0,0,0-5.01-5.014Z" transform="translate(-11.383 -12.274)" fill="#07fd60"/>
          <path id="Path_97" data-name="Path 97" d="M2081.27,2109.66a5,5,0,1,0-5-4.947A5,5,0,0,0,2081.27,2109.66Z" transform="translate(-12.282 -6.906)" fill="#07fd60"/>
          <path id="Path_98" data-name="Path 98" d="M2067.98,2096.47a5,5,0,1,0-4.906-5.12A5,5,0,0,0,2067.98,2096.47Z" transform="translate(-11.384 -6.007)" fill="#07fd60"/>
          <path id="Path_99" data-name="Path 99" d="M2028.59,2191.76a4.874,4.874,0,1,0,3.447,1.478A4.9,4.9,0,0,0,2028.59,2191.76Z" transform="translate(-8.695 -13.182)" fill="#07fd60"/>
          <path id="Path_100" data-name="Path 100" d="M2041.8,2191.76a4.874,4.874,0,1,0,3.443,1.486,4.9,4.9,0,0,0-3.443-1.486Z" transform="translate(-9.594 -13.182)" fill="#07fd60"/>
          <path id="Path_101" data-name="Path 101" d="M1975.99,2125.97a4.875,4.875,0,1,0,3.45,1.468,4.905,4.905,0,0,0-3.45-1.468Z" transform="translate(-5.111 -8.699)" fill="#07fd60"/>
          <path id="Path_102" data-name="Path 102" d="M1975.95,2139.16a4.872,4.872,0,1,0,3.463,1.44A4.9,4.9,0,0,0,1975.95,2139.16Z" transform="translate(-5.111 -9.598)" fill="#07fd60"/>
          <path id="Path_103" data-name="Path 103" d="M2094.25,2139.18a4.88,4.88,0,1,0,3.483,1.4A4.891,4.891,0,0,0,2094.25,2139.18Z" transform="translate(-13.178 -9.599)" fill="#07fd60"/>
          <path id="Path_104" data-name="Path 104" d="M2028.68,2083.18a4.879,4.879,0,1,0-3.469-1.438,4.891,4.891,0,0,0,3.469,1.438Z" transform="translate(-8.707 -5.117)" fill="#07fd60"/>
          <path id="Path_105" data-name="Path 105" d="M2094.45,2126a4.894,4.894,0,1,0,3.467,1.433A4.882,4.882,0,0,0,2094.45,2126Z" transform="translate(-13.19 -8.701)" fill="#07fd60"/>
          <path id="Path_106" data-name="Path 106" d="M2041.67,2083.17a4.881,4.881,0,1,0-4.844-4.879,4.882,4.882,0,0,0,4.844,4.879Z" transform="translate(-9.595 -5.118)" fill="#07fd60"/>
          <path id="Path_107" data-name="Path 107" d="M2054.9,2191.84a4.83,4.83,0,1,0,4.828,4.81,4.83,4.83,0,0,0-4.828-4.81Z" transform="translate(-10.498 -13.187)" fill="#07fd60"/>
          <path id="Path_108" data-name="Path 108" d="M1975.97,2152.44a4.829,4.829,0,1,0,4.782,4.856,4.829,4.829,0,0,0-4.782-4.856Z" transform="translate(-5.117 -10.503)" fill="#07fd60"/>
          <path id="Path_109" data-name="Path 109" d="M2015.51,2191.84a4.83,4.83,0,1,0,4.821,4.818A4.831,4.831,0,0,0,2015.51,2191.84Z" transform="translate(-7.813 -13.187)" fill="#07fd60"/>
          <path id="Path_110" data-name="Path 110" d="M2094.33,2152.47a4.778,4.778,0,1,0,3.386,1.42,4.8,4.8,0,0,0-3.386-1.42Z" transform="translate(-13.185 -10.505)" fill="#07fd60"/>
          <path id="Path_111" data-name="Path 111" d="M1975.91,2122.49a4.777,4.777,0,1,0-3.389-1.415,4.794,4.794,0,0,0,3.389,1.415Z" transform="translate(-5.119 -7.809)" fill="#07fd60"/>
          <path id="Path_112" data-name="Path 112" d="M2094.5,2122.46a4.728,4.728,0,1,0-3.4-1.38A4.767,4.767,0,0,0,2094.5,2122.46Z" transform="translate(-13.199 -7.811)" fill="#07fd60"/>
          <path id="Path_113" data-name="Path 113" d="M2015.43,2083.06a4.732,4.732,0,1,0-3.35-1.421A4.768,4.768,0,0,0,2015.43,2083.06Z" transform="translate(-7.818 -5.126)" fill="#07fd60"/>
          <path id="Path_114" data-name="Path 114" d="M2054.93,2083.06a4.73,4.73,0,1,0-3.4-1.38,4.768,4.768,0,0,0,3.4,1.38Z" transform="translate(-10.502 -5.126)" fill="#07fd60"/>
          <path id="Path_115" data-name="Path 115" d="M1989.23,2178.76a4.724,4.724,0,1,0,4.615,4.812,4.723,4.723,0,0,0-4.615-4.812Z" transform="translate(-6.023 -12.296)" fill="#07fd60"/>
          <path id="Path_116" data-name="Path 116" d="M2081.25,2178.77a4.712,4.712,0,1,0,4.749,4.675A4.712,4.712,0,0,0,2081.25,2178.77Z" transform="translate(-12.304 -12.297)" fill="#07fd60"/>
          <path id="Path_117" data-name="Path 117" d="M1989.15,2096.2a4.711,4.711,0,1,0-4.737-4.686,4.711,4.711,0,0,0,4.737,4.686Z" transform="translate(-6.024 -6.029)" fill="#07fd60"/>
          <path id="Path_118" data-name="Path 118" d="M2081.28,2096.19a4.7,4.7,0,1,0-4.684-4.745,4.695,4.695,0,0,0,4.684,4.745Z" transform="translate(-12.305 -6.03)" fill="#07fd60"/>
          <path id="Path_119" data-name="Path 119" d="M2068.25,2192.08a4.57,4.57,0,1,0,3.217,1.435,4.607,4.607,0,0,0-3.217-1.435Z" transform="translate(-11.413 -13.203)" fill="#07fd60"/>
          <path id="Path_120" data-name="Path 120" d="M2002.37,2192.08a4.569,4.569,0,1,0,3.25,1.362A4.608,4.608,0,0,0,2002.37,2192.08Z" transform="translate(-6.931 -13.203)" fill="#07fd60"/>
          <path id="Path_121" data-name="Path 121" d="M1976,2165.7a4.57,4.57,0,1,0,3.246,1.37A4.607,4.607,0,0,0,1976,2165.7Z" transform="translate(-5.133 -11.406)" fill="#07fd60"/>
          <path id="Path_122" data-name="Path 122" d="M1976.08,2109.13a4.571,4.571,0,1,0-3.252-1.355A4.608,4.608,0,0,0,1976.08,2109.13Z" transform="translate(-5.145 -6.924)" fill="#07fd60"/>
          <path id="Path_123" data-name="Path 123" d="M2002.35,2082.9a4.554,4.554,0,1,0-3.263-1.315,4.589,4.589,0,0,0,3.263,1.315Z" transform="translate(-6.932 -5.139)" fill="#07fd60"/>
          <path id="Path_124" data-name="Path 124" d="M2094.33,2165.88a4.553,4.553,0,1,0,3.251,1.342A4.589,4.589,0,0,0,2094.33,2165.88Z" transform="translate(-13.2 -11.419)" fill="#07fd60"/>
          <path id="Path_125" data-name="Path 125" d="M2068.05,2082.88a4.576,4.576,0,1,0-4.513-4.6A4.577,4.577,0,0,0,2068.05,2082.88Z" transform="translate(-11.415 -5.14)" fill="#07fd60"/>
          <path id="Path_126" data-name="Path 126" d="M2094.4,2109.26a4.576,4.576,0,1,0-4.48-4.633,4.576,4.576,0,0,0,4.48,4.633Z" transform="translate(-13.213 -6.938)" fill="#07fd60"/>
          <path id="Path_127" data-name="Path 127" d="M2041.74,2205.46a4.4,4.4,0,1,0,3.15,1.306A4.425,4.425,0,0,0,2041.74,2205.46Z" transform="translate(-9.629 -14.116)" fill="#07fd60"/>
          <path id="Path_128" data-name="Path 128" d="M2028.55,2205.46a4.4,4.4,0,1,0,3.152,1.3A4.425,4.425,0,0,0,2028.55,2205.46Z" transform="translate(-8.73 -14.116)" fill="#07fd60"/>
          <path id="Path_129" data-name="Path 129" d="M1962.92,2126.49a4.4,4.4,0,1,0,3.154,1.3,4.425,4.425,0,0,0-3.154-1.3Z" transform="translate(-4.259 -8.735)" fill="#07fd60"/>
          <path id="Path_130" data-name="Path 130" d="M1962.93,2139.68a4.4,4.4,0,1,0,3.15,1.3A4.425,4.425,0,0,0,1962.93,2139.68Z" transform="translate(-4.259 -9.633)" fill="#07fd60"/>
          <path id="Path_131" data-name="Path 131" d="M2107.53,2139.69a4.413,4.413,0,1,0,4.405,4.4,4.412,4.412,0,0,0-4.405-4.4Z" transform="translate(-14.112 -9.634)" fill="#07fd60"/>
          <path id="Path_132" data-name="Path 132" d="M2107.59,2126.5a4.412,4.412,0,1,0,4.345,4.459,4.412,4.412,0,0,0-4.345-4.459Z" transform="translate(-14.112 -8.736)" fill="#07fd60"/>
          <path id="Path_133" data-name="Path 133" d="M2041.75,2069.54a4.41,4.41,0,1,0-3.145-1.3A4.412,4.412,0,0,0,2041.75,2069.54Z" transform="translate(-9.63 -4.253)" fill="#07fd60"/>
          <path id="Path_134" data-name="Path 134" d="M2028.71,2069.54a4.412,4.412,0,1,0-4.4-4.4A4.412,4.412,0,0,0,2028.71,2069.54Z" transform="translate(-8.742 -4.253)" fill="#07fd60"/>
          <path id="Path_135" data-name="Path 135" d="M1976.15,2095.87a4.36,4.36,0,1,0-4.381-4.338A4.36,4.36,0,0,0,1976.15,2095.87Z" transform="translate(-5.163 -6.055)" fill="#07fd60"/>
          <path id="Path_136" data-name="Path 136" d="M1976,2179.15a4.36,4.36,0,1,0,4.319,4.4,4.36,4.36,0,0,0-4.319-4.4Z" transform="translate(-5.151 -12.323)" fill="#07fd60"/>
          <path id="Path_137" data-name="Path 137" d="M2054.94,2205.53a4.36,4.36,0,1,0,4.357,4.363A4.36,4.36,0,0,0,2054.94,2205.53Z" transform="translate(-10.532 -14.12)" fill="#07fd60"/>
          <path id="Path_138" data-name="Path 138" d="M2015.55,2205.53a4.36,4.36,0,1,0,4.343,4.376,4.36,4.36,0,0,0-4.343-4.376Z" transform="translate(-7.847 -14.12)" fill="#07fd60"/>
          <path id="Path_139" data-name="Path 139" d="M1962.91,2122.09a4.36,4.36,0,1,0-4.332-4.387A4.36,4.36,0,0,0,1962.91,2122.09Z" transform="translate(-4.264 -7.841)" fill="#07fd60"/>
          <path id="Path_140" data-name="Path 140" d="M1962.92,2152.94a4.36,4.36,0,1,0,4.382,4.338A4.36,4.36,0,0,0,1962.92,2152.94Z" transform="translate(-4.264 -10.537)" fill="#07fd60"/>
          <path id="Path_141" data-name="Path 141" d="M1989.15,2192.34a4.36,4.36,0,1,0,4.362,4.356,4.36,4.36,0,0,0-4.362-4.356Z" transform="translate(-6.05 -13.222)" fill="#07fd60"/>
          <path id="Path_142" data-name="Path 142" d="M2081.34,2192.34a4.36,4.36,0,1,0,4.334,4.385A4.36,4.36,0,0,0,2081.34,2192.34Z" transform="translate(-12.33 -13.222)" fill="#07fd60"/>
          <path id="Path_143" data-name="Path 143" d="M2094.45,2179.19a4.307,4.307,0,1,0,3.041,1.352,4.322,4.322,0,0,0-3.041-1.352Z" transform="translate(-13.22 -12.326)" fill="#07fd60"/>
          <path id="Path_144" data-name="Path 144" d="M2107.55,2152.98a4.322,4.322,0,1,0,4.3,4.3,4.322,4.322,0,0,0-4.3-4.3Z" transform="translate(-14.118 -10.54)" fill="#07fd60"/>
          <path id="Path_145" data-name="Path 145" d="M2094.51,2095.81a4.254,4.254,0,1,0-3.046-1.25,4.292,4.292,0,0,0,3.046,1.25Z" transform="translate(-13.233 -6.06)" fill="#07fd60"/>
          <path id="Path_146" data-name="Path 146" d="M2081.31,2082.62a4.253,4.253,0,1,0-3.043-1.251,4.292,4.292,0,0,0,3.043,1.251Z" transform="translate(-12.335 -5.161)" fill="#07fd60"/>
          <path id="Path_147" data-name="Path 147" d="M1989.04,2082.65a4.3,4.3,0,1,0-3.039-1.356,4.322,4.322,0,0,0,3.039,1.356Z" transform="translate(-6.053 -5.158)" fill="#07fd60"/>
          <path id="Path_148" data-name="Path 148" d="M2015.38,2069.45a4.32,4.32,0,1,0-4.167-4.431A4.32,4.32,0,0,0,2015.38,2069.45Z" transform="translate(-7.85 -4.26)" fill="#07fd60"/>
          <path id="Path_149" data-name="Path 149" d="M2054.9,2069.43a4.251,4.251,0,1,0-3.037-1.27,4.292,4.292,0,0,0,3.037,1.27Z" transform="translate(-10.537 -4.262)" fill="#07fd60"/>
          <path id="Path_150" data-name="Path 150" d="M2107.56,2122.02a4.253,4.253,0,1,0-3.053-1.229,4.293,4.293,0,0,0,3.053,1.229Z" transform="translate(-14.121 -7.846)" fill="#07fd60"/>
          <path id="Path_151" data-name="Path 151" d="M1962.99,2166.13a4.207,4.207,0,1,0,4.17,4.185A4.207,4.207,0,0,0,1962.99,2166.13Z" transform="translate(-4.275 -11.435)" fill="#07fd60"/>
          <path id="Path_152" data-name="Path 152" d="M2002.41,2205.74a4.17,4.17,0,1,0,4.112,4.187A4.17,4.17,0,0,0,2002.41,2205.74Z" transform="translate(-6.963 -14.134)" fill="#07fd60"/>
          <path id="Path_153" data-name="Path 153" d="M2068.11,2205.74a4.158,4.158,0,1,0,2.974,1.21,4.17,4.17,0,0,0-2.974-1.21Z" transform="translate(-11.445 -14.134)" fill="#07fd60"/>
          <path id="Path_154" data-name="Path 154" d="M2107.62,2166.37a4.1,4.1,0,1,0,2.916,1.251A4.138,4.138,0,0,0,2107.62,2166.37Z" transform="translate(-14.132 -11.452)" fill="#07fd60"/>
          <path id="Path_155" data-name="Path 155" d="M2107.58,2108.86a4.1,4.1,0,1,0-2.945-1.174,4.138,4.138,0,0,0,2.945,1.174Z" transform="translate(-14.132 -6.97)" fill="#07fd60"/>
          <path id="Path_156" data-name="Path 156" d="M1963.01,2108.72a4.157,4.157,0,1,0-2.985-1.187,4.17,4.17,0,0,0,2.985,1.187Z" transform="translate(-4.278 -6.956)" fill="#07fd60"/>
          <path id="Path_157" data-name="Path 157" d="M2002.38,2069.29a4.1,4.1,0,1,0-2.945-1.182A4.138,4.138,0,0,0,2002.38,2069.29Z" transform="translate(-6.965 -4.273)" fill="#07fd60"/>
          <path id="Path_158" data-name="Path 158" d="M2068.13,2069.27a4.085,4.085,0,1,0-2.929-1.221A4.116,4.116,0,0,0,2068.13,2069.27Z" transform="translate(-11.449 -4.275)" fill="#07fd60"/>
          <path id="Path_159" data-name="Path 159" d="M1976.02,2192.72a4.008,4.008,0,1,0,3.97,4.026A4.007,4.007,0,0,0,1976.02,2192.72Z" transform="translate(-5.177 -13.247)" fill="#07fd60"/>
          <path id="Path_160" data-name="Path 160" d="M1976.12,2082.33a3.937,3.937,0,1,0-2.819-1.185,3.975,3.975,0,0,0,2.819,1.185Z" transform="translate(-5.191 -5.184)" fill="#07fd60"/>
          <path id="Path_161" data-name="Path 161" d="M2094.39,2192.75a3.936,3.936,0,1,0,2.823,1.177A3.976,3.976,0,0,0,2094.39,2192.75Z" transform="translate(-13.245 -13.25)" fill="#07fd60"/>
          <path id="Path_162" data-name="Path 162" d="M2094.49,2082.31a3.928,3.928,0,1,0-2.785-1.176,3.956,3.956,0,0,0,2.785,1.176Z" transform="translate(-13.258 -5.185)" fill="#07fd60"/>
          <path id="Path_163" data-name="Path 163" d="M1962.97,2179.6a3.941,3.941,0,1,0,3.939,3.884,3.941,3.941,0,0,0-3.939-3.884Z" transform="translate(-4.294 -12.353)" fill="#07fd60"/>
          <path id="Path_164" data-name="Path 164" d="M1989.15,2205.98a3.937,3.937,0,1,0,2.8,1.14,3.941,3.941,0,0,0-2.8-1.14Z" transform="translate(-6.081 -14.151)" fill="#07fd60"/>
          <path id="Path_165" data-name="Path 165" d="M2028.55,2219.19a3.927,3.927,0,1,0,3.965,3.869,3.927,3.927,0,0,0-3.965-3.869Z" transform="translate(-8.766 -15.051)" fill="#07fd60"/>
          <path id="Path_166" data-name="Path 166" d="M2041.82,2219.19a3.928,3.928,0,1,0,3.878,3.958,3.928,3.928,0,0,0-3.878-3.958Z" transform="translate(-9.665 -15.051)" fill="#07fd60"/>
          <path id="Path_167" data-name="Path 167" d="M1949.75,2127.02a3.927,3.927,0,1,0,3.959,3.875,3.927,3.927,0,0,0-3.959-3.875Z" transform="translate(-3.397 -8.771)" fill="#07fd60"/>
          <path id="Path_168" data-name="Path 168" d="M1962.98,2095.47a3.955,3.955,0,1,0-2.792-1.175A3.928,3.928,0,0,0,1962.98,2095.47Z" transform="translate(-4.296 -6.086)" fill="#07fd60"/>
          <path id="Path_169" data-name="Path 169" d="M2107.63,2179.62a3.928,3.928,0,1,0,3.86,3.975,3.928,3.928,0,0,0-3.86-3.975Z" transform="translate(-14.147 -12.354)" fill="#07fd60"/>
          <path id="Path_170" data-name="Path 170" d="M2081.36,2206a3.927,3.927,0,1,0,3.913,3.922A3.927,3.927,0,0,0,2081.36,2206Z" transform="translate(-12.361 -14.152)" fill="#07fd60"/>
          <path id="Path_171" data-name="Path 171" d="M1949.78,2140.21a3.927,3.927,0,1,0,3.929,3.906,3.927,3.927,0,0,0-3.929-3.906Z" transform="translate(-3.397 -9.67)" fill="#07fd60"/>
          <path id="Path_172" data-name="Path 172" d="M2107.58,2095.45a3.908,3.908,0,1,0-3.93-3.905A3.949,3.949,0,0,0,2107.58,2095.45Z" transform="translate(-14.149 -6.088)" fill="#07fd60"/>
          <path id="Path_173" data-name="Path 173" d="M2120.77,2127.04a3.908,3.908,0,1,0,3.9,3.941,3.949,3.949,0,0,0-3.9-3.941Z" transform="translate(-15.047 -8.772)" fill="#07fd60"/>
          <path id="Path_174" data-name="Path 174" d="M2120.74,2140.23a3.908,3.908,0,1,0,3.923,3.913A3.948,3.948,0,0,0,2120.74,2140.23Z" transform="translate(-15.047 -9.671)" fill="#07fd60"/>
          <path id="Path_175" data-name="Path 175" d="M2081.36,2069.07a3.908,3.908,0,1,0-3.917-3.919,3.949,3.949,0,0,0,3.917,3.919Z" transform="translate(-12.363 -4.29)" fill="#07fd60"/>
          <path id="Path_176" data-name="Path 176" d="M2041.75,2055.88a3.908,3.908,0,1,0-3.882-3.953,3.951,3.951,0,0,0,3.882,3.953Z" transform="translate(-9.666 -3.391)" fill="#07fd60"/>
          <path id="Path_177" data-name="Path 177" d="M2028.71,2055.88a3.908,3.908,0,1,0-3.863-3.894,3.95,3.95,0,0,0,3.863,3.894Z" transform="translate(-8.779 -3.391)" fill="#07fd60"/>
          <path id="Path_178" data-name="Path 178" d="M1989.17,2069.07a3.908,3.908,0,1,0-3.892-3.943,3.951,3.951,0,0,0,3.892,3.943Z" transform="translate(-6.083 -4.29)" fill="#07fd60"/>
          <path id="Path_179" data-name="Path 179" d="M2015.55,2219.29a3.8,3.8,0,1,0,2.734,1.106,3.835,3.835,0,0,0-2.734-1.106Z" transform="translate(-7.886 -15.058)" fill="#07fd60"/>
          <path id="Path_180" data-name="Path 180" d="M2055.06,2219.29a3.8,3.8,0,1,0,2.7,1.184,3.835,3.835,0,0,0-2.7-1.184Z" transform="translate(-10.571 -15.058)" fill="#07fd60"/>
          <path id="Path_181" data-name="Path 181" d="M1949.67,2121.6a3.8,3.8,0,1,0-2.693-1.2,3.835,3.835,0,0,0,2.693,1.2Z" transform="translate(-3.404 -7.879)" fill="#07fd60"/>
          <path id="Path_182" data-name="Path 182" d="M1949.8,2153.5a3.8,3.8,0,1,0,2.725,1.131,3.835,3.835,0,0,0-2.725-1.131Z" transform="translate(-3.403 -10.575)" fill="#07fd60"/>
          <path id="Path_183" data-name="Path 183" d="M2120.77,2121.57a3.808,3.808,0,1,0-3.821-3.853,3.769,3.769,0,0,0,3.821,3.853Z" transform="translate(-15.055 -7.881)" fill="#07fd60"/>
          <path id="Path_184" data-name="Path 184" d="M2015.6,2055.79a3.808,3.808,0,1,0-3.837-3.838,3.768,3.768,0,0,0,3.837,3.838Z" transform="translate(-7.888 -3.399)" fill="#07fd60"/>
          <path id="Path_185" data-name="Path 185" d="M2120.81,2153.53a3.808,3.808,0,1,0,3.757,3.839,3.769,3.769,0,0,0-3.757-3.84Z" transform="translate(-15.055 -10.577)" fill="#07fd60"/>
          <path id="Path_186" data-name="Path 186" d="M2055.03,2055.77a3.772,3.772,0,1,0-2.7-1.069,3.791,3.791,0,0,0,2.7,1.069Z" transform="translate(-10.574 -3.4)" fill="#07fd60"/>
          <path id="Path_187" data-name="Path 187" d="M2002.39,2219.44a3.671,3.671,0,1,0,2.623,1.079A3.69,3.69,0,0,0,2002.39,2219.44Z" transform="translate(-6.997 -15.068)" fill="#07fd60"/>
          <path id="Path_188" data-name="Path 188" d="M2068.17,2219.44a3.67,3.67,0,1,0,2.625,1.075,3.69,3.69,0,0,0-2.625-1.075Z" transform="translate(-11.48 -15.068)" fill="#07fd60"/>
          <path id="Path_189" data-name="Path 189" d="M1949.8,2166.68a3.67,3.67,0,1,0,2.622,1.083,3.69,3.69,0,0,0-2.622-1.083Z" transform="translate(-3.414 -11.473)" fill="#07fd60"/>
          <path id="Path_190" data-name="Path 190" d="M2002.38,2055.65a3.622,3.622,0,1,0-2.614-1.093,3.658,3.658,0,0,0,2.614,1.093Z" transform="translate(-7 -3.41)" fill="#07fd60"/>
          <path id="Path_191" data-name="Path 191" d="M1949.85,2108.25a3.623,3.623,0,1,0-2.634-1.044A3.658,3.658,0,0,0,1949.85,2108.25Z" transform="translate(-3.416 -6.993)" fill="#07fd60"/>
          <path id="Path_192" data-name="Path 192" d="M2120.75,2166.88a3.621,3.621,0,1,0,2.6,1.04A3.622,3.622,0,0,0,2120.75,2166.88Z" transform="translate(-15.066 -11.487)" fill="#07fd60"/>
          <path id="Path_193" data-name="Path 193" d="M2068.08,2055.63a3.637,3.637,0,1,0-3.542-3.672A3.637,3.637,0,0,0,2068.08,2055.63Z" transform="translate(-11.484 -3.411)" fill="#07fd60"/>
          <path id="Path_194" data-name="Path 194" d="M2120.73,2108.39a3.637,3.637,0,1,0-3.6-3.616A3.637,3.637,0,0,0,2120.73,2108.39Z" transform="translate(-15.067 -7.006)" fill="#07fd60"/>
          <path id="Path_195" data-name="Path 195" d="M1975.99,2206.32a3.627,3.627,0,1,0,2.581,1.061,3.623,3.623,0,0,0-2.581-1.061Z" transform="translate(-5.205 -14.174)" fill="#07fd60"/>
          <path id="Path_196" data-name="Path 196" d="M2094.4,2206.32a3.629,3.629,0,1,0,2.57,1.085A3.623,3.623,0,0,0,2094.4,2206.32Z" transform="translate(-13.271 -14.174)" fill="#07fd60"/>
          <path id="Path_197" data-name="Path 197" d="M1963.01,2193.13a3.623,3.623,0,1,0,3.6,3.6,3.623,3.623,0,0,0-3.6-3.6Z" transform="translate(-4.318 -13.276)" fill="#07fd60"/>
          <path id="Path_198" data-name="Path 198" d="M2107.55,2193.15a3.606,3.606,0,1,0,3.635,3.576A3.644,3.644,0,0,0,2107.55,2193.15Z" transform="translate(-14.171 -13.277)" fill="#07fd60"/>
          <path id="Path_199" data-name="Path 199" d="M1976.2,2068.79a3.605,3.605,0,1,0-3.625-3.586,3.6,3.6,0,0,0,3.625,3.586Z" transform="translate(-5.218 -4.312)" fill="#07fd60"/>
          <path id="Path_200" data-name="Path 200" d="M1963.02,2081.98a3.605,3.605,0,1,0-3.635-3.575A3.642,3.642,0,0,0,1963.02,2081.98Z" transform="translate(-4.319 -5.211)" fill="#07fd60"/>
          <path id="Path_201" data-name="Path 201" d="M2094.62,2068.77a3.58,3.58,0,1,0-3.632-3.587,3.618,3.618,0,0,0,3.632,3.586Z" transform="translate(-13.286 -4.314)" fill="#07fd60"/>
          <path id="Path_202" data-name="Path 202" d="M2107.6,2081.96a3.579,3.579,0,1,0-3.594-3.624A3.618,3.618,0,0,0,2107.6,2081.96Z" transform="translate(-14.173 -5.213)" fill="#07fd60"/>
          <path id="Path_203" data-name="Path 203" d="M1949.82,2180.11a3.464,3.464,0,1,0,3.456,3.453,3.464,3.464,0,0,0-3.456-3.453Z" transform="translate(-3.431 -12.388)" fill="#07fd60"/>
          <path id="Path_204" data-name="Path 204" d="M1949.79,2095.04a3.476,3.476,0,1,0-2.461-1.055,3.465,3.465,0,0,0,2.461,1.055Z" transform="translate(-3.431 -6.12)" fill="#07fd60"/>
          <path id="Path_205" data-name="Path 205" d="M2081.41,2219.69a3.465,3.465,0,1,0,3.435,3.475,3.464,3.464,0,0,0-3.435-3.475Z" transform="translate(-12.395 -15.085)" fill="#07fd60"/>
          <path id="Path_206" data-name="Path 206" d="M1989.25,2219.69a3.465,3.465,0,1,0,3.431,3.479,3.465,3.465,0,0,0-3.431-3.479Z" transform="translate(-6.115 -15.085)" fill="#07fd60"/>
          <path id="Path_207" data-name="Path 207" d="M2120.72,2095.03a3.446,3.446,0,1,0-3.379-3.455,3.485,3.485,0,0,0,3.379,3.455Z" transform="translate(-15.081 -6.121)" fill="#07fd60"/>
          <path id="Path_208" data-name="Path 208" d="M1989.22,2055.45a3.446,3.446,0,1,0-3.454-3.457,3.482,3.482,0,0,0,3.454,3.457Z" transform="translate(-6.117 -3.425)" fill="#07fd60"/>
          <path id="Path_209" data-name="Path 209" d="M2081.4,2055.62a3.446,3.446,0,1,0-3.459-3.452A3.483,3.483,0,0,0,2081.4,2055.62Z" transform="translate(-12.397 -3.437)" fill="#07fd60"/>
          <path id="Path_210" data-name="Path 210" d="M2120.83,2180.13a3.446,3.446,0,1,0,3.405,3.507A3.483,3.483,0,0,0,2120.83,2180.13Z" transform="translate(-15.081 -12.39)" fill="#07fd60"/>
          <path id="Path_211" data-name="Path 211" d="M2028.69,2232.76a3.418,3.418,0,1,0,3.353,3.481,3.418,3.418,0,0,0-3.353-3.481Z" transform="translate(-8.803 -15.975)" fill="#07fd60"/>
          <path id="Path_212" data-name="Path 212" d="M2041.78,2232.76a3.417,3.417,0,1,0,3.453,3.381,3.452,3.452,0,0,0-3.453-3.381Z" transform="translate(-9.702 -15.975)" fill="#07fd60"/>
          <path id="Path_213" data-name="Path 213" d="M1936.77,2127.62a3.341,3.341,0,1,0,2.334,1.065A3.37,3.37,0,0,0,1936.77,2127.62Z" transform="translate(-2.539 -8.812)" fill="#07fd60"/>
          <path id="Path_214" data-name="Path 214" d="M1936.71,2140.81a3.342,3.342,0,1,0,2.38,1.054,3.371,3.371,0,0,0-2.38-1.054Z" transform="translate(-2.539 -9.71)" fill="#07fd60"/>
          <path id="Path_215" data-name="Path 215" d="M2134.02,2140.85a3.337,3.337,0,1,0,3.307,3.367,3.3,3.3,0,0,0-3.307-3.367Z" transform="translate(-15.988 -9.713)" fill="#07fd60"/>
          <path id="Path_216" data-name="Path 216" d="M2134.02,2127.66a3.338,3.338,0,1,0,3.307,3.367,3.3,3.3,0,0,0-3.307-3.367Z" transform="translate(-15.988 -8.814)" fill="#07fd60"/>
          <path id="Path_217" data-name="Path 217" d="M2028.77,2042.33a3.338,3.338,0,1,0-3.307-3.367,3.3,3.3,0,0,0,3.307,3.367Z" transform="translate(-8.821 -2.546)" fill="#07fd60"/>
          <path id="Path_218" data-name="Path 218" d="M2041.96,2042.33a3.338,3.338,0,1,0-3.311-3.364,3.3,3.3,0,0,0,3.311,3.364Z" transform="translate(-9.72 -2.546)" fill="#07fd60"/>
          <path id="Path_219" data-name="Path 219" d="M2015.63,2232.87a3.3,3.3,0,1,0,2.361.994,3.317,3.317,0,0,0-2.361-.994Z" transform="translate(-7.924 -15.982)" fill="#07fd60"/>
          <path id="Path_220" data-name="Path 220" d="M2054.97,2232.87a3.3,3.3,0,1,0,2.375.954A3.317,3.317,0,0,0,2054.97,2232.87Z" transform="translate(-10.608 -15.982)" fill="#07fd60"/>
          <path id="Path_221" data-name="Path 221" d="M1936.67,2154.06a3.317,3.317,0,1,0,3.283,3.312,3.316,3.316,0,0,0-3.283-3.312Z" transform="translate(-2.543 -10.613)" fill="#07fd60"/>
          <path id="Path_222" data-name="Path 222" d="M2015.57,2042.3a3.3,3.3,0,1,0-3.266-3.336,3.3,3.3,0,0,0,3.266,3.336Z" transform="translate(-7.925 -2.549)" fill="#07fd60"/>
          <path id="Path_223" data-name="Path 223" d="M1936.62,2121.1a3.3,3.3,0,1,0-3.287-3.315A3.3,3.3,0,0,0,1936.62,2121.1Z" transform="translate(-2.544 -7.918)" fill="#07fd60"/>
          <path id="Path_224" data-name="Path 224" d="M2133.97,2154.08a3.3,3.3,0,1,0,3.322,3.279,3.3,3.3,0,0,0-3.322-3.279Z" transform="translate(-15.991 -10.614)" fill="#07fd60"/>
          <path id="Path_225" data-name="Path 225" d="M2133.99,2121.08a3.28,3.28,0,1,0-3.276-3.262,3.324,3.324,0,0,0,3.276,3.262Z" transform="translate(-15.992 -7.92)" fill="#07fd60"/>
          <path id="Path_226" data-name="Path 226" d="M2055.03,2042.28a3.28,3.28,0,1,0-3.3-3.318,3.325,3.325,0,0,0,3.3,3.318Z" transform="translate(-10.611 -2.55)" fill="#07fd60"/>
          <path id="Path_227" data-name="Path 227" d="M2107.76,2206.74a3.241,3.241,0,1,0,3.1,3.323,3.241,3.241,0,0,0-3.1-3.323Z" transform="translate(-14.198 -14.202)" fill="#07fd60"/>
          <path id="Path_228" data-name="Path 228" d="M1963.02,2206.73a3.243,3.243,0,1,0,3.242,3.184A3.244,3.244,0,0,0,1963.02,2206.73Z" transform="translate(-4.346 -14.202)" fill="#07fd60"/>
          <path id="Path_229" data-name="Path 229" d="M2107.61,2068.41a3.2,3.2,0,1,0-3.188-3.2,3.16,3.16,0,0,0,3.188,3.2Z" transform="translate(-14.201 -4.342)" fill="#07fd60"/>
          <path id="Path_230" data-name="Path 230" d="M1963.04,2068.41a3.2,3.2,0,1,0-3.21-3.18,3.161,3.161,0,0,0,3.21,3.18Z" transform="translate(-4.349 -4.342)" fill="#07fd60"/>
          <path id="Path_231" data-name="Path 231" d="M1936.75,2167.24a3.139,3.139,0,1,0,2.232,1.007,3.169,3.169,0,0,0-2.232-1.007Z" transform="translate(-2.554 -11.511)" fill="#07fd60"/>
          <path id="Path_232" data-name="Path 232" d="M1976.05,2220a3.168,3.168,0,1,0,3.166,3.132,3.138,3.138,0,0,0-3.166-3.132Z" transform="translate(-5.238 -15.106)" fill="#07fd60"/>
          <path id="Path_233" data-name="Path 233" d="M2002.47,2233.02a3.138,3.138,0,1,0,2.223.935A3.168,3.168,0,0,0,2002.47,2233.02Z" transform="translate(-7.036 -15.993)" fill="#07fd60"/>
          <path id="Path_234" data-name="Path 234" d="M1949.86,2193.62a3.136,3.136,0,1,0,2.227.924,3.136,3.136,0,0,0-2.227-.924Z" transform="translate(-3.452 -13.309)" fill="#07fd60"/>
          <path id="Path_235" data-name="Path 235" d="M1936.66,2107.77a3.15,3.15,0,1,0-3.168-3.131,3.15,3.15,0,0,0,3.168,3.131Z" transform="translate(-2.555 -7.03)" fill="#07fd60"/>
          <path id="Path_236" data-name="Path 236" d="M2068.21,2233.04a3.15,3.15,0,1,0,3.159,3.141,3.15,3.15,0,0,0-3.159-3.141Z" transform="translate(-11.519 -15.995)" fill="#07fd60"/>
          <path id="Path_237" data-name="Path 237" d="M2134.01,2167.43a3.151,3.151,0,1,0,3.14,3.162,3.151,3.151,0,0,0-3.14-3.162Z" transform="translate(-16.002 -11.524)" fill="#07fd60"/>
          <path id="Path_238" data-name="Path 238" d="M1949.8,2081.56a3.15,3.15,0,1,0-3.117-3.184,3.15,3.15,0,0,0,3.117,3.184Z" transform="translate(-3.454 -5.244)" fill="#07fd60"/>
          <path id="Path_239" data-name="Path 239" d="M1976.19,2055.18a3.15,3.15,0,1,0-3.125-3.176A3.15,3.15,0,0,0,1976.19,2055.18Z" transform="translate(-5.251 -3.447)" fill="#07fd60"/>
          <path id="Path_240" data-name="Path 240" d="M2094.44,2220.02a3.15,3.15,0,1,0,3.14,3.16,3.15,3.15,0,0,0-3.14-3.16Z" transform="translate(-13.305 -15.108)" fill="#07fd60"/>
          <path id="Path_241" data-name="Path 241" d="M2120.78,2193.64a3.15,3.15,0,1,0,3.183,3.118,3.15,3.15,0,0,0-3.183-3.118Z" transform="translate(-15.103 -13.31)" fill="#07fd60"/>
          <path id="Path_242" data-name="Path 242" d="M2120.77,2081.54a3.131,3.131,0,1,0-3.095-3.206A3.169,3.169,0,0,0,2120.77,2081.54Z" transform="translate(-15.104 -5.246)" fill="#07fd60"/>
          <path id="Path_243" data-name="Path 243" d="M2133.99,2107.93a3.131,3.131,0,1,0-3.121-3.181,3.17,3.17,0,0,0,3.121,3.181Z" transform="translate(-16.003 -7.043)" fill="#07fd60"/>
          <path id="Path_244" data-name="Path 244" d="M2094.6,2055.33a3.131,3.131,0,1,0-3.134-3.167A3.171,3.171,0,0,0,2094.6,2055.33Z" transform="translate(-13.318 -3.46)" fill="#07fd60"/>
          <path id="Path_245" data-name="Path 245" d="M2002.42,2042.14a3.131,3.131,0,1,0-3.119-3.183,3.17,3.17,0,0,0,3.119,3.183Z" transform="translate(-7.038 -2.561)" fill="#07fd60"/>
          <path id="Path_246" data-name="Path 246" d="M2068.2,2042.14a3.131,3.131,0,1,0-3.118-3.184,3.169,3.169,0,0,0,3.118,3.184Z" transform="translate(-11.521 -2.561)" fill="#07fd60"/>
          <path id="Path_247" data-name="Path 247" d="M1989.29,2233.23a2.976,2.976,0,1,0,2.937,3,3.009,3.009,0,0,0-2.937-3Z" transform="translate(-6.151 -16.008)" fill="#07fd60"/>
          <path id="Path_248" data-name="Path 248" d="M2133.98,2180.67a2.944,2.944,0,1,0,2.979,2.927,2.977,2.977,0,0,0-2.979-2.927Z" transform="translate(-16.017 -12.426)" fill="#07fd60"/>
          <path id="Path_249" data-name="Path 249" d="M1936.73,2180.67a2.944,2.944,0,1,0,2.869,2.958,2.979,2.979,0,0,0-2.869-2.958Z" transform="translate(-2.57 -12.426)" fill="#07fd60"/>
          <path id="Path_250" data-name="Path 250" d="M2081.49,2233.27a2.944,2.944,0,1,0,2.872,2.957A2.978,2.978,0,0,0,2081.49,2233.27Z" transform="translate(-12.433 -16.01)" fill="#07fd60"/>
          <path id="Path_251" data-name="Path 251" d="M1936.65,2094.56a2.944,2.944,0,1,0-2.936-2.971,2.98,2.98,0,0,0,2.936,2.971Z" transform="translate(-2.57 -6.158)" fill="#07fd60"/>
          <path id="Path_252" data-name="Path 252" d="M1989.27,2041.92a2.864,2.864,0,1,0-2.054-.832,2.891,2.891,0,0,0,2.054.832Z" transform="translate(-6.157 -2.578)" fill="#07fd60"/>
          <path id="Path_253" data-name="Path 253" d="M2081.46,2041.92a2.866,2.866,0,1,0-2.06-.818A2.891,2.891,0,0,0,2081.46,2041.92Z" transform="translate(-12.437 -2.578)" fill="#07fd60"/>
          <path id="Path_254" data-name="Path 254" d="M2134.04,2094.51a2.865,2.865,0,1,0-2.059-.822,2.89,2.89,0,0,0,2.059.822Z" transform="translate(-16.021 -6.162)" fill="#07fd60"/>
          <path id="Path_255" data-name="Path 255" d="M2041.89,2246.59a2.815,2.815,0,1,0,2.785,2.844,2.855,2.855,0,0,0-2.785-2.844Z" transform="translate(-9.746 -16.918)" fill="#07fd60"/>
          <path id="Path_256" data-name="Path 256" d="M2028.65,2246.59a2.815,2.815,0,1,0,2.836,2.794A2.855,2.855,0,0,0,2028.65,2246.59Z" transform="translate(-8.848 -16.918)" fill="#07fd60"/>
          <path id="Path_257" data-name="Path 257" d="M1923.48,2141.41a2.815,2.815,0,1,0,2.814,2.814A2.855,2.855,0,0,0,1923.48,2141.41Z" transform="translate(-1.681 -9.751)" fill="#07fd60"/>
          <path id="Path_258" data-name="Path 258" d="M1923.51,2128.22a2.815,2.815,0,1,0,2.785,2.844,2.855,2.855,0,0,0-2.785-2.844Z" transform="translate(-1.681 -8.852)" fill="#07fd60"/>
          <path id="Path_259" data-name="Path 259" d="M1963.03,2220.38a2.815,2.815,0,1,0,2.839,2.79,2.854,2.854,0,0,0-2.839-2.79Z" transform="translate(-4.377 -15.132)" fill="#07fd60"/>
          <path id="Path_260" data-name="Path 260" d="M1949.85,2207.19a2.815,2.815,0,1,0,2.827,2.8,2.854,2.854,0,0,0-2.827-2.8Z" transform="translate(-3.478 -14.233)" fill="#07fd60"/>
          <path id="Path_261" data-name="Path 261" d="M2147.27,2141.45a2.777,2.777,0,1,0,2.719,2.813A2.777,2.777,0,0,0,2147.27,2141.45Z" transform="translate(-16.928 -9.754)" fill="#07fd60"/>
          <path id="Path_262" data-name="Path 262" d="M2107.67,2220.42a2.777,2.777,0,1,0,2.751,2.782,2.777,2.777,0,0,0-2.751-2.782Z" transform="translate(-14.231 -15.135)" fill="#07fd60"/>
          <path id="Path_263" data-name="Path 263" d="M2147.21,2128.26a2.777,2.777,0,1,0,2.781,2.752A2.776,2.776,0,0,0,2147.21,2128.26Z" transform="translate(-16.928 -8.855)" fill="#07fd60"/>
          <path id="Path_264" data-name="Path 264" d="M1962.98,2054.83a2.777,2.777,0,1,0-2.7-2.83,2.777,2.777,0,0,0,2.7,2.83Z" transform="translate(-4.38 -3.474)" fill="#07fd60"/>
          <path id="Path_265" data-name="Path 265" d="M2107.57,2055a2.777,2.777,0,1,0-2.706-2.825A2.777,2.777,0,0,0,2107.57,2055Z" transform="translate(-14.231 -3.486)" fill="#07fd60"/>
          <path id="Path_266" data-name="Path 266" d="M2028.87,2028.62a2.777,2.777,0,1,0-2.808-2.726,2.777,2.777,0,0,0,2.808,2.726Z" transform="translate(-8.862 -1.688)" fill="#07fd60"/>
          <path id="Path_267" data-name="Path 267" d="M2042,2028.62a2.777,2.777,0,1,0-2.748-2.785,2.777,2.777,0,0,0,2.748,2.785Z" transform="translate(-9.761 -1.688)" fill="#07fd60"/>
          <path id="Path_268" data-name="Path 268" d="M1949.85,2068.02a2.777,2.777,0,1,0-2.76-2.773,2.777,2.777,0,0,0,2.76,2.773Z" transform="translate(-3.481 -4.373)" fill="#07fd60"/>
          <path id="Path_269" data-name="Path 269" d="M2120.83,2207.23a2.777,2.777,0,1,0,2.783,2.749A2.777,2.777,0,0,0,2120.83,2207.23Z" transform="translate(-15.13 -14.236)" fill="#07fd60"/>
          <path id="Path_270" data-name="Path 270" d="M2120.78,2067.97a2.722,2.722,0,1,0-2.665-2.8,2.686,2.686,0,0,0,2.665,2.8Z" transform="translate(-15.134 -4.377)" fill="#07fd60"/>
          <path id="Path_271" data-name="Path 271" d="M1923.47,2154.7a2.722,2.722,0,1,0,2.734,2.728,2.685,2.685,0,0,0-2.734-2.729Z" transform="translate(-1.688 -10.657)" fill="#07fd60"/>
          <path id="Path_272" data-name="Path 272" d="M2055.05,2246.7a2.722,2.722,0,1,0,2.73,2.733,2.684,2.684,0,0,0-2.73-2.733Z" transform="translate(-10.652 -16.925)" fill="#07fd60"/>
          <path id="Path_273" data-name="Path 273" d="M2015.62,2246.7a2.722,2.722,0,1,0,2.749,2.714,2.686,2.686,0,0,0-2.749-2.714Z" transform="translate(-7.967 -16.925)" fill="#07fd60"/>
          <path id="Path_274" data-name="Path 274" d="M2015.68,2028.54a2.666,2.666,0,1,0-1.917-.766,2.691,2.691,0,0,0,1.917.766Z" transform="translate(-7.969 -1.694)" fill="#07fd60"/>
          <path id="Path_275" data-name="Path 275" d="M2147.24,2154.73a2.691,2.691,0,1,0,2.672,2.711,2.664,2.664,0,0,0-2.672-2.711Z" transform="translate(-16.934 -10.659)" fill="#07fd60"/>
          <path id="Path_276" data-name="Path 276" d="M1923.47,2120.54a2.691,2.691,0,1,0-2.675-2.707,2.663,2.663,0,0,0,2.675,2.707Z" transform="translate(-1.69 -7.963)" fill="#07fd60"/>
          <path id="Path_277" data-name="Path 277" d="M1936.68,2194.16a2.671,2.671,0,1,0,2.669,2.654,2.671,2.671,0,0,0-2.669-2.654Z" transform="translate(-2.59 -13.345)" fill="#07fd60"/>
          <path id="Path_278" data-name="Path 278" d="M1976.11,2233.56a2.672,2.672,0,1,0,2.647,2.676,2.672,2.672,0,0,0-2.647-2.676Z" transform="translate(-5.275 -16.03)" fill="#07fd60"/>
          <path id="Path_279" data-name="Path 279" d="M2147.22,2120.69a2.671,2.671,0,1,0-2.67-2.654A2.672,2.672,0,0,0,2147.22,2120.69Z" transform="translate(-16.935 -7.976)" fill="#07fd60"/>
          <path id="Path_280" data-name="Path 280" d="M2055.1,2028.52a2.694,2.694,0,1,0-1.917-.777,2.672,2.672,0,0,0,1.917.777Z" transform="translate(-10.656 -1.696)" fill="#07fd60"/>
          <path id="Path_281" data-name="Path 281" d="M2134.04,2194.19a2.643,2.643,0,1,0,2.64,2.666,2.686,2.686,0,0,0-2.64-2.666Z" transform="translate(-16.039 -13.347)" fill="#07fd60"/>
          <path id="Path_282" data-name="Path 282" d="M2094.48,2233.59a2.643,2.643,0,1,0,2.633,2.672,2.685,2.685,0,0,0-2.634-2.672Z" transform="translate(-13.342 -16.032)" fill="#07fd60"/>
          <path id="Path_283" data-name="Path 283" d="M1976.27,2041.69a2.643,2.643,0,1,0-2.656-2.649,2.68,2.68,0,0,0,2.656,2.65Z" transform="translate(-5.288 -2.597)" fill="#07fd60"/>
          <path id="Path_284" data-name="Path 284" d="M1936.68,2081.09a2.643,2.643,0,1,0-2.644-2.661,2.684,2.684,0,0,0,2.644,2.661Z" transform="translate(-2.592 -5.281)" fill="#07fd60"/>
          <path id="Path_285" data-name="Path 285" d="M2133.95,2081.04a2.563,2.563,0,1,0-1.816-.824,2.561,2.561,0,0,0,1.816.823Z" transform="translate(-16.043 -5.285)" fill="#07fd60"/>
          <path id="Path_286" data-name="Path 286" d="M1923.64,2167.87a2.587,2.587,0,1,0,2.44,2.671,2.561,2.561,0,0,0-2.44-2.671Z" transform="translate(-1.697 -11.554)" fill="#07fd60"/>
          <path id="Path_287" data-name="Path 287" d="M2094.5,2041.63a2.563,2.563,0,1,0-1.8-.851A2.588,2.588,0,0,0,2094.5,2041.63Z" transform="translate(-13.358 -2.601)" fill="#07fd60"/>
          <path id="Path_288" data-name="Path 288" d="M2002.62,2246.84a2.587,2.587,0,1,0,2.44,2.67,2.587,2.587,0,0,0-2.44-2.67Z" transform="translate(-7.078 -16.935)" fill="#07fd60"/>
          <path id="Path_289" data-name="Path 289" d="M2147.3,2168.08a2.545,2.545,0,1,0,2.475,2.6,2.513,2.513,0,0,0-2.475-2.6Z" transform="translate(-16.945 -11.569)" fill="#07fd60"/>
          <path id="Path_290" data-name="Path 290" d="M1923.5,2107.21a2.545,2.545,0,1,0-2.55-2.52,2.511,2.511,0,0,0,2.55,2.52Z" transform="translate(-1.7 -7.075)" fill="#07fd60"/>
          <path id="Path_291" data-name="Path 291" d="M2002.5,2028.41a2.545,2.545,0,1,0-2.575-2.5,2.51,2.51,0,0,0,2.575,2.5Z" transform="translate(-7.081 -1.705)" fill="#07fd60"/>
          <path id="Path_292" data-name="Path 292" d="M2068.31,2246.89a2.545,2.545,0,1,0,2.491,2.579,2.514,2.514,0,0,0-2.491-2.579Z" transform="translate(-11.564 -16.938)" fill="#07fd60"/>
          <path id="Path_293" data-name="Path 293" d="M2068.14,2028.38a2.522,2.522,0,1,0-2.4-2.6A2.522,2.522,0,0,0,2068.14,2028.38Z" transform="translate(-11.565 -1.707)" fill="#07fd60"/>
          <path id="Path_294" data-name="Path 294" d="M2147.17,2107.36a2.521,2.521,0,1,0-2.456-2.546,2.521,2.521,0,0,0,2.456,2.546Z" transform="translate(-16.946 -7.088)" fill="#07fd60"/>
          <path id="Path_295" data-name="Path 295" d="M1923.53,2181.29a2.36,2.36,0,1,0,1.682.721,2.366,2.366,0,0,0-1.682-.721Z" transform="translate(-1.713 -12.469)" fill="#07fd60"/>
          <path id="Path_296" data-name="Path 296" d="M1949.92,2220.7a2.36,2.36,0,1,0,1.679.727,2.366,2.366,0,0,0-1.679-.727Z" transform="translate(-3.511 -15.153)" fill="#07fd60"/>
          <path id="Path_297" data-name="Path 297" d="M2081.46,2247.08a2.366,2.366,0,1,0,2.365,2.327A2.366,2.366,0,0,0,2081.46,2247.08Z" transform="translate(-12.475 -16.951)" fill="#07fd60"/>
          <path id="Path_298" data-name="Path 298" d="M1989.3,2247.08a2.366,2.366,0,1,0,2.366,2.327A2.366,2.366,0,0,0,1989.3,2247.08Z" transform="translate(-6.196 -16.951)" fill="#07fd60"/>
          <path id="Path_299" data-name="Path 299" d="M2147.26,2181.32a2.339,2.339,0,1,0,2.33,2.31,2.379,2.379,0,0,0-2.331-2.31Z" transform="translate(-16.96 -12.471)" fill="#07fd60"/>
          <path id="Path_300" data-name="Path 300" d="M2120.83,2220.89a2.34,2.34,0,1,0,2.378,2.34,2.38,2.38,0,0,0-2.378-2.34Z" transform="translate(-15.162 -15.167)" fill="#07fd60"/>
          <path id="Path_301" data-name="Path 301" d="M1989.26,2028.22a2.34,2.34,0,1,0-2.3-2.341,2.379,2.379,0,0,0,2.3,2.341Z" transform="translate(-6.198 -1.72)" fill="#07fd60"/>
          <path id="Path_302" data-name="Path 302" d="M1923.5,2094a2.34,2.34,0,1,0-2.33-2.389A2.381,2.381,0,0,0,1923.5,2094Z" transform="translate(-1.715 -6.202)" fill="#07fd60"/>
          <path id="Path_303" data-name="Path 303" d="M1949.86,2054.43a2.34,2.34,0,1,0-2.306-2.333,2.379,2.379,0,0,0,2.306,2.333Z" transform="translate(-3.513 -3.506)" fill="#07fd60"/>
          <path id="Path_304" data-name="Path 304" d="M1936.68,2207.76a2.292,2.292,0,1,0,1.633.657A2.288,2.288,0,0,0,1936.68,2207.76Z" transform="translate(-2.618 -14.272)" fill="#07fd60"/>
          <path id="Path_305" data-name="Path 305" d="M2081.48,2028.17a2.29,2.29,0,1,0-1.629-.671A2.288,2.288,0,0,0,2081.48,2028.17Z" transform="translate(-12.481 -1.724)" fill="#07fd60"/>
          <path id="Path_306" data-name="Path 306" d="M2147.22,2093.95a2.291,2.291,0,1,0-1.616-.7,2.289,2.289,0,0,0,1.616.7Z" transform="translate(-16.963 -6.206)" fill="#07fd60"/>
          <path id="Path_307" data-name="Path 307" d="M2120.85,2054.55a2.288,2.288,0,1,0-2.262-2.255,2.288,2.288,0,0,0,2.262,2.255Z" transform="translate(-15.166 -3.521)" fill="#07fd60"/>
          <path id="Path_308" data-name="Path 308" d="M1963.08,2233.97a2.292,2.292,0,1,0,1.629.671,2.288,2.288,0,0,0-1.629-.671Z" transform="translate(-4.415 -16.058)" fill="#07fd60"/>
          <path id="Path_309" data-name="Path 309" d="M2107.75,2233.97a2.288,2.288,0,1,0,2.214,2.3,2.288,2.288,0,0,0-2.214-2.3Z" transform="translate(-14.267 -16.058)" fill="#07fd60"/>
          <path id="Path_310" data-name="Path 310" d="M1936.73,2067.52a2.232,2.232,0,1,0-2.25-2.215,2.2,2.2,0,0,0,2.25,2.215Z" transform="translate(-2.622 -4.413)" fill="#07fd60"/>
          <path id="Path_311" data-name="Path 311" d="M2134.02,2067.52a2.233,2.233,0,1,0-2.19-2.276,2.2,2.2,0,0,0,2.19,2.276Z" transform="translate(-16.069 -4.413)" fill="#07fd60"/>
          <path id="Path_312" data-name="Path 312" d="M1963.09,2041.31a2.232,2.232,0,1,0-2.227-2.238,2.2,2.2,0,0,0,2.227,2.238Z" transform="translate(-4.419 -2.627)" fill="#07fd60"/>
          <path id="Path_313" data-name="Path 313" d="M2134.05,2207.82a2.232,2.232,0,1,0,2.25,2.214,2.2,2.2,0,0,0-2.25-2.214Z" transform="translate(-16.069 -14.276)" fill="#07fd60"/>
          <path id="Path_314" data-name="Path 314" d="M2107.72,2041.31a2.233,2.233,0,1,0-2.268-2.2,2.2,2.2,0,0,0,2.268,2.2Z" transform="translate(-14.271 -2.627)" fill="#07fd60"/>
          <path id="Path_315" data-name="Path 315" d="M2041.96,2260.55a2.088,2.088,0,1,0,1.5.667A2.107,2.107,0,0,0,2041.96,2260.55Z" transform="translate(-9.798 -17.868)" fill="#07fd60"/>
          <path id="Path_316" data-name="Path 316" d="M1910.49,2133.19a2.107,2.107,0,1,0-2.086-2.109,2.086,2.086,0,0,0,2.086,2.109Z" transform="translate(-0.845 -8.904)" fill="#07fd60"/>
          <path id="Path_317" data-name="Path 317" d="M2028.75,2260.55a2.087,2.087,0,1,0,1.479.625,2.107,2.107,0,0,0-1.479-.625Z" transform="translate(-8.899 -17.868)" fill="#07fd60"/>
          <path id="Path_318" data-name="Path 318" d="M2160.3,2142.17a2.107,2.107,0,1,0,2.1,2.1,2.085,2.085,0,0,0-2.1-2.1Z" transform="translate(-17.864 -9.803)" fill="#07fd60"/>
          <path id="Path_319" data-name="Path 319" d="M1910.54,2142.17a2.087,2.087,0,1,0,1.48.626,2.106,2.106,0,0,0-1.48-.626Z" transform="translate(-0.845 -9.803)" fill="#07fd60"/>
          <path id="Path_320" data-name="Path 320" d="M2015.75,2260.59a2.063,2.063,0,1,0,2.013,2.073,2.039,2.039,0,0,0-2.013-2.073Z" transform="translate(-8.015 -17.872)" fill="#07fd60"/>
          <path id="Path_321" data-name="Path 321" d="M1923.55,2194.81a2.063,2.063,0,1,0,2.044,2.042,2.04,2.04,0,0,0-2.044-2.042Z" transform="translate(-1.736 -13.39)" fill="#07fd60"/>
          <path id="Path_322" data-name="Path 322" d="M2042.05,2014.77a2.062,2.062,0,1,0-2.034-2.051,2.039,2.039,0,0,0,2.034,2.051Z" transform="translate(-9.813 -0.842)" fill="#07fd60"/>
          <path id="Path_323" data-name="Path 323" d="M2160.33,2133.15a2.063,2.063,0,1,0-2.1-2.064,2.039,2.039,0,0,0,2.1,2.064Z" transform="translate(-17.867 -8.907)" fill="#07fd60"/>
          <path id="Path_324" data-name="Path 324" d="M2028.86,2014.77a2.062,2.062,0,1,0-2.028-2.137,2.036,2.036,0,0,0,2.028,2.137Z" transform="translate(-8.914 -0.842)" fill="#07fd60"/>
          <path id="Path_325" data-name="Path 325" d="M1910.49,2119.96a2.063,2.063,0,1,0-2.041-2.046,2.039,2.039,0,0,0,2.041,2.046Z" transform="translate(-0.849 -8.009)" fill="#07fd60"/>
          <path id="Path_326" data-name="Path 326" d="M2094.55,2247.4a2.063,2.063,0,1,0,2.022,2.064,2.039,2.039,0,0,0-2.022-2.064Z" transform="translate(-13.385 -16.973)" fill="#07fd60"/>
          <path id="Path_327" data-name="Path 327" d="M2055.13,2260.59a2.063,2.063,0,1,0,2.033,2.131,2.038,2.038,0,0,0-2.033-2.131Z" transform="translate(-10.7 -17.872)" fill="#07fd60"/>
          <path id="Path_328" data-name="Path 328" d="M1910.52,2155.41a2.062,2.062,0,1,0,2.058,2.027,2.038,2.038,0,0,0-2.058-2.027Z" transform="translate(-0.848 -10.705)" fill="#07fd60"/>
          <path id="Path_329" data-name="Path 329" d="M1976.19,2247.4a2.063,2.063,0,1,0,2,2.083,2.038,2.038,0,0,0-2-2.083Z" transform="translate(-5.319 -16.973)" fill="#07fd60"/>
          <path id="Path_330" data-name="Path 330" d="M2147.31,2194.84a2.035,2.035,0,1,0,2,2.035,2.059,2.059,0,0,0-2-2.035Z" transform="translate(-16.982 -13.392)" fill="#07fd60"/>
          <path id="Path_331" data-name="Path 331" d="M2160.28,2120.1a2.035,2.035,0,1,0-2.02-2.01A2.06,2.06,0,0,0,2160.28,2120.1Z" transform="translate(-17.869 -8.022)" fill="#07fd60"/>
          <path id="Path_332" data-name="Path 332" d="M2160.27,2155.43a2.035,2.035,0,1,0,2.057,2.053A2.062,2.062,0,0,0,2160.27,2155.43Z" transform="translate(-17.869 -10.707)" fill="#07fd60"/>
          <path id="Path_333" data-name="Path 333" d="M1976.3,2027.93a2.035,2.035,0,1,0-2.034-2.076A2.063,2.063,0,0,0,1976.3,2027.93Z" transform="translate(-5.332 -1.742)" fill="#07fd60"/>
          <path id="Path_334" data-name="Path 334" d="M2015.66,2014.74a2.036,2.036,0,1,0-2-2.112,2.065,2.065,0,0,0,2,2.112Z" transform="translate(-8.017 -0.844)" fill="#07fd60"/>
          <path id="Path_335" data-name="Path 335" d="M1923.43,2080.53a2.036,2.036,0,1,0-1.933-2.1,2.064,2.064,0,0,0,1.933,2.1Z" transform="translate(-1.738 -5.326)" fill="#07fd60"/>
          <path id="Path_336" data-name="Path 336" d="M2055.07,2014.74a2.036,2.036,0,1,0-2-2.112,2.065,2.065,0,0,0,2,2.112Z" transform="translate(-10.702 -0.844)" fill="#07fd60"/>
          <path id="Path_337" data-name="Path 337" d="M2094.68,2027.89a1.986,1.986,0,1,0-1.981-1.952,2.009,2.009,0,0,0,1.98,1.952Z" transform="translate(-13.402 -1.746)" fill="#07fd60"/>
          <path id="Path_338" data-name="Path 338" d="M2147.27,2080.48a1.986,1.986,0,1,0-1.986-2.026A2.009,2.009,0,0,0,2147.27,2080.48Z" transform="translate(-16.985 -5.329)" fill="#07fd60"/>
          <path id="Path_339" data-name="Path 339" d="M2002.52,2260.75a1.918,1.918,0,1,0,1.92,1.935,1.88,1.88,0,0,0-1.92-1.935Z" transform="translate(-7.127 -17.882)" fill="#07fd60"/>
          <path id="Path_340" data-name="Path 340" d="M2002.51,2014.6a1.887,1.887,0,1,0-1.872-1.921A1.887,1.887,0,0,0,2002.51,2014.6Z" transform="translate(-7.129 -0.854)" fill="#07fd60"/>
          <path id="Path_341" data-name="Path 341" d="M1910.48,2106.6a1.887,1.887,0,1,0-1.845-1.947,1.887,1.887,0,0,0,1.845,1.947Z" transform="translate(-0.861 -7.123)" fill="#07fd60"/>
          <path id="Path_342" data-name="Path 342" d="M2068.31,2260.78a1.887,1.887,0,1,0,1.883,1.909,1.886,1.886,0,0,0-1.883-1.909Z" transform="translate(-11.612 -17.885)" fill="#07fd60"/>
          <path id="Path_343" data-name="Path 343" d="M1910.37,2168.62a1.886,1.886,0,1,0,1.873,1.919,1.886,1.886,0,0,0-1.873-1.919Z" transform="translate(-0.85 -11.605)" fill="#07fd60"/>
          <path id="Path_344" data-name="Path 344" d="M2160.3,2106.77a1.886,1.886,0,1,0-1.885-1.907,1.886,1.886,0,0,0,1.885,1.907Z" transform="translate(-17.88 -7.134)" fill="#07fd60"/>
          <path id="Path_345" data-name="Path 345" d="M2160.27,2168.78a1.886,1.886,0,1,0,1.92,1.873,1.886,1.886,0,0,0-1.92-1.873Z" transform="translate(-17.88 -11.616)" fill="#07fd60"/>
          <path id="Path_346" data-name="Path 346" d="M1949.88,2234.45a1.843,1.843,0,1,0,1.9,1.809,1.873,1.873,0,0,0-1.9-1.809Z" transform="translate(-3.549 -16.091)" fill="#07fd60"/>
          <path id="Path_347" data-name="Path 347" d="M1936.82,2221.26a1.842,1.842,0,1,0,1.758,1.94A1.874,1.874,0,0,0,1936.82,2221.26Z" transform="translate(-2.65 -15.192)" fill="#07fd60"/>
          <path id="Path_348" data-name="Path 348" d="M2068.28,2014.56a1.843,1.843,0,1,0-1.813-1.891,1.876,1.876,0,0,0,1.813,1.891Z" transform="translate(-11.615 -0.857)" fill="#07fd60"/>
          <path id="Path_349" data-name="Path 349" d="M2134.17,2221.51a1.767,1.767,0,1,0,1.7,1.87,1.734,1.734,0,0,0-1.7-1.87Z" transform="translate(-16.103 -15.208)" fill="#07fd60"/>
          <path id="Path_350" data-name="Path 350" d="M2134.04,2054.07a1.768,1.768,0,1,0-1.7-1.792,1.734,1.734,0,0,0,1.7,1.792Z" transform="translate(-16.103 -3.56)" fill="#07fd60"/>
          <path id="Path_351" data-name="Path 351" d="M1936.67,2053.9a1.767,1.767,0,1,0-1.694-1.8,1.735,1.735,0,0,0,1.694,1.8Z" transform="translate(-2.656 -3.548)" fill="#07fd60"/>
          <path id="Path_352" data-name="Path 352" d="M1949.93,2040.88a1.766,1.766,0,1,0-1.763-1.809,1.731,1.731,0,0,0,1.763,1.809Z" transform="translate(-3.555 -2.661)" fill="#07fd60"/>
          <path id="Path_353" data-name="Path 353" d="M2120.92,2234.7a1.766,1.766,0,1,0,1.758,1.813,1.73,1.73,0,0,0-1.758-1.812Z" transform="translate(-15.204 -16.108)" fill="#07fd60"/>
          <path id="Path_354" data-name="Path 354" d="M2120.9,2040.88a1.766,1.766,0,1,0-1.757-1.815,1.73,1.73,0,0,0,1.757,1.815Z" transform="translate(-15.204 -2.661)" fill="#07fd60"/>
          <path id="Path_355" data-name="Path 355" d="M1923.49,2067.01a1.68,1.68,0,1,0-1.606-1.714,1.715,1.715,0,0,0,1.606,1.714Z" transform="translate(-1.764 -4.453)" fill="#07fd60"/>
          <path id="Path_356" data-name="Path 356" d="M1989.33,2261a1.68,1.68,0,1,0,1.7,1.7,1.712,1.712,0,0,0-1.7-1.7Z" transform="translate(-6.246 -17.9)" fill="#07fd60"/>
          <path id="Path_357" data-name="Path 357" d="M2081.51,2261a1.68,1.68,0,1,0,1.679,1.72,1.712,1.712,0,0,0-1.679-1.719Z" transform="translate(-12.526 -17.9)" fill="#07fd60"/>
          <path id="Path_358" data-name="Path 358" d="M1923.64,2208.41a1.68,1.68,0,1,0,1.6,1.718,1.712,1.712,0,0,0-1.6-1.718Z" transform="translate(-1.764 -14.316)" fill="#07fd60"/>
          <path id="Path_359" data-name="Path 359" d="M1910.42,2182.03a1.681,1.681,0,1,0,1.634,1.687,1.712,1.712,0,0,0-1.634-1.687Z" transform="translate(-0.865 -12.519)" fill="#07fd60"/>
          <path id="Path_360" data-name="Path 360" d="M2107.76,2247.81a1.681,1.681,0,1,0,1.645,1.676,1.711,1.711,0,0,0-1.645-1.676Z" transform="translate(-14.312 -17.001)" fill="#07fd60"/>
          <path id="Path_361" data-name="Path 361" d="M1910.49,2093.39a1.681,1.681,0,1,0-1.635-1.687,1.712,1.712,0,0,0,1.635,1.687Z" transform="translate(-0.876 -6.25)" fill="#07fd60"/>
          <path id="Path_362" data-name="Path 362" d="M1963.13,2247.81a1.68,1.68,0,1,0,1.685,1.715,1.712,1.712,0,0,0-1.685-1.715Z" transform="translate(-4.46 -17.001)" fill="#07fd60"/>
          <path id="Path_363" data-name="Path 363" d="M2147.25,2066.94a1.6,1.6,0,1,0-1.544-1.637,1.567,1.567,0,0,0,1.544,1.637Z" transform="translate(-17.014 -4.459)" fill="#07fd60"/>
          <path id="Path_364" data-name="Path 364" d="M1989.28,2014.34a1.6,1.6,0,1,0-1.53-1.652,1.57,1.57,0,0,0,1.53,1.652Z" transform="translate(-6.252 -0.875)" fill="#07fd60"/>
          <path id="Path_365" data-name="Path 365" d="M2081.57,2014.34a1.6,1.6,0,1,0-1.652-1.608,1.565,1.565,0,0,0,1.652,1.608Z" transform="translate(-12.531 -0.875)" fill="#07fd60"/>
          <path id="Path_366" data-name="Path 366" d="M2160.32,2093.32a1.6,1.6,0,1,0-1.6-1.663,1.563,1.563,0,0,0,1.6,1.663Z" transform="translate(-17.901 -6.256)" fill="#07fd60"/>
          <path id="Path_367" data-name="Path 367" d="M2147.34,2208.5a1.6,1.6,0,1,0,1.56,1.622,1.562,1.562,0,0,0-1.56-1.622Z" transform="translate(-17.014 -14.322)" fill="#07fd60"/>
          <path id="Path_368" data-name="Path 368" d="M2160.33,2182.11a1.6,1.6,0,1,0,1.593,1.589,1.562,1.562,0,0,0-1.593-1.589Z" transform="translate(-17.901 -12.525)" fill="#07fd60"/>
          <path id="Path_369" data-name="Path 369" d="M1963.15,2027.53a1.6,1.6,0,1,0-1.613-1.569,1.564,1.564,0,0,0,1.613,1.569Z" transform="translate(-4.466 -1.774)" fill="#07fd60"/>
          <path id="Path_370" data-name="Path 370" d="M2107.65,2027.53a1.6,1.6,0,1,0-1.517-1.663,1.565,1.565,0,0,0,1.517,1.663Z" transform="translate(-14.317 -1.774)" fill="#07fd60"/>
          <path id="Path_371" data-name="Path 371" d="M1910.55,2079.92a1.374,1.374,0,1,0-1.356-1.447,1.412,1.412,0,0,0,1.356,1.448Z" transform="translate(-0.899 -5.374)" fill="#07fd60"/>
          <path id="Path_372" data-name="Path 372" d="M2028.78,2274.52a1.373,1.373,0,1,0,1.361,1.365A1.41,1.41,0,0,0,2028.78,2274.52Z" transform="translate(-8.953 -18.821)" fill="#07fd60"/>
          <path id="Path_373" data-name="Path 373" d="M2042.01,2274.52a1.374,1.374,0,1,0,1.326,1.4A1.409,1.409,0,0,0,2042.01,2274.52Z" transform="translate(-9.852 -18.821)" fill="#07fd60"/>
          <path id="Path_374" data-name="Path 374" d="M1897.39,2142.95a1.373,1.373,0,1,0,1.352,1.374,1.411,1.411,0,0,0-1.352-1.374Z" transform="translate(0 -9.857)" fill="#07fd60"/>
          <path id="Path_375" data-name="Path 375" d="M2094.59,2261.33a1.373,1.373,0,1,0,1.341,1.385,1.415,1.415,0,0,0-1.341-1.385Z" transform="translate(-13.435 -17.922)" fill="#07fd60"/>
          <path id="Path_376" data-name="Path 376" d="M1976.18,2261.33a1.373,1.373,0,1,0,1.375,1.353,1.41,1.41,0,0,0-1.375-1.353Z" transform="translate(-5.37 -17.922)" fill="#07fd60"/>
          <path id="Path_377" data-name="Path 377" d="M1910.4,2195.55a1.373,1.373,0,1,0,1.36,1.365,1.412,1.412,0,0,0-1.36-1.365Z" transform="translate(-0.887 -13.44)" fill="#07fd60"/>
          <path id="Path_378" data-name="Path 378" d="M1897.43,2129.76a1.374,1.374,0,1,0,1.319,1.407,1.414,1.414,0,0,0-1.319-1.407Z" transform="translate(0 -8.958)" fill="#07fd60"/>
          <path id="Path_379" data-name="Path 379" d="M1897.33,2119.23a1.28,1.28,0,1,0-1.235-1.345,1.251,1.251,0,0,0,1.235,1.345Z" transform="translate(-0.007 -8.066)" fill="#07fd60"/>
          <path id="Path_380" data-name="Path 380" d="M1936.85,2235.05a1.281,1.281,0,1,0,1.215,1.286,1.257,1.257,0,0,0-1.215-1.286Z" transform="translate(-2.692 -16.132)" fill="#07fd60"/>
          <path id="Path_381" data-name="Path 381" d="M2028.92,2000.85a1.28,1.28,0,1,0-1.251-1.328,1.252,1.252,0,0,0,1.251,1.328Z" transform="translate(-8.971)" fill="#07fd60"/>
          <path id="Path_382" data-name="Path 382" d="M2042.14,2000.85a1.28,1.28,0,1,0-1.279-1.3,1.251,1.251,0,0,0,1.279,1.3Z" transform="translate(-9.87)" fill="#07fd60"/>
          <path id="Path_383" data-name="Path 383" d="M2015.7,2274.62a1.281,1.281,0,1,0,1.333,1.246,1.25,1.25,0,0,0-1.333-1.246Z" transform="translate(-8.073 -18.828)" fill="#07fd60"/>
          <path id="Path_384" data-name="Path 384" d="M1897.34,2156.24a1.281,1.281,0,1,0,1.319,1.262,1.255,1.255,0,0,0-1.319-1.262Z" transform="translate(-0.007 -10.762)" fill="#07fd60"/>
          <path id="Path_385" data-name="Path 385" d="M2160.28,2079.83a1.281,1.281,0,1,0-1.212-1.288A1.255,1.255,0,0,0,2160.28,2079.83Z" transform="translate(-17.924 -5.381)" fill="#07fd60"/>
          <path id="Path_386" data-name="Path 386" d="M2173.52,2132.42a1.28,1.28,0,1,0-1.265-1.314,1.252,1.252,0,0,0,1.265,1.314Z" transform="translate(-18.823 -8.965)" fill="#07fd60"/>
          <path id="Path_387" data-name="Path 387" d="M2055.14,2274.62a1.28,1.28,0,1,0,1.3,1.279,1.25,1.25,0,0,0-1.3-1.279Z" transform="translate(-10.757 -18.828)" fill="#07fd60"/>
          <path id="Path_388" data-name="Path 388" d="M2160.43,2195.65a1.281,1.281,0,1,0,1.2,1.3,1.256,1.256,0,0,0-1.2-1.3Z" transform="translate(-17.924 -13.447)" fill="#07fd60"/>
          <path id="Path_389" data-name="Path 389" d="M2094.69,2014.04a1.281,1.281,0,1,0-1.237-1.343,1.252,1.252,0,0,0,1.237,1.343Z" transform="translate(-13.454 -0.899)" fill="#07fd60"/>
          <path id="Path_390" data-name="Path 390" d="M1976.36,2014.04a1.281,1.281,0,1,0-1.285-1.294,1.252,1.252,0,0,0,1.285,1.294Z" transform="translate(-5.388 -0.899)" fill="#07fd60"/>
          <path id="Path_391" data-name="Path 391" d="M2173.48,2143.05a1.281,1.281,0,1,0,1.338,1.241,1.25,1.25,0,0,0-1.338-1.241Z" transform="translate(-18.823 -9.863)" fill="#07fd60"/>
          <path id="Path_392" data-name="Path 392" d="M2015.73,2000.81a1.23,1.23,0,1,0-1.2-1.3A1.276,1.276,0,0,0,2015.73,2000.81Z" transform="translate(-8.076 -0.004)" fill="#07fd60"/>
          <path id="Path_393" data-name="Path 393" d="M2134.15,2235.27a1.229,1.229,0,1,0,1.222,1.275A1.277,1.277,0,0,0,2134.15,2235.27Z" transform="translate(-16.142 -16.147)" fill="#07fd60"/>
          <path id="Path_394" data-name="Path 394" d="M2173.5,2119.35a1.229,1.229,0,1,0-1.189-1.23,1.27,1.27,0,0,0,1.189,1.23Z" transform="translate(-18.827 -8.081)" fill="#07fd60"/>
          <path id="Path_395" data-name="Path 395" d="M1936.78,2040.38a1.229,1.229,0,1,0-1.227-1.27,1.277,1.277,0,0,0,1.227,1.27Z" transform="translate(-2.695 -2.7)" fill="#07fd60"/>
          <path id="Path_396" data-name="Path 396" d="M2134.09,2040.38a1.23,1.23,0,1,0-1.181-1.238,1.273,1.273,0,0,0,1.181,1.238Z" transform="translate(-16.142 -2.7)" fill="#07fd60"/>
          <path id="Path_397" data-name="Path 397" d="M2055.1,2000.81a1.231,1.231,0,1,0-1.165-1.328A1.276,1.276,0,0,0,2055.1,2000.81Z" transform="translate(-10.761 -0.003)" fill="#07fd60"/>
          <path id="Path_398" data-name="Path 398" d="M1949.97,2248.3a1.229,1.229,0,1,0,1.232,1.264A1.275,1.275,0,0,0,1949.97,2248.3Z" transform="translate(-3.594 -17.034)" fill="#07fd60"/>
          <path id="Path_399" data-name="Path 399" d="M1923.56,2221.92a1.229,1.229,0,1,0,1.26,1.238A1.276,1.276,0,0,0,1923.56,2221.92Z" transform="translate(-1.797 -15.237)" fill="#07fd60"/>
          <path id="Path_400" data-name="Path 400" d="M2173.56,2156.3a1.229,1.229,0,1,0,1.211,1.286A1.278,1.278,0,0,0,2173.56,2156.3Z" transform="translate(-18.827 -10.766)" fill="#07fd60"/>
          <path id="Path_401" data-name="Path 401" d="M2068.43,2274.79a1.126,1.126,0,1,0,1.061,1.208,1.1,1.1,0,0,0-1.061-1.208Z" transform="translate(-11.667 -18.839)" fill="#07fd60"/>
          <path id="Path_402" data-name="Path 402" d="M2002.56,2274.79a1.126,1.126,0,1,0,1.141,1.13,1.1,1.1,0,0,0-1.141-1.13Z" transform="translate(-7.185 -18.839)" fill="#07fd60"/>
          <path id="Path_403" data-name="Path 403" d="M2120.95,2248.41a1.126,1.126,0,1,0,1.129,1.143,1.1,1.1,0,0,0-1.129-1.143Z" transform="translate(-15.251 -17.042)" fill="#07fd60"/>
          <path id="Path_404" data-name="Path 404" d="M1897.45,2169.43a1.127,1.127,0,1,0,1.063,1.129A1.1,1.1,0,0,0,1897.45,2169.43Z" transform="translate(-0.018 -11.66)" fill="#07fd60"/>
          <path id="Path_405" data-name="Path 405" d="M2147.29,2053.47a1.126,1.126,0,1,0-1.08-1.19,1.1,1.1,0,0,0,1.08,1.19Z" transform="translate(-17.048 -3.606)" fill="#07fd60"/>
          <path id="Path_406" data-name="Path 406" d="M2147.15,2222.2a1.126,1.126,0,1,0,1.149,1.121,1.094,1.094,0,0,0-1.149-1.121Z" transform="translate(-17.037 -15.255)" fill="#07fd60"/>
          <path id="Path_407" data-name="Path 407" d="M1923.61,2053.3a1.126,1.126,0,1,0-1.131-1.14,1.1,1.1,0,0,0,1.131,1.14Z" transform="translate(-1.804 -3.595)" fill="#07fd60"/>
          <path id="Path_408" data-name="Path 408" d="M2120.88,2027.09a1.127,1.127,0,1,0-1.052-1.141,1.1,1.1,0,0,0,1.052,1.141Z" transform="translate(-15.251 -1.809)" fill="#07fd60"/>
          <path id="Path_409" data-name="Path 409" d="M1949.95,2027.09a1.126,1.126,0,1,0-1.088-1.182,1.1,1.1,0,0,0,1.088,1.182Z" transform="translate(-3.602 -1.809)" fill="#07fd60"/>
          <path id="Path_410" data-name="Path 410" d="M2173.54,2169.67a1.064,1.064,0,1,0,1.074,1.033A1.1,1.1,0,0,0,2173.54,2169.67Z" transform="translate(-18.839 -11.677)" fill="#07fd60"/>
          <path id="Path_411" data-name="Path 411" d="M1897.39,2105.84a1.064,1.064,0,1,0-1.059-1.049,1.1,1.1,0,0,0,1.059,1.049Z" transform="translate(-0.023 -7.183)" fill="#07fd60"/>
          <path id="Path_412" data-name="Path 412" d="M2173.55,2106.01a1.064,1.064,0,1,0-1.06-1.126A1.1,1.1,0,0,0,2173.55,2106.01Z" transform="translate(-18.839 -7.194)" fill="#07fd60"/>
          <path id="Path_413" data-name="Path 413" d="M2068.4,2000.65a1.064,1.064,0,1,0-1.1-1.084,1.1,1.1,0,0,0,1.1,1.084Z" transform="translate(-11.672 -0.016)" fill="#07fd60"/>
          <path id="Path_414" data-name="Path 414" d="M2002.56,2000.65a1.064,1.064,0,1,0-1.044-1.063,1.1,1.1,0,0,0,1.044,1.063Z" transform="translate(-7.19 -0.016)" fill="#07fd60"/>
          <path id="Path_415" data-name="Path 415" d="M1910.47,2209.2a.918.918,0,0,0-1,.957.894.894,0,0,0,.841.942.954.954,0,0,0,1.057-.921.893.893,0,0,0-.9-.978Z" transform="translate(-0.918 -14.37)" fill="#07fd60"/>
          <path id="Path_416" data-name="Path 416" d="M2160.41,2209.2a.917.917,0,0,0-.985.97.928.928,0,0,0,.952.94.912.912,0,0,0,.941-.946.879.879,0,0,0-.908-.964Z" transform="translate(-17.948 -14.37)" fill="#07fd60"/>
          <path id="Path_417" data-name="Path 417" d="M1963.11,2013.75a.918.918,0,0,0,1.019-.879.882.882,0,0,0-.841-1.025.919.919,0,0,0-1.05.9.929.929,0,0,0,.872,1Z" transform="translate(-4.513 -0.923)" fill="#07fd60"/>
          <path id="Path_418" data-name="Path 418" d="M1910.53,2066.33a.957.957,0,1,0-.877-1,.882.882,0,0,0,.877,1Z" transform="translate(-0.93 -4.506)" fill="#07fd60"/>
          <path id="Path_419" data-name="Path 419" d="M1963.01,2261.77a.914.914,0,0,0-.934.952.88.88,0,0,0,.915.959.916.916,0,0,0,.978-.977.929.929,0,0,0-.959-.934Z" transform="translate(-4.502 -17.952)" fill="#07fd60"/>
          <path id="Path_420" data-name="Path 420" d="M2107.83,2261.79a.9.9,0,0,0-1,.88.92.92,0,0,0,.938,1.017.9.9,0,0,0,.959-.823.954.954,0,0,0-.9-1.074Z" transform="translate(-14.365 -17.953)" fill="#07fd60"/>
          <path id="Path_421" data-name="Path 421" d="M1989.39,2275.1c-.528.009-.892.344-.8.848.066.349.423.644.65.963l.371-.006c.212-.329.554-.638.607-.99C1990.3,2275.4,1989.92,2275.09,1989.39,2275.1Z" transform="translate(-6.308 -18.86)" fill="#07fd60"/>
          <path id="Path_422" data-name="Path 422" d="M2080.74,2275.92c-.01.526.3.906.813.831.353-.052.663-.394.991-.606,0-.123,0-.247.008-.37-.32-.227-.614-.584-.964-.651C2081.08,2275.03,2080.75,2275.39,2080.74,2275.92Z" transform="translate(-12.587 -18.861)" fill="#07fd60"/>
          <path id="Path_423" data-name="Path 423" d="M2173.57,2092.59c.351-.062.651-.413.973-.635v-.371c-.326-.217-.63-.565-.982-.622-.508-.082-.83.291-.826.819S2173.06,2092.68,2173.57,2092.59Z" transform="translate(-18.856 -6.313)" fill="#07fd60"/>
          <path id="Path_424" data-name="Path 424" d="M1897.4,2092.59c.351-.057.656-.4.981-.622v-.371c-.323-.222-.622-.573-.973-.635-.507-.089-.833.281-.836.808S1896.89,2092.67,1897.4,2092.59Z" transform="translate(-0.039 -6.313)" fill="#07fd60"/>
          <path id="Path_425" data-name="Path 425" d="M2160.32,2066.35l.368.016c.235-.314.6-.6.674-.949.106-.5-.247-.846-.776-.867s-.913.282-.85.795C2159.78,2065.7,2160.12,2066.02,2160.32,2066.35Z" transform="translate(-17.97 -4.515)" fill="#07fd60"/>
          <path id="Path_426" data-name="Path 426" d="M1896.57,2183.76c-.007.528.31.9.819.825.352-.054.659-.4.986-.613,0-.123,0-.246.007-.37-.322-.225-.619-.579-.969-.643C1896.91,2182.86,1896.58,2183.23,1896.57,2183.76Z" transform="translate(-0.039 -12.581)" fill="#07fd60"/>
          <path id="Path_427" data-name="Path 427" d="M2173.77,2182.79h-.371c-.225.321-.579.617-.643.967-.093.5.274.836.8.843s.9-.31.825-.819C2174.33,2183.42,2173.99,2183.12,2173.77,2182.79Z" transform="translate(-18.856 -12.57)" fill="#07fd60"/>
          <path id="Path_428" data-name="Path 428" d="M2107.78,2013.62c.527.006.9-.31.825-.82-.054-.352-.4-.659-.613-.986h-.371c-.225.321-.579.618-.643.967C2106.88,2013.29,2107.25,2013.61,2107.78,2013.62Z" transform="translate(-14.374 -0.921)" fill="#07fd60"/>
          <path id="Path_429" data-name="Path 429" d="M2081.56,2000.43c.568.006.942-.347.831-.884-.07-.338-.464-.609-.713-.91l-.35.01c-.2.311-.513.6-.565.938a.721.721,0,0,0,.8.846Z" transform="translate(-12.588 -0.023)" fill="#07fd60"/>
          <path id="Path_430" data-name="Path 430" d="M1989.26,2000.58l.371-.01c.208-.332.547-.645.594-1,.069-.511-.315-.82-.841-.8s-.887.355-.786.857C1988.67,1999.97,1989.03,2000.27,1989.26,2000.58Z" transform="translate(-6.308 -0.032)" fill="#07fd60"/>
        </g>
        <g transform="matrix(1, 0, 0, 1, 1156.58, 1934)" filter="url(#加碼抽)">
          <text id="加碼抽-2" data-name="加碼抽" transform="translate(46.02 38)" fill="#fff" font-size="33" font-family="YuGothicUI-Bold, Yu Gothic UI" font-weight="700"><tspan x="0" y="0">通路限定</tspan></text>
        </g>
        <rect id="Rectangle_142" data-name="Rectangle 142" width="117.385" height="45" rx="22.5" transform="translate(1349.931 1938)" fill="#07fd60"/>
        <path id="共1名" d="M4.512-5.848l-3,.047q-.234,0-.234-.258V-7.922q0-.258.234-.258l3,.047H6.8v-4.676H5.953l-3.211.047q-.187,0-.234-.059a.473.473,0,0,1-.035-.234v-1.852q0-.234.27-.234l3.211.047H6.8v-1.23a27.544,27.544,0,0,0-.164-3.4q1.734.047,2.59.141.363.035.363.258a2.834,2.834,0,0,1-.176.633,14.719,14.719,0,0,0-.094,2.367v1.23h5.063v-1.23a27.544,27.544,0,0,0-.164-3.4q1.7.035,2.59.141.363.035.363.258a3.078,3.078,0,0,1-.176.633,14.573,14.573,0,0,0-.094,2.367v1.23H18.07l3.223-.047q.258,0,.258.234v1.852a.427.427,0,0,1-.047.258.4.4,0,0,1-.211.035l-3.223-.047H16.9v4.676h2.566l2.977-.047a.371.371,0,0,1,.234.047.4.4,0,0,1,.035.211v1.863a.352.352,0,0,1-.041.217.381.381,0,0,1-.229.041l-2.977-.047Zm4.8-2.285h5.063v-4.676H9.316ZM22.465-.457a6.856,6.856,0,0,0-1.219,1.535q-.34.574-.527.574a2,2,0,0,1-.527-.187,19.352,19.352,0,0,1-6.34-5.086.451.451,0,0,1-.094-.211q0-.094.258-.246l1.441-.844a.478.478,0,0,1,.234-.105.417.417,0,0,1,.246.152A16.732,16.732,0,0,0,22.465-.457ZM7.734-5.109A15.655,15.655,0,0,1,9.8-4.055q.316.176.316.363,0,.223-.363.422a4.424,4.424,0,0,0-.715.656A17.987,17.987,0,0,1,3.68,1.441a1.878,1.878,0,0,1-.551.188q-.188,0-.551-.527A5.5,5.5,0,0,0,1.3-.34a15.431,15.431,0,0,0,5.449-3.4A5.381,5.381,0,0,0,7.734-5.109ZM36.15-17.18V0H32.459V-13.008a4.421,4.421,0,0,1-.721.51,7.44,7.44,0,0,1-.885.434,7.9,7.9,0,0,1-.973.328,7.1,7.1,0,0,1-1,.193V-14.66A15.4,15.4,0,0,0,31.6-15.738a15.472,15.472,0,0,0,2.309-1.441Zm7.837,4.723a22.8,22.8,0,0,0,7.828-6.316,6.1,6.1,0,0,0,.82-1.418,17.063,17.063,0,0,1,2.461.609q.34.094.34.328a.49.49,0,0,1-.316.434,3.4,3.4,0,0,0-.715.773l-.48.645h5.238a3.15,3.15,0,0,0,.691-.047,1.434,1.434,0,0,1,.434-.117q.328,0,1.008.621.75.691.75,1.008a.55.55,0,0,1-.34.48,3.1,3.1,0,0,0-.785.762,31.88,31.88,0,0,1-6.8,6.586h6.164l3.258-.047q.27,0,.27.234l-.047,3.094v2.215l.047,4.172a.371.371,0,0,1-.047.234.4.4,0,0,1-.211.035H61.507q-.2,0-.246-.059a.366.366,0,0,1-.035-.211V.48H52.777v1.2q0,.27-.234.27H50.468q-.187,0-.223-.047a.437.437,0,0,1-.035-.223l.047-4.242V-5.719a46.747,46.747,0,0,1-4.441,2.145,1.878,1.878,0,0,1-.551.188q-.164,0-.48-.621a5.3,5.3,0,0,0-1.148-1.535,35.166,35.166,0,0,0,8.4-4.008,20.1,20.1,0,0,0-2.508-2.227q-.164-.129-.164-.2t.2-.234l1.266-1.031a.5.5,0,0,1,.293-.152.7.7,0,0,1,.281.117,23.812,23.812,0,0,1,2.648,2.191,29.435,29.435,0,0,0,4.055-4.137h-6.07a28,28,0,0,1-5.766,4.43,1.252,1.252,0,0,1-.551.234q-.2,0-.5-.551A4.738,4.738,0,0,0,43.987-12.457ZM61.226-5.93H52.777v4.254h8.449Z" transform="translate(1375.156 1971)" fill="#fff"/>
        <g id="_7-11LOGO" data-name="7-11LOGO" transform="translate(1142.079 1922.475)">
          <rect id="Rectangle_26" data-name="Rectangle 26" width="40.05" height="40.05" transform="translate(14.5 16)" fill="#fff"/>
          <rect id="Rectangle_27" data-name="Rectangle 27" width="35.151" height="34.93" transform="translate(17.208 18.634)" fill="#008a32"/>
          <path id="Path_628" data-name="Path 628" d="M44.515,40.55s-.416-1.91,1.909-1.91H72a1.573,1.573,0,0,1,1.494,1.827c-.17,1.743-2.91,27.233-2.91,27.233s.166,1.577-1.826,1.577H63.444v1.412H54.561V69.221H48.832s-1.993.055-1.993-1.689Z" transform="translate(-24.259 -17.996)" fill="#fff" stroke="#fff" stroke-width="0.576"/>
          <path id="Path_629" data-name="Path 629" d="M135,77.295c1-3.8,5.366-5.728,5.366-5.728v-7.09c-5.458,2.2-11.177,6.758-12.429,12.832" transform="translate(-95.411 -40.025)" fill="#dc000c"/>
          <path id="Path_630" data-name="Path 630" d="M94.955,65.071a31.932,31.932,0,0,0-6.792,4.783,13.684,13.684,0,0,0-1.583,1.891h-9.1l-.048-6.565v-.129Z" transform="translate(-52.352 -40.511)" fill="#ed6b00"/>
          <path id="Path_631" data-name="Path 631" d="M71.936,155.777v4.981h2.817V159.7H73.487v-1.027h1.206V157.8H73.51v-.9h1.205v-1.121Z" transform="translate(-47.663 -117.868)" fill="#008a32" stroke="#008a32" stroke-width="0.115"/>
          <path id="Path_632" data-name="Path 632" d="M116.028,155.777v4.981h2.817V159.7H117.58v-1.027h1.2V157.8H117.6v-.9h1.205v-1.121Z" transform="translate(-85.257 -117.868)" fill="#008a32" stroke="#008a32" stroke-width="0.115"/>
          <path id="Path_633" data-name="Path 633" d="M164.4,155.777v4.981h2.817V159.7h-1.266v-1.027h1.2V157.8h-1.182v-.9h1.206v-1.121Z" transform="translate(-126.503 -117.868)" fill="#008a32" stroke="#008a32" stroke-width="0.115"/>
          <path id="Path_634" data-name="Path 634" d="M94.59,160.516v-4.984h1.579v3.874h1.152v1.11Z" transform="translate(-66.978 -117.66)" fill="#008a32" stroke="#008a32" stroke-width="0.115"/>
          <path id="Path_635" data-name="Path 635" d="M137.467,161.073h2.052l.967-4.909h-1.121l-.654,3.166-.466-3.166h-1.464Z" transform="translate(-102.952 -118.199)" fill="#008a32" stroke="#008a32" stroke-width="0.115"/>
          <path id="Path_636" data-name="Path 636" d="M187.744,191.942" transform="translate(-146.403 -148.704)" fill="none"/>
          <path id="Path_637" data-name="Path 637" d="M187.377,160.645v-4.862H188.9v.306a1.857,1.857,0,0,1,1.245-.469c.778,0,1.089.425,1.089.736v4.319h-1.506v-3.45c-.012-.526-.828-.374-.828,0v3.42Z" transform="translate(-146.09 -117.735)" fill="#008a32" stroke="#008a32" stroke-width="0.115"/>
          <path id="Path_638" data-name="Path 638" d="M124.433,194.119h-7.42a43.719,43.719,0,0,0-.612,8.479h7.674a68.31,68.31,0,0,1,.358-8.479Z" transform="translate(-85.57 -150.56)" fill="#dc000c" stroke="#dc000c" stroke-width="0.115"/>
          <path id="Path_639" data-name="Path 639" d="M176.1,199.414a1.042,1.042,0,1,0-1.042-1.042A1.042,1.042,0,0,0,176.1,199.414Z" transform="translate(-135.588 -153.298)" fill="#fff" stroke="#008a32" stroke-width="0.75"/>
          <path id="Path_640" data-name="Path 640" d="M178.993,199.724h.455a.348.348,0,0,1,.153.028.2.2,0,0,1,.107.2.215.215,0,0,1-.076.19.364.364,0,0,1-.208.053h-.431Zm0,1.219v-.591h.425a.415.415,0,0,1,.168.025.194.194,0,0,1,.1.181l.012.23a.909.909,0,0,0,.01.109.173.173,0,0,0,.014.046h.229v-.031a.115.115,0,0,1-.06-.084.6.6,0,0,1-.013-.117l-.007-.185a.315.315,0,0,0-.046-.174.278.278,0,0,0-.122-.086.339.339,0,0,0,.195-.33.326.326,0,0,0-.195-.326.638.638,0,0,0-.259-.046h-.638v1.379Z" transform="translate(-138.782 -155.202)" fill="#008a32"/>
        </g>
      </g>
    </g>
  </g>
</svg>
