<svg xmlns="http://www.w3.org/2000/svg" width="315.279" height="404.474" viewBox="0 0 315.279 404.474">
  <g id="吉他" transform="translate(-1473.259 -246.249)">
    <path id="Path_477" data-name="Path 477" d="M1474.475,528.047l4.272,31.56,118.209-68.075,4.374-12.88Z" fill="#00ff5f" stroke="#004990" stroke-linecap="round" stroke-linejoin="round" stroke-width="2.434"/>
    <g id="Group_157" data-name="Group 157">
      <g id="Group_59" data-name="Group 59">
        <path id="Path_478" data-name="Path 478" d="M1672.8,649.2c-3.12.25-6.906-3.643-8.438-8.679-10.523-34.561-26.693-76.886-37.636-82.42-2.937-1.487-7.428-2-13.35-1.524-21.345,1.713-53.846,15.65-57.482,17.234l-2.272.992c-7.5,3.284-13.976,6.121-18.825,6.511a7.973,7.973,0,0,1-5.755-1.352,3.567,3.567,0,0,1-1.394-2.66c-.194-3.026,2.984-6.906,5.684-9.626,30.308-30.546,125.964-122.313,126.927-123.236a1.512,1.512,0,0,1,.924-.415,1.441,1.441,0,0,1,.246,0,76.2,76.2,0,0,0,7.952.281l54.145-109.039a1.507,1.507,0,0,1,.165-.78l.418-.808a1.5,1.5,0,0,1,.476-.545l12.4-24.968a1.607,1.607,0,0,1-.082-.2,1.509,1.509,0,0,1,.094-1.154l.417-.809a1.506,1.506,0,0,1,1.038-.787l.539-1.084c.25-1.993.328-6.939-1.963-9.286a1.509,1.509,0,0,1-.02-2.088l2.6-2.764-.706-.693a1.948,1.948,0,0,1-1.022.392,2.657,2.657,0,0,1-2.5-1.713,4.263,4.263,0,0,1,1.077-4.859,4.626,4.626,0,0,1,2.936-1.459,3.821,3.821,0,0,1,2.593.731,2.882,2.882,0,0,1,.7.744,2.041,2.041,0,0,1-.036,2.376l.609.6,2.575-2.738-.676-.665a1.948,1.948,0,0,1-1.022.392,2.055,2.055,0,0,1-.816-.1,2.48,2.48,0,0,1-.508-.237,2.975,2.975,0,0,1-.757-.69,3.555,3.555,0,0,1-.283-.424,3.761,3.761,0,0,1-.383-.98,3.845,3.845,0,0,1-.091-.557,4.058,4.058,0,0,1,.255-1.816,5.048,5.048,0,0,1,1.162-1.766,4.813,4.813,0,0,1,2.371-1.373,3.914,3.914,0,0,1,.562-.086,4.184,4.184,0,0,1,.634,0,3.859,3.859,0,0,1,.557.085,3.678,3.678,0,0,1,1.407.647,3.221,3.221,0,0,1,.377.336,2.564,2.564,0,0,1,.568.913,1.978,1.978,0,0,1-.283,1.871l.579.569,2.576-2.738-.648-.637a1.95,1.95,0,0,1-1.023.393,2.078,2.078,0,0,1-.816-.1,2.382,2.382,0,0,1-.516-.244,2.912,2.912,0,0,1-.752-.689,3.391,3.391,0,0,1-.279-.419,3.843,3.843,0,0,1-.474-1.531,4.1,4.1,0,0,1,.252-1.817,5.078,5.078,0,0,1,1.165-1.77,4.632,4.632,0,0,1,2.937-1.46,3.7,3.7,0,0,1,2.969,1.067,2.52,2.52,0,0,1,.573.924,2.124,2.124,0,0,1,.114.655,1.921,1.921,0,0,1-.4,1.2l.551.542,2.576-2.739-.619-.607a1.928,1.928,0,0,1-.44.252,1.962,1.962,0,0,1-.583.14c-.039,0-.118.006-.158.006a2.768,2.768,0,0,1-2.428-1.927,3.827,3.827,0,0,1-.159-.507,3.926,3.926,0,0,1-.1-1.147,4.132,4.132,0,0,1,.084-.614,4.553,4.553,0,0,1,.855-1.821,5.959,5.959,0,0,1,.486-.56,5.158,5.158,0,0,1,1.584-1.108c.106-.046.207-.087.308-.123a4.2,4.2,0,0,1,1.067-.23,3.7,3.7,0,0,1,.614,0,3.753,3.753,0,0,1,1.961.73,2.978,2.978,0,0,1,.7.744,2.044,2.044,0,0,1-.037,2.377l.523.512,2.576-2.738-.59-.58a1.937,1.937,0,0,1-1.022.392,2.579,2.579,0,0,1-2.364-1.453,3.725,3.725,0,0,1-.384-.981,3.608,3.608,0,0,1-.09-.555,4.053,4.053,0,0,1,.254-1.815,5.067,5.067,0,0,1,1.162-1.767,5.609,5.609,0,0,1,.558-.5,4.837,4.837,0,0,1,1.2-.688,4.382,4.382,0,0,1,.617-.189,4.079,4.079,0,0,1,.57-.086,3.53,3.53,0,0,1,3.452,1.776,1.987,1.987,0,0,1-.2,2.076l.493.484,2.575-2.739-.56-.55a1.952,1.952,0,0,1-1.023.391c-.04,0-.118.007-.158.007a1.653,1.653,0,0,1-.228-.018,2.364,2.364,0,0,1-1.356-.649,3.14,3.14,0,0,1-.469-.559,3.505,3.505,0,0,1-.374-.7,3.731,3.731,0,0,1-.163-.522,3.942,3.942,0,0,1-.1-1.134,4.052,4.052,0,0,1,.083-.614,4.805,4.805,0,0,1,1.344-2.383,4.627,4.627,0,0,1,2.938-1.46,4.029,4.029,0,0,1,.631,0,3.766,3.766,0,0,1,1.962.732,2.9,2.9,0,0,1,.694.739,2.044,2.044,0,0,1-.032,2.381l.464.457,4.484-4.768a1.507,1.507,0,0,1,.978-.469,1.487,1.487,0,0,1,.65.091,1.507,1.507,0,0,1,.978,1.356c.087,2.331.936,8.89,3.776,11.23a1.51,1.51,0,0,1,.25,2.066c-.128.172-12.858,17.423-15.619,34.485a1.509,1.509,0,0,1-1.351,1.261c-.037.005-6.326.947-12.367,13.942l-.664,1.422a1.508,1.508,0,0,1,.269,1.751l-.417.809a1.507,1.507,0,0,1-1.221.813,1.589,1.589,0,0,1-.207,0l-11.491,24.62a1.582,1.582,0,0,1,.124.283,1.506,1.506,0,0,1-.094,1.155l-.417.809a1.5,1.5,0,0,1-1.028.784l-13.086,28.037a1.509,1.509,0,0,1-.165.783l-.416.809a1.521,1.521,0,0,1-.384.475l-36.219,77.6a1.346,1.346,0,0,1-.129.43l-.408.812a1.647,1.647,0,0,1-.136.221,1.494,1.494,0,0,1,.218.519c.02.082.627,2.462,3.9,3.907a1.507,1.507,0,0,1,.891,1.531c-.18,1.779-17.992,177.908-18.613,184.6C1676.092,648.494,1673.775,649.123,1672.8,649.2Z" fill="#bfbfbf"/>
        <path id="Path_479" data-name="Path 479" d="M1779.978,249.267h.005m-.005,0s.327,9.045,4.323,12.339c0,0-13.044,17.5-15.9,35.144,0,0-7.012.645-13.6,14.809l-1.247,2.671.879.447-.417.809-.847-.431-12.609,27.015.567.289-.417.809-.535-.273-13.907,29.794.163.083-.417.809-.131-.067-36.665,78.554.058.028-.408.814-.034-.017-.662,1.418.651.329s.672,3.165,4.76,4.973c0,0-17.986,177.835-18.615,184.615-.216,2.328-1.12,3.375-2.3,3.469-2.252.181-5.507-3.121-6.874-7.613-2.083-6.842-23.1-75.59-38.4-83.328-3.429-1.734-8.391-2.143-14.153-1.681-19.948,1.6-49.467,13.654-57.964,17.354-8.114,3.534-15.54,6.975-20.615,7.383a6.618,6.618,0,0,1-4.708-1.038c-2.375-1.849.81-6.38,4.435-10.034,30.645-30.886,126.9-123.209,126.9-123.209a75.245,75.245,0,0,0,8.275.275,5.066,5.066,0,0,0,.8-.115c13.15-26.485,38.5-77.528,54.831-110.419l-.177-.09.417-.809.165.084c6.113-12.312,10.907-21.965,13.253-26.688l-.529-.269.417-.809.516.263,1.18-2.374s1.1-7.262-2.345-10.791l3.611-3.84-3.11-3.054h0c-.028.1-.056.207-.088.31-.012.04-.028.079-.042.118-.019.056-.037.112-.061.167a1.833,1.833,0,0,1-.09.168c-.021.039-.037.077-.063.116a1.754,1.754,0,0,1-.227.28.429.429,0,0,1-.278.131c-.826.066-2.166-2.045-.227-4.007a3.15,3.15,0,0,1,1.985-1.016,2.3,2.3,0,0,1,1.56.428,1.425,1.425,0,0,1,.341.358.528.528,0,0,1,0,.688,1.841,1.841,0,0,1-.284.234c-.039.026-.079.044-.118.066a1.866,1.866,0,0,1-.169.091c-.056.025-.114.045-.171.065-.038.014-.077.029-.115.041-.113.036-.227.068-.34.1l3.085,3.029,4.643-4.936-3.081-3.027v0c-.027.1-.055.207-.087.31-.012.04-.028.079-.042.118-.019.056-.037.112-.061.167s-.059.112-.09.168c-.021.039-.037.077-.063.116a1.849,1.849,0,0,1-.219.27l-.008.01a.434.434,0,0,1-.278.131.561.561,0,0,1-.222-.03.853.853,0,0,1-.189-.09,1.432,1.432,0,0,1-.362-.337,2,2,0,0,1-.157-.236,2.264,2.264,0,0,1-.229-.587,2.41,2.41,0,0,1-.056-.34,2.577,2.577,0,0,1,.164-1.148,3.543,3.543,0,0,1,.824-1.239,3.32,3.32,0,0,1,1.628-.962,2.7,2.7,0,0,1,.358-.055l.026,0a2.6,2.6,0,0,1,.364,0,2.314,2.314,0,0,1,.341.052,2.16,2.16,0,0,1,.828.377,1.645,1.645,0,0,1,.194.173,1.051,1.051,0,0,1,.239.372.464.464,0,0,1-.1.5,1.792,1.792,0,0,1-.283.234c-.039.026-.079.044-.118.066a1.851,1.851,0,0,1-.169.091c-.057.025-.114.045-.171.065-.039.013-.077.029-.115.041-.113.036-.226.068-.34.1l3.056,3,4.643-4.937-3.052-3,0,.005c-.027.1-.055.2-.086.307-.012.04-.029.08-.043.121s-.037.109-.06.164-.06.114-.092.171c-.021.038-.036.075-.061.112a1.824,1.824,0,0,1-.227.281.439.439,0,0,1-.278.131.588.588,0,0,1-.223-.03.917.917,0,0,1-.188-.09,1.434,1.434,0,0,1-.362-.337,1.927,1.927,0,0,1-.157-.236,2.311,2.311,0,0,1-.285-.927,2.576,2.576,0,0,1,.163-1.148,3.563,3.563,0,0,1,.825-1.24,3.153,3.153,0,0,1,1.985-1.016,2.213,2.213,0,0,1,1.754.6,1.053,1.053,0,0,1,.239.372.6.6,0,0,1,.033.182.432.432,0,0,1-.129.319,1.79,1.79,0,0,1-.283.234c-.038.026-.077.043-.115.064-.057.033-.115.067-.172.093s-.112.044-.168.064c-.04.014-.08.03-.12.042-.111.035-.222.067-.334.1h-.005l3.028,2.973,4.643-4.936-3.023-2.97c-.029.105-.057.209-.089.313-.011.037-.026.074-.039.111-.02.058-.039.116-.064.173a1.779,1.779,0,0,1-.088.166c-.022.039-.038.078-.064.117a1.824,1.824,0,0,1-.228.281.441.441,0,0,1-.147.1.449.449,0,0,1-.13.031h-.04c-.354,0-.79-.382-1.022-.971a2.113,2.113,0,0,1-.1-.31,2.409,2.409,0,0,1-.062-.705,2.521,2.521,0,0,1,.052-.384,3.084,3.084,0,0,1,.58-1.224,4.467,4.467,0,0,1,.362-.415,3.613,3.613,0,0,1,1.116-.785c.068-.03.135-.058.2-.081a2.736,2.736,0,0,1,.686-.15,2.307,2.307,0,0,1,.372,0,2.239,2.239,0,0,1,1.168.428,1.442,1.442,0,0,1,.341.358.527.527,0,0,1,0,.689,1.848,1.848,0,0,1-.283.234c-.039.026-.079.044-.118.066-.056.031-.112.065-.169.09s-.114.045-.172.066c-.038.013-.076.029-.115.041-.113.036-.226.068-.34.1l3,2.945,4.643-4.937-2.995-2.941c-.028.1-.056.208-.088.312-.011.039-.028.078-.041.116a1.764,1.764,0,0,1-.062.168,1.81,1.81,0,0,1-.089.169c-.022.038-.038.077-.063.115a1.774,1.774,0,0,1-.228.28.43.43,0,0,1-.277.132,1.155,1.155,0,0,1-.931-.694,2.261,2.261,0,0,1-.229-.586,2.3,2.3,0,0,1-.055-.34,2.582,2.582,0,0,1,.163-1.149,3.569,3.569,0,0,1,.825-1.239,4.144,4.144,0,0,1,.411-.367,3.276,3.276,0,0,1,.818-.472,2.818,2.818,0,0,1,.4-.123,2.584,2.584,0,0,1,.358-.054l.026,0c1.375-.1,2.365.977,1.871,1.477a1.847,1.847,0,0,1-.284.234c-.037.025-.075.042-.113.064-.058.032-.115.067-.173.092s-.114.045-.17.065c-.039.014-.078.03-.117.042-.113.035-.226.067-.34.1l2.97,2.916,4.643-4.936-2.966-2.913c-.028.1-.056.208-.088.312-.011.038-.027.075-.04.112-.02.058-.038.115-.063.173s-.058.11-.088.166c-.022.039-.038.078-.064.117a1.773,1.773,0,0,1-.228.28.434.434,0,0,1-.148.1.411.411,0,0,1-.129.03l-.04,0c-.012,0-.025-.006-.037-.006a.894.894,0,0,1-.52-.259,1.762,1.762,0,0,1-.246-.3,2.048,2.048,0,0,1-.219-.408,2.281,2.281,0,0,1-.1-.31,2.412,2.412,0,0,1-.061-.705,2.628,2.628,0,0,1,.051-.384,3.321,3.321,0,0,1,.943-1.639,3.15,3.15,0,0,1,1.984-1.016,2.566,2.566,0,0,1,.392,0,2.238,2.238,0,0,1,1.168.429,1.428,1.428,0,0,1,.341.358.527.527,0,0,1,0,.688,1.742,1.742,0,0,1-.284.234,1.271,1.271,0,0,1-.118.067c-.056.031-.112.065-.168.09s-.115.045-.172.065c-.038.014-.076.03-.115.042-.113.035-.226.067-.34.1l2.941,2.888,5.54-5.89m-.236-3.008h-.006a3.012,3.012,0,0,0-1.956.94h0l-2.347,2.5q-.088-.173-.195-.339a4.443,4.443,0,0,0-1.056-1.133,5.288,5.288,0,0,0-2.757-1.034,5.5,5.5,0,0,0-.87,0,6.15,6.15,0,0,0-3.889,1.9,6.281,6.281,0,0,0-1.748,3.134,5.627,5.627,0,0,0-.113.838,5.453,5.453,0,0,0,.005.7c-.15,0-.3,0-.453.012l-.058.005a5.4,5.4,0,0,0-.777.118,5.852,5.852,0,0,0-.835.255,6.309,6.309,0,0,0-1.574.9,7.459,7.459,0,0,0-.7.627,6.559,6.559,0,0,0-1.5,2.3,5.581,5.581,0,0,0-.354,2.378c-.164,0-.328,0-.492.017a5.756,5.756,0,0,0-1.449.311c-.135.048-.274.1-.413.166a6.62,6.62,0,0,0-2.047,1.425,7.3,7.3,0,0,0-.618.711,6.092,6.092,0,0,0-1.13,2.423,5.645,5.645,0,0,0-.112.838,5.474,5.474,0,0,0,0,.7c-.17,0-.34,0-.511.017a6.148,6.148,0,0,0-3.89,1.9,6.576,6.576,0,0,0-1.5,2.3,5.565,5.565,0,0,0-.353,2.378c-.151,0-.3,0-.452.013l-.06,0a5.545,5.545,0,0,0-.777.118,6.283,6.283,0,0,0-3.113,1.785,6.572,6.572,0,0,0-1.5,2.3,5.57,5.57,0,0,0-.353,2.379c-.171,0-.342,0-.512.016a6.155,6.155,0,0,0-3.89,1.9,5.74,5.74,0,0,0-1.371,6.556,4.456,4.456,0,0,0,2.558,2.4l-.664.706a3.017,3.017,0,0,0,.039,4.174c1.774,1.818,1.757,5.966,1.572,7.8l-.156.315a3,3,0,0,0-1.29,1.295l-.417.808a3.02,3.02,0,0,0-.288,1.914l-11.993,24.15a3,3,0,0,0-.607.809l-.417.809a2.988,2.988,0,0,0-.322,1.093c-16.037,32.294-40.389,81.333-53.6,107.945-2.124.033-5.556-.2-6.873-.313a3.014,3.014,0,0,0-2.339.829c-.963.924-96.633,92.7-126.954,123.262-4.244,4.278-6.3,7.907-6.118,10.786a5.1,5.1,0,0,0,1.972,3.754,9.51,9.51,0,0,0,6.8,1.664c5.1-.409,11.683-3.292,19.306-6.631l2.272-.993c3.612-1.573,35.9-15.418,57-17.112,5.641-.453,9.863.007,12.55,1.366,9.848,4.981,25.615,44.529,36.872,81.513,1.519,4.99,5.541,10.1,10,9.743,1.06-.085,4.558-.784,5.06-6.2.621-6.689,18.433-182.811,18.612-184.59a3.016,3.016,0,0,0-1.781-3.063,5.23,5.23,0,0,1-3.035-2.881l-.015-.085.219-.437a3,3,0,0,0,.241-.665l36.008-77.146a2.991,2.991,0,0,0,.475-.676l.417-.808a3.012,3.012,0,0,0,.324-1.121l12.7-27.207a3.01,3.01,0,0,0,1.256-1.276l.417-.809a3.015,3.015,0,0,0,.259-2.055l10.892-23.336a3.011,3.011,0,0,0,1.738-1.483l.417-.808a3.019,3.019,0,0,0,.189-2.309,2.452,2.452,0,0,0-.087-.236l.318-.68c5.3-11.408,10.622-12.947,11.195-13.082l.126-.007a2.8,2.8,0,0,0,2.52-2.514c2.7-16.683,15.214-33.655,15.34-33.825a3.018,3.018,0,0,0-.5-4.13c-2.179-1.8-3.1-7.435-3.222-10.008,0-.081,0-.162-.01-.244a3.015,3.015,0,0,0-3.246-2.766Zm.477,6.015h0Z" fill="#004990"/>
      </g>
      <g id="Group_60" data-name="Group 60">
        <path id="Path_480" data-name="Path 480" d="M1672.735,648.449c-2.739.22-6.245-3.51-7.656-8.145-3.825-12.563-23.633-75.6-38.016-82.875-3.064-1.55-7.69-2.089-13.751-1.6-21.468,1.723-54.075,15.706-57.723,17.293l-2.273.994c-7.438,3.257-13.861,6.07-18.582,6.449a7.265,7.265,0,0,1-5.233-1.194,2.83,2.83,0,0,1-1.1-2.113c-.185-2.891,3.346-6.909,5.466-9.047,30.3-30.54,125.952-122.3,126.914-123.223a.759.759,0,0,1,.462-.208.842.842,0,0,1,.123,0,75.563,75.563,0,0,0,8.174.279,3.981,3.981,0,0,0,.7-.1.769.769,0,0,1,.282-.171.751.751,0,0,1,.58.042l18.071,9.139a.756.756,0,0,1,.4.517c.025.109.675,2.824,4.327,4.439a.754.754,0,0,1,.446.766c-.181,1.778-17.993,177.909-18.615,184.609C1675.405,647.727,1673.715,648.371,1672.735,648.449Z" fill="#00ff5f"/>
        <path id="Path_481" data-name="Path 481" d="M1661.3,445.531a75.488,75.488,0,0,0,8.3.278c.645-.051,1.082-.148,1.16-.308l18.071,9.139s.672,3.165,4.76,4.973c0,0-17.985,177.835-18.615,184.615-.216,2.328-1.12,3.375-2.3,3.469-2.252.181-5.507-3.121-6.874-7.613-2.083-6.842-23.1-75.59-38.4-83.328-3.429-1.734-8.391-2.143-14.153-1.68-19.948,1.6-49.467,13.653-57.964,17.353-8.114,3.534-15.54,6.975-20.615,7.383a6.618,6.618,0,0,1-4.708-1.038c-2.375-1.849.81-6.38,4.435-10.033,30.645-30.887,126.9-123.21,126.9-123.21m-.12-1.5a1.509,1.509,0,0,0-.924.415c-.963.923-96.619,92.69-126.927,123.236-2.7,2.721-5.878,6.6-5.684,9.627a3.572,3.572,0,0,0,1.394,2.66,7.972,7.972,0,0,0,5.755,1.35c4.848-.389,11.324-3.225,18.822-6.508l2.275-.995c3.636-1.583,36.139-15.52,57.481-17.233,5.922-.475,10.414.037,13.352,1.523,10.948,5.539,27.116,47.861,37.634,82.421,1.533,5.036,5.319,8.929,8.439,8.678.978-.078,3.3-.707,3.679-4.834.622-6.7,18.434-182.824,18.613-184.6a1.507,1.507,0,0,0-.89-1.531c-3.267-1.444-3.874-3.825-3.9-3.925a1.551,1.551,0,0,0-.791-1.014l-18.071-9.139a1.51,1.51,0,0,0-.8-.157,1.478,1.478,0,0,0-.358.073,1.533,1.533,0,0,0-.374.185c-.086.015-.223.033-.429.05a74.674,74.674,0,0,1-8.051-.279,1.441,1.441,0,0,0-.246,0Z" fill="#004990"/>
      </g>
      <g id="Group_63" data-name="Group 63">
        <g id="Group_62" data-name="Group 62">
          <path id="Path_482" data-name="Path 482" d="M1612.413,551.111a.755.755,0,0,1-.682-1.18l27.634-40.173-21.431-10.587a.754.754,0,0,1-.05-1.326L1673.9,464.78a.754.754,0,0,1,1.06.983l-16.4,33.192,26.421,13.051a.754.754,0,0,1,.015,1.345l-72.3,37.677A.738.738,0,0,1,1612.413,551.111Z" fill="#ff4398"/>
          <g id="Group_61" data-name="Group 61">
            <path id="Path_483" data-name="Path 483" d="M1674.28,465.429h.005m-.005,0L1657.55,499.3l27.1,13.386-72.295,37.677,28.128-40.891-22.214-10.974,56.013-33.065m-.121-1.5c-.047,0-.093.009-.139.017a1.508,1.508,0,0,0-.534.2L1617.5,497.2a1.509,1.509,0,0,0,.1,2.652l20.651,10.2L1611.11,549.5a1.509,1.509,0,0,0,1.94,2.193l72.295-37.677a1.508,1.508,0,0,0-.029-2.69l-25.745-12.718,16.03-32.45a1.508,1.508,0,0,0-1.425-2.238l-.017,0Zm.242,3.007h0Z" fill="#004990"/>
          </g>
        </g>
      </g>
      <g id="Group_66" data-name="Group 66">
        <g id="Group_65" data-name="Group 65">
          <path id="Path_484" data-name="Path 484" d="M1649.556,555.518a.741.741,0,0,1-.4-.079l-35.365-17.748a.751.751,0,0,1-.335-1.012l2.943-5.864a.749.749,0,0,1,.614-.414.738.738,0,0,1,.4.078l35.365,17.749a.75.75,0,0,1,.335,1.011l-2.943,5.865A.754.754,0,0,1,1649.556,555.518Z" fill="#bfbfbf"/>
          <g id="Group_64" data-name="Group 64">
            <path id="Path_485" data-name="Path 485" d="M1617.075,531.153l35.364,17.749-2.943,5.864-35.365-17.749,2.944-5.864m-.12-1.5a1.507,1.507,0,0,0-1.229.827l-2.943,5.864a1.509,1.509,0,0,0,.672,2.025l35.364,17.749a1.508,1.508,0,0,0,2.025-.671l2.944-5.865a1.51,1.51,0,0,0-.672-2.025L1617.751,529.8a1.5,1.5,0,0,0-.8-.155Z" fill="#004990"/>
          </g>
        </g>
      </g>
      <g id="Group_69" data-name="Group 69">
        <g id="Group_68" data-name="Group 68">
          <path id="Path_486" data-name="Path 486" d="M1659.326,518.848a.747.747,0,0,1-.4-.079l-21.57-10.826a.752.752,0,0,1-.336-1.011l4.723-9.413a.75.75,0,0,1,.436-.378.78.78,0,0,1,.178-.036.743.743,0,0,1,.4.078l21.254,10.667a.753.753,0,0,1,.347.989l-4.406,9.572a.755.755,0,0,1-.437.4A.763.763,0,0,1,1659.326,518.848Z" fill="#bfbfbf"/>
          <g id="Group_67" data-name="Group 67">
            <path id="Path_487" data-name="Path 487" d="M1642.42,497.857l21.253,10.667-4.407,9.571-21.57-10.826,4.724-9.412m-.12-1.5a1.51,1.51,0,0,0-1.229.828l-4.723,9.412a1.509,1.509,0,0,0,.671,2.025l21.57,10.825a1.507,1.507,0,0,0,2.047-.717l4.407-9.571a1.508,1.508,0,0,0-.694-1.979L1643.1,496.509a1.506,1.506,0,0,0-.8-.156Z" fill="#004990"/>
          </g>
        </g>
      </g>
      <g id="Group_72" data-name="Group 72">
        <g id="Group_71" data-name="Group 71">
          <path id="Path_488" data-name="Path 488" d="M1655.832,534.393a2.574,2.574,0,0,1-1.092-.148l-25.728-9.281a2.6,2.6,0,0,1,.676-5.045,2.578,2.578,0,0,1,1.09.146l25.729,9.283a2.6,2.6,0,0,1-.675,5.045Z" fill="#bfbfbf"/>
          <g id="Group_70" data-name="Group 70">
            <path id="Path_489" data-name="Path 489" d="M1629.748,520.671a1.859,1.859,0,0,1,.775.1l25.729,9.283a1.849,1.849,0,0,1,1.111,2.367h0a1.849,1.849,0,0,1-2.367,1.112l-25.728-9.283a1.849,1.849,0,0,1,.48-3.583m-.12-1.5h0a3.358,3.358,0,0,0-.871,6.506l25.728,9.283a3.358,3.358,0,1,0,2.279-6.317l-25.728-9.283a3.357,3.357,0,0,0-1.407-.189Z" fill="#004990"/>
          </g>
        </g>
      </g>
      <g id="Group_75" data-name="Group 75">
        <g id="Group_74" data-name="Group 74">
          <path id="Path_490" data-name="Path 490" d="M1673.526,487.286a.737.737,0,0,1-.4-.079l-19.953-10.015a.749.749,0,0,1-.336-1.011l4.724-9.412a.753.753,0,0,1,1.012-.336l19.953,10.015a.753.753,0,0,1,.336,1.012l-4.724,9.412A.757.757,0,0,1,1673.526,487.286Z" fill="#bfbfbf"/>
          <g id="Group_73" data-name="Group 73">
            <path id="Path_491" data-name="Path 491" d="M1658.238,467.107l19.953,10.014-4.724,9.413-19.953-10.015,4.724-9.412m-.12-1.5a1.51,1.51,0,0,0-1.229.828l-4.723,9.412a1.509,1.509,0,0,0,.671,2.025l19.954,10.014a1.5,1.5,0,0,0,.8.155,1.435,1.435,0,0,0,.354-.072,1.509,1.509,0,0,0,.874-.755l4.723-9.412a1.508,1.508,0,0,0-.671-2.025l-19.954-10.014a1.506,1.506,0,0,0-.8-.156Z" fill="#004990"/>
          </g>
        </g>
      </g>
      <g id="Group_82" data-name="Group 82">
        <g id="Group_76" data-name="Group 76">
          <path id="Path_492" data-name="Path 492" d="M1743.379,292.278a.749.749,0,0,1-.589-.214l-3.918-3.847a2.531,2.531,0,0,1-.3.368,1.18,1.18,0,0,1-.755.353,1.922,1.922,0,0,1-1.752-1.28,3.527,3.527,0,0,1,.928-4.009,3.916,3.916,0,0,1,2.461-1.238,2.735,2.735,0,0,1,2.706,1.33,1.239,1.239,0,0,1-.21,1.426,2.624,2.624,0,0,1-.393.327l3.918,3.849a.753.753,0,0,1,.008,1.068l-1.625,1.645A.75.75,0,0,1,1743.379,292.278Z" fill="#fff"/>
          <path id="Path_493" data-name="Path 493" d="M1739.512,283.163c1.389-.112,2.394.971,1.9,1.474a2.386,2.386,0,0,1-1.2.6l4.731,4.646-1.625,1.645-4.716-4.631a2.3,2.3,0,0,1-.571,1.16.429.429,0,0,1-.278.131c-.826.066-2.165-2.046-.227-4.007a3.15,3.15,0,0,1,1.985-1.016m-.121-1.5a4.627,4.627,0,0,0-2.937,1.459,4.264,4.264,0,0,0-1.076,4.859,2.656,2.656,0,0,0,2.5,1.713,1.948,1.948,0,0,0,1.022-.392l3.365,3.3a1.507,1.507,0,0,0,2.13-.016l1.625-1.645A1.509,1.509,0,0,0,1746,288.8l-3.355-3.295a1.982,1.982,0,0,0,.195-2.087,3.517,3.517,0,0,0-3.45-1.764Z" fill="#004990"/>
        </g>
        <g id="Group_81" data-name="Group 81">
          <g id="Group_78" data-name="Group 78">
            <g id="Group_77" data-name="Group 77">
              <path id="Path_494" data-name="Path 494" d="M1743.343,291.827a.3.3,0,0,1-.236-.086l-5.259-5.165a.3.3,0,0,1,0-.427l1.626-1.645a.292.292,0,0,1,.19-.089.3.3,0,0,1,.235.086l5.259,5.165a.3.3,0,0,1,0,.427l-1.626,1.645A.306.306,0,0,1,1743.343,291.827Z" fill="#fff"/>
              <path id="Path_495" data-name="Path 495" d="M1739.685,284.716l5.259,5.165-1.625,1.645-5.26-5.165,1.626-1.645m-.049-.6a.6.6,0,0,0-.38.177l-1.626,1.645a.6.6,0,0,0,.006.854l5.26,5.165a.6.6,0,0,0,.852-.006l1.625-1.645a.6.6,0,0,0-.006-.854l-5.259-5.166a.6.6,0,0,0-.472-.17Z" fill="#004990"/>
            </g>
          </g>
          <g id="Group_80" data-name="Group 80">
            <g id="Group_79" data-name="Group 79">
              <path id="Path_496" data-name="Path 496" d="M1737.778,288.487a1.509,1.509,0,0,1-1.306-1.02,3.027,3.027,0,0,1,.841-3.5,3.48,3.48,0,0,1,2.174-1.1,2.3,2.3,0,0,1,2.26,1.07.786.786,0,0,1-.122.917,2.514,2.514,0,0,1-1.234.648,1.816,1.816,0,0,0-1.512,1.53,2.518,2.518,0,0,1-.632,1.24.734.734,0,0,1-.468.22Z" fill="#fff"/>
              <path id="Path_497" data-name="Path 497" d="M1739.512,283.163c1.389-.112,2.394.971,1.9,1.474-.718.727-1.5.41-2.24,1.164s-.419,1.527-1.137,2.254a.429.429,0,0,1-.278.131c-.826.066-2.165-2.045-.227-4.007a3.15,3.15,0,0,1,1.985-1.016m-.048-.6a3.78,3.78,0,0,0-2.366,1.193,3.317,3.317,0,0,0-.9,3.841,1.8,1.8,0,0,0,1.6,1.193,1.032,1.032,0,0,0,.658-.309,2.8,2.8,0,0,0,.71-1.375,1.521,1.521,0,0,1,1.3-1.317,2.793,2.793,0,0,0,1.366-.726,1.078,1.078,0,0,0,.182-1.256,2.619,2.619,0,0,0-2.557-1.244Z" fill="#004990"/>
            </g>
          </g>
        </g>
      </g>
      <g id="Group_89" data-name="Group 89">
        <g id="Group_83" data-name="Group 83">
          <path id="Path_498" data-name="Path 498" d="M1749.636,285.685a.749.749,0,0,1-.589-.214l-3.918-3.848a2.555,2.555,0,0,1-.305.37,1.174,1.174,0,0,1-.752.352,1.923,1.923,0,0,1-1.753-1.279,3.528,3.528,0,0,1,.929-4.011,3.917,3.917,0,0,1,2.46-1.237,2.738,2.738,0,0,1,2.707,1.33,1.24,1.24,0,0,1-.211,1.426,2.627,2.627,0,0,1-.393.327l3.918,3.849a.753.753,0,0,1,.008,1.068l-1.625,1.645A.751.751,0,0,1,1749.636,285.685Z" fill="#fff"/>
          <path id="Path_499" data-name="Path 499" d="M1745.769,276.57c1.389-.112,2.394.971,1.9,1.474a2.386,2.386,0,0,1-1.2.6l4.731,4.646-1.626,1.645-4.715-4.632a2.3,2.3,0,0,1-.571,1.161.429.429,0,0,1-.278.131c-.826.066-2.166-2.046-.227-4.008a3.146,3.146,0,0,1,1.985-1.015m-.121-1.5a4.625,4.625,0,0,0-2.937,1.459,4.264,4.264,0,0,0-1.076,4.859,2.656,2.656,0,0,0,2.5,1.713,1.948,1.948,0,0,0,1.022-.392l3.364,3.3a1.509,1.509,0,0,0,2.13-.016l1.626-1.645a1.509,1.509,0,0,0-.016-2.136l-3.355-3.3a1.984,1.984,0,0,0,.2-2.087,3.517,3.517,0,0,0-3.45-1.764Z" fill="#004990"/>
        </g>
        <g id="Group_88" data-name="Group 88">
          <g id="Group_85" data-name="Group 85">
            <g id="Group_84" data-name="Group 84">
              <path id="Path_500" data-name="Path 500" d="M1749.6,285.234a.3.3,0,0,1-.236-.086l-5.259-5.165a.3.3,0,0,1-.091-.213.306.306,0,0,1,.087-.214l1.625-1.645a.3.3,0,0,1,.426,0l5.26,5.165a.3.3,0,0,1,0,.427l-1.625,1.645A.309.309,0,0,1,1749.6,285.234Z" fill="#fff"/>
              <path id="Path_501" data-name="Path 501" d="M1745.942,278.123l5.259,5.165-1.626,1.645-5.259-5.165,1.626-1.645m-.049-.6a.608.608,0,0,0-.381.178l-1.625,1.644a.6.6,0,0,0,.006.855l5.26,5.165a.6.6,0,0,0,.852-.006l1.625-1.645a.6.6,0,0,0-.006-.855l-5.26-5.165a.606.606,0,0,0-.471-.171Z" fill="#004990"/>
            </g>
          </g>
          <g id="Group_87" data-name="Group 87">
            <g id="Group_86" data-name="Group 86">
              <path id="Path_502" data-name="Path 502" d="M1744.035,281.894a1.509,1.509,0,0,1-1.306-1.02,3.027,3.027,0,0,1,.841-3.5,3.48,3.48,0,0,1,2.174-1.1,2.305,2.305,0,0,1,2.26,1.07.786.786,0,0,1-.122.917,2.51,2.51,0,0,1-1.235.647,1.816,1.816,0,0,0-1.511,1.53,2.515,2.515,0,0,1-.633,1.241.738.738,0,0,1-.468.22Z" fill="#fff"/>
              <path id="Path_503" data-name="Path 503" d="M1745.769,276.57c1.389-.112,2.394.971,1.9,1.474-.718.727-1.5.41-2.24,1.164s-.419,1.527-1.137,2.254a.429.429,0,0,1-.278.131c-.826.066-2.166-2.046-.227-4.007a3.142,3.142,0,0,1,1.985-1.016m-.048-.6a3.778,3.778,0,0,0-2.366,1.193,3.32,3.32,0,0,0-.9,3.841,1.8,1.8,0,0,0,1.6,1.192,1.026,1.026,0,0,0,.659-.308,2.793,2.793,0,0,0,.709-1.375,1.523,1.523,0,0,1,1.3-1.317,2.8,2.8,0,0,0,1.366-.726,1.078,1.078,0,0,0,.182-1.256,2.619,2.619,0,0,0-2.557-1.244Z" fill="#004990"/>
            </g>
          </g>
        </g>
      </g>
      <g id="Group_96" data-name="Group 96">
        <g id="Group_90" data-name="Group 90">
          <path id="Path_504" data-name="Path 504" d="M1755.893,279.091a.75.75,0,0,1-.589-.213l-3.917-3.848a2.512,2.512,0,0,1-.306.369,1.173,1.173,0,0,1-.753.353,1.922,1.922,0,0,1-1.753-1.28,3.528,3.528,0,0,1,.93-4.01,3.92,3.92,0,0,1,2.46-1.237,2.736,2.736,0,0,1,2.707,1.33,1.242,1.242,0,0,1-.212,1.426,2.633,2.633,0,0,1-.392.327l3.918,3.849a.753.753,0,0,1,.008,1.068l-1.625,1.645A.744.744,0,0,1,1755.893,279.091Z" fill="#fff"/>
          <path id="Path_505" data-name="Path 505" d="M1752.026,269.976c1.389-.111,2.394.972,1.9,1.475a2.374,2.374,0,0,1-1.2.6l4.732,4.647-1.626,1.645-4.715-4.632a2.312,2.312,0,0,1-.571,1.161.439.439,0,0,1-.278.131c-.826.066-2.166-2.046-.227-4.008a3.153,3.153,0,0,1,1.985-1.016m-.121-1.5a4.623,4.623,0,0,0-2.937,1.459,4.264,4.264,0,0,0-1.076,4.859,2.654,2.654,0,0,0,2.5,1.712,1.938,1.938,0,0,0,1.022-.391l3.364,3.3a1.509,1.509,0,0,0,2.13-.016l1.626-1.645a1.51,1.51,0,0,0-.016-2.137l-3.355-3.294a1.984,1.984,0,0,0,.195-2.087,3.518,3.518,0,0,0-3.45-1.764Z" fill="#004990"/>
        </g>
        <g id="Group_95" data-name="Group 95">
          <g id="Group_92" data-name="Group 92">
            <g id="Group_91" data-name="Group 91">
              <path id="Path_506" data-name="Path 506" d="M1755.857,278.641a.3.3,0,0,1-.235-.086l-5.26-5.166a.3.3,0,0,1-.091-.212.3.3,0,0,1,.088-.215l1.625-1.645a.3.3,0,0,1,.19-.088.294.294,0,0,1,.235.086l5.26,5.165a.3.3,0,0,1,.091.212.306.306,0,0,1-.087.215l-1.625,1.645A.309.309,0,0,1,1755.857,278.641Z" fill="#fff"/>
              <path id="Path_507" data-name="Path 507" d="M1752.2,271.53l5.26,5.165-1.626,1.645-5.259-5.165,1.625-1.645m-.048-.6a.606.606,0,0,0-.381.177l-1.625,1.645a.6.6,0,0,0,.006.855l5.259,5.165a.6.6,0,0,0,.852-.006l1.626-1.645a.6.6,0,0,0-.006-.855l-5.26-5.165a.606.606,0,0,0-.471-.171Z" fill="#004990"/>
            </g>
          </g>
          <g id="Group_94" data-name="Group 94">
            <g id="Group_93" data-name="Group 93">
              <path id="Path_508" data-name="Path 508" d="M1750.291,275.3a1.512,1.512,0,0,1-1.306-1.02,3.027,3.027,0,0,1,.842-3.5,3.48,3.48,0,0,1,2.175-1.1,2.307,2.307,0,0,1,2.26,1.07.786.786,0,0,1-.125.917,2.5,2.5,0,0,1-1.233.647,1.813,1.813,0,0,0-1.511,1.53,2.506,2.506,0,0,1-.633,1.241.738.738,0,0,1-.468.22Z" fill="#fff"/>
              <path id="Path_509" data-name="Path 509" d="M1752.026,269.976c1.389-.111,2.394.972,1.9,1.475-.718.726-1.5.41-2.24,1.164s-.419,1.527-1.137,2.254a.439.439,0,0,1-.278.131c-.826.066-2.166-2.046-.227-4.008a3.153,3.153,0,0,1,1.985-1.016m-.048-.6a3.775,3.775,0,0,0-2.366,1.193,3.319,3.319,0,0,0-.9,3.841,1.8,1.8,0,0,0,1.6,1.192,1.033,1.033,0,0,0,.659-.308,2.792,2.792,0,0,0,.709-1.375,1.524,1.524,0,0,1,1.3-1.317,2.808,2.808,0,0,0,1.367-.726,1.079,1.079,0,0,0,.182-1.257,2.618,2.618,0,0,0-2.557-1.243Z" fill="#004990"/>
            </g>
          </g>
        </g>
      </g>
      <g id="Group_103" data-name="Group 103">
        <g id="Group_97" data-name="Group 97">
          <path id="Path_510" data-name="Path 510" d="M1762.149,272.5a.746.746,0,0,1-.588-.213l-3.918-3.848a2.593,2.593,0,0,1-.3.369,1.182,1.182,0,0,1-.754.353,1.922,1.922,0,0,1-1.753-1.28,3.527,3.527,0,0,1,.929-4.01,3.931,3.931,0,0,1,2.461-1.238,2.736,2.736,0,0,1,2.707,1.331,1.24,1.24,0,0,1-.212,1.426,2.588,2.588,0,0,1-.393.327l3.919,3.848a.756.756,0,0,1,.009,1.069l-1.626,1.645A.753.753,0,0,1,1762.149,272.5Z" fill="#fff"/>
          <path id="Path_511" data-name="Path 511" d="M1758.283,263.383c1.388-.111,2.394.972,1.9,1.475a2.375,2.375,0,0,1-1.2.6l4.731,4.647-1.625,1.645-4.716-4.632a2.3,2.3,0,0,1-.571,1.161.434.434,0,0,1-.277.131c-.826.066-2.166-2.046-.227-4.008a3.153,3.153,0,0,1,1.985-1.016m-.121-1.5a4.625,4.625,0,0,0-2.937,1.46,4.264,4.264,0,0,0-1.076,4.859,2.654,2.654,0,0,0,2.5,1.712,1.95,1.95,0,0,0,1.023-.391l3.364,3.3a1.509,1.509,0,0,0,2.13-.016l1.626-1.645a1.51,1.51,0,0,0-.016-2.137l-3.355-3.294a1.986,1.986,0,0,0,.2-2.088,3.521,3.521,0,0,0-3.45-1.764Z" fill="#004990"/>
        </g>
        <g id="Group_102" data-name="Group 102">
          <g id="Group_99" data-name="Group 99">
            <g id="Group_98" data-name="Group 98">
              <path id="Path_512" data-name="Path 512" d="M1762.113,272.048a.3.3,0,0,1-.235-.086l-5.259-5.166a.3.3,0,0,1,0-.427l1.625-1.645a.3.3,0,0,1,.426,0l5.259,5.166a.3.3,0,0,1,.091.212.3.3,0,0,1-.088.215l-1.626,1.645A.3.3,0,0,1,1762.113,272.048Z" fill="#fff"/>
              <path id="Path_513" data-name="Path 513" d="M1758.455,264.937l5.26,5.165-1.626,1.645-5.259-5.166,1.625-1.644m-.048-.6a.606.606,0,0,0-.381.177l-1.625,1.645a.6.6,0,0,0,.006.855l5.259,5.165a.6.6,0,0,0,.852-.006l1.626-1.645a.607.607,0,0,0,.174-.429.6.6,0,0,0-.181-.426l-5.259-5.165a.6.6,0,0,0-.471-.171Z" fill="#004990"/>
            </g>
          </g>
          <g id="Group_101" data-name="Group 101">
            <g id="Group_100" data-name="Group 100">
              <path id="Path_514" data-name="Path 514" d="M1756.549,268.708a1.512,1.512,0,0,1-1.307-1.02,3.028,3.028,0,0,1,.841-3.5,3.477,3.477,0,0,1,2.176-1.1,2.3,2.3,0,0,1,2.26,1.07.786.786,0,0,1-.125.917,2.505,2.505,0,0,1-1.233.647,1.813,1.813,0,0,0-1.512,1.53,2.506,2.506,0,0,1-.631,1.241.742.742,0,0,1-.468.22Z" fill="#fff"/>
              <path id="Path_515" data-name="Path 515" d="M1758.283,263.383c1.388-.111,2.394.972,1.9,1.475-.718.726-1.5.41-2.24,1.163s-.419,1.528-1.138,2.255a.434.434,0,0,1-.277.131c-.826.066-2.166-2.046-.227-4.008a3.153,3.153,0,0,1,1.985-1.016m-.049-.6a3.775,3.775,0,0,0-2.365,1.193,3.319,3.319,0,0,0-.9,3.841,1.8,1.8,0,0,0,1.6,1.192,1.036,1.036,0,0,0,.659-.308,2.794,2.794,0,0,0,.709-1.375,1.524,1.524,0,0,1,1.3-1.317,2.81,2.81,0,0,0,1.366-.726,1.078,1.078,0,0,0,.183-1.257,2.618,2.618,0,0,0-2.558-1.243Z" fill="#004990"/>
            </g>
          </g>
        </g>
      </g>
      <g id="Group_110" data-name="Group 110">
        <g id="Group_104" data-name="Group 104">
          <path id="Path_516" data-name="Path 516" d="M1768.406,265.9a.75.75,0,0,1-.589-.214l-3.917-3.847a2.6,2.6,0,0,1-.3.368,1.184,1.184,0,0,1-.755.354,1.922,1.922,0,0,1-1.753-1.28,3.529,3.529,0,0,1,.929-4.01,3.927,3.927,0,0,1,2.46-1.238,2.735,2.735,0,0,1,2.707,1.331,1.237,1.237,0,0,1-.211,1.425,2.553,2.553,0,0,1-.393.328l3.919,3.848a.756.756,0,0,1,.009,1.069l-1.626,1.645A.759.759,0,0,1,1768.406,265.9Z" fill="#fff"/>
          <path id="Path_517" data-name="Path 517" d="M1764.539,256.79c1.389-.111,2.4.972,1.9,1.475a2.379,2.379,0,0,1-1.2.6l4.731,4.646-1.625,1.645-4.716-4.631a2.3,2.3,0,0,1-.571,1.16.43.43,0,0,1-.277.132c-.826.066-2.166-2.046-.227-4.008a3.153,3.153,0,0,1,1.984-1.016m-.12-1.5a4.625,4.625,0,0,0-2.937,1.46,4.265,4.265,0,0,0-1.077,4.858,2.655,2.655,0,0,0,2.5,1.713,1.944,1.944,0,0,0,1.022-.392l3.365,3.305a1.509,1.509,0,0,0,2.13-.016l1.625-1.645a1.508,1.508,0,0,0-.016-2.137l-3.354-3.294a1.986,1.986,0,0,0,.2-2.088,3.521,3.521,0,0,0-3.45-1.764Z" fill="#004990"/>
        </g>
        <g id="Group_109" data-name="Group 109">
          <g id="Group_106" data-name="Group 106">
            <g id="Group_105" data-name="Group 105">
              <path id="Path_518" data-name="Path 518" d="M1768.37,265.454a.3.3,0,0,1-.235-.086l-5.26-5.165a.3.3,0,0,1,0-.427l1.626-1.645a.3.3,0,0,1,.426,0l5.258,5.166a.3.3,0,0,1,.091.212.306.306,0,0,1-.088.215l-1.625,1.644A.294.294,0,0,1,1768.37,265.454Z" fill="#fff"/>
              <path id="Path_519" data-name="Path 519" d="M1764.712,258.343l5.259,5.166-1.625,1.644-5.259-5.165,1.625-1.645m-.048-.6a.6.6,0,0,0-.381.177l-1.626,1.645a.6.6,0,0,0,.007.855l5.259,5.165a.607.607,0,0,0,.472.171.6.6,0,0,0,.38-.178l1.625-1.644a.6.6,0,0,0-.006-.855l-5.259-5.165a.6.6,0,0,0-.471-.171Z" fill="#004990"/>
            </g>
          </g>
          <g id="Group_108" data-name="Group 108">
            <g id="Group_107" data-name="Group 107">
              <path id="Path_520" data-name="Path 520" d="M1762.806,262.114a1.509,1.509,0,0,1-1.307-1.019,3.027,3.027,0,0,1,.842-3.5,3.47,3.47,0,0,1,2.174-1.1,2.306,2.306,0,0,1,2.26,1.07.786.786,0,0,1-.123.917,2.513,2.513,0,0,1-1.233.647,1.812,1.812,0,0,0-1.513,1.531,2.507,2.507,0,0,1-.631,1.24.734.734,0,0,1-.468.219Z" fill="#fff"/>
              <path id="Path_521" data-name="Path 521" d="M1764.539,256.79c1.389-.111,2.4.972,1.9,1.475-.718.726-1.5.41-2.241,1.163s-.419,1.528-1.137,2.254a.43.43,0,0,1-.277.132c-.826.066-2.166-2.046-.227-4.008a3.153,3.153,0,0,1,1.984-1.016m-.048-.6a3.77,3.77,0,0,0-2.365,1.193,3.315,3.315,0,0,0-.9,3.84,1.8,1.8,0,0,0,1.6,1.193,1.036,1.036,0,0,0,.659-.308,2.8,2.8,0,0,0,.709-1.375,1.523,1.523,0,0,1,1.3-1.318,2.8,2.8,0,0,0,1.366-.725,1.076,1.076,0,0,0,.182-1.257,2.615,2.615,0,0,0-2.557-1.243Z" fill="#004990"/>
            </g>
          </g>
        </g>
      </g>
      <g id="Group_111" data-name="Group 111">
        <path id="Path_522" data-name="Path 522" d="M1679.946,472.828a.758.758,0,0,1-.4-.08l-18.071-9.138a.755.755,0,0,1-.337-1.006c.742-1.51,64.7-130.3,77.261-155.593a.75.75,0,0,1,.438-.381.729.729,0,0,1,.177-.035.75.75,0,0,1,.4.079l14.3,7.288a.754.754,0,0,1,.341.991l-73.485,157.442a.761.761,0,0,1-.437.394A.855.855,0,0,1,1679.946,472.828Z" fill="#fff"/>
        <path id="Path_523" data-name="Path 523" d="M1739.073,307.346l14.3,7.288-73.486,157.441-18.071-9.138c.756-1.538,66.853-134.637,77.259-155.591m-.121-1.5a1.537,1.537,0,0,0-.353.072,1.505,1.505,0,0,0-.877.761c-17.945,36.135-76.55,154.149-77.262,155.6a1.509,1.509,0,0,0,.674,2.012l18.07,9.138a1.508,1.508,0,0,0,2.048-.708l73.486-157.441a1.509,1.509,0,0,0-.682-1.982l-14.3-7.288a1.509,1.509,0,0,0-.806-.16Z" fill="#004990"/>
      </g>
      <g id="Group_112" data-name="Group 112">
        <path id="Path_524" data-name="Path 524" d="M1753.431,315.386a.754.754,0,0,1-.4-.08l-14.3-7.288a.753.753,0,0,1-.333-1.007l1.317-2.655c.114-.9.766-7.05-2.153-10.04a.755.755,0,0,1-.01-1.044l41.877-44.522a.755.755,0,0,1,1.3.489c0,.088.364,8.747,4.049,11.784a.754.754,0,0,1,.125,1.033c-.129.174-12.967,17.564-15.759,34.815a.753.753,0,0,1-.676.63c-.06.007-6.707.88-12.982,14.376l-1.435,3.076a.753.753,0,0,1-.438.394A.741.741,0,0,1,1753.431,315.386Z" fill="#00ff5f"/>
        <path id="Path_525" data-name="Path 525" d="M1779.978,249.267h.005m-.005,0s.327,9.045,4.323,12.339c0,0-13.044,17.5-15.9,35.144,0,0-7.012.645-13.6,14.809l-1.435,3.075-14.3-7.288c.889-1.791,1.374-2.766,1.374-2.766s1.1-7.262-2.345-10.791l41.876-44.522m-.116-1.5h-.005a1.506,1.506,0,0,0-.982.474L1737,292.755a1.509,1.509,0,0,0,.019,2.088c2.292,2.347,2.214,7.293,1.963,9.287l-1.263,2.545a1.508,1.508,0,0,0,.666,2.015l14.3,7.288a1.506,1.506,0,0,0,.8.16,1.508,1.508,0,0,0,1.247-.866l1.435-3.075c6.042-13,12.33-13.939,12.393-13.947a1.542,1.542,0,0,0,1.325-1.259c2.761-17.061,15.491-34.312,15.62-34.484a1.511,1.511,0,0,0-.25-2.066c-2.806-2.312-3.668-8.743-3.772-11.144,0-.05,0-.1-.005-.151a1.506,1.506,0,0,0-1.622-1.383Zm.236,3.008h0Z" fill="#004990"/>
      </g>
      <g id="Group_131" data-name="Group 131">
        <g id="Group_114" data-name="Group 114">
          <g id="Group_113" data-name="Group 113">
            <path id="Path_526" data-name="Path 526" d="M1685.424,460.97a.757.757,0,0,1-.395-.077l-17.681-8.77a.755.755,0,0,1-.34-1.013l.408-.814a.755.755,0,0,1,1.01-.338l17.681,8.771a.756.756,0,0,1,.339,1.015l-.408.812A.755.755,0,0,1,1685.424,460.97Z" fill="#bfbfbf"/>
            <path id="Path_527" data-name="Path 527" d="M1668.091,450.634l17.681,8.77-.408.814-17.681-8.771.408-.813m-.119-1.5a1.508,1.508,0,0,0-1.229.827l-.408.814a1.507,1.507,0,0,0,.678,2.028l17.681,8.77a1.506,1.506,0,0,0,2.018-.675l.408-.813a1.507,1.507,0,0,0-.678-2.028l-17.681-8.77a1.5,1.5,0,0,0-.789-.153Z" fill="#004990"/>
          </g>
        </g>
        <g id="Group_116" data-name="Group 116">
          <g id="Group_115" data-name="Group 115">
            <path id="Path_528" data-name="Path 528" d="M1688.932,453.662a.751.751,0,0,1-.394-.077l-17.682-8.771a.754.754,0,0,1-.339-1.014l.409-.813a.752.752,0,0,1,.614-.413.743.743,0,0,1,.394.077l17.681,8.77a.754.754,0,0,1,.339,1.015l-.408.812A.754.754,0,0,1,1688.932,453.662Z" fill="#bfbfbf"/>
            <path id="Path_529" data-name="Path 529" d="M1671.6,443.326l17.681,8.77-.408.814-17.682-8.771.409-.813m-.12-1.5a1.509,1.509,0,0,0-1.229.827l-.408.814a1.51,1.51,0,0,0,.678,2.028l17.681,8.77a1.507,1.507,0,0,0,2.019-.675l.408-.813a1.507,1.507,0,0,0-.678-2.028l-17.681-8.77a1.5,1.5,0,0,0-.79-.153Z" fill="#004990"/>
          </g>
        </g>
        <g id="Group_118" data-name="Group 118">
          <g id="Group_117" data-name="Group 117">
            <path id="Path_530" data-name="Path 530" d="M1754.08,316.238a.745.745,0,0,1-.4-.08l-15.688-7.986a.754.754,0,0,1-.327-1.018l.416-.808a.754.754,0,0,1,1.013-.327l15.687,7.986a.755.755,0,0,1,.328,1.018l-.417.809A.754.754,0,0,1,1754.08,316.238Z" fill="#bfbfbf"/>
            <path id="Path_531" data-name="Path 531" d="M1738.751,306.691l15.687,7.986-.417.809-15.687-7.986.417-.809m-.119-1.5a1.509,1.509,0,0,0-1.222.813l-.417.808a1.508,1.508,0,0,0,.657,2.036l15.686,7.986a1.508,1.508,0,0,0,2.026-.653l.417-.808a1.508,1.508,0,0,0-.657-2.036l-15.687-7.986a1.506,1.506,0,0,0-.8-.16Z" fill="#004990"/>
          </g>
        </g>
        <g id="Group_120" data-name="Group 120">
          <g id="Group_119" data-name="Group 119">
            <path id="Path_532" data-name="Path 532" d="M1740.774,343.92a.754.754,0,0,1-.4-.08l-15.687-7.986a.754.754,0,0,1-.328-1.018l.417-.809a.755.755,0,0,1,1.012-.327l15.687,7.986a.761.761,0,0,1,.375.441.747.747,0,0,1-.047.577l-.417.809A.751.751,0,0,1,1740.774,343.92Z" fill="#bfbfbf"/>
            <path id="Path_533" data-name="Path 533" d="M1725.445,334.373l15.687,7.986-.417.809-15.687-7.986.417-.809m-.119-1.5a1.509,1.509,0,0,0-1.222.812l-.417.809a1.508,1.508,0,0,0,.657,2.036l15.687,7.986a1.507,1.507,0,0,0,2.025-.653l.417-.809a1.509,1.509,0,0,0-.656-2.036l-15.688-7.985a1.487,1.487,0,0,0-.8-.16Z" fill="#004990"/>
          </g>
        </g>
        <g id="Group_122" data-name="Group 122">
          <g id="Group_121" data-name="Group 121">
            <path id="Path_534" data-name="Path 534" d="M1726.079,374.333a.748.748,0,0,1-.4-.08l-15.687-7.986a.755.755,0,0,1-.328-1.018l.417-.809a.751.751,0,0,1,1.012-.326l15.687,7.986a.752.752,0,0,1,.328,1.017l-.416.809A.752.752,0,0,1,1726.079,374.333Z" fill="#bfbfbf"/>
            <path id="Path_535" data-name="Path 535" d="M1710.749,364.786l15.687,7.986-.417.809-15.687-7.986.417-.809m-.119-1.5a1.507,1.507,0,0,0-1.222.813l-.417.808a1.508,1.508,0,0,0,.657,2.036l15.687,7.986a1.507,1.507,0,0,0,2.025-.653l.417-.808a1.509,1.509,0,0,0-.656-2.036l-15.687-7.986a1.511,1.511,0,0,0-.8-.16Z" fill="#004990"/>
          </g>
        </g>
        <g id="Group_124" data-name="Group 124">
          <g id="Group_123" data-name="Group 123">
            <path id="Path_536" data-name="Path 536" d="M1705.226,417.181a.758.758,0,0,1-.4-.08l-15.686-7.986a.756.756,0,0,1-.328-1.018l.417-.808a.752.752,0,0,1,1.013-.326l15.687,7.986a.756.756,0,0,1,.328,1.018l-.418.808A.755.755,0,0,1,1705.226,417.181Z" fill="#bfbfbf"/>
            <path id="Path_537" data-name="Path 537" d="M1689.9,407.634l15.687,7.986-.417.809-15.687-7.986.417-.809m-.119-1.5a1.509,1.509,0,0,0-1.222.813l-.417.809a1.507,1.507,0,0,0,.657,2.035l15.687,7.986a1.507,1.507,0,0,0,2.025-.653l.417-.808a1.508,1.508,0,0,0-.657-2.036l-15.687-7.986a1.506,1.506,0,0,0-.8-.16Z" fill="#004990"/>
          </g>
        </g>
        <g id="Group_126" data-name="Group 126">
          <g id="Group_125" data-name="Group 125">
            <path id="Path_538" data-name="Path 538" d="M1696.125,435.913a.755.755,0,0,1-.4-.08l-15.687-7.986a.753.753,0,0,1-.328-1.018l.417-.808a.753.753,0,0,1,.611-.407.745.745,0,0,1,.4.081l15.687,7.986a.752.752,0,0,1,.328,1.017l-.417.808A.751.751,0,0,1,1696.125,435.913Z" fill="#bfbfbf"/>
            <path id="Path_539" data-name="Path 539" d="M1680.8,426.366l15.687,7.986-.417.809-15.687-7.986.417-.809m-.119-1.5a1.51,1.51,0,0,0-1.222.813l-.417.809a1.507,1.507,0,0,0,.657,2.035l15.686,7.986a1.508,1.508,0,0,0,2.026-.653l.417-.808a1.508,1.508,0,0,0-.657-2.036l-15.687-7.986a1.506,1.506,0,0,0-.8-.16Z" fill="#004990"/>
          </g>
        </g>
        <g id="Group_128" data-name="Group 128">
          <g id="Group_127" data-name="Group 127">
            <path id="Path_540" data-name="Path 540" d="M1715.367,396.005a.757.757,0,0,1-.4-.081l-15.687-7.985a.754.754,0,0,1-.328-1.018l.417-.808a.753.753,0,0,1,1.012-.327l15.688,7.986a.754.754,0,0,1,.327,1.018l-.417.808A.753.753,0,0,1,1715.367,396.005Z" fill="#bfbfbf"/>
            <path id="Path_541" data-name="Path 541" d="M1700.037,386.458l15.687,7.986-.417.808-15.687-7.985.417-.809m-.119-1.5a1.508,1.508,0,0,0-1.221.812l-.417.809a1.509,1.509,0,0,0,.656,2.036l15.687,7.986a1.509,1.509,0,0,0,2.025-.653l.417-.809a1.509,1.509,0,0,0-.656-2.036l-15.687-7.986a1.5,1.5,0,0,0-.8-.159Z" fill="#004990"/>
          </g>
        </g>
        <g id="Group_130" data-name="Group 130">
          <g id="Group_129" data-name="Group 129">
            <path id="Path_542" data-name="Path 542" d="M1681.79,468.757a.751.751,0,0,1-.393-.076l-17.924-8.838a.755.755,0,0,1-.341-1.014l.409-.814a.755.755,0,0,1,1.008-.339l17.923,8.839a.754.754,0,0,1,.34,1.016l-.408.812A.754.754,0,0,1,1681.79,468.757Z" fill="#bfbfbf"/>
            <path id="Path_543" data-name="Path 543" d="M1664.215,458.353l17.924,8.839-.408.813-17.924-8.839.408-.813m-.119-1.5a1.508,1.508,0,0,0-1.229.828l-.408.813a1.508,1.508,0,0,0,.681,2.029l17.923,8.839a1.509,1.509,0,0,0,2.016-.676l.408-.814a1.508,1.508,0,0,0-.681-2.029L1664.882,457a1.5,1.5,0,0,0-.786-.151Z" fill="#004990"/>
          </g>
        </g>
      </g>
      <line id="Line_10" data-name="Line 10" x1="121.239" y2="245.426" transform="translate(1626.18 293.179)" fill="none" stroke="#004990" stroke-linecap="round" stroke-linejoin="round" stroke-width="0.905"/>
      <line id="Line_11" data-name="Line 11" x1="124.84" y2="254.483" transform="translate(1629.159 285.208)" fill="none" stroke="#004990" stroke-linecap="round" stroke-linejoin="round" stroke-width="0.905"/>
      <line id="Line_12" data-name="Line 12" x1="127.997" y2="262.609" transform="translate(1632.237 278.607)" fill="none" stroke="#004990" stroke-linecap="round" stroke-linejoin="round" stroke-width="0.905"/>
      <line id="Line_13" data-name="Line 13" x1="130.995" y2="270.777" transform="translate(1635.473 272.007)" fill="none" stroke="#004990" stroke-linecap="round" stroke-linejoin="round" stroke-width="0.905"/>
      <line id="Line_14" data-name="Line 14" x1="132.743" y2="276.682" transform="translate(1638.806 267.744)" fill="none" stroke="#004990" stroke-linecap="round" stroke-linejoin="round" stroke-width="0.905"/>
      <line id="Line_15" data-name="Line 15" x1="134.622" y2="284.473" transform="translate(1642.263 261.215)" fill="none" stroke="#004990" stroke-linecap="round" stroke-linejoin="round" stroke-width="0.905"/>
      <g id="Group_133" data-name="Group 133">
        <g id="Group_132" data-name="Group 132">
          <path id="Path_544" data-name="Path 544" d="M1770.711,268.568a2.992,2.992,0,1,1,2.743-3.222A3,3,0,0,1,1770.711,268.568Z" fill="#fff"/>
          <path id="Path_545" data-name="Path 545" d="M1770.292,263.354a2.238,2.238,0,1,1-2.051,2.41,2.238,2.238,0,0,1,2.051-2.41m-.12-1.5a3.746,3.746,0,1,0,4.034,3.434,3.75,3.75,0,0,0-4.034-3.434Z" fill="#004990"/>
        </g>
      </g>
      <g id="Group_135" data-name="Group 135">
        <g id="Group_134" data-name="Group 134">
          <path id="Path_546" data-name="Path 546" d="M1764.476,275.168a2.992,2.992,0,1,1,2.744-3.222A3,3,0,0,1,1764.476,275.168Z" fill="#fff"/>
          <path id="Path_547" data-name="Path 547" d="M1764.058,269.955a2.238,2.238,0,1,1-2.052,2.41,2.238,2.238,0,0,1,2.052-2.41m-.121-1.5a3.747,3.747,0,1,0,4.034,3.435,3.75,3.75,0,0,0-4.034-3.435Z" fill="#004990"/>
        </g>
      </g>
      <g id="Group_137" data-name="Group 137">
        <g id="Group_136" data-name="Group 136">
          <path id="Path_548" data-name="Path 548" d="M1758.232,281.769a2.992,2.992,0,1,1,2.744-3.222A3,3,0,0,1,1758.232,281.769Z" fill="#fff"/>
          <path id="Path_549" data-name="Path 549" d="M1757.814,276.556a2.238,2.238,0,1,1-2.052,2.41,2.237,2.237,0,0,1,2.052-2.41m-.121-1.5a3.746,3.746,0,1,0,4.034,3.434,3.751,3.751,0,0,0-4.034-3.434Z" fill="#004990"/>
        </g>
      </g>
      <g id="Group_139" data-name="Group 139">
        <g id="Group_138" data-name="Group 138">
          <path id="Path_550" data-name="Path 550" d="M1752.008,288.369a2.992,2.992,0,1,1,2.743-3.222A3,3,0,0,1,1752.008,288.369Z" fill="#fff"/>
          <path id="Path_551" data-name="Path 551" d="M1751.589,283.156a2.238,2.238,0,1,1-2.052,2.41,2.238,2.238,0,0,1,2.052-2.41m-.121-1.5a3.747,3.747,0,1,0,4.035,3.435,3.751,3.751,0,0,0-4.035-3.435Z" fill="#004990"/>
        </g>
      </g>
      <g id="Group_141" data-name="Group 141">
        <g id="Group_140" data-name="Group 140">
          <path id="Path_552" data-name="Path 552" d="M1745.773,294.97a2.992,2.992,0,1,1,2.744-3.222A3,3,0,0,1,1745.773,294.97Z" fill="#fff"/>
          <path id="Path_553" data-name="Path 553" d="M1745.355,289.757a2.238,2.238,0,1,1-2.052,2.409,2.238,2.238,0,0,1,2.052-2.409m-.121-1.5a3.747,3.747,0,1,0,4.034,3.435,3.751,3.751,0,0,0-4.034-3.435Z" fill="#004990"/>
        </g>
      </g>
      <g id="Group_144" data-name="Group 144">
        <g id="Group_143" data-name="Group 143">
          <path id="Path_554" data-name="Path 554" d="M1644.712,549.464a.44.44,0,0,1-.239-.046l-23.053-11.569a.453.453,0,0,1-.2-.607l.564-1.125a.456.456,0,0,1,.261-.226.507.507,0,0,1,.107-.021.442.442,0,0,1,.239.046l23.054,11.57a.453.453,0,0,1,.2.607l-.565,1.124A.45.45,0,0,1,1644.712,549.464Z" fill="#fff"/>
          <g id="Group_142" data-name="Group 142">
            <path id="Path_555" data-name="Path 555" d="M1622.188,536.321l23.052,11.569-.564,1.124-23.052-11.57.564-1.123m-.072-.9a.9.9,0,0,0-.737.5l-.564,1.123a.906.906,0,0,0,.4,1.215l23.052,11.57a.908.908,0,0,0,.479.093.921.921,0,0,0,.212-.043.9.9,0,0,0,.524-.453l.564-1.124a.906.906,0,0,0-.4-1.215l-23.052-11.569a.9.9,0,0,0-.478-.094Z" fill="#004990"/>
          </g>
        </g>
      </g>
      <g id="Group_146" data-name="Group 146">
        <g id="Group_145" data-name="Group 145">
          <path id="Path_556" data-name="Path 556" d="M1637.253,501.75a1.145,1.145,0,1,1,1.05-1.233A1.145,1.145,0,0,1,1637.253,501.75Z" fill="#fdee02"/>
          <path id="Path_557" data-name="Path 557" d="M1637.106,499.917a.693.693,0,1,1-.636.747.694.694,0,0,1,.636-.747m-.073-.9a1.6,1.6,0,1,0,1.721,1.465,1.6,1.6,0,0,0-1.721-1.465Z" fill="#004990"/>
        </g>
      </g>
      <g id="Group_148" data-name="Group 148">
        <g id="Group_147" data-name="Group 147">
          <path id="Path_558" data-name="Path 558" d="M1652.709,471.483a1.145,1.145,0,1,1,1.05-1.233A1.145,1.145,0,0,1,1652.709,471.483Z" fill="#fff"/>
          <path id="Path_559" data-name="Path 559" d="M1652.562,469.651a.693.693,0,1,1-.636.746.693.693,0,0,1,.636-.746m-.073-.9a1.6,1.6,0,1,0,1.721,1.465,1.6,1.6,0,0,0-1.721-1.465Z" fill="#004990"/>
        </g>
      </g>
      <g id="Group_150" data-name="Group 150">
        <g id="Group_149" data-name="Group 149">
          <path id="Path_560" data-name="Path 560" d="M1664.935,515.574a1.146,1.146,0,1,1,1.049-1.234A1.148,1.148,0,0,1,1664.935,515.574Z" fill="#fff"/>
          <path id="Path_561" data-name="Path 561" d="M1664.787,513.74a.694.694,0,1,1-.636.747.693.693,0,0,1,.636-.747m-.073-.9a1.6,1.6,0,1,0,1.722,1.466,1.6,1.6,0,0,0-1.722-1.466Z" fill="#004990"/>
        </g>
      </g>
      <g id="Group_152" data-name="Group 152">
        <g id="Group_151" data-name="Group 151">
          <path id="Path_562" data-name="Path 562" d="M1679.248,484.639a1.146,1.146,0,1,1,1.05-1.234A1.146,1.146,0,0,1,1679.248,484.639Z" fill="#fff"/>
          <path id="Path_563" data-name="Path 563" d="M1679.1,482.806a.693.693,0,1,1-.636.747.694.694,0,0,1,.636-.747m-.072-.9a1.6,1.6,0,1,0,1.721,1.466,1.6,1.6,0,0,0-1.721-1.466Z" fill="#004990"/>
        </g>
      </g>
      <g id="Group_154" data-name="Group 154">
        <g id="Group_153" data-name="Group 153">
          <path id="Path_564" data-name="Path 564" d="M1630.172,523.724a1.146,1.146,0,1,1,1.05-1.234A1.145,1.145,0,0,1,1630.172,523.724Z" fill="#fdee02"/>
          <path id="Path_565" data-name="Path 565" d="M1630.025,521.891a.693.693,0,1,1-.636.746.693.693,0,0,1,.636-.746m-.072-.9a1.6,1.6,0,1,0,1.721,1.466,1.6,1.6,0,0,0-1.721-1.466Z" fill="#004990"/>
        </g>
      </g>
      <g id="Group_156" data-name="Group 156">
        <g id="Group_155" data-name="Group 155">
          <path id="Path_566" data-name="Path 566" d="M1655.294,532.788a1.146,1.146,0,1,1,1.05-1.234A1.146,1.146,0,0,1,1655.294,532.788Z" fill="#fff"/>
          <path id="Path_567" data-name="Path 567" d="M1655.148,530.955a.693.693,0,1,1-.636.746.693.693,0,0,1,.636-.746m-.073-.9a1.6,1.6,0,1,0,1.721,1.466,1.6,1.6,0,0,0-1.721-1.466Z" fill="#004990"/>
        </g>
      </g>
      <line id="Line_16" data-name="Line 16" y1="65.969" x2="66.658" transform="translate(1547.132 497.669)" fill="none" stroke="#004990" stroke-linecap="round" stroke-linejoin="round" stroke-width="0.905"/>
      <path id="Path_568" data-name="Path 568" d="M1538.906,571.677c-1.648.954-1.725,5.108,1.575,4.268,2.867-.73,33.9-14.631,44.031-17.334" fill="none" stroke="#004990" stroke-linecap="round" stroke-linejoin="round" stroke-width="0.905"/>
      <path id="Path_569" data-name="Path 569" d="M1636.533,561.335c12.911,18.951,35.986,80.619,35.986,80.619" fill="none" stroke="#004990" stroke-linecap="round" stroke-linejoin="round" stroke-width="0.905"/>
      <line id="Line_17" data-name="Line 17" y1="27.59" x2="26.158" transform="translate(1634.592 449.682)" fill="none" stroke="#004990" stroke-linecap="round" stroke-linejoin="round" stroke-width="0.905"/>
      <path id="Path_570" data-name="Path 570" d="M1533.231,570.751a5.746,5.746,0,0,0,.562,6.179c.258.321.573.7.457,1.091-.147.5-.842.562-1.346.424a4.221,4.221,0,0,1-3.014-3.823" fill="none" stroke="#004990" stroke-linecap="round" stroke-linejoin="round" stroke-width="1.064"/>
      <path id="Path_571" data-name="Path 571" d="M1667.373,641.622a3.61,3.61,0,0,0,4.365.183,10.563,10.563,0,0,0,3.068-3.532,20,20,0,0,1-1.561,6.857.937.937,0,0,1-.322.461c-.288.179-.658.014-.954-.15l-2.949-1.638a1.407,1.407,0,0,0,1.441.911" fill="none" stroke="#004990" stroke-linecap="round" stroke-linejoin="round" stroke-width="1.064"/>
      <path id="Path_572" data-name="Path 572" d="M1682.993,532.7a235.4,235.4,0,0,1-2.436,30.164" fill="none" stroke="#004990" stroke-linecap="round" stroke-linejoin="round" stroke-width="1.064"/>
      <path id="Path_573" data-name="Path 573" d="M1680.826,567.3" fill="none" stroke="#004990" stroke-linecap="round" stroke-linejoin="round" stroke-width="1.064"/>
      <path id="Path_574" data-name="Path 574" d="M1680.274,575.794q-3.375,23.8-5.726,47.723" fill="none" stroke="#004990" stroke-linecap="round" stroke-linejoin="round" stroke-width="1.064"/>
      <path id="Path_575" data-name="Path 575" d="M1632.094,479.327" fill="none" stroke="#004990" stroke-linecap="round" stroke-linejoin="round" stroke-width="1.064"/>
      <path id="Path_576" data-name="Path 576" d="M1642.01,486.839q-5.312,3.324-10.848,6.272" fill="none" stroke="#004990" stroke-linecap="round" stroke-linejoin="round" stroke-width="1.064"/>
      <path id="Path_577" data-name="Path 577" d="M1628.077,494.585" fill="none" stroke="#004990" stroke-linecap="round" stroke-linejoin="round" stroke-width="1.064"/>
      <path id="Path_578" data-name="Path 578" d="M1626.3,497.041a9.4,9.4,0,0,0-3.584,2.018,20.127,20.127,0,0,1,6.915,3.141" fill="none" stroke="#004990" stroke-linecap="round" stroke-linejoin="round" stroke-width="1.064"/>
      <path id="Path_579" data-name="Path 579" d="M1672.053,509.049a25.243,25.243,0,0,1,7.857,3.17q-5.21,2.991-10.645,5.564" fill="none" stroke="#004990" stroke-linecap="round" stroke-linejoin="round" stroke-width="1.064"/>
      <path id="Path_580" data-name="Path 580" d="M1668.108,518.916" fill="none" stroke="#004990" stroke-linecap="round" stroke-linejoin="round" stroke-width="1.064"/>
      <path id="Path_581" data-name="Path 581" d="M1656.3,457.169a317.156,317.156,0,0,0-27.845,27.285" fill="none" stroke="#fff" stroke-linecap="round" stroke-linejoin="round" stroke-width="4.06"/>
      <path id="Path_582" data-name="Path 582" d="M1622.02,490.043" fill="none" stroke="#fff" stroke-linecap="round" stroke-linejoin="round" stroke-width="1.064"/>
      <path id="Path_583" data-name="Path 583" d="M1539.729,570.458q36.5-33.228,70.814-68.76" fill="none" stroke="#fff" stroke-linecap="round" stroke-linejoin="round" stroke-width="4.06"/>
    </g>
    <path id="Path_584" data-name="Path 584" d="M1825.819,448.349a1.466,1.466,0,0,1,1,1.983l-2.612,6.317,19.95,7.316a1.466,1.466,0,0,1-.5,2.843l-30.85.065a1.4,1.4,0,0,1-.355-.043,1.466,1.466,0,0,1-1.045-1.866l2.142-6.747-22.351-3.8c-.038-.006-.073-.014-.108-.023a1.466,1.466,0,0,1,.215-2.883l34.023-3.2A1.459,1.459,0,0,1,1825.819,448.349Z" transform="translate(-57.803 -40.322)" fill="#fff" stroke="#004990" stroke-miterlimit="10" stroke-width="2.4"/>
    <path id="Path_585" data-name="Path 585" d="M1786.487,465.164a1.363,1.363,0,0,1,.276.1l30.889,14.624a1.466,1.466,0,0,1,.251,2.5l-5.472,4.1,13.414,16.48a1.467,1.467,0,0,1-1.49,2.35,1.437,1.437,0,0,1-.394-.162l-26.555-15.7a1.466,1.466,0,0,1-.229-2.358l5.287-4.706-17.277-14.68a1.467,1.467,0,0,1,1.3-2.542Z" transform="translate(-57.803 -40.322)" fill="#fff" stroke="#004990" stroke-miterlimit="10" stroke-width="2.4"/>
    <path id="Path_586" data-name="Path 586" d="M1773.8,474.307a1.462,1.462,0,0,1,.885.637l18.35,28.83a1.466,1.466,0,0,1-1.119,2.248l-6.813.553,2.572,21.092a1.466,1.466,0,0,1-2.759.848l-14.11-27.434a1.466,1.466,0,0,1,1.063-2.116l6.981-1.167-6.8-21.628a1.465,1.465,0,0,1,1.75-1.863Z" transform="translate(-57.803 -40.322)" fill="#fff" stroke="#004990" stroke-miterlimit="10" stroke-width="2.4"/>
    <g id="Group_159" data-name="Group 159">
      <g id="Group_158" data-name="Group 158">
        <path id="Path_587" data-name="Path 587" d="M1577.627,491.018a2.01,2.01,0,0,1-1.059,1.058l-43.14,18.459a2.013,2.013,0,0,1-2.8-2.015l.764-9.355-29.15-1.2a2.013,2.013,0,0,1-.535-3.927l40.305-13.024a2.013,2.013,0,0,1,2.632,1.91l.03,9.719,30.815-4.411a2.013,2.013,0,0,1,2.136,2.786Z" fill="#ff4398" stroke="#004990" stroke-miterlimit="10" stroke-width="2.4"/>
      </g>
    </g>
  </g>
</svg>
