<svg xmlns="http://www.w3.org/2000/svg" xmlns:xlink="http://www.w3.org/1999/xlink" width="1920" height="1080" viewBox="0 0 1920 1080">
  <defs>
    <clipPath id="clip-path">
      <rect id="Rectangle_155" data-name="Rectangle 155" width="1920" height="1080"/>
    </clipPath>
    <clipPath id="clip-path-2">
      <rect id="Rectangle_148" data-name="Rectangle 148" width="1920" height="1087.86" transform="translate(2649.724 690.443)" fill="none"/>
    </clipPath>
  </defs>
  <g id="bg-kv-banner-text" clip-path="url(#clip-path)">
    <g id="bg-kv-banner-text-2" data-name="bg-kv-banner-text" clip-path="url(#clip-path)">
      <g id="Group_1350" data-name="Group 1350" transform="translate(0 -120.926)">
        <g id="topbanner" transform="translate(-2649.724 -605.517)">
          <g id="Group_1175" data-name="Group 1175" clip-path="url(#clip-path-2)">
            <path id="Path_1061" data-name="Path 1061" d="M4029.76,661.149H2617.21V2146.58H4607.48V661.149Z" fill="none"/>
            <rect id="Rectangle_147" data-name="Rectangle 147" width="2012.46" height="1109.24" transform="translate(2640.532 669.061)" fill="none"/>
            <g id="Group_1166" data-name="Group 1166">
              <g id="Group_1163" data-name="Group 1163">
                <g id="Group_1161" data-name="Group 1161">
                  <path id="Path_1136" data-name="Path 1136" d="M4260.83,1053.13c-.325.8-.662,1.556-.994,2.275h6.39l-2.042,13.053h-2.535l.185-1.2h-8.825l-.186,1.2h-2.417l2.042-13.053h4.872c.253-.719.493-1.5.714-2.275h-7.228l.362-2.316h17.551l-.362,2.316Zm1.348,11.936.422-2.7h-8.826l-.422,2.7Zm1.168-7.467h-8.825l-.41,2.616h8.825Z" fill="#fff"/>
                  <path id="Path_1137" data-name="Path 1137" d="M4287.23,1062.91h-2.075l-.544,3.474h-2.417l.128-.819h-3.6l-.1.618c-.184,1.178-.538,1.658-1.369,2a11.065,11.065,0,0,1-3.588.337,6.361,6.361,0,0,0-.485-1.875c.953.041,2.13.041,2.45.041.382-.022.521-.141.577-.5l.1-.618h-6.071l.269-1.717h6.071l.146-.938h-7.907l.284-1.814h7.908l.134-.86h-5.911l.249-1.6h5.911l.138-.878h-5.412l.618-3.952h5.411l.128-.818h-7.448l.294-1.875h7.448l.2-1.3h2.414l-.2,1.3h7.627l-.293,1.875h-7.628l-.128.818h5.671l-.617,3.952h-5.671l-.138.878h6.011l-.383,2.456h2.076Zm-9.462-6.645.149-.958h-3.134l-.15.958Zm4.971,6.645h-3.6l-.148.938h3.6Zm-3.311-1.814h3.594l.135-.86h-3.6Zm.9-5.789-.149.958h3.234l.15-.958Z" fill="#fff"/>
                  <path id="Path_1138" data-name="Path 1138" d="M4308.45,1053.55h-2.3l-1.86,11.9c-.226,1.436-.672,2.134-1.675,2.534a14.169,14.169,0,0,1-4.582.44,9.465,9.465,0,0,0-.584-2.516c1.4.081,3.146.06,3.625.06.46,0,.661-.14.726-.558l1.855-11.855h-13.2l.373-2.4h17.99Zm-15.4,9.958-.238,1.517H4290.5l1.445-9.241h8.468l-1.209,7.724Zm.855-5.468-.5,3.2h3.793l.5-3.2Z" fill="#fff"/>
                  <path id="Path_1139" data-name="Path 1139" d="M4320.63,1062.73a20.9,20.9,0,0,0,6.307,3.211,11.463,11.463,0,0,0-1.88,1.937,20.2,20.2,0,0,1-6.028-3.972l-.7,4.489h-2.377l.7-4.469a25.162,25.162,0,0,1-7.36,4.031,9.051,9.051,0,0,0-1.271-1.955,24.124,24.124,0,0,0,7.32-3.272h-6.411l.307-1.957h7.908l.153-.979h2.377l-.153.979h7.727l-.307,1.957Zm-6.729-2.676a9.253,9.253,0,0,0,.026-.938,17.161,17.161,0,0,0-3.946.719,17.454,17.454,0,0,0-.339-1.8,3.427,3.427,0,0,0,1.464-1.057c.216-.221.695-.739,1.278-1.4a6.381,6.381,0,0,0-1.733.359,15.556,15.556,0,0,0-.345-1.756,2.109,2.109,0,0,0,.96-.779,19.6,19.6,0,0,0,2.155-3.571l1.737.637a24.913,24.913,0,0,1-2.423,3.494l1.015-.1c.428-.579.868-1.218,1.245-1.837l1.523.979a36.5,36.5,0,0,1-4.2,4.77l1.581-.159c-.011-.44-.025-.86-.064-1.239l1.551-.358a27.3,27.3,0,0,1,.148,3.651Zm7.413-.679H4315.7l1.225-7.825h1.6a13.429,13.429,0,0,0,.632-1.875l2.1.36-.876,1.515h2.156Zm-1.6-3.133h-1.5l-.219,1.4h1.5Zm.462-2.954h-1.5l-.209,1.338h1.5Zm5.765,6.926q.028-.428.013-.858c-3.023.318-3.628.479-3.973.638a12.189,12.189,0,0,0-.312-1.837,3.983,3.983,0,0,0,1.428-1.077c.237-.239.736-.758,1.306-1.457a5.781,5.781,0,0,0-1.945.438,17.443,17.443,0,0,0-.318-1.794,2.057,2.057,0,0,0,.925-.818,18.391,18.391,0,0,0,2.144-3.613l1.79.558a24.871,24.871,0,0,1-2.416,3.573l1.25-.082c.385-.557.8-1.155,1.165-1.714l1.5,1a38.634,38.634,0,0,1-4.223,4.792l1.6-.141a11.378,11.378,0,0,0-.1-1.179l1.539-.378a30.217,30.217,0,0,1,.285,3.532Z" fill="#fff"/>
                  <path id="Path_1140" data-name="Path 1140" d="M4337.77,1050.72a38.9,38.9,0,0,1-2.429,3.673l-2.2,14.03h-2.476l1.64-10.479a23.518,23.518,0,0,1-2.428,2.236,12.6,12.6,0,0,0-.94-2.415,26.086,26.086,0,0,0,6.669-7.784Zm4.342,7.224c-.134,4.431.463,7.385,2.028,7.585.453.039.848-.96,1.354-3.175a6.535,6.535,0,0,0,1.725,1.357c-1.1,3.852-2.322,4.772-3.432,4.712-3.323-.32-4.315-4.071-4.081-10.16l-4.018.539.02-2.3,4.117-.539c.141-1.8.329-3.751.594-5.847h2.417c-.266,1.956-.48,3.832-.6,5.53l5.806-.741-.011,2.236Zm4.127-3.531a13.589,13.589,0,0,0-2.212-3.355l1.949-1.1a14.355,14.355,0,0,1,2.374,3.213Z" fill="#fff"/>
                  <path id="Path_1141" data-name="Path 1141" d="M4368.56,1052.52l-.312,2h-18.111l.312-2h8.207a11.446,11.446,0,0,0-.951-2.214l2.491-.6a10.629,10.629,0,0,1,1.255,2.815Zm-17.064,9.521h13.139l-1,6.364h-2.457l.1-.637h-8.348l-.108.7h-2.337Zm.75-3.253h12.68l-.291,1.855h-12.679Zm12.872-1.238h-12.679l.29-1.857h12.68Zm-11.594,6.466-.28,1.8h8.346l.28-1.8Z" fill="#fff"/>
                  <path id="Path_1142" data-name="Path 1142" d="M4381.03,1049.84c-.151.838-.359,1.915-.626,3.112-.141,2.7-.1,10.218,6.386,13.293a7.976,7.976,0,0,0-2.056,2.056c-4.1-2.117-5.711-6.007-6.332-9.441a20.287,20.287,0,0,1-8.845,9.561,6.056,6.056,0,0,0-1.672-1.937c8.784-4.33,9.8-13.272,10.409-16.644Z" fill="#fff"/>
                </g>
                <g id="Group_1162" data-name="Group 1162">
                  <path id="Path_1143" data-name="Path 1143" d="M4245.94,1083.35c.76-4.871,4.362-7.726,8.295-7.726a5.281,5.281,0,0,1,4.277,1.9l-1.873,1.877a3.289,3.289,0,0,0-2.7-1.238c-2.456,0-4.474,1.917-4.97,5.089-.5,3.214.674,5.149,3.568,5.149a3.378,3.378,0,0,0,1.943-.557l.457-2.916h-2.616l.377-2.413h5.251l-1.042,6.665a8.046,8.046,0,0,1-5.069,1.776C4247.81,1090.95,4245.17,1088.28,4245.94,1083.35Z" fill="#fff"/>
                  <path id="Path_1144" data-name="Path 1144" d="M4259.7,1089.04a2.226,2.226,0,0,1,2.118-1.916,1.538,1.538,0,0,1,1.538,1.916,2.227,2.227,0,0,1-2.136,1.916,1.537,1.537,0,0,1-1.519-1.916Z" fill="#fff"/>
                  <path id="Path_1145" data-name="Path 1145" d="M4268.64,1075.91h9.065l-.383,2.454h-6.111l-.534,3.413h5.193l-.387,2.476h-5.193l-.619,3.951H4276l-.387,2.475h-9.284Z" fill="#fff"/>
                  <path id="Path_1146" data-name="Path 1146" d="M4278.46,1089.04a2.222,2.222,0,0,1,2.116-1.916,1.539,1.539,0,0,1,1.539,1.916,2.229,2.229,0,0,1-2.138,1.916,1.535,1.535,0,0,1-1.517-1.916Z" fill="#fff"/>
                  <path id="Path_1147" data-name="Path 1147" d="M4287.4,1075.91h3.275l1.435,6.905c.176.918.3,1.9.452,2.855h.1c.47-.958.883-1.937,1.346-2.855l3.537-6.905h3.274l-2.31,14.769h-2.7l.964-6.167c.219-1.4.76-3.454,1.117-4.85h-.08l-1.741,3.472-3.246,6.207h-1.7l-1.326-6.207-.632-3.472h-.083c-.076,1.4-.159,3.452-.378,4.85l-.965,6.167H4285.1Z" fill="#fff"/>
                  <path id="Path_1148" data-name="Path 1148" d="M4302,1089.04a2.222,2.222,0,0,1,2.116-1.916,1.54,1.54,0,0,1,1.54,1.916,2.23,2.23,0,0,1-2.138,1.916,1.535,1.535,0,0,1-1.517-1.916Z" fill="#fff"/>
                  <path id="Path_1149" data-name="Path 1149" d="M4328.5,1075.35c-.916,1.9-2.079,4.23-3.024,5.928a6.241,6.241,0,0,1,1.015,4.63,3.9,3.9,0,0,1-1.453,2.894,3.256,3.256,0,0,1-1.332.478,6.907,6.907,0,0,1-1.464.04,4.824,4.824,0,0,0-.219-2.174c.416.02.755.02,1.015.02a1.177,1.177,0,0,0,.691-.2c.35-.2.524-.679.627-1.336a5.417,5.417,0,0,0-1.055-4.092c.718-1.418,1.573-3.432,2.23-4.949h-2.036l-2.431,15.547h-2.218l2.163-13.831c-.488.318-.958.639-1.421.917.254.679.473,1.318.629,1.856l-1.492.86-.712,4.55h-2.257l1.972.54c-.329.7-.661,1.415-.963,2.072l1.99-.217-.257,1.776c-3.6.418-7.455.818-10.137,1.117l.033-1.876c.727-.059,1.616-.119,2.549-.22a10.465,10.465,0,0,0-.363-2.652l1.981-.54a8.853,8.853,0,0,1,.52,2.674l-1.652.479c1.014-.1,2.068-.2,3.165-.32.36-.9.749-1.976,1-2.833h-5.273l.705-4.511c-.361.279-.76.52-1.115.759a5.857,5.857,0,0,0-1.037-1.539,11.781,11.781,0,0,0,2.33-1.756,9.8,9.8,0,0,0-1.175-1.037l1.356-1.517c.378.259.826.58,1.2.88a12.135,12.135,0,0,0,.806-1.319h-2.557l.3-1.936h3.414l.351-.079,1.053.539,1.545-.8.494,1.177c.453-.359.916-.759,1.245-1.078l1.049,1.336c-.563.42-1.149.839-1.665,1.2l.325.857c.43-.319.84-.639,1.139-.9l.987,1.1.536-3.434h5.052l.357-.1Zm-15.22,4.371a13.823,13.823,0,0,1-1.791,1.875h6.629a20.441,20.441,0,0,0-.711-2.214l-.184,1.177h-4.074Zm3.055,3.571h-3.453l-.234,1.5h3.453Zm.832-4.55c-.438-1.157-.887-2.373-1.321-3.431a19.073,19.073,0,0,1-1.833,3.431Z" fill="#fff"/>
                  <path id="Path_1150" data-name="Path 1150" d="M4334.27,1089.2a22.683,22.683,0,0,1-5.057,2.834,14.537,14.537,0,0,0-1.548-1.457,17.831,17.831,0,0,0,4.618-2.2Zm8.434-5.168a20.565,20.565,0,0,1,3.519,4.071l-2.263.917a10.266,10.266,0,0,0-1.063-1.616l-4.385.339-.382,2.436a2.008,2.008,0,0,1-1.377,1.915,10.274,10.274,0,0,1-3.285.319,7.594,7.594,0,0,0-.5-2.037c.911.042,2.05.022,2.33.022.3,0,.41-.061.448-.3l.34-2.176c-4.748.358-5.626.479-6.306.74a16.453,16.453,0,0,0-.3-2.036,12.087,12.087,0,0,0,2.862-.8c.589-.2,1.712-.618,3.058-1.177a20.081,20.081,0,0,0-4.278.539c-.04-.38-.166-1.357-.284-1.875a9.455,9.455,0,0,0,1.754-.5,31,31,0,0,0,4.284-1.976c-2.842.42-5.7.818-7.82,1.1l.132-2.118,1.257-.12.7-4.449h2.1l-.659,4.21,1.26-.139.865-5.527h2.276l-.28,1.8h2.4l-.294,1.877h-2.4l-.249,1.6,2.54-.279-.248,1.836-.551.079,1.072,1.058c-.828.439-1.706.818-2.584,1.2l3.028-.2c.718-.38,1.462-.8,2.17-1.238l1.18,1.636a50.829,50.829,0,0,1-6.5,2.994l5.3-.32a9.263,9.263,0,0,0-.906-.976Zm-.866-2.755c-2.4,0-2.9-.619-2.576-2.676l.752-4.808h2.355l-.387,2.473a27.388,27.388,0,0,0,4.207-1.5l1.472,1.7a38.378,38.378,0,0,1-5.977,1.715l-.067.419c-.1.641.027.719.847.719h2.376c.637,0,.817-.239,1.1-1.517a4.861,4.861,0,0,0,1.918.76c-.592,2.134-1.323,2.714-3.08,2.714Zm-.564,6.925a39.975,39.975,0,0,1,4.179,2.515l-2.146,1.218a29.712,29.712,0,0,0-4.111-2.695Z" fill="#fff"/>
                  <path id="Path_1151" data-name="Path 1151" d="M4354.04,1085.57a16.251,16.251,0,0,0-.617-2.176l-1.411,9.022h-2.257l1.174-7.505a20.519,20.519,0,0,1-2.374,3.932,11.761,11.761,0,0,0-.781-2.394,24.2,24.2,0,0,0,3.873-6.767h-2.375l.342-2.195h2.476l.581-3.712h2.257l-.581,3.712h2.1l-.343,2.195H4354l-.091.579c.5.78,1.624,3.014,1.88,3.553Zm9.022,2.195a21.832,21.832,0,0,1,3.035,3.313l-2.069,1.358a20.945,20.945,0,0,0-2.959-3.552l1.834-1.119h-4.614l1.482,1a17.212,17.212,0,0,1-4.561,3.75,7.156,7.156,0,0,0-1.259-1.654,14.8,14.8,0,0,0,3.939-3.1h-3.1l.331-2.114h2.036l1.12-7.166h-1.616l.332-2.114h1.616l.4-2.6h2.237l-.4,2.6h3.235l.4-2.6h2.275l-.4,2.6h1.718l-.332,2.114h-1.718l-1.12,7.166h1.917l-.33,2.114Zm-3.663-2.114h3.235l.187-1.2h-3.234Zm.472-3.014h3.234l.184-1.178h-3.234Zm.648-4.152-.18,1.158h3.234l.181-1.158Z" fill="#fff"/>
                </g>
              </g>
              <g id="Group_1165" data-name="Group 1165">
                <g id="Group_1164" data-name="Group 1164">
                  <path id="Path_1152" data-name="Path 1152" d="M4374.93,1153.12a1.239,1.239,0,0,0-.231.12.527.527,0,0,1-.722.047.844.844,0,0,1-.273-.956,1.34,1.34,0,0,1,.315-.414c.224-.211.455-.167.659.1.079.1.168.194.252.291Z" fill="#fff" stroke="#fff" stroke-miterlimit="10" stroke-width="0.104"/>
                  <path id="Path_1153" data-name="Path 1153" d="M4276.19,1131.22a4.9,4.9,0,0,0-2.607,1.077,21.288,21.288,0,0,0-1.643,1.619c-.939,1.1-1.866,2.215-2.71,3.393-.106.147-.207.3-.305.449-.834,1.293-1.689,2.573-2.5,3.883-.759,1.233-1.564,2.435-2.347,3.652a41.292,41.292,0,0,0-2.391,4.1c-.678,1.38-1.431,2.722-2.134,4.09-.454.885-.914,1.77-1.309,2.683-.88,2.034-1.747,4.075-2.569,6.132q-.9,2.268-1.676,4.588c-.387,1.156-.675,2.346-1,3.521-.061.218-.092.446-.17.657-.721,1.962-.966,4.043-1.5,6.051-.211.785-.341,1.592-.507,2.389a10.249,10.249,0,0,0-.344,2,1.785,1.785,0,0,1-.056.4,38.659,38.659,0,0,0-.655,4.426c-.066.539-.162,1.074-.24,1.611a4.735,4.735,0,0,0-.074.674,15,15,0,0,1-.2,2.021c-.125.892-.088,1.806-.129,2.712-.028.632-.071,1.264-.1,1.9a3.438,3.438,0,0,0-.009.54c.122,1.217.155,2.438.173,3.659a7.277,7.277,0,0,0,.212,1.6c.213.877.349,1.773.561,2.654a5.681,5.681,0,0,0,1.269,2.367,3.84,3.84,0,0,0,1.978,1.125,2.9,2.9,0,0,0,1.735.125,2.48,2.48,0,0,1,.675-.018,2.429,2.429,0,0,0,1.416-.4,1.008,1.008,0,0,1,.36-.187,8,8,0,0,0,2.057-1,20.013,20.013,0,0,0,3.682-2.529c.483-.41.982-.8,1.489-1.182a4.413,4.413,0,0,0,1.066-1.032,1.879,1.879,0,0,1,.374-.391,20.884,20.884,0,0,0,2.346-2.448c.18-.2.348-.419.539-.611,1.375-1.38,2.559-2.928,3.827-4.4,1.062-1.234,2.052-2.532,3.038-3.828.6-.791,1.162-1.617,1.7-2.454.734-1.141,1.522-2.245,2.193-3.429.355-.626.816-1.192,1.22-1.791.783-1.163,1.571-2.324,2.334-3.5.417-.645.786-1.321,1.178-1.982a3.272,3.272,0,0,1,.292-.457,34.41,34.41,0,0,0,2.456-3.737c.2-.3.414-.593.619-.891.437-.632.875-1.263,1.306-1.9q.456-.673.894-1.36c.145-.228.272-.468.406-.7s.259-.477.4-.706c.361-.573.745-1.134,1.094-1.715a10.511,10.511,0,0,1,.918-1.342,11.69,11.69,0,0,0,1.263-2.086,5.344,5.344,0,0,1,.439-.679.507.507,0,0,1,.9.391c-.081.353-.188.7-.265,1.053a1.887,1.887,0,0,0,.038,1.2.3.3,0,0,0,.2.149.285.285,0,0,0,.213-.111,1.083,1.083,0,0,0,.175-.365c.2-.834.512-1.638.67-2.488a17.186,17.186,0,0,1,.509-1.685c.256-.868.531-1.731.745-2.608a7.721,7.721,0,0,1,.664-1.916,2.665,2.665,0,0,0,.217-.5c.476-1.56,1.234-3.009,1.788-4.538a4.162,4.162,0,0,1,.319-.747c.566-.93.98-1.937,1.491-2.894.191-.359.4-.713.612-1.057a12.55,12.55,0,0,0,.778-1.424,6.077,6.077,0,0,1,1.846-2.314c.108-.083.221-.159.335-.232a1.129,1.129,0,0,1,1.757.613,5.573,5.573,0,0,1,.317,1.73c-.015,1.042.01,2.084-.027,3.125a14.662,14.662,0,0,1-.207,1.752c-.187,1.206-.373,2.414-.605,3.612-.2,1.019-.471,2.023-.7,3.037a3.231,3.231,0,0,0-.068.668.28.28,0,0,0,.143.2.292.292,0,0,0,.252,0,4.11,4.11,0,0,0,.587-.55,10.382,10.382,0,0,1,1.082-1.023,2.848,2.848,0,0,1,2.278-.624,3.869,3.869,0,0,1,1.445.325.5.5,0,0,0,.476-.193,8.244,8.244,0,0,0,.782-1.72,4.418,4.418,0,0,1,.33-.887,27.517,27.517,0,0,1,2.928-4.716,2.789,2.789,0,0,1,1.53-1.058.89.89,0,0,1,.771.166,2.757,2.757,0,0,1,1,1.416c.363,1.212.758,2.414,1.146,3.619a.593.593,0,0,0,.163.207.193.193,0,0,0,.123.052.131.131,0,0,0,.094-.055,1.726,1.726,0,0,0,.262-.9,25.814,25.814,0,0,1,1.108-5.3,14.153,14.153,0,0,1,1.346-2.953,3.362,3.362,0,0,1,1.935-1.612,1.16,1.16,0,0,1,1.038.047c.316.176.663.3.965.494a3.219,3.219,0,0,1,.833.683c.471.611.987,1.179,1.5,1.755.209.236.375.507.567.759.1.138.378.069.444-.111q.789-2.164,1.576-4.33c.092-.255.17-.517.279-.764.711-1.614,1.438-3.22,2.143-4.837a22.984,22.984,0,0,1,1.524-2.874,9.7,9.7,0,0,0,.736-1.3,10.57,10.57,0,0,1,1.325-2.2c.459-.616.875-1.264,1.316-1.893a18.722,18.722,0,0,1,2.014-2.555c.223-.223.413-.478.613-.722.087-.1.146-.233.241-.328,1.248-1.248,2.274-2.7,3.579-3.893a4.843,4.843,0,0,1,.4-.371,69.952,69.952,0,0,1,5.864-4.158,6.418,6.418,0,0,1,.6-.326,27.578,27.578,0,0,1,3.876-1.615,27.157,27.157,0,0,1,2.763-.674,5.984,5.984,0,0,1,2.675.289,3.562,3.562,0,0,1,1.176.661,6.572,6.572,0,0,1,2.065,2.46,16.041,16.041,0,0,1,1.184,4.026,21.493,21.493,0,0,1,.245,4.469c-.082,1.722-.352,3.421-.6,5.123-.281,1.975-.795,3.9-1.236,5.844a9.125,9.125,0,0,1-.26.914,24.576,24.576,0,0,0-1.113,4.457,4.93,4.93,0,0,1-.22.782c-.235.731-.444,1.467-.612,2.22-.187.835-.484,1.647-.745,2.464-.206.647-.427,1.288-.647,1.931-.145.427-.281.861-.455,1.277-.578,1.379-.983,2.816-1.463,4.229a86.806,86.806,0,0,1-2.937,8.169c-.713,1.563-1.248,3.2-2.082,4.715-.262.473-.406,1.012-.673,1.482-1.206,2.124-2.329,4.294-3.606,6.378-.518.848-.989,1.724-1.481,2.589-.089.157-.166.322-.262.474-.652,1.032-1.321,2.053-1.957,3.095-.377.617-.7,1.269-1.053,1.9a10.722,10.722,0,0,1-.58.916c-.945,1.329-1.813,2.706-2.666,4.095-.757,1.233-1.562,2.438-2.352,3.649q-1.521,2.329-3.054,4.652c-.149.227-.287.462-.448.68-1.613,2.186-3.191,4.4-4.858,6.542a42.747,42.747,0,0,1-3.012,3.673,1.221,1.221,0,0,0-.174.209,17.563,17.563,0,0,1-2.157,2.615,40.687,40.687,0,0,1-4.726,4.674c-.812.648-1.678,1.231-2.536,1.819a2.75,2.75,0,0,1-.754.3c-.317.1-.754-.338-.679-.66a1.174,1.174,0,0,1,.129-.382,3.091,3.091,0,0,0,.546-1.228,1.083,1.083,0,0,1,.188-.358.382.382,0,0,1,.577-.083c.094.1.152.236.258.308a.69.69,0,0,0,.363.1.471.471,0,0,0,.24-.118,23.747,23.747,0,0,0,3.192-2.734c.74-.8,1.5-1.568,2.251-2.357.218-.229.419-.474.62-.719.344-.419.668-.858,1.028-1.263.481-.543.923-1.112,1.355-1.7.538-.726,1.161-1.389,1.739-2.085a49.061,49.061,0,0,0,3.371-4.414,10.993,10.993,0,0,1,.809-1.089,34.376,34.376,0,0,0,2.955-4.224,23.562,23.562,0,0,1,1.739-2.586,9.809,9.809,0,0,0,.764-1.122,6.124,6.124,0,0,1,1-1.448.32.32,0,0,0,.085-.1c.412-.962,1.164-1.723,1.581-2.681a6.356,6.356,0,0,1,.944-1.485,12.244,12.244,0,0,0,1.125-1.692c.786-1.374,1.628-2.716,2.432-4.079.39-.662.744-1.347,1.121-2.017.177-.315.369-.622.559-.929a3.287,3.287,0,0,0,.3-.453,21.816,21.816,0,0,1,1.591-2.676,65.828,65.828,0,0,0,3.1-6.029,8.846,8.846,0,0,1,.471-.978,26.178,26.178,0,0,0,1.246-2.711c.393-.863.726-1.754,1.109-2.62.239-.538.376-1.108.618-1.648a20.165,20.165,0,0,0,1.142-3.188,2.377,2.377,0,0,0,.1-.254,21.554,21.554,0,0,1,1.372-4.247,16.557,16.557,0,0,0,1.018-3.368,1.661,1.661,0,0,1,.112-.389c.63-1.553,1.074-3.168,1.574-4.762.3-.947.478-1.93.719-2.9.22-.877.453-1.752.679-2.628.394-1.534.779-3.07,1.079-4.625.293-1.509.573-3.022.857-4.534a2.9,2.9,0,0,0,.05-.4q.057-1.831.1-3.663a2.644,2.644,0,0,1-.008-.271,13.782,13.782,0,0,0-.527-4.418c-.025-.133-.088-.258-.114-.391a6.216,6.216,0,0,0-2.329-3.562,2.45,2.45,0,0,0-1.217-.563,5.646,5.646,0,0,0-2.014-.07,27.363,27.363,0,0,0-3.058.612,5.71,5.71,0,0,0-.891.314,28.368,28.368,0,0,0-3.308,1.864c-.449.3-.91.591-1.37.875a26.453,26.453,0,0,0-2.938,2.19,32.281,32.281,0,0,0-4.089,3.967c-.525.621-1.067,1.23-1.568,1.871a45.277,45.277,0,0,0-4.052,5.773c-.33.592-.723,1.15-1.048,1.745a7.494,7.494,0,0,0-.988,2.075c-.646,1.094-1.067,2.3-1.624,3.429-.321.653-.556,1.335-.83,2-.446,1.087-.941,2.156-1.283,3.285-.3.994-.631,1.979-.894,2.987a10.808,10.808,0,0,0-.417,2.809,5.882,5.882,0,0,1-.262,1.739,1.874,1.874,0,0,1-.17.366.633.633,0,0,1-.591.243.558.558,0,0,1-.411-.314,1.406,1.406,0,0,1-.132-.925,13.449,13.449,0,0,1,.324-1.454,2.9,2.9,0,0,0-.053-1.593,9.047,9.047,0,0,0-2.206-3.685,4.589,4.589,0,0,0-1.166-.925,1.126,1.126,0,0,0-1.384.079,2.7,2.7,0,0,0-.724.8c-.265.474-.544.943-.761,1.44a18.7,18.7,0,0,0-1.442,5.353c-.176,1.527-.228,3.071-.266,4.61-.023.914-.264,1.786-.373,2.681a.68.68,0,0,1-.127.236.553.553,0,0,1-.826.092,1.293,1.293,0,0,1-.244-.321,2.633,2.633,0,0,1-.227-.636,29.079,29.079,0,0,1-.671-3.734,9.5,9.5,0,0,0-.586-2.363,20.226,20.226,0,0,1-.626-2.076,1.932,1.932,0,0,0-.3-.6.555.555,0,0,0-.727-.137,5.2,5.2,0,0,0-1.041,1.06,11.813,11.813,0,0,0-1.2,1.969c-.681,1.379-1.374,2.757-1.954,4.18-.4.983-.563.97.144,2a4.5,4.5,0,0,1,.4,1,11.528,11.528,0,0,1,.441,3.487,3.056,3.056,0,0,1-.095.668,5.273,5.273,0,0,0-.122.8,6.512,6.512,0,0,1-.4,1.99,20.281,20.281,0,0,1-.934,2.542c-.442.938-1,1.824-1.517,2.727a6.842,6.842,0,0,1-1.637,1.609.837.837,0,0,1-.783.092.526.526,0,0,1-.387-.349,8.752,8.752,0,0,1-.221-1.875,2,2,0,0,1,.119-.528q.423-1.642.85-3.286c.321-1.223.709-2.432.954-3.669.194-.976.564-1.908.666-2.905a4.27,4.27,0,0,1,.228-.778c.17-.562.35-1.122.5-1.688a.706.706,0,0,0-.254-.73,1.61,1.61,0,0,0-1.508-.411,2.975,2.975,0,0,0-1.528.829,16.524,16.524,0,0,0-3.211,4.674,27.247,27.247,0,0,0-1.254,3.581,4.6,4.6,0,0,1-.234.63.53.53,0,0,1-.587.216.465.465,0,0,1-.338-.387,4.03,4.03,0,0,1,.146-1.6c.378-1.256.729-2.521,1.124-3.771a57.238,57.238,0,0,0,1.493-5.774,22.918,22.918,0,0,0,.54-3.212,3.451,3.451,0,0,1,.146-.662,15.072,15.072,0,0,0,.387-3.771c0-.725-.034-1.449-.062-2.174a3.014,3.014,0,0,0-.084-.532c-.058-.252-.272-.488-.417-.484a.6.6,0,0,0-.461.241,12.2,12.2,0,0,0-.917,1.176,27.152,27.152,0,0,0-1.782,3.043c-.507,1.113-1.1,2.178-1.62,3.279-.426.9-.754,1.841-1.166,2.745a33.843,33.843,0,0,0-1.7,4.863,22.261,22.261,0,0,1-.863,2.713,2.027,2.027,0,0,0-.127.386c-.394,1.813-.888,3.6-1.315,5.4a14.869,14.869,0,0,0-.307,1.738,3.878,3.878,0,0,0,.038,1.079c.083.489.224.969.353,1.45.4,1.484.934,2.929,1.307,4.423a12.994,12.994,0,0,0,.6,1.66,29.525,29.525,0,0,1,1.882,7.2,6.559,6.559,0,0,0,.359,1.723,2.178,2.178,0,0,1,.11.529c.121.9.214,1.8.357,2.691a14.527,14.527,0,0,1,.1,3.929c-.115,1.03-.279,2.057-.479,3.078a5.318,5.318,0,0,1-1.479,2.545,1.236,1.236,0,0,1-1.379.249,3.284,3.284,0,0,1-1.805-1.928c-.277-.716-.526-1.445-.73-2.184-.241-.872-.422-1.759-.624-2.642a4.839,4.839,0,0,1-.077-.536c-.086-.765-.14-1.535-.26-2.294a21.476,21.476,0,0,1-.266-3.11,12.581,12.581,0,0,1-.111-2.3c-.115-1.991-.079-3.982-.083-5.975,0-.956.183-1.889.226-2.839.055-1.218.2-2.433.315-3.648.026-.268.108-.532.153-.8a6.032,6.032,0,0,0-.051-2.694,4.357,4.357,0,0,1-.14-1.21,2.994,2.994,0,0,0-.335-1.3.253.253,0,0,0-.357-.024c-.223.283-.459.557-.653.858-.761,1.179-1.5,2.37-2.263,3.55-.514.8-1.041,1.59-1.566,2.383-.625.942-1.3,1.855-1.869,2.831-.638,1.1-1.361,2.137-2.044,3.2-1.22,1.9-2.486,3.78-3.67,5.708-.521.847-1.051,1.691-1.622,2.505-.936,1.334-1.842,2.687-2.757,4.035-.3.448-.642.877-.977,1.3-.7.889-1.432,1.753-2.114,2.656-.928,1.23-1.958,2.375-2.949,3.551-.817.968-1.623,1.945-2.438,2.914a5.428,5.428,0,0,1-.476.482c-.7.643-1.379,1.3-2.026,2a18.877,18.877,0,0,1-2.766,2.4,38.649,38.649,0,0,1-3.853,2.534,8.325,8.325,0,0,1-1.859.807,2.312,2.312,0,0,0-.391.109,8.217,8.217,0,0,1-3.592.526,1.957,1.957,0,0,1-.917-.205c-.284-.141-.58-.255-.857-.4a4.179,4.179,0,0,1-.68-.433c-.279-.229-.528-.5-.792-.744a3.606,3.606,0,0,1-.93-1.48c-.166-.468-.342-.933-.51-1.4a4.611,4.611,0,0,1-.365-1.579,1.473,1.473,0,0,0-.032-.406,13.851,13.851,0,0,1-.292-3.236c-.044-.943-.074-1.887-.171-2.832a17.481,17.481,0,0,1,.078-2.573c.012-.224.089-.448.083-.672a26.267,26.267,0,0,1,.323-4.328c.383-2.733.68-5.479,1.261-8.183.237-1.1.391-2.225.62-3.331.219-1.06.493-2.107.732-3.164.109-.484.2-.972.281-1.462a4.386,4.386,0,0,1,.419-1.425,3.014,3.014,0,0,0,.214-.637c.036-.13.026-.275.072-.4.494-1.313.739-2.7,1.233-4.015.142-.379.226-.78.343-1.169a4.75,4.75,0,0,1,.3-.9,29.792,29.792,0,0,0,1.455-3.656c.339-.892.752-1.742,1.159-2.6.175-.368.343-.739.517-1.106.446-.94.882-1.885,1.346-2.815.484-.97.987-1.933,1.5-2.889.427-.8.875-1.583,1.323-2.368a39.763,39.763,0,0,1,2.4-3.937,2.255,2.255,0,0,0,.282-.463,20.454,20.454,0,0,1,1.843-3c.728-1.145,1.479-2.276,2.239-3.4.532-.786,1.1-1.548,1.647-2.322.183-.258.367-.517.536-.784a13.311,13.311,0,0,1,3.12-3.182,3.189,3.189,0,0,1,.6-.319,5.586,5.586,0,0,1,1.827-.5,3.143,3.143,0,0,1,2.938,1.046,2.675,2.675,0,0,0,.37.4,4.853,4.853,0,0,1,1.466,2.243,13.9,13.9,0,0,1,.617,1.934,10.47,10.47,0,0,1,.157,3.508,26.839,26.839,0,0,1-.929,4.928,2.491,2.491,0,0,0-.087.4,22.649,22.649,0,0,1-.808,3.154,36,36,0,0,1-1.425,3.951,2.128,2.128,0,0,1-.277.462.292.292,0,0,1-.24.065.28.28,0,0,1-.192-.152,2.386,2.386,0,0,1,.217-1.834,5.67,5.67,0,0,0,.622-1.644,7.7,7.7,0,0,1,.268-.912,29.586,29.586,0,0,0,1.277-4.84c.179-.979.4-1.951.583-2.929a11.6,11.6,0,0,0,.046-3.382c-.028-.27-.081-.539-.083-.81a2.352,2.352,0,0,0-.643-1.729,2.856,2.856,0,0,1-.458-.826,4.091,4.091,0,0,0-1.333-1.515,2.954,2.954,0,0,0-.851-.4,7.967,7.967,0,0,0-.927-.2Zm23.949,59.054c-.081-.969-.113-1.875-.242-2.767-.279-1.922-.636-3.83-1.045-5.729a25.1,25.1,0,0,0-.777-3.149c-.226-.635-.394-1.293-.64-1.925-.2-.505-.355-1.024-.539-1.534q-.661-1.845-1.341-3.686c-.014-.038-.145-.043-.221-.044a.174.174,0,0,0-.11.073.254.254,0,0,0-.046.126c-.134,1.484-.308,2.967-.393,4.454-.122,2.121-.113,4.245-.074,6.368a17.579,17.579,0,0,0,.315,3.637,4.336,4.336,0,0,1,.053.539,31.037,31.037,0,0,0,.987,6.14,4.5,4.5,0,0,1,.086.535,6.845,6.845,0,0,0,1.485,3,.978.978,0,0,0,.221.157.431.431,0,0,0,.5-.038,3.732,3.732,0,0,0,1.067-1.694,15.129,15.129,0,0,0,.49-2.931c.023-.4.1-.8.161-1.206a2.2,2.2,0,0,1,.065-.33Zm13.218-31.27c0-.18-.013-.362,0-.541a5.867,5.867,0,0,0-.164-1.473.927.927,0,0,0-.174-.359.312.312,0,0,0-.207-.128.3.3,0,0,0-.23.1,2.251,2.251,0,0,0-.3.6c-.3,1.175-.587,2.355-.876,3.534-.2.83-.433,1.655-.6,2.492a17.111,17.111,0,0,1-.889,3.254,3.671,3.671,0,0,0-.25,1.454.588.588,0,0,0,.163.339c.093.1.334.032.469-.129a9.15,9.15,0,0,0,1.957-3.358q.261-.909.569-1.8a8.657,8.657,0,0,0,.525-3.989Z" fill="#fff" stroke="#fff" stroke-miterlimit="10" stroke-width="0.104"/>
                  <path id="Path_1154" data-name="Path 1154" d="M4318.16,1186.68c-.162-.038-.382-.075-.592-.143a.611.611,0,0,1-.157-1,.831.831,0,0,1,.222-.143,1.166,1.166,0,0,1,1.4.448.516.516,0,0,1-.289.756,1.238,1.238,0,0,1-.13.034C4318.48,1186.65,4318.35,1186.66,4318.16,1186.68Z" fill="#fff" stroke="#fff" stroke-miterlimit="10" stroke-width="0.104"/>
                  <path id="Path_1155" data-name="Path 1155" d="M4340.46,1167.94c-.036.463-.374.81-.735.756a.746.746,0,0,1-.621-.735.86.86,0,0,1,.909-.593.6.6,0,0,1,.447.572Z" fill="#fff" stroke="#fff" stroke-miterlimit="10" stroke-width="0.104"/>
                </g>
              </g>
            </g>
          </g>
        </g>
        <g id="活動小標" transform="translate(-629.827 -1122.235) rotate(-9)">
          <path id="Path_712" data-name="Path 712" d="M811.633,1921.73l-8.929-.007.016-18.945,8.929.008Zm-4.465.878a19.441,19.441,0,0,1-3.5,6.576,17.877,17.877,0,0,0-2.583-1.706,13.935,13.935,0,0,0,3.029-5.549Zm1.424-17.064h-2.908v2.7h2.908Zm0,5.316h-2.908v2.732h2.909Zm0,5.316h-2.908v2.761h2.908Zm1.552,5.7a26.848,26.848,0,0,1,2.521,4.731l-2.7,1.32a25.392,25.392,0,0,0-2.4-4.965Zm18.59,2.542h-1.351v1.557c0,1.469-.3,2.2-1.265,2.672a10.5,10.5,0,0,1-4.26.5,10.669,10.669,0,0,0-.908-2.791c1.146.03,2.408.031,2.761.032.382,0,.5-.117.5-.44v-1.528l-7.549-.006v4.758h-3.055v-4.758h-1.585v-2.438H813.6l.006-7.4h5.287v-1.116l-6.727-.006v-2.467h3.672v-1.146h-2.5v-2.321h2.5v-1.087h-3.172v-2.467h3.172v-2.232h3.055v2.232h3v-2.232h3.113v2.232h3.173v2.467h-3.173v1.087h2.7v2.321h-2.7v1.145h3.7v2.467l-6.785-.006v1.117h5.464l-.007,7.4h1.351Zm-12.065-7.412v1.351H818.9v-1.351Zm2.24-9.485h3v-1.087h-3Zm-2.245,14.449H818.9V1920.5h-2.232Zm2.242-10.983h3v-1.146h-3Zm3.02,6.024v1.351h2.291v-1.351Zm2.287,4.965v-1.469h-2.291v1.468Z" transform="translate(0 -0.055)" fill="#fff"/>
          <path id="Path_713" data-name="Path 713" d="M876.534,1910.81l-23.2-.02.006-7.226,23.2.02Zm-6.561,14.092c3.112,1,6.489,2.3,8.543,3.209l-3.791,1.729a62.67,62.67,0,0,0-8.249-3.414l2.38-1.526-8.2-.007,2.555,1.148a37,37,0,0,1-9.373,3.868,23.666,23.666,0,0,0-2.582-2.557,35.747,35.747,0,0,0,8.168-2.461H854.9l.011-12.894,20.06.018-.01,12.894Zm-9.884-18.718h-3.524v2.027h3.524Zm-1.653,9.456,12.865.011v-1.438l-12.865-.011Zm0,3.525,12.865.011V1917.7l-12.865-.011Zm0,3.525,12.865.011v-1.469l-12.865-.011Zm8.121-16.5H863v2.027h3.555Zm6.608.006h-3.7v2.026h3.7Z" transform="translate(-17.425 -0.688)" fill="#fff"/>
          <path id="Path_714" data-name="Path 714" d="M916.566,1907.43c-.3,1.174-.619,2.291-.944,3.347l9.4.008-.016,19.209h-3.729v-1.762l-12.983-.011v1.763h-3.553l.016-19.209,7.168.006c.206-1.057.383-2.2.531-3.348l-10.632-.009v-3.407l25.817.022v3.407Zm4.723,6.583-12.983-.01v3.847l12.983.011ZM921.28,1925v-3.965l-12.983-.011v3.965Z" transform="translate(-34.984 -0.843)" fill="#fff"/>
          <path id="Path_715" data-name="Path 715" d="M977.438,1921.09h-3.055v5.111H970.83V1925h-5.286v.911c0,1.732-.414,2.437-1.559,2.935a15.469,15.469,0,0,1-5.2.5,10.772,10.772,0,0,0-1.144-2.762c1.409.06,3.143.062,3.612.062.559-.029.736-.2.736-.734V1925l-8.929-.008v-2.526l8.929.008V1921.1l-11.632-.01v-2.673l11.632.01v-1.263l-8.694-.007V1914.8l8.694.007v-1.31l-7.96-.006.005-5.815,7.959.006v-1.2l-10.956-.009v-2.761l10.956.009v-1.909h3.555v1.909l11.219.01v2.761l-11.22-.01v1.2l8.341.006v5.816l-8.341-.007v1.293l8.84.007v3.613h3.055ZM962,1911.3v-1.409h-4.612v1.41Zm3.555-1.406v1.409h4.757v-1.41Zm-.007,8.518h5.286v-1.263h-5.286Zm5.284,2.677h-5.286v1.38h5.286Z" transform="translate(-51.839 -0.082)" fill="#fff"/>
          <path id="Path_716" data-name="Path 716" d="M1006.01,1903.7h2.849l-7.309,29.014h-2.879Z" transform="translate(-68.618 -0.735)" fill="#fff"/>
          <path id="Path_717" data-name="Path 717" d="M1042.44,1925.09a15.334,15.334,0,0,0,3.5-.32c.088.97.262,2.527.437,3.349a16.856,16.856,0,0,1-4.023.29l-6.2-.005c-4.376,0-5.931-1.709-5.927-6.35V1915.8l-7.637,1.14-.584-3.525,8.224-1.257.008-9.252H1034l-.008,8.694,13.866-2.1.584,3.585-14.453,2.132-.007,7.078c0,2.056.438,2.79,2.054,2.792Z" transform="translate(-76.721 -0.461)" fill="#fff"/>
          <path id="Path_718" data-name="Path 718" d="M1083.01,1906.13l-10.544-.008v-2.5l10.544.009v-1.762h3.554v1.762l10.808.009v2.5l-10.808-.01v1.2l9.046.008v2.408l-21.118-.018v-2.408l8.518.007Zm15.263,12.232v2.644l-26.818-.023v-2.643l6.726.005a10.442,10.442,0,0,0-.674-1.527l1.234-.293h-3l.005-5.815,18.562.016v5.815h-1.674c-.382.676-.794,1.292-1.147,1.821Zm-23.119,3.711,19.767.016-.006,7.226H1091.3v-.764l-12.718-.011v.794h-3.437Zm3.913-7.692,11.719.01v-1.469l-11.719-.01Zm-.479,10.015v1.792l12.718.011v-1.792Zm2.415-7.869a9.006,9.006,0,0,1,.821,1.822l6.051.005a15.7,15.7,0,0,0,.764-1.821Z" transform="translate(-93.891 -0.102)" fill="#fff"/>
          <path id="Path_719" data-name="Path 719" d="M1126.97,1903.8h2.849l-7.309,29.013h-2.879Z" transform="translate(-110.624 -0.771)" fill="#fff"/>
          <path id="Path_720" data-name="Path 720" d="M1147.07,1908.02a27.755,27.755,0,0,0-4.109-3.822l2.029-1.878a27.508,27.508,0,0,1,4.2,3.558Zm-.918,7.665a32.731,32.731,0,0,0-3.991-3.323l1.94-2.025a34.819,34.819,0,0,1,4.11,3.088Zm2.581,4.261c-.943,3-2.238,6.372-3.385,9.073l-2.789-1.647a75.321,75.321,0,0,0,3.708-9.1Zm19.892-9.5a42.4,42.4,0,0,1-2.447,11.6,13.264,13.264,0,0,0,3.814,4.527,13.251,13.251,0,0,0-2.176,2.729,14.44,14.44,0,0,1-3.227-4.027,17,17,0,0,1-3.646,4.168,12.588,12.588,0,0,0-2.23-2.058,13.766,13.766,0,0,0,4.352-5.313,39.234,39.234,0,0,1-1.873-6.845,10.548,10.548,0,0,1-.8,1.379,18.14,18.14,0,0,0-1.614-1.911h-3.789a17.523,17.523,0,0,1,.909,1.822h3.847v2.819h-5.756v1.322h5.081s-.03.706-.06,1.087c-.15,3.877-.328,5.64-.917,6.314a2.3,2.3,0,0,1-1.674.909,21.8,21.8,0,0,1-2.7.115,6.672,6.672,0,0,0-.762-2.762,16.978,16.978,0,0,0,1.851.09.719.719,0,0,0,.675-.264,6.97,6.97,0,0,0,.443-2.732h-2.291a9.995,9.995,0,0,1-4,5.959,14.243,14.243,0,0,0-2.348-2,8.547,8.547,0,0,0,3.824-7.369v-.676h-2.438v-2.82h3.877c-.206-.469-.411-.911-.587-1.292l2.41-.527h-4.846l.008-9.928h2.791a22.87,22.87,0,0,0,.531-2.79l3.612.356c-.294.881-.588,1.674-.883,2.438h3.583l-.006,7.578a38.016,38.016,0,0,0,2.564-10.367l3.054.531c-.207,1.615-.5,3.231-.856,4.787l5.816.005v3.143Zm-12.362-3.271H1152.3v1.41h3.966Zm0,3.671H1152.3v1.439h3.965Zm6.667.094a43.71,43.71,0,0,0,1.579,7.226,43.744,43.744,0,0,0,1.27-7.723h-2.7Z" transform="translate(-118.446 -0.138)" fill="#fff"/>
          <path id="Path_721" data-name="Path 721" d="M1196.65,1916.08a25.307,25.307,0,0,0-4.814-3.529l2.058-2.377a30.522,30.522,0,0,1,4.99,3.236Zm.858-7.342a26.984,26.984,0,0,0-4.168-3.851l2.323-2.142a26.489,26.489,0,0,1,4.314,3.646Zm2.077,10.517c-1.119,3.113-2.59,6.372-3.944,9.248l-3.2-2.029a83.683,83.683,0,0,0,4.325-9.278Zm18.65,1.279a37.277,37.277,0,0,1-4.055,2.669,12.291,12.291,0,0,0,5.226,2.823,13.1,13.1,0,0,0-2.206,3.023c-5.2-1.8-8.013-5.587-9.713-11.022h-3.348l-.006,6.7,4.847-1.406a17.423,17.423,0,0,0,.526,3.055c-6.551,2.05-7.668,2.52-8.432,3.077a10.057,10.057,0,0,0-1.819-2.557,4.093,4.093,0,0,0,1.383-3.112l.016-18.856,6.756.005a21.683,21.683,0,0,0-1-2.527l3.232-.82a23.2,23.2,0,0,1,1.406,3.35l5.963.005-.011,13.1-6.2-.005a13.18,13.18,0,0,0,1.5,2.938,26.928,26.928,0,0,0,3.7-2.728Zm-14.088-12.583v2.056l9.457.008v-2.056Zm-.006,7.079,9.457.008v-2.115l-9.457-.008Z" transform="translate(-135.698)" fill="#fff"/>
          <path id="Path_722" data-name="Path 722" d="M1267.8,1910.19v2.755c0,.821-.168,1.237-.78,1.5a6.508,6.508,0,0,1-2.407.262,6.04,6.04,0,0,0-.6-1.614c.709.028,1.558.029,1.794.029s.306-.055.307-.222v-2.573c-3.158.248-3.784.345-4.27.525a11.569,11.569,0,0,0-.486-1.488,6.537,6.537,0,0,0,1.934-.708,20.034,20.034,0,0,0,2.2-1.152,11.362,11.362,0,0,0-3.019.359c-.083-.32-.318-1.1-.486-1.531a3.583,3.583,0,0,0,1.169-.458,15.193,15.193,0,0,0,2.226-1.4c-1.335.263-2.685.47-3.965.636a5.177,5.177,0,0,0-.458-1.406,38.838,38.838,0,0,0,8.833-2.051l1.223,1.309a26.331,26.331,0,0,1-3.993,1.164l.751.488a24.73,24.73,0,0,1-2.365,1.555l2.406-.123c.514-.362,1-.723,1.475-1.112l1.223,1.1a29.255,29.255,0,0,1-4.7,2.861l3.922-.261c-.292-.348-.6-.682-.89-.988l1.378-.694a26.627,26.627,0,0,1,2.709,3.132l-1.4.847a11.822,11.822,0,0,0-.709-.975Zm-2.782,1.11a14.889,14.889,0,0,1-3.063,2.877,14.485,14.485,0,0,0-1.446-1.086,9.678,9.678,0,0,0,2.826-2.39Zm4.868-.775a18.123,18.123,0,0,1,3.113,2.548l-1.461.973a18.936,18.936,0,0,0-3-2.646Z" transform="translate(-159.546 -0.026)" fill="#fff"/>
          <path id="Path_723" data-name="Path 723" d="M1284,1902.55l6.871.006v1.544h-3.033c-.14.5-.307,1.015-.488,1.53h1.975l.278-.042,1.043.335c-.7,4.575-2.552,7.564-5.112,9.05a5.656,5.656,0,0,0-1.237-1.211,7.983,7.983,0,0,0,3.076-2.9,21.213,21.213,0,0,0-1.932-1.407,6.971,6.971,0,0,1-.835.973,11.075,11.075,0,0,0-1.181-1.073,11.316,11.316,0,0,0,2.7-5.254H1284Zm2.751,4.592c-.153.362-.335.723-.516,1.056.612.377,1.362.836,1.877,1.212a14.034,14.034,0,0,0,.7-2.267Zm6.115,3.983h-1.627l.006-7.635h1.627Zm3.262-8.912-.009,10.765c0,.932-.2,1.377-.753,1.627a6.432,6.432,0,0,1-2.685.318,6.971,6.971,0,0,0-.541-1.656c.835.029,1.7.029,1.961.029s.376-.1.377-.333l.009-10.751Z" transform="translate(-167.503 -0.219)" fill="#fff"/>
          <path id="Path_724" data-name="Path 724" d="M1272.88,1928.32h-4.075l1.307.266c-.279.5-.585.987-.863,1.418h2.99l-.006,7.038c0,.737-.182,1.057-.7,1.251a7.36,7.36,0,0,1-2.365.207,4.377,4.377,0,0,0-.443-1.21c.667.028,1.46.029,1.668.015s.306-.069.307-.278v-5.689h-2.142v.362c0,.264.013.389.25.39h.681a3.736,3.736,0,0,0,.807-.082,9.789,9.789,0,0,0,.1,1.1,3.189,3.189,0,0,1-.877.1h-1.112c-1.127,0-1.321-.53-1.321-1.517v-.347h-.988a2.443,2.443,0,0,1-1.809,2.14h5.034v3.38h-4.02v.583h-1.377v-3.839c-.167.041-.334.083-.529.125a3.048,3.048,0,0,0-.653-1.03v5.841h-1.586l.008-8.54h2.865c-.153-.417-.416-.96-.625-1.391l.918-.292h-3.811v-1.39h5.48a10.175,10.175,0,0,0-.318-1.044l1.6-.4c.166.446.36.988.485,1.447h5.118Zm-10.129,4.275c1.294-.221,1.739-.6,1.906-1.264h-1.905Zm4.968-2.6a11.556,11.556,0,0,0,.711-1.682h-3.505c.25.46.541,1,.694,1.364l-.89.319Zm-2.41,4.615v1.113h2.7v-1.113Z" transform="translate(-159.549 -8.301)" fill="#fff"/>
          <path id="Path_725" data-name="Path 725" d="M1284.29,1932.68h5.285l-.005,6.189h-1.655v-.626h-2.072v.7h-1.557Zm10.057-1.146-8.15-.007v-5.034l8.151.007Zm-8.5,2.733v2.392h2.072v-2.392Zm6.82-6.183H1287.8v1.878h4.868Zm3.557,4.606-.006,6.2h-1.669v-.64h-2.212v.7h-1.585l.005-6.258Zm-1.673,3.977v-2.392h-2.212v2.392Z" transform="translate(-167.803 -8.653)" fill="#fff"/>
          <path id="Path_726" data-name="Path 726" d="M824.939,1971.27l2.786,4.2h-1.938l-.006,7.08-22.823-.02.006-7.08h-1.88l2.764-3.787-2.58-4.819h4.788l.557,1,1.294-1.761-5.787-.005v-2.761l11.573.01v3.143l-2.677,3.64,7.343.007-4.664-7.053h5.815l1.056,1.587,1.029-1.555h3.966l-3.029,4.491.469.735.824-1.321h3.965Zm-23.278,17.487v-2.7h4.258l-1.142-2.732h5.845l1.2,2.733h5.11l1.148-2.731,5.669.005-1.177,2.73h4.582v2.7Zm18.488-15.934-11.1-.009-1.352,1.849,13.688.012Zm.173,4.612-11.866-.01v2.38l11.866.01Z" transform="translate(0 -21.352)" fill="#fff"/>
          <path id="Path_727" data-name="Path 727" d="M874.624,1974.89l-.012,13.893h-5.581L868,1986.61l-.383,1.527h-4.053l.176-.646-10.1,1.254v-2.791l2.967-.378.007-8.46h-2.79v-2.79h2.79v-2.174h-2.261v-1.7h-1.028l1.709-7.371,8.166.036,1.786,7.344h-1.028v1.7h-2.38v2.174h2.732v2.79h-2.732l-.007,7.784,2.586-.32v1.292l1.208-4.581h3.994l-1.149,4.67h1.469l.01-11.074h-5.052v-2.79l8.43.007.178-1.175-7.9-.007v-2.555l1.444-5.521,5.2.005-.3,1.087,7.167.006v2.379l-.974,5.786h2.056v2.791Zm-20.336,9.617-.552-6.286h2.086l.523,6.286Zm5.245-18.618h-.557l-.825,3.465h2.114Zm4.392,17.921h-2.086l.622-5.58h2.055Zm1.734-3.318-1.17-4.7h3.789l1.112,4.7Zm5.359-13.829-.384,1.468h3.055l.207-1.468Zm7.8,13.84h-3.995l1.209-4.7h3.935Zm-2.591,7.635-1.346-6.845h3.966l1.375,6.844Z" transform="translate(-18.144 -21.275)" fill="#fff"/>
          <path id="Path_728" data-name="Path 728" d="M914.736,1970.63h3.437l-.006,7.519-6.109-.005v2.262l6.138.005-.007,8.283-8.782-.008-1.555-2.733h5.64v-2.937l-6.138-.005.007-7.519,6.138.005V1973h-.911l-.734.822-6.168-.005,2.706-2.993-2-3.938h4.818l.264.529,1.2-1.35-5.493-.005v-2.732l11.367.01v3Zm16.647,8.032h-5.9l.005-5.2h-1.44v3.084l-.707,2.114h-5.023l.883-1.967.005-6.051h4.817l-5.516-7.7,5.9.005.939,1.2.676-.91h3.613l-2.295,3.581.47.646.735-1.085h4.024l-2.617,3.9,2.611,3.556h-2.379v2.085h2.439Zm-4.826,10.042-1.115-.97-1.029.969-6.08-.005,3.939-3.7-2.877-2.5h5.61l.676-.7-6.873-.006v-2.555l12.719.011v2.731l-3.2,3.052,4.256,3.676Z" transform="translate(-36.326 -21.307)" fill="#fff"/>
          <path id="Path_729" data-name="Path 729" d="M977.416,1966.1v1.292l6.374.006-.007,7.313-24.262-.02.007-7.314,6.433.005v-1.292l-7.08-.006v-2.76l25.613.021v2.761Zm-2.98,16.212-.006,6.668-7.49-.006-.938-2.792h2.967v-3.877l-10.045-.009v-2.643l25.525.021v2.644Zm-14.155-3.89v-2.585l22.793.02v2.585Zm4.045,10.226H958.57l3.029-5.608,5.787.005Zm1.632-18.621H964.4v2.056h1.557Zm6.495-3.931h-1.586v1.292h1.586Zm0,3.936h-1.585v2.057h1.586Zm6.58.006h-1.615v2.056h1.615Zm-.016,18.622-2.991-5.613,5.728.005,3.109,5.613Z" transform="translate(-54.69 -21.444)" fill="#fff"/>
          <path id="Path_730" data-name="Path 730" d="M1041.67,1970.3v-2.937l9.429.008-.7-4.23,6.139.006.731,4.23,8.665.008v2.937Zm5.3,14.221-4.248-12.458h5.728l4.277,12.458Zm-6.113,4.43v-3l14.3.012,4.006-13.89h5.61l-3.918,13.89,6.021.005v3Z" transform="translate(-83.268 -21.378)" fill="#fff"/>
          <path id="Path_731" data-name="Path 731" d="M1105.37,1989.1l-.469-2.086-1.088,2.085-6.727-.006.022-25.466,12.219.01-.012,14.863-6.961-.006-.007,7.843h2.408l-1.433-5.993h4.935l2.019,8.755Zm-.568-22.706h-2.438v3.23h2.438Zm-.006,6.051h-2.438v3.291h2.438Zm12.2,14.515-1.232-2.35v4.494h-5.111l.022-25.466,11.455.01-.02,23.322Zm.6-20.561h-1.821l-.016,17.8h1.821Z" transform="translate(-102.793 -21.547)" fill="#fff"/>
          <path id="Path_732" data-name="Path 732" d="M1159.24,1969.79v4.495l1.792-1.057v3.172l-1.792,1.056-.01,11.514-6.257-.005-.937-2.792h1.909v-5.64l-1.94,1.114v-3.2l1.94-1.085.006-7.578h-1.909v-2.79h1.91v-3.906h5.287v3.906h1.82v2.791Zm2.45,19.182.018-20.884h5.463v-4.964h5.228v4.964h5.376l-.018,20.884Zm5.479-18.03h-1.379l-.006,6.11h1.38Zm-.007,8.929h-1.38l-.006,6.375h1.381Zm6.587-8.924H1172.4l-.006,6.11h1.352Zm-.008,8.929h-1.352l-.005,6.374h1.352Z" transform="translate(-121.866 -21.362)" fill="#fff"/>
          <path id="Path_733" data-name="Path 733" d="M1227.14,1989.09l-7.186-12.255-6.707,12.243-6.432-.006,9.5-17.292-9.135-.009v-3.055l9.84.009.005-5.669,5.786.005-.005,5.669,10.016.008v3.056l-10.015-.009-.971,1.7h2.672l8.946,15.6Z" transform="translate(-140.901 -21.351)" fill="#fff"/>
          <path id="Path_734" data-name="Path 734" d="M1287.37,1974.7v4.376l-6.609-.006-.322-.617h-4.582l-2.172-3.174h5.522l.909,1.352h2.174v-1.938l-9.223-.009v-2.408l9.223.008v-1.644l-1.2.88-7.52-.006-1.085-1.94-.008,9.488h-4.935v-4.817h-.911v3.231l-.824,1.585h-3.876l1.058-2v-2.82h-.7v-2.762h5.257v-1.792h-4.729l.005-5.728h3.789v3.143h.94v-3.848h4.934v3.495l3.234-3.551,5.875.005-.706.763,6.961.006v2.526l-5.025,3.726h4.553v2.056h1.087v2.409Zm-6.622,14.475-5.313-3.7-5.35,3.7-8.194-.007,8.023-5.544-7.254-.006v-2.585l10.015.009v-2.086l5.434.005v2.085h2.5l-.527-1.352h5.345l.411,1.352h2.408v2.584l-10.133-.008-1.029.792h4.963l7.017,4.764Zm-4.093-21.739h-4.172v1.732h1.41l-.615-1.175h3.113l.645,1.175h.7Zm2.086-1.055-.5.528h1.264l.264.529,1.352-1.057Z" transform="translate(-160.025 -21.4)" fill="#fff"/>
        </g>
      </g>
    </g>
  </g>
</svg>
