<svg xmlns="http://www.w3.org/2000/svg" width="109.055" height="101.973" viewBox="0 0 109.055 101.973">
  <g id="Group_1275" data-name="Group 1275" transform="translate(-3830.108 -1206.289)">
    <g id="Group_1153" data-name="Group 1153">
      <g id="Group_1152" data-name="Group 1152">
        <path id="Path_1126" data-name="Path 1126" d="M3888,1301.695a2.688,2.688,0,0,1-3.873-1.262l-4.826-11.559-35.294,16.45a2.687,2.687,0,0,1-3.042-4.328l39.8-40.147a2.687,2.687,0,0,1,4.29.65l5.993,11.505,33.827-24.119c.056-.04.112-.076.169-.11a2.686,2.686,0,0,1,3.465,4.006l-39.828,48.325A2.658,2.658,0,0,1,3888,1301.695Z" fill="#fff"/>
        <path id="Path_1127" data-name="Path 1127" d="M3882.673,1262.741l7.42,14.244,36.343-25.914-39.827,48.327-5.906-14.14-37.83,17.629,39.8-40.146m43.763-11.67.009,0m-46.559,7.079a5.352,5.352,0,0,0-1.029.811l-39.8,40.147a5.375,5.375,0,0,0,6.087,8.655l32.758-15.266,3.748,8.976a5.373,5.373,0,0,0,9.106,1.347l39.745-48.226a5.374,5.374,0,0,0-6.717-8.192c-.043.025-.087.05-.13.077-.058.034-.115.071-.172.108s-.141.095-.21.145L3892,1269.022l-4.565-8.764a5.373,5.373,0,0,0-7.553-2.112Zm5.574,9.19.008-.005-.008.005Z" fill="#004990"/>
      </g>
    </g>
    <g id="Group_1155" data-name="Group 1155">
      <g id="Group_1154" data-name="Group 1154">
        <path id="Path_1128" data-name="Path 1128" d="M3935.185,1226.282a2.579,2.579,0,0,1-.486.229l-58.925,21.206a2.685,2.685,0,0,1-3.57-2.9l1.754-12.4-38.744-3.887a2.689,2.689,0,0,1-1.126-4.973,2.632,2.632,0,0,1,.72-.3l54.722-14.188a2.687,2.687,0,0,1,3.358,2.751l-.724,12.951,41.4-3.458a2.688,2.688,0,0,1,1.618,4.976Z" fill="#ff4398"/>
        <path id="Path_1129" data-name="Path 1129" d="M3835.482,1225.85l54.722-14.187-.9,16.037,44.481-3.716-58.925,21.2,2.145-15.173-41.527-4.166m-2.788-4.595a5.374,5.374,0,0,0,2.251,9.942l35.96,3.608-1.362,9.632a5.374,5.374,0,0,0,7.141,5.809l58.924-21.206a5.374,5.374,0,0,0-2.267-10.411l-38.323,3.2.552-9.867a5.375,5.375,0,0,0-6.714-5.5l-54.723,14.187a5.384,5.384,0,0,0-1.439.607Z" fill="#004990"/>
      </g>
    </g>
  </g>
</svg>
