<svg xmlns="http://www.w3.org/2000/svg" xmlns:xlink="http://www.w3.org/1999/xlink" width="388" height="96" viewBox="0 0 388 96">
  <defs>
    <clipPath id="clip-bg-lightning">
      <rect width="388" height="96"/>
    </clipPath>
  </defs>
  <g id="bg-lightning" clip-path="url(#clip-bg-lightning)">
    <g id="Group_1080" data-name="Group 1080" transform="matrix(0.208, 0.978, -0.978, 0.208, 227.003, -3753.715)">
      <g id="Group_1077" data-name="Group 1077" transform="translate(3645.543 958.954)">
        <g id="Group_1076" data-name="Group 1076">
          <path id="Path_1032" data-name="Path 1032" d="M3685.877,1011.457a2.012,2.012,0,0,1-2.9-.944l-3.612-8.651-26.415,12.311a2.011,2.011,0,0,1-2.277-3.239l29.787-30.047a2.01,2.01,0,0,1,3.211.486l4.485,8.611,25.318-18.052c.042-.03.084-.057.126-.083a2.011,2.011,0,0,1,2.593,3l-29.809,36.168A1.993,1.993,0,0,1,3685.877,1011.457Z" transform="translate(-3648.079 -969.543)" fill="#fff"/>
          <path id="Path_1033" data-name="Path 1033" d="M3681.213,981.625l5.553,10.661,27.2-19.4-29.809,36.17-4.42-10.583-28.313,13.194,29.788-30.047m32.755-8.734.006,0m-34.846,5.3a4.012,4.012,0,0,0-.77.608l-29.789,30.047a4.022,4.022,0,0,0,4.556,6.477l24.517-11.425,2.806,6.718a4.021,4.021,0,0,0,6.814,1.008l29.747-36.094a4.022,4.022,0,0,0-5.027-6.132l-.1.058c-.043.026-.086.053-.129.081s-.105.072-.157.109l-23.4,16.686-3.417-6.56a4.023,4.023,0,0,0-5.653-1.581Zm4.172,6.878.006,0-.006,0Z" transform="translate(-3647.403 -968.866)" fill="#004990"/>
        </g>
      </g>
      <g id="Group_1079" data-name="Group 1079" transform="translate(3640.012 929.463)">
        <g id="Group_1078" data-name="Group 1078">
          <path id="Path_1034" data-name="Path 1034" d="M3719.332,945.1a1.936,1.936,0,0,1-.364.172l-44.1,15.871a2.011,2.011,0,0,1-2.672-2.173l1.313-9.282-29-2.909a2.01,2.01,0,0,1-.3-3.948l40.956-10.618a2.011,2.011,0,0,1,2.513,2.059l-.542,9.693,30.988-2.588a2.011,2.011,0,0,1,1.211,3.724Z" transform="translate(-3640.688 -930.139)" fill="#ff4398"/>
          <path id="Path_1035" data-name="Path 1035" d="M3644.034,944.1l40.956-10.618-.671,12,33.292-2.781-44.1,15.871,1.606-11.356-31.081-3.118m-2.087-3.439a4.023,4.023,0,0,0,1.685,7.441l26.914,2.7-1.02,7.209a4.022,4.022,0,0,0,5.344,4.348l44.1-15.871a4.022,4.022,0,0,0-1.7-7.793l-28.682,2.4.413-7.384a4.022,4.022,0,0,0-5.025-4.118l-40.957,10.618a3.993,3.993,0,0,0-1.077.454Z" transform="translate(-3640.012 -929.463)" fill="#004990"/>
        </g>
      </g>
    </g>
  </g>
</svg>
