<svg xmlns="http://www.w3.org/2000/svg" xmlns:xlink="http://www.w3.org/1999/xlink" width="263" height="304" viewBox="0 0 263 304">
  <defs>
    <clipPath id="clip-path">
      <rect id="Rectangle_147" data-name="Rectangle 147" width="263" height="304"/>
    </clipPath>
    <filter id="加碼抽" x="0.001" y="4.003" width="134" height="62" filterUnits="userSpaceOnUse">
      <feOffset dx="2" dy="4" input="SourceAlpha"/>
      <feGaussianBlur result="blur"/>
      <feFlood flood-color="#003a72"/>
      <feComposite operator="in" in2="blur"/>
      <feComposite in="SourceGraphic"/>
    </filter>
  </defs>
  <g id="bg-proudct-text-2" clip-path="url(#clip-path)">
    <g id="Group_1134" data-name="Group 1134" transform="translate(-828.279 -1323.507)">
      <path id="Path_52" data-name="Path 52" d="M2056.51,2128.88a5.956,5.956,0,0,0-4.315-5.385c-2.846-.8-5.026.278-7.316,3.657a6.7,6.7,0,0,0-4.1-4.1c3.2-1.919,4.38-4.149,3.749-6.961a5.933,5.933,0,0,0-5.109-4.635c-2.957-.3-5.059,1.131-6.551,4.494-1.2-3.137-3.257-4.637-6.154-4.528a5.96,5.96,0,0,0-5.425,4.266c-.833,2.845.222,5.043,3.452,7.284a16.648,16.648,0,0,0-2.267,1.647,17.865,17.865,0,0,0-1.7,2.306c-2.088-3.114-4.216-4.2-6.987-3.52a5.982,5.982,0,0,0-3.55,9.212,6.276,6.276,0,0,0,3.639,2.487c-3.469,1.609-4.962,3.581-4.67,6.315a6.952,6.952,0,0,0,.846,2.709,6.4,6.4,0,0,0,1.923,1.987,12.952,12.952,0,0,0,2.463,1.047c-3.538,1.093-5.24,3.161-5.029,6.2a5.77,5.77,0,0,0,4.952,5.276,5.559,5.559,0,0,0,4.353-1.158,4.139,4.139,0,1,1,7.8,1.48c-3.714,1.194-5.451,3.374-5.071,6.267a5.609,5.609,0,0,0,11.021.755,5.471,5.471,0,0,0-.4-3.772,5.88,5.88,0,0,0-4.495-3.241,6.237,6.237,0,0,0,5.284-4.472c1.716,3.405,3.573,4.638,6.548,4.373a5.829,5.829,0,0,0,5.043-4.229c.854-3.383-.513-5.8-3.608-7.4a6.816,6.816,0,0,0,4.072-4.042c1.819,3.039,4.042,4.259,6.72,3.756a5.857,5.857,0,0,0,4.824-4.935c.4-3.565-1.343-5.8-4.735-6.888C2055.11,2133.9,2056.63,2131.89,2056.51,2128.88Zm-35.689,2.425a3.84,3.84,0,1,1-3.708,1.76A3.833,3.833,0,0,1,2020.821,2131.3Zm.182,21.067a6.139,6.139,0,0,0-5.476-5.265,6.3,6.3,0,0,0,5.277-3.86,6.968,6.968,0,0,0,4.053,4.022,6.352,6.352,0,0,0-3.847,5.1Zm11.884-.883a6.393,6.393,0,0,0-3.736-4.2,7.011,7.011,0,0,0,3.737-3.282,6.855,6.855,0,0,0,3.778,3.259,6.4,6.4,0,0,0-3.776,4.219Zm-2.733-16.35,2.741-2.721,2.76,2.732-2.766,2.681Zm2.748-8.808a7.227,7.227,0,0,0-3.8-3.319,3.865,3.865,0,1,1,7.664.015,6.866,6.866,0,0,0-3.855,3.3Zm12.033,12.728a4,4,0,1,1,4.054-1.738,3.963,3.963,0,0,1-4.054,1.738Z" transform="translate(-1072.832 -633.888)" fill="#ff4398"/>
      <path id="Path_53" data-name="Path 53" d="M2054.65,2151.19a5.766,5.766,0,1,0,5.739,5.793,5.766,5.766,0,0,0-5.739-5.793Z" transform="translate(-1076.855 -637.922)" fill="#ff4398"/>
      <path id="Path_54" data-name="Path 54" d="M2015.21,2123.16a5.656,5.656,0,0,0,5.762-5.755,5.767,5.767,0,1,0-11.534-.051,5.655,5.655,0,0,0,5.772,5.806Z" transform="translate(-1072.859 -633.91)" fill="#ff4398"/>
      <path id="Path_55" data-name="Path 55" d="M2054.59,2123.16a5.758,5.758,0,1,0-5.751-5.779,5.82,5.82,0,0,0,5.751,5.779Z" transform="translate(-1076.855 -633.911)" fill="#ff4398"/>
      <path id="Path_56" data-name="Path 56" d="M2002.02,2138.19a5.609,5.609,0,1,0,5.614,5.6A5.609,5.609,0,0,0,2002.02,2138.19Z" transform="translate(-1071.538 -636.603)" fill="#ff4398"/>
      <path id="Path_57" data-name="Path 57" d="M2041.43,2164.39a5.493,5.493,0,0,0-5.6,5.61,5.607,5.607,0,1,0,11.214,0,5.514,5.514,0,0,0-5.614-5.61Z" transform="translate(-1075.535 -639.262)" fill="#ff4398"/>
      <path id="Path_58" data-name="Path 58" d="M2002,2136.2a5.6,5.6,0,1,0-5.568-5.568A5.6,5.6,0,0,0,2002,2136.2Z" transform="translate(-1071.54 -635.267)" fill="#ff4398"/>
      <path id="Path_59" data-name="Path 59" d="M2041.46,2109.99a5.587,5.587,0,1,0-5.61-5.6,5.587,5.587,0,0,0,5.61,5.6Z" transform="translate(-1075.538 -632.61)" fill="#ff4398"/>
      <path id="Path_60" data-name="Path 60" d="M2067.84,2125.02a5.582,5.582,0,1,0,5.558,5.567,5.582,5.582,0,0,0-5.558-5.567Z" transform="translate(-1078.213 -635.269)" fill="#ff4398"/>
      <path id="Path_61" data-name="Path 61" d="M2028.35,2110a5.595,5.595,0,1,0-5.516-5.708A5.672,5.672,0,0,0,2028.35,2110Z" transform="translate(-1074.217 -632.61)" fill="#ff4398"/>
      <path id="Path_62" data-name="Path 62" d="M2067.82,2138.22a5.581,5.581,0,1,0,5.574,5.551A5.581,5.581,0,0,0,2067.82,2138.22Z" transform="translate(-1078.213 -636.606)" fill="#ff4398"/>
      <path id="Path_63" data-name="Path 63" d="M2015.2,2164.57a5.453,5.453,0,1,0,5.492,5.433,5.453,5.453,0,0,0-5.492-5.433Z" transform="translate(-1072.894 -639.279)" fill="#ff4398"/>
      <path id="Path_64" data-name="Path 64" d="M2002.08,2151.55a5.454,5.454,0,1,0,5.418,5.506A5.454,5.454,0,0,0,2002.08,2151.55Z" transform="translate(-1071.556 -637.959)" fill="#ff4398"/>
      <path id="Path_65" data-name="Path 65" d="M2054.62,2164.76a5.439,5.439,0,1,0,5.455,5.461,5.439,5.439,0,0,0-5.455-5.461Z" transform="translate(-1076.892 -639.298)" fill="#ff4398"/>
      <path id="Path_66" data-name="Path 66" d="M2067.9,2151.56a5.439,5.439,0,1,0,5.372,5.469,5.439,5.439,0,0,0-5.372-5.469Z" transform="translate(-1078.229 -637.96)" fill="#ff4398"/>
      <path id="Path_67" data-name="Path 67" d="M2002.04,2122.87a5.44,5.44,0,1,0-5.433-5.483,5.44,5.44,0,0,0,5.433,5.483Z" transform="translate(-1071.557 -633.947)" fill="#ff4398"/>
      <path id="Path_68" data-name="Path 68" d="M2015.18,2109.85a5.439,5.439,0,1,0-5.385-5.455,5.439,5.439,0,0,0,5.385,5.455Z" transform="translate(-1072.896 -632.626)" fill="#ff4398"/>
      <path id="Path_69" data-name="Path 69" d="M2067.86,2122.85a5.421,5.421,0,1,0-5.449-5.392A5.421,5.421,0,0,0,2067.86,2122.85Z" transform="translate(-1078.232 -633.949)" fill="#ff4398"/>
      <path id="Path_70" data-name="Path 70" d="M2054.66,2109.83a5.42,5.42,0,1,0-5.438-5.4A5.419,5.419,0,0,0,2054.66,2109.83Z" transform="translate(-1076.894 -632.628)" fill="#ff4398"/>
      <path id="Path_71" data-name="Path 71" d="M1988.89,2125.48a5.156,5.156,0,1,0,3.683,1.532,5.174,5.174,0,0,0-3.683-1.532Z" transform="translate(-1070.25 -635.314)" fill="#ff4398"/>
      <path id="Path_72" data-name="Path 72" d="M2002.11,2164.88a5.156,5.156,0,1,0,3.673,1.558,5.174,5.174,0,0,0-3.673-1.558Z" transform="translate(-1071.587 -639.311)" fill="#ff4398"/>
      <path id="Path_73" data-name="Path 73" d="M1988.92,2138.67a5.155,5.155,0,1,0,3.674,1.556A5.174,5.174,0,0,0,1988.92,2138.67Z" transform="translate(-1070.25 -636.652)" fill="#ff4398"/>
      <path id="Path_74" data-name="Path 74" d="M2041.51,2178.07a5.153,5.153,0,1,0,3.649,1.523,5.173,5.173,0,0,0-3.649-1.523Z" transform="translate(-1075.584 -640.649)" fill="#ff4398"/>
      <path id="Path_75" data-name="Path 75" d="M2028.53,2178.07a5.154,5.154,0,1,0,3.637,1.555A5.174,5.174,0,0,0,2028.53,2178.07Z" transform="translate(-1074.263 -640.649)" fill="#ff4398"/>
      <path id="Path_76" data-name="Path 76" d="M2002.07,2109.61a5.165,5.165,0,1,0-5.155-5.175,5.165,5.165,0,0,0,5.155,5.175Z" transform="translate(-1071.588 -632.657)" fill="#ff4398"/>
      <path id="Path_77" data-name="Path 77" d="M2067.87,2165.06a5.165,5.165,0,1,0,5.158,5.172,5.165,5.165,0,0,0-5.158-5.172Z" transform="translate(-1078.26 -639.329)" fill="#ff4398"/>
      <path id="Path_78" data-name="Path 78" d="M2067.86,2109.6a5.155,5.155,0,1,0-5.155-5.174A5.155,5.155,0,0,0,2067.86,2109.6Z" transform="translate(-1078.262 -632.658)" fill="#ff4398"/>
      <path id="Path_79" data-name="Path 79" d="M2081.07,2125.5a5.155,5.155,0,1,0,5.135,5.194A5.155,5.155,0,0,0,2081.07,2125.5Z" transform="translate(-1079.6 -635.317)" fill="#ff4398"/>
      <path id="Path_80" data-name="Path 80" d="M2081.03,2138.69a5.155,5.155,0,1,0,5.176,5.153,5.155,5.155,0,0,0-5.176-5.153Z" transform="translate(-1079.6 -636.655)" fill="#ff4398"/>
      <path id="Path_81" data-name="Path 81" d="M2041.5,2096.41a5.155,5.155,0,1,0-5.173-5.155,5.155,5.155,0,0,0,5.173,5.155Z" transform="translate(-1075.585 -631.32)" fill="#ff4398"/>
      <path id="Path_82" data-name="Path 82" d="M2028.44,2096.41a5.155,5.155,0,1,0-5.13-5.2,5.155,5.155,0,0,0,5.13,5.2Z" transform="translate(-1074.265 -631.32)" fill="#ff4398"/>
      <path id="Path_83" data-name="Path 83" d="M1988.86,2152a5.012,5.012,0,1,0,3.6,1.449A5.048,5.048,0,0,0,1988.86,2152Z" transform="translate(-1070.264 -638.004)" fill="#ff4398"/>
      <path id="Path_84" data-name="Path 84" d="M2015.24,2178.21a5.014,5.014,0,1,0,3.6,1.45,5.048,5.048,0,0,0-3.6-1.45Z" transform="translate(-1072.939 -640.663)" fill="#ff4398"/>
      <path id="Path_85" data-name="Path 85" d="M2054.7,2178.21a5.012,5.012,0,1,0,3.583,1.485A5.048,5.048,0,0,0,2054.7,2178.21Z" transform="translate(-1076.936 -640.663)" fill="#ff4398"/>
      <path id="Path_86" data-name="Path 86" d="M2081.21,2152.02a5.009,5.009,0,1,0,3.509,1.555,5.033,5.033,0,0,0-3.509-1.555Z" transform="translate(-1079.614 -638.006)" fill="#ff4398"/>
      <path id="Path_87" data-name="Path 87" d="M1988.86,2122.51a5,5,0,1,0-3.546-1.475,5.033,5.033,0,0,0,3.546,1.475Z" transform="translate(-1070.266 -633.992)" fill="#ff4398"/>
      <path id="Path_88" data-name="Path 88" d="M2015.29,2096.3a5,5,0,1,0-3.584-1.472A5.033,5.033,0,0,0,2015.29,2096.3Z" transform="translate(-1072.941 -631.334)" fill="#ff4398"/>
      <path id="Path_89" data-name="Path 89" d="M2081.09,2122.5a5.006,5.006,0,1,0-3.581-1.471A5.021,5.021,0,0,0,2081.09,2122.5Z" transform="translate(-1079.615 -633.994)" fill="#ff4398"/>
      <path id="Path_90" data-name="Path 90" d="M2054.74,2096.29a5.009,5.009,0,1,0-3.589-1.45A5.021,5.021,0,0,0,2054.74,2096.29Z" transform="translate(-1076.939 -631.335)" fill="#ff4398"/>
      <path id="Path_91" data-name="Path 91" d="M1988.93,2165.24a4.855,4.855,0,1,0,4.846,4.9,4.855,4.855,0,0,0-4.846-4.9Z" transform="translate(-1070.286 -639.347)" fill="#ff4398"/>
      <path id="Path_92" data-name="Path 92" d="M2002.15,2178.43a4.856,4.856,0,1,0,4.82,4.929A4.856,4.856,0,0,0,2002.15,2178.43Z" transform="translate(-1071.624 -640.685)" fill="#ff4398"/>
      <path id="Path_93" data-name="Path 93" d="M2081.1,2165.42a4.843,4.843,0,1,0,4.829,4.838,4.843,4.843,0,0,0-4.829-4.838Z" transform="translate(-1079.635 -639.365)" fill="#ff4398"/>
      <path id="Path_94" data-name="Path 94" d="M2002.11,2096.13a4.843,4.843,0,1,0-4.837-4.907,4.843,4.843,0,0,0,4.837,4.907Z" transform="translate(-1071.625 -631.355)" fill="#ff4398"/>
      <path id="Path_95" data-name="Path 95" d="M1988.89,2109.32a4.843,4.843,0,1,0-4.807-4.86,4.843,4.843,0,0,0,4.807,4.86Z" transform="translate(-1070.287 -632.693)" fill="#ff4398"/>
      <path id="Path_96" data-name="Path 96" d="M2067.91,2178.44a4.843,4.843,0,1,0,4.832,4.835A4.843,4.843,0,0,0,2067.91,2178.44Z" transform="translate(-1078.297 -640.687)" fill="#ff4398"/>
      <path id="Path_97" data-name="Path 97" d="M2081.09,2109.3a4.826,4.826,0,1,0-4.825-4.77A4.827,4.827,0,0,0,2081.09,2109.3Z" transform="translate(-1079.637 -632.695)" fill="#ff4398"/>
      <path id="Path_98" data-name="Path 98" d="M2067.81,2096.11a4.826,4.826,0,1,0-4.731-4.937,4.826,4.826,0,0,0,4.731,4.937Z" transform="translate(-1078.299 -631.357)" fill="#ff4398"/>
      <path id="Path_99" data-name="Path 99" d="M2028.42,2191.76a4.7,4.7,0,1,0,3.324,1.425A4.73,4.73,0,0,0,2028.42,2191.76Z" transform="translate(-1074.296 -642.037)" fill="#ff4398"/>
      <path id="Path_100" data-name="Path 100" d="M2041.62,2191.76a4.7,4.7,0,1,0,3.319,1.433,4.73,4.73,0,0,0-3.319-1.433Z" transform="translate(-1075.634 -642.037)" fill="#ff4398"/>
      <path id="Path_101" data-name="Path 101" d="M1975.81,2125.97a4.7,4.7,0,1,0,3.327,1.415,4.729,4.729,0,0,0-3.327-1.415Z" transform="translate(-1068.961 -635.365)" fill="#ff4398"/>
      <path id="Path_102" data-name="Path 102" d="M1975.77,2139.16a4.7,4.7,0,1,0,3.337,1.39,4.73,4.73,0,0,0-3.337-1.39Z" transform="translate(-1068.961 -636.702)" fill="#ff4398"/>
      <path id="Path_103" data-name="Path 103" d="M2094.08,2139.18a4.706,4.706,0,1,0,3.359,1.353,4.717,4.717,0,0,0-3.359-1.353Z" transform="translate(-1080.97 -636.704)" fill="#ff4398"/>
      <path id="Path_104" data-name="Path 104" d="M2028.51,2082.83a4.7,4.7,0,1,0-3.346-1.385,4.717,4.717,0,0,0,3.346,1.385Z" transform="translate(-1074.314 -630.032)" fill="#ff4398"/>
      <path id="Path_105" data-name="Path 105" d="M2094.27,2126a4.72,4.72,0,1,0,3.344,1.38A4.707,4.707,0,0,0,2094.27,2126Z" transform="translate(-1080.988 -635.367)" fill="#ff4398"/>
      <path id="Path_106" data-name="Path 106" d="M2041.5,2082.82a4.707,4.707,0,1,0-4.671-4.7A4.708,4.708,0,0,0,2041.5,2082.82Z" transform="translate(-1075.636 -630.033)" fill="#ff4398"/>
      <path id="Path_107" data-name="Path 107" d="M2054.73,2191.84a4.657,4.657,0,1,0,4.656,4.638A4.657,4.657,0,0,0,2054.73,2191.84Z" transform="translate(-1076.98 -642.045)" fill="#ff4398"/>
      <path id="Path_108" data-name="Path 108" d="M1975.8,2152.44a4.656,4.656,0,1,0,4.611,4.682A4.656,4.656,0,0,0,1975.8,2152.44Z" transform="translate(-1068.97 -638.049)" fill="#ff4398"/>
      <path id="Path_109" data-name="Path 109" d="M2015.33,2191.84a4.657,4.657,0,1,0,4.648,4.646A4.658,4.658,0,0,0,2015.33,2191.84Z" transform="translate(-1072.984 -642.045)" fill="#ff4398"/>
      <path id="Path_110" data-name="Path 110" d="M2094.16,2152.47a4.607,4.607,0,1,0,3.269,1.367A4.623,4.623,0,0,0,2094.16,2152.47Z" transform="translate(-1080.98 -638.053)" fill="#ff4398"/>
      <path id="Path_111" data-name="Path 111" d="M1975.73,2122.15a4.607,4.607,0,1,0-3.266-1.365,4.623,4.623,0,0,0,3.266,1.365Z" transform="translate(-1068.974 -634.039)" fill="#ff4398"/>
      <path id="Path_112" data-name="Path 112" d="M2094.33,2122.12a4.559,4.559,0,1,0-3.282-1.33A4.6,4.6,0,0,0,2094.33,2122.12Z" transform="translate(-1081 -634.042)" fill="#ff4398"/>
      <path id="Path_113" data-name="Path 113" d="M2015.27,2082.72a4.561,4.561,0,1,0-3.228-1.369,4.6,4.6,0,0,0,3.228,1.369Z" transform="translate(-1072.991 -630.045)" fill="#ff4398"/>
      <path id="Path_114" data-name="Path 114" d="M2054.76,2082.72a4.561,4.561,0,1,0-3.282-1.331A4.6,4.6,0,0,0,2054.76,2082.72Z" transform="translate(-1076.987 -630.045)" fill="#ff4398"/>
      <path id="Path_115" data-name="Path 115" d="M1989.06,2178.76a4.556,4.556,0,1,0,4.45,4.64,4.557,4.557,0,0,0-4.45-4.64Z" transform="translate(-1070.319 -640.719)" fill="#ff4398"/>
      <path id="Path_116" data-name="Path 116" d="M2081.09,2178.77a4.544,4.544,0,1,0,4.579,4.508A4.544,4.544,0,0,0,2081.09,2178.77Z" transform="translate(-1079.668 -640.72)" fill="#ff4398"/>
      <path id="Path_117" data-name="Path 117" d="M1988.98,2095.86a4.543,4.543,0,1,0-4.567-4.519A4.543,4.543,0,0,0,1988.98,2095.86Z" transform="translate(-1070.321 -631.389)" fill="#ff4398"/>
      <path id="Path_118" data-name="Path 118" d="M2081.11,2095.85a4.527,4.527,0,1,0-4.516-4.576,4.527,4.527,0,0,0,4.516,4.576Z" transform="translate(-1079.67 -631.391)" fill="#ff4398"/>
      <path id="Path_119" data-name="Path 119" d="M2068.09,2192.08a4.406,4.406,0,1,0,3.1,1.383A4.443,4.443,0,0,0,2068.09,2192.08Z" transform="translate(-1078.342 -642.069)" fill="#ff4398"/>
      <path id="Path_120" data-name="Path 120" d="M2002.2,2192.08a4.405,4.405,0,1,0,3.134,1.313A4.443,4.443,0,0,0,2002.2,2192.08Z" transform="translate(-1071.67 -642.069)" fill="#ff4398"/>
      <path id="Path_121" data-name="Path 121" d="M1975.83,2165.7a4.406,4.406,0,1,0,3.13,1.321,4.443,4.443,0,0,0-3.13-1.321Z" transform="translate(-1068.994 -639.393)" fill="#ff4398"/>
      <path id="Path_122" data-name="Path 122" d="M1975.91,2108.8a4.407,4.407,0,1,0-3.136-1.306,4.443,4.443,0,0,0,3.136,1.306Z" transform="translate(-1069.011 -632.721)" fill="#ff4398"/>
      <path id="Path_123" data-name="Path 123" d="M2002.19,2082.57a4.391,4.391,0,1,0-3.147-1.268,4.425,4.425,0,0,0,3.147,1.268Z" transform="translate(-1071.672 -630.064)" fill="#ff4398"/>
      <path id="Path_124" data-name="Path 124" d="M2094.17,2165.88a4.391,4.391,0,1,0,3.136,1.295,4.425,4.425,0,0,0-3.136-1.295Z" transform="translate(-1081.002 -639.413)" fill="#ff4398"/>
      <path id="Path_125" data-name="Path 125" d="M2067.89,2082.56a4.413,4.413,0,1,0-4.352-4.435,4.413,4.413,0,0,0,4.352,4.435Z" transform="translate(-1078.346 -630.066)" fill="#ff4398"/>
      <path id="Path_126" data-name="Path 126" d="M2094.24,2108.94a4.413,4.413,0,1,0-4.32-4.467,4.413,4.413,0,0,0,4.32,4.467Z" transform="translate(-1081.021 -632.742)" fill="#ff4398"/>
      <path id="Path_127" data-name="Path 127" d="M2041.59,2205.46a4.244,4.244,0,1,0,3.037,1.26A4.267,4.267,0,0,0,2041.59,2205.46Z" transform="translate(-1075.686 -643.427)" fill="#ff4398"/>
      <path id="Path_128" data-name="Path 128" d="M2028.39,2205.46a4.244,4.244,0,1,0,3.037,1.254A4.267,4.267,0,0,0,2028.39,2205.46Z" transform="translate(-1074.348 -643.427)" fill="#ff4398"/>
      <path id="Path_129" data-name="Path 129" d="M1962.77,2126.49a4.245,4.245,0,1,0,3.042,1.251A4.267,4.267,0,0,0,1962.77,2126.49Z" transform="translate(-1067.693 -635.417)" fill="#ff4398"/>
      <path id="Path_130" data-name="Path 130" d="M1962.78,2139.68a4.243,4.243,0,1,0,3.038,1.257A4.267,4.267,0,0,0,1962.78,2139.68Z" transform="translate(-1067.693 -636.755)" fill="#ff4398"/>
      <path id="Path_131" data-name="Path 131" d="M2107.38,2139.69a4.255,4.255,0,1,0,4.248,4.244A4.255,4.255,0,0,0,2107.38,2139.69Z" transform="translate(-1082.36 -636.756)" fill="#ff4398"/>
      <path id="Path_132" data-name="Path 132" d="M2107.43,2126.5a4.254,4.254,0,1,0,4.19,4.3,4.254,4.254,0,0,0-4.19-4.3Z" transform="translate(-1082.36 -635.418)" fill="#ff4398"/>
      <path id="Path_133" data-name="Path 133" d="M2041.6,2069.23a4.252,4.252,0,1,0-3.034-1.257,4.255,4.255,0,0,0,3.034,1.257Z" transform="translate(-1075.688 -628.746)" fill="#ff4398"/>
      <path id="Path_134" data-name="Path 134" d="M2028.55,2069.23a4.255,4.255,0,1,0-4.247-4.243A4.255,4.255,0,0,0,2028.55,2069.23Z" transform="translate(-1074.367 -628.746)" fill="#ff4398"/>
      <path id="Path_135" data-name="Path 135" d="M1975.99,2095.56a4.2,4.2,0,1,0-4.224-4.183,4.2,4.2,0,0,0,4.224,4.183Z" transform="translate(-1069.039 -631.428)" fill="#ff4398"/>
      <path id="Path_136" data-name="Path 136" d="M1975.84,2179.15a4.2,4.2,0,1,0,4.165,4.244,4.2,4.2,0,0,0-4.165-4.244Z" transform="translate(-1069.021 -640.758)" fill="#ff4398"/>
      <path id="Path_137" data-name="Path 137" d="M2054.78,2205.53a4.2,4.2,0,1,0,4.2,4.208,4.2,4.2,0,0,0-4.2-4.208Z" transform="translate(-1077.031 -643.434)" fill="#ff4398"/>
      <path id="Path_138" data-name="Path 138" d="M2015.39,2205.53a4.2,4.2,0,1,0,4.188,4.22A4.2,4.2,0,0,0,2015.39,2205.53Z" transform="translate(-1073.035 -643.434)" fill="#ff4398"/>
      <path id="Path_139" data-name="Path 139" d="M1962.76,2121.77a4.2,4.2,0,1,0-4.177-4.231,4.2,4.2,0,0,0,4.177,4.231Z" transform="translate(-1067.701 -634.086)" fill="#ff4398"/>
      <path id="Path_140" data-name="Path 140" d="M1962.76,2152.94a4.2,4.2,0,1,0,4.225,4.183,4.2,4.2,0,0,0-4.225-4.183Z" transform="translate(-1067.701 -638.1)" fill="#ff4398"/>
      <path id="Path_141" data-name="Path 141" d="M1988.99,2192.34a4.2,4.2,0,1,0,4.206,4.2,4.2,4.2,0,0,0-4.206-4.2Z" transform="translate(-1070.359 -642.096)" fill="#ff4398"/>
      <path id="Path_142" data-name="Path 142" d="M2081.19,2192.34a4.2,4.2,0,1,0,4.179,4.229,4.2,4.2,0,0,0-4.179-4.229Z" transform="translate(-1079.707 -642.096)" fill="#ff4398"/>
      <path id="Path_143" data-name="Path 143" d="M2094.29,2179.19a4.153,4.153,0,1,0,2.933,1.3,4.168,4.168,0,0,0-2.933-1.3Z" transform="translate(-1081.032 -640.763)" fill="#ff4398"/>
      <path id="Path_144" data-name="Path 144" d="M2107.4,2152.98a4.168,4.168,0,1,0,4.148,4.149A4.168,4.168,0,0,0,2107.4,2152.98Z" transform="translate(-1082.37 -638.104)" fill="#ff4398"/>
      <path id="Path_145" data-name="Path 145" d="M2094.35,2095.5a4.1,4.1,0,1,0-2.937-1.2A4.139,4.139,0,0,0,2094.35,2095.5Z" transform="translate(-1081.052 -631.435)" fill="#ff4398"/>
      <path id="Path_146" data-name="Path 146" d="M2081.16,2082.31a4.1,4.1,0,1,0-2.935-1.207A4.139,4.139,0,0,0,2081.16,2082.31Z" transform="translate(-1079.714 -630.097)" fill="#ff4398"/>
      <path id="Path_147" data-name="Path 147" d="M1988.89,2082.34a4.151,4.151,0,1,0-2.931-1.308,4.167,4.167,0,0,0,2.931,1.308Z" transform="translate(-1070.363 -630.094)" fill="#ff4398"/>
      <path id="Path_148" data-name="Path 148" d="M2015.23,2069.15a4.166,4.166,0,1,0-4.019-4.273,4.166,4.166,0,0,0,4.019,4.273Z" transform="translate(-1073.039 -628.756)" fill="#ff4398"/>
      <path id="Path_149" data-name="Path 149" d="M2054.75,2069.12a4.1,4.1,0,1,0-2.925-1.226A4.139,4.139,0,0,0,2054.75,2069.12Z" transform="translate(-1077.039 -628.759)" fill="#ff4398"/>
      <path id="Path_150" data-name="Path 150" d="M2107.4,2121.72a4.1,4.1,0,1,0-2.945-1.185A4.14,4.14,0,0,0,2107.4,2121.72Z" transform="translate(-1082.373 -634.093)" fill="#ff4398"/>
      <path id="Path_151" data-name="Path 151" d="M1962.83,2166.13a4.057,4.057,0,1,0,4.021,4.035A4.056,4.056,0,0,0,1962.83,2166.13Z" transform="translate(-1067.717 -639.437)" fill="#ff4398"/>
      <path id="Path_152" data-name="Path 152" d="M2002.26,2205.74a4.021,4.021,0,1,0,3.966,4.037A4.021,4.021,0,0,0,2002.26,2205.74Z" transform="translate(-1071.718 -643.455)" fill="#ff4398"/>
      <path id="Path_153" data-name="Path 153" d="M2067.96,2205.74a4.01,4.01,0,1,0,2.869,1.166,4.021,4.021,0,0,0-2.869-1.166Z" transform="translate(-1078.39 -643.455)" fill="#ff4398"/>
      <path id="Path_154" data-name="Path 154" d="M2107.47,2166.37a3.955,3.955,0,1,0,2.812,1.207A3.99,3.99,0,0,0,2107.47,2166.37Z" transform="translate(-1082.39 -639.462)" fill="#ff4398"/>
      <path id="Path_155" data-name="Path 155" d="M2107.43,2108.56a3.952,3.952,0,1,0-2.842-1.134A3.99,3.99,0,0,0,2107.43,2108.56Z" transform="translate(-1082.39 -632.79)" fill="#ff4398"/>
      <path id="Path_156" data-name="Path 156" d="M1962.86,2108.42a4.009,4.009,0,1,0-2.878-1.145A4.021,4.021,0,0,0,1962.86,2108.42Z" transform="translate(-1067.721 -632.769)" fill="#ff4398"/>
      <path id="Path_157" data-name="Path 157" d="M2002.23,2068.99a3.952,3.952,0,1,0-2.84-1.139,3.99,3.99,0,0,0,2.84,1.139Z" transform="translate(-1071.721 -628.776)" fill="#ff4398"/>
      <path id="Path_158" data-name="Path 158" d="M2067.98,2068.97a3.939,3.939,0,1,0-2.825-1.177A3.969,3.969,0,0,0,2067.98,2068.97Z" transform="translate(-1078.396 -628.778)" fill="#ff4398"/>
      <path id="Path_159" data-name="Path 159" d="M1975.88,2192.72a3.865,3.865,0,1,0,3.828,3.882A3.865,3.865,0,0,0,1975.88,2192.72Z" transform="translate(-1069.059 -642.135)" fill="#ff4398"/>
      <path id="Path_160" data-name="Path 160" d="M1975.98,2082.04a3.8,3.8,0,1,0-2.718-1.143A3.833,3.833,0,0,0,1975.98,2082.04Z" transform="translate(-1069.08 -630.131)" fill="#ff4398"/>
      <path id="Path_161" data-name="Path 161" d="M2094.25,2192.75a3.8,3.8,0,1,0,2.721,1.137A3.834,3.834,0,0,0,2094.25,2192.75Z" transform="translate(-1081.069 -642.138)" fill="#ff4398"/>
      <path id="Path_162" data-name="Path 162" d="M2094.35,2082.03a3.786,3.786,0,1,0-2.686-1.133A3.814,3.814,0,0,0,2094.35,2082.03Z" transform="translate(-1081.089 -630.134)" fill="#ff4398"/>
      <path id="Path_163" data-name="Path 163" d="M1962.83,2179.6a3.8,3.8,0,1,0,3.8,3.745,3.8,3.8,0,0,0-3.8-3.745Z" transform="translate(-1067.746 -640.804)" fill="#ff4398"/>
      <path id="Path_164" data-name="Path 164" d="M1989.01,2205.98a3.8,3.8,0,1,0,2.7,1.1,3.8,3.8,0,0,0-2.7-1.1Z" transform="translate(-1070.405 -643.479)" fill="#ff4398"/>
      <path id="Path_165" data-name="Path 165" d="M2028.41,2219.19a3.787,3.787,0,1,0,3.823,3.731,3.788,3.788,0,0,0-3.823-3.731Z" transform="translate(-1074.402 -644.819)" fill="#ff4398"/>
      <path id="Path_166" data-name="Path 166" d="M2041.68,2219.19a3.788,3.788,0,1,0,3.74,3.816,3.788,3.788,0,0,0-3.74-3.816Z" transform="translate(-1075.74 -644.819)" fill="#ff4398"/>
      <path id="Path_167" data-name="Path 167" d="M1949.61,2127.02a3.787,3.787,0,1,0,3.818,3.737A3.787,3.787,0,0,0,1949.61,2127.02Z" transform="translate(-1066.41 -635.471)" fill="#ff4398"/>
      <path id="Path_168" data-name="Path 168" d="M1962.84,2095.19a3.814,3.814,0,1,0-2.693-1.133,3.788,3.788,0,0,0,2.693,1.133Z" transform="translate(-1067.748 -631.474)" fill="#ff4398"/>
      <path id="Path_169" data-name="Path 169" d="M2107.49,2179.62a3.787,3.787,0,1,0,3.722,3.833,3.787,3.787,0,0,0-3.722-3.833Z" transform="translate(-1082.412 -640.806)" fill="#ff4398"/>
      <path id="Path_170" data-name="Path 170" d="M2081.22,2206a3.787,3.787,0,1,0,3.773,3.782,3.787,3.787,0,0,0-3.773-3.782Z" transform="translate(-1079.754 -643.481)" fill="#ff4398"/>
      <path id="Path_171" data-name="Path 171" d="M1949.64,2140.21a3.787,3.787,0,1,0,3.788,3.767,3.786,3.786,0,0,0-3.788-3.767Z" transform="translate(-1066.41 -636.809)" fill="#ff4398"/>
      <path id="Path_172" data-name="Path 172" d="M2107.45,2095.18a3.768,3.768,0,1,0-3.79-3.766,3.808,3.808,0,0,0,3.791,3.766Z" transform="translate(-1082.415 -631.477)" fill="#ff4398"/>
      <path id="Path_173" data-name="Path 173" d="M2120.63,2127.04a3.768,3.768,0,1,0,3.756,3.8,3.809,3.809,0,0,0-3.756-3.8Z" transform="translate(-1083.752 -635.473)" fill="#ff4398"/>
      <path id="Path_174" data-name="Path 174" d="M2120.6,2140.23a3.768,3.768,0,1,0,3.783,3.773,3.807,3.807,0,0,0-3.783-3.773Z" transform="translate(-1083.752 -636.811)" fill="#ff4398"/>
      <path id="Path_175" data-name="Path 175" d="M2081.22,2068.79a3.768,3.768,0,1,0-3.777-3.779,3.808,3.808,0,0,0,3.777,3.779Z" transform="translate(-1079.756 -628.801)" fill="#ff4398"/>
      <path id="Path_176" data-name="Path 176" d="M2041.61,2055.6a3.768,3.768,0,1,0-3.743-3.812A3.81,3.81,0,0,0,2041.61,2055.6Z" transform="translate(-1075.742 -627.463)" fill="#ff4398"/>
      <path id="Path_177" data-name="Path 177" d="M2028.57,2055.6a3.768,3.768,0,1,0-3.725-3.754,3.81,3.81,0,0,0,3.725,3.754Z" transform="translate(-1074.422 -627.463)" fill="#ff4398"/>
      <path id="Path_178" data-name="Path 178" d="M1989.03,2068.79a3.768,3.768,0,1,0-3.753-3.8,3.81,3.81,0,0,0,3.753,3.8Z" transform="translate(-1070.408 -628.801)" fill="#ff4398"/>
      <path id="Path_179" data-name="Path 179" d="M2015.41,2219.29a3.667,3.667,0,1,0,2.637,1.068,3.7,3.7,0,0,0-2.637-1.068Z" transform="translate(-1073.092 -644.829)" fill="#ff4398"/>
      <path id="Path_180" data-name="Path 180" d="M2054.92,2219.29a3.668,3.668,0,1,0,2.6,1.141,3.7,3.7,0,0,0-2.6-1.141Z" transform="translate(-1077.088 -644.829)" fill="#ff4398"/>
      <path id="Path_181" data-name="Path 181" d="M1949.53,2121.32a3.668,3.668,0,1,0-2.6-1.162,3.7,3.7,0,0,0,2.6,1.162Z" transform="translate(-1066.419 -634.143)" fill="#ff4398"/>
      <path id="Path_182" data-name="Path 182" d="M1949.66,2153.5a3.667,3.667,0,1,0,2.626,1.092,3.7,3.7,0,0,0-2.626-1.092Z" transform="translate(-1066.419 -638.157)" fill="#ff4398"/>
      <path id="Path_183" data-name="Path 183" d="M2120.64,2121.3a3.672,3.672,0,1,0-3.684-3.716,3.634,3.634,0,0,0,3.684,3.716Z" transform="translate(-1083.764 -634.146)" fill="#ff4398"/>
      <path id="Path_184" data-name="Path 184" d="M2015.46,2055.52a3.672,3.672,0,1,0-3.7-3.7,3.633,3.633,0,0,0,3.7,3.7Z" transform="translate(-1073.095 -627.474)" fill="#ff4398"/>
      <path id="Path_185" data-name="Path 185" d="M2120.67,2153.53a3.672,3.672,0,1,0,3.623,3.7,3.634,3.634,0,0,0-3.623-3.7Z" transform="translate(-1083.764 -638.16)" fill="#ff4398"/>
      <path id="Path_186" data-name="Path 186" d="M2054.89,2055.5a3.638,3.638,0,1,0-2.6-1.032,3.655,3.655,0,0,0,2.6,1.032Z" transform="translate(-1077.093 -627.476)" fill="#ff4398"/>
      <path id="Path_187" data-name="Path 187" d="M2002.25,2219.44a3.54,3.54,0,1,0,2.53,1.04,3.559,3.559,0,0,0-2.53-1.04Z" transform="translate(-1071.77 -644.844)" fill="#ff4398"/>
      <path id="Path_188" data-name="Path 188" d="M2068.04,2219.44a3.539,3.539,0,1,0,2.531,1.038,3.559,3.559,0,0,0-2.531-1.038Z" transform="translate(-1078.442 -644.844)" fill="#ff4398"/>
      <path id="Path_189" data-name="Path 189" d="M1949.67,2166.68a3.54,3.54,0,1,0,2.528,1.045,3.559,3.559,0,0,0-2.528-1.045Z" transform="translate(-1066.436 -639.493)" fill="#ff4398"/>
      <path id="Path_190" data-name="Path 190" d="M2002.25,2055.39a3.528,3.528,0,1,0-3.51-3.6,3.493,3.493,0,0,0,3.51,3.6Z" transform="translate(-1071.773 -627.49)" fill="#ff4398"/>
      <path id="Path_191" data-name="Path 191" d="M1949.72,2107.98a3.494,3.494,0,1,0-2.539-1.007A3.528,3.528,0,0,0,1949.72,2107.98Z" transform="translate(-1066.439 -632.824)" fill="#ff4398"/>
      <path id="Path_192" data-name="Path 192" d="M2120.62,2166.88a3.527,3.527,0,1,0,3.546,3.489,3.492,3.492,0,0,0-3.546-3.489Z" transform="translate(-1083.78 -639.514)" fill="#ff4398"/>
      <path id="Path_193" data-name="Path 193" d="M2067.96,2055.37a3.507,3.507,0,1,0-3.415-3.541A3.507,3.507,0,0,0,2067.96,2055.37Z" transform="translate(-1078.448 -627.492)" fill="#ff4398"/>
      <path id="Path_194" data-name="Path 194" d="M2120.61,2108.13a3.507,3.507,0,1,0-3.469-3.487,3.507,3.507,0,0,0,3.469,3.487Z" transform="translate(-1083.782 -632.844)" fill="#ff4398"/>
      <path id="Path_195" data-name="Path 195" d="M1975.86,2206.32a3.5,3.5,0,1,0,2.487,1.024,3.493,3.493,0,0,0-2.487-1.024Z" transform="translate(-1069.101 -643.514)" fill="#ff4398"/>
      <path id="Path_196" data-name="Path 196" d="M2094.27,2206.32a3.5,3.5,0,1,0,2.478,1.047,3.493,3.493,0,0,0-2.478-1.047Z" transform="translate(-1081.108 -643.514)" fill="#ff4398"/>
      <path id="Path_197" data-name="Path 197" d="M1962.88,2193.13a3.493,3.493,0,1,0,3.476,3.473,3.493,3.493,0,0,0-3.476-3.473Z" transform="translate(-1067.78 -642.176)" fill="#ff4398"/>
      <path id="Path_198" data-name="Path 198" d="M2107.43,2193.15a3.477,3.477,0,1,0,3.5,3.449A3.514,3.514,0,0,0,2107.43,2193.15Z" transform="translate(-1082.448 -642.178)" fill="#ff4398"/>
      <path id="Path_199" data-name="Path 199" d="M1976.07,2068.53a3.477,3.477,0,1,0-3.5-3.458,3.477,3.477,0,0,0,3.5,3.458Z" transform="translate(-1069.12 -628.834)" fill="#ff4398"/>
      <path id="Path_200" data-name="Path 200" d="M1962.89,2081.73a3.477,3.477,0,1,0-3.505-3.448,3.477,3.477,0,0,0,3.505,3.448Z" transform="translate(-1067.782 -630.172)" fill="#ff4398"/>
      <path id="Path_201" data-name="Path 201" d="M2094.49,2068.51a3.452,3.452,0,1,0-3.5-3.458,3.49,3.49,0,0,0,3.5,3.458Z" transform="translate(-1081.129 -628.836)" fill="#ff4398"/>
      <path id="Path_202" data-name="Path 202" d="M2107.47,2081.7a3.451,3.451,0,1,0-3.466-3.5,3.489,3.489,0,0,0,3.466,3.5Z" transform="translate(-1082.451 -630.175)" fill="#ff4398"/>
      <path id="Path_203" data-name="Path 203" d="M1949.7,2180.11a3.341,3.341,0,1,0,3.333,3.329,3.341,3.341,0,0,0-3.333-3.329Z" transform="translate(-1066.46 -640.856)" fill="#ff4398"/>
      <path id="Path_204" data-name="Path 204" d="M1949.67,2094.8a3.351,3.351,0,1,0-2.373-1.017,3.341,3.341,0,0,0,2.373,1.017Z" transform="translate(-1066.459 -631.525)" fill="#ff4398"/>
      <path id="Path_205" data-name="Path 205" d="M2081.29,2219.69a3.341,3.341,0,1,0,3.312,3.351A3.341,3.341,0,0,0,2081.29,2219.69Z" transform="translate(-1079.804 -644.869)" fill="#ff4398"/>
      <path id="Path_206" data-name="Path 206" d="M1989.12,2219.69a3.341,3.341,0,1,0,3.309,3.354A3.341,3.341,0,0,0,1989.12,2219.69Z" transform="translate(-1070.457 -644.87)" fill="#ff4398"/>
      <path id="Path_207" data-name="Path 207" d="M2120.6,2094.78a3.323,3.323,0,1,0-3.258-3.331,3.361,3.361,0,0,0,3.258,3.331Z" transform="translate(-1083.803 -631.527)" fill="#ff4398"/>
      <path id="Path_208" data-name="Path 208" d="M1989.1,2055.21a3.323,3.323,0,1,0-3.331-3.333A3.358,3.358,0,0,0,1989.1,2055.21Z" transform="translate(-1070.458 -627.513)" fill="#ff4398"/>
      <path id="Path_209" data-name="Path 209" d="M2081.27,2055.38a3.323,3.323,0,1,0-3.335-3.329,3.358,3.358,0,0,0,3.335,3.329Z" transform="translate(-1079.806 -627.531)" fill="#ff4398"/>
      <path id="Path_210" data-name="Path 210" d="M2120.7,2180.13a3.323,3.323,0,1,0,3.283,3.381A3.359,3.359,0,0,0,2120.7,2180.13Z" transform="translate(-1083.803 -640.858)" fill="#ff4398"/>
      <path id="Path_211" data-name="Path 211" d="M2028.56,2232.76a3.3,3.3,0,1,0,3.233,3.357,3.3,3.3,0,0,0-3.233-3.357Z" transform="translate(-1074.458 -646.195)" fill="#ff4398"/>
      <path id="Path_212" data-name="Path 212" d="M2041.66,2232.76a3.3,3.3,0,1,0,3.329,3.26A3.3,3.3,0,0,0,2041.66,2232.76Z" transform="translate(-1075.796 -646.196)" fill="#ff4398"/>
      <path id="Path_213" data-name="Path 213" d="M1936.65,2127.62a3.222,3.222,0,1,0,2.251,1.027A3.249,3.249,0,0,0,1936.65,2127.62Z" transform="translate(-1065.132 -635.532)" fill="#ff4398"/>
      <path id="Path_214" data-name="Path 214" d="M1936.59,2140.81a3.223,3.223,0,1,0,2.295,1.016,3.251,3.251,0,0,0-2.295-1.016Z" transform="translate(-1065.132 -636.869)" fill="#ff4398"/>
      <path id="Path_215" data-name="Path 215" d="M2133.9,2140.85a3.218,3.218,0,1,0,3.189,3.247,3.182,3.182,0,0,0-3.189-3.247Z" transform="translate(-1085.153 -636.873)" fill="#ff4398"/>
      <path id="Path_216" data-name="Path 216" d="M2133.9,2127.66a3.218,3.218,0,1,0,3.189,3.247,3.182,3.182,0,0,0-3.189-3.247Z" transform="translate(-1085.153 -635.535)" fill="#ff4398"/>
      <path id="Path_217" data-name="Path 217" d="M2028.65,2042.09a3.218,3.218,0,1,0-3.189-3.247,3.183,3.183,0,0,0,3.189,3.247Z" transform="translate(-1074.484 -626.204)" fill="#ff4398"/>
      <path id="Path_218" data-name="Path 218" d="M2041.84,2042.09a3.218,3.218,0,1,0-3.193-3.244,3.181,3.181,0,0,0,3.193,3.244Z" transform="translate(-1075.822 -626.204)" fill="#ff4398"/>
      <path id="Path_219" data-name="Path 219" d="M2015.51,2232.87a3.185,3.185,0,1,0,2.273.961,3.2,3.2,0,0,0-2.273-.961Z" transform="translate(-1073.148 -646.206)" fill="#ff4398"/>
      <path id="Path_220" data-name="Path 220" d="M2054.86,2232.87a3.184,3.184,0,1,0,2.29.92,3.2,3.2,0,0,0-2.29-.92Z" transform="translate(-1077.145 -646.206)" fill="#ff4398"/>
      <path id="Path_221" data-name="Path 221" d="M1936.55,2154.06a3.2,3.2,0,1,0,3.166,3.193,3.2,3.2,0,0,0-3.166-3.193Z" transform="translate(-1065.138 -638.213)" fill="#ff4398"/>
      <path id="Path_222" data-name="Path 222" d="M2015.46,2042.06a3.183,3.183,0,1,0-3.15-3.217,3.183,3.183,0,0,0,3.15,3.217Z" transform="translate(-1073.15 -626.208)" fill="#ff4398"/>
      <path id="Path_223" data-name="Path 223" d="M1936.5,2120.87a3.183,3.183,0,1,0-3.169-3.2,3.183,3.183,0,0,0,3.169,3.2Z" transform="translate(-1065.14 -634.201)" fill="#ff4398"/>
      <path id="Path_224" data-name="Path 224" d="M2133.85,2154.08a3.183,3.183,0,1,0,3.2,3.163A3.183,3.183,0,0,0,2133.85,2154.08Z" transform="translate(-1085.157 -638.215)" fill="#ff4398"/>
      <path id="Path_225" data-name="Path 225" d="M2133.87,2120.85a3.163,3.163,0,1,0-3.159-3.146,3.2,3.2,0,0,0,3.159,3.146Z" transform="translate(-1085.159 -634.204)" fill="#ff4398"/>
      <path id="Path_226" data-name="Path 226" d="M2054.92,2042.04a3.163,3.163,0,1,0-3.181-3.2A3.206,3.206,0,0,0,2054.92,2042.04Z" transform="translate(-1077.149 -626.21)" fill="#ff4398"/>
      <path id="Path_227" data-name="Path 227" d="M2107.64,2206.74a3.125,3.125,0,1,0,2.985,3.2,3.125,3.125,0,0,0-2.985-3.2Z" transform="translate(-1082.487 -643.555)" fill="#ff4398"/>
      <path id="Path_228" data-name="Path 228" d="M1962.9,2206.73a3.127,3.127,0,1,0,3.126,3.071,3.127,3.127,0,0,0-3.126-3.071Z" transform="translate(-1067.822 -643.556)" fill="#ff4398"/>
      <path id="Path_229" data-name="Path 229" d="M2107.49,2068.19a3.081,3.081,0,1,0-3.074-3.088,3.048,3.048,0,0,0,3.074,3.088Z" transform="translate(-1082.492 -628.878)" fill="#ff4398"/>
      <path id="Path_230" data-name="Path 230" d="M1962.92,2068.19a3.081,3.081,0,1,0-3.1-3.067,3.048,3.048,0,0,0,3.1,3.067Z" transform="translate(-1067.827 -628.878)" fill="#ff4398"/>
      <path id="Path_231" data-name="Path 231" d="M1936.63,2167.24a3.028,3.028,0,1,0,2.152.971A3.055,3.055,0,0,0,1936.63,2167.24Z" transform="translate(-1065.154 -639.55)" fill="#ff4398"/>
      <path id="Path_232" data-name="Path 232" d="M1975.94,2220a3.055,3.055,0,1,0,3.052,3.02,3.025,3.025,0,0,0-3.052-3.02Z" transform="translate(-1069.151 -644.902)" fill="#ff4398"/>
      <path id="Path_233" data-name="Path 233" d="M2002.35,2233.02a3.026,3.026,0,1,0,2.143.9,3.054,3.054,0,0,0-2.143-.9Z" transform="translate(-1071.827 -646.223)" fill="#ff4398"/>
      <path id="Path_234" data-name="Path 234" d="M1949.75,2193.62a3.055,3.055,0,1,0,3.027,3.044,3.023,3.023,0,0,0-3.027-3.044Z" transform="translate(-1066.492 -642.226)" fill="#ff4398"/>
      <path id="Path_235" data-name="Path 235" d="M1936.55,2107.55a3.038,3.038,0,1,0-3.055-3.019A3.038,3.038,0,0,0,1936.55,2107.55Z" transform="translate(-1065.156 -632.88)" fill="#ff4398"/>
      <path id="Path_236" data-name="Path 236" d="M2068.09,2233.04a3.038,3.038,0,1,0,3.046,3.029A3.038,3.038,0,0,0,2068.09,2233.04Z" transform="translate(-1078.5 -646.224)" fill="#ff4398"/>
      <path id="Path_237" data-name="Path 237" d="M2133.9,2167.43a3.038,3.038,0,1,0,3.027,3.049,3.038,3.038,0,0,0-3.027-3.049Z" transform="translate(-1085.173 -639.569)" fill="#ff4398"/>
      <path id="Path_238" data-name="Path 238" d="M1949.69,2081.34a3.038,3.038,0,1,0-3.006-3.07A3.038,3.038,0,0,0,1949.69,2081.34Z" transform="translate(-1066.494 -630.221)" fill="#ff4398"/>
      <path id="Path_239" data-name="Path 239" d="M1976.08,2054.96a3.038,3.038,0,1,0-3.013-3.062A3.038,3.038,0,0,0,1976.08,2054.96Z" transform="translate(-1069.17 -627.545)" fill="#ff4398"/>
      <path id="Path_240" data-name="Path 240" d="M2094.32,2220.02a3.038,3.038,0,1,0,3.028,3.047,3.038,3.038,0,0,0-3.028-3.047Z" transform="translate(-1081.16 -644.904)" fill="#ff4398"/>
      <path id="Path_241" data-name="Path 241" d="M2120.67,2193.64a3.038,3.038,0,1,0,3.07,3.007,3.038,3.038,0,0,0-3.07-3.007Z" transform="translate(-1083.835 -642.228)" fill="#ff4398"/>
      <path id="Path_242" data-name="Path 242" d="M2120.66,2081.32a3.019,3.019,0,1,0-2.984-3.091,3.055,3.055,0,0,0,2.984,3.091Z" transform="translate(-1083.837 -630.223)" fill="#ff4398"/>
      <path id="Path_243" data-name="Path 243" d="M2133.88,2107.7a3.019,3.019,0,1,0-3.009-3.068,3.056,3.056,0,0,0,3.009,3.068Z" transform="translate(-1085.175 -632.899)" fill="#ff4398"/>
      <path id="Path_244" data-name="Path 244" d="M2094.49,2055.11a3.02,3.02,0,1,0-3.022-3.054,3.057,3.057,0,0,0,3.022,3.054Z" transform="translate(-1081.179 -627.564)" fill="#ff4398"/>
      <path id="Path_245" data-name="Path 245" d="M2002.31,2041.92a3.019,3.019,0,1,0-3.008-3.07,3.057,3.057,0,0,0,3.008,3.07Z" transform="translate(-1071.83 -626.227)" fill="#ff4398"/>
      <path id="Path_246" data-name="Path 246" d="M2068.09,2041.92a3.019,3.019,0,1,0-3.006-3.07,3.056,3.056,0,0,0,3.006,3.07Z" transform="translate(-1078.503 -626.227)" fill="#ff4398"/>
      <path id="Path_247" data-name="Path 247" d="M1989.18,2233.23a2.87,2.87,0,1,0,2.833,2.889A2.9,2.9,0,0,0,1989.18,2233.23Z" transform="translate(-1070.51 -646.243)" fill="#ff4398"/>
      <path id="Path_248" data-name="Path 248" d="M2133.88,2180.67a2.839,2.839,0,1,0,2.873,2.822,2.87,2.87,0,0,0-2.873-2.822Z" transform="translate(-1085.196 -640.912)" fill="#ff4398"/>
      <path id="Path_249" data-name="Path 249" d="M1936.63,2180.67a2.839,2.839,0,1,0,2.767,2.853,2.873,2.873,0,0,0-2.767-2.853Z" transform="translate(-1065.178 -640.912)" fill="#ff4398"/>
      <path id="Path_250" data-name="Path 250" d="M2081.39,2233.27a2.839,2.839,0,1,0,2.769,2.851,2.872,2.872,0,0,0-2.769-2.851Z" transform="translate(-1079.861 -646.247)" fill="#ff4398"/>
      <path id="Path_251" data-name="Path 251" d="M1936.55,2094.35a2.839,2.839,0,1,0-2.831-2.865,2.874,2.874,0,0,0,2.831,2.865Z" transform="translate(-1065.179 -631.582)" fill="#ff4398"/>
      <path id="Path_252" data-name="Path 252" d="M1989.17,2041.71a2.762,2.762,0,1,0-1.983-.8,2.787,2.787,0,0,0,1.983.8Z" transform="translate(-1070.519 -626.253)" fill="#ff4398"/>
      <path id="Path_253" data-name="Path 253" d="M2081.35,2041.71a2.764,2.764,0,1,0-1.987-.789,2.788,2.788,0,0,0,1.987.789Z" transform="translate(-1079.867 -626.253)" fill="#ff4398"/>
      <path id="Path_254" data-name="Path 254" d="M2133.94,2094.31a2.763,2.763,0,1,0-1.985-.792,2.788,2.788,0,0,0,1.985.792Z" transform="translate(-1085.201 -631.587)" fill="#ff4398"/>
      <path id="Path_255" data-name="Path 255" d="M2041.79,2246.6a2.714,2.714,0,1,0,2.686,2.742,2.753,2.753,0,0,0-2.686-2.742Z" transform="translate(-1075.861 -647.599)" fill="#ff4398"/>
      <path id="Path_256" data-name="Path 256" d="M2028.55,2246.6a2.714,2.714,0,1,0,2.734,2.694,2.753,2.753,0,0,0-2.734-2.694Z" transform="translate(-1074.523 -647.599)" fill="#ff4398"/>
      <path id="Path_257" data-name="Path 257" d="M1923.38,2141.41a2.714,2.714,0,1,0,2.714,2.714A2.753,2.753,0,0,0,1923.38,2141.41Z" transform="translate(-1063.855 -636.93)" fill="#ff4398"/>
      <path id="Path_258" data-name="Path 258" d="M1923.41,2128.22a2.714,2.714,0,1,0,2.686,2.742A2.753,2.753,0,0,0,1923.41,2128.22Z" transform="translate(-1063.855 -635.592)" fill="#ff4398"/>
      <path id="Path_259" data-name="Path 259" d="M1962.93,2220.38a2.714,2.714,0,1,0,2.738,2.69,2.751,2.751,0,0,0-2.738-2.69Z" transform="translate(-1067.869 -644.94)" fill="#ff4398"/>
      <path id="Path_260" data-name="Path 260" d="M1949.75,2207.19a2.714,2.714,0,1,0,2.726,2.7,2.752,2.752,0,0,0-2.726-2.7Z" transform="translate(-1066.531 -643.602)" fill="#ff4398"/>
      <path id="Path_261" data-name="Path 261" d="M2147.17,2141.45a2.678,2.678,0,1,0,2.622,2.713,2.678,2.678,0,0,0-2.622-2.713Z" transform="translate(-1086.552 -636.934)" fill="#ff4398"/>
      <path id="Path_262" data-name="Path 262" d="M2107.57,2220.42a2.677,2.677,0,1,0,2.653,2.683A2.677,2.677,0,0,0,2107.57,2220.42Z" transform="translate(-1082.538 -644.944)" fill="#ff4398"/>
      <path id="Path_263" data-name="Path 263" d="M2147.11,2128.26a2.678,2.678,0,1,0,2.682,2.654A2.678,2.678,0,0,0,2147.11,2128.26Z" transform="translate(-1086.551 -635.596)" fill="#ff4398"/>
      <path id="Path_264" data-name="Path 264" d="M1962.88,2054.64a2.677,2.677,0,1,0-2.606-2.729,2.677,2.677,0,0,0,2.606,2.729Z" transform="translate(-1067.873 -627.586)" fill="#ff4398"/>
      <path id="Path_265" data-name="Path 265" d="M2107.48,2054.8a2.677,2.677,0,1,0-2.609-2.724,2.677,2.677,0,0,0,2.609,2.724Z" transform="translate(-1082.538 -627.603)" fill="#ff4398"/>
      <path id="Path_266" data-name="Path 266" d="M2028.77,2028.42a2.677,2.677,0,1,0-2.708-2.628,2.677,2.677,0,0,0,2.708,2.628Z" transform="translate(-1074.544 -624.927)" fill="#ff4398"/>
      <path id="Path_267" data-name="Path 267" d="M2041.9,2028.42a2.677,2.677,0,1,0-2.65-2.686A2.677,2.677,0,0,0,2041.9,2028.42Z" transform="translate(-1075.883 -624.927)" fill="#ff4398"/>
      <path id="Path_268" data-name="Path 268" d="M1949.75,2067.83a2.677,2.677,0,1,0-2.662-2.674,2.677,2.677,0,0,0,2.662,2.674Z" transform="translate(-1066.535 -628.924)" fill="#ff4398"/>
      <path id="Path_269" data-name="Path 269" d="M2120.73,2207.23a2.677,2.677,0,1,0,2.684,2.651A2.677,2.677,0,0,0,2120.73,2207.23Z" transform="translate(-1083.875 -643.606)" fill="#ff4398"/>
      <path id="Path_270" data-name="Path 270" d="M2120.69,2067.78a2.625,2.625,0,1,0-2.57-2.7,2.59,2.59,0,0,0,2.57,2.7Z" transform="translate(-1083.882 -628.93)" fill="#ff4398"/>
      <path id="Path_271" data-name="Path 271" d="M1923.38,2154.7a2.625,2.625,0,1,0,2.636,2.632,2.589,2.589,0,0,0-2.636-2.632Z" transform="translate(-1063.865 -638.278)" fill="#ff4398"/>
      <path id="Path_272" data-name="Path 272" d="M2054.95,2246.7a2.624,2.624,0,1,0,2.633,2.635,2.588,2.588,0,0,0-2.633-2.635Z" transform="translate(-1077.209 -647.609)" fill="#ff4398"/>
      <path id="Path_273" data-name="Path 273" d="M2015.53,2246.7a2.624,2.624,0,1,0,2.651,2.617,2.59,2.59,0,0,0-2.651-2.617Z" transform="translate(-1073.213 -647.609)" fill="#ff4398"/>
      <path id="Path_274" data-name="Path 274" d="M2015.58,2028.35a2.6,2.6,0,1,0-2.616-2.574,2.571,2.571,0,0,0,2.616,2.574Z" transform="translate(-1073.216 -624.937)" fill="#ff4398"/>
      <path id="Path_275" data-name="Path 275" d="M2147.15,2154.73a2.6,2.6,0,1,0,2.576,2.614,2.568,2.568,0,0,0-2.576-2.614Z" transform="translate(-1086.561 -638.281)" fill="#ff4398"/>
      <path id="Path_276" data-name="Path 276" d="M1923.38,2120.35a2.6,2.6,0,1,0-2.58-2.61,2.568,2.568,0,0,0,2.58,2.61Z" transform="translate(-1063.868 -634.268)" fill="#ff4398"/>
      <path id="Path_277" data-name="Path 277" d="M1936.59,2194.16a2.576,2.576,0,1,0,2.573,2.559,2.575,2.575,0,0,0-2.573-2.559Z" transform="translate(-1065.208 -642.28)" fill="#ff4398"/>
      <path id="Path_278" data-name="Path 278" d="M1976.01,2233.56a2.576,2.576,0,1,0,2.553,2.581,2.576,2.576,0,0,0-2.553-2.581Z" transform="translate(-1069.205 -646.276)" fill="#ff4398"/>
      <path id="Path_279" data-name="Path 279" d="M2147.13,2120.5a2.576,2.576,0,1,0-2.574-2.559A2.576,2.576,0,0,0,2147.13,2120.5Z" transform="translate(-1086.563 -634.287)" fill="#ff4398"/>
      <path id="Path_280" data-name="Path 280" d="M2055.01,2028.33a2.6,2.6,0,1,0-1.848-.75A2.576,2.576,0,0,0,2055.01,2028.33Z" transform="translate(-1077.215 -624.939)" fill="#ff4398"/>
      <path id="Path_281" data-name="Path 281" d="M2133.95,2194.19a2.549,2.549,0,1,0,2.546,2.571,2.59,2.59,0,0,0-2.546-2.571Z" transform="translate(-1085.228 -642.283)" fill="#ff4398"/>
      <path id="Path_282" data-name="Path 282" d="M2094.38,2233.59a2.549,2.549,0,1,0,2.539,2.577,2.59,2.59,0,0,0-2.539-2.577Z" transform="translate(-1081.214 -646.28)" fill="#ff4398"/>
      <path id="Path_283" data-name="Path 283" d="M1976.17,2041.5a2.549,2.549,0,1,0-2.561-2.554,2.585,2.585,0,0,0,2.561,2.554Z" transform="translate(-1069.225 -626.28)" fill="#ff4398"/>
      <path id="Path_284" data-name="Path 284" d="M1936.59,2080.9a2.548,2.548,0,1,0-2.549-2.566A2.588,2.588,0,0,0,1936.59,2080.9Z" transform="translate(-1065.211 -630.277)" fill="#ff4398"/>
      <path id="Path_285" data-name="Path 285" d="M2133.86,2080.85a2.495,2.495,0,1,0-2.4-2.6,2.47,2.47,0,0,0,2.4,2.6Z" transform="translate(-1085.234 -630.283)" fill="#ff4398"/>
      <path id="Path_286" data-name="Path 286" d="M1923.55,2167.87a2.494,2.494,0,1,0,2.352,2.575,2.469,2.469,0,0,0-2.352-2.575Z" transform="translate(-1063.88 -639.614)" fill="#ff4398"/>
      <path id="Path_287" data-name="Path 287" d="M2094.42,2041.45a2.5,2.5,0,1,0-2.361-2.638,2.471,2.471,0,0,0,2.361,2.638Z" transform="translate(-1081.238 -626.286)" fill="#ff4398"/>
      <path id="Path_288" data-name="Path 288" d="M2002.52,2246.84a2.494,2.494,0,1,0,2.353,2.575,2.494,2.494,0,0,0-2.353-2.575Z" transform="translate(-1071.89 -647.623)" fill="#ff4398"/>
      <path id="Path_289" data-name="Path 289" d="M2147.21,2168.08a2.455,2.455,0,1,0,2.387,2.5,2.423,2.423,0,0,0-2.387-2.5Z" transform="translate(-1086.577 -639.635)" fill="#ff4398"/>
      <path id="Path_290" data-name="Path 290" d="M1923.41,2107.03a2.454,2.454,0,1,0-2.459-2.429,2.421,2.421,0,0,0,2.459,2.429Z" transform="translate(-1063.884 -632.946)" fill="#ff4398"/>
      <path id="Path_291" data-name="Path 291" d="M2002.41,2028.22a2.454,2.454,0,1,0-2.483-2.406,2.42,2.42,0,0,0,2.483,2.406Z" transform="translate(-1071.895 -624.953)" fill="#ff4398"/>
      <path id="Path_292" data-name="Path 292" d="M2068.22,2246.89a2.454,2.454,0,1,0,2.4,2.487,2.424,2.424,0,0,0-2.4-2.487Z" transform="translate(-1078.566 -647.628)" fill="#ff4398"/>
      <path id="Path_293" data-name="Path 293" d="M2068.06,2028.2a2.431,2.431,0,1,0-2.316-2.5,2.431,2.431,0,0,0,2.316,2.5Z" transform="translate(-1078.569 -624.956)" fill="#ff4398"/>
      <path id="Path_294" data-name="Path 294" d="M2147.08,2107.18a2.431,2.431,0,1,0-2.368-2.455A2.431,2.431,0,0,0,2147.08,2107.18Z" transform="translate(-1086.58 -632.966)" fill="#ff4398"/>
      <path id="Path_295" data-name="Path 295" d="M1923.45,2181.29a2.275,2.275,0,1,0,1.622.7A2.281,2.281,0,0,0,1923.45,2181.29Z" transform="translate(-1063.904 -640.975)" fill="#ff4398"/>
      <path id="Path_296" data-name="Path 296" d="M1949.84,2220.7a2.276,2.276,0,1,0,1.62.7A2.282,2.282,0,0,0,1949.84,2220.7Z" transform="translate(-1066.58 -644.972)" fill="#ff4398"/>
      <path id="Path_297" data-name="Path 297" d="M2081.38,2247.08a2.281,2.281,0,1,0,2.281,2.244A2.281,2.281,0,0,0,2081.38,2247.08Z" transform="translate(-1079.924 -647.647)" fill="#ff4398"/>
      <path id="Path_298" data-name="Path 298" d="M1989.21,2247.08a2.281,2.281,0,1,0,2.281,2.244,2.281,2.281,0,0,0-2.281-2.244Z" transform="translate(-1070.576 -647.647)" fill="#ff4398"/>
      <path id="Path_299" data-name="Path 299" d="M2147.18,2181.32a2.256,2.256,0,1,0,2.247,2.228,2.294,2.294,0,0,0-2.247-2.228Z" transform="translate(-1086.599 -640.978)" fill="#ff4398"/>
      <path id="Path_300" data-name="Path 300" d="M2120.75,2220.89a2.256,2.256,0,1,0,2.293,2.257,2.294,2.294,0,0,0-2.293-2.257Z" transform="translate(-1083.923 -644.992)" fill="#ff4398"/>
      <path id="Path_301" data-name="Path 301" d="M1989.18,2028.05a2.257,2.257,0,1,0-2.217-2.257A2.294,2.294,0,0,0,1989.18,2028.05Z" transform="translate(-1070.579 -624.975)" fill="#ff4398"/>
      <path id="Path_302" data-name="Path 302" d="M1923.42,2093.83a2.256,2.256,0,1,0-2.246-2.3A2.3,2.3,0,0,0,1923.42,2093.83Z" transform="translate(-1063.906 -631.647)" fill="#ff4398"/>
      <path id="Path_303" data-name="Path 303" d="M1949.78,2054.26a2.256,2.256,0,1,0-2.224-2.25,2.294,2.294,0,0,0,2.224,2.25Z" transform="translate(-1066.582 -627.634)" fill="#ff4398"/>
      <path id="Path_304" data-name="Path 304" d="M1936.6,2207.76a2.21,2.21,0,1,0,1.575.635A2.207,2.207,0,0,0,1936.6,2207.76Z" transform="translate(-1065.25 -643.659)" fill="#ff4398"/>
      <path id="Path_305" data-name="Path 305" d="M2081.4,2028.01a2.21,2.21,0,1,0-1.569-.647,2.207,2.207,0,0,0,1.569.647Z" transform="translate(-1079.933 -624.981)" fill="#ff4398"/>
      <path id="Path_306" data-name="Path 306" d="M2147.14,2093.79a2.21,2.21,0,1,0-1.558-.674A2.207,2.207,0,0,0,2147.14,2093.79Z" transform="translate(-1086.605 -631.653)" fill="#ff4398"/>
      <path id="Path_307" data-name="Path 307" d="M2120.77,2054.39a2.207,2.207,0,1,0-2.182-2.175A2.207,2.207,0,0,0,2120.77,2054.39Z" transform="translate(-1083.929 -627.656)" fill="#ff4398"/>
      <path id="Path_308" data-name="Path 308" d="M1963,2233.97a2.21,2.21,0,1,0,1.569.648A2.207,2.207,0,0,0,1963,2233.97Z" transform="translate(-1067.926 -646.318)" fill="#ff4398"/>
      <path id="Path_309" data-name="Path 309" d="M2107.67,2233.97a2.206,2.206,0,1,0,2.135,2.219A2.206,2.206,0,0,0,2107.67,2233.97Z" transform="translate(-1082.591 -646.318)" fill="#ff4398"/>
      <path id="Path_310" data-name="Path 310" d="M1936.65,2067.36a2.153,2.153,0,1,0-2.169-2.136,2.118,2.118,0,0,0,2.169,2.136Z" transform="translate(-1065.256 -628.983)" fill="#ff4398"/>
      <path id="Path_311" data-name="Path 311" d="M2133.95,2067.36a2.153,2.153,0,1,0-2.112-2.194,2.119,2.119,0,0,0,2.112,2.194Z" transform="translate(-1085.273 -628.983)" fill="#ff4398"/>
      <path id="Path_312" data-name="Path 312" d="M1963.01,2041.15a2.153,2.153,0,1,0-2.147-2.158,2.118,2.118,0,0,0,2.147,2.158Z" transform="translate(-1067.932 -626.324)" fill="#ff4398"/>
      <path id="Path_313" data-name="Path 313" d="M2133.97,2207.82a2.153,2.153,0,1,0,2.17,2.135,2.118,2.118,0,0,0-2.17-2.135Z" transform="translate(-1085.273 -643.666)" fill="#ff4398"/>
      <path id="Path_314" data-name="Path 314" d="M2107.64,2041.15a2.153,2.153,0,1,0-2.187-2.117,2.118,2.118,0,0,0,2.187,2.117Z" transform="translate(-1082.597 -626.324)" fill="#ff4398"/>
      <path id="Path_315" data-name="Path 315" d="M2041.88,2260.55a2.013,2.013,0,1,0,1.448.643A2.032,2.032,0,0,0,2041.88,2260.55Z" transform="translate(-1075.938 -649.014)" fill="#ff4398"/>
      <path id="Path_316" data-name="Path 316" d="M1910.41,2133.04a2.032,2.032,0,1,0-2.01-2.04,2.012,2.012,0,0,0,2.01,2.04Z" transform="translate(-1062.611 -635.669)" fill="#ff4398"/>
      <path id="Path_317" data-name="Path 317" d="M2028.67,2260.55a2.012,2.012,0,1,0,1.426.6,2.032,2.032,0,0,0-1.426-.6Z" transform="translate(-1074.601 -649.014)" fill="#ff4398"/>
      <path id="Path_318" data-name="Path 318" d="M2160.22,2142.17a2.032,2.032,0,1,0,2.024,2.021,2.011,2.011,0,0,0-2.024-2.021Z" transform="translate(-1087.945 -637.007)" fill="#ff4398"/>
      <path id="Path_319" data-name="Path 319" d="M1910.46,2142.17a2.012,2.012,0,1,0,1.426.6,2.032,2.032,0,0,0-1.426-.6Z" transform="translate(-1062.611 -637.007)" fill="#ff4398"/>
      <path id="Path_320" data-name="Path 320" d="M2015.67,2260.59a1.99,1.99,0,1,0,1.941,2,1.966,1.966,0,0,0-1.941-2Z" transform="translate(-1073.285 -649.018)" fill="#ff4398"/>
      <path id="Path_321" data-name="Path 321" d="M1923.48,2194.81a1.989,1.989,0,1,0,1.971,1.969,1.967,1.967,0,0,0-1.971-1.969Z" transform="translate(-1063.937 -642.346)" fill="#ff4398"/>
      <path id="Path_322" data-name="Path 322" d="M2041.98,2014.62a1.989,1.989,0,1,0-1.961-1.978,1.966,1.966,0,0,0,1.961,1.978Z" transform="translate(-1075.96 -623.667)" fill="#ff4398"/>
      <path id="Path_323" data-name="Path 323" d="M2160.25,2133a1.989,1.989,0,1,0-2.025-1.99,1.966,1.966,0,0,0,2.025,1.99Z" transform="translate(-1087.95 -635.674)" fill="#ff4398"/>
      <path id="Path_324" data-name="Path 324" d="M2028.78,2014.62a1.989,1.989,0,1,0-1.956-2.06,1.964,1.964,0,0,0,1.956,2.06Z" transform="translate(-1074.623 -623.667)" fill="#ff4398"/>
      <path id="Path_325" data-name="Path 325" d="M1910.42,2119.81a1.989,1.989,0,1,0-1.968-1.973,1.966,1.966,0,0,0,1.968,1.973Z" transform="translate(-1062.616 -634.336)" fill="#ff4398"/>
      <path id="Path_326" data-name="Path 326" d="M2094.47,2247.4a1.989,1.989,0,1,0,1.95,1.99,1.965,1.965,0,0,0-1.95-1.99Z" transform="translate(-1081.278 -647.68)" fill="#ff4398"/>
      <path id="Path_327" data-name="Path 327" d="M2055.06,2260.59a1.989,1.989,0,1,0,1.961,2.055,1.966,1.966,0,0,0-1.961-2.055Z" transform="translate(-1077.281 -649.018)" fill="#ff4398"/>
      <path id="Path_328" data-name="Path 328" d="M1910.44,2155.41a1.989,1.989,0,1,0,1.985,1.954,1.966,1.966,0,0,0-1.985-1.954Z" transform="translate(-1062.616 -638.35)" fill="#ff4398"/>
      <path id="Path_329" data-name="Path 329" d="M1976.11,2247.4a1.99,1.99,0,1,0,1.931,2.008,1.965,1.965,0,0,0-1.931-2.008Z" transform="translate(-1069.271 -647.681)" fill="#ff4398"/>
      <path id="Path_330" data-name="Path 330" d="M2147.24,2194.84a1.962,1.962,0,1,0,1.925,1.963,1.987,1.987,0,0,0-1.925-1.963Z" transform="translate(-1086.632 -642.349)" fill="#ff4398"/>
      <path id="Path_331" data-name="Path 331" d="M2160.21,2119.96a1.962,1.962,0,1,0-1.948-1.938,1.986,1.986,0,0,0,1.948,1.938Z" transform="translate(-1087.953 -634.356)" fill="#ff4398"/>
      <path id="Path_332" data-name="Path 332" d="M2160.2,2155.43a1.963,1.963,0,1,0,1.983,1.979,1.988,1.988,0,0,0-1.983-1.979Z" transform="translate(-1087.953 -638.353)" fill="#ff4398"/>
      <path id="Path_333" data-name="Path 333" d="M1976.22,2027.79a1.963,1.963,0,1,0-1.962-2,1.989,1.989,0,0,0,1.962,2Z" transform="translate(-1069.291 -625.008)" fill="#ff4398"/>
      <path id="Path_334" data-name="Path 334" d="M2015.59,2014.6a1.963,1.963,0,1,0-1.925-2.037,1.991,1.991,0,0,0,1.925,2.037Z" transform="translate(-1073.288 -623.67)" fill="#ff4398"/>
      <path id="Path_335" data-name="Path 335" d="M1923.36,2080.38a1.963,1.963,0,1,0-1.864-2.021A1.99,1.99,0,0,0,1923.36,2080.38Z" transform="translate(-1063.94 -630.342)" fill="#ff4398"/>
      <path id="Path_336" data-name="Path 336" d="M2055,2014.6a1.963,1.963,0,1,0-1.924-2.037A1.991,1.991,0,0,0,2055,2014.6Z" transform="translate(-1077.285 -623.67)" fill="#ff4398"/>
      <path id="Path_337" data-name="Path 337" d="M2094.6,2027.75a1.915,1.915,0,1,0-1.91-1.882,1.938,1.938,0,0,0,1.91,1.882Z" transform="translate(-1081.303 -625.014)" fill="#ff4398"/>
      <path id="Path_338" data-name="Path 338" d="M2147.2,2080.34a1.915,1.915,0,1,0-1.915-1.953,1.937,1.937,0,0,0,1.915,1.952Z" transform="translate(-1086.637 -630.348)" fill="#ff4398"/>
      <path id="Path_339" data-name="Path 339" d="M2002.45,2260.75a1.85,1.85,0,1,0,1.851,1.866,1.813,1.813,0,0,0-1.851-1.866Z" transform="translate(-1071.962 -649.034)" fill="#ff4398"/>
      <path id="Path_340" data-name="Path 340" d="M2002.44,2014.47a1.819,1.819,0,1,0-1.805-1.852,1.819,1.819,0,0,0,1.805,1.852Z" transform="translate(-1071.966 -623.687)" fill="#ff4398"/>
      <path id="Path_341" data-name="Path 341" d="M1910.42,2106.47a1.819,1.819,0,1,0-1.779-1.877,1.819,1.819,0,0,0,1.779,1.877Z" transform="translate(-1062.635 -633.017)" fill="#ff4398"/>
      <path id="Path_342" data-name="Path 342" d="M2068.24,2260.78a1.82,1.82,0,1,0,1.815,1.841A1.82,1.82,0,0,0,2068.24,2260.78Z" transform="translate(-1078.638 -649.038)" fill="#ff4398"/>
      <path id="Path_343" data-name="Path 343" d="M1910.3,2168.62a1.819,1.819,0,1,0,1.806,1.85,1.819,1.819,0,0,0-1.806-1.85Z" transform="translate(-1062.618 -639.69)" fill="#ff4398"/>
      <path id="Path_344" data-name="Path 344" d="M2160.24,2106.64a1.819,1.819,0,1,0-1.818-1.839,1.819,1.819,0,0,0,1.818,1.839Z" transform="translate(-1087.969 -633.035)" fill="#ff4398"/>
      <path id="Path_345" data-name="Path 345" d="M2160.21,2168.78a1.819,1.819,0,1,0,1.851,1.806,1.819,1.819,0,0,0-1.851-1.806Z" transform="translate(-1087.969 -639.707)" fill="#ff4398"/>
      <path id="Path_346" data-name="Path 346" d="M1949.81,2234.45a1.777,1.777,0,1,0,1.829,1.744,1.806,1.806,0,0,0-1.829-1.744Z" transform="translate(-1066.637 -646.367)" fill="#ff4398"/>
      <path id="Path_347" data-name="Path 347" d="M1936.75,2221.26a1.777,1.777,0,1,0,1.7,1.871A1.807,1.807,0,0,0,1936.75,2221.26Z" transform="translate(-1065.298 -645.029)" fill="#ff4398"/>
      <path id="Path_348" data-name="Path 348" d="M2068.22,2014.43a1.777,1.777,0,1,0-1.749-1.823,1.81,1.81,0,0,0,1.749,1.823Z" transform="translate(-1078.643 -623.691)" fill="#ff4398"/>
      <path id="Path_349" data-name="Path 349" d="M2134.1,2221.51a1.7,1.7,0,1,0,1.637,1.8,1.673,1.673,0,0,0-1.637-1.8Z" transform="translate(-1085.324 -645.054)" fill="#ff4398"/>
      <path id="Path_350" data-name="Path 350" d="M2133.98,2053.94a1.7,1.7,0,1,0-1.64-1.728,1.672,1.672,0,0,0,1.64,1.728Z" transform="translate(-1085.324 -627.713)" fill="#ff4398"/>
      <path id="Path_351" data-name="Path 351" d="M1936.61,2053.77a1.7,1.7,0,1,0-1.634-1.733,1.673,1.673,0,0,0,1.634,1.733Z" transform="translate(-1065.307 -627.696)" fill="#ff4398"/>
      <path id="Path_352" data-name="Path 352" d="M1949.87,2040.75a1.7,1.7,0,1,0-1.7-1.744,1.669,1.669,0,0,0,1.7,1.744Z" transform="translate(-1066.645 -626.375)" fill="#ff4398"/>
      <path id="Path_353" data-name="Path 353" d="M2120.85,2234.7a1.7,1.7,0,1,0,1.695,1.749,1.668,1.668,0,0,0-1.695-1.749Z" transform="translate(-1083.986 -646.392)" fill="#ff4398"/>
      <path id="Path_354" data-name="Path 354" d="M2120.84,2040.75a1.7,1.7,0,1,0-1.694-1.75,1.668,1.668,0,0,0,1.694,1.75Z" transform="translate(-1083.986 -626.375)" fill="#ff4398"/>
      <path id="Path_355" data-name="Path 355" d="M1923.43,2066.89a1.62,1.62,0,1,0-1.548-1.652,1.653,1.653,0,0,0,1.548,1.652Z" transform="translate(-1063.979 -629.043)" fill="#ff4398"/>
      <path id="Path_356" data-name="Path 356" d="M1989.27,2261a1.62,1.62,0,1,0,1.64,1.637,1.65,1.65,0,0,0-1.64-1.636Z" transform="translate(-1070.651 -649.06)" fill="#ff4398"/>
      <path id="Path_357" data-name="Path 357" d="M2081.45,2261a1.62,1.62,0,1,0,1.619,1.659A1.651,1.651,0,0,0,2081.45,2261Z" transform="translate(-1079.999 -649.06)" fill="#ff4398"/>
      <path id="Path_358" data-name="Path 358" d="M1923.58,2208.41a1.62,1.62,0,1,0,1.545,1.656,1.651,1.651,0,0,0-1.545-1.656Z" transform="translate(-1063.979 -643.726)" fill="#ff4398"/>
      <path id="Path_359" data-name="Path 359" d="M1910.35,2182.03a1.621,1.621,0,1,0,1.575,1.627,1.651,1.651,0,0,0-1.575-1.627Z" transform="translate(-1062.641 -641.05)" fill="#ff4398"/>
      <path id="Path_360" data-name="Path 360" d="M2107.7,2247.81a1.62,1.62,0,1,0,1.586,1.616A1.65,1.65,0,0,0,2107.7,2247.81Z" transform="translate(-1082.657 -647.722)" fill="#ff4398"/>
      <path id="Path_361" data-name="Path 361" d="M1910.44,2093.27a1.621,1.621,0,1,0-1.576-1.627,1.651,1.651,0,0,0,1.576,1.627Z" transform="translate(-1062.658 -631.719)" fill="#ff4398"/>
      <path id="Path_362" data-name="Path 362" d="M1963.07,2247.81a1.62,1.62,0,1,0,1.625,1.653,1.651,1.651,0,0,0-1.625-1.653Z" transform="translate(-1067.992 -647.722)" fill="#ff4398"/>
      <path id="Path_363" data-name="Path 363" d="M2147.19,2066.82a1.544,1.544,0,1,0-1.489-1.579,1.511,1.511,0,0,0,1.489,1.579Z" transform="translate(-1086.679 -629.052)" fill="#ff4398"/>
      <path id="Path_364" data-name="Path 364" d="M1989.23,2014.23a1.545,1.545,0,1,0-1.475-1.593,1.514,1.514,0,0,0,1.475,1.593Z" transform="translate(-1070.659 -623.717)" fill="#ff4398"/>
      <path id="Path_365" data-name="Path 365" d="M2081.51,2014.23a1.544,1.544,0,1,0-1.593-1.551,1.509,1.509,0,0,0,1.593,1.551Z" transform="translate(-1080.007 -623.717)" fill="#ff4398"/>
      <path id="Path_366" data-name="Path 366" d="M2160.26,2093.2a1.544,1.544,0,1,0-1.54-1.6,1.508,1.508,0,0,0,1.54,1.6Z" transform="translate(-1088 -631.728)" fill="#ff4398"/>
      <path id="Path_367" data-name="Path 367" d="M2147.29,2208.5a1.543,1.543,0,1,0,1.5,1.564,1.507,1.507,0,0,0-1.5-1.564Z" transform="translate(-1086.679 -643.734)" fill="#ff4398"/>
      <path id="Path_368" data-name="Path 368" d="M2160.28,2182.11a1.543,1.543,0,1,0,1.535,1.532,1.506,1.506,0,0,0-1.535-1.532Z" transform="translate(-1088 -641.059)" fill="#ff4398"/>
      <path id="Path_369" data-name="Path 369" d="M1963.09,2027.42a1.544,1.544,0,1,0-1.555-1.513,1.508,1.508,0,0,0,1.555,1.513Z" transform="translate(-1068 -625.056)" fill="#ff4398"/>
      <path id="Path_370" data-name="Path 370" d="M2107.59,2027.42a1.544,1.544,0,1,0-1.463-1.6,1.51,1.51,0,0,0,1.463,1.6Z" transform="translate(-1082.666 -625.055)" fill="#ff4398"/>
      <path id="Path_371" data-name="Path 371" d="M1910.5,2079.82a1.324,1.324,0,1,0-1.307-1.4,1.362,1.362,0,0,0,1.307,1.4Z" transform="translate(-1062.691 -630.415)" fill="#ff4398"/>
      <path id="Path_372" data-name="Path 372" d="M2028.73,2274.52a1.324,1.324,0,1,0,1.313,1.317,1.36,1.36,0,0,0-1.313-1.317Z" transform="translate(-1074.68 -650.431)" fill="#ff4398"/>
      <path id="Path_373" data-name="Path 373" d="M2041.96,2274.52a1.325,1.325,0,1,0,1.279,1.351A1.359,1.359,0,0,0,2041.96,2274.52Z" transform="translate(-1076.019 -650.431)" fill="#ff4398"/>
      <path id="Path_374" data-name="Path 374" d="M1897.34,2142.95a1.324,1.324,0,1,0,1.3,1.325,1.361,1.361,0,0,0-1.3-1.325Z" transform="translate(-1061.353 -637.087)" fill="#ff4398"/>
      <path id="Path_375" data-name="Path 375" d="M2094.54,2261.33a1.324,1.324,0,1,0,1.293,1.335,1.363,1.363,0,0,0-1.293-1.334Z" transform="translate(-1081.353 -649.093)" fill="#ff4398"/>
      <path id="Path_376" data-name="Path 376" d="M1976.13,2261.33a1.324,1.324,0,1,0,1.325,1.3,1.36,1.36,0,0,0-1.325-1.3Z" transform="translate(-1069.346 -649.094)" fill="#ff4398"/>
      <path id="Path_377" data-name="Path 377" d="M1910.35,2195.55a1.324,1.324,0,1,0,1.312,1.316,1.362,1.362,0,0,0-1.312-1.316Z" transform="translate(-1062.674 -642.421)" fill="#ff4398"/>
      <path id="Path_378" data-name="Path 378" d="M1897.37,2129.76a1.325,1.325,0,1,0,1.272,1.357,1.362,1.362,0,0,0-1.272-1.356Z" transform="translate(-1061.353 -635.749)" fill="#ff4398"/>
      <path id="Path_379" data-name="Path 379" d="M1897.29,2119.14a1.235,1.235,0,1,0-1.191-1.3,1.206,1.206,0,0,0,1.191,1.3Z" transform="translate(-1061.363 -634.421)" fill="#ff4398"/>
      <path id="Path_380" data-name="Path 380" d="M1936.8,2235.05a1.235,1.235,0,1,0,1.172,1.24,1.212,1.212,0,0,0-1.172-1.24Z" transform="translate(-1065.36 -646.428)" fill="#ff4398"/>
      <path id="Path_381" data-name="Path 381" d="M2028.88,2000.76a1.234,1.234,0,1,0-1.207-1.28,1.207,1.207,0,0,0,1.207,1.28Z" transform="translate(-1074.708 -622.415)" fill="#ff4398"/>
      <path id="Path_382" data-name="Path 382" d="M2042.09,2000.76a1.234,1.234,0,1,0-1.234-1.253,1.206,1.206,0,0,0,1.234,1.253Z" transform="translate(-1076.045 -622.415)" fill="#ff4398"/>
      <path id="Path_383" data-name="Path 383" d="M2015.66,2274.62a1.235,1.235,0,1,0,1.286,1.2,1.205,1.205,0,0,0-1.286-1.2Z" transform="translate(-1073.37 -650.442)" fill="#ff4398"/>
      <path id="Path_384" data-name="Path 384" d="M1897.3,2156.24a1.235,1.235,0,1,0,1.272,1.217,1.211,1.211,0,0,0-1.272-1.217Z" transform="translate(-1061.363 -638.435)" fill="#ff4398"/>
      <path id="Path_385" data-name="Path 385" d="M2160.24,2079.74a1.235,1.235,0,1,0-1.169-1.242,1.21,1.21,0,0,0,1.169,1.242Z" transform="translate(-1088.035 -630.425)" fill="#ff4398"/>
      <path id="Path_386" data-name="Path 386" d="M2173.48,2132.33a1.234,1.234,0,1,0-1.22-1.267,1.207,1.207,0,0,0,1.22,1.267Z" transform="translate(-1089.373 -635.759)" fill="#ff4398"/>
      <path id="Path_387" data-name="Path 387" d="M2055.1,2274.62a1.234,1.234,0,1,0,1.254,1.233,1.206,1.206,0,0,0-1.254-1.233Z" transform="translate(-1077.366 -650.441)" fill="#ff4398"/>
      <path id="Path_388" data-name="Path 388" d="M2160.38,2195.65a1.236,1.236,0,1,0,1.155,1.257A1.212,1.212,0,0,0,2160.38,2195.65Z" transform="translate(-1088.035 -642.431)" fill="#ff4398"/>
      <path id="Path_389" data-name="Path 389" d="M2094.65,2013.95a1.235,1.235,0,1,0-1.192-1.3,1.208,1.208,0,0,0,1.192,1.295Z" transform="translate(-1081.38 -623.752)" fill="#ff4398"/>
      <path id="Path_390" data-name="Path 390" d="M1976.31,2013.95a1.235,1.235,0,1,0-1.239-1.248,1.207,1.207,0,0,0,1.239,1.248Z" transform="translate(-1069.374 -623.752)" fill="#ff4398"/>
      <path id="Path_391" data-name="Path 391" d="M2173.44,2143.05a1.235,1.235,0,1,0,1.29,1.2,1.206,1.206,0,0,0-1.29-1.2Z" transform="translate(-1089.373 -637.097)" fill="#ff4398"/>
      <path id="Path_392" data-name="Path 392" d="M2015.69,2000.72a1.186,1.186,0,1,0-1.153-1.254A1.231,1.231,0,0,0,2015.69,2000.72Z" transform="translate(-1073.375 -622.42)" fill="#ff4398"/>
      <path id="Path_393" data-name="Path 393" d="M2134.1,2235.27a1.185,1.185,0,1,0,1.179,1.229,1.232,1.232,0,0,0-1.179-1.229Z" transform="translate(-1085.382 -646.45)" fill="#ff4398"/>
      <path id="Path_394" data-name="Path 394" d="M2173.46,2119.26a1.185,1.185,0,1,0-1.147-1.186A1.225,1.225,0,0,0,2173.46,2119.26Z" transform="translate(-1089.378 -634.444)" fill="#ff4398"/>
      <path id="Path_395" data-name="Path 395" d="M1936.74,2040.29a1.185,1.185,0,1,0-1.183-1.225,1.232,1.232,0,0,0,1.183,1.225Z" transform="translate(-1065.365 -626.434)" fill="#ff4398"/>
      <path id="Path_396" data-name="Path 396" d="M2134.05,2040.29a1.186,1.186,0,1,0-1.138-1.194A1.228,1.228,0,0,0,2134.05,2040.29Z" transform="translate(-1085.382 -626.434)" fill="#ff4398"/>
      <path id="Path_397" data-name="Path 397" d="M2055.06,2000.72a1.187,1.187,0,1,0-1.123-1.281,1.231,1.231,0,0,0,1.123,1.281Z" transform="translate(-1077.372 -622.42)" fill="#ff4398"/>
      <path id="Path_398" data-name="Path 398" d="M1949.93,2248.3a1.185,1.185,0,1,0,1.188,1.219,1.23,1.23,0,0,0-1.188-1.219Z" transform="translate(-1066.703 -647.771)" fill="#ff4398"/>
      <path id="Path_399" data-name="Path 399" d="M1923.52,2221.92a1.185,1.185,0,1,0,1.215,1.194A1.23,1.23,0,0,0,1923.52,2221.92Z" transform="translate(-1064.027 -645.096)" fill="#ff4398"/>
      <path id="Path_400" data-name="Path 400" d="M2173.52,2156.3a1.185,1.185,0,1,0,1.168,1.24,1.233,1.233,0,0,0-1.168-1.24Z" transform="translate(-1089.378 -638.44)" fill="#ff4398"/>
      <path id="Path_401" data-name="Path 401" d="M2068.38,2274.79a1.086,1.086,0,1,0,1.023,1.165,1.061,1.061,0,0,0-1.023-1.165Z" transform="translate(-1078.721 -650.458)" fill="#ff4398"/>
      <path id="Path_402" data-name="Path 402" d="M2002.52,2274.79a1.086,1.086,0,1,0,1.1,1.09,1.057,1.057,0,0,0-1.1-1.09Z" transform="translate(-1072.049 -650.458)" fill="#ff4398"/>
      <path id="Path_403" data-name="Path 403" d="M2120.91,2248.41a1.085,1.085,0,1,0,1.088,1.1,1.056,1.056,0,0,0-1.088-1.1Z" transform="translate(-1084.056 -647.782)" fill="#ff4398"/>
      <path id="Path_404" data-name="Path 404" d="M1897.41,2169.43a1.087,1.087,0,1,0,1.025,1.088,1.061,1.061,0,0,0-1.025-1.088Z" transform="translate(-1061.38 -639.772)" fill="#ff4398"/>
      <path id="Path_405" data-name="Path 405" d="M2147.25,2053.39a1.086,1.086,0,1,0-1.042-1.148,1.058,1.058,0,0,0,1.042,1.148Z" transform="translate(-1086.731 -627.783)" fill="#ff4398"/>
      <path id="Path_406" data-name="Path 406" d="M2147.11,2222.2a1.086,1.086,0,1,0,1.108,1.081,1.055,1.055,0,0,0-1.108-1.081Z" transform="translate(-1086.714 -645.124)" fill="#ff4398"/>
      <path id="Path_407" data-name="Path 407" d="M1923.57,2053.22a1.085,1.085,0,1,0-1.091-1.1,1.056,1.056,0,0,0,1.091,1.1Z" transform="translate(-1064.039 -627.766)" fill="#ff4398"/>
      <path id="Path_408" data-name="Path 408" d="M2120.84,2027.01a1.086,1.086,0,1,0-1.014-1.1A1.062,1.062,0,0,0,2120.84,2027.01Z" transform="translate(-1084.055 -625.107)" fill="#ff4398"/>
      <path id="Path_409" data-name="Path 409" d="M1949.91,2027.01a1.086,1.086,0,1,0-1.05-1.139,1.058,1.058,0,0,0,1.05,1.139Z" transform="translate(-1066.714 -625.107)" fill="#ff4398"/>
      <path id="Path_410" data-name="Path 410" d="M2173.51,2169.67a1.026,1.026,0,1,0,1.036,1,1.056,1.056,0,0,0-1.036-1Z" transform="translate(-1089.396 -639.796)" fill="#ff4398"/>
      <path id="Path_411" data-name="Path 411" d="M1897.35,2105.76a1.026,1.026,0,1,0-1.021-1.012,1.058,1.058,0,0,0,1.021,1.012Z" transform="translate(-1061.387 -633.107)" fill="#ff4398"/>
      <path id="Path_412" data-name="Path 412" d="M2173.51,2105.93a1.026,1.026,0,1,0-1.022-1.085A1.056,1.056,0,0,0,2173.51,2105.93Z" transform="translate(-1089.396 -633.124)" fill="#ff4398"/>
      <path id="Path_413" data-name="Path 413" d="M2068.36,2000.58a1.026,1.026,0,1,0-1.061-1.045,1.058,1.058,0,0,0,1.061,1.045Z" transform="translate(-1078.728 -622.438)" fill="#ff4398"/>
      <path id="Path_414" data-name="Path 414" d="M2002.53,2000.58a1.026,1.026,0,1,0-1.007-1.025,1.059,1.059,0,0,0,1.007,1.025Z" transform="translate(-1072.055 -622.438)" fill="#ff4398"/>
      <path id="Path_415" data-name="Path 415" d="M1910.44,2209.2a.885.885,0,0,0-.962.922.862.862,0,0,0,.811.909.919.919,0,0,0,1.019-.888.861.861,0,0,0-.868-.943Z" transform="translate(-1062.72 -643.805)" fill="#ff4398"/>
      <path id="Path_416" data-name="Path 416" d="M2160.37,2209.2a.884.884,0,0,0-.949.936.9.9,0,0,0,.918.906.88.88,0,0,0,.907-.912.848.848,0,0,0-.876-.93Z" transform="translate(-1088.071 -643.805)" fill="#ff4398"/>
      <path id="Path_417" data-name="Path 417" d="M1963.08,2013.68a.885.885,0,0,0,.983-.847.851.851,0,0,0-.811-.989.887.887,0,0,0-1.013.869.9.9,0,0,0,.841.967Z" transform="translate(-1068.072 -623.788)" fill="#ff4398"/>
      <path id="Path_418" data-name="Path 418" d="M1910.49,2066.26a.922.922,0,1,0-.846-.96.85.85,0,0,0,.846.96Z" transform="translate(-1062.738 -629.122)" fill="#ff4398"/>
      <path id="Path_419" data-name="Path 419" d="M1962.97,2261.77a.881.881,0,0,0-.9.918.849.849,0,0,0,.883.925.883.883,0,0,0,.943-.942.9.9,0,0,0-.926-.9Z" transform="translate(-1068.055 -649.138)" fill="#ff4398"/>
      <path id="Path_420" data-name="Path 420" d="M2107.79,2261.79a.862.862,0,0,0-.959.849.885.885,0,0,0,.9.98.864.864,0,0,0,.925-.793.92.92,0,0,0-.866-1.036Z" transform="translate(-1082.736 -649.14)" fill="#ff4398"/>
      <path id="Path_421" data-name="Path 421" d="M1989.36,2275.1c-.509.009-.86.331-.767.818.064.337.408.621.626.929l.358-.006c.2-.317.535-.615.585-.955C1990.23,2275.39,1989.87,2275.09,1989.36,2275.1Z" transform="translate(-1070.743 -650.49)" fill="#ff4398"/>
      <path id="Path_422" data-name="Path 422" d="M2080.74,2275.89c-.01.508.293.874.784.8.34-.05.639-.379.956-.584,0-.119,0-.238.007-.357-.308-.219-.592-.563-.93-.628C2081.07,2275.03,2080.75,2275.38,2080.74,2275.89Z" transform="translate(-1080.09 -650.49)" fill="#ff4398"/>
      <path id="Path_423" data-name="Path 423" d="M2173.54,2092.53c.338-.059.627-.4.938-.612v-.357c-.314-.209-.607-.545-.947-.6-.49-.079-.8.28-.8.79S2173.05,2092.61,2173.54,2092.53Z" transform="translate(-1089.421 -631.812)" fill="#ff4398"/>
      <path id="Path_424" data-name="Path 424" d="M1897.37,2092.53c.339-.055.633-.39.946-.6v-.358c-.311-.214-.6-.553-.938-.612-.489-.085-.8.271-.806.779S1896.88,2092.61,1897.37,2092.53Z" transform="translate(-1061.412 -631.812)" fill="#ff4398"/>
      <path id="Path_425" data-name="Path 425" d="M2160.3,2066.29l.355.015c.226-.3.578-.579.649-.915.1-.483-.238-.816-.748-.836s-.881.272-.82.767C2159.78,2065.66,2160.1,2065.97,2160.3,2066.29Z" transform="translate(-1088.103 -629.135)" fill="#ff4398"/>
      <path id="Path_426" data-name="Path 426" d="M1896.57,2183.73c-.007.509.3.872.79.8.34-.052.635-.384.951-.592q0-.177.006-.356c-.31-.217-.6-.558-.934-.62C1896.9,2182.87,1896.58,2183.22,1896.57,2183.73Z" transform="translate(-1061.412 -641.143)" fill="#ff4398"/>
      <path id="Path_427" data-name="Path 427" d="M2173.74,2182.79h-.358c-.217.309-.558.595-.62.933-.089.487.264.806.774.813s.871-.3.8-.79C2174.27,2183.4,2173.94,2183.1,2173.74,2182.79Z" transform="translate(-1089.422 -641.127)" fill="#ff4398"/>
      <path id="Path_428" data-name="Path 428" d="M2107.75,2013.56c.508.006.871-.3.8-.791-.052-.34-.385-.635-.591-.95h-.358c-.217.309-.558.6-.62.933C2106.89,2013.23,2107.24,2013.55,2107.75,2013.56Z" transform="translate(-1082.75 -623.786)" fill="#ff4398"/>
      <path id="Path_429" data-name="Path 429" d="M2081.53,2000.37c.548.006.909-.334.8-.853-.068-.326-.448-.588-.687-.878l-.337.01c-.19.3-.5.582-.545.905a.7.7,0,0,0,.769.816Z" transform="translate(-1080.091 -622.45)" fill="#ff4398"/>
      <path id="Path_430" data-name="Path 430" d="M1989.23,2000.52l.358-.01c.2-.32.528-.622.573-.962.067-.493-.3-.791-.811-.775s-.855.342-.759.827C1988.66,1999.93,1989.01,2000.21,1989.23,2000.52Z" transform="translate(-1070.743 -622.463)" fill="#ff4398"/>
      <g transform="matrix(1, 0, 0, 1, 828.28, 1323.51)" filter="url(#加碼抽)">
        <text id="加碼抽-2" data-name="加碼抽" transform="translate(0 51)" fill="#fff" font-size="44" font-family="YuGothicUI-Bold, Yu Gothic UI" font-weight="700"><tspan x="0" y="0">加碼抽</tspan></text>
      </g>
      <rect id="Rectangle_144" data-name="Rectangle 144" width="117.385" height="45" rx="22.5" transform="translate(974.336 1336.132)" fill="#ff4398"/>
      <path id="共1名" d="M4.512-5.848l-3,.047q-.234,0-.234-.258V-7.922q0-.258.234-.258l3,.047H6.8v-4.676H5.953l-3.211.047q-.187,0-.234-.059a.473.473,0,0,1-.035-.234v-1.852q0-.234.27-.234l3.211.047H6.8v-1.23a27.544,27.544,0,0,0-.164-3.4q1.734.047,2.59.141.363.035.363.258a2.834,2.834,0,0,1-.176.633,14.719,14.719,0,0,0-.094,2.367v1.23h5.063v-1.23a27.544,27.544,0,0,0-.164-3.4q1.7.035,2.59.141.363.035.363.258a3.078,3.078,0,0,1-.176.633,14.573,14.573,0,0,0-.094,2.367v1.23H18.07l3.223-.047q.258,0,.258.234v1.852a.427.427,0,0,1-.047.258.4.4,0,0,1-.211.035l-3.223-.047H16.9v4.676h2.566l2.977-.047a.371.371,0,0,1,.234.047.4.4,0,0,1,.035.211v1.863a.352.352,0,0,1-.041.217.381.381,0,0,1-.229.041l-2.977-.047Zm4.8-2.285h5.063v-4.676H9.316ZM22.465-.457a6.856,6.856,0,0,0-1.219,1.535q-.34.574-.527.574a2,2,0,0,1-.527-.187,19.352,19.352,0,0,1-6.34-5.086.451.451,0,0,1-.094-.211q0-.094.258-.246l1.441-.844a.478.478,0,0,1,.234-.105.417.417,0,0,1,.246.152A16.732,16.732,0,0,0,22.465-.457ZM7.734-5.109A15.655,15.655,0,0,1,9.8-4.055q.316.176.316.363,0,.223-.363.422a4.424,4.424,0,0,0-.715.656A17.987,17.987,0,0,1,3.68,1.441a1.878,1.878,0,0,1-.551.188q-.188,0-.551-.527A5.5,5.5,0,0,0,1.3-.34a15.431,15.431,0,0,0,5.449-3.4A5.381,5.381,0,0,0,7.734-5.109ZM36.15-17.18V0H32.459V-13.008a4.421,4.421,0,0,1-.721.51,7.44,7.44,0,0,1-.885.434,7.9,7.9,0,0,1-.973.328,7.1,7.1,0,0,1-1,.193V-14.66A15.4,15.4,0,0,0,31.6-15.738a15.472,15.472,0,0,0,2.309-1.441Zm7.837,4.723a22.8,22.8,0,0,0,7.828-6.316,6.1,6.1,0,0,0,.82-1.418,17.063,17.063,0,0,1,2.461.609q.34.094.34.328a.49.49,0,0,1-.316.434,3.4,3.4,0,0,0-.715.773l-.48.645h5.238a3.15,3.15,0,0,0,.691-.047,1.434,1.434,0,0,1,.434-.117q.328,0,1.008.621.75.691.75,1.008a.55.55,0,0,1-.34.48,3.1,3.1,0,0,0-.785.762,31.88,31.88,0,0,1-6.8,6.586h6.164l3.258-.047q.27,0,.27.234l-.047,3.094v2.215l.047,4.172a.371.371,0,0,1-.047.234.4.4,0,0,1-.211.035H61.507q-.2,0-.246-.059a.366.366,0,0,1-.035-.211V.48H52.777v1.2q0,.27-.234.27H50.468q-.187,0-.223-.047a.437.437,0,0,1-.035-.223l.047-4.242V-5.719a46.747,46.747,0,0,1-4.441,2.145,1.878,1.878,0,0,1-.551.188q-.164,0-.48-.621a5.3,5.3,0,0,0-1.148-1.535,35.166,35.166,0,0,0,8.4-4.008,20.1,20.1,0,0,0-2.508-2.227q-.164-.129-.164-.2t.2-.234l1.266-1.031a.5.5,0,0,1,.293-.152.7.7,0,0,1,.281.117,23.812,23.812,0,0,1,2.648,2.191,29.435,29.435,0,0,0,4.055-4.137h-6.07a28,28,0,0,1-5.766,4.43,1.252,1.252,0,0,1-.551.234q-.2,0-.5-.551A4.738,4.738,0,0,0,43.987-12.457ZM61.226-5.93H52.777v4.254h8.449Z" transform="translate(999.561 1369.132)" fill="#fff"/>
    </g>
  </g>
</svg>
