<svg xmlns="http://www.w3.org/2000/svg" xmlns:xlink="http://www.w3.org/1999/xlink" width="272.681" height="227.378" viewBox="0 0 272.681 227.378">
  <defs>
    <clipPath id="clip-path">
      <ellipse id="Ellipse_24" data-name="Ellipse 24" cx="109.794" cy="68.814" rx="109.794" ry="68.814" transform="matrix(0.924, -0.382, 0.382, 0.924, 0, 83.896)" fill="none"/>
    </clipPath>
  </defs>
  <g id="唱片右" transform="translate(-3654.923 -1237.442)">
    <ellipse id="Ellipse_22" data-name="Ellipse 22" cx="111.952" cy="70.166" rx="111.952" ry="70.166" transform="translate(3660.996 1329.061) rotate(-22.461)" fill="#ff4398" stroke="#004990" stroke-miterlimit="10" stroke-width="9.3"/>
    <ellipse id="Ellipse_23" data-name="Ellipse 23" cx="111.952" cy="70.166" rx="111.952" ry="70.166" transform="translate(3660.996 1329.061) rotate(-22.461)" fill="#ff4398"/>
    <path id="Path_644" data-name="Path 644" d="M3805.578,1444.933c-28.579,5.764-55.978,1.822-71.938-12.512-24.389-21.9-13.249-60.154,24.465-87.471" transform="translate(-18.579 -31.566)" fill="#ff4398" stroke="#004990" stroke-miterlimit="10" stroke-width="3"/>
    <path id="Path_645" data-name="Path 645" d="M3835.743,1311.879c33.413-10.412,67.515-7.814,86.1,8.88,23.8,21.374,13.768,58.311-21.772,85.467" transform="translate(-54.381 -19.351)" fill="#ff4398" stroke="#004990" stroke-miterlimit="10" stroke-width="3"/>
    <path id="Path_646" data-name="Path 646" d="M3749.7,1417.43c-22.016-19.773-10.45-54.995,25.832-78.669,18.852-12.3,40.667-19.065,60.366-19.951" transform="translate(-24.131 -23.432)" fill="#ff4398" stroke="#004990" stroke-miterlimit="10" stroke-width="3"/>
    <path id="Path_647" data-name="Path 647" d="M3912.327,1337.516c22.016,19.773,10.451,54.994-25.832,78.67a125.711,125.711,0,0,1-47.578,18.594" transform="translate(-55.369 -29.253)" fill="#ff4398" stroke="#004990" stroke-miterlimit="10" stroke-width="3"/>
    <g id="Group_201" data-name="Group 201" transform="translate(3663.507 1245.59)">
      <g id="Group_200" data-name="Group 200" transform="translate(0 0)" clip-path="url(#clip-path)">
        <path id="Path_648" data-name="Path 648" d="M3681.792,1359.51s5.1,14.862,33.279-.169c0,0,6.316-6.168,12.128,6.714,2.8,6.2,11.135,9.476,18.32,8.277,5.257-.878,14-1.365,19.365-4.111,0,0,5.322-1.247,20.978,14.22s40.361-6.049,40.361-6.049,4.354-6.01,5.576,8.843c0,0-1.375,21.39,20.551,7.411,0,0,35.269-20.967,29.277-8.689a14.325,14.325,0,0,1-3.471,4.4c-3.9,3.449-10.25,5.486-16.83,14.923a84.077,84.077,0,0,1-18.933,19.713c-7.8,5.771-17.941,17.588,3.555,17.945l13.726,2.076,63.256-33.344-8.358-.666s-45.588,11-28.913-7.757c0,0,29.494-30,4.364-29.185a29.622,29.622,0,0,0-11.9,2.849c-11.146,5.366-43.926,19.5-40.785-1.553,0,0-35.765-9.908-47.659-8.433,0,0-17.688-17.37-29.29-10.416a19.378,19.378,0,0,1-6.61,2.624c-4.754.85-11.05.123-10.818-9.8.37-15.88-14.12-8.188-18.354-6.832s-17.011,3.047-13.705-4.3l-3.381-6.976L3676.75,1349.9Z" transform="translate(-3668.409 -1272.882)" fill="#fff"/>
      </g>
    </g>
    <ellipse id="Ellipse_25" data-name="Ellipse 25" cx="47.606" cy="29.837" rx="47.606" ry="29.837" transform="matrix(0.924, -0.382, 0.382, 0.924, 3735.868, 1341.746)" fill="#07fd60" stroke="#07fd60" stroke-miterlimit="10" stroke-width="4.812"/>
    <ellipse id="Ellipse_26" data-name="Ellipse 26" cx="16.719" cy="10.479" rx="16.719" ry="10.479" transform="translate(3771.808 1347.835) rotate(-22.461)" fill="#004990"/>
  </g>
</svg>
