<svg xmlns="http://www.w3.org/2000/svg" width="321.757" height="393.604" viewBox="0 0 321.757 393.604">
  <g id="Group_1241" data-name="Group 1241" transform="translate(-4129.774 -1233.044)">
    <g id="Group_1150" data-name="Group 1150">
      <g id="Group_1120" data-name="Group 1120">
        <path id="Path_1082" data-name="Path 1082" d="M4257.016,1564.839l-123.974-73.458a2.106,2.106,0,0,1-.9-2.731L4259.31,1236.2a2.107,2.107,0,0,1,2.726-.905l132.734,55.647a2.323,2.323,0,0,1,.428.165l.125.067c.052.022.1.044.152.069a2.324,2.324,0,0,1,.912.822l52.247,46.773a2.065,2.065,0,0,1,.531,2.461l-120.2,238.612a2.07,2.07,0,0,1-2.344,1.028l-68.1-15.593a2.253,2.253,0,0,1-1.033-.233C4257.451,1565.094,4257.087,1564.886,4257.016,1564.839Z" fill="#ff4398"/>
        <g id="Group_1119" data-name="Group 1119">
          <path id="Path_1083" data-name="Path 1083" d="M4394.556,1293.067l-.039.078,52.69,47.17-120.2,238.612-68.545-15.695-.036.071-.219-.129-.07-.017.01-.02-124.048-73.5,127.168-252.448,132.989,55.754.01-.021.051.046.238.1m1.836-3.643c-.1-.049-.2-.095-.3-.137l-.089-.038c-.116-.054-.234-.1-.354-.148l-132.846-55.694a4.213,4.213,0,0,0-5.453,1.808l-127.168,252.448a4.213,4.213,0,0,0,1.8,5.462l123.7,73.3a4.7,4.7,0,0,0,.632.383l.11.054c.054.03.109.059.164.087a4.676,4.676,0,0,0,1.9.5l67.741,15.511a4.141,4.141,0,0,0,4.688-2.054l120.2-238.613a4.132,4.132,0,0,0-1.063-4.922l-52.053-46.6a4.631,4.631,0,0,0-1.615-1.342Z" fill="#004990"/>
        </g>
      </g>
      <g id="Group_1122" data-name="Group 1122">
        <path id="Path_1084" data-name="Path 1084" d="M4262.216,1566.353a1.02,1.02,0,0,1-.453-1.37l136.129-270.235a1.02,1.02,0,0,1,1.37-.452,1.042,1.042,0,0,1,.236.163l48.676,45.246a1.021,1.021,0,0,1,.217,1.206l-120.2,238.613a1.021,1.021,0,0,1-1.121.539l-64.606-13.622A1.106,1.106,0,0,1,4262.216,1566.353Z" fill="#ff4398"/>
        <g id="Group_1121" data-name="Group 1121">
          <path id="Path_1085" data-name="Path 1085" d="M4398.8,1295.207l48.675,45.245-120.2,238.612-64.6-13.621L4398.8,1295.207m.917-1.822a2.039,2.039,0,0,0-2.739.9l-136.129,270.236a2.04,2.04,0,0,0,.9,2.74,2.07,2.07,0,0,0,.5.174l64.6,13.621a2.039,2.039,0,0,0,2.243-1.078l120.2-238.612a2.04,2.04,0,0,0-.433-2.412l-48.676-45.245a2.021,2.021,0,0,0-.471-.328Z" fill="#004990"/>
        </g>
      </g>
      <g id="Group_1138" data-name="Group 1138">
        <g id="Group_1124" data-name="Group 1124">
          <path id="Path_1086" data-name="Path 1086" d="M4269.276,1374.685c-23.24-11.708-30.9-43.56-17.074-71.007s43.981-40.25,67.222-28.543l3.5,1.765c23.241,11.707,30.9,43.56,17.074,71.006s-43.981,40.25-67.221,28.543Z" fill="#0856a6"/>
          <g id="Group_1123" data-name="Group 1123">
            <path id="Path_1087" data-name="Path 1087" d="M4322.469,1277.811c22.774,11.472,30.215,42.649,16.621,69.636s-43.077,39.564-65.851,28.092l-3.5-1.765c-22.774-11.473-30.216-42.65-16.621-69.637s43.077-39.564,65.851-28.092l3.5,1.766m.917-1.822-3.5-1.765c-23.742-11.96-54.511,1.047-68.59,29s-6.217,60.415,17.525,72.375l3.5,1.765c23.742,11.96,54.512-1.047,68.591-28.995s6.216-60.416-17.526-72.376Z" fill="#004990"/>
          </g>
        </g>
        <g id="Group_1127" data-name="Group 1127">
          <g id="Group_1126" data-name="Group 1126">
            <path id="Path_1088" data-name="Path 1088" d="M4269.46,1374.32c-23.04-11.6-30.617-43.212-16.893-70.458s43.634-39.969,66.673-28.363,30.616,43.213,16.891,70.458S4292.5,1385.926,4269.46,1374.32Z" fill="#0856a6"/>
            <g id="Group_1125" data-name="Group 1125">
              <path id="Path_1089" data-name="Path 1089" d="M4318.965,1276.046c22.774,11.472,30.215,42.649,16.621,69.636s-43.077,39.564-65.851,28.092-30.216-42.65-16.621-69.637,43.077-39.564,65.851-28.091m.55-1.094c-23.34-11.757-53.618,1.088-67.494,28.635s-6.177,59.522,17.163,71.28,53.619-1.088,67.5-28.634,6.177-59.523-17.164-71.281Z" fill="#004990"/>
            </g>
          </g>
        </g>
        <g id="Group_1129" data-name="Group 1129">
          <path id="Path_1090" data-name="Path 1090" d="M4270.021,1366.33c-19.933-10.041-26.474-37.42-14.58-61.031s37.788-34.651,57.721-24.61l3.5,1.765c19.935,10.041,26.476,37.42,14.582,61.031s-37.788,34.652-57.723,24.61Z" fill="#0856a6"/>
          <g id="Group_1128" data-name="Group 1128">
            <path id="Path_1091" data-name="Path 1091" d="M4316.207,1283.365c19.462,9.8,25.787,36.515,14.128,59.661s-36.889,33.963-56.351,24.159l-3.5-1.765c-19.463-9.8-25.788-36.516-14.128-59.662s36.889-33.962,56.351-24.158l3.5,1.765m.918-1.822-3.5-1.765c-20.436-10.294-46.944.949-59.091,25.062s-5.4,52.107,15.032,62.4l3.5,1.765c20.435,10.3,46.943-.948,59.09-25.062s5.4-52.107-15.031-62.4Z" fill="#004990"/>
          </g>
        </g>
        <g id="Group_1132" data-name="Group 1132">
          <g id="Group_1131" data-name="Group 1131">
            <ellipse id="Ellipse_40" data-name="Ellipse 40" cx="47.539" cy="40.069" rx="47.539" ry="40.069" transform="matrix(0.45, -0.893, 0.893, 0.45, 4234.419, 1347.94)" fill="#07fd60"/>
            <g id="Group_1130" data-name="Group 1130">
              <path id="Path_1092" data-name="Path 1092" d="M4312.7,1281.6c19.462,9.8,25.788,36.515,14.128,59.661s-36.889,33.962-56.351,24.159-25.788-36.516-14.128-59.662,36.889-33.962,56.351-24.158m.551-1.093c-20.034-10.092-46.05.989-58,24.7s-5.364,51.214,14.67,61.306,46.05-.989,57.995-24.7,5.364-51.213-14.67-61.305Z" fill="#004990"/>
            </g>
          </g>
        </g>
        <g id="Group_1134" data-name="Group 1134">
          <path id="Path_1093" data-name="Path 1093" d="M4276.155,1353.032c-.355-.179-.692-.381-1.028-.584l-.385-.231-.3-.114c-.363-.149-.726-.3-1.081-.479-14.323-7.215-19.33-26.279-11.161-42.5s26.47-23.542,40.793-16.326c.352.177.684.376,1.016.577l.4.237.313.12c.359.148.717.3,1.068.473,14.324,7.216,19.331,26.28,11.161,42.5S4290.478,1360.247,4276.155,1353.032Z" fill="#0856a6"/>
          <g id="Group_1133" data-name="Group 1133">
            <path id="Path_1094" data-name="Path 1094" d="M4305.329,1295.118c13.843,6.974,18.637,25.387,10.708,41.128s-25.58,22.849-39.423,15.875c-.472-.237-.906-.52-1.357-.784-.48-.205-.966-.386-1.438-.624-13.843-6.973-18.637-25.386-10.707-41.127s25.579-22.849,39.422-15.875c.472.237.907.52,1.357.784.48.2.966.386,1.438.623m.917-1.821c-.4-.2-.781-.359-1.149-.51l-.286-.119-.265-.158c-.341-.206-.693-.419-1.094-.621-14.826-7.468-33.739.059-42.162,16.779s-3.214,36.4,11.612,43.867c.4.2.782.359,1.15.51l.285.119.265.158c.341.206.693.419,1.094.621,14.826,7.468,33.74-.059,42.162-16.779s3.214-36.4-11.612-43.867Z" fill="#004990"/>
          </g>
        </g>
        <g id="Group_1137" data-name="Group 1137">
          <g id="Group_1136" data-name="Group 1136">
            <path id="Path_1095" data-name="Path 1095" d="M4276.338,1352.668c-14.121-7.114-19.046-25.932-10.977-41.949s26.122-23.261,40.243-16.148,19.047,25.933,10.979,41.95S4290.461,1359.782,4276.338,1352.668Z" fill="#3c65b0"/>
            <g id="Group_1135" data-name="Group 1135">
              <path id="Path_1096" data-name="Path 1096" d="M4305.329,1295.118c13.843,6.974,18.637,25.387,10.708,41.128s-25.58,22.849-39.423,15.875-18.637-25.387-10.708-41.128,25.58-22.848,39.423-15.875m.55-1.093c-14.423-7.266-32.846.1-41.066,16.418s-3.173,35.506,11.25,42.771,32.846-.1,41.067-16.417,3.173-35.506-11.251-42.772Z" fill="#004990"/>
            </g>
          </g>
        </g>
      </g>
      <g id="Group_1148" data-name="Group 1148">
        <g id="Group_1140" data-name="Group 1140">
          <path id="Path_1097" data-name="Path 1097" d="M4198.18,1513.275c-30.775-15.5-40.886-57.748-22.538-94.172s58.313-53.444,89.089-37.941l3.258,1.642c30.776,15.5,40.887,57.748,22.538,94.172s-58.313,53.444-89.088,37.941Z" fill="#0856a6"/>
          <g id="Group_1139" data-name="Group 1139">
            <path id="Path_1098" data-name="Path 1098" d="M4267.53,1383.714c30.322,15.274,40.21,56.823,22.086,92.8s-57.4,52.764-87.719,37.49l-3.258-1.641c-30.322-15.275-40.21-56.824-22.086-92.8s57.4-52.764,87.719-37.489l3.258,1.641m.918-1.822-3.258-1.641c-31.278-15.756-71.857,1.467-90.458,38.393s-8.289,79.786,22.989,95.542l3.258,1.642c31.278,15.755,71.857-1.468,90.459-38.394s8.288-79.786-22.99-95.542Z" fill="#004990"/>
          </g>
        </g>
        <g id="Group_1143" data-name="Group 1143">
          <g id="Group_1142" data-name="Group 1142">
            <ellipse id="Ellipse_41" data-name="Ellipse 41" cx="73.557" cy="62.086" rx="73.557" ry="62.086" transform="matrix(0.45, -0.893, 0.893, 0.45, 4142.915, 1484.98)" fill="#0856a6"/>
            <g id="Group_1141" data-name="Group 1141">
              <path id="Path_1099" data-name="Path 1099" d="M4264.272,1382.073c30.322,15.274,40.21,56.823,22.085,92.8s-57.4,52.764-87.718,37.49-40.21-56.824-22.086-92.8,57.4-52.764,87.719-37.489m.551-1.093c-30.876-15.554-70.964,1.507-89.363,38.032s-8.248,78.892,22.628,94.446,70.964-1.508,89.363-38.032,8.248-78.893-22.628-94.446Z" fill="#004990"/>
            </g>
          </g>
        </g>
        <g id="Group_1146" data-name="Group 1146">
          <g id="Group_1145" data-name="Group 1145">
            <path id="Path_1100" data-name="Path 1100" d="M4201.528,1504.376c-27.318-13.761-36.524-50.8-20.521-82.57s51.247-46.418,78.566-32.657,36.525,50.8,20.522,82.572S4228.848,1518.138,4201.528,1504.376Z" fill="#0856a6"/>
            <g id="Group_1144" data-name="Group 1144">
              <path id="Path_1101" data-name="Path 1101" d="M4259.3,1389.7c27.061,13.632,36.127,50.232,20.251,81.749s-50.684,46.016-77.745,32.385-36.128-50.232-20.251-81.75,50.684-46.016,77.745-32.384m.55-1.093c-27.62-13.914-63.234.857-79.389,32.927s-6.826,69.479,20.794,83.393,63.234-.858,79.389-32.927,6.827-69.48-20.794-83.393Z" fill="#004990"/>
            </g>
          </g>
        </g>
        <g id="Group_1147" data-name="Group 1147">
          <ellipse id="Ellipse_42" data-name="Ellipse 42" cx="60.915" cy="52.943" rx="60.915" ry="52.943" transform="matrix(0.45, -0.893, 0.893, 0.45, 4155.794, 1477.311)" fill="#07fd60"/>
          <path id="Path_1102" data-name="Path 1102" d="M4257.61,1392.873c25.771,12.982,34.567,47.7,19.608,77.4s-48.095,43.294-73.866,30.312-34.567-47.7-19.608-77.4,48.1-43.294,73.866-30.312m.551-1.093c-26.373-13.286-60.247.555-75.51,30.854s-6.223,65.757,20.151,79.042,60.247-.556,75.509-30.854,6.224-65.757-20.15-79.042Z" fill="#004990"/>
        </g>
        <path id="Path_1103" data-name="Path 1103" d="M4251.094,1431.5c9.282,4.676,12.215,17.58,6.552,28.822s-17.779,16.566-27.061,11.891-12.215-17.58-6.552-28.823,17.779-16.566,27.061-11.89m.55-1.093c-9.869-4.972-22.746.6-28.7,12.433s-2.775,25.494,7.1,30.466,22.746-.606,28.7-12.433,2.775-25.494-7.095-30.466Z" fill="#004990"/>
      </g>
      <path id="Path_1104" data-name="Path 1104" d="M4393.155,1302.39a7.3,7.3,0,0,1,9.2-2.52c-2.532-3.12-5.974-6.58-9.888-5.673a9.138,9.138,0,0,1-.83,9.835" fill="none" stroke="#004990" stroke-miterlimit="10" stroke-width="1"/>
      <path id="Path_1105" data-name="Path 1105" d="M4255.683,1560.445a12.157,12.157,0,0,0,13.528-7.526,23.515,23.515,0,0,0-1.123,6.937,7.941,7.941,0,0,0,2.907,6.166l-9.306-3.275.506.52" fill="none" stroke="#004990" stroke-miterlimit="10" stroke-width="1"/>
      <path id="Path_1106" data-name="Path 1106" d="M4430.031,1337.627l6,3.893a2.442,2.442,0,0,1,.866,4.006q-6.375,11.82-12.95,23.533" fill="none" stroke="#004990" stroke-miterlimit="10" stroke-width="1"/>
      <path id="Path_1107" data-name="Path 1107" d="M4416.958,1382.722" fill="none" stroke="#004990" stroke-miterlimit="10" stroke-width="1"/>
      <path id="Path_1108" data-name="Path 1108" d="M4410.935,1397.713q-23.576,47.722-48.007,95.014" fill="none" stroke="#004990" stroke-miterlimit="10" stroke-width="1"/>
      <path id="Path_1109" data-name="Path 1109" d="M4300.108,1517.319a376.831,376.831,0,0,0-17.4,35.142c-.622,1.441-1.235,3.108-.556,4.523s2.381,1.985,3.912,2.364a87.406,87.406,0,0,0,22.475,2.551" fill="none" stroke="#004990" stroke-miterlimit="10" stroke-width="1"/>
      <path id="Path_1110" data-name="Path 1110" d="M4160.343,1447.32a53,53,0,0,0,2.06,33.863" fill="none" stroke="#004990" stroke-miterlimit="10" stroke-width="1"/>
      <path id="Path_1111" data-name="Path 1111" d="M4166.028,1488.092l-.113.486" fill="none" stroke="#004990" stroke-miterlimit="10" stroke-width="1"/>
      <path id="Path_1112" data-name="Path 1112" d="M4316.986,1382.868a59.416,59.416,0,0,0,33.339-37.192" fill="none" stroke="#004990" stroke-miterlimit="10" stroke-width="1"/>
      <path id="Path_1113" data-name="Path 1113" d="M4265.261,1298.819a32.551,32.551,0,0,1,29.73-14.232" fill="none" stroke="#fff" stroke-miterlimit="10" stroke-width="1"/>
      <path id="Path_1114" data-name="Path 1114" d="M4257.584,1313.889" fill="none" stroke="#fff" stroke-miterlimit="10" stroke-width="1"/>
      <path id="Path_1115" data-name="Path 1115" d="M4182.78,1429.335c6.062-20.469,25.625-36.195,46.918-37.716" fill="none" stroke="#fff" stroke-miterlimit="10" stroke-width="1"/>
      <path id="Path_1116" data-name="Path 1116" d="M4225.317,1390.109" fill="none" stroke="#fff" stroke-miterlimit="10" stroke-width="1"/>
      <path id="Path_1117" data-name="Path 1117" d="M4183.91,1453.73q-.09.381-.178.764" fill="none" stroke="#fff" stroke-miterlimit="10" stroke-width="1"/>
      <g id="Group_1149" data-name="Group 1149">
        <path id="Path_1118" data-name="Path 1118" d="M4257.333,1267.825q-14.826,29.925-31.355,58.965" fill="none" stroke="#fff" stroke-miterlimit="10" stroke-width="1"/>
        <path id="Path_1119" data-name="Path 1119" d="M4217.679,1346.667" fill="none" stroke="#fff" stroke-miterlimit="10" stroke-width="1"/>
      </g>
      <path id="Path_1120" data-name="Path 1120" d="M4304.027,1387.526h0" fill="none" stroke="#004990" stroke-miterlimit="10" stroke-width="1"/>
      <path id="Path_1121" data-name="Path 1121" d="M4229.959,1529.17c22.461,3.076,46.181-10.153,55.366-30.88" fill="none" stroke="#004990" stroke-miterlimit="10" stroke-width="1"/>
    </g>
    <g id="Group_1151" data-name="Group 1151">
      <path id="Path_1124" data-name="Path 1124" d="M4386.219,1622.9l-42.426-8.783-25.309-77.893Z" fill="#fff" stroke="#004990" stroke-linecap="round" stroke-linejoin="round" stroke-width="7.489"/>
      <path id="Path_1125" data-name="Path 1125" d="M4360.46,1552.45l2.062-18.784-46.14-14.109Z" fill="#fff" stroke="#004990" stroke-linecap="round" stroke-linejoin="round" stroke-width="7.489"/>
    </g>
  </g>
</svg>
