<svg xmlns="http://www.w3.org/2000/svg" width="189.48" height="233.9" viewBox="0 0 189.48 233.9">
  <g id="喇叭右" transform="translate(-1363 -1701)">
    <g id="Group_55" data-name="Group 55" transform="matrix(0.985, -0.174, 0.174, 0.985, 1363, 1729.033)">
      <g id="Group_25" data-name="Group 25" transform="translate(0 0)">
        <path id="Path_431" data-name="Path 431" d="M62.756,165.433.554,128.576a1.056,1.056,0,0,1-.451-1.37L63.908.545A1.057,1.057,0,0,1,65.275.091l66.6,27.92a1.129,1.129,0,0,1,.214.083l.063.034c.026.011.051.022.076.035a1.157,1.157,0,0,1,.458.412L158.9,52.041a1.036,1.036,0,0,1,.267,1.235L98.856,173a1.038,1.038,0,0,1-1.176.515l-34.167-7.823a1.127,1.127,0,0,1-.518-.117C62.975,165.561,62.792,165.457,62.756,165.433Z" transform="translate(1.085 1.04)" fill="#ff4398"/>
        <g id="Group_24" data-name="Group 24">
          <path id="Path_432" data-name="Path 432" d="M132.85,30.116l-.02.039,26.436,23.667L98.959,173.542l-34.391-7.875-.018.036-.11-.065-.035-.008,0-.01L2.171,128.741,65.975,2.079,132.7,30.053l.005-.01.026.023.119.05m.921-1.827c-.048-.025-.1-.047-.15-.069l-.045-.018c-.058-.027-.118-.052-.178-.075L66.747.182a2.114,2.114,0,0,0-2.737.907L.205,127.751a2.114,2.114,0,0,0,.9,2.74l62.067,36.776a2.366,2.366,0,0,0,.316.192l.056.026.082.044a2.347,2.347,0,0,0,.955.249l33.988,7.782a2.08,2.08,0,0,0,2.353-1.03l60.307-119.72a2.073,2.073,0,0,0-.533-2.469l-26.116-23.38a2.319,2.319,0,0,0-.811-.673Z" fill="#004990"/>
        </g>
      </g>
      <g id="Group_27" data-name="Group 27" transform="translate(65.657 30.166)">
        <path id="Path_433" data-name="Path 433" d="M.281,136.555a.506.506,0,0,1-.231-.235.513.513,0,0,1,0-.451L68.355.282a.511.511,0,0,1,.687-.227.529.529,0,0,1,.119.082l24.423,22.7a.514.514,0,0,1,.109.605L33.384,143.164a.511.511,0,0,1-.563.27L.406,136.6A.494.494,0,0,1,.281,136.555Z" transform="translate(0.512 0.512)" fill="#ff4398"/>
        <g id="Group_26" data-name="Group 26">
          <path id="Path_434" data-name="Path 434" d="M69.324,1.023l24.422,22.7L33.439,143.445,1.024,136.61,69.324,1.023m.46-.914A1.024,1.024,0,0,0,68.41.564L.109,136.149a1.024,1.024,0,0,0,.454,1.375,1.044,1.044,0,0,0,.249.088l32.415,6.834a1.023,1.023,0,0,0,1.125-.541L94.661,24.185a1.025,1.025,0,0,0-.218-1.21L70.021.274a1.044,1.044,0,0,0-.236-.164Z" fill="#004990"/>
        </g>
      </g>
      <g id="Group_43" data-name="Group 43" transform="translate(52.504 15.044)">
        <g id="Group_29" data-name="Group 29" transform="translate(4.958 3.388)">
          <path id="Path_435" data-name="Path 435" d="M12.02,52.124C.36,46.25-3.483,30.268,3.454,16.5S25.52-3.7,37.181,2.177l1.758.885c11.661,5.874,15.5,21.856,8.567,35.627S25.438,58.883,13.779,53.009Z" transform="translate(0.51 0.511)" fill="#005bb7"/>
          <g id="Group_28" data-name="Group 28">
            <path id="Path_436" data-name="Path 436" d="M39.219,4.03c11.427,5.756,15.161,21.4,8.339,34.939S25.945,58.819,14.519,53.064l-1.758-.885C1.334,46.422-2.4,30.779,4.421,17.239S26.034-2.611,37.46,3.145l1.758.885m.461-.914-1.758-.885c-11.912-6-27.35.525-34.414,14.548S.388,47.091,12.3,53.092l1.758.885c11.912,6,27.351-.525,34.415-14.548S51.591,9.117,39.679,3.116Z" fill="#004990"/>
          </g>
        </g>
        <g id="Group_32" data-name="Group 32" transform="translate(5.366 3.796)">
          <g id="Group_31" data-name="Group 31">
            <path id="Path_437" data-name="Path 437" d="M11.908,51.738C.349,45.914-3.454,30.056,3.433,16.386S25.325-3.667,36.884,2.155,52.246,23.837,45.36,37.506,23.468,57.56,11.908,51.738Z" transform="translate(0.306 0.306)" fill="#005bb7"/>
            <g id="Group_30" data-name="Group 30">
              <path id="Path_438" data-name="Path 438" d="M37.053,2.736c11.426,5.756,15.16,21.4,8.339,34.939s-21.613,19.85-33.04,14.095S-2.807,30.37,4.013,16.83,25.626-3.02,37.053,2.736m.275-.548c-11.71-5.9-26.9.545-33.864,14.366s-3.1,29.864,8.611,35.763,26.9-.545,33.865-14.366,3.1-29.864-8.612-35.763Z" fill="#004990"/>
            </g>
          </g>
        </g>
        <g id="Group_34" data-name="Group 34" transform="translate(7.058 6.489)">
          <path id="Path_439" data-name="Path 439" d="M10.294,44.832C.293,39.793-2.989,26.056,2.979,14.21S21.938-3.176,31.939,1.862l1.757.885c10,5.038,13.284,18.774,7.316,30.621S22.053,50.754,12.051,45.717Z" transform="translate(0.511 0.511)" fill="#005bb7"/>
          <g id="Group_33" data-name="Group 33">
            <path id="Path_440" data-name="Path 440" d="M33.978,3.715c9.765,4.919,12.938,18.321,7.088,29.934S22.558,50.69,12.793,45.771l-1.758-.885C1.27,39.966-1.9,26.564,3.946,14.951S22.455-2.089,32.219,2.83l1.758.885m.461-.914L32.68,1.915C22.427-3.249,9.127,2.391,3.033,14.491S.321,40.634,10.574,45.8l1.758.885c10.254,5.165,23.553-.476,29.648-12.574S44.692,7.967,34.438,2.8Z" fill="#004990"/>
          </g>
        </g>
        <g id="Group_37" data-name="Group 37" transform="translate(0 0)">
          <g id="Group_36" data-name="Group 36">
            <ellipse id="Ellipse_16" data-name="Ellipse 16" cx="23.852" cy="20.104" rx="23.852" ry="20.104" transform="matrix(0.45, -0.893, 0.893, 0.45, 0, 42.604)" fill="#00ff5f"/>
            <g id="Group_35" data-name="Group 35" transform="translate(7.466 6.898)">
              <path id="Path_441" data-name="Path 441" d="M31.811,2.421C41.576,7.34,44.75,20.743,38.9,32.356S20.391,49.4,10.626,44.477-2.312,26.156,3.538,14.543,22.046-2.5,31.811,2.421m.276-.549c-10.051-5.063-23.1.5-29.1,12.394S.3,39.961,10.35,45.025s23.105-.5,29.1-12.393,2.691-25.7-7.361-30.76Z" fill="#004990"/>
            </g>
          </g>
        </g>
        <g id="Group_39" data-name="Group 39" transform="translate(11.46 13.033)">
          <path id="Path_442" data-name="Path 442" d="M8.97,31.615c-.179-.09-.347-.191-.516-.293l-.193-.117-.15-.057c-.181-.075-.364-.15-.543-.241-7.186-3.619-9.7-13.185-5.6-21.322S15.248-2.226,22.435,1.394c.176.089.343.189.51.289l.2.119.158.06c.18.075.359.149.535.238,7.187,3.619,9.7,13.185,5.6,21.322S16.156,35.235,8.97,31.615Z" transform="translate(0.511 0.511)" fill="#005bb7"/>
          <g id="Group_38" data-name="Group 38">
            <path id="Path_443" data-name="Path 443" d="M24.118,3.069c6.946,3.5,9.351,12.738,5.372,20.635S16.656,35.168,9.71,31.669c-.236-.119-.454-.262-.68-.394-.242-.1-.485-.193-.721-.313-6.946-3.5-9.352-12.738-5.373-20.635S15.77-1.136,22.715,2.362c.237.119.455.262.681.394.241.1.484.193.721.313m.461-.915c-.2-.1-.392-.18-.577-.255l-.143-.059-.133-.08c-.171-.1-.347-.21-.549-.311C15.737-2.3,6.248,1.477,2.022,9.867S.41,28.13,7.848,31.877c.2.1.392.18.576.255l.143.059.133.08c.171.1.348.21.549.311,7.438,3.747,16.929-.029,21.155-8.419S32.017,5.9,24.578,2.154Z" fill="#004990"/>
          </g>
        </g>
        <g id="Group_42" data-name="Group 42" transform="translate(13.271 14.148)">
          <g id="Group_41" data-name="Group 41">
            <path id="Path_444" data-name="Path 444" d="M7.455,30.522C.37,26.952-2.1,17.511,1.947,9.474S15.053-2.2,22.138,1.372s9.557,13.011,5.509,21.048S14.541,34.091,7.455,30.522Z" transform="translate(0.307 0.307)" fill="#005bb7"/>
            <g id="Group_40" data-name="Group 40">
              <path id="Path_445" data-name="Path 445" d="M22.307,1.954c6.945,3.5,9.351,12.738,5.372,20.635S14.846,34.053,7.9,30.554-1.451,17.816,2.528,9.918,15.362-1.546,22.307,1.954m.276-.549c-7.237-3.645-16.48.05-20.6,8.237S.386,27.457,7.623,31.1s16.48-.049,20.6-8.237S29.82,5.05,22.583,1.4Z" fill="#004990"/>
            </g>
          </g>
        </g>
      </g>
      <g id="Group_53" data-name="Group 53" transform="translate(6.593 60.485)">
        <g id="Group_45" data-name="Group 45" transform="translate(11.318 10.444)">
          <path id="Path_446" data-name="Path 446" d="M15.9,69.163C.459,61.384-4.614,40.189,4.592,21.913S33.85-4.9,49.291,2.877l1.635.823c15.441,7.779,20.513,28.974,11.308,47.25s-29.258,26.815-44.7,19.036Z" transform="translate(0.51 0.51)" fill="#005bb7"/>
          <g id="Group_44" data-name="Group 44">
            <path id="Path_447" data-name="Path 447" d="M51.206,4.668c15.213,7.664,20.175,28.51,11.082,46.562S33.489,77.7,18.276,70.04l-1.635-.823C1.427,61.553-3.534,40.707,5.56,22.654s28.8-26.474,44.012-18.81l1.634.823m.46-.914-1.634-.823C34.339-4.975,13.979,3.667,4.645,22.194S.487,62.225,16.18,70.13l1.635.823c15.693,7.905,36.053-.736,45.386-19.263S67.359,11.66,51.666,3.754Z" fill="#004990"/>
          </g>
        </g>
        <g id="Group_48" data-name="Group 48" transform="translate(0 0)">
          <g id="Group_47" data-name="Group 47">
            <ellipse id="Ellipse_17" data-name="Ellipse 17" cx="36.906" cy="31.151" rx="36.906" ry="31.151" transform="matrix(0.45, -0.893, 0.893, 0.45, 0, 65.92)" fill="#005bb7"/>
            <g id="Group_46" data-name="Group 46" transform="translate(11.726 10.852)">
              <path id="Path_448" data-name="Path 448" d="M49.163,3.436C64.377,11.1,69.337,31.946,60.244,50s-28.8,26.474-44.012,18.81S-3.942,40.3,5.152,22.246,33.95-4.228,49.163,3.436m.276-.548C33.948-4.916,13.834,3.644,4.6,21.97S.464,61.553,15.956,69.356s35.6-.756,44.836-19.082S64.93,10.691,49.44,2.888Z" fill="#004990"/>
            </g>
          </g>
        </g>
        <g id="Group_51" data-name="Group 51" transform="translate(14.86 14.937)">
          <g id="Group_50" data-name="Group 50">
            <path id="Path_449" data-name="Path 449" d="M14.242,60.409C.535,53.5-4.084,34.919,3.945,18.98S29.657-4.31,43.364,2.6s18.326,25.49,10.3,41.428S27.949,67.313,14.242,60.409Z" transform="translate(0.306 0.307)" fill="#005bb7"/>
            <g id="Group_49" data-name="Group 49">
              <path id="Path_450" data-name="Path 450" d="M43.533,3.176c13.577,6.84,18.126,25.2,10.161,41.017S28.263,67.28,14.686,60.441-3.44,35.237,4.525,19.424,29.956-3.664,43.533,3.176m.276-.548c-13.858-6.981-31.727.43-39.832,16.52S.552,54.008,14.41,60.989s31.726-.43,39.831-16.52S57.667,9.608,43.809,2.627Z" fill="#004990"/>
            </g>
          </g>
        </g>
        <g id="Group_52" data-name="Group 52" transform="translate(6.462 7.482)">
          <ellipse id="Ellipse_18" data-name="Ellipse 18" cx="30.563" cy="26.563" rx="30.563" ry="26.563" transform="translate(0 54.591) rotate(-63.264)" fill="#00ff5f"/>
          <path id="Path_451" data-name="Path 451" d="M41.333,3.082C54.264,9.6,58.676,27.016,51.171,41.915S27.04,63.637,14.11,57.124-3.233,33.19,4.272,18.29,28.4-3.431,41.333,3.082m.276-.548C28.377-4.133,11.381,2.813,3.724,18.014S.6,51.006,13.834,57.672s30.228-.279,37.885-15.481S54.842,9.2,41.609,2.533Z" transform="translate(9.752 9.143)" fill="#004990"/>
        </g>
        <path id="Path_452" data-name="Path 452" d="M15.633,1.461c4.657,2.346,6.129,8.821,3.287,14.461S10,24.234,5.343,21.887-.786,13.067,2.055,7.426s8.92-8.311,13.577-5.966m.276-.548c-4.952-2.495-11.413.3-14.4,6.237S.115,19.941,5.066,22.436s11.413-.3,14.4-6.238S20.861,3.407,15.909.912Z" transform="translate(38.644 37.628)" fill="#004990"/>
      </g>
      <path id="Path_453" data-name="Path 453" d="M.761,4.185A3.663,3.663,0,0,1,5.377,2.92C4.106,1.354,2.38-.381.416.074A4.586,4.586,0,0,1,0,5.008" transform="translate(131.387 30.609)" fill="none" stroke="#004990" stroke-linecap="round" stroke-linejoin="round" stroke-miterlimit="10" stroke-width="2.79"/>
      <path id="Path_454" data-name="Path 454" d="M0,3.776A6.1,6.1,0,0,0,6.787,0a11.815,11.815,0,0,0-.564,3.481A3.982,3.982,0,0,0,7.683,6.574L3.013,4.931l.254.261" transform="translate(63.173 160.493)" fill="none" stroke="#004990" stroke-linecap="round" stroke-linejoin="round" stroke-miterlimit="10" stroke-width="2.79"/>
      <path id="Path_455" data-name="Path 455" d="M3.053,0,6.062,1.953a1.625,1.625,0,0,1,.715.719A1.64,1.64,0,0,1,6.5,3.963Q3.3,9.894,0,15.771" transform="translate(147.596 52.473)" fill="none" stroke="#004990" stroke-linecap="round" stroke-miterlimit="10" stroke-width="1.79"/>
      <path id="Path_456" data-name="Path 456" d="M0,0" transform="translate(144.09 75.098)" fill="none" stroke="#004990" stroke-miterlimit="10" stroke-width="0.792"/>
      <path id="Path_457" data-name="Path 457" d="M24.087,0Q12.258,23.944,0,47.672" transform="translate(116.981 82.62)" fill="none" stroke="#004990" stroke-linecap="round" stroke-miterlimit="10" stroke-width="1.79"/>
      <path id="Path_458" data-name="Path 458" d="M9.158,0A188.886,188.886,0,0,0,.428,17.632,2.817,2.817,0,0,0,.149,19.9a2.753,2.753,0,0,0,1.963,1.186,43.82,43.82,0,0,0,11.277,1.279" transform="translate(76.305 142.631)" fill="none" stroke="#004990" stroke-linecap="round" stroke-miterlimit="10" stroke-width="1.79"/>
      <path id="Path_459" data-name="Path 459" d="M.929,0A26.592,26.592,0,0,0,1.962,16.991" transform="translate(14.408 107.51)" fill="none" stroke="#004990" stroke-linecap="round" stroke-miterlimit="10" stroke-width="1.79"/>
      <path id="Path_460" data-name="Path 460" d="M.056,0,0,.243" transform="translate(18.134 127.967)" fill="none" stroke="#004990" stroke-linecap="round" stroke-miterlimit="10" stroke-width="1.79"/>
      <path id="Path_461" data-name="Path 461" d="M0,18.66A29.809,29.809,0,0,0,16.727,0" transform="translate(93.931 56.512)" fill="none" stroke="#004990" stroke-linecap="round" stroke-miterlimit="10" stroke-width="1.79"/>
      <path id="Path_462" data-name="Path 462" d="M0,7.21A16.332,16.332,0,0,1,14.916.07" transform="translate(67.979 25.791)" fill="none" stroke="#fff" stroke-linecap="round" stroke-miterlimit="10" stroke-width="5.79"/>
      <path id="Path_463" data-name="Path 463" d="M0,0" transform="translate(64.127 40.563)" fill="none" stroke="#fff" stroke-miterlimit="10" stroke-width="0.792"/>
      <path id="Path_464" data-name="Path 464" d="M0,18.923A27.215,27.215,0,0,1,23.54,0" transform="translate(26.595 79.563)" fill="none" stroke="#fff" stroke-linecap="round" stroke-miterlimit="10" stroke-width="5.79"/>
      <path id="Path_465" data-name="Path 465" d="M0,0" transform="translate(47.938 78.805)" fill="none" stroke="#fff" stroke-miterlimit="10" stroke-width="0.792"/>
      <path id="Path_466" data-name="Path 466" d="M.089,0,0,.383" transform="translate(27.072 110.726)" fill="none" stroke="#fff" stroke-miterlimit="10" stroke-width="0.792"/>
      <g id="Group_54" data-name="Group 54" transform="translate(44.105 17.451)">
        <path id="Path_467" data-name="Path 467" d="M15.732,0Q8.292,15.014,0,29.584" transform="translate(4.164)" fill="none" stroke="#fff" stroke-linecap="round" stroke-miterlimit="10" stroke-width="5.79"/>
        <path id="Path_468" data-name="Path 468" d="M0,0" transform="translate(0 39.558)" fill="none" stroke="#fff" stroke-linecap="round" stroke-miterlimit="10" stroke-width="5.79"/>
      </g>
      <path id="Path_469" data-name="Path 469" d="M.055,0h0" transform="translate(87.373 77.509)" fill="none" stroke="#004990" stroke-linecap="round" stroke-miterlimit="10" stroke-width="1.79"/>
      <path id="Path_470" data-name="Path 470" d="M0,15.493A27.225,27.225,0,0,0,27.78,0" transform="translate(50.266 133.083)" fill="none" stroke="#004990" stroke-linecap="round" stroke-miterlimit="10" stroke-width="1.79"/>
    </g>
    <g id="Group_207" data-name="Group 207" transform="translate(1481.605 1855.118)">
      <path id="Path_656" data-name="Path 656" d="M4179.862,1325.269l-32.241-6.675-19.233-59.193Z" transform="translate(-4126.791 -1246.732)" fill="#fff" stroke="#004990" stroke-linecap="round" stroke-linejoin="round" stroke-width="2.49"/>
      <path id="Path_657" data-name="Path 657" d="M4159.782,1267.727l1.567-14.275-35.063-10.722Z" transform="translate(-4126.286 -1242.73)" fill="#fff" stroke="#004990" stroke-linecap="round" stroke-linejoin="round" stroke-width="2.49"/>
    </g>
  </g>
</svg>
