<svg xmlns="http://www.w3.org/2000/svg" xmlns:xlink="http://www.w3.org/1999/xlink" width="1920" height="2367" viewBox="0 0 1920 2367">
  <defs>
    <clipPath id="clip-path">
      <rect id="Rectangle_147" data-name="Rectangle 147" width="1920" height="2367"/>
    </clipPath>
    <clipPath id="clip-path-2">
      <ellipse id="Ellipse_6" data-name="Ellipse 6" cx="65.403" cy="104.352" rx="65.403" ry="104.352" transform="translate(0 111.149) rotate(-58.201)" fill="none"/>
    </clipPath>
    <clipPath id="clip-path-3">
      <path id="Path_42" data-name="Path 42" d="M476.68,640.9l260.659-95.857V231.283l-152.431-16.3-130.245,160.6V620.507Z" transform="translate(-454.663 -214.988)" fill="none"/>
    </clipPath>
  </defs>
  <g id="bg-winners-banner" clip-path="url(#clip-path)">
    <g id="BG左下" transform="translate(0 -212.135)">
      <path id="Path_31" data-name="Path 31" d="M791.538,464.462,326.924,557.278l90.714,106.807,368.291-175.52Z" transform="translate(-271.811 749.089)" fill="#004990" stroke="#004990" stroke-miterlimit="10" stroke-width="2.434"/>
      <path id="Path_32" data-name="Path 32" d="M357.877,786.447l17.136-3.193,29.01-77.554,205.538-75.557L556.6,584.865,392.7,683.759Z" transform="translate(-423.567 614.218)" fill="#fff" stroke="#004990" stroke-miterlimit="10" stroke-width="1.654"/>
      <path id="Path_44" data-name="Path 44" d="M432.69,554.132l36.536,27.533L732.11,470.949l7.817-15.7Z" transform="translate(-225.976 831.509)" fill="#fff" stroke="#004990" stroke-miterlimit="10" stroke-width="2.434"/>
    </g>
    <g id="BG右上" transform="translate(-1440.191 676.782) rotate(6.024)">
      <path id="Path_28" data-name="Path 28" d="M949.608,293.9H845.647L616.031,556.952Z" transform="translate(933.833 643.263) rotate(7)" fill="#004990" stroke="#004990" stroke-miterlimit="10" stroke-width="2.434"/>
      <path id="Path_35" data-name="Path 35" d="M574.606,405.251,1145.26,53.458,572.132,544.4Z" transform="translate(957.271 637.284)" fill="#004990" stroke="#004990" stroke-miterlimit="10" stroke-width="2.434"/>
    </g>
    <g id="BG右下" transform="matrix(0.978, -0.208, 0.208, 0.978, -388.857, 548.235)">
      <path id="Path_29" data-name="Path 29" d="M0,58.237,758.769,385.953l6.578-219.607L85.04,0Z" transform="translate(1409.463 1705.357) rotate(-43)" fill="#004990" stroke="#004990" stroke-miterlimit="10" stroke-width="2.434"/>
      <path id="Path_33" data-name="Path 33" d="M4.213,0l228.56,263.558H95.475L0,20.155Z" transform="translate(1566.25 1640.115) rotate(-53.989)" fill="#00ff5f" stroke="#004990" stroke-miterlimit="10" stroke-width="2.434"/>
    </g>
    <path id="Path_1056" data-name="Path 1056" d="M791.538,464.462,326.924,557.278l90.714,106.807,368.291-175.52Z" transform="translate(-431.538 1732.916)" fill="#004990" stroke="#004990" stroke-miterlimit="10" stroke-width="2.434"/>
    <path id="Path_1057" data-name="Path 1057" d="M432.69,554.132l36.536,27.533L732.11,470.949l7.817-15.7Z" transform="translate(-323.77 1677.714)" fill="#fff" stroke="#004990" stroke-miterlimit="10" stroke-width="2.434"/>
    <path id="Path_1058" data-name="Path 1058" d="M782.456,281.22,690.8,374.081l-74.771,13.266,25.024,100.1Z" transform="translate(-522.387 1287.444) rotate(13)" fill="#fff" stroke="#004990" stroke-miterlimit="10" stroke-width="2.434"/>
    <g id="Group_1113" data-name="Group 1113" transform="translate(0 -91)">
      <g id="BG右上-2" data-name="BG右上" transform="translate(-162.974 -255.347)">
        <path id="Path_28-2" data-name="Path 28" d="M895.776,293.9H808.592L616.031,514.5Z" transform="translate(1036.372 602.018)" fill="#004990" stroke="#004990" stroke-miterlimit="10" stroke-width="2.434"/>
        <path id="Path_30" data-name="Path 30" d="M782.456,281.22,690.8,374.081l-74.771,13.266,25.024,100.1Z" transform="translate(1036.372 590.266)" fill="#fff" stroke="#004990" stroke-miterlimit="10" stroke-width="2.434"/>
        <path id="Path_35-2" data-name="Path 35" d="M574.922,450.18,1218.45,53.458,572.132,607.1Z" transform="translate(1000.841 403.717)" fill="#004990" stroke="#004990" stroke-miterlimit="10" stroke-width="2.434"/>
        <path id="Path_36" data-name="Path 36" d="M706.447,284.383l55.584-66.76,259.827,48.239,83-153.16,11.19,19.3L1045.854,294.81l-283.828-8.738-57.7,24.416Z" transform="translate(1123.377 436.075)" fill="#00ff5f" stroke="#004990" stroke-miterlimit="10" stroke-width="2.434"/>
      </g>
      <g id="BG右">
        <path id="Path_43" data-name="Path 43" d="M1112.87,288.672l7.622,116.875L683.779,476.766l-38.958-27.478Z" transform="translate(1020.54 601.781)" fill="#ff4398" stroke="#004990" stroke-miterlimit="10" stroke-width="2.434"/>
        <path id="Path_45" data-name="Path 45" d="M1018.17,436.4V395.332L855.353,461.869l-7.817,15.7Z" transform="translate(991.107 622.72)" fill="#00ff5f" stroke="#004990" stroke-miterlimit="10" stroke-width="2.434"/>
      </g>
      <g id="BG左上" transform="translate(31.372 -172.714)">
        <path id="Path_26" data-name="Path 26" d="M622.652,505.45,422.482,338.4l-62.061-4.371L328.209,468.347Z" transform="translate(-361.336 319.896)" fill="#ff4398"/>
        <path id="Path_27" data-name="Path 27" d="M506.536,396.5l138.894,4.235L398.5,127.475l.261,12.254Z" transform="translate(-318.43 193.071)" fill="#fff" stroke="#004990" stroke-miterlimit="10" stroke-width="2.434"/>
        <line id="Line_8" data-name="Line 8" x1="24.038" y2="47.559" transform="translate(-3.517 682.083)" fill="none" stroke="#004990" stroke-miterlimit="10" stroke-width="2.434"/>
        <line id="Line_9" data-name="Line 9" x1="47.559" y1="24.038" transform="translate(-15.278 693.844)" fill="none" stroke="#004990" stroke-miterlimit="10" stroke-width="2.434"/>
        <path id="Path_34" data-name="Path 34" d="M862.626,697.762,431.991,203.612,263.04,348.427,862.626,744.764Z" transform="translate(-387.183 235.356)" fill="#004990" stroke="#004990" stroke-miterlimit="10" stroke-width="2.434"/>
        <g id="Group_17" data-name="Group 17" transform="translate(3.121 461.681)">
          <ellipse id="Ellipse_4" data-name="Ellipse 4" cx="66.688" cy="106.403" rx="66.688" ry="106.403" transform="translate(0 113.334) rotate(-58.201)" fill="#ff4398" stroke="#004990" stroke-miterlimit="10" stroke-width="4.867"/>
          <ellipse id="Ellipse_5" data-name="Ellipse 5" cx="66.688" cy="106.403" rx="66.688" ry="106.403" transform="translate(0 113.334) rotate(-58.201)" fill="#ff4398"/>
          <path id="Path_37" data-name="Path 37" d="M416.663,350.75c-20.3-18.85-32.463-42.184-30.263-62.45,3.369-30.974,39.065-43.6,81.071-29.66" transform="translate(-341.479 -206.74)" fill="#ff4398" stroke="#004990" stroke-miterlimit="10" stroke-width="1.715"/>
          <path id="Path_38" data-name="Path 38" d="M483.056,271.862c26.576,20,43.494,47.76,40.927,71.366-3.288,30.224-37.355,42.981-78.031,30.627" transform="translate(-317.757 -199.256)" fill="#ff4398" stroke="#004990" stroke-miterlimit="10" stroke-width="1.715"/>
          <path id="Path_39" data-name="Path 39" d="M394.289,289.995c3.04-27.959,36.636-38.58,75.038-23.72,19.954,7.72,37.279,20.8,48.893,35.509" transform="translate(-338.248 -204.136)" fill="#ff4398" stroke="#004990" stroke-miterlimit="10" stroke-width="1.478"/>
          <path id="Path_40" data-name="Path 40" d="M526.743,320.641c-3.04,27.959-36.636,38.579-75.038,23.72a119.468,119.468,0,0,1-40.749-26.395" transform="translate(-331.638 -180.97)" fill="#ff4398" stroke="#004990" stroke-miterlimit="10" stroke-width="1.478"/>
          <g id="Group_16" data-name="Group 16" transform="translate(2.42 2.173)">
            <g id="Group_15" data-name="Group 15" clip-path="url(#clip-path-2)">
              <path id="Path_41" data-name="Path 41" d="M409.453,232.53s-8.641,12.179,18.6,25.585c0,0,8.265,1.451,1.549,13.085-3.23,5.6-1.133,13.85,3.779,18.729,3.6,3.57,8.822,10.046,13.917,12.662,0,0,3.916,3.415.668,24.078s27.064,27.787,27.064,27.787,7.054.025-3.729,9.209c0,0-17.269,10.808,5.684,19.97,0,0,35.749,15.581,22.951,17.769a13.622,13.622,0,0,1-5.318-.239c-4.827-1.1-9.92-4.865-20.853-4.7a79.869,79.869,0,0,1-25.716-3.67c-8.781-2.814-23.527-4.084-11.875,12.7l6.015,11.743,60.83,30.308-4.124-6.82s-33.783-29.075-10.058-26.615c0,0,39.516,6.112,24.942-12.825a28.171,28.171,0,0,0-8.8-7.6c-10.325-5.621-39.424-23.072-21.433-32.332,0,0-12.2-33.1-19.94-41.456,0,0,3.588-23.287-8.215-28.381a18.38,18.38,0,0,1-5.693-3.645c-3.3-3.2-6.228-8.458,1.56-13.786,12.459-8.528-1.517-15.438-4.912-17.955s-11.792-11.436-4.286-12.962l3.507-6.48L414.079,223.31Z" transform="translate(-335.171 -220.688)" fill="#fff"/>
            </g>
          </g>
          <ellipse id="Ellipse_7" data-name="Ellipse 7" cx="28.358" cy="45.247" rx="28.358" ry="45.247" transform="translate(72.175 113.007) rotate(-58.201)" fill="#00ff5f" stroke="#00ff5f" stroke-miterlimit="10" stroke-width="1.53"/>
          <ellipse id="Ellipse_8" data-name="Ellipse 8" cx="9.959" cy="15.891" rx="9.959" ry="15.891" transform="translate(106.82 112.85) rotate(-58.201)" fill="#004990"/>
        </g>
        <g id="Group_19" data-name="Group 19" transform="translate(227.967 440.967)">
          <g id="Group_18" data-name="Group 18" clip-path="url(#clip-path-3)">
            <rect id="_20887_2.psd" data-name="20887 2.psd" width="289.644" height="600.498" transform="translate(0 25.555)" fill="none"/>
          </g>
        </g>
        <g id="Group_20" data-name="Group 20" transform="translate(-6.25 498.185)">
          <circle id="Ellipse_9" data-name="Ellipse 9" cx="4.308" cy="4.308" r="4.308" transform="translate(0 22.207)" fill="#fff" stroke="#004990" stroke-miterlimit="10" stroke-width="2.434"/>
          <circle id="Ellipse_10" data-name="Ellipse 10" cx="4.308" cy="4.308" r="4.308" transform="translate(20.886 22.207)" fill="#fff" stroke="#004990" stroke-miterlimit="10" stroke-width="2.434"/>
          <circle id="Ellipse_11" data-name="Ellipse 11" cx="4.308" cy="4.308" r="4.308" transform="translate(0 0)" fill="#fff" stroke="#004990" stroke-miterlimit="10" stroke-width="2.434"/>
          <circle id="Ellipse_12" data-name="Ellipse 12" cx="4.308" cy="4.308" r="4.308" transform="translate(20.886 0)" fill="#fff" stroke="#004990" stroke-miterlimit="10" stroke-width="2.434"/>
        </g>
      </g>
      <g id="BG右上上">
        <path id="Path_28-3" data-name="Path 28" d="M959.355,293.9h-107L616.031,564.639Z" transform="translate(1054.64 -311.324)" fill="#004990" stroke="#004990" stroke-miterlimit="10" stroke-width="2.434"/>
        <path id="Path_35-3" data-name="Path 35" d="M574.091,332.061l451.928-278.6-453.887,388.8Z" transform="translate(934.14 22.247) rotate(-13)" fill="#277acb" stroke="#004990" stroke-miterlimit="10" stroke-width="2.434"/>
      </g>
      <g id="Group_55" data-name="Group 55" transform="translate(-353.572 4.03)">
        <g id="Group_25" data-name="Group 25">
          <path id="Path_431" data-name="Path 431" d="M657.549,540.61l-68.21-40.417a1.157,1.157,0,0,1-.495-1.5l69.968-138.9a1.159,1.159,0,0,1,1.5-.5l73.031,30.617a1.239,1.239,0,0,1,.235.091l.069.037c.029.012.056.024.083.038a1.268,1.268,0,0,1,.5.452l28.746,25.734a1.136,1.136,0,0,1,.293,1.354L697.136,548.9a1.138,1.138,0,0,1-1.29.565l-37.467-8.579a1.236,1.236,0,0,1-.568-.128C657.789,540.751,657.589,540.636,657.549,540.61Z" fill="#ff4398"/>
          <g id="Group_24" data-name="Group 24">
            <path id="Path_432" data-name="Path 432" d="M733.224,391.081l-.022.043,28.99,25.953L696.059,548.362l-37.713-8.636-.02.039-.121-.071-.038-.009.005-.011-68.251-40.441,69.968-138.9,73.17,30.676.006-.011.028.025.131.055m1.01-2c-.053-.027-.108-.052-.164-.076l-.049-.02a2.143,2.143,0,0,0-.2-.082L660.73,358.257a2.319,2.319,0,0,0-3,.995l-69.968,138.9a2.318,2.318,0,0,0,.99,3.005l68.062,40.329a2.6,2.6,0,0,0,.347.211c.02.01.04.02.061.029s.06.033.09.048a2.573,2.573,0,0,0,1.047.273l37.271,8.534a2.281,2.281,0,0,0,2.58-1.13l66.133-131.285a2.273,2.273,0,0,0-.585-2.708l-28.639-25.639a2.543,2.543,0,0,0-.889-.738Z" fill="#004990"/>
          </g>
        </g>
        <g id="Group_27" data-name="Group 27">
          <path id="Path_433" data-name="Path 433" d="M660.41,541.443a.555.555,0,0,1-.253-.258.562.562,0,0,1,0-.495l74.9-148.684a.561.561,0,0,1,.753-.249.582.582,0,0,1,.13.09l26.782,24.894a.564.564,0,0,1,.119.664L696.71,548.69a.56.56,0,0,1-.617.3l-35.546-7.495a.542.542,0,0,1-.137-.052Z" fill="#ff4398"/>
          <g id="Group_26" data-name="Group 26">
            <path id="Path_434" data-name="Path 434" d="M735.561,392.258l26.781,24.894L696.209,548.437l-35.546-7.495,74.9-148.684m.505-1a1.122,1.122,0,0,0-1.507.5l-74.9,148.683a1.123,1.123,0,0,0,.5,1.508,1.152,1.152,0,0,0,.273.1l35.546,7.494a1.122,1.122,0,0,0,1.234-.593l66.134-131.285a1.123,1.123,0,0,0-.239-1.327l-26.781-24.894a1.147,1.147,0,0,0-.259-.18Z" fill="#004990"/>
          </g>
        </g>
        <g id="Group_43" data-name="Group 43">
          <g id="Group_29" data-name="Group 29">
            <path id="Path_435" data-name="Path 435" d="M664.295,435.987c-12.787-6.441-17-23.967-9.394-39.067s24.2-22.146,36.985-15.7l1.928.971c12.787,6.441,17,23.967,9.394,39.068s-24.2,22.145-36.985,15.7Z" fill="#005bb7"/>
            <g id="Group_28" data-name="Group 28">
              <path id="Path_436" data-name="Path 436" d="M693.561,382.687C706.092,389,710.186,406.153,702.706,421s-23.7,21.768-36.231,15.456l-1.928-.971c-12.53-6.312-16.624-23.466-9.145-38.314s23.7-21.768,36.231-15.456l1.928.971m.505-1-1.928-.971c-13.063-6.581-29.992.576-37.738,15.953s-3.421,33.241,9.642,39.821l1.928.971c13.063,6.581,29.993-.576,37.739-15.953s3.42-33.241-9.643-39.821Z" fill="#004990"/>
            </g>
          </g>
          <g id="Group_32" data-name="Group 32">
            <g id="Group_31" data-name="Group 31">
              <path id="Path_437" data-name="Path 437" d="M664.4,435.787c-12.676-6.386-16.846-23.776-9.294-38.766s24.007-21.991,36.683-15.606,16.845,23.776,9.294,38.766S677.072,442.172,664.4,435.787Z" fill="#005bb7"/>
              <g id="Group_30" data-name="Group 30">
                <path id="Path_438" data-name="Path 438" d="M691.634,381.716c12.53,6.312,16.624,23.466,9.145,38.314s-23.7,21.768-36.232,15.456-16.624-23.466-9.145-38.314,23.7-21.768,36.232-15.456m.3-.6c-12.841-6.469-29.5.6-37.135,15.754s-3.4,32.749,9.443,39.218,29.5-.6,37.136-15.754S704.778,387.585,691.934,381.116Z" fill="#004990"/>
              </g>
            </g>
          </g>
          <g id="Group_34" data-name="Group 34">
            <path id="Path_439" data-name="Path 439" d="M664.705,431.391c-10.967-5.525-14.566-20.589-8.022-33.58s20.791-19.065,31.758-13.54l1.927.971c10.968,5.525,14.567,20.588,8.023,33.579s-20.791,19.065-31.759,13.541Z" fill="#005bb7"/>
            <g id="Group_33" data-name="Group 33">
              <path id="Path_440" data-name="Path 440" d="M690.116,385.743c10.708,5.394,14.188,20.091,7.773,32.826s-20.3,18.686-31,13.292l-1.928-.971c-10.708-5.4-14.188-20.091-7.773-32.826s20.3-18.686,31-13.292l1.928.971m.5-1-1.928-.972c-11.243-5.663-25.828.522-32.511,13.79s-2.974,28.669,8.27,34.333l1.928.971c11.244,5.664,25.828-.522,32.512-13.789s2.973-28.669-8.271-34.333Z" fill="#004990"/>
            </g>
          </g>
          <g id="Group_37" data-name="Group 37">
            <g id="Group_36" data-name="Group 36">
              <ellipse id="Ellipse_16" data-name="Ellipse 16" cx="26.156" cy="22.046" rx="26.156" ry="22.046" transform="translate(645.117 421.272) rotate(-63.256)" fill="#00ff5f"/>
              <g id="Group_35" data-name="Group 35">
                <path id="Path_441" data-name="Path 441" d="M688.188,384.772c10.709,5.394,14.189,20.091,7.773,32.826s-20.3,18.686-31,13.292-14.188-20.091-7.773-32.826,20.3-18.686,31-13.292m.3-.6c-11.022-5.552-25.336.545-31.908,13.591s-2.952,28.177,8.071,33.73,25.337-.544,31.909-13.59,2.951-28.178-8.072-33.731Z" fill="#004990"/>
              </g>
            </g>
          </g>
          <g id="Group_39" data-name="Group 39">
            <path id="Path_442" data-name="Path 442" d="M668.08,424.074c-.2-.1-.381-.21-.566-.321l-.212-.128-.165-.062c-.2-.082-.4-.165-.6-.264-7.88-3.969-10.635-14.459-6.14-23.382s14.563-12.953,22.444-8.983c.193.1.376.207.559.317l.218.131.173.066c.2.082.394.163.587.261,7.881,3.969,10.636,14.459,6.141,23.382S675.96,428.044,668.08,424.074Z" fill="#005bb7"/>
            <g id="Group_38" data-name="Group 38">
              <path id="Path_443" data-name="Path 443" d="M684.131,392.21c7.617,3.837,10.254,13.968,5.891,22.628s-14.073,12.572-21.69,8.735c-.259-.131-.5-.287-.746-.432-.265-.112-.532-.212-.791-.343-7.617-3.836-10.255-13.968-5.892-22.628s14.074-12.571,21.69-8.735c.26.131.5.287.747.432.264.112.531.212.791.343m.505-1c-.221-.111-.43-.2-.633-.28l-.157-.065-.146-.088c-.187-.113-.381-.23-.6-.341-8.157-4.109-18.563.032-23.2,9.232s-1.768,20.027,6.389,24.136c.22.111.43.2.632.28l.157.065.146.088c.188.113.382.23.6.341,8.157,4.109,18.564-.032,23.2-9.232s1.768-20.027-6.389-24.136Z" fill="#004990"/>
            </g>
          </g>
          <g id="Group_42" data-name="Group 42">
            <g id="Group_41" data-name="Group 41">
              <path id="Path_444" data-name="Path 444" d="M668.181,423.874c-7.77-3.914-10.48-14.268-6.04-23.081s14.372-12.8,22.141-8.884,10.48,14.268,6.041,23.081S675.951,427.788,668.181,423.874Z" fill="#005bb7"/>
              <g id="Group_40" data-name="Group 40">
                <path id="Path_445" data-name="Path 445" d="M684.131,392.21c7.616,3.837,10.254,13.968,5.891,22.628s-14.073,12.572-21.69,8.735-10.254-13.968-5.891-22.629,14.074-12.571,21.69-8.734m.3-.6c-7.936-4-18.072.055-22.6,9.033s-1.746,19.536,6.19,23.533,18.072-.054,22.6-9.033S692.367,395.608,684.431,391.61Z" fill="#004990"/>
              </g>
            </g>
          </g>
        </g>
        <g id="Group_53" data-name="Group 53">
          <g id="Group_45" data-name="Group 45">
            <path id="Path_446" data-name="Path 446" d="M625.178,512.24c-16.933-8.53-22.5-31.773-12.4-51.814s32.084-29.4,49.017-20.875l1.793.9c16.933,8.53,22.495,31.773,12.4,51.814s-32.084,29.4-49.016,20.875Z" fill="#005bb7"/>
            <g id="Group_44" data-name="Group 44">
              <path id="Path_447" data-name="Path 447" d="M663.334,440.955c16.683,8.4,22.124,31.264,12.152,51.06s-31.58,29.031-48.263,20.627l-1.793-.9c-16.683-8.4-22.123-31.264-12.151-51.06s31.58-29.031,48.263-20.627l1.792.9m.505-1-1.792-.9c-17.209-8.669-39.536.807-49.771,21.124s-4.56,43.9,12.649,52.567l1.793.9c17.209,8.669,39.536-.807,49.77-21.124s4.56-43.9-12.649-52.567Z" fill="#004990"/>
            </g>
          </g>
          <g id="Group_48" data-name="Group 48">
            <g id="Group_47" data-name="Group 47">
              <ellipse id="Ellipse_17" data-name="Ellipse 17" cx="40.471" cy="34.16" rx="40.471" ry="34.16" transform="translate(594.771 496.672) rotate(-63.256)" fill="#005bb7"/>
              <g id="Group_46" data-name="Group 46">
                <path id="Path_448" data-name="Path 448" d="M661.542,440.052c16.683,8.4,22.123,31.264,12.151,51.06s-31.58,29.031-48.263,20.627-22.123-31.264-12.151-51.06,31.58-29.031,48.263-20.627m.3-.6c-16.988-8.558-39.045.829-49.168,20.925s-4.538,43.407,12.45,51.964,39.044-.829,49.167-20.925,4.538-43.407-12.449-51.964Z" fill="#004990"/>
              </g>
            </g>
          </g>
          <g id="Group_51" data-name="Group 51">
            <g id="Group_50" data-name="Group 50">
              <path id="Path_449" data-name="Path 449" d="M627.02,507.344c-15.031-7.572-20.1-27.952-11.291-45.431s28.2-25.539,43.227-17.967,20.1,27.952,11.292,45.43S642.051,514.915,627.02,507.344Z" fill="#005bb7"/>
              <g id="Group_49" data-name="Group 49">
                <path id="Path_450" data-name="Path 450" d="M658.8,444.246c14.889,7.5,19.877,27.638,11.142,44.979s-27.887,25.318-42.775,17.818-19.878-27.638-11.143-44.979,27.887-25.318,42.776-17.818m.3-.6c-15.2-7.655-34.792.472-43.68,18.116s-3.756,38.228,11.441,45.883,34.791-.471,43.679-18.116S674.3,451.3,659.1,443.646Z" fill="#004990"/>
              </g>
            </g>
          </g>
          <g id="Group_52" data-name="Group 52">
            <ellipse id="Ellipse_18" data-name="Ellipse 18" cx="33.515" cy="29.129" rx="33.515" ry="29.129" transform="translate(601.857 492.453) rotate(-63.264)" fill="#00ff5f"/>
            <path id="Path_451" data-name="Path 451" d="M657.876,445.994c14.18,7.143,19.019,26.246,10.789,42.585S642.2,512.4,628.024,505.257s-19.019-26.246-10.789-42.585,26.462-23.82,40.641-16.678m.3-.6c-14.51-7.31-33.148.306-41.545,16.976s-3.424,36.179,11.087,43.489,33.148-.306,41.545-16.976S672.687,452.7,658.176,445.394Z" fill="#004990"/>
          </g>
          <path id="Path_452" data-name="Path 452" d="M654.291,467.248c5.107,2.573,6.721,9.673,3.6,15.858s-9.782,9.115-14.889,6.542-6.721-9.672-3.6-15.858,9.782-9.114,14.889-6.542m.3-.6c-5.43-2.736-12.515.333-15.793,6.84s-1.527,14.027,3.9,16.763,12.515-.334,15.793-6.841S660.013,469.383,654.586,466.648Z" fill="#004990"/>
        </g>
        <path id="Path_453" data-name="Path 453" d="M732.453,396.211a4.017,4.017,0,0,1,5.062-1.387c-1.393-1.717-3.286-3.62-5.44-3.121a5.029,5.029,0,0,1-.456,5.411" fill="none" stroke="#004990" stroke-linecap="round" stroke-linejoin="round" stroke-miterlimit="10" stroke-width="2.79"/>
        <path id="Path_454" data-name="Path 454" d="M656.816,538.193a6.691,6.691,0,0,0,7.443-4.141,12.955,12.955,0,0,0-.618,3.817,4.367,4.367,0,0,0,1.6,3.392l-5.121-1.8.279.286" fill="none" stroke="#004990" stroke-linecap="round" stroke-linejoin="round" stroke-miterlimit="10" stroke-width="2.79"/>
        <path id="Path_455" data-name="Path 455" d="M752.742,415.6l3.3,2.142a1.343,1.343,0,0,1,.477,2.2q-3.508,6.5-7.125,12.948" fill="none" stroke="#004990" stroke-linecap="round" stroke-miterlimit="10" stroke-width="1.79"/>
        <path id="Path_456" data-name="Path 456" d="M745.55,440.409" fill="none" stroke="#004990" stroke-miterlimit="10" stroke-width="0.792"/>
        <path id="Path_457" data-name="Path 457" d="M742.236,448.657q-12.972,26.257-26.414,52.277" fill="none" stroke="#004990" stroke-linecap="round" stroke-miterlimit="10" stroke-width="1.79"/>
        <path id="Path_458" data-name="Path 458" d="M681.259,514.465a207.178,207.178,0,0,0-9.573,19.335,3.09,3.09,0,0,0-.306,2.488,3.018,3.018,0,0,0,2.153,1.3,48.051,48.051,0,0,0,12.366,1.4" fill="none" stroke="#004990" stroke-linecap="round" stroke-miterlimit="10" stroke-width="1.79"/>
        <path id="Path_459" data-name="Path 459" d="M604.36,475.951a29.161,29.161,0,0,0,1.133,18.632" fill="none" stroke="#004990" stroke-linecap="round" stroke-miterlimit="10" stroke-width="1.79"/>
        <path id="Path_460" data-name="Path 460" d="M607.488,498.384l-.062.267" fill="none" stroke="#004990" stroke-linecap="round" stroke-miterlimit="10" stroke-width="1.79"/>
        <path id="Path_461" data-name="Path 461" d="M690.545,440.489a32.689,32.689,0,0,0,18.343-20.462" fill="none" stroke="#004990" stroke-linecap="round" stroke-miterlimit="10" stroke-width="1.79"/>
        <path id="Path_462" data-name="Path 462" d="M662.086,394.246a17.909,17.909,0,0,1,16.357-7.83" fill="none" stroke="#fff" stroke-linecap="round" stroke-miterlimit="10" stroke-width="5.79"/>
        <path id="Path_463" data-name="Path 463" d="M657.862,402.537" fill="none" stroke="#fff" stroke-miterlimit="10" stroke-width="0.792"/>
        <path id="Path_464" data-name="Path 464" d="M616.705,466.056A29.844,29.844,0,0,1,642.519,445.3" fill="none" stroke="#fff" stroke-linecap="round" stroke-miterlimit="10" stroke-width="5.79"/>
        <path id="Path_465" data-name="Path 465" d="M640.109,444.474" fill="none" stroke="#fff" stroke-miterlimit="10" stroke-width="0.792"/>
        <path id="Path_466" data-name="Path 466" d="M617.326,479.478l-.1.42" fill="none" stroke="#fff" stroke-miterlimit="10" stroke-width="0.792"/>
        <g id="Group_54" data-name="Group 54">
          <path id="Path_467" data-name="Path 467" d="M657.724,377.193q-8.159,16.464-17.252,32.442" fill="none" stroke="#fff" stroke-linecap="round" stroke-miterlimit="10" stroke-width="5.79"/>
          <path id="Path_468" data-name="Path 468" d="M635.906,420.572" fill="none" stroke="#fff" stroke-linecap="round" stroke-miterlimit="10" stroke-width="5.79"/>
        </g>
        <path id="Path_469" data-name="Path 469" d="M683.415,443.052h0" fill="none" stroke="#004990" stroke-linecap="round" stroke-miterlimit="10" stroke-width="1.79"/>
        <path id="Path_470" data-name="Path 470" d="M642.662,520.985A29.855,29.855,0,0,0,673.125,504" fill="none" stroke="#004990" stroke-linecap="round" stroke-miterlimit="10" stroke-width="1.79"/>
      </g>
    </g>
  </g>
</svg>
