<svg xmlns="http://www.w3.org/2000/svg" width="128.384" height="41.002" viewBox="0 0 128.384 41.002">
  <g id="LOGO黑" transform="translate(-2497.792 -269.379)">
    <g id="Group_5" data-name="Group 5" transform="translate(2545.125 275.455)">
      <path id="Path_11" data-name="Path 11" d="M2622.479,295.808l0-.032c-.012-.168-.041-.446-.078-.737a8.968,8.968,0,0,0-.349-1.568,8.694,8.694,0,0,0-8.3-6.322,9.126,9.126,0,0,0-1.165.077,8.855,8.855,0,0,0-7.59,10.127,8.664,8.664,0,0,0,8.738,7.7,10.046,10.046,0,0,0,1.167-.073,8.942,8.942,0,0,0,6.046-3.242.525.525,0,0,0,.119-.378.457.457,0,0,0-.2-.307,17.994,17.994,0,0,0-1.71-.89c-.152-.076-.274-.134-.341-.165a.806.806,0,0,0-.37-.115.454.454,0,0,0-.352.2,5.614,5.614,0,0,1-3.6,1.966,6.548,6.548,0,0,1-.756.049,5.882,5.882,0,0,1-5.488-3.785l-.018-.056.052-.025a6.949,6.949,0,0,1,2.892-.58c.2,0,.41.006.615.025.477.035.953.1,1.453.161a21.623,21.623,0,0,0,3.012.249,14.749,14.749,0,0,0,2.066-.147,10.562,10.562,0,0,0,3.819-1.3c.386-.25.37-.456.347-.832m-3.082-1.113a10.417,10.417,0,0,1-1.831.364,9.429,9.429,0,0,1-1.245.072c-.8,0-1.66-.064-2.5-.127l-.03,0c-.774-.058-1.506-.115-2.208-.115a11.056,11.056,0,0,0-1.4.086,10.523,10.523,0,0,0-2.348.576l.009-.108a6.02,6.02,0,0,1,5.143-5.234,6.254,6.254,0,0,1,.756-.045,6.185,6.185,0,0,1,5.7,4.45l.017.065Z" transform="translate(-2584.674 -282.016)" fill="#2e2e2e"/>
      <g id="Group_4" data-name="Group 4" transform="translate(76.971)">
        <path id="Path_12" data-name="Path 12" d="M2698.724,288.5a.412.412,0,0,0-.409-.415h-2.263a.412.412,0,0,0-.407.415V304.56a.414.414,0,0,0,.407.416h2.263a.414.414,0,0,0,.409-.416Z" transform="translate(-2695.147 -282.362)" fill="#2e2e2e"/>
        <path id="Path_13" data-name="Path 13" d="M2696.894,279.011a2.038,2.038,0,1,0,2.041,2.043,2.046,2.046,0,0,0-2.041-2.043" transform="translate(-2694.855 -279.011)" fill="#2e2e2e"/>
      </g>
      <path id="Path_14" data-name="Path 14" d="M2645.4,305.059c.144,0,.289.008.435.008a8.484,8.484,0,0,0,6.08-2.509,9.119,9.119,0,0,0-6.376-15.408,8.757,8.757,0,0,0-8.535,6.649,20.464,20.464,0,0,0-.361,4.113v12.6a.411.411,0,0,0,.411.416l2.245,0a.416.416,0,0,0,.415-.413l0-7.941.121.117a8.931,8.931,0,0,0,5.568,2.372m.1-14.861a5.8,5.8,0,0,1,5.705,6,5.619,5.619,0,0,1-5.534,5.936,5.946,5.946,0,0,1-4.154-1.61,5.751,5.751,0,0,1-1.727-4.225,5.922,5.922,0,0,1,5.71-6.1" transform="translate(-2596.392 -282.016)" fill="#2e2e2e"/>
      <path id="Path_15" data-name="Path 15" d="M2581.594,305.059c.141,0,.29.008.43.008a8.484,8.484,0,0,0,6.081-2.509,9.118,9.118,0,0,0-6.378-15.408,8.755,8.755,0,0,0-8.535,6.649,20.351,20.351,0,0,0-.363,4.113v12.6a.414.414,0,0,0,.411.416l2.246,0a.417.417,0,0,0,.418-.413l0-7.941.115.117a8.932,8.932,0,0,0,5.578,2.372m.1-14.861a5.8,5.8,0,0,1,5.708,6,5.621,5.621,0,0,1-5.539,5.936,5.937,5.937,0,0,1-4.148-1.61,5.749,5.749,0,0,1-1.731-4.225,5.924,5.924,0,0,1,5.711-6.1" transform="translate(-2572.83 -282.016)" fill="#2e2e2e"/>
      <path id="Path_16" data-name="Path 16" d="M2668.165,302.244a9.691,9.691,0,0,0,6.852,2.8h.084c4.774-.031,6.91-2.64,6.91-5.212,0-3.556-3.358-4.525-4.385-4.744l-1.023-.2c-.832-.164-1.693-.327-2.48-.542-.55-.153-2.341-.751-2.341-2.089,0-1.479,1.633-2.271,3.173-2.271a5.459,5.459,0,0,1,3.748,1.292.7.7,0,0,0,.443.184.652.652,0,0,0,.4-.151,15.641,15.641,0,0,0,1.543-1.332.456.456,0,0,0,.153-.356.643.643,0,0,0-.231-.415,9.04,9.04,0,0,0-6.116-2.068h-.018c-3.58,0-6.28,2.3-6.28,5.349,0,2.417,1.986,4.134,5.583,4.837l2.26.435c1.478.271,2.312,1.06,2.283,2.159-.027,1.076-1.345,2.189-3.51,2.189a6.765,6.765,0,0,1-4.625-1.877l-.019-.017a.438.438,0,0,0-.681-.045c-.135.11-1.638,1.3-1.8,1.471a.351.351,0,0,0-.1.25.522.522,0,0,0,.177.343" transform="translate(-2607.964 -282.016)" fill="#2e2e2e"/>
    </g>
    <g id="Group_6" data-name="Group 6" transform="translate(2497.792 269.379)">
      <path id="Path_17" data-name="Path 17" d="M2518.293,310.381a20.5,20.5,0,1,1,20.5-20.5,20.5,20.5,0,0,1-20.5,20.5" transform="translate(-2497.792 -269.379)" fill="#fff"/>
      <path id="Path_18" data-name="Path 18" d="M2537.708,285.479a13.262,13.262,0,0,1-4.878,14.669c-5.744,4.23-14.113,4.234-25.674,7.878a19.02,19.02,0,0,0,30.552-22.548" transform="translate(-2501.249 -275.323)" fill="#004991"/>
      <path id="Path_19" data-name="Path 19" d="M2530.568,275.519a19.024,19.024,0,0,0-26.721,26.514,39.492,39.492,0,0,0,26.721-26.514" transform="translate(-2498.657 -270.242)" fill="#e51720"/>
    </g>
  </g>
</svg>
