<svg xmlns="http://www.w3.org/2000/svg" width="46" height="46" viewBox="0 0 46 46">
  <g id="FB" transform="translate(0 0)">
    <path id="Path_567" data-name="Path 567" d="M130.17,230.946a23,23,0,1,0-26.594,22.721V237.595h-5.84v-6.649h5.84v-5.067c0-5.764,3.434-8.949,8.688-8.949a35.381,35.381,0,0,1,5.149.449v5.66h-2.9c-2.857,0-3.748,1.773-3.748,3.592v4.314h6.379l-1.02,6.649h-5.359v16.072A23.006,23.006,0,0,0,130.17,230.946Z" transform="translate(-84.17 -207.946)" fill="#4676ed"/>
    <path id="Path_568" data-name="Path 568" d="M142.371,254.977l1.02-6.649h-6.379v-4.314c0-1.819.891-3.592,3.748-3.592h2.9v-5.66a35.38,35.38,0,0,0-5.149-.449c-5.254,0-8.688,3.184-8.688,8.949v5.067h-5.84v6.649h5.84v16.072a23.256,23.256,0,0,0,7.188,0V254.977Z" transform="translate(-110.418 -225.329)" fill="#fff"/>
  </g>
</svg>
