<svg xmlns="http://www.w3.org/2000/svg" xmlns:xlink="http://www.w3.org/1999/xlink" width="34" height="33" viewBox="0 0 34 33">
  <defs>
    <clipPath id="clip-icon-lightning">
      <rect width="34" height="33"/>
    </clipPath>
  </defs>
  <g id="icon-lightning" clip-path="url(#clip-icon-lightning)">
    <g id="選單hover" transform="matrix(0.208, 0.978, -0.978, 0.208, 182.126, -3754.715)">
      <g id="Group_1077" data-name="Group 1077" transform="translate(3642.271 941.503)">
        <g id="Group_1076" data-name="Group 1076">
          <path id="Path_1032" data-name="Path 1032" d="M3664.7,987.849a.822.822,0,0,1-1.184-.385l-1.475-3.532-10.785,5.026a.821.821,0,0,1-.93-1.322l12.162-12.267a.812.812,0,0,1,.157-.124.821.821,0,0,1,1.154.323l1.831,3.516,10.336-7.37c.017-.012.034-.023.052-.034a.821.821,0,0,1,1.059,1.224l-12.17,14.767A.807.807,0,0,1,3664.7,987.849Z" transform="translate(-3649.269 -970.736)" fill="#fff"/>
          <path id="Path_1033" data-name="Path 1033" d="M3661.207,974.075l2.267,4.353,11.106-7.919-12.17,14.767-1.8-4.321-11.56,5.387,12.162-12.268m13.373-3.566,0,0m-14.227,2.163a1.639,1.639,0,0,0-.314.248l-12.162,12.268a1.642,1.642,0,0,0,1.86,2.644l10.01-4.665,1.146,2.743a1.642,1.642,0,0,0,2.367.771,1.626,1.626,0,0,0,.415-.359l12.145-14.736a1.642,1.642,0,0,0-2.053-2.5l-.04.024-.052.033-.064.044-9.554,6.813-1.395-2.678a1.643,1.643,0,0,0-2.308-.645Zm1.7,2.808h0Z" transform="translate(-3647.403 -968.866)" fill="#004990"/>
        </g>
      </g>
      <g id="Group_1079" data-name="Group 1079" transform="translate(3640.012 929.463)">
        <g id="Group_1078" data-name="Group 1078">
          <path id="Path_1034" data-name="Path 1034" d="M3673.986,937.438a.775.775,0,0,1-.148.07l-18.006,6.48a.821.821,0,0,1-1.091-.887l.536-3.79-11.839-1.188a.822.822,0,0,1-.344-1.52.81.81,0,0,1,.22-.092l16.722-4.335a.821.821,0,0,1,1.026.841l-.221,3.957,12.652-1.057a.821.821,0,0,1,.494,1.52Z" transform="translate(-3641.878 -931.329)" fill="#ff4398"/>
          <path id="Path_1035" data-name="Path 1035" d="M3641.654,935.44l16.721-4.335-.274,4.9,13.592-1.135-18.006,6.48.656-4.636-12.69-1.273m-.852-1.4a1.642,1.642,0,0,0,.688,3.038l10.988,1.1-.416,2.943a1.642,1.642,0,0,0,2.182,1.775l18.006-6.48a1.659,1.659,0,0,0,.3-.141,1.642,1.642,0,0,0-.989-3.04l-11.71.978.168-3.015a1.642,1.642,0,0,0-2.052-1.681l-16.722,4.335a1.634,1.634,0,0,0-.44.185Z" transform="translate(-3640.012 -929.463)" fill="#004990"/>
        </g>
      </g>
    </g>
  </g>
</svg>
