<svg xmlns="http://www.w3.org/2000/svg" width="46" height="46" viewBox="0 0 46 46">
  <g id="LINE" transform="translate(-0.083)">
    <circle id="Ellipse_6" data-name="Ellipse 6" cx="23" cy="23" r="23" transform="translate(0.083 0)" fill="#68b82b"/>
    <g id="Group_845" data-name="Group 845" transform="translate(7.523 9.027)">
      <g id="FULL_COLOR_ICON" data-name="FULL COLOR ICON" transform="translate(0)">
        <g id="TYPE_A" data-name="TYPE A">
          <g id="Group_844" data-name="Group 844">
            <path id="Path_571" data-name="Path 571" d="M1033.24,640.361c0-6.965-6.982-12.631-15.564-12.631s-15.564,5.666-15.564,12.631c0,6.244,5.537,11.472,13.016,12.461.507.109,1.2.334,1.371.767a3.2,3.2,0,0,1,.05,1.408s-.183,1.1-.222,1.332c-.068.394-.313,1.539,1.348.839s8.963-5.278,12.229-9.036h0a11.237,11.237,0,0,0,3.336-7.771" transform="translate(-1002.111 -627.73)" fill="#fff"/>
            <g id="Group_843" data-name="Group 843" transform="translate(5.106 9.265)">
              <path id="Path_572" data-name="Path 572" d="M1036.036,655.113h-1.092a.3.3,0,0,0-.3.3V662.2a.3.3,0,0,0,.3.3h1.092a.3.3,0,0,0,.3-.3v-6.782a.3.3,0,0,0-.3-.3" transform="translate(-1028.74 -655.113)" fill="#68b82b"/>
              <path id="Path_573" data-name="Path 573" d="M1048.947,655.113h-1.092a.3.3,0,0,0-.3.3v4.029l-3.108-4.2a.349.349,0,0,0-.023-.031l0,0-.018-.019-.006-.005-.016-.013-.008-.006-.016-.011-.009-.005-.016-.009-.009,0-.018-.008-.01,0-.018-.006-.01,0-.018,0-.013,0-.016,0H1043.1a.3.3,0,0,0-.3.3V662.2a.3.3,0,0,0,.3.3h1.092a.3.3,0,0,0,.3-.3V658.17l3.112,4.2a.293.293,0,0,0,.077.075l0,0,.019.012.008,0,.015.007.015.006.009,0,.021.006h0a.29.29,0,0,0,.078.01h1.092a.3.3,0,0,0,.3-.3v-6.782a.3.3,0,0,0-.3-.3" transform="translate(-1034.137 -655.113)" fill="#68b82b"/>
              <path id="Path_574" data-name="Path 574" d="M1021.866,660.8H1018.9v-5.386a.3.3,0,0,0-.3-.3H1017.5a.3.3,0,0,0-.3.3V662.2h0a.3.3,0,0,0,.085.209l0,0,0,0a.3.3,0,0,0,.209.085h4.362a.3.3,0,0,0,.3-.3V661.1a.3.3,0,0,0-.3-.3" transform="translate(-1017.201 -655.113)" fill="#68b82b"/>
              <path id="Path_575" data-name="Path 575" d="M1069.671,656.811a.3.3,0,0,0,.3-.3v-1.091a.3.3,0,0,0-.3-.3h-4.362a.3.3,0,0,0-.21.085l0,0-.005.005a.3.3,0,0,0-.084.209h0v6.78h0a.3.3,0,0,0,.085.209l0,0,0,0a.3.3,0,0,0,.209.085h4.362a.3.3,0,0,0,.3-.3v-1.091a.3.3,0,0,0-.3-.3H1066.7v-1.146h2.966a.3.3,0,0,0,.3-.3v-1.091a.3.3,0,0,0-.3-.3H1066.7v-1.146Z" transform="translate(-1048.831 -655.113)" fill="#68b82b"/>
            </g>
          </g>
        </g>
      </g>
    </g>
  </g>
</svg>
