<svg xmlns="http://www.w3.org/2000/svg" width="141.24" height="21.216" viewBox="0 0 141.24 21.216">
  <path id="獎品寄送" d="M21.888-10.608v3.576h-5.4l-.264-.5H12.48L10.7-10.128h4.512l.744,1.1h1.776v-1.584H10.2v-1.968h7.536V-13.92l-.984.72H10.608L9.72-14.784v7.752H5.688v-3.936H4.944v2.64l-.672,1.3H1.1l.864-1.632v-2.3H1.392v-2.256h4.3v-1.464H1.824v-4.68h3.1V-16.8h.768v-3.144H9.72v2.856l2.64-2.9h4.8l-.576.624h5.688V-17.3l-4.1,3.048h3.72v1.68h.888v1.968Zm-5.4,11.832L12.144-1.8,7.776,1.224H1.08L7.632-3.312H1.7V-5.424H9.888v-1.7h4.44v1.7h2.04l-.432-1.1H20.3l.336,1.1h1.968v2.112h-8.28l-.84.648h4.056L23.28,1.224ZM14.832-17.4l-.408.432h1.032l.216.432,1.1-.864Zm-1.7.864H9.72v1.416h1.152l-.5-.96h2.544l.528.96h.576Zm14.688,6.048V-19.68H44.808v9.192ZM36.624,1.2V-8.976h9.72V1.2Zm-10.776,0V-8.952h9.72V1.2Zm14.5-18.576H32.28v4.608h8.064ZM42.192-6.7H40.824v5.64h1.368Zm-10.776.024H30v5.64h1.416Zm32.5-2.544-3.984-1.992L56.28-9.216H49.464l6.024-3.336h-4.3v-1.536H49.656V-18.7h7.992l-.48-1.248H62.04l.5,1.248h7.968v4.632H68.88v1.512H62.3l-1.248.72h4.512l5.088,2.616Zm5.256,2.784V1.224h-5.16l-.864-2.28h1.512V-6.432H49.56v-2.3H70.536v2.3ZM51.024.48V-5.592H62.832V.48ZM66.048-16.368H54.1v1.512h3.72v-1.056h4.536v1.056h3.7ZM58.584-3.48H55.3v1.752h3.288ZM75.552-15.24l-2.208-4.728h4.7l2.184,4.728ZM93.984,1.2H81.192L79.032-.144,78.216,1.2H73.392l2.28-3.96V-6.12H73.68V-8.232l2.064-4.1H73.416v-2.28H79.9v2.664l-1.7,3.48H79.92v6.216l.288.192,4.32-7.008H80.184v-2.256H85.1v-3.12H80.472v-2.28h1.68l-.96-3.24h4.464l1.008,3.24H88.2l.864-3.24h4.464l-.864,3.24H94.2v2.28H89.592v3.12h4.944v2.256H89.424l-.5.84h2.112L94.8-1.824H90.12l-2.52-4.2-2.5,4.2H80.5l1.2.792h13.32Zm11.9-12.12v-2.232h4.1V-15.7h-3.384v-2.16h3.384v-2.088h4.368v2.088h3.6v2.16h-3.6v2.544H118.7v2.232ZM117.408-6.5v7.68H112.08l-.7-1.464h-3.24l-1.68-5.352h4.44l1.368,4.512h.864V-6.5h-7.248v-2.28h7.248v-1.368h4.272v1.368h1.32V-6.5ZM97.7.576V-19.2h7.68V.576Zm4.368-17.448h-1.008v6.408h1.008Zm0,8.712h-1.008v6.48h1.008ZM136.848,1.2,136.3-.216h-9.168V-9.984h10.008v8.832h1.032V-10.92H132.7V-19.7h9.624V1.2ZM126-10.92V1.2h-4.08V-19.7h9.624v8.784Zm12.168-6.6h-1.8v1.128h1.8Zm0,3.264h-1.8v1.128h1.8ZM127.824-17.52H126v1.128h1.824Zm0,3.264H126v1.128h1.824ZM133.2-7.7h-2.136v1.512H133.2Zm0,3.648h-2.136v1.512H133.2Z" transform="translate(-1.08 19.992)" fill="#ffe81c"/>
</svg>
