<svg xmlns="http://www.w3.org/2000/svg" width="93.936" height="21.144" viewBox="0 0 93.936 21.144">
  <path id="活動內容" d="M21.624-16.56H17.352v2.712h5.424v2.28H17.352V-8.76H21.96V1.224H8.256V-8.76h4.608v-2.808H7.416v-2.28h5.448V-16.56H8.184v-2.232h9.528l.576-1.128h4.728ZM3.432-14.376,1.272-19.9H5.784L7.9-14.376ZM3.36-8.28,1.392-13.464H5.9L7.776-8.28Zm2.424,9.5H1.344L3.192-7.44h4.44ZM17.52-6.432H12.744V-1.08H17.52ZM42.6,1.08l-1.008-1.9-.7,1.944h-3.84l.192-.552L25.56,1.224V-.864l4.224-.216V-2.208h-3.6V-4.176h3.6v-.936h-3.96V-13.08h3.96v-.84h-4.32v-2.136h4.32v-.84H25.8V-18.96h7.248l.432-.96h4.368L36.7-16.9H33.648v.84H37.7v2.136H33.648v.84H37.56v7.968H33.648v.936h3.624v1.968H33.648v.864l3.792-.168V.1l1.272-3.744V-14.136h-.648v-2.28h.648v-3.5h3.5v3.5h4.272V1.08Zm.432-15.216h-.816V-2.52l-.48,1.368h1.3ZM34.7-11.088H33.648v1.032H34.7Zm0,2.976H33.648V-7.08H34.7Zm-4.92-2.976H28.728v1.032h1.056Zm0,2.976H28.728V-7.08h1.056Zm32.9,9.336L61.416-1.224l4.248.024V-2.64H61.92L60.168-6,58.344-2.64H54.576V1.224H49.992V-15.192h7.824V-17.3H52.7v-2.472h9.6v4.584h7.92V1.224Zm2.976-14.016H62.3v2.52l3.36,6.288Zm-7.848,0h-3.24v8.808l3.24-6.288ZM93.48-5.328V1.2H74.808V-5.328H73.152L78.6-11.064H73.752l3.768-3.072H73.584v-4.2h8.28L81.24-19.9h4.92l.6,1.56h7.7v4.2H90.816l3.456,3.072H89.664l5.544,5.736ZM89.928-16.1H78.168v1.392l.7-.576h5.088l-3.888,3.6H88.2l-4.056-3.6H89.52l.408.336ZM85.464-9.432h-2.9l-2.76,2.9h8.472Zm3.528,5.184H79.248V-1.08h9.744Z" transform="translate(-1.272 19.92)" fill="#ffe81c"/>
</svg>
