<svg xmlns="http://www.w3.org/2000/svg" width="141.264" height="21.24" viewBox="0 0 141.264 21.24">
  <path id="資料回寄" d="M17.088-11.424,15.312-12.6l-2.376,1.176H6.1l6.528-3.36v-1.584h4.32v1.632h1.08l5.136,3.312Zm1.128-3.888v-1.68H12.744l-.96,1.7H7.56L5.808-11.424H1.344l1.992-4.248H7.3l.408-.7H3.384L1.248-19.944H5.856l1.968,3.336,1.968-3.336h4.68l-.552,1.008h8.544v3.624ZM16.944,1.224,13.632-1.008H10.68L7.224,1.224H1.056l3.36-2.232H2.832v-9.744h18.6v9.744h-1.68l3.432,2.232Zm.168-9.912H7.152v.72h9.96Zm0,2.448H7.152v.72h9.96Zm0,2.352H7.152v.768h9.96Zm19.776-9.48-1.3-5.592h4.08l1.368,5.592Zm8.784,9.552V1.272H41.448V-3.1l-5.808.984V-4.488L41.448-5.5V-19.968h4.224V-6.216l1.248-.216v2.376ZM34.8-13.344H32.928l.624-5.616h1.872Zm2.088,7.032-1.3-5.952h4.056l1.3,5.952ZM26.112-13.344l-.624-5.616H27.48l.624,5.616Zm6.456,3.072V1.272h-4.1V-10.272H25.416v-2.28h3.048v-7.416h4.1v7.416h2.664v2.28ZM33.5.144l-.456-9.7h1.92l.48,9.7Zm-5.88,0H25.632l.312-9.7h2.04Zm36.288-9.36-3.984-1.992L56.28-9.216H49.464l6.024-3.336h-4.3v-1.536H49.656V-18.7h7.992l-.48-1.248H62.04l.5,1.248h7.968v4.632H68.88v1.512H62.3l-1.248.72h4.512l5.088,2.616Zm5.256,2.784V1.224h-5.16l-.864-2.28h1.512V-6.432H49.56v-2.3H70.536v2.3ZM51.024.48V-5.592H62.832V.48ZM66.048-16.368H54.1v1.512h3.72v-1.056h4.536v1.056h3.7ZM58.584-3.48H55.3v1.752h3.288Zm15.264,4.7V-19.752H94.464V1.224ZM90.1-17.4H78.24V-1.1H90.1ZM79.3-3.024V-15.552h9.7V-3.024Zm5.88-10.2H83.112v7.872h2.064Zm20.712,2.3v-2.232h4.1V-15.7h-3.384v-2.16h3.384v-2.088h4.368v2.088h3.6v2.16h-3.6v2.544H118.7v2.232ZM117.408-6.5v7.68H112.08l-.7-1.464h-3.24l-1.68-5.352h4.44l1.368,4.512h.864V-6.5h-7.248v-2.28h7.248v-1.368h4.272v1.368h1.32V-6.5ZM97.7.576V-19.2h7.68V.576Zm4.368-17.448h-1.008v6.408h1.008Zm0,8.712h-1.008v6.48h1.008ZM136.848,1.2,136.3-.216h-9.168V-9.984h10.008v8.832h1.032V-10.92H132.7V-19.7h9.624V1.2ZM126-10.92V1.2h-4.08V-19.7h9.624v8.784Zm12.168-6.6h-1.8v1.128h1.8Zm0,3.264h-1.8v1.128h1.8ZM127.824-17.52H126v1.128h1.824Zm0,3.264H126v1.128h1.824ZM133.2-7.7h-2.136v1.512H133.2Zm0,3.648h-2.136v1.512H133.2Z" transform="translate(-1.056 19.968)" fill="#ffe81c"/>
</svg>
