<svg xmlns="http://www.w3.org/2000/svg" width="93.96" height="21.288" viewBox="0 0 93.96 21.288">
  <path id="活動獎項" d="M21.624-16.56H17.352v2.712h5.424v2.28H17.352V-8.76H21.96V1.224H8.256V-8.76h4.608v-2.808H7.416v-2.28h5.448V-16.56H8.184v-2.232h9.528l.576-1.128h4.728ZM3.432-14.376,1.272-19.9H5.784L7.9-14.376ZM3.36-8.28,1.392-13.464H5.9L7.776-8.28Zm2.424,9.5H1.344L3.192-7.44h4.44ZM17.52-6.432H12.744V-1.08H17.52ZM42.6,1.08l-1.008-1.9-.7,1.944h-3.84l.192-.552L25.56,1.224V-.864l4.224-.216V-2.208h-3.6V-4.176h3.6v-.936h-3.96V-13.08h3.96v-.84h-4.32v-2.136h4.32v-.84H25.8V-18.96h7.248l.432-.96h4.368L36.7-16.9H33.648v.84H37.7v2.136H33.648v.84H37.56v7.968H33.648v.936h3.624v1.968H33.648v.864l3.792-.168V.1l1.272-3.744V-14.136h-.648v-2.28h.648v-3.5h3.5v3.5h4.272V1.08Zm.432-15.216h-.816V-2.52l-.48,1.368h1.3ZM34.7-11.088H33.648v1.032H34.7Zm0,2.976H33.648V-7.08H34.7Zm-4.92-2.976H28.728v1.032h1.056Zm0,2.976H28.728V-7.08h1.056Zm40.1-2.5v3.576h-5.4l-.264-.5H60.48L58.7-10.128h4.512l.744,1.1h1.776v-1.584H58.2v-1.968h7.536V-13.92l-.984.72H58.608l-.888-1.584v7.752H53.688v-3.936h-.744v2.64l-.672,1.3H49.1l.864-1.632v-2.3h-.576v-2.256h4.3v-1.464H49.824v-4.68h3.1V-16.8h.768v-3.144H57.72v2.856l2.64-2.9h4.8l-.576.624h5.688V-17.3l-4.1,3.048h3.72v1.68h.888v1.968Zm-5.4,11.832L60.144-1.8,55.776,1.224h-6.7l6.552-4.536H49.7V-5.424h8.184v-1.7h4.44v1.7h2.04l-.432-1.1H68.3l.336,1.1h1.968v2.112h-8.28l-.84.648h4.056L71.28,1.224ZM62.832-17.4l-.408.432h1.032l.216.432,1.1-.864Zm-1.7.864H57.72v1.416h1.152l-.5-.96h2.544l.528.96h.576Zm29.448-.888-.5,1.56h4.272v12.72H82.44v-12.72h3.144l.552-1.56h-4.3v-2.328H94.728v2.328ZM90.7,1.3l-2.16-3.768h4.536L95.232,1.3ZM73.416.5V-2.04l1.944-.624V-16.776H73.536v-2.376H81.36v2.376H79.584v12.7l2.184-.72v2.424ZM85.392,1.3H80.808l2.64-3.768H88.1Zm4.7-14.88H86.688v1.368H90.1Zm0,3.384H86.688v1.368H90.1Zm0,3.408H86.688v1.344H90.1Z" transform="translate(-1.272 19.992)" fill="#ffe81c"/>
</svg>
