<svg xmlns="http://www.w3.org/2000/svg" width="140.4" height="21.24" viewBox="0 0 140.4 21.24">
  <path id="中獎公告時間" d="M14.4-3.744V1.224H9.744V-3.744H1.92V-16.488H9.744v-3.528H14.4v3.528h7.872V-3.744Zm3.312-10.44H14.4v8.136h3.312Zm-7.968,0H6.384v8.136h3.36Zm36.144,3.576v3.576h-5.4l-.264-.5H36.48L34.7-10.128h4.512l.744,1.1h1.776v-1.584H34.2v-1.968h7.536V-13.92l-.984.72H34.608l-.888-1.584v7.752H29.688v-3.936h-.744v2.64l-.672,1.3H25.1l.864-1.632v-2.3h-.576v-2.256h4.3v-1.464H25.824v-4.68h3.1V-16.8h.768v-3.144H33.72v2.856l2.64-2.9h4.8l-.576.624h5.688V-17.3l-4.1,3.048h3.72v1.68h.888v1.968Zm-5.4,11.832L36.144-1.8,31.776,1.224h-6.7l6.552-4.536H25.7V-5.424h8.184v-1.7h4.44v1.7h2.04l-.432-1.1H44.3l.336,1.1h1.968v2.112h-8.28l-.84.648h4.056L47.28,1.224ZM38.832-17.4l-.408.432h1.032l.216.432,1.1-.864Zm-1.7.864H33.72v1.416h1.152l-.5-.96h2.544l.528.96h.576Zm29.016,7.32L61.512-19.9H66.5l4.608,10.68Zm-11.88,0H49.2L53.448-19.9H58.44ZM65.952,1.08l-.864-1.7-.936,1.7H50.4V-1.08l7.152-11.808h5.256L55.872-1.272H64.8l-2.928-6.5h4.92L70.9,1.08Zm20.5-10.608v1.68H81.7v-1.68H73.344v-2.328H81.7v-2.76H78.672L78-12.5H73.248L75.5-19.248h4.632l-.72,2.3H81.7v-3.072h4.752v3.072h7.344v2.328H86.448v2.76h8.28v2.328ZM74.4,1.176v-8.3H93.6v8.3ZM88.944-4.776H79.176v3.648h9.768Zm16.944-6.144v-2.232h4.1V-15.7h-3.384v-2.16h3.384v-2.088h4.368v2.088h3.6v2.16h-3.6v2.544H118.7v2.232ZM117.408-6.5v7.68H112.08l-.7-1.464h-3.24l-1.68-5.352h4.44l1.368,4.512h.864V-6.5h-7.248v-2.28h7.248v-1.368h4.272v1.368h1.32V-6.5ZM97.7.576V-19.2h7.68V.576Zm4.368-17.448h-1.008v6.408h1.008Zm0,8.712h-1.008v6.48h1.008ZM136.848,1.2,136.3-.216h-9.168V-9.984h10.008v8.832h1.032V-10.92H132.7V-19.7h9.624V1.2ZM126-10.92V1.2h-4.08V-19.7h9.624v8.784Zm12.168-6.6h-1.8v1.128h1.8Zm0,3.264h-1.8v1.128h1.8ZM127.824-17.52H126v1.128h1.824Zm0,3.264H126v1.128h1.824ZM133.2-7.7h-2.136v1.512H133.2Zm0,3.648h-2.136v1.512H133.2Z" transform="translate(-1.92 20.016)" fill="#ffe81c"/>
</svg>
