<svg xmlns="http://www.w3.org/2000/svg" width="203.531" height="65.002" viewBox="0 0 203.531 65.002">
  <g id="logo" transform="translate(-2497.792 -269.379)">
    <g id="Group_5" data-name="Group 5">
      <path id="Path_11" data-name="Path 11" d="M2632.764,300.876l0-.051c-.019-.267-.065-.707-.124-1.168a14.246,14.246,0,0,0-.553-2.486,13.783,13.783,0,0,0-13.164-10.022,14.477,14.477,0,0,0-1.847.122,14.038,14.038,0,0,0-12.033,16.054,13.735,13.735,0,0,0,13.852,12.207,15.934,15.934,0,0,0,1.85-.116,14.174,14.174,0,0,0,9.585-5.14.832.832,0,0,0,.189-.6.725.725,0,0,0-.319-.486,28.517,28.517,0,0,0-2.711-1.411c-.241-.121-.435-.212-.54-.261a1.28,1.28,0,0,0-.587-.183.72.72,0,0,0-.559.312,8.9,8.9,0,0,1-5.709,3.117,10.386,10.386,0,0,1-1.2.077c-3.779,0-7.595-2.528-8.7-6l-.028-.089.083-.039a11.018,11.018,0,0,1,4.585-.919c.322,0,.651.01.975.039.756.056,1.51.154,2.3.256a34.279,34.279,0,0,0,4.775.395,23.379,23.379,0,0,0,3.276-.233c4.327-.833,6.039-2.042,6.054-2.055.613-.4.587-.723.55-1.319m-4.886-1.765a16.523,16.523,0,0,1-2.9.577,14.95,14.95,0,0,1-1.974.114c-1.262,0-2.631-.1-3.956-.2l-.048,0c-1.227-.092-2.388-.182-3.5-.182a17.542,17.542,0,0,0-2.222.137,16.683,16.683,0,0,0-3.723.913l.015-.172a9.543,9.543,0,0,1,8.153-8.3,9.908,9.908,0,0,1,1.2-.071,9.8,9.8,0,0,1,9.033,7.055l.027.1Z" fill="#fff"/>
      <g id="Group_4" data-name="Group 4">
        <path id="Path_12" data-name="Path 12" d="M2700.526,288.746a.653.653,0,0,0-.648-.658h-3.588a.654.654,0,0,0-.645.658V314.2a.657.657,0,0,0,.645.659h3.588a.656.656,0,0,0,.648-.659Z" fill="#fff"/>
        <path id="Path_13" data-name="Path 13" d="M2698.088,279.011a3.231,3.231,0,1,0,3.235,3.239,3.243,3.243,0,0,0-3.235-3.239" fill="#fff"/>
      </g>
      <path id="Path_14" data-name="Path 14" d="M2650.53,315.542c.228,0,.459.012.689.012a13.45,13.45,0,0,0,9.639-3.978,14.457,14.457,0,0,0-10.108-24.427,13.883,13.883,0,0,0-13.53,10.541,32.45,32.45,0,0,0-.573,6.52v19.976a.652.652,0,0,0,.651.659l3.559-.005a.66.66,0,0,0,.658-.654l0-12.589.192.185a14.157,14.157,0,0,0,8.827,3.76m.164-23.559a9.19,9.19,0,0,1,9.045,9.513c0,5.363-3.769,9.411-8.774,9.411a9.427,9.427,0,0,1-6.585-2.552,9.118,9.118,0,0,1-2.738-6.7c0-5.331,4.056-9.674,9.052-9.674" fill="#fff"/>
      <path id="Path_15" data-name="Path 15" d="M2586.724,315.542c.223,0,.46.012.682.012a13.45,13.45,0,0,0,9.64-3.978,14.456,14.456,0,0,0-10.111-24.427,13.879,13.879,0,0,0-13.53,10.541,32.252,32.252,0,0,0-.575,6.52v19.976a.656.656,0,0,0,.651.659l3.561-.005a.661.661,0,0,0,.662-.654L2577.7,311.6l.183.185a14.161,14.161,0,0,0,8.843,3.76m.154-23.559a9.19,9.19,0,0,1,9.048,9.513c0,5.363-3.77,9.411-8.781,9.411a9.413,9.413,0,0,1-6.577-2.552,9.115,9.115,0,0,1-2.744-6.7c0-5.331,4.06-9.674,9.054-9.674" fill="#fff"/>
      <path id="Path_16" data-name="Path 16" d="M2668.269,311.079a15.363,15.363,0,0,0,10.862,4.446h.134c7.568-.049,10.954-4.186,10.954-8.263,0-5.638-5.324-7.174-6.952-7.521l-1.621-.31c-1.319-.26-2.685-.519-3.932-.86-.872-.243-3.711-1.191-3.711-3.311,0-2.344,2.589-3.6,5.031-3.6a8.655,8.655,0,0,1,5.942,2.049,1.107,1.107,0,0,0,.7.291,1.035,1.035,0,0,0,.641-.239,24.813,24.813,0,0,0,2.447-2.111.725.725,0,0,0,.243-.565,1.02,1.02,0,0,0-.366-.658,14.332,14.332,0,0,0-9.7-3.278h-.028c-5.675,0-9.956,3.649-9.956,8.48,0,3.832,3.149,6.554,8.852,7.668l3.583.689c2.343.43,3.665,1.68,3.62,3.423-.042,1.705-2.133,3.471-5.565,3.471a10.726,10.726,0,0,1-7.332-2.976l-.03-.027a.694.694,0,0,0-1.08-.071c-.215.175-2.6,2.063-2.859,2.332a.557.557,0,0,0-.164.4.829.829,0,0,0,.281.544" fill="#fff"/>
    </g>
    <g id="Group_6" data-name="Group 6">
      <path id="Path_17" data-name="Path 17" d="M2530.293,334.381a32.5,32.5,0,1,1,32.5-32.5,32.5,32.5,0,0,1-32.5,32.5" fill="#fff"/>
      <path id="Path_18" data-name="Path 18" d="M2555.592,285.479a21.026,21.026,0,0,1-7.734,23.256c-9.106,6.706-22.374,6.713-40.7,12.49a30.154,30.154,0,0,0,48.436-35.746" fill="#004991"/>
      <path id="Path_19" data-name="Path 19" d="M2548.381,277.744a30.16,30.16,0,0,0-42.361,42.034,62.607,62.607,0,0,0,42.361-42.034" fill="#e51720"/>
    </g>
  </g>
</svg>
